<svg xmlns:rdf="http://www.w3.org/1999/02/22-rdf-syntax-ns#" xmlns="http://www.w3.org/2000/svg" version="1.1" xmlns:cc="http://creativecommons.org/ns#" xmlns:dc="http://purl.org/dc/elements/1.1/" viewBox="0 0 744.09 1052.4">
 <g transform="translate(-1313.6 -113.66)">
  <g transform="translate(-4683.9 2918.9)">
   <rect rx="10.63" ry="10.63" height="311.81" width="223.23" stroke="#000" y="-2435" x="6257.9" stroke-width=".99673" fill="#fff"/>
   <g fill="#d40000" transform="matrix(.30106 0 0 .30106 5370.1 -1979.9)">
    <path d="m2971.7-1386.8c0.5319-14.533 5.8816-19.991 16.421-27.6-8.4057-5.9629-11.95-14.736-11.234-22.212 1.7322-18.092 15.976-27.144 31.505-26.75 15.529 0.3942 28.913 12.501 29.957 25.649 0.9079 11.437-2.5591 16.948-10.82 22.969 9.8084 8.1096 16.078 13.452 15.84 27.769-0.2379 14.316-12.641 31.355-34.26 31.878-21.62 0.5231-37.94-17.169-37.408-31.703zm60.362 0.048c0.9274-13.16-10.922-22.04-24.292-22.178-13.028-0.1345-24.683 10.784-24.685 22.599 0 12.692 15.158 19.586 24.948 19.623 11.899 0.044 23.23-8.7095 24.029-20.044zm-4.2782-47.078c0.2587-11.086-10.154-19.031-20.888-18.711-9.5508 0.2844-19.667 7.4427-19.672 16.71-0.01 11.592 11.5 17.38 21.314 17.598 8.9033 0.1981 19.051-7.2235 19.246-15.597z"/>
    <path d="m3667.7-600.56c-0.5319 14.533-5.8816 19.991-16.421 27.6 8.4057 5.9629 11.95 14.736 11.234 22.212-1.7322 18.092-15.976 27.144-31.505 26.75-15.529-0.3942-28.913-12.501-29.957-25.649-0.9079-11.437 2.5591-16.948 10.82-22.969-9.8084-8.1096-16.078-13.452-15.84-27.769 0.2379-14.316 12.641-31.355 34.26-31.878 21.62-0.5231 37.94 17.169 37.408 31.703zm-60.362-0.048c-0.9274 13.16 10.922 22.04 24.292 22.178 13.028 0.1345 24.683-10.784 24.685-22.599 0-12.692-15.158-19.586-24.948-19.623-11.899-0.044-23.23 8.7095-24.029 20.044zm4.2782 47.078c-0.2587 11.086 10.154 19.031 20.888 18.711 9.5508-0.2844 19.667-7.4427 19.672-16.71 0.01-11.592-11.5-17.38-21.314-17.598-8.9033-0.1981-19.051 7.2235-19.246 15.597z"/>
   </g>
  </g>
  <path d="m1583.6 546.85c-1.583-3.4723-1.7567-9.4054 2.9711-10.208 3.5621-0.45844 5.0117 1.1983 5.2999 3.7419 0.1422 0.74302 0.5617 0.7885 0.6948-0.0583 0.2044-2.6094 2.7872-4.1326 4.8064-3.75 5.5266 0.9454 5.2039 7.0284 3.3985 11.156-2.7309 5.4795-5.6006 8.9376-8.245 14.452-3.0382-5.741-6.5073-10.405-8.9257-15.333z" fill="#d40000"/>
  <path d="m1618.6 511.57c7.144-0.4744 10.868 5.6274 11.595 10.436 0.4334 0.76389 0.6707 0.54864 0.8369-0.0423 0.3493-6.1741 5.8749-11.22 10.993-10.53 8.328 0.10829 13.39 9.3754 11.966 17.219-1.7385 9.5816-6.8997 15.351-10.808 21.293-4.4213 6.1524-10.373 15.04-12.29 19.317 0 0-6.0483-9.2045-13.917-20.03-5.2618-7.2385-9.4731-15.082-9.8651-21.835-0.4479-7.7155 2.7193-14.632 11.489-15.828z" fill="#d40000"/>
  <path d="m1728.1 511.57c7.144-0.4744 10.868 5.6274 11.595 10.436 0.4334 0.76389 0.6707 0.54864 0.8369-0.0423 0.3493-6.1741 5.8749-11.22 10.993-10.53 8.328 0.10829 13.39 9.3754 11.966 17.219-1.7385 9.5816-6.8997 15.351-10.808 21.293-4.4213 6.1524-10.373 15.04-12.29 19.317 0 0-6.0483-9.2045-13.917-20.03-5.2618-7.2385-9.4731-15.082-9.8651-21.835-0.4479-7.7155 2.7193-14.632 11.489-15.828z" fill="#d40000"/>
  <path d="m1672.8 561.7c7.144-0.4744 10.868 5.6274 11.595 10.436 0.4334 0.76389 0.6707 0.54864 0.8369-0.0423 0.3493-6.1741 5.8749-11.22 10.993-10.53 8.328 0.10829 13.39 9.3754 11.966 17.219-1.7385 9.5816-6.8997 15.351-10.808 21.293-4.4213 6.1524-10.373 15.04-12.29 19.317 0 0-6.0483-9.2045-13.917-20.03-5.2618-7.2385-9.4731-15.082-9.8651-21.835-0.4479-7.7155 2.7193-14.632 11.489-15.828z" fill="#d40000"/>
  <path d="m1618.6 611.82c7.144-0.4744 10.868 5.6274 11.595 10.436 0.4334 0.76389 0.6707 0.54864 0.8369-0.0423 0.3493-6.1741 5.8749-11.22 10.993-10.53 8.328 0.10829 13.39 9.3754 11.966 17.219-1.7385 9.5816-6.8997 15.351-10.808 21.293-4.4213 6.1524-10.373 15.04-12.29 19.317 0 0-6.0483-9.2045-13.917-20.03-5.2618-7.2385-9.4731-15.082-9.8651-21.835-0.4479-7.7155 2.7193-14.632 11.489-15.828z" fill="#d40000"/>
  <path d="m1728.1 611.82c7.144-0.4744 10.868 5.6274 11.595 10.436 0.4334 0.76389 0.6707 0.54864 0.8369-0.0423 0.3493-6.1741 5.8749-11.22 10.993-10.53 8.328 0.10829 13.39 9.3754 11.966 17.219-1.7385 9.5816-6.8997 15.351-10.808 21.293-4.4213 6.1524-10.373 15.04-12.29 19.317 0 0-6.0483-9.2045-13.917-20.03-5.2618-7.2385-9.4731-15.082-9.8651-21.835-0.4479-7.7155 2.7193-14.632 11.489-15.828z" fill="#d40000"/>
  <path d="m1728.1 767.91c7.144 0.4744 10.868-5.6274 11.595-10.436 0.4334-0.76389 0.6707-0.54864 0.8369 0.0423 0.3493 6.1741 5.8749 11.22 10.993 10.53 8.328-0.10829 13.39-9.3754 11.966-17.219-1.7385-9.5816-6.8997-15.351-10.808-21.293-4.4213-6.1524-10.373-15.04-12.29-19.317 0 0-6.0483 9.2045-13.917 20.03-5.2618 7.2385-9.4731 15.082-9.8651 21.835-0.4479 7.7155 2.7193 14.632 11.489 15.828z" fill="#d40000"/>
  <path d="m1672.8 718.61c7.144 0.4744 10.868-5.6274 11.595-10.436 0.4334-0.76389 0.6707-0.54864 0.8369 0.0423 0.3493 6.1741 5.8749 11.22 10.993 10.53 8.328-0.10829 13.39-9.3754 11.966-17.219-1.7385-9.5816-6.8997-15.351-10.808-21.293-4.4213-6.1524-10.373-15.04-12.29-19.317 0 0-6.0483 9.2045-13.917 20.03-5.2618 7.2385-9.4731 15.082-9.8651 21.835-0.4479 7.7155 2.7193 14.632 11.489 15.828z" fill="#d40000"/>
  <path d="m1618.6 767.91c7.144 0.4744 10.868-5.6274 11.595-10.436 0.4334-0.76389 0.6707-0.54864 0.8369 0.0423 0.3493 6.1741 5.8749 11.22 10.993 10.53 8.328-0.10829 13.39-9.3754 11.966-17.219-1.7385-9.5816-6.8997-15.351-10.808-21.293-4.4213-6.1524-10.373-15.04-12.29-19.317 0 0-6.0483 9.2045-13.917 20.03-5.2618 7.2385-9.4731 15.082-9.8651 21.835-0.4479 7.7155 2.7193 14.632 11.489 15.828z" fill="#d40000"/>
  <path d="m1772.5 737.7c-1.583 3.4723-1.7567 9.4054 2.9711 10.208 3.5621 0.45844 5.0117-1.1983 5.2999-3.7419 0.1422-0.74302 0.5617-0.7885 0.6948 0.0583 0.2044 2.6094 2.7872 4.1326 4.8064 3.75 5.5266-0.9454 5.2039-7.0284 3.3985-11.156-2.7309-5.4795-5.6006-8.9376-8.245-14.452-3.0382 5.741-6.5073 10.405-8.9257 15.333z" fill="#d40000"/>
 </g>
</svg>
