<svg xmlns:rdf="http://www.w3.org/1999/02/22-rdf-syntax-ns#" xmlns="http://www.w3.org/2000/svg" version="1.1" xmlns:cc="http://creativecommons.org/ns#" xmlns:dc="http://purl.org/dc/elements/1.1/" viewBox="0 0 744.09 1052.4">
 <title>Vectorized Playing Cards 1.0</title>
 <g transform="translate(-735.7 486.83)">
  <g transform="translate(-6377.9 2318.4)">
   <rect rx="10.63" ry="10.63" height="311.81" width="223.23" stroke="#000" y="-2435" x="7374.1" stroke-width=".99673" fill="#fff"/>
  </g>
  <g transform="matrix(.15445 .0017148 -.0017148 .15445 1083.6 -88.787)">
   <g transform="matrix(.99998 .0065437 -.0065437 .99998 -2088.7 -72.36)">
    <path d="m1122 32.375c0.5503 512.28 5.9993 1141.8 6.375 1699.8l1059.9-0.25-7.1-1697.2zm313.31 10.875c182.87 4.9633 366.87-0.40393 551.09 1.0312 0 0-66.932 116.59-87.219 153.28-4.4414 8.0693-4.8934 13.779-2.5 17.125 3.7034 5.1773 3.3984 13.935-0.75 19-1.777 2.17-2.5844 3.576-2.7187 4.875-0.1342 1.2963 1.0289 2.7164 1.9687 5.0625 3.2757 11.177-5.1794 18.912-14.031 22.5-5.9368 2.4062-19.152 3.9941-28.906 3.5312-61.135-2.9011-181.03-54.566-230.44-58.594-34.281-9.5713-78.578-6.2249-115.09-4.1562-6.8942 0.41426-5.6876-15.656-5.6876-15.656-5.7537-53.076-43.346-99.286-65.719-148zm561.03 4.8438 172.81 0.1875 0.7813 27.906-72.719 74.531c-6.8474 6.9705-12.25 12.75-12.25 12.75l-0.4376 67.25c-49.57-26.635-59.447-58.462-68.5-93.469-82.861 61.132-86.74 194.91 3.7188 263.78 0.7401-29.916 23.537-88.701 63.938-93.062l0.4 233.03-49.6-48.53-108.1 1.41c17.808-28.898 18.212-51.849 6.6876-78.938-19.4-44.26-49.4-145.28-47.1-144.94 0 0 0.8604-2.1722 3.3125-2.7188 8.9552-1.996 14.65-10.64 12.094-21.031-0.4849-3.3464-0.4679-2.5596 1.8126-6.9062 8.7896-14.999-1.6876-31.281-1.6876-31.281zm-573.1 1.406l64.844 117.22s-0.8456 5.3752-0.5 8.5312c0.5094 4.5397 2.0275 8.5801 4.625 12.812 1.7186 2.7999 2.9864 6.6244 3.375 10.156 0.6403 5.8178 0.6432 5.8223 9.1563 13.5 1.7886 1.613 2.1317 2.6058 1.4687 4.2812-2.8179 7.1213-1.1668 21.679 4.4063 39.062 7.0391 21.954 8.8571 21.667-4.25 51.031-2.7344 6.1332-6.0402 14.318-9.5937 21.844-16.184 33.237-18.68 42.252 9.0937 59.969 7.8196 4.988 10.109 9.3144 8.1563 19.25-1.5367 7.8165-1.8503 12.811 1.9062 17.219 2.4352 2.8573 4.6421 3.3273 4.0312 5.5312-0.4155 1.4999-2.2315 8.0016-1.625 13.469 1.6346 14.73-15.38 36.428-30.906 44.031-3.1063 2.2028-3.9934-0.48615-5.75-3.5625-16.084-28.167-56.123-16.754-58.781 16.844-0.7028 8.8837-0.4267 12.736-2.7188 14.625-0.7766 0.64014-3.125 1.9688-3.125 1.9688s-59.918 38.969-98.031 59c-2.4849 1.3059-4.7154 3.4598-6.4688 3.8125-2.0253 0.40733-3.5286 0.0419-4.7812-1.2188-14.067-26.756-6.269-58.36-5.0626-69.562-0.3028-3.9689-3.6963-4.6902-8.8124-4.75-8.6636-0.10131-21.133 8.6865-23.844 16.875-2.3047 6.9618-3.7844 11.468-5.875 11.438-2.101-0.0311-3.1247-2.8388-8.3438-12.875-10.859-20.882-12.536-23.528-22.687-35.656-8.0973-9.6737-15.002-10.957-22.938-3.75-5.5171 5.0104-5.3351 0.65602-10.031-1.875-8.1064-5.5173-20.293-0.57834-20.594 7.1875-0.2524 6.5157-0.308 11.414-6.9062 11.844-7.349 0.47856-10.538 9.9684-8.4688 23.5 1.0894 7.1215 1.3031 8.2661-0.875 10.875-7.107 8.5133-8.0352 14.394-4.125 26.281 11.146 33.882 27.294 56.69 42.469 87.5 0 0-38.554 21.878-61.438 34.594l-0.5937-630.41zm749.22 33.5 0.9063 547.62-82.75-81.344s-1.6122-104.94-1.5313-147.84c0.082-42.903 0.7044-85.803 0.5313-93.781-0.173-7.9784 0.4288-41.928 0.6875-76.781 0.5424-73.017-6.1388-63.991 7.4375-78zm-161.72 65.656 4.5625 13.219c-34.678 19.879-77.101 130.59 0.7812 211.88l-1.5624 16.75c-81.633-74.044-66.525-180.23-3.7813-241.84zm5.9375 15.625c11.901 24.562 25.444 46.31 43.906 59.625-9.9424 23.732-14.219 49.912 2.625 85.219-11.814 6.4828-28.23 23.688-45.219 58.938-61.458-62.085-47.778-152.1-1.3125-203.78zm-457.22 46.406c34.084 0.0563 69.635 5.6166 102.22 15.438 20.554 103.9 56.652 173.75 56.5 214.44 0 0-2.8454-0.47741-8.9062-4.8438-14.847-10.719-34.342-4.7379-44.781 8.9062-9.896 12.934 0.07 30.924-5 38.469-9.5986 14.068-34.3 40.079-38.438 39.219-3.0095-0.62565-2.5247-1.9419 8.0625-18.188 11.027-16.92 19.482-32.253 15.844-36-1.5439-1.5903-2.364 1.7699-10.594 16.062-19.316 33.547-36.304 54.29-43.031 51.594-3.1495-1.2622-1.5206-4.042 12.781-22.938 16.153-21.34 20.635-34.688 19.031-40.594-1.2329-4.5384-3.7315 2.7956-10.438 15.906-7.1439 13.876-20.059 29.339-30.5 44.188-3.3107 5.3741-7.5589 8.4861-13 10.938-4.0328 1.7473-10.459 4.6027-14.187 4.125-1.916-0.24544-0.5944-1.3724 2.0312-3.9375 20.606-21.22 38.321-44.881 48.375-67.594 1.5528-2.9789-0.6734-7.2196-3.2188-4.0938-15.417 27.129-36.881 60.974-60.187 75.906-5.0028 3.1997-12.527 5.914-19.313 5.3438-11.472-0.3289-7.4157-2.8822 3.0313-9.5938 22.363-14.367 53.744-55.671 58.812-70.281 1.1978-3.4528-0.1359-5.4262-2.3438-5.1875-18.4 29.435-42.709 61.824-70.969 75.375-15.229 7.3044-34.431 8.7429-43.875 4.125-6.9202-3.3839-5.1849-4.5488 7.0937-5.3438 29.549-2.9138 64.168-30.65 81.313-60 10.036-16.25 2.9935-12.518-8.4688 3.1562-19.565 26.754-58.412 52.403-82.5 50.375-24.361-1.4418-38.381-20.32-35.25-36.5 1.8942-9.7891 8.8455-19.766 22.469-22.625 23.332-4.8968 38.604 32.061 17.25 39.031-7.2727 2.3738-10.04 0.57374-7.4063-2.3438 15.84-6.9316 8.7986-25.962-4.5625-27.906-8.4072-1.2234-18.151 4.4379-18.562 17.469 0.244 9.7139 8.2403 19.211 24.281 19.438 19.018 0.26862 48.198-13.421 65.906-38.625 12.566-19.263 0.9928-12.759-8.375 0.0937-8.2658 11.341-34.965 27.206-37 26.625l0.9062-13.062c0.4067 2.2574 41.104-25.606 38.719-46.344-1.5264-15.053 0.6732-19.656 16.344-19.469 11.715 0.14014 26.61 4.2499 30.937 9.625 4.4628 5.3174 9.4633 6.9955 7.25-1.9688-3.5915-14.549 0.7103-16.947-7.7187-14.188-5.8164 1.9045-10.98-2.7652-16.812-6.9062-6.4165-4.5553-14.533-6.5044-24.219-6.1562-7.2349 0.26009-10.499-0.17528-9.3437-7 0.8147-4.8135 1.738-9.1891 0.3437-12.344-2.2667-5.1298-11.327-10.43-21.562-17.969-12.085-8.9009-9.8475-9.4254 15.906-68.781 10.813-24.922 10.859-30.036 4.375-48.438-10.246-29.077-11.856-40.721 7.3438-44.781 10.869-1.2473 22.076-1.8625 33.437-1.8438zm109.03 16.844 9.9687 2.8438c0.075 0.009 31.126 106.27 48.906 158.16 5.4252 15.83 9.5569 37.22 10.594 57.312-0.488 27.665-16.065 47.516-35.062 49.688-13.448 1.5374-28.04-5.4388-34.719-20.406-5.6363-14.233-1.3878-31.021 14.844-36.812 28.098-10.026 48.678 25.835 21.125 36.875-14.252 5.7107-27.796-4.582-21.375-16.562 4.5009-8.399 17.162-7.488 20.156 1.1875 2.4398 9.234 6.4781 4.8788 4.75-1.375-5.2253-19.922-30.821-15.228-32.875 3.125 0 22.74 24.898 28.081 39.75 15.312 11.508-10.207 12.717-28.652 9.8438-44.656-3.9508-33.243-22.768-76.358-36.125-125.56-6.6695-24.569-16.331-53.862-19.781-79.125zm396.66 1.1875 18.719 7.4062-0.4375 61.688-15.875 5.4688c-20.773-31.739-3.4968-74.534-2.4062-74.562zm-379.41 4 13.719 5.2812c7.5137 43.544 42.937 126.78 55.438 188.91 3.4826 37.338 4.0409 48.295-21.25 68.188v-0.28125h-13.688s-0.049-0.83519 5.9376-5.3125c33.123-24.771 13.353-79.358 0.8437-121.31-21.795-67.004-41.269-135.55-41-135.47zm-128.22 4.3438c-1.7378 0.0209-3.5016 0.0919-5.2813 0.1875-20.692 1.111-24.09 2.4374-24.156 6.9375-0.1243 8.476 3.3492 12.236 22.594 10.156 16.656-1.8002 40.782 0.78442 57.406 7.9375 18.963 8.1598 23.466 10.085 30.281 13.594 17.11 8.8083 14.122 0.0452-1.3437-10.125-31.593-20.776-53.431-29.001-79.5-28.688zm149.28 3 12.875 4.9062s3.4041 10.037 4.625 15.781c12.529 55.587 46.606 118.1 50.594 183.12 0.9004 21.308-2.7539 41.174-18.375 50.781h-11.781c12.595-12.527 20.989-16.145 17.469-59.688-5.5743-55.921-42.462-125.8-55.406-194.91zm22.844 9.0312 11.875 4.375c13.674 75.066 81.47 187.23 38.312 241.34h-10.781c9.6276-15.016 13.6-28.206 12.156-48.469-4.1959-68.209-38.991-134.41-51.562-197.25zm19.9 6.91l12.781 3.9062c17.352 76.055 84.034 200.69 36.5 235.16l-9.375-0.25c35.8-66.96-18.5-136.24-39.9-238.82zm22.281 7.0938c3.9254 2.1828 9.5351 3.228 13.813 4.4688 13.45 57.507 38.033 114.06 49.219 167.62 3.7658 29.324-2.6686 51.282-21.094 59.625h-3.9376c16.534-24.961 13.416-56.445 4.5938-90.469-11.864-45.756-34.912-96.096-42.594-141.25zm-201.38 1c-5.9377-0.056-12.149 0.84538-18.719 2.9375-6.7285 2.5426-5.901 7.8466 0.3437 6.75 2.1168-0.37174 5.8622-1.036 8.3438-1.4688 15.332-2.6734 34.228 2.8524 57.125 16.719 5.5296 3.3486 11.54 6.575 13.031 7.6875 4.2074 3.1387 8.6956 3.126 7.1563-0.875-0.6162-1.6017-9.4433-8.4419-17.25-12.812-16.697-10.093-32.218-18.769-50.031-18.938zm223.09 5 12.875 1.9688c24.218 111.3 77.377 180.45 31.906 221.75h-11.375c12.441-12.708 18.062-32.605 13.938-56.125-4.2101-24.008-16.617-62.115-26.906-95.625-11.928-38.846-21.531-71.695-20.438-71.969zm18.469 3.125 10.906 2.0312c12.777 45.24 34.471 101.32 47.531 148.03 8.0321 28.726 4.8048 64.107-13.125 70.625l-9.2187 0.15625c15.218-20.334 17.389-41.515 10.438-68.906-14.269-56.222-35.868-105.29-46.531-151.94zm67.312 0.0625c11.02 46.9 37.465 118.45 46.969 143.16 12.643 25.23 8.8512 62.588-10.156 77.375l-9 0.1875c10.872-10.166 14.606-27.285 12.875-45.031-4.8924-50.15-40.394-119.7-53.25-173.12zm-47.844 2.2188 11.25 1.0312c11.266 49.057 33.18 96.744 47.406 145.81 2.6499 11.075 4.9588 24.605 4.0312 34.562-1.9447 20.877-10.593 37.344-18.188 37.344h-7.75c15.829-18.861 15.057-44.577 8.2813-72.219-11.2-45.67-38.3-100.75-45.1-146.52zm-292.91 0.25c-4.688 0.0242-4.7701 4.3164 2.7188 10.875 4.5816 4.0125 4.2294 2.6743 3.9688 5.2188-1.1137 10.865 0.5947 20.81 5.0624 9.625 1.1928-2.9868 2.9392-6.3559 4.6876-5.9375 3.3017 1.0186 1.625 7.0867 3.2187 10.156 2.6936 5.4125-0.1691 6.7371-6.7187 5.0625-4.7138-1.2052-4.981 1.3465-7.9063 4.5938-5.1217 5.6852-4.2875 9.0794 3.5937 7.3125 1.3-0.29148 2.3985 0.0809 3.4063 0.3125 2.4582 0.56489 4.706 2.1242 10.562 6.5938 7.5235 5.7416 18.182 13.393 25.094 14.562 11.071 1.8725 8.6019-3.4312-0.4688-6.9062-7.7705-2.9769-17.408-11.244-17.375-13.531 0.021-1.7571 2.466-0.71457 16.469-4.5625 6.0751-1.6694 14.619-5.4043 18.219-7.0625 5.9435-2.7378 6.225-2.7154 15.531-2.4375 15.85 0.47321 18.269-0.0677 7.1562-8.3125-22.457-16.661-52.424-27.507-68.312-20.594-4.8179 2.0962-4.7053 0.81168-8.1875-1.1875-4.5508-2.6127-8.2632-3.7939-10.719-3.7812zm321.44 1.5c15.566 59.962 45.676 113.69 53 170.56 1.6572 16.269-1.0728 32.163-14.594 45.906l-9.125 0.15625c-1.3373 0.0221 12.739-21.745 11.531-40.375 0.3658-9.9395-0.7308-20.6-3.5624-31.125-17.687-50.567-35.102-96.398-48.625-144.59zm-281.09 19.688c0.088-0.0107 0.1688-0.0127 0.25 0 4.2461 0.66646 4.3912 2.3546 3.1562 4.5625-1.8307 3.2731-5.0624 9.5625-5.0624 9.5625s-4.3048 0.84599-5.1876-0.25c-1.5512-2.2526 4.1256-13.543 6.8438-13.875zm10.781 1.9375c0.4715-0.007 1.054 0.23387 1.9688 0.59375 4.0757 1.6103 11.15 4.9142 8.0938 7.4688-3.6206 3.026-17.651 4.3867-16.969 3.125l4.6875-8.6562c0.9944-1.8396 1.4331-2.5196 2.2187-2.5312zm-42.969 52.406c-0.3627 0.0206-0.6686 0.10787-0.9063 0.25-0.814 0.48679 1.0291 3.7462 3.7188 7.4375 12.413 16.748-4.7707 21.714-16.938 12.75-11.551-8.9818-29.386-8.1362-26.812 1.2812 0.9071 3.32 0.022 4.9363 6.4688 5.0312 5.7304 0.0844 7.2091 0.4042 12.375 3.9375 19.755 13.512 45.281-4.5756 32.812-23.969-2.3536-3.6609-8.1783-6.8626-10.719-6.7188zm48.75 26.156c-7.1739 0-11.702 5.3506-2.7179 6.9526 32.09 5.7616 10.569 39.035-12.063 21.891-20.395-18.409-47.674-18.281-48-5.2188-0.048 3.2877 0.1039 3.3993 4.9376 4.3125 11.367 2.1475 28.344 7.3171 34.844 10.594 3.8218 1.9267 7.8417 3.727 8.9375 4 13.592 4.9394 31.024-1.4797 34.473-12.927 3.1571-10.476 0.607-29.604-20.411-29.604zm-402.5 107.05c4.2967 0.0514 8.8651 3.8104 12.125 9.3125 7.5331 12.714 16.689 34.093 22.531 45.875 1.4727 2.9703 1.5304 5.6206 1.4375 7.0312 0.4587 6.9073 2.7759 9.5166 6.875 6.4062 4.0313-3.0589 9.6248-8.1778 3.0625-9-6.5974-4.9712-10.273-12.273-6.1875-16.719 3.0074-3.2722 1.8313-5.398-0.5938-5.5312-9.2457-0.13616-23.026-27.638-16.531-33.562 8.7637-7.9936 18.46 1.9076 39.094 42.844 9.0924 18.078 9.5135 37.863 1.7187 28.062-2.6493-2.4697-2.1123-1.1906-5.2187 6.5938-2.3355 5.8519-4.2532 8.627-13.156 17.188-10.842 10.425-17.413 18.662-17.656 20.469-0.4647 3.4526 5.857 0.23137 10.469-5.7812 10.302-10.063 10.687-12.746 10.594 0.59375-0.084 12.065-0.7045 14.269 1.4687 14.188 3.3872-0.12742 5.1995-9.6717 6.7813-21.188 1.8888-10.373 7.2785-15.605 16.25-21.375 2.4627-1.584 2.5046-2.6768 2.0312-7.25-1.6565-14.653 6.6755-41.975 10.469-35.219 0.5349 1.5206 2.1823 5.0743 3.0624 7.5625 0.7092 3.8562 3.1367 8.2083 6.8438 8.5 4.6071 3.4477 4.5913 5.3116 6.1875 17.938 0.5215 4.1218 2.3451 10.306 3.625 13.594 2.3826 6.1199 4.5128 9.705 3.1875 11.531-0.8416 0.89942-2.625 2.5938-2.625 2.5938l-75.125 44.531s-5.898 3.2607-8.0312 4.1562c-5.9535 2.6884-9.5724 0.7008-12.5-3.75-15.919-23.708-26.847-50.342-38.031-74.906-6.7153-14.581-0.1432-24.225 8.5313-12.469 3.3715 4.5693 1.6474 7.4824-0.031 16.312-0.3036 1.5973 1.1806 0.98662 3.9687 1.4375 4.388-0.47143 6.5047 3.4459 6.3438 10.094-2.7706 9.5248 1.061 4.3813 2.875 3.9062 3.4722 0.0511 4.2422 2.1378 6.1875 6.0938 1.2146 5.5776 3.6684 3.9624 7.25 0.28125 2.9599-3.0421 2.97-2.9676-3-10.094-10.312-11.172-24.611-36.393-28.312-51.75-1.0211-4.2362-0.6494-7.6205 0.125-9.875 4.659-10.49 11.146-10.526 18.219 4.125 1.2035 2.493 3.5716 6.5112 5.25 8.9375 2.7196 3.9319 4.4045 7.3084 4.3124 13.562-2.0914 5.2403-2.4314 5.3457-0.625 6.0625 4.4844 1.7727 12.454 9.8747 12.813 17.125 0.3639 7.365 1.6107 11.276 7.4062 6.9062 6.6078-4.9825 3.7945-6.9864-2.7188-13.375-6.8264-8.1241-7.2375-15.168-3.1874-21.031 0.6624-1.9677 0.3821-2.5239-2.125-2.2812-7.9281 0.76718-15.636-9.2721-10.125-16.906 2.5363-4.4731 2.2389-5.6261-1.3438-5.75-1.8671-0.0646-4.9493 0.29187-6.4688-0.5625-2.3435-4.3936-7.2376-10.535-7.1874-15.562 2.3116-7.0691 5.8963-9.9204 9.6874-9.875zm470.84 0.375c13.025 7.9871 25.924 16.302 40.562 20.094-33.913 61.08-88.454 93.809-134.09 106.59 1.5532 7.8176 2.6545 15.609 10.219 20.406-0.2575-1.1814-3.6095-15.055-2.875-17.906 62.874-16.054 118.22-77.648 132.38-109.41l276.31-3c-204.8 196.5-213 473.05-45.8 704.85l-19.219 11.219c-128.8-192.9-127.5-378.74-88.9-503.2 27.387-88.246 76.53-155.66 113.88-194.19 0 0-149.81-2.059-224.38 0.6875-10.832 16.572-20.906 30.106-35.469 45.75 0 0 37.885-36.586 36.906-42.938 69.104-0.0366 140.36-4.0295 209.38 0.78125-80.757 96.647-120.56 196.42-127.47 290.28-0.2567 12.208-0.9939 5.387-5.0312 9.875l-12.75 19.781-10.219-20.562c-6.9464-2.2436-20.608 1.3758-26.406-0.71875-28.411 126.75 0.3004 279.73 37.688 379.56 0 0-9.3871 5.2581-20.938 4.375-12.643-2.8075-15.734 0.6816-26.688 2.9063-12.595 2.3958-16.991 2.3797-19.781 5.5624-1.5514 1.7699-4.3557 4.2421-7.5312 5.9688-30.683 11.146-66.688 52.938-66.688 52.344l-33.781-15.156c31.126-61.126 67.657-83.123 131.88-110.25l-5.9687-27.312c-68.398 25.479-111.92 55.982-146.25 115.25-41.65-0.5911-210.36-1.7782-210.53-1.25 68.815-78.254 123.07-196.29 129-288.31 1.4551-17.924-1.0524-9.3076 6.875-14.656l12.469-14.844 9.7812 14.625s7.0833 9.0158 11.563 1.5c12.55-128.33-0.7258-274.66-62.563-376.66 10.971-0.72423 21.898-1.028 32.406 5.1875 24.186 54.771 38.439 122.44 44.625 173.16 7.8294 64.197 6.7243 136.61-1.25 198.09l4.125 0.5625c12.052-79.911 7.9686-164.9-3.0937-239.19-5.678-38.754-23.962-99.364-36.531-127.34-3.473-7.7315-6.1684-9.73-2.875-10.875 75.355-6.3408 109.99-31.484 137.06-71.625zm-208.94 6.75c5.7645 0 10.438 4.673 10.438 10.438 0 5.7645-4.673 10.438-10.438 10.438-5.7645 0-10.438-4.673-10.438-10.438 0-5.7645 4.673-10.438 10.438-10.438zm566.38 5.3125c-22.062 19.969-39.786 40.663-58.406 62.719 55.106 75.78 116.35 157.93 167.84 223.56 0 0 17.823-10.56 17.75-11.875-0.038-0.69266-1.4248-4.1825-1.75-3.4062-0.7643 1.8232-14.438 9.4688-14.438 9.4688l-162.97-213.88s8.8325-10.577 11.562-13.906c12.664-4.1628 47.897-47.804 49.625-46.906 27.608 21.149 110.87 110.8 142.94 138.28l0.4062 248.84c-3.3188 9.9564-92.086 48.323-154.78 191.47-31.526 17.665-66.456 27.169-98.938 42.531 0 0 8.2683 13.002 12.313 16.562-4.9626-10.722-5.8404-12.77 5.4062-17.344l234.59-95.625-0.4376 19.312-3.8124 33.344c-63.843 39.371-117.72 55.869-205.59 115.25-6.2756 1.4601-11.328 7.4866-17.938 7.8124-224.47-330.58-80.975-579.65 49.844-704.78zm-730.97 16.906c6.1247 0.10098 4.5773 14.308 2.3124 19.219-4.5229 3.5536-9.0354 0.39725-8.9374-6.25 0.028-2.1674-0.3926-4.2145-0.9376-4.5625-3.3938-2.1674 2.2865-8.484 7.5626-8.4062zm137.09 8.875c5.1569 3.9143 7.0659 9.1278 8.9687 14.344-6.9577-1.0929-25.582-6.4327-16.844-10.594zm-33.906 18.469c161.89 244.84 154.65 504.88-26.031 702l228.59-0.3437c29.097-57.416 77.57-92.411 139.59-113.97l5.4063 18.031c-71.282 22.884-107.35 60.817-136.03 113.38h-272.62c104.74-112.7 152.73-207.9 160.28-336.69 7.1919-122.65-24.013-234.66-118.78-369.44zm45.625 2.8125 38.188 18.031-5.6563 39.188-40-18.438zm-68.844 11c204.18 308.87 116.61 526.13-46.406 706.94l-30.031 0.5-70-65.031 1.2812 395.16s-68.252 66.859-76.094 74.875c-7.748 7.4591-13.562-4-13.562-4l0.1875-523.84 3.0313-20.531 0.9374-112.88 43.5-22.938 163.12 213.81s-6.5528 9.6594-9.5937 11.375c-1.9776 1.1167-0.5295 3.0295 1.125 2.8125 4.5802-0.6007 17.652-15.214 14.906-17.562-59.174-73.308-169.19-216.84-169.19-216.84l-45.8 23.96s1.3266-93.713 0.5-129.69c1.7593-8.4859 8.1215-6.212 12.406-10 52.755-33.906 89.93-75.293 112.88-115.44 1.6864-3.0005 11.841-21.021 12.844-22.656 3.578-5.8335 12.456-24.072 17.625-35.719 2.8892-6.5111 5.9612-14.398 7.125-15.344 31.742-10.335 65.06-25.007 96.937-38.188l-45.9-68.9zm-125.12 3.9375c-1.7225-0.0254-6.1045 1.9663-12.031 7.3438-10.942 9.9279-25.361 26.24-25.406 29.344 2.9352 1.0593 5.533-0.62833 7.875-3 9.152-13.509 23.302-18.792 31.594-30.625 1.2887-2.1883-0.07-3.0898-2.0313-3.0625zm102.84 14.344s31.676 46.148 39.781 58.406c-83.473 33.051-170.82 76.704-248.19 104.94v-18.5l12.219-33.219zm124.19 30.5 31.219 16.125l-8.8 35.22-31.5-17.62zm25.75 58.594 25.656 18.688-11.719 29.875-25.844-17.781zm-209.3 21.91s-3.9537 13.851-10.594 26.25c-31.75 55.162-62.815 104.18-127 146.75-2.4432-2.1733-9.4374-14.406-9.4374-14.406l-0.625-16.344c34.029-27.336 63.397-47.403 108.47-127.62l13.062-5.3125 11.125 4.8125 7.5312-13.438zm133.53 0.125c-29.58 62.752-58.686 127.48-105.81 176.38l128.97 180.03c42.437-127.11 26.682-246.24-23.156-356.41zm-162.28 13.688-6.1875 10.719 10.719 6.1875 6.1876-10.719zm-17.5 1.1562c-23.366 52.241-58.436 92.435-104.47 121.34l-1.7-76.65zm8.2188 15.594-6.1876 10.719 10.719 6.1875 6.1875-10.719zm263.59 2.25 23.25 22.062l-13.7 24.35-23.8-19.72zm356.2 10.85c-0.026 0.0108-0.048 0.0359-0.062 0.0625-40.86 127-28.591 248.31 27.469 353.91 27.504-68.448 50.083-114.25 103.78-187.12-33-43.3-127.8-168.22-131.2-166.85zm-628.91 2.0312-6.5 10.531 10.531 6.5 6.5-10.531zm178.28 14.812c36.835 88.054 33.587 167.45 14 236.25l-92-116.22c33.705-41.837 56.089-81.451 78-120.03zm-187.78 0.3125-6.9688 10.219 10.219 7 6.9687-10.25zm-10.281 14.625-7.625 9.7812 9.75 7.625 7.625-9.7812zm303.09 10.406 20.844 19.781-13.156 25.656-21.156-19.344zm-315.12 4.8125-8 9.4062 9.4063 8 8-9.4062zm672 2.7812 92.813 119.75c-31.045 36.949-56.843 80.481-79.906 127.41-25.859-81.028-37.531-160.64-12.906-247.16zm-685.03 12.125-8.5625 8.9375 8.9375 8.5625 8.5625-8.9375zm216.81 11.969-42.469 61.406 48.687 62.156c5.2387-33.647 6.4157-72.705-6.2187-123.56zm-230.66 2-9.125 8.375 8.375 9.125 9.125-8.375zm-13.406 11.969-9.625 7.8125 7.8125 9.625 9.5937-7.8125zm362.72 6.3438 17.437 20.375-17.687 20.969-16.563-18.625zm221.69 3.6562 11.844 0.4375c-19.426 191.6 18.754 288.54 52.531 372.84 0 0-0.081 3.3798-1.2187 4.375-5.502 1.8948-16.635 3.9423-25.562-3.9063-45.443-116.8-55.355-260.68-37.594-373.75zm-600 2.4688-10.031 7.25 7.25 10.031 10.031-7.25zm742.31 6.8125c-3.013 0-5.6324 78.827 5.7187 117.31l42.719-57.875zm-110.44 13 14.281 19.188-15.156 20.656-15.5-19.562zm-643.47 5.2188c0.7163-0.11321 1.8914 1.8834 4.1875 3.4688 2.1344 2.2315 1.8266 2.0646-0.5625 3.9688-3.7355 2.9777-4.8495 2.498-4.7813-2.1562 0.3209-3.8293 0.5992-5.1932 1.1563-5.2812zm390.75 14.406 15.781 22.594-17.469 22.469-14.938-23.656zm251.47 28.625 16.625 20.25-14.281 22.219-18.156-21.219zm384.94 4.2812 1.4687 23.344-5.75-8.5312-10.562 8.0938 7.375 9.7812 9.2188-7.1875 0.5624 9.4062c-58.552 42.314-83.806 90.916-107.56 127.38l-10.563 4.4688-12.031-3.8126-5.875 10.406-10.219 2.4063c-0.3115-0.063 20.516-44.68 56.156-90.094 31.736-40.439 87.615-86.029 87.781-85.656zm6.8 36.52l0.5 83-104.78 40.477c27.194-46.336 59.262-89.338 104.28-123.48zm-26.031-10.094-9.5626 7.8438 8.25 9.4688 9.5313-7.8438zm-14.719 12.5-9.2188 8.2188 8.5938 9.1562 9.2188-8.2812zm-349.91 4.5938 19.75 21.031l-14.6 24.85-20.5-19.72zm335.03 8.8438-8.6562 8.8438 9.4687 9.0938 8.6563-8.8438zm-13.625 13.969-8.3125 9.1875 10.062 8.7188 8.3125-9.1875zm-13.688 15.656-7.7187 9.6875 10.469 8.0938 7.7187-9.7188zm-300.94 14.875 24.688 16.031-12.062 29.375-24.656-18.781zm289 0.125-7.25 10.062 11.156 7.625 7.3438-10.406zm-11.156 15.875-6.7188 10.406 11.281 7.25 6.6876-10.75zm-9.9688 15.719-6.1875 10.719 11.688 6.6563 6.1875-10.844zm-9 16.25-6.1875 10.719 12.938 5.5938 5.125-10.219zm-245.5 6.625 25.281 17.125-11.187 30.781-26.688-18.875zm366.59 30.281 1.25 633.38-278.34 0.9687s-13.015-22.902-40.25-75.812c-11.532-22.4-21.281-31.917-22.281-49.656 1.0423-10.418-3.7733-22.238-12.313-27-2.8675-1.5992-7.6659 0.333-6.0624-4.125 1.7643-4.9062-3.6481-12.458-5.125-14.063-1.6843-2.8381-0.634-3.5302-0.8126-14.094-0.1723-10.21-0.7176-14.48-2.9062-22.188-5.5307-19.478-6.7592-29.211-3.5938-39.312 8.2206-25.62 16.791-45.27 27.875-69.156 6.446-13.98 5.4621-19.442-14.312-29.594-14.806-7.6012-16.773-7.5215-14.906-18.625 0.875-5.2024 1.6878-8.4833 0.5937-11-0.6662-1.533-3.1245-3.6768-4.5624-4.9063-1.932-1.6517-1.3518-5.0587 0.625-7.5937 1.9394-2.4875 1.955-6.04 0.031-11.969-4.0451-12.469 5.1087-28.991 22.406-40.406 7.6454-5.0452 7.432-4.0003 15.406 4.375 23.305 24.477 57.933 9.0996 58-25.406 0.021-10.755-3.6432-10.115 6.5313-15.187 34.48-21.939 105.25-61.842 104.78-60.75 4.6085 9.3919 6.1479 17.414 9.0625 27.531 2.5183 8.674 2.1891 9.3375 1.25 26.219-0.8486 15.257-1.3072 18.804 2.2813 19.781 20.425 2.2475 25.086-4.9751 29-18.156 1.6921-5.8241 4.9516-4.641 6.9687-2.1876 7.7722 14.143 17.604 28.851 24.062 38.906 8.0695 12.837 21.665 19.222 28.781 13.156 1.4969-4.9892 2.731-5.1441 11.75-3.0938 10.936 2.4862 17.169-3.6411 18.219-11.688 0.419-3.2097-1.9194-3.0781 3.9375-6.25 14.529-10.754 8.9895-25.438 6.8125-34.281 0.189 0.4671 6.21-3.6606 6.3438-11.937 0.6943-42.981-36.556-104.88-35.719-103.28zm-351.44 24.75 29.563 14.281-6.9688 35.312-30.375-13.656zm287.66 13.125c17.023 19.742 29.338 52.654 35.688 74.094 3.1349 10.68 3.5169 22.868 0.7188 24.562-2.7632 1.6734-4.0526-0.1186-3.5313-6.5 0.4343-5.316 0.5892-9.434-1.6875-9.375-6.6059 1.7059-6.8636-8.3042-6.1875-10.656 0.4518-1.5716 1.2662-2.6769 1.625-3.5313 1.6283-3.8784-2.6249-3.3537-7.0313-3.4063-3.8982 0.094-4.9046-2.2749-4.7187-5.9687-0.1124-4.0976-5.5384-3.2973-8.625-0.1875-2.8211 2.8419-2.2294 6.1904 1.5937 8.5312 5.4911 3.3619 10.679 11.627 23.469 40.125 7.4249 16.545 5.2245 28.286-3.625 28.156-6.1362-0.1822-13.285-16.99-19.062-29.375-1.4927-3.1995 2.2489-6.7769 3.5625-8.5 3.3963-4.4553 2.8813-5.8635-2.1562-5.9375-4.7163-0.069-6.7194 0.349-9.5626-5.4688-1.0709-2.1899-1.8457-5.5304-1.4687-7.6562 2.4306-6.416-2.5619-7.9659-7.4063-5.5-6.1058 2.5452-6.0605 7.9922 3.25 16.906 5.9967 9.8384 4.4305 9.1546-1.25 15.781-1.1878 2.3392-0.4729 3.7764 2.0313 3.8125 7.2038-2.1991 15.049 10.774 12.906 15.219-2.2069 1.9105-8.241 8.8303-2.4063 7.5 11.861-3.2248 19.08 14.142 12.094 20.031-10.42 5.2266-12.889 3.593-28.937-28.469-4.9839-9.9562-10.982-20.654-11.719-21.75-0.7374-1.0956-1.0631-4.0365-1.0312-6.4062 0.6988-5.8009-1.7756-7.1169-6.8126-4.8125-3.7839 0.9058-7.1984 4.0162-2.4062 6.9687 5.5951 9.653 7.5747 11.208 4.5 13.656-6.9972 5.5721-3.9616 5.347 3.875 6.9063 3.8361 1.1533 5.7879 3.1294 6.8438 5.5 4.0496 9.0924 11.227 21.918 11.937 24.531 2.3736 6.6694-1.9134 9.6635-7.7812 9.375-6.1409 0.1473-8.9518-4.7029-11.938-8.8438-11.164-15.513-19.203-30.881-30.594-48.5l1.4-16.3s2.985 0.6471 4.6562-0.1563c3.2787-1.576 5.2247-6.7212 7.0938-13.562 2.9951-5.948 20.673-19.48 27.438-26.75 1.2497-0.822 2.298-2.179 2.3125-3-0.043-2.6637-7.6695-0.8834-12.688 4.875-7.372 6.545-10.516 4.2999-10.281-4.0626-0.7251-10.327-7.0263-5.1502-7.3437 4.9376-0.8108 7.9688-3.5795 12.822-9.1563 17.281-10.525 8.4154-8.7708 6.2842-8.2812 17.969 0.853 20.378-7.012 37.138-12.156 26.031-1.8271-3.9447-3.9666-8.4249-8.5626-8.625-3.2548-0.1417-4.8644-3.3334-6.6562-11.219-2.6635-12.757-6.3843-20.969-9.7812-32.719zm-262.03 43.906 34.063 13.562-6.375 35.625-33.75-12.906zm259.6 3.4c-0.2286 0.015-0.4951 0.069-0.7812 0.1876-9.596 7.2518-18.448 15.387-28.906 21.625-3.9218 2.3162-8.5034 8.3054-8.5313 9.9062-0.028 1.5605 4.6556 1.5237 9.2188-0.4688 4.3306-1.8899 29.035-25.087 29.062-27.219 1.7036-1.877 1.5377-4.1339-0.062-4.0313zm-312.78 43.25c8.0541-0.019 3.3553 2.3709-14.219 14.563-17.157 11.902-45.435 49.536-48.719 63.5-1.4908 6.3412 2.5322 6.8328 7.0626-1.875 20.831-40.04 60.236-76.626 96.312-75 17.674 0.7963 27.222 5.5646 12.594 7.6562-40.104 4.9219-70.078 27.792-96.312 73.375-0.018 1.0221 2.3783 0.9709 5.125-0.7812 24.014-29.358 51.067-68.241 98.594-65.094 34.282 2.0649 44.022 42.834 15.563 56.75-24.81 12.131-47.688-17.412-27.125-34.938 6.6764-5.6906 10.85-3.1933 4.4374 2.625-13.76 12.486 3.1082 34.724 19.875 26.281 10.204-4.2757 14.337-18.88 5.3438-29.906-20.006-24.528-63.096-5.8779-93.125 33.75-3.1482 4.1698-5.8746 13.225-3.2188 12.25 4.6611-1.9205 7.4764-5.575 10.219-9.6875 10.719-14.863 18.954-22.322 33.469-30.312 11.213-6.1731 11.904-5.0156 7.7187 5.6875-1.7631 4.5096-3.1771 6.0082-7.5313 8.8125-18.284 12.488-29.641 29.216-30.094 39.875-0.3305 7.782 5.365 17.946-0.8125 20.031-10.473 4.9473-39.04 0.9118-46.75-8.9376-5.5454-7.0837-7.6956-2.9816-3.5312 8.5313 2.7501 7.6033 2.6321 11.901 6.7812 11.125 5.2479-2.7775 8.8517-2.1271 19.031 3.4375 4.9067 2.6821 13.607 5.1836 18.906 6.4062 9.6621 2.2287 11.681 1.287 11.469 5.4688-0.065 1.2817 0.3756 4.8874 0.094 7.1562-1.5684 12.595 8.9465 16.878 23.281 25.156 8.3766 4.8373 5.0697 9.8153-4.625 33.781-5.0393 10.842-9.343 25.428-15.562 36.437-5.8115 12.369-6.3082 25.909-2.5626 41.344 6.952 28.644 11.958 43.2-0.4374 45.781-31.896 4.8256-102.35 4.6287-140.81-10.156-9.8387-73.827-61.968-183.37-55.281-211.69 13.341 20.115 69.286 14.793 52.438-41.438 0 0 4.5829-6.8582 13.688-16.094 23.481-23.819 29.276-27.758 18.125-6.7812-8.5725 16.127-19.505 37.171-19.75 41.25-0.1954 3.2495 2.3375 4.0036 4.3125 1.4062 1.4639-1.9249 3.2007-6.6017 4.7187-10.156 13.993-32.762 37.918-62.296 54.406-69.406 4.2464-1.8313 4.0308 0.1201 1.0937 3.7187-19.4 24.137-34.216 46.459-44.75 75.594-0.4686 3.0045 3.7951 4.2593 5.1563 1.4063 18.197-38.136 23.638-46.79 46-73.656 8.7903-10.561 16.966-15.89 23.5-15.312 5.6514 0.4992 3.9778 1.4278-1.25 7-3.9932 4.2565-9.8929 10.176-19.438 22.187-16.833 21.182-33.764 55.646-27.531 53.844 1.0742 2.8696 6.3849-6.2883 10.875-15.031 12.302-20.655 25.367-47.948 54.585-65.896 6.1027-2.5253 12.772-3.976 18.665-4.042zm-565.06 6.6563 52.031 52 104.66-1.3437c-17.259 26.819-8.0425 68.392 1.4687 92.687 18.646 47.628 45.975 126.26 43.969 127.41 0 0-15.218 3.9122-16.594 13.562-2.0387 14.304 4.1622 13.241-4.7813 26.156-2.0117 2.9053-0.7171 8.3904 1.4376 12.75 1.4195 3.1961 2.7747 8.0065 0.125 11.75l-92.313 164.69-175.19 0.8437v-32.938l87.719-88.812-1.0625-65.344c47.844 14.222 64.274 63.585 68.375 100.16 86.423-78.868 84.287-197.6 2.625-272.09-15.919 78.731-72.936 95.091-71.688 93.531zm650.9 9.4c5.5978 0.4042 13.154 1.3039 18.281 4.0626-3.4717 2.0776-5.9405 4.5514-8.25 7.0937-2.8035-4.9741-6.5808-7.6914-10.031-11.156zm145.06 0.5626c4.6599-0.016 10.38 13.622 7.0937 16.812-1.8514 1.7983-7.8564 2.4786-10 1.125-2.748-2.037-1.3464-17.923 2.9063-17.937zm-165.1 23.6c6.0061 0 10.875 4.8689 10.875 10.875s-4.8689 10.875-10.875 10.875-10.875-4.8689-10.875-10.875 4.8689-10.875 10.875-10.875zm-460.28 15.5 7.8437 0.1875c-14.258 19.061-16.18 35.471-11.125 59.25 5.6848 26.758 49.043 127.33 51.844 155.03 0.1267 1.2522 0.25 4.7812 0.25 4.7812l-10.656 0.7188s-0.7962-2.8637-1.125-3.9688c-14.913-50.146-29.755-88.391-40.125-117.62-10.334-31.524-26.155-78.263 3.0938-98.375zm57.312 0.1875c0.074-0.01 0.1353 0.01 0.1876 0.031l7.5312 0.062c-0.2777 0.1665-11.243 23.676-12.031 37.938-0.8938 16.167 3.0156 33.776 8.375 51.156 12.654 37.6 31.176 79.478 41.469 126.94 0.1199 0.5527 1.25 5.1563 1.25 5.1563l-11.156-1.5s-1.0946-4.8588-1.2187-5.5313c-7.7033-41.744-29.187-85.099-42-126.19-6.5652-18.678-11.129-41.636-8.7813-59.188 1.6562-12.381 14.079-28.633 16.375-28.875zm91.094 0.094c-7.9771 12.351-15.239 27.83-15.75 39.969-0.4605 22.582 6.1181 41.643 12.688 61.594 20.226 61.424 30.039 93.83 40.156 143.09l-10.75-4.5937s-0.4185-2.7668-0.6563-3.5626c-5.7431-30.848-6.1055-28.157-39.844-131.91-7.9066-24.902-15.441-46.736-13.969-67.469 0.3341-11.81 10.639-35.196 21.5-37.062zm12.906 0h10.031s-5.5238 5.8481-7.125 8.0313c-17.523 24.304-12.452 50.381-3.75 81.469 11.973 42.775 34.11 90.612 45.688 155.81 0.2142 1.2065 0 7.5 0 7.5l-11.938-4.8126c-10.846-59.78-37.605-121.76-50.5-175.53-7.5831-31.571-5.4252-51.525 12.094-68.719 4.3901-3.3911 5.5-3.75 5.5-3.75zm-122.4 0.3h7.5s-12.541 20.596-12.531 32.719c-2.0961 21.704 5.7613 45.683 14.781 70.812 13.863 38.622 32.186 85.324 37.812 109.91 0.2211 0.9659 0.9687 5.375 0.9687 5.375l-13.094-0.6875s-0.6864-5.9511-1.4687-8.6875c-15.111-52.861-29.831-87.052-47.188-135.31-2.627-7.3044-6.8206-36.188-1.875-54.906 3.8823-14.693 15.094-19.219 15.094-19.219zm-20.094 0.031 8.0938 0.2188s-1.2165 2.1981-4.3125 7.5c-14.768 26.739-8.1502 51.147 1 78.344 12.209 36.288 31.377 80.598 43.344 122.53 0.6749 2.3647 1.5938 9.5 1.5938 9.5l-11.688-0.1562s-2.3745-8.5421-2.5313-9.4688c-6.5748-38.87-42.1-103.66-51.344-152.97-5.0677-26.45-0.7131-42.833 15.844-55.5zm108.41 0s-12.771 22.139-13.938 34.469c-2.2879 24.177 5.3818 44.196 14.156 71.469 15.139 47.052 36.5 102.26 38.406 127.5 0.063 0.8325 0.375 3.9062 0.375 3.9062l-13.156-4.6875s-0.5897-2.6334-0.8437-3.5625c-11.468-45.665-25.026-91.144-43.25-142.41-4.4947-17.294-10.394-34.696-9.875-49.563 2.6703-19.853 6.0492-25.208 17.875-36.969zm57.875 0.031 10.594 0.2187s-3.1645 1.6976-10.719 9.75c-41.793 38.189 26.015 146.01 41.656 244.19 0.1713 1.0521 0.6562 4.75 0.6562 4.75l-11.656-4.1876c-1.1033-4.8896-1.9317-10.842-3.2813-16.187-12.671-50.185-29.578-101.79-45.094-148.59-8.7054-34.105-11.886-64.144 3.75-80.938 4.8982-5.8015 14.094-9 14.094-9zm-108.97 0.062 11.281 0.3125c-8.1535 10.222-12.937 26.147-13.375 40.312-0.4352 16.755 4.0458 33.045 9.5625 50.281 11.314 35.351 27.47 73.77 38.562 121.47 0.6262 3.1584 1.1488 5.1843 1.4375 6.5625 0.4582 2.1865 1.7187 5.6563 1.7187 5.6563l-11.906-2.375s-1.2291-3.0907-2.0312-4.7188c-1.2036-2.4422-2.3022-5.5556-3.2813-9.2812-5.7654-24.882-26.986-81.343-39.906-120.94-10.246-24.951-13.038-68.56 7.9376-87.281zm140.84 0.4375c14.43-0.5302 27.477 11.713 30.562 23.219 2.9945 12.216-0.8384 26.004-14.281 32.813-21.798 11.04-45.265-18.332-28.063-34.5 13.038-12.254 32.324-3.1849 28.125 12.5-2.7081 10.211-18.194 10.869-20.75 0.5624-0.7006-3.4302-2.4221-6.8555-3.6562-4.9687-8.0161 18.826 18.933 27.642 30.125 10.125 6.6367-14.04-5.9976-32.125-24.594-28.688-25.497 4.7125-28.431 37.07-17.844 74.812 14.769 59.656 49.999 139.89 49.938 176.72 0 0.486 0.125 2 0.125 2l-11.188-3.3437s-0.077-0.6199-0.1563-1.1563c-6.7082-51.437-44.916-136.6-55.875-202.06-4.7498-29.849 6.878-51.514 33.031-57.438 1.5128-0.3434 3.0073-0.5389 4.5-0.5937zm-110.62 0.4687c-7.8472 10.487-12.976 26.248-13.219 37.5-0.2369 16.481 5.6774 32.528 10.562 49.688 12.363 42.377 41.242 120.63 40.188 135.28 0.3004 1.5734 1.0937 6.4375 1.0937 6.4375l-11.156-3.3125s-0.4438-0.7044-1.2812-2.7188c-3.7177-14.546-21.405-76.869-41.219-130.75-7.6235-21.664-11.333-38.542-10.812-52.906 1.6105-19.818 7.2845-28.092 15.969-39.125zm212.44 70.25c-28.918 1.6495-26.134 36.902-8.2188 42.875 6.4108 1.7668 10.17 0.2397 11.188-1.1562 1.1573-1.5878-0.1391-4.015-4.3438-4.625-12.158-3.992-16.501-18.302-5.5226-24.305 5.9941-3.1422 15.568-1.1219 27.116 7.4301 20.633 15.28 45.924 16.24 42.625 0.7812-0.8006-3.7504-2.4185-4.2547-17.531-6.3124-12.273-1.6713-17.805-5.5516-23.156-8.4376-8.4334-4.5484-15.864-6.4358-22.156-6.25zm-414 32.781c74.707 72.961 63.635 187.31-0.1875 244.56-1.3129-4.622-4.1019-15.946-4.4063-15.625 47.997-49.94 70.603-131.81 1.125-215.72 0.3604 0.3207 1.5447-6.0557 3.4688-13.219zm468.3 2c-0.706 0.016-1.3244 0.093-1.875 0.2812-19.346 5.2918-23.358 24.413-10.813 32.281 7.6912 4.8239 13.599 1.8671 4.0313-3.9687-8.2019-5.003-4.1564-18.147 5.7813-18 4.3437 0.065 7.3013 1.9513 18.344 10.094 9.0893 6.702 17.651 7.2355 19.594-1.8437 1.1595-5.417-0.6526-7.8237-6.4374-6.4063-2.5586 0.6271-4.0606-0.8708-7.5313-3.2813-7.7191-5.3612-16.153-9.266-21.094-9.1562zm-475.94 14.312c67.341 78.161 45.723 159.68 0.3126 207.44-12.468-36.793-43.031-59.75-43.031-59.75 11.517-25.552 18.384-52.238-3.1563-85.938 20.038-18.107 36.646-38.004 45.875-61.75zm437.53 28.531c-3.1598-0.056-2.1329 2.989 5.3125 8.1874 17.748 12.072 19.266 14.252 2.0625 13.969-4.3602-0.2572-11.193 2.8341-15.062 4.125-22.454 7.4902-23.539 6.8939-34.281 4.375-3.5809-0.8352-7.212-2.3364-8.7813-0.9062-2.4259 2.2109-5.1473 3.6723-2.0937 6.9687 2.226 2.4034 6.3691 4.2395 11.406 7.125 26.072 14.936 28.441 18.513 59.094 19.312 3.5104 0.092 5.3139-1.7264 7.375-1.75 5.0062-0.057 7.6282 1.1642 12.687 5.7812 9.2635 8.4536 9.6976 2.3096 4.1876-8.7812-2.8897-5.816-5.4168-7.2021-4-11.625 3.2306-10.086-1.3726-12.091-7.4063-3.1562-4.5221 6.9949-5.0344 6.8332-9.3125-2.1563-5.6717-11.226-3.0084-16.408 5.5938-9.0937 6.519 5.5429 8.1826 1.4213 10.719-2.9688 3.3343-5.7714 2.8286-10.95-3.125-10.5-3.4241 0.259-6.6231-1.3165-9.3125-4.25-5.2717-5.7504-15.379-12.965-25.062-14.656zm7.375 30.375c0.7083 0.039 1.1992 0.3277 1.4375 1.0624 0.059 3.6972-2.4807 11.253-4.5625 15.219-0.6659 1.7663-1.8071 1.9872-3.4063 2.3125-5.3737 0.9929-5.7483-0.67-4.7812-4 1.9705-5.14 3.5988-12.453 10.531-14.562 0.2882-0.031 0.5452-0.044 0.7813-0.031zm-13.656 2.5624c2.1751-0.16 2.2464 0.745 1.375 2.7188-1.5513 3.3308-4.2822 6.4832-6.3124 9.0938-4.3075 2.7855-11.32-5.7312-8.2188-7.9376 4.3278-1.7111 7.5815-3.4715 12.094-3.75 0.4004-0.067 0.7517-0.1021 1.0624-0.125zm-482.41 5.5626c1.1595 0 2.3427 0.2309 3.5625 0.75 16.296 21.997 15.186 55.478 2.5313 74-0.9435 1.3838-1.9059 1.6324-3.5 1.0937-5.4463-3.2239-12.364-4.4192-17.531-6.2813v-64.406c5.3217-1.1273 9.9131-5.1688 14.938-5.1562zm429.44 5.25c-1.2443 0.056-1.7625 0.903-0.1875 2.5312 23.763 17.195 56.462 37.125 86.625 29.406 2.7689-0.6005 5.0009-2.1143 4.4688-4.9687-0.3316-1.7786-3.3974-3.3139-6.7188-2.4375-6.9166 1.8248-20.18 2.0607-25.625 1.1875-20.742-3.4042-39.064-16.669-55-24.438-1.1823-0.9026-2.5947-1.3251-3.5625-1.2812zm-6.9 16.4c-1.0623-0.049-0.9804 1.0108-0.3125 3 3.3448 9.9597 36.972 33.17 63.531 40.844 22.803 6.5883 55.561 0.1098 53.656-10.719-0.9941-5.6484-5.1399-6.9981-19.688-5.1562-32.039 6.2259-62.88-6.8748-86.281-21.438-6.3078-3.9731-9.5407-6.4682-10.906-6.5312zm-209.81 13.625c13.993-0.167 27.867 0.9694 42.875 3.4688 29.194 4.9811 63.03 14.024 91.656 27.281 48.648 18.26 109.81 32.346 161.72 30.438 12.67 0.3517 35.567-0.7271 40-2.1875 11.571-2.5947 14.769-0.1361 17.531 14.219 0.4861 3.1231 1.4508 4.0295 5.4687 6.75 6.1466 4.1618 5.1215 8.2781 4.375 17.469-0.6277 7.7323 4.044 12.074 22.781 46.656 21.325 39.358 42.125 85.094 42.125 85.094-186.93-0.1279-365.27-7.0641-556.53-1.125 17.202-40.784 64.102-114.33 93.494-173.37-7.1079-18.166 1.6698-21.253-2.0124-25.56-5.9534-10.096-1.6574-24.258 10.925-27.449 8.7668-1.008 17.198-1.5873 25.594-1.6875z" transform="matrix(.99984 -.017645 .017645 .99984 588.42 33.795)" fill="#131f67"/>
    <path d="m1950 1728s59.062-124.9 84.213-162.45c36.298-47.72 205.07 16.844 288.71 32.242 33.989 5.9329 112.46 1.4854 112.46 1.4854l67.722 117.14zm-129.66-138.44-9.3986-385.41 19.388 11.627 11.228 387.11-81.483 80.822-0.866-23.24zm49.389-44.869c19.04-40.082-3.8551-88.215-3.8515-88.196 11.499 2.6225 42.342-58.493 45.208-56.796 49.892 59.027 59.931 148.11 1.2398 204.47-15.74-38.176-42.402-59.484-42.596-59.48zm31.64-273.26c36.436-38.575 65.34-68.631 94.002-111.58 2.3475-3.4939-160.18-202.6-157.77-206.18 24.044-27.534 56.563-48.027 81.56-81.203 0 0 133.37 168.35 136.35 166.8 12.266-53.637 21.085-102.16 17.579-157.93-10.564-142.68-73.14-229.03-73.582-227.3-18.321 131.58-217.64 333.91-257.83 320.46l-1.8434-91.694c2.496 4.546 127.06-83.389 158.31-197.25 2.245-8.1802 99.524-41.213 98.818-42.398-4.3265-10.56-48.193-70.35-48.193-70.35s17.146-8.3577 19.066-8.3633c56.696 68.002 100.16 158.14 115.93 244.42 18.928 92.899 33.195 267.92-150.33 462.58zm556.04-251.01c-30.848-90.255-31.708-184.25-19.418-250.1 18.421-119.26 92.062-205.72 151.19-271.7l26.145-0.44938s-30.688 32.899-41.855 44.87c-19.125 22.738-46.576 69.95-46.576 69.95l159.57 201.12 88.564-20.784s-1.0722 91.248 1.6843 91.2c-68.085 58.411-116.83 111.05-151 195-21.705 8.4646-93.584 40.969-93.584 40.969-34.581-7.8093 98.518-224.84 72.421-228.01-10.879-8.656-132.44-166.73-134.75-166.36-51.778 168.54 4.7228 343.58 103.19 464.79-10.806 7.2742-20.6 12.962-19.724 11.285-42.257-56.494-79.603-124.18-95.85-181.77zm-286.42-78.99c6.3393 9.4443 30.311-205.11-45.645-375.17 6.8469-5.3819 66.811-17.953 66.811-17.953l17.099 51.018-40.738 18.103 8.0015 23.915c31.589-16.017 100.19-40.05 141.39-111.3 0 0 206.21-5.4096 210.6-5.1194 4.2849 0.28277-41.273 45.51-83.637 136.19-19.35 41.418-34.385 94.833-36.612 157.23-0.4401 12.33-48.21-57.08-48.21-57.08 10.551-59.545 40.536-118.51 70.415-177.47 0 0-47.473-1.8591-80.589-0.30539-50.532 57.216-82.316 87.462-159.53 115.72 29.934 90.253 204 130.81 165.32 123.2-7.9048-1.7158-16.379 83.745-6.3442 179.7 2.9654 76.81 46.57 204.17 48.006 203.11 0 0-27.448 6.692-29.736 2.3121 4.6271-1.1978-40.817 11.162-40.817 11.162l-17.169-47.451 43.818-21.105-7.6199-26.819c-0.1725 0.019-96.962 31.166-143.13 116.89l-213.14 4.0065c80.629-90.646 112.6-179.46 128.4-296.41 17.495 2.8197 53.062-6.3714 53.062-6.3714zm510.62-779.31c26.405-22.899 79.164-82.249 79.164-82.249l1.2295 29.91-59.927 64.563 7.5365 391.96-21.001-19.428zm-25.682 143.96c-10.902 5.4309-32.36 31.581-42.296 60.713-71.839-61.938-44.763-178.57-6.4729-203.43 11.681 25.157 44.806 58.197 44.041 57.504-7.0073 26.681-12.262 53.714 4.7275 85.213zm-630.7-252.08 545.5-8.669c-30.033 61.81-57.704 111.83-89.71 172.73-16.84 21.061-390.88-60.152-392.47-51.376z" fill="#e2cf00"/>
    <path d="m2825.3 1819-0.3176-17.997 17.916-0.3161 41.645-65.698-46.142-101.7-17.279 0.305-0.3556-20.149 64.294-1.1347 0.3555 20.149-22.658 0.3999 35.182 79.316 21.934-32.438-1.3509-47.862-15.786 0.2786-0.3555-20.149 58.681-1.0356 0.3556 20.15-20.97 0.37 3.9849 167.41 17.777-0.3137 0.3176 17.997-55.741 0.9837-0.3176-17.997 15.342-0.2708-2.8859-78.705-49.837 79.635 18.133-0.32 0.3176 17.997zm-206.25-113.18c-36.969-68.988-83.974-131.28-137.58-184.87 51.401-58.157 94.055-118.22 130.25-183.64 39.611 63.79 82.951 123.91 143.03 181.73-57.495 58.629-100.33 122.24-135.7 186.79zm-860.62-52.46-12.722-514.61 63.065 59.135 10.657 395.17zm1071.5-162.06c22.159-24.323 42.204-51.216 58.626-80.152 21.85 31.163 45.008 63.029 63.97 78.786-20.77 24.502-40.322 52.831-59.132 81.994-17.301-26.58-36.061-53.347-63.464-80.628zm-788.8 57.308c-12.798 2.1841-5.744-9.823-3.5986-21.156 1.1953-6.3149-4.9973-12.127-5.0029-14.049-0.033-11.175 8.2528-16.038 46.188-16.267 89.527 4.6264 136.26 32.434 187.78 44.836 49.343 11.877 98.028 10.76 152.21 8.5549 4.0074 2.2167 19.199 39.382 16.565 43.176-122.19 26.325-280.23-60.93-394.14-45.094zm216.28-270.4c-13.084-9.1319-25.239-10.652-37.258-12.473 20.375-37.357 45.245-71.513 87.404-93.355l20.656 48.614c-24.788 13.301-49.074 29.043-70.801 57.214zm-260.55-122.6s-17.822 30.324-34.884 45.222c-52.711-68.134-170.45-213.1-170.45-213.1l-48.423 25.601s-0.6947-28.455 0.3742-30.466c130.77-70.329 219.05-200.45 256.8-321.51 0 0 21.629 21.305 18.997 30.527-34.007 95.564-93.343 191.84-181.81 264.83zm162.12-142.96 166.6-2.7042 8.3995 57.784c-63.417 22.502-115.3 67.1-163.63 118.48l-79.045 0.018c24.906-57.219 59.883-115.44 67.673-173.58zm612.5-254.88c5.6781 16.233 0.5607 33.942 2.6158 33.167-197.81 102.21-251.02 319.83-251.02 319.83s-19.475-29.659-18.692-34.314c99.238-231.39 168.22-239.45 181.06-264.61l-160.68-200.53 34.683-48.955 172.37 216.29c16.612-8.0092 26.045-14.639 39.669-20.866zm-93.154 298.73c32.766-61.454 67.051-97.446 101.4-122.4l-0.2718 80.345zm-937.18-222.39-0.5071-77.934 102.01-46.05c-27.328 62.453-65.322 96.335-101.5 123.98zm456.71-78.138-7.0451-54.697c61.92-28.319 116.41-65.694 160.03-116.3 47.772-3.1402 80.484-0.47733 80.213-1.1215 0.082-0.0977-44.304 67.531-72.615 173.27zm506.84-584.81 55.785-58.392 10.829 512.13-58.008-53.282zm-491.82 425.84-18.918-50.461c28.16-11.123 49.212-34.642 68.8-57.91 13.768 11.892 31.335 15.854 37.448 18.079 8.3449 1.7952-56.04 81.934-87.33 90.292zm-445.4-342.87c59.782-60.436 98.203-123.74 135.31-186.66 34.714 67.898 84.275 126.96 137.29 183.97-52.568 59.204-92.187 122.31-130.18 185.8-39.598-65.516-81.152-126.86-142.43-183.1zm-138.41 104.77c-18.026-27.688-36.167-54.327-62.1-80.916 24.315-26.962 44.901-53.624 58.585-79.732 20.013 28.05 39.063 57.384 63.413 79.65-22.872 26.087-41.136 53.621-59.898 80.998zm470.67-144.52s-7.1598-3.977-6.4839-9.7704c2.2138-7.5283-8.0033-24.303-8.0068-24.302 120.31-38.83 298.26 61.324 402.42 37.759-0.7442 7.3152 0.6118 15.999-2.2289 22.933 3.5512 14.57 5.8845 15-8.2414 24.184-73.076 22.076-151.26-20.868-223.37-40.785-58.85-17.399-106.3-11.864-154.09-10.018zm-540.81-54.727-0.386-21.878 20.532-0.36234-2.9018-164.43-20.532 0.36234-0.3351-18.991 56.942-1.0049 0.3352 18.991-14.847 0.26201 2.7699 79.035 50.263-79.971-20.14 0.35542-0.1027-18.995 64.44-1.1372 0.3352 18.991-18.382 0.3244-39.98 65.775 42.882 98.658 18.382-0.3244 0.3861 21.878-64.423 1.1369-0.3617-20.497 24.156-0.8073-35.611-76.803-22.5 32.173 0.7945 45.022 16.791-0.29632 0.3794 21.497z" fill="#d40000"/>
    <path d="m2018.7 46.868 22.828 41.217-3.775 2.6582c6.1924 9.9158 11.503 21.102 17.83 30.934l4.4294-0.58937c7.5028 13.777 10.533 18.869 20.317 35.176l-4.2867 0.0567c2.3358 7.2842 8.0838 12.049 8.2923 17.303 0.1724 6.5381-1.392 13.205 2.7031 17.561 4.8508 5.1594 5.4468 6.602 4.5235 9.6913-2.4525 8.2059 5.1009 17.108 12.59 16.166 52.753-8 106.74-2.9545 160.89 12.372 38.954 11.532 73.581 24.607 106.31 33.652 10.318 2.8838 31.15 7.3504 49.03 8.3433 49.597 2.7542 77.215-7.8276 68.509-28.281-0.69-1.6379-2.1989-2.821-2.3445-3.6672-0.2688-1.563-0.056-3.2627 2.7148-5.6166 7.9808-8.4428 3.335-14.404-1.7812-23.505 0 0 61.606-114.76 92.378-171.94zm550.93 0.49188-45.01 80.969c-24.896-4.0584-30.361 16.915-30.685 19.857-32.376-7.6935-26.689 34.01-10.471 36.548 1.153 6.0438-26.253 14.061-41.016 0.11617 22.354 2.5936 29.732-27.052 2.3759-33.127 35.442-27.331-32.642-66.113-32.469-10.872-31.781-5.0199-26.924 36.773-6.7706 39.673-10.08 11.515-40.298 12.363-56.519-11.247 27.12 13.483 41.025-22.797 12.931-32.389 33.921-30.822-34.037-57.488-31.596-8.6938-25.697-14.622-42.505 24.108-8.4513 29.404-1.8139 6.9481-46.272 7.7872-57.871-9.8867 31.65 6.6368 32.424-31.766 4.5499-34.398 27.297-35.929-43.898-52.6-31.146-4.4511-27.576-10.347-37.318 23.977-10.456 34.471 1.5758 5.407-43.01 10.818-58.99-8.5064 34.24-5.7576 21.639-38.816-0.5503-35.762 0 0 0.3024-0.96275 1.4992-4.2218 9.9099-33.583-46.588-35.378-38.144-0.101 1.3095 3.2377 2.7687 7.5563 2.7687 7.5563-15.617-2.8951-25.014 3.6107-23.63 18.191 4.2171 19.317 14.431 17.704 27.463 13.611 5.5957 5.6445-31.165 25.492-54.758 8.766 28.38-8.7001 13.34-41.873-10.449-36.939-1.1755-10.652-13.036-25.413-28.026-17.845l-16.553-31.182zm54.512 444.45-33.503 1.0853c-23.113 24.446-190.79 184.46-157.9 421.11 14.068 101.22 43.944 188.48 121.5 290.81l20.027-12.235 3.1326 2.0187 207.74-124.43-0.5373-36.663-241.8 106.5c-4.9245-5.057-7.8676-10.743-12.049-17.002l96.89-43.214s2.2366-5.972 2.9424-8.7144c30.662-81.767 94.825-141.7 150.78-188.12-1.7116-79.941-5.0385-247.31-5.0385-247.31l-149.4-143.6c-18.518 17.541-34.896 35.537-51.252 55.035l172.43 218.84-14.768 9.9862-170.64-217.72c19.327-24.095 40.397-45.179 61.396-66.388zm152.26 141.58s-7.5315-380.82-11.885-564.7h0.0004l-85.876 91.271 7.1524 386.02zm-16.763-528.35-60.668 64.848 7.6165 392.37-16.156-15.373-6.7344-381.82 75.767-82.244zm-601.52 1.1682c1.9047 3.2245 1.1849 7.7511-1.7191 11.486-12.361 15.899 27.814 42.439 56.29 37.2 21.674-3.9871 39.976-17.368 31.807-27.159-6.653-7.9744-2.5461-16.231 5.2754-16.314 8.0438-0.0858 14.615 6.1979 7.7987 15.083-15.164 19.766 8.889 42.22 45.062 42.055 25.579-0.11656 33.987-6.5659 32.287-24.761-0.7961-8.5208 0.8374-10.909 6.7527-12.309 9.4476-2.2355 14.424 8.5484 6.7068 16.978-16.666 18.203 3.0967 44.191 35.243 45.323 11.762 0.41419 14.072-0.25233 27.053-7.8848 10.146-5.9652 13.608-14.765 8.4663-21.465-6.6168-8.6227 1.9121-19.212 12.048-15.09 7.245 2.9464 10.884 8.3986 3.0955 17.887-10.232 12.465-5.1043 22.507 15.141 28.986 15.77 5.0472 26.613 4.1949 33.834-2.6286 2.2473-2.1237 7.2507-6.5639 7.1999-5.2338-4.7826 8.606-9.0124 16.59-9.0124 16.59-32.576 15.228-58.69-11.733-57.864-12.771-33.482 20.115-63.548 16.527-89.472-15.814-6.5255 3.7679-53.554 13.198-88.274-23.581-34.064 17.85-66.141 11.182-94.872-7.6008-20.63 20.175-42.691 23.698-65.838 14.592l-7.0484-13.57c1.7053-0.67403 9.3664 13.567 45.211 6.2345 12.034-2.4619 32.451-23.12 20.643-32.807-5.4603-7.4396-5.6782-10.833-1.0547-15.484 4.5485-4.5815 12.493-2.4041 15.242 2.0587zm-87.778 19.506c2.0752 3.8504 2.4568 10.306 0.1767 6.4666-1.2033-2.0258-7.4533-11.059-7.1701-11.344 2.8285-0.28645 5.6906 2.5879 6.9934 4.8774zm689.53-9.0463 9.3396 506.35-53.544-51.276-9.5286-396.63zm-608.96 35.274 16.755 10.126-29.674 0.34596zm93.304 7.07 14.152 13.268-29.359-5.6175zm260.77 2.4134-5.9927 12.858c-3.6572-3.9458-4.8497-12.438 5.9927-12.858zm108.86 208.65c10.143-23.896 23.74-54.34 46.443-64.347-17.624-33.531-16.008-67.39-4.2562-86.146-17.558-15.775-35.628-34.725-47.122-62.23-53.731 49.154-60.756 148.3 4.9359 212.72zm-5.2247-203.46 3.9197 9.1902c-47.56 60.345-31.174 138.17 4.7695 179.23l-4.8722 10.586c-43.829-44.622-64.358-140.21-3.817-199zm-289.99 38.78c56.615 15.532 102.18 40.498 166.9 16.398l0.5275 12.671c-40.977 27.337-124.04 0.68416-180.19-18.92-90.248-31.512-159.99-28.351-209.78-23.69-4.4035-0.78175-8.0951-12.18-1.0659-12.382 93.207-2.6732 77.94-14.041 223.61 25.922zm12.331-22.649 18.843 19.296c-13.969-4.113-27.56-8.7152-40.231-14.511zm282.4-0.14109 3.7127 4.9353c1.6076 2.137-10.171 3.4681-8.2355 0.89545zm-317.18 41.52c67.679 24.06 142.16 47.949 190.34 24.495 0 0 0.4763 9.6151-5.0294 12.438 0 0-5.0507 4.234-22.157 6.8956-78.498 7.8387-130.1-23.805-193.89-41.918-24.197-6.8708-63.022-15.028-102.75-15.972-23.596-0.65653-59.606 3.3648-59.606 3.3648-7.8683-0.51559-7.8372-5.1567-7.9851-9.7044 68.187-10.32 131.16-4.6288 201.08 20.401zm324.7-29.942c0.8665-0.0556 1.7523-0.009 2.6274 0.1099l7.0289 8.6586-7.9262 13.111s-7.3098-6.4953-11.074-12.932c-2.0846-4.1739 3.2782-8.5582 9.3435-8.9475zm-198.05 5.9661 21.576 15.694c-15.993 1.0683-34 1.9834-51.956-4.785zm180.48 5.001c1.6763-0.0698 3.4678 1.6706 5.5917 5.1521 4.083 6.6927 3.5826 7.9976-4.0635 10.605-10.042 3.4239-10.847 2.725-7.739-6.3957 2.1167-6.2113 4.0554-9.2713 6.2108-9.361zm32.414 3.5751 14.606 11.826c-7.5837 20.822-12.322 47.164 4.3071 84.565-1.7693 0.14886-11.934 10.54-15.151 12.34-9.1855-3.6607-30.574-77.973-3.7619-108.73zm-16.094 16.109-3.252 22.936c-0.2667 1.8809-16.116-10.548-14.77-16.93 2.6497-7.597 12.191-6.1548 18.022-6.0064zm-25.688 8.485c1.8895-0.0195 4.9366 4.4992 8.685 10.411 2.9243 4.612 2.3732 6.3836-3.8172 12.163-9.0962 9.5273-10.971 6.5028-9.1997-9.4642 0.8751-7.8894 2.1905-13.088 4.3319-13.11zm19.519 20.388c1.2572 0.004 2.3619 0.28732 3.1728 0.91291l1.4554 22.259c0.1314 2.0094-17.401-0.48535-19.848-8.9324-2.999-5.3832 8.4307-14.259 15.22-14.24zm-22.746 19.237c1.2495-0.20044 5.2136 2.3364 8.9553 4.4677 6.5052 3.7055 6.6733 5.383 1.2539 12.605-6.3665 8.4837-9.6259 7.1987-10.881-7.3404-0.4609-5.338-0.9344-9.4744 0.6721-9.7321zm25.812 8.0673c0.5631-0.0103 1.0709 0.14308 1.5091 0.5047 3.1444 2.5942 8.2757 24.84 6.3248 27.205-2.7792 3.3687-17.78-0.7811-21.202-5.9706-3.256-4.9378 7.9258-21.64 13.369-21.739zm-17.803 26.61c1.7128-0.14714 4.8204 0.97815 9.5257 3.1449 2.8296 1.303 7.5591 3.7654 8.6326 5.917 1.8895 3.787-1.0387 9.5013-4.8696 14.27-2.5344 3.1549-4.9982 0.8846-10.2-9.4465-4.1833-8.3093-5.9439-13.64-3.0892-13.885zm30.306 9.4551c0.3436-0.0141 0.6563 0.0507 0.9413 0.20217 5.1319 2.7273 4.4275 11.109-1.4745 17.404-7.0845 7.5558-13.451 2.0704-8.6326-7.4426 3.052-6.026 6.7609-10.064 9.1658-10.163zm-415.6 215.14c-4.3921 0.2758-11.18 4.3765-14.106 8.2814-3.6974 4.9344-7.0098 4.3563-11.211 4.0735-4.9923 0.0146-12.568 1.2523-22.77 6.1215-5.7813 2.7592-8.4287 3.405-16.964 3.9874-5.5705 0.38012-11.146 1.2332-12.375 1.9061-1.229 0.67296-5.2176 2.1482-8.8497 3.2817-7.4251 2.3172-4.7315 4.3886-0.2802 13.933 22.766 55.455 39.521 120.25 46.143 173.14 7.458 60.686 6.827 134.45-0.6823 190.9-20.846 0.50823-33.96-0.32941-55.911 0.42815-12.827 122.02-51.762 219.43-131.44 307.81l219.57-3.3158c23.971-67.534 137.86-120.73 141.7-117.02l6.4796 24.378s-82.369 13.257-136.14 119.03c5.6272-3.5411 26.382-1.5201 40.306 12.433 26.699-35.11 71.102-58.528 71.403-58.001l1.4259-4.2028s8.1645-2.9369 15.362-4.4385c2.3089-0.4817 7.0407-1.459 10.174-2.6175 4.8426-1.7916 7.2279-3.6485 14.76-3.136 15.68 1.22 31.31-3.5999 30.977-3.677-48.874-127.71-61.937-243.55-46.109-378.66 17.173-0.16916 54.835-0.1874 54.835-0.1874 3.1196-37.937 7.2463-75.914 18.248-111.88 14.125-46.171 31.384-89.163 59.696-128.7 15.943-24.796 29.935-42.487 46.457-65.755l-214.91 4.29c-27.6 48.306-81.695 89.197-125.45 106.61-14.891 5.8959-17.022 5.101-19.63-1.9039-4.6603-12.515-4.4383-11.986 7.2271-15.536 3.8958-1.1858 16.308-8.0038 35.696-17.508 41.118-21.793 68.968-60.854 85.288-87.175 6.495-10.397 2.0533-7.9966-9.3596-7.8986-10.466-0.63298-15.299-3.78-24.847-12.376-3.5191-3.1681-5.0476-5.4428-6.6246-5.2277-11.956 17.833-32.14 41.438-48.087 48.606zm49.721-41.586c9.8416 10.172 21.413 16.019 36.534 17.723-23.444 38.26-52.373 68.365-85.906 86.949l-18.063-48.101c41.839-20.386 52.769-40.258 67.434-56.571zm350.59 9.2153c-223.59 214.15-205.55 478.85-42.575 691.23l-16.501 10.323c-153.03-197.69-185.31-493.56 39.501-702.1zm-142.85 28.16 55.72-1.0976-37.067 49.838-50.902 0.71076zm-8.7239 0.56156-30.126 49.405-83.573 2.5509c-48.93 62.547-102.13 93.576-156.46 115.07l-11.603-52.466c-0.0006 0.0004 86.228-22.41 140.74-112.74zm-84.87 5.54-18.994 21.776 20.483 20.11 18.006-21.102zm43.859-1.2741-19.262 20.749 15.672 20.258 19.989-20.293zm-96.701 5.4258-2.7769 32.148 25.392 7.8344 3.2028-27.498zm153.6-1.5141-17.816 28.966 27.597-0.0495 18.787-28.858zm-288.29 12.409 18.756 49.249-15.566 7.8487-16.842-51.48zm-21.025 8.3246 19.34 50.948-15.345 5.3654-17.877-53.068zm25.663 202.05c3.3154 71.271 5.0958 114.24-5.7193 177.13-0.5653 3.287-13.422 0.61093-13.422 0.61093 1.6297 0.51146 5.9649-70.958 4.7293-115.78-2.353-85.357-18.319-169.56-53.317-253.57 6.3182-4.0197 22.035-6.2905 22.035-6.2905 22.277 63.786 42.238 132.47 45.693 197.91zm-226.6-193.78c75.097 96.06 129.88 227.22 123.4 357.69-5.7303 151.69-61.642 240.03-160.69 346.75l-26.022 1.0641c117.42-116.63 168.54-215.57 170.42-344.95 2.167-148.8-44.997-246.91-123.36-350.97zm-232.35 137.97 0.8817 35.459 248.11-111.63-36.994-52.48zm583.87-126.5-27.19 1.855 1.3909 27.448 28.358-1.1881zm242.5-9.4991 165.76 209.58-39.562 30.484-157.97-196.9zm-126.72 16.75 48.506-0.10589-18.201 31.439-46.874 0.45216zm-8.9408 0.92403c-21.564 41.858-51.484 89.681-67.406 166.4l-159.63 2.9519c-0.6027-17.44-3.1712-34.845-6.0791-52.245 68.344-26.389 120.96-64.959 159.27-115.39zm29.558 1.6688-20.598 12.365 12.975 14.398 22.779-9.1846zm-189.74 18.633-6.3965 27.18 26.047 9.5106 4.2132-32.236zm149.21 17.589 46.529-0.53983-18.9 39.465-46.099 0.12593zm110.68-7.0762 156.81 196.02-14.172 11.624-153.25-191.6zm-92.97 9.9205-20.657 17.836 16.1 17.937 19.068-15.776c0.4024-0.33291-14.511-19.997-14.511-19.997zm-203.44 5.028-5.9724 26.422 27.028 6.6804 4.3139-28.299zm-36.904 18.154-5.0108 25.999 25.461 6.3955 4.9024-25.059zm-209.26 1.0936c1.2955-0.28296-3.6917 30.903-11.742 36.651-3.8465 2.7463-5.8736 2.1913-9.3155-1.3957-2.3705-2.4704-13.215-19.477-13.215-19.477l8.9242-4.6845c11.235 17.279 11.077 8.8285 14.949-6.1352zm-41.7 18.648c3.5682-0.0892 7.9701 4.2687 13.009 12.772 7.286 12.297 7.0653 13.111-4.4838 16.894-20.806 5.9-28.556 7.3633-22.369-6.5438 6.6611-14.973 9.2564-23.008 13.844-23.123zm62.182-3.5619 14.737 24.232c-54.9 147.08-145.6 253.48-271.8 319.17l-0.72-24.26c148.64-88.111 208.42-190.15 257.67-319.08zm390.19 3.6754 45.164 0.0156-11.451 34.739-47.999 0.50325zm-465.82 6.7125c-35.204 88.223-84.068 165.52-183.33 231.79l-0.8121-23.257c111.55-69.937 158.04-198.07 158.03-198.11zm570.65-10.219c26.745 0.26135 55.37 28.908 52.943 52.98-1.7102 16.965 1.7549 29.468 6.241 22.456 9.9131-15.495 40.098-5.844 40.152 12.551 0.029 9.7899-6.4827 11.514-10.391 2.7463-5.7749-12.955-21.357-13.003-23.415 0.7178-1.9289 12.861 9.1111 22.091 38.353 32.078 34.19 7.3861 55.226 37.544 43.426 55.303-4.1236 4.7124-6.6359 5.8978-7.4705 3.5074-0.2397-0.68568-1.1379-4.2903-1.9852-7.9975-4.1864-18.319-13.135-25.888-23.731-19.385-5.3106 3.2593-4.5546 7.4375-1.3269 12.908 4.2978 7.2847 1.7389 10.189-5.7912 6.5719-11.887-5.7124-16.031-19.672-4.7198-26.345 13.489-5.6716 8.8688-6.7604-8.5937-12.319-37.171-11.972-53.433-34.846-56.151-78.928 0.3547-20.122-2.5226-27.244-12.028-29.824-8.7035-2.3621-18.314 8.8106-11.996 14.495 3.4322 3.0878 6.2399 5.9017 4.4798 7.6722-5.6437 5.677-20.17-3.1207-20.198-12.833-0.019-6.3498 2.3616-7.7018 11.731-15.334 2.5988-2.117 0.2835-5.9804-3.5746-5.9691-14.441 4.9362-13.755-14.29-5.9541-15.054zm-83.607 6.5682-22.342 13.37 12.044 16.218 24.785-12.179zm-438.93 20.498c2.5931-0.0458 4.7549 2.0104 4.8006 4.6035 0.046 2.5931-2.0416 4.7555-4.6347 4.8013-2.5932 0.0458-4.7242-2.0422-4.7701-4.6353-0.046-2.5931 2.011-4.7237 4.6042-4.7695zm46.301 1.2163c49.472 103.12 62.899 221.81 31.847 341.2l-131.8-165.14c48.375-56.438 80.433-120.64 99.752-176.1zm-173.85 10.705-113.94 50.254 0.8842 86.081c63.362-44.899 89.773-90.185 113.05-136.33zm110.32-2.6649c11.305-0.55095 6.2631 30.081-8.241 40.759-5.3145 4.2331-8.9546 3.7903-10.877-4.4543-0.996-4.2722-5.6724-13.27-11.491-20.476-6.7684-8.3833-6.6961-8.5932 2.9602-9.3662 10.677-0.0271 19.336-5.3063 27.648-6.462zm-10.952 13.173c-8.3463 0.0244-10.777 3.9727-5.713 9.2272 4.2638 4.4245 7.5671 3.4017 10.259-3.1503 1.6404-3.9934 0.071-6.0905-4.5456-6.077zm-205.07 115.3-1.0082-73.056 97.436-43.065c-18.94 43.03-54.646 85.992-96.428 116.12zm873.11 43.625-12.847 13.377-129.64-162.96 7.573-20.994zm-697.7-154.84c4.2522-0.0124 14.149 14.55 17.039 25.078 2.1439 7.8106 0.048 9.5062-14.791 11.982-6.1357 1.7966-22.817 0.45984-21.543-3.9955 2.304-6.4416 17.795-33.06 19.295-33.064zm459.14-6.4158 46.252-0.31615-9.9227 38.119-48.443 0.13603zm20.475 1.9515-21.265 15.284 17.325 16.478 22.56-14.494zm72.831 15.039 131.14 164.12c-37.39 49.325-74.552 105.88-98.327 180.2-47.528-105.95-66.072-209.58-32.808-344.31zm-520.42 23.344c2.5931-0.0458 4.755 2.0104 4.8007 4.6035 0.046 2.5931-2.0416 4.7555-4.6347 4.8013-2.5932 0.0458-4.7243-2.0422-4.7701-4.6353-0.046-2.5931 2.0109-4.7237 4.6041-4.7695zm-14.635 6.603c8.0149 0.42562 0.9103 26.047-10.973 35.556-9.3669 7.4953-13.509 4.1684-15.941-9.2022-0.8787-4.8317-6.1179-12.976-10.716-19.396-5.1376-7.1734-3.0944-8.3657 9.6514-5.6712 8.8919 1.5618 19.794-0.7341 27.979-1.2868zm428.56-1.3326 48.49-0.56279-6.4492 57.732zm-472.36 11.004c7.7664 6.9874 17.858 31.806 12.939 33.692-5.7208 2.1941-31.844-0.37133-34.814-3.3237-2.0457-2.0337-2.0517-2.0448 2.1124-7.8197 2.2902-3.1762 6.6434-9.5082 9.6905-14.079 2.7583-3.348 5.7202-12.345 10.072-8.4692zm27.01 0.37611c-7.3797 0.37791-7.8545 1.3984-4.2116 9.2945 2.9717 6.4412 4.9635 6.9852 9.7981 2.64 6.7266-6.0457 3.7456-12.412-5.5865-11.935zm851.12-10.019 2.251 28.371c-184.75 95.735-250.69 315.23-251.7 315.24l-13.974-24.945c81.802-212.25 194.47-275.28 263.42-318.67zm-877.65 49.087c11.094-0.42742 14.322-1.2413 14.334 2.8725 0.3239 11.057-9.7372 26.94-22.264 33.085-8.4328 4.1373-8.6224 4.2339-9.7596-5.7662-0.875-7.6943-3.5632-17.57-7.6992-25.399-1.3063-2.9074-6.2424-9.5393-0.1529-7.735s18.624 3.209 25.541 2.9425zm24.85-3.0077c2.5932-0.0458 4.7237 2.011 4.7696 4.6041 0.046 2.5931-2.011 4.7237-4.6042 4.7695-2.5931 0.0458-4.7236-2.011-4.7694-4.6041-0.046-2.5931 2.0109-4.7237 4.604-4.7695zm-59.276 7.5221c2.0122-0.0954 4.0004 4.006 6.397 10.045 5.2113 13.131 6.8629 20.272 5.4451 23.408-2.1849 4.8327-32.828 2.2782-38.121-2.9841-0.9763 0.75787 22.018-27.736 26.279-30.468zm22.086 2.892c-4.3791 0.3771-2.0118 2.9765 1.3742 10.571 2.3441 5.2577 5.4049 6.0569 8.8229 2.2822 4.5722-5.0494 5.1305-9.0066 2.1528-11.075-4.3479-1.6578-7.541-1.8399-12.35-1.778zm892.52 12.988 0.3301 9.5112c-7.2973-2.0378-11.848-5.0319-20.173-7.6393-5.1026-1.6135-8.1216-2.7721-3.7356-8.1927 6.8721-8.4932 14.31-13.86 22.774-19.196l0.238 10.777c-13.57 6.3021-12.144 11.871 0.5665 14.74zm-538.92-0.16279 51.492-0.90871 0.6 33.995 40.275-0.71076-2.4408 38.799-37.15 0.65561 0.5999 33.995-51.492 0.90871-0.5999-33.995-36.776 0.649 2.2845-38.796 33.807-0.59662zm116.3-1.9352c-23.796 129.66 2.5447 266.4 44.746 377.44l-20.261 2.593c-32.934-88.815-60.105-215.61-37.641-379.73 0 0 9.0824-0.32439 13.156-0.30517zm382.23-4.2373c2.5931-0.0458 4.7238 2.011 4.7695 4.6041 0.046 2.5931-2.0109 4.7237-4.604 4.7695s-4.7238-2.011-4.7695-4.6041c-0.046-2.5931 2.0109-4.7237 4.604-4.7695zm-905.64 26.828c1.7057-0.0814 6.9825 2.0851 11.654 3.2949 7.0239 1.8196 12.55 2.5623 18.923 2.5728 12.804 0.0209 14.478-0.12397 9.1553 10.496-3.8345 7.6506-12.592 17.828-18.789 20.991-8.7678 4.8816-12.172 4.3009-11.799-4.4175-0.041-5.9068-2.7866-16.13-6.2574-23.393-2.6985-5.647-5.7305-9.4086-2.8876-9.5443zm54.224 3.1937c2.5932-0.0458 4.755 2.0104 4.8007 4.6035 0.046 2.5931-2.0416 4.7553-4.6348 4.8012-2.5931 0.0459-4.7241-2.0422-4.7699-4.6352-0.046-2.5931 2.0109-4.7237 4.604-4.7695zm866.5-15.89c3.6278-0.14203 9.8904 1.9728 15.615 4.6314 15.18 7.0484 14.806 8.7346-5.335 23.567-14.611 11.499-18.093 12.82-18.933-4.8855-0.7972-14.92 0.6712-23.001 8.6524-23.312zm-928.2 20.66c5.9756-0.0194 13.137 30.969 7.817 33.836-8.2839 4.4647-34.328-3.4902-34.348-10.583-0.01-2.3072 23.895-23.245 26.531-23.253zm910.24-17.345c3.5684-0.2197 4.092 2.5715 3.9399 12.495-0.08 5.2543 0.9717 13.804 1.4079 17.79 0.905 8.2765 0.2014 8.8604-6.408 5.2701-4.2354-2.3015-12.824-6.0385-22.059-6.6742-7.5663-0.52085-8.174-3.618-5.9207-8.641 6.4778-11.155 18.425-19.115 29.04-20.24zm-888 20.359c-5.2138 0.054-3.8731 2.8041-0.5016 10.542 2.3889 5.4831 6.3683 5.9401 10.366 1.161 5.5974-6.6918 4.4125-10.159-3.9183-11.276-1.7624-0.23514-4.7429-0.43888-5.946-0.42645zm881.31-8.1455c-2.1648 0.24014-5.1009 2.0056-6.5113 2.9588-4.8458 3.1583-6.7974 5.4042 0.3549 7.7136 6.365 2.0552 9.7432 2.9388 9.1447-2.5054-0.3605-3.2794-0.1874-8.0506-2.9883-8.167zm-483.23 12.56 0.5977 33.87 40.994-0.72344-0.5977-33.87zm446.73-4.9458c2.5931-0.0458 4.7237 2.011 4.7695 4.6041 0.046 2.5931-2.011 4.7237-4.6041 4.7695s-4.7237-2.011-4.7695-4.6041c-0.046-2.5931 2.011-4.7237 4.6041-4.7695zm-767.29 18.823 132.25 163.7-8.2092 21.792-136.29-172.87zm855.26-15.875 0.6661 21.686c-14.423 10.948-106.02 79.818-152.02 193.83l-24.939 11.142c33.656-98.019 107.84-182.77 176.29-226.66zm-983.62 26.548c8.4641 2.4117 16.605 8.1238 24.569 9.0367 9.1545 0.95102 12.295 0.31381 9.9036 5.076-5.3535 10.664-15.612 21.913-26.582 25.723-7.8422 2.725-11.585 1.824-10.431-3.0977 2.1607-9.2144 2.425-16.75 1.9637-25.101 1.1687-4.5767-2.8352-10.89 0.5761-11.637zm-9.8394 2.1112c5.4482 4.4948 4.8954 33.518-0.9843 39.867-3.0742 3.3194-12.212 0.49964-25.971-6.9802-8.9952-4.8888-10.712-7.9387-6.322-11.109 7.4521-4.7062 29.204-22.792 33.277-21.778zm923.93-15.68c2.7899-0.10924 6.2521 0.31303 10.429 1.1912 16.18 3.3361 19.838 6.9526 6.2892 18.111-5.0084 4.1246-10.304 9.2323-11.836 11.179-7.2319 9.1945-12.492 2.7125-14.4-13.717-1.3357-11.5 0.2863-18.089 9.5181-16.764zm-20.157 1.9185c2.6183-0.0462 4.3213 1.291 4.3309 4.5493 0.012 4.163 3.3166 22.111 5.0716 27.04 3.0536 8.3798 0.9808 10.32-6.069 6.7644-5.136-2.6527-18.64-4.4952-25.915-3.7933-8.2786 0.7974-8.0784-1.4258-5.7746-8.4306 4.0831-12.414 20.501-25.985 28.356-26.129zm-885.88 21.635c-3.1499 0.0456-3.2055 4.2945-0.8784 13.986 0.7403 3.0839 3.3993 2.8461 8.3627-0.77267 5.8719-4.2798 5.5824-6.8973-1.1907-10.793-2.7901-1.6053-4.862-2.4416-6.2936-2.4205zm36.669 0.41554c2.5931-0.0458 4.7237 2.011 4.7695 4.6041 0.046 2.5931-2.011 4.7237-4.604 4.7695-2.5931 0.0458-4.7238-2.011-4.7695-4.6041-0.046-2.5931 2.0109-4.7237 4.604-4.7695zm834.35 3.4973c2.2902 2.1533 10.602 1.9157 12.012 0.56943 2.161-2.0642 0.9731-11.452-0.8777-12.549-4.7129-1.5116-14.002 8.5594-11.134 11.98zm-775.88 31.601c3.0642 13.36 21.911 12.287 19.536-1.6575-1.3863-8.1416-1.6729-7.9668 2.4243-7.8565 19.49 0.61013 16.656 31.366-5.8261 29.389-4.6722 0.64174-5.2617 2.5699-1.2708 4.1481 3.9646 1.5688 19.114 5.1715 21.438 5.1225 24.415-0.51405 60.299 36.403 60.021 69.733-0.1821 21.798 7.4811 37.348 15.065 38.99 6.0301 1.306 14.65-4.306 13.777-10.964-1.2036-9.185 6.3298-6.4439 10.753 0.091 6.7335 9.0178-1.5128 22.345-17.184 21.588-6.6377 1.4165 4.9912 5.4409 13.598 7.764 7.7752 0.3067 1.3803 9.9882-0.033 11.718-4.3 5.1762-18.754 1.5351-30.197-7.3747-14.049-10.94-20.262-25.824-22.416-55.238-1.3847-18.909-2.8636-22.73-8.2315-14.826-9.5919 17.585-33.442 9.4839-36.724-8.8534-1.8294-9.7069 6.6206-16.885 9.5459-8.1072 7.6704 18.214 25.574 13.489 22.327-4.6759-2.1419-11.984-14.284-18.403-38.16-24.674-28.702-7.5391-37.367-17.166-43.346-40.491-2.6466-10.325-2.3529-15.757 3.0312-21.276 2.6597-2.727 6.0599-5.5137 6.0599-5.5137s4.0901 15.692 5.8125 22.964zm746.82-28.051c2.5931-0.0458 4.7237 2.011 4.7695 4.6041 0.046 2.5931-2.011 4.7237-4.6041 4.7695s-4.7237-2.011-4.7694-4.6041c-0.046-2.5931 2.0109-4.7237 4.604-4.7695zm-896.36 20.274c8.5578 2.9298 15.947 7.3624 24.767 10.191 5.7226 1.8337 4.2489 6.415-1.5308 12.985-6.4339 7.8731-12.823 11.803-21.854 16.286l-0.1358-13.114c11.002-4.0594 17.883-13.406-0.7651-16.033zm918.69-8.892c3.2211-0.0278 7.7845 0.009 13.155 1.019 13.602 2.5612 15.211 3.738 7.2376 13.406-2.9556 3.5836-7.3526 8.9869-9.7581 12.018-7.8165 11.305-12.2 7.5509-16.185-6.8093-4.8969-14.981-6.0552-20.739 5.551-19.633zm-875.98 20.835c2.5931-0.0458 4.7237 2.011 4.7694 4.6041 0.046 2.5931-2.0109 4.7237-4.604 4.7695s-4.7237-2.011-4.7695-4.6041c-0.046-2.5931 2.011-4.7237 4.6041-4.7695zm862.59-5.0142c1.3765 4.7359 3.4455 10.761 5.0176 15.029 7.6406 16.09 2.8775 9.9001-10.326 8.7018-8.8752-0.80547-22.949 0.92154-26.48-1.4652-1.5562-1.9487-0.245-7.1829 2.4932-13.11 3.8539-8.3415 10.999-15.521 16.367-18.815 13.626-6.5874 10.567 1.5362 12.929 9.6595zm-791.88 8.2042 151.16 192.7-11.291 16.718-155.48-198.13zm925.76-15.607c-75.805 56.844-104.11 124.71-109.94 133.61l111.81-45.417zm-146.5 8.9506c-4.1886 1.2314-10.095 9.1455-7.4427 12.164 1.5822 1.5718 7.7787 1.6719 10.73 0.52956 4.541-1.7578 1.2236-12.796-3.287-12.694zm-643.61 222.64-30.764 40.205-167.69-209.17 40.841-30.6zm782.12-219.97 2.4459 72.867-95.581 41.843c31.282-55.038 62.27-89.268 93.135-114.71zm-658.29 17.8 39.451 49.528-47.143-0.2396zm487.72-4.4973c2.5931-0.0458 4.7238 2.011 4.7695 4.6041 0.046 2.5931-2.0109 4.7237-4.604 4.7695s-4.7238-2.011-4.7695-4.6041c-0.046-2.5931 2.011-4.7237 4.604-4.7695zm28.472 11.38c17.643-0.0688 23.545 0.78197 18.571 9.5408-6.6952 8.5817-10.595 16.692-17.924 24.649-4.2308 4.4619-9.7783-4.4879-14.536-18.879-3.8419-11.622-2.0525-14.598 4.8519-14.817 6.9044-0.21896 8.0749-0.48873 9.0364-0.49263zm-20.093 16.17c1.5236 4.5911 5.0321 12.123 7.796 16.709 2.764 4.5861 5.8616 9.6823 5.6912 10.582-0.4138 2.1819-2.4693 2.3858-7.1447 0.72-10.131-4.3537-33.67 0.853-34.333-1.3706-3.5973-4.9373 1.4249-18.664 11.178-28.282 4.7638-4.6981 9.1472-7.7764 11.711-7.8668 2.5636-0.0904 3.0913 3.4509 5.1019 9.5082zm-824.03 10.952 170.64 213.69-11.296 14.254-172.59-217.84s-26.408 13.518-34.165 18.01l3.0343 112.03-4.5656-0.1382 10.698 567.51 91.447-94.46-8.0072-385.06c20.079 18.232 37.33 37.752 60.257 55.565l38.707-0.9875c99.246-104.57 153.04-193.52 162.41-351.25 6.2671-105.53-31.087-237.43-126.22-364.22l-22.434 14.171 45.997 66.73-94.168 43.736c-36.393 80.359-79.908 154.7-161.13 198.26l1.3615 103.15-1.3945 2.1577 1.6545 32.367zm815.74-6.9955c-4.4237 0.41032-11.184 10.087-7.9541 13.299 3.771 1.7076 9.5352 1.4811 11.891-1.762 1.5949-3.1636 1.0579-9.7914-3.9369-11.537zm-497.24 31.094 48.997-0.5834-12.069 42.251-47.727-0.061zm465.38-8.3993c2.5931-0.046 4.7237 2.0109 4.7695 4.604 0.046 2.5931-2.011 4.7238-4.6041 4.7695-2.5931 0.046-4.7237-2.0109-4.7695-4.604-0.046-2.5931 2.011-4.7238 4.6041-4.7695zm-249.57 5.6847 7.2956 54.465c-53.093 20.372-110.13 54.35-159.45 115.84-8.6202-0.4137-77.312 1.958-77.312 1.958 1.7232 0.2153 61.609-117.77 67.847-168.63zm-193.94 8.5083-22.193 15.832 17.89 18.406 22.968-16.158zm467.56-8.0236c4.7763-0.1075 11.191 0.3622 16.339 1.1795 8.3094 1.4587 9.5311 1.5938 6.8609 8.4779-3.5659 9.1335-11.677 25.631-13.776 26.971-7.5076 4.8361-24.963-28.594-19.316-34.527 1.5004-1.2222 4.7121-1.9849 9.892-2.1017zm-21.298 10.751c2.1669-0.2276 5.1354 3.9397 6.0557 7.5621 1.1174 4.3977 8.9616 15.394 13.875 20.646 6.1785 6.6029 5.8776 7.5475-2.7897 8.3942-10.322 1.0069-20.384 3.2185-26.166 5.4357-8.9641 3.4371-10.204 2.7352-9.2334-7.8338 1.4601-15.906 11.757-33.525 18.258-34.204zm-7.3406 32.98c1.1819 3.0537 15.077-2.8382 15.79-6.5413-0.1623-1.6524-5.8206-11.13-9.1332-11.507-5.5832 0.9739-7.7051 13.715-6.6564 18.049zm-472.78 6.1867 46.313-0.3797-14.512 38.418-45.776 0.6828zm20.819 4.7477-21.936 14.42 17.574 16.411 20.988-15.029zm471-1.394c3.9309-0.1064 8.0988 0.1974 8.9987 1.6227 2.5297 4.0067-7.0896 26.822-7.0896 26.822l-16.207 6.7588c-3.6369-7.161-9.77-14.561-11.363-22.361-0.6389-3.4095 1.068-4.6887 4.8091-6.8758 5.5758-3.2597 14.3-5.7879 20.852-5.967zm-43.686 2.6213c2.5931-0.046 4.7237 2.0109 4.7695 4.604 0.046 2.5931-2.011 4.7237-4.604 4.7695-2.5931 0.046-4.7238-2.011-4.7695-4.6041-0.046-2.5931 2.0109-4.7237 4.604-4.7694zm-211.15 4.378s11.004 56.356 11.436 50.118c-76.713 30.445-121.12 74.16-141.79 116.41l-144.89 2.4515 31.453-50.75 85.765-1.9467c40.571-51.04 91.01-92.068 158.02-116.28zm-18.314 13.636-6.752 22.966 21.896 13.428 7.7221-24.671zm237.34-3.7466c1.8334-0.2034 3.7039 2.858 7.542 9.3997 2.8366 4.8349 6.5827 11.868 6.5827 11.868l-6.4373 2.525c-5.5388-17.763-10.215-11.039-10.497 4.7296l-8.8159 3.6941s0.6965-15.208 5.6104-24.172c2.8249-5.1518 4.3975-7.8665 6.0153-8.045zm-471.99 23.953 44.909-0.23-18.092 39.232-45.671-0.4442zm195.9-0.3316-3.0524 28.933 24.274 4.6974 2.8279-27.492zm-176.75 3.4629-21.931 14.733 14.898 18.896 21.087-14.718zm142.52 22.77-4.1238 26.671 22.775 4.7552 4.6835-26.837zm-492.96 10.262 57.764 55.269 10.055 392.54-55.456 57.614zm309.13 8.9218c-0.1974 0.3178 45.311 0.5024 45.311 0.5024l-17.627 33.181-15.563-0.4228 20.219-14.328-13.419-16.547-20.786 14.088 12.016 16.759-30.726-0.1139zm293.03 4.5528 16.315 50.667-18.476 3.5459-14.771-47.681c5.6286-3.0403 11.284-4.592 16.932-6.5317zm-145.59 5.7537 0.8517 30.552 24.783 1.6568 0.463-28.669zm123.1 2.7069 14.956 48.147-11.703 3.5563-17.661-45.644c4.5622-2.8086 9.3456-4.8917 14.408-6.0594zm-21.295 10.367 18.959 47.065c-24.858 10.593-50.436 32.78-69.596 54.813-14.675-10.389-23.219-11.355-32.198-13.604 23.837-46.353 52.52-70.974 82.835-88.274zm-273.33 16.707 47.643 0.597-32.247 50.046-53.868 0.8876zm141.78-0.6581-2.5826 28.988 25.762 14.61 3.35-29.782zm-30.642 4.604-17.784 19.473 19.635 21.626 17.249-23.246zm-40.508 1.715-21.179 20.127 17.517 22.038 19.288-22.812zm-273.96 23.261 8.8774 383.5-77.746 78.053-0.9549-20.62 61.724-66.773c-2.2186-129.73-4.9194-259.46-7.6439-389.18zm210.23-16.104-21.315 30.162 25.903-0.3941 18.269-29.171zm-131.42 187.97c-8.0659 31.141-47.177 65.453-47.897 64.898 20.155 27.825 20.201 68.006 3.2149 88.102 0.073-0.4455 32.055 25.16 36.719 38.671 2.5904 5.3667 3.7075 11.939 6.9618 17.255 0.861 1.4066 3.589 4.8948 3.589 4.8948 75.615-79.432 37.336-170.28-2.5879-213.82zm1.2973 8.0798c76.394 91.429 28.607 177.19 2.9423 201.33l-5.1266-8.1398c54.412-65.54 29.469-144.44-3.5615-181.41zm-7.7722 18.195c0.5254 1.4971 3.5126 5.8144 1.3485 5.5708l-3.7627-0.6837zm-0.3799 10.352c1.6242-0.029 2.9908 0.4533 3.7469 1.5591 1.5674 2.5055-5.7818 23.967-10.643 19.081-1.489-2.7897-3.2261-5.2022-4.6023-8.0955-1.6175-3.452-0.6245-5.1495 2.8778-8.673 2.4144-2.429 5.9135-3.8206 8.6206-3.8715zm10.85 5.5906c3.7853 0.2268 9.3702 12.025 10.02 20.514 0.2487 0.8773-12.797-1.7733-16.322-5.6817 0.3564-3.4892 3.4596-12.399 6.3018-14.832zm-29.071 10.223c23.307 44.859 22.522 80.231 3.2769 113.08l-15.759-13.006c10.004-24.897 14.705-51.371-3.466-84.646zm15.382 11.054c1.556-0.1634 6.3764 0.4642 10.658 1.7497 15.149 4.5486 15.886 14.395 1.5113 21.883-5.9542 3.1012-7.8502 1.8086-11.578-13.204-1.8438-7.4242-3.1838-10.156-0.5905-10.429zm29.395 16.828c2.9037-0.066 4.3361 5.399 4.8566 14.854 0.4943 8.9802-1.4027 9.7196-8.7532 3.4362-7.9459-6.7923-9.3216-8.4146-2.2517-14.244 2.0703-1.7067 4.8285-4.0172 6.1483-4.0467zm-20.266 15.204c1.4282-0.1496 5.6353 2.4291 9.7539 5.4538 10.438 7.6651 8.2483 13.09-3.3863 17.094-8.0604 2.7728-7.653 3.0975-7.694-10.928-0.02-6.9356-0.5099-11.427 1.3264-11.619zm136.58 10.36c-12.516 3.4118-17.597 14.719-13.248 24.741 1.976 4.5528 4.8591 4.5399 1.5288 7.4053-3.6977 4.422-5.5249 14.541-1.3077 18.139 4.9488 2.7211 6.1227-2.1417 1.1297 7.428l-91.632 175.62 568.43-11.086-70.578-126.75c0.1538-0.1861 5.0909-21.208-5.8833-23.538-3.5256-0.7484-5.5916-3.9734-6.3591-7.0837 0.7336-8.9181-3.3759-12.634-6.8612-17.172-53.903 8.5854-100.91 5.612-139.84-2.4255-56.075-11.578-96.378-32.623-122.46-38.997-35.962-8.7904-79.236-12.122-112.93-6.2802zm30.641 0.6597c44.04-1.0407 93.582 11.57 128.35 25.895 36.061 14.155 74.183 24.506 112.6 29.486 31.696 3.4203 63.204 0.8646 93.407-2.0692 3.2973-0.554 6.7315-0.1619 9.2404 2.4143 6.3902 6.8549 2.1989 11.293-13.46 13.021-25.146 2.5233-56.39 2.1847-84.164-1.4838-43.952-4.2662-90.685-16.707-131.1-32.629-50.47-17.928-96.629-23.413-132.92-17.22-19.929 3.4009-22.857 3.9304-22.873-1.4404-0.031-10.475 8.5499-15.411 40.912-15.974zm-143.79 32.912c-1.8551 4.47-15.811-9.8094-15.745-13.909 0.2581-1.8109 11.22-9.243 15.568-12.262 2.0991-1.6708 1.9755-0.8191 2.037 1.0981 0.1737 5.4714-0.013 19.614-1.8608 25.072zm-21.278-10.34c6.336 0.7386 17.031 17.621 7.9242 20.426-8.0629 2.4836-15.408 4.1196-16.492-1.2996 3.9379-13.423 5.413-18.734 7.818-19.082 0.2446-0.037 0.5055-0.044 0.7494-0.044zm368.62 51.792c40.473 6.2655 93.507 9.5078 128.08 6.1914 19.81-2.3465 24.001-1.7806 24.025 6.495 0.015 5.1845 0.5798 5.0472-25.032 5.4738-21.259 1.7948-40.463-0.1501-61.087-0.8509-42.672-1.3654-81.534-7.9861-117.55-19.782-39.895-9.5995-74.652-28.788-113.59-32.188-35.703-2.8657-67.649 4.0097-74.307 7.8623-2.244 0.01-3.4757-3.296-3.3973-6.366 0.077-3.0026 1.1533-5.4289 3.6234-7.3874 101.7-27.572 157.37 26.657 239.24 40.552zm-354.85-27.875c3.4049-0.022 2.4114 5.0331-2.9716 15.805-4.5764 9.1569-6.4423 9.1432-9.2847-0.1174-3.0363-9.8924-2.7804-10.997 2.8728-12.553 3.329-0.8618 6.1247-2.659 9.3835-3.1348zm-23.751 5.4826c3.992-0.011 9.9757 17.958 7.1289 21.409-2.2498 2.727-10.59 1.0507-13.068-2.0804-3.9862-5.0371 0.747-19.312 5.9392-19.328zm178.67 1.7313c15.843-0.4397 31.666 0.9765 46.228 3.2166-8.3048 3.2368-16.574 6.2354-25.166 11.404-6.0851-5.0464-12.985-9.9422-21.062-14.62zm20.978 21.567c55.448-32.211 79.852 10.478 88.067 17.285 48.767-11.699 58.447-6.5306 86.281 22.495 48.6-24.834 72.726-4.877 93.415 7.6515 23.611-22.857 54.037-24.012 70.099-13.033 3.0575 4.9106 7.2902 11.136 7.6609 13.009 0.2889 1.4592-1.9831-0.2056-7.571-4.0566-29.154-20.092-76.479 6.4049-63.234 33.34 3.5664 7.2564 3.0749 10.418-2.0131 13.444-7.2151 5.0692-16.33-2.9695-11.391-11.426 8.2464-14.119 1.6468-25.699-19.203-36.136-29.386-14.709-76.652 3.1838-66.467 25.458 6.3906 7.0582 0.6702 12.216-7.6001 12.105-9.3645-0.1261-12.648-6.3325-6.764-13.133 7.3376-8.6809 5.2177-17.311-3.679-27.03-26.801-36.78-79.441-21.08-71.86 11.429 3.2148 8.0548-5.4687 11.479-14.609 8.0341-5.8164-2.1907-5.1102-11.135 1.1524-14.398 7.2596-0.8641 8.1054-11.414 7.1181-18.16-1.4363-9.8137-16.118-19.254-30.558-24.141-10.452-3.5376-20.114-4.1656-27.717-3.3347-16.05 1.7538-24.831 12.828-21.896 29.141 1.732 9.6241-0.7914 19.676-12.214 14.57-6.2504-2.7943-4.8171-9.8357 1.3982-16.411 21.874-22.129-23.41-47.788-50.146-29.088-4.5196 3.8515-7.8555 4.5668-7.8555 4.5668 16.223-42.539 70.049-3.9184 69.586-2.1816zm73.651-6.9908 34.038 12.137c-7.7708 1.6771-13.224 3.9724-18.709 6.259zm-88.07 15.293c-31.311-5.3619-32.393 29.537-11.957 34.867-27.297 38.93 46.227 52.556 31.95 5.3652 37.241 6.0322 29.78-36.092 2.1817-35.218 6.1792-15.852 57.348-4.8249 55.358 6.9068-34.387 4.2617-20.066 35.404-5.1603 35.176-35.424 34.741 37.221 64.91 34.399 13.532 29.03 5.5693 31.755-32.883 3.909-34.918 9.9301-14.504 46.452-6.1148 56.826 10.09-28.634 4.3133-26.395 29.49-3.8631 33.165-27.826 36.746 42.468 48.906 34.443 6.8999 25.256 8.1876 38.443-25.547 5.7495-34.548 32.966-20.434 69.664 8.5109 65.756 9.1829-38.059-1.5776-29.818 36.385-2.3412 33.832-16.806 39.869 52.598 40.846 34.282 0.1289 31.208 0.022 27.834-36.082-2.0987-37.969 18.58-14.054 39.782-15.632 53.662-3.0345-28.315 7.9852-15.912 40.84 12.543 31.182 3.1357 27.62 25.528 21.354 26.015 20.51l20.79 37.199-545.4 10.5 45.035-86.736c27.541 0.925 26.09-25.543 24.872-26.172 18.527 12.74 37.632-20.077 10.697-28.911 21.464-23.269 54.267-2.706 52.356-1.0278zm-177.6 0.7383c-1.1185 1.1856-1.4007 1.8877-3.3098 0.1835-4.8507-5.3569 8.074-6.041 3.3098-0.1835zm113.04 12.4c2.4375 1.9248 0.8803 7.3394-1.0379 9.2153-4.8228 5.3509-6.4891 4.9614-2.3224-4.2035 1.2267-2.7733 2.3975-5.025 3.3603-5.0118zm239-1.7807 28.479 6.3555-13.332 7.8312c-5.068-5.3144-9.9402-9.8964-15.147-14.187zm88.832 9.8549 30.874 1.4242c-4.0264 2.8447-7.9788 5.4945-12.877 10.635-3.9549-4.0558-11.383-8.0504-17.997-12.059zm103.3 29.637c1.7781 3.5459 8.8056 15.866 8.1701 16.203-9.9438 1.9135-12.877-12.882-8.1701-16.203z" fill="#100f08"/>
   </g>
  </g>
 </g>
</svg>
