<svg xmlns:rdf="http://www.w3.org/1999/02/22-rdf-syntax-ns#" xmlns="http://www.w3.org/2000/svg" version="1.1" xmlns:cc="http://creativecommons.org/ns#" xmlns:dc="http://purl.org/dc/elements/1.1/" viewBox="0 0 744.09 1052.4">
 <g transform="translate(-5997.5 3117.1)">
  <rect rx="10.63" ry="10.63" height="311.81" width="223.23" stroke="#000" y="-2746.8" x="6257.9" stroke-width=".99673" fill="#fff"/>
  <g fill="#d40000" transform="matrix(.30106 0 0 .30106 5679.9 -1949.8)">
   <path d="m2217.3-2458.2c32.952-32.158 54.594-67.22 75.29-100.94 18.15 37.102 44.197 69.561 72.364 100.94-30.137 31.118-53.494 64.393-72.274 99.374-20.818-35.859-42.736-68.33-75.381-99.374z"/>
   <path d="m2217.3-1797.8c32.952-32.158 54.594-67.22 75.29-100.94 18.15 37.102 44.197 69.561 72.364 100.94-30.137 31.118-53.494 64.393-72.274 99.374-20.818-35.859-42.736-68.33-75.381-99.374z"/>
   <path d="m2572.8-1819.9c13.499-13.173 22.364-27.536 30.842-41.349 7.435 15.199 18.105 28.495 29.644 41.349-12.346 12.747-21.914 26.378-29.607 40.708-8.5281-14.689-17.506-27.991-30.879-40.708z"/>
   <path d="m1949.3-2438.6c13.499-13.173 22.364-27.536 30.842-41.349 7.435 15.199 18.105 28.495 29.644 41.349-12.346 12.747-21.914 26.378-29.607 40.708-8.5281-14.689-17.506-27.991-30.879-40.708z"/>
   <path d="m1947.7-2492.4 0.5475-6.7053c1.6921-20.723 6.2259-27.723 31.96-49.343 12.488-10.492 16.588-15.669 17.165-21.677 1.6305-14.15-11.131-18.57-19.448-18.647-10.769-0.099-22.951 6.3494-17.143 21.304l-12.079 3.547c-2.4391-13.951 0.056-27.044 11.378-32.858 15.101-7.5722 34.478-4.6012 44.255 7.33 6.5707 8.0186 8.0644 19.086 4.5432 27.754-10.299 22.16-45.244 31.908-48.132 57.528h38.634v-14.266h11.379v26.264z"/>
   <path d="m2634-1766.5-0.5475 6.7053c-1.6921 20.723-6.2259 27.723-31.96 49.343-12.488 10.492-16.588 15.669-17.165 21.677-1.6305 14.15 11.131 18.57 19.448 18.647 10.769 0.099 22.951-6.3494 17.143-21.304l12.079-3.547c2.4391 13.951-0.056 27.044-11.378 32.858-15.101 7.5722-34.478 4.6012-44.255-7.33-6.5707-8.0186-8.0644-19.086-4.5432-27.754 10.299-22.16 45.244-31.908 48.132-57.528h-38.634v14.266h-11.379v-26.264z"/>
  </g>
 </g>
</svg>
