<svg xmlns:rdf="http://www.w3.org/1999/02/22-rdf-syntax-ns#" xmlns="http://www.w3.org/2000/svg" version="1.1" xmlns:cc="http://creativecommons.org/ns#" xmlns:dc="http://purl.org/dc/elements/1.1/" viewBox="0 0 744.09 1052.4">
 <title>Vectorized Playing Cards 1.0</title>
 <g transform="translate(-289.24 486.83)">
  <g transform="translate(-6377.9 2318.4)">
   <rect rx="10.63" ry="10.63" height="311.81" width="223.23" stroke="#000" y="-2435" x="6927.6" stroke-width=".99673" fill="#fff"/>
  </g>
  <g transform="matrix(.15467 0 0 .15467 1008.5 -41.179)">
   <path d="m-2766.1 1374.7-3.2957-1700.4 1054.7 1.9876 1.322 1697.8zm378.1-1416.9c-37.721-10.282-36.806 27.182-9.1851 28.578 30.948 2.664 44.192-50.077 29.422-70.867 0 0-12.863 39.733-20.237 42.289zm-244.76 211.82-45.303 20.209-0.18 33.816c18.893-15.022 33.656-33.349 45.483-54.025zm309.2 1016.1c-8.9146-4.5002-19.662-14.165-18.013-15.862 0.8192-0.8433 5.6489 0.6832 10.03 2.6543 35.4 14.914 62.88 13.951 105.09-1.3667 3.1949-1.1593 7.966 4.928 6.1868 8.2758-18.693 27.649-79.185 17.82-103.3 6.2987zm-18.663-41.492c-8.1291-12.212 2.6534-2.9561 6.2714 0.506 26.191 24.356 61.678 32.609 92.143 9.6576 1.4153-1.5718 1.6056-3.0325 1.1848-4.1292-0.8623-2.2472-0.8795 0.15-13.903 4.6685-29.238 10.945-53.882 1.954-77.911-16.436-9.8959-7.6323-14.496-11.383-14.496-13.383 0-1.8298 1.8495-2.9709 5.1786-2.3979 2.0625 0.3549 7.8199 1.5522 12.03 1.8967 7.3148 0.5986 6.7542 0.2869 14.25-3.1732 16.022-7.3957 30.78-10.096 47.521-7.0954 3.8782 0.695 8.7514 1.9767 9.4107 1.7569 3.752-1.2506-1.7806-6.1907-15.968-17.442-2.7929-2.2147-6.2674-4.1088-7.4195-6.0311-1.7874-2.9824 0.1598-3.7727 2.1844-3.7485 5.8325 0.07 32.05 21.983 41.034 34.988 2.7333 3.9567 4.6219 4.3764 4.63 8.4929-0.5224 4.2709-1.2076 8.3617 3.4167 14.345 3.3177 4.2925 6.5239 11.194 6.5535 11.524 0.034 0.377-0.6577 2.5368-3.6964 0.5357-1.3835-0.2565-2.0561-1.7388-4.5888-1.3722-2.2061 0.3193-5.7928 2.0536-9.7324 3.9152-36.729 23.622-70.552 12.095-98.092-17.078zm80.46-1.6534c0.7389 0.074-2.5337-13.503-6.233-17.508-7.2914-7.8948-18.415-9.333-25.136-1.2525-3.7823 4.5474-7.9364 17.219-7.9364 17.219s5.8895 1.7348 7.5341 1.7348c0.2335-2.8417 0.2505-10.778 6.099-15.434 2.8787-2.2644 9.0763-2.1957 11.49-0.3144 4.7935 2.3508 6.8183 11.872 6.8819 15.576 2.6205 0.8148 8.6566 0.077 7.2998-0.02zm-44.406-19.562c-5.1783 2.3102-11.909 3.8661-13.453 7.3319-2.0378 4.5729 5.1536 5.9546 8.8967 7.4935 5.1738 2.4955 5.29 1.5817 6.9636-2.4056 1.0461-2.491 2.4251-5.7379 3.7418-8.7256 3.871-7.4784 0.01-6.4413-6.1492-3.6942zm56.039 12.997c2.9806-2.9806 3.5422-4.9494 0.8813-8.332-1.2042-1.531-4.6373-3.0929-8.374-4.3492-4.7982-1.6132-6.8921-3.5743-3.8813 2.925l4.3018 9.286c2.2106 4.4482 4.1484 3.2648 7.0722 0.4702zm-490.05-317.14c1.8199 0 19.895-5.9274 26.329-8.7861 6.3792-2.4371 7.1402-2.3689 4.6033-5.8976-0.95-1.3215-1.7185-5.0518-1.2571-9.1361l0.4814-5.698c-11.141-2.2691-27.774 3.899-33.5 11.695-4.0682 4.979-3.6531 16.059 3.3435 17.823zm-2.2717 27.8c3.3853 3.3853 4.3224 3.5066 14.48-0.26513 3.5571-2.3798 10.999-5.3542 16.217-5.6958 12.239-3.2547 12.244-1.9686 8.7767-9.8066-1.5955-3.6067-2.1182-6.5908-1.6183-9.9246 0.5921-3.948 1.0633-4.4909-1.1659-5.1881-5.8522-1.8305-33.086 8.3526-37.965 16.276-3.433 5.574-2.9753 10.353 1.2757 14.604zm639.53 240.57c-1.7792 2.6554-4.863 7.3735-6.1585 10.562-2.2354 5.5015-0.8789 6.5543 0.014 17.35 0.5175 6.2564 0.6513 15.972 0.6683 21.197 0.033 10.001-0.1095 13.104 2.9472 13.692 2.6946 0.5189 3.9295-1.5069 5.2218-6.719 0.6452-2.6021 2.1914-5.3234 2.6644-6.9734 1.9205-11.25 5.4749-30.029 13.581-37.924 1.1268-0.9321 4.4249-1.514 10.408-1.5893 7.3258-0.092 9.6675-0.2999 11.938-1.9953 12.821-11.218 2.7146-25.714-8.7249-26.731-13.245-1.1521-31.501 17.141-32.559 19.131zm50.891-4.7001c0.8136 12.902-12.048 21.694-25.119 18.705-5.2967-1.3337-6.8886-0.1215-10.44 7.4403-7.7087 20.746-10.76 41.551-12.804 55.163-0.8839 12.245-5.379 44.119-2.1219 54.275 37.259 46.048 76.486 93.586 119.44 140.98l255.46 0.3503 1.5417-300.74-74.197-70.172 0.145-111.24c-79.42 37.422-158.6 75.36-237.87 113.11 17.275 55.402-41.296 67.018-54.139 29.886-11.115 10.194-20.231 65.196-16.132 67.914 0 0 1.4727 1.9852 3.9354-2.3914 4.0526-7.2021 9.3504-12.509 15.018-16.018 16.513-10.224 36.165-5.1804 37.295 12.734zm-203.32-5.6134c-12.536-9.9614-5.8238-25.16 4.5937-29.716 5.5182-2.4137 14.375-2.0867 24.127 1.3551 8.5642 3.9332 13.68 3.3802 22.454 2.2985 5.8244-0.6465 4.7444 11.547-1.3389 14.693-4.2872 2.2169-14.116 1.1675-26.07-5.639-20.625-11.743-29.684 3.4756-16.91 17.22 7.0817 7.5746-5.0436 1.5071-6.855-0.2104zm-424.62-182.15c11.024-7.0937 6.4483-19.61-3.8244-21.704-13.832 0.29252-17.347 16.171-7.4519 21.656 0 1.9283-4.921 0.35413-7.579-1.6349-4.1248-3.0866-0.3608-15.16-4.1974-15.642-2.9264 0.05-31.49 10.154-34.569 12.171-12.833 7.2819-0.7893 23.722 6.6595 21.842 15.468-3.9048 36.496-7.3794 50.962-16.689zm-63.84-23.489c0.2656 7.3211 2.3119 10.577 7.1202 10.642 10.053-1.7434 19.406-6.5351 28.787-9.5758 7.3309-2.3974 10.303-5.1016 4.72-9.6825-1.6933-1.9368-3.1931-4.7145-2.3763-9.9968 1.9212-6.0397 0.4502-6.3432-2.1116-6.6361-2.5513-0.2954-8.384 2.151-23.348 7.8966-7.8718 3.0225-9.3885 4.3312-11.428 8.6628-0.9146 3.3178-1.4834 5.352-1.3623 8.6894zm83.281 94.492c1.7311-2.0337 5.5679-14.793 5.5679-17.947-0.7783-5.2543-4.685-6.4438-8.143-3.051-4.2065 3.7635-3.075 9.4487-5.5705 13.807-0.8686 1.5168-1.7878 3.6162-1.5362 4.4677 1.3548 4.585 6.9993 5.4287 9.6818 2.7239zm32.762-69.471c128.02-136.34 207.32-325 68.59-585.2-15.56-6.6228-20.361 18.668-21.85 19.702l-17.726 15.444c93.911 161.94 77.601 348.22-37.222 480.68l0.123 8.4046c0.2709 18.498 5.5982 17.698 13.38 9.0432 8.2425-8.6948 2.727-1.6137-0.6386 1.9664-2.9025 3.0747-7.5221 9.1983-8.7523 10.795 1.508 11.096 8.4958 31.783 4.0972 39.168zm-8.494-40.966c-1.3168-3.6801-2.7152-12.094-3.4345-18.57-0.44-4.2166-0.6178-8.1977-0.8374-12.319-1.3582-8.1945-4.7016-26.999-7.4176-31.144-2.9275-4.4678-10.084-7.7337-18.07-8.2462-6.8229-0.4378-7.389-0.3158-8.8438 1.907-2.4975 3.816-0.7857 23.07 1.7522 30.127 2.8564 8.28 1.1782 12.779-1.1412 20.986-0.8063 2.9698-1.0998 3.1753 0.3637 3.3842 6.3886-0.44749 8.5133-8.2825 11.04-5.9476 0.85 0.85462-1.363 7.2822-4.3456 13.778-3.1467 6.8536-4.0814 16.297-0.3422 27.912 2.0934 6.5031 1.2045 8.5587-0.063 12.483-0.8467 2.621-2.3243 10.656-2.3721 18.651 2.983 10.023 1.4818 14.509-0.2689 17.821-3.8104 8.5051-6.7523 20.03-4.7037 26.502 0.8985 2.8387 3.2489 0.40883 4.9717-4.4551 2.6864-9.6049 5.8219-11.743 13.71-11.745 5.7454 0 6.2871 2.0138 8.1878-0.55705 4.313-5.8337 14.848-26.503 15.049-32.263 4.0726-14.693 4.2742-27.319-3.2351-48.306zm61.22 96.511c3.4797-1.3229 8.829-8.6802 8.835-11.215 0.01-2.7942-21.462-23.669-30.402-29.43-4.0487-2.6088-5.9732-0.7572-13.132 8.8782-6.3606 8.5613-7.1951 8.6357-6.014 10.284 1.4206 1.9827 23.294 16.205 30.558 20.242 2.5105 1.3952 6.7662 2.5297 10.155 1.2412zm40.229-37.153c-3.2031-2.458-28.892-30.939-36.518-32.353-2.8975-0.53718-12.19 10.044-12.19 12.444 0 1.6494 16.04 17.978 27.406 27.899 3.2481 2.8352 6.834 5.1549 7.9686 5.1549 3.6145-1.8543 12.876-9.3304 13.333-13.145zm27.293-26.867c0-1.6878-2.8324-5.1608-9.75-11.955-17.617-17.302-27.43-25.222-30.522-25.195-3.3718 1.1194-9.4734 11.385-9.8372 14.958 1.1471 2.1436 30.619 28.87 34.435 31.463 4.709 4.546 15.018-6.0516 15.674-9.2707zm27.639-27.597c0.7554-2.5416-0.7191-4.7114-4.4502-8.2845-2.646-2.5339-12.043-11.733-20.882-20.442-18.533-18.261-18.573-18.276-24.525-9.7442-6.1277 8.7837-6.0957 8.8544 11.968 26.477 19.262 18.791 23.774 22.602 26.758 22.602 4.5715-2.1083 9.5487-5.6248 11.131-10.608zm-206.55-16.483c-3.2271-0.96684-6.1952-0.39803-8.7284 1.6267-13.655 11.61 5.712 26.55 13.677 17.232 5.3029-5.2332 5.0878-16.476-4.9482-18.858zm234.91-12.152c0-1.9448-3.978-6.3039-17.75-19.451-34.072-32.526-32.54-31.291-36.317-29.27-2.3586 1.2623-6.9329 10.007-6.9329 13.254 0 2.435 3.2733 5.8075 28.527 29.391 14.806 13.827 19.19 17.319 21.742 17.319 4.0381-1.998 10.558-6.3238 10.731-11.243zm-234.04 1.2239c6.692-2.9122 7.9381-10.154 4.1438-15.875-7.2763-6.4137-17.396-1.1154-17.563 7.1534 1.2574 7.7457 7.8315 11.018 13.419 8.7214zm262.04-28.538c0-3.8842-58.344-58.443-62.497-58.443-2.818 0-4.8385 2.2837-7.4865 8.4618-2.2973 5.3597-2.0654 8.5308 0.8273 11.314 4.2162 4.0561 15.462 14.419 26.156 24.102 6.325 5.7269 13.596 12.565 16.158 15.195 5.9989 6.1587 12.604 10.928 15.135 10.928 3.6144-2.1109 8.6363-4.9646 11.707-11.557zm-265.1-7.0349c0.056-2.1909-0.5067-4.4272-2.0722-6.0935-4.0052-4.2632-11.454-2.0207-13.318 3.6287-1.7039 13.285 14.848 13.87 15.391 2.4648zm43.21-424.65 11.411-34.889 34.866-0.89803 4.8875-34.681 35.881-5.1654 0.5762-35.832 34.327-4.688-2.1213-38.372 31.831-7.5368-1.5804-35.527 28.925-8.8704-1.1592-30.923 4.9729-3.8964-12.512-12.721-10.773 3.4995-0.1959 31.783-28.887 9.2967 3.043 35.164-29.198 6.6594-0.3658 38.236-33.548 3.7651-2.397 33.737-32.722 6.4435-4.8792 33.046-31.757 2.1589-9.6918 29.047-20.981 0.24298v19.442zm379.34 624.2c-1.0957-2.6181 1.7655-2.2274 6.7515 0.9219 5.2154 3.2943 12.811 6.0398 18.21 6.0506 2.2501 0 10.294-1.4305 17.876-3.1888 9.0562-3.3231 17.089-3.5209 26.5-1.4855 6.9932 0.94133 14.035 1.7013 15.649 1.6888 4.6732 0.6521 12.597-5.1181 14.718-8.7458 5.7539-9.8398 4.3847 8.0368 4.4081 10.078 0.1052 9.158 1.2486 19.682-5.311 14.786-3.8802-2.0065-10.654-3.7884-16.064-0.1764-5.4464 3.636-9.9503 4.4104-16.332 0.5723-5.2377-2.0645-8.0023-2.5008-11.92 1.1396-4.3664 4.0573-14.956 2.61-20.63 0.7481-9.7523-1.6212-15.211-3.0361-21.747 2.1322-3.4857 1.9998-4.3837 0.5128-7.0081-7.2157s-4.6988-16.343-5.1016-17.305zm24.823-6.459c-0.6176-0.9993 4.6136-6.1249 8.1481-7.9531 10.374-5.366 30.986-5.1272 45.725 0.31757 7.6828 2.8382 8.8669 7.6935 1.3928 6.6714-15.552-3.2616-35.064-5.9442-50.092 1.2099-1.1789 0.631-4.882 0.22568-5.1734-0.24582zm13.158-24.295c-10.638-3.9454-15.857-8.1465-15.857-9.4861 0-1.4406 2.2815-1.1751 10.643 1.1067 11.392 4.2273 24.859 6.4519 36.096 2.5176 8.084-2.9876 12.118-4.8786 12.118-3.0814 0 1.9028-3.3392 6.8524-8.8929 9.6998-11.056 4.5067-25.64 2.3671-34.107-0.75665zm230.86-29.541 7.8925-1.0826-2.742-32.938 29.075-8.6288-2.0405-32.758 30.987-10.664-1.8478-36.871 32.199-6.3434 4.1969-32.266 30.4-2.1638 6.2989-35.106 32.654-1.1242 6.7264-29.179 21.729-0.1363-0.096-16.387-33.846 0.10497-7.1674 31.583-31.941 0.91937-6.7783 34.693-33.491-0.24628-4.2865 37.39-31.496 5.1642 0.024 40.263-30.382 7.8807 2.3516 34.428-30.346 11.073 3.4294 32.857zm202.99-772.87c-4.3436 3.0929-5.9863 9.2222-4.6422 14.214 4.2771 11.297 19.333 7.7739 21.113-0.4456 0.8941-3.5624-1.4715-8.9413-5.5835-10.11-0.7204-0.20482-3.2739 0.0335-4.6062-1.3373-0.9616-0.98937 5.0277-4.0604 8.5577-2.8954 4.407 1.4544 8.0107 7.2815 8.016 12.326 0 1.9574-0.551 4.8594 0.1599 5.8317 7.2838-0.18073 15.624-4.1858 23.432-6.3498 13.191-3.6559 17.964-11.223 15.039-20.086-2.4382-7.3877-9.9973-10.316-19.929-6.5788-13.636 5.1303-29.637 7.5825-41.557 15.432zm-563.32 808.64c44.682-31.391 70.993-49.332 128.34-52.427-20.459-8.4157-23.799-19.47-29.548-30.05-71.044 6.7158-108.77 29.4-142.52 50.579 13.945 6.5672 28.508 14.204 43.726 31.898zm249.06-43.538c-21.67-15.312-47.453-24.568-74.196-31.719l-20.502 21.239c-1.1939-0.75728 59.357 0.6118 94.698 10.48zm208.03-201.49c-139.74-214.73-45.87-403.68 51.298-524.08 3.1206-3.9508 3.8791-4.15 3.1753-7.2929-0.9278-4.1431-2.0721-25.01-1.3609-37.067-179.61 178.01-184.21 409.91-71.555 593.95 8.0526-7.1977 24.292-16.783 18.443-25.508zm20.956-18.371c-22.942-38.198-145.12-245.04 41.495-475.79 0 0-0.6374-11.767-2.0339-16.187-2.5024-7.9216-6.4012-11.117-6.4012-11.117-78.376 117.66-192.29 264.88-50.016 520.55zm-106.85-389.3c2.7923-2.2777 6.8498-10.553 6.8498-13.971 0-3.0468-2.1969-5.5935-23.25-26.952-28.064-28.472-32.906-32.827-36.499-32.827-3.3941 0-12.251 8.4006-12.251 11.62 0 1.5418 8.2578 10.438 27.75 29.896 36.169 36.105 34.461 34.632 37.4 32.235zm25.85-52.439c0-1.7151-2.6007-5.1173-8.75-11.447-16.222-16.697-39.361-37.864-41.392-37.864-2.5851 0-9.6664 5.7295-11.527 9.3262-1.3085 2.5298-1.2821 3.1066 0.2513 5.5 2.8657 4.4728 39.064 38.828 49.352 47.471 6.1783 5.6714 11.768-8.6739 12.065-12.987zm13.989-21.305c2.8665-1.5341 8.305-11.701 7.6488-14.298-0.3068-1.2141-9.4889-11.095-20.405-21.957-21.594-21.489-22.85-22.265-28.233-17.451-4.875 4.359-7.9271 8.7247-7.3255 10.479 0.7339 2.1399 33.06 35.003 39.665 40.324 5.223 4.2076 5.8324 4.4123 8.6492 2.9048zm164.78-1.5915c10.149-9.7439-1.3519-20.43-9.7086-15.498-3.5543 2.1967-5.6719 6.9913-4.583 10.176 1.8066 5.2845 8.9729 8.1686 14.292 5.3221zm20.097-2.4858c17.179-4.5097 25.406-7.5255 29.001-12.879 2.4889-3.706 2.774-5.9857-0.028-12.03-2.5856-5.5763-5.6021-7.2801-16.363-1.3837-7.3903 4.0494-23.846 5.988-29.602 9.3871-2.3006 1.9833-1.179 1.9612 0.6723 3.1364 4.142 2.6296 6.165 4.4221 5.714 7.9009-0.9819 7.5738-0.1988 8.736 10.606 5.868zm-18.184-26.93c8.3427-4.2665 6.656-14.564-2.6594-18.654-12.296-3.2383-20.215 11.561-10.15 18.772 2.6973 1.8892 9.538 1.5556 12.81-0.11769zm27.72-4.1714c12.056-4.1332 16.695-7.3693 20.176-14.037 2.7558-5.2788 1.5811-7.6375 1.2158-12.746-0.5536-7.7423-4.4451-6.8583-15.686-2.8073-5.485 2.1206-31.743 9.5111-32.11 12.201 12.674 7.2453 9.4377 11.065 9.5439 20.312 0.6617 2.1028 6.6095 0.59207 16.86-2.9223zm-164.4-12.329c0-3.4953-33.7-36.499-37.268-36.499-5.5652 0-13.538 8.6518-12.346 13.398 0.5405 2.1532 32.143 33.958 36.084 36.316 5.5212 3.2283 13.178-7.9503 13.53-13.216zm19.369-20.575c1.4514-1.1417 4.0286-4.0956 5.7271-6.5643 3.6319-5.2788 3.3726-8.221-0.9701-11.007-1.5879-1.0188-8.6538-7.4119-15.702-14.207-7.0482-6.795-13.723-12.69-14.832-13.101-5.8105-0.77235-16.31 8.5321-15.222 13.295 0.6256 2.4926 26.453 27.927 32.217 31.727 3.7249 2.4555 5.5157 2.4264 8.7818-0.14266zm45.631-49.161c0-0.93952-5.8633-4.7123-15.25-9.8128-28.697-15.593-29.19-15.702-38.158-8.3959-3.0754 2.5052-5.5917 5.3593-5.5917 6.3425 0 1.0018 6.2192 7.671 14.149 15.173 16.457 15.568 20.505 18.93 22.799 18.93 4.7421-3.4834 21.321-17.919 22.052-22.236zm40.17-14.658c3.5416-4.2404 7.521-18.946 5.6296-21.905-1.7391-1.7391-6.2112-1.4715-8.358 0.47134-2.2128 2.0025-7.6724 20.475-6.8324 22.664 0.8562 2.231 6.4871 1.1877 9.5608-1.2301zm-313.5 625.86c2.7161-0.36393 8.0338-3.681 15.77-10.326 8.2642-7.0991 34.452-22.898 37.296-29.251 1.2725-3.6124 0.3481-8.7944-2.385-9.188-2.0758-0.2989-2.5183 1.2876-19.929 13.839-11.744 8.4663-32.381 23.597-35.483 26.805-1.3462 3.4352 1.6966 7.759 4.7308 8.1207zm-2.4386 101.14c17.926-12.437 32.445-25.318 55.814-39.719 1.8058-2.3805 2.0809-5.9248 0.98-8.8203-1.3615-3.581-3.2446-2.1671-10.317 2.7456-17.222 11.605-34.94 25.272-49.777 35.406-4.7588 3.223-8.7672 5.0062-7.7623 6.8189 1.3335 2.4054 8.69 3.1336 11.062 3.5689zm17.43 7.631c11.788-9.6422 25.895-18.848 38.484-28.175 1.7614-1.7581 2.2186-7.6877 0.4105-10.119-1.4277-1.9195-0.2456-1.5652-3.7303 0.41255-5.0953 2.8917-35.586 23.679-41.268 28.379-3.3091 2.7373-6.0649 4.1056-5.245 5.0612 3.8103 2.4522 7.8549 3.9649 11.348 4.4407zm14.816 7.4697c2.4383-1.6315 23.394-15.028 25.079-16.809 1.9292-2.0384 1.3693-11.155-0.5058-11.875-5.2934 4.2114-33.243 21.235-33.294 23.978 2.8453 2.5578 6.6034 4.9107 8.7209 4.7056zm22.408 1.8663c3.2194-2.9488 3.8593-3.45 3.9276-6.7557 0.1238-5.987-1.3605-5.7318-9.8934 0.36651-5.9606 3.8549-9.5887 6.567-8.52 8.8778 4.2346 6.6267 10.245 1.3989 14.486-2.4887zm2.3103 12.229c1.6716-0.6184 1.6846-1.4802 1.4439-3.5724-0.2676-2.3266-0.609-2.2271-3.1403-2.2271-6.7854 0.25315-0.6659 6.4005 1.6964 5.7995zm-81.591-33.505c3.0785-10.168 7.3954-18.211 14.446-25.835 28.19-24.979 19.576-55.726 1.775-80.758 23.032-32.243 46.029-66.404 65.818-97.702l-0.07-50.884 2.6584 0.27998c-0.9191 111.04 4.15 293.12 4.15 293.12l22.899 17.465-3.0842 1.5261c3.7673-0.58863-66.667-44.686-108.59-57.215zm20.695-12.68c19.498-14.713 38.463-26.283 57.799-41.953 2.0557-1.6944 3.2705-1.7877 3.3286-5.6338 0.1109-7.3318-1.3505-7.406-8.5777-2.2344-3.2009 2.2904-14.926 10.488-26.056 18-11.613 7.8389-22.37 14.812-24.53 17.316-10.88 12.614-14.901 18.551-13.784 20.358 1.1658 1.8864 3.371-0.15494 11.821-5.8528zm21.266-35.659c10.016-6.5966 33.987-23.238 36.171-25.291 3.7964-3.5692 4.4613-9.2599 1.0325-9.9133-1.6727-0.3188-20.229 12.052-35.909 23.938-7.6325 5.7862-9.3315 7.1241-9.3315 12.576 0 3.3032 1.9977 2.6674 8.0367-1.3098zm9.988-25.913c30.72-21.841 29.932-19.995 29.265-28.13-0.2252-2.7457-0.8325-3.9935-2.0562-4.2254-0.9552-0.181-6.3843 3.7205-12.497 8.0219-6.1125 4.3015-13.399 10.074-17.056 12.612-10.675 7.4083-14.21 9.4016-14.21 13.645 0 4.1869 1.1282 6.8259 2.9822 6.8259 0.6961 0 6.8038-3.9375 13.573-8.75zm-4.4059-16.915c14.149-9.9931 29.739-21.269 31.862-23.945 2.5805-3.2537 2.1178-10.329-1.1736-10.329-14.199 9.4887-31.29 21.959-43.301 31.808-1.5536 1.3696-3.5296 2.6809-4.1481 4.4703-0.1194 2.3107 2.7862 5.3631 3.9423 5.4569 2.3426 0.0123 5.9423-2.605 12.818-7.4613zm-9.2138-33.819c10.803-7.3197 20.628-16.016 31.358-23.4 8.058-5.5158 10.342-7.2229 9.8626-14.159-0.2765-4.001-3.7959-1.7004-17.445 7.3942-10.007 6.668-14.608 9.3032-18.156 13.865-2.4901 5.7571-10.7 11.159-11.135 17.741-0.01 2.4403 1.6103 1.2834 5.5161-1.4415zm33.166-43.99c8.2982-5.4965 9.0861-5.6223 8.1851-12.924-1.1276-9.1381-2.0648-8.5984-9.9941 3.5126-5.214 7.9638-7.0005 10.269-6.208 11.75 1.3534 2.5288 2.8455 1.0864 8.017-2.339zm-30.22-67.236c-0.8806-4.0671-2.1256-3.1852-6.3028 0.4824-7.686 6.7484-8.8967 11.633-4.1092 14.195 2.5409 1.3599 4.5086 1.205 6.0204-2.129 3.2577-7.1843 4.1701-9.7197 4.3916-12.549zm-43.049 63.884c-0.9931-3.7131-5.5277-8.7694-8.9816-10.555-3.4242-1.7707-5.5027-1.4399-8.7733 2.718-3.0143 3.8321-1.6112 6.11 2.918 11.84 3.3187 4.1985 4.6654 5.5317 7.2739 5.5317 3.17-1.2412 8.2257-5.5041 7.563-9.534zm-166.62 160.18c-2.1925-4.2398-6.8533-8.711-8.9886-7.9634-2.2622 0.792-4.4655 4.0358-4.4936 6.0748 0.933 4.1631 4.4485 6.9814 7.1514 7.0613 5.0921-0.72219 8.186-1.6074 6.3308-5.1727zm20.318-6.4576c-4.3881-4.6292-13.063-14.839-14.483-14.839-2.2205 0-7.5178 5.5609-7.5178 7.8462 0 2.6982 7.899 13.756 10.528 14.641 6.6445-0.61625 18.844 0.12794 11.473-7.6481zm25.077 1.2994c-0.4603-2.2346-25.157-28.492-26.981-28.492-2.3547 0-7.0079 5.1655-7.0079 7.5517 0 1.915 7.9762 12.32 15.348 20.022 3.6689 3.8329 3.9969 4.3843 8.4912 3.6828 4.9033-0.76535 11.294 0.29486 10.15-2.7641zm43.644-5.8647c0-5.2981-2.7711-8.2048-13.925-20.274-4.0468-4.379-10.884-11.987-15.193-16.908-8.3344-9.5158-11.904-12.432-15.228-12.44-2.6227-0.01-6.6416 4.2497-6.6416 6.9604 0 1.7398 20.526 25.275 39.119 45.254 4.1254 4.433 5.9752 5.7244 9.9316 3.6166 2.2745-1.5521 1.9378-4.1793 1.9367-6.209zm-32.138-63.05c-4.1722 3.4296-5.7259 4.8327-5.7452 7.1215-0.029 3.4881 35.402 42.417 38.561 42.417 1.8557 0 1.5715-0.25453 2.6665-4.4404 2.1929-12.704-1.2588-16.433-10.442-24.815-6.1567-5.6199-18.57-24.963-25.041-20.283zm62.486-26.044c-9.8881-11.827-15.361-17.268-17.37-17.268-1.3732 0-3.4311 1.3234-5.6507 3.7802-3.6947 3.4982-3.3429 3.3723-1.0031 7.5354 1.2154 2.1624 4.6169 6.417 7.559 9.4545 5.4494 5.6262 8.2417 7.4125 10.868 4.7147 2.3242-2.3874 8.0624-5.2076 5.5966-8.2172zm-5.1613-29.511c-2.4115-0.026-6.4648 4.3201-6.4648 6.686 0 1.9997 8.0255 12.057 13.621 17.07 4.5271 4.0554 6.6616 5.1452 9.8105 2.4721 2.3555-3.4183 1.8234-6.5443 0.3525-9.1546-4.0055-4.5626-12.764-16.872-17.319-17.073zm27.798 2.8981c-0.06-3.4487-10.182-16.608-13.389-17.92-2.6637 0-8.3159 6.2029-8.3159 9.0658 0 1.5354 2.1656 4.9545 5.8377 9.2166 7.2243 8.385 9.0764 10.23 10.65 8.919 2.5733-2.1442 5.2761-5.9013 5.2173-9.2811zm11.424-14.822c0.6662-2.8896-1.1221-5.8646-5.1655-10.943-5.0537-6.3472-7.533-6.7733-12.297-1.8582-1.7579 1.8137-2.5775 3.399-2.5775 4.2791 0 2.4225 10.602 15.893 12.57 15.893 4.5511-0.5626 5.9395-3.8732 7.4704-7.3709zm-18.651 33.37c-0.9482 4.349-2.7782 7.19-6.9759 9.2076-32.37 23.325-31.324 61.329-38.234 96.419-52.415-0.52691-135.28 20.975-134.76 22.105l278.55-281s3.4567 0.8577 1.3409 3.3211c-22.543 16.205-21.139 47.713-35.965 63.496-24.773 29.937-47.792 55.906-63.951 86.456zm-151.19 114.78c0.4512-3.1769-2.4697-4.0403-5.0247-1.4853-2.504 2.504-1.514 4.4594 2.049 4.0471 1.8759-0.2171 2.7496-0.9692 2.9757-2.5618zm85.843-11.809c1.0251-2.6712-1.4152-5.1711-16.344-21.737-15.114-16.772-18.542-20.699-21.156-20.699-2.2188 0-7.6324 5.492-7.6324 7.7401 0 1.0329 2.376 4.4322 5.2799 7.5538 2.904 3.1217 8.4165 9.2528 12.25 13.625 6.6023 7.5294 9.74 11.165 12.253 12.92 2.4671 1.7224 4.3321 1.6316 8.2818 1.6316 5.4249 0 6.6027 0.17883 7.0678-1.0335zm25.822-52.732c1.0266-3.3 2.491-6.2154 2.5001-7.451 0.017-2.3057-19.063-21.754-22.29-23.839-3.8622-2.4962-11.125 5.6557-9.3145 10.417 0.4996 1.3142 6.1755 7.9896 12.613 14.834 8.1837 8.7013 12.277 12.799 13.607 12.596 1.3626-0.2086 1.5479-2.2584 2.885-6.5564zm7.9787-20.437c1.3949-2.0527 2.5361-4.7627 2.5361-6.0223 0-1.4287-3.1947-5.2963-7.7609-10.429-8.5089-9.5654-10.694-10.671-15.354-6.2066-4.6371 4.4426-3.0653 6.4982 5.0919 15.74 10.214 11.572 11.37 12.976 15.486 6.9181zm72.947-91.345c3.1744-3.7725 3.2439-5.6439 0.3377-9.0893-1.2369-1.4663-3.0319-3.6038-3.989-4.75-2.6212-3.1391-6.0829-2.619-9.6562 1.4508-1.707 1.9441-2.8355 3.9048-2.8319 4.5732 0 0.6684 1.8385 3.3527 4.0778 5.9652 5.0339 5.873 8.1424 6.5078 12.062 1.8501zm11.176-14.416c2.1594-3.2957 1.1857-6.9141-2.8531-10.603-3.8229-3.4916-5.7237-3.6395-8.4108-0.6543-3.591 3.9894-3.0118 5.3252 0.8462 9.5956 4.3619 4.8281 7.8684 5.5524 10.418 1.6617zm8.9582-11.962c2.9851-2.9851 2.9276-5.5381 0.2517-8.9399-2.5056-3.1854-5.0969-4.0507-7.7364-2.6381-4.5884 2.4556-4.1037 6.6694 0.4125 11.429 2.7411 2.8887 4.0279 3.1934 7.0722 0.14905zm-213.13 599.39c57.048 6.3915 118.33 10.857 226.37-5.9297l0.5434-36.667c-33.698 26.28-77.934 8.2667-80.482-21.984-0.3008-26.96 6.8991-58.057 12.966-80.231 4.5165-16.482 5.807-22.838 1.5788-26.047-9.3201-5.2519-25.861-5.9131-30.088-16.867-2.0244-5.7807-2.216-11.963 0.7441-7.5577 1.3599 2.0237 12.12 7.0276 20.522 8.9032 14.631 3.2663 16.984 4.3567 18.643 10.366 1.0471 3.7924-1.3638 16.886-5.2176 28.703-2.7591 8.4601-5.9819 22.042-5.9819 24.669 0 2.8596 2.2449 3.3278 4.7561 2.5308 1.0832-0.3438 6.2261-5.4892 9.4644-8.3788 14.055-12.541 18.135-12.166 6.1289 0.1027-4.7746 4.8792-11.36 11.611-11.36 12.121 0 2.5961 2.4385 2.2984 7.8333 0.3507 8.3117-3.0008 27.798-2.6398 36.468 1.7165 10.778 5.4152 11.235 5.1761 10.987-11.238-1.9388-30.675-6.9363-66.968-16.931-95.29-15.244-43.197-46.9-83.28-93.67-81.475-57.007 2.9703-91.411 25.672-130.2 52.867 23.424 51.967-10.43 91.773-22.694 97.028-1.1835 0.5071 15.352 52.825 22.414 79.405 6.4153 24.146 17.199 72.902 17.199 72.902zm242.5-1253.4c-1.3251-3.4185-33.036-106.76-41.908-149.99-85.737-4.9876-149.14-12.106-224.63 9.326 0 0-1.6369 29.117-0.8468 30.53 0.7674 3.5958 3.3667 3.5127 5.49 2.3344 34.87-19.16 72.66-10.529 75.283 36.72 1.0013 18.042-5.0641 30.759-6.1684 47.875-0.9643 14.947-12.723 34.87-5.5963 46.224 0.914 1.3966 5.9362 4.1463 12.801 7.0859 12.802 5.4821 17.816 10.514 18.756 18.885 1.3925 5.7754-2.1393 9.6557-3.2044 3.7239-0.6763-3.7665-1.337-7.0823-17.141-12.494-15.403-5.2745-19.558-11.39-21.094-14.61-2.1179-4.4414-1.7194-7.5901 0.262-14.668 4.2165-15.062 8.3751-30.427 7.9906-37.682-0.1383-2.6096-3.0291-1.3408-6.7263 1.8036-4.6965 3.9942-24.784 17.22-25.347 16.656-0.2639-0.26398 3.3162-5.5926 8.938-10.968 6.8218-6.5234 15.311-14.425 15.311-15.874 0-2.5662-0.9997-0.78226-7.613 1.1817-11.529 3.1772-24.812 2.7219-33.744-1.2248-7.5757-3.3343-12.887-5.2671-14.013-3.4447-2.8047 46.025 4.0305 93.468 23.342 130.48 17.297 33.627 53.251 75.737 107.32 66.289 55.862-9.7622 110.21-54.695 108.26-54.748-20.846-47.202 2.9066-82.355 24.284-103.41zm-442.8 1256.5c-24.752-24.788-87.146-51.756-130.03-64.132-3.4336-0.7399-6.8121-2.3729-6.8366 1.6908l-0.5063 85.078-76.634 71.823 1.3492 35.047 162.59-0.7871 107.94-158.25s5.204-0.9329 5.7784-1.9014c-19.812-84.034-49.645-151.15-68.599-184.78 0.3175 0.4156-27.252 22.275-51.497-4.9-13.605-15.249-5.2558-42.029 7.6516-51.844-10.891-8.0105-33.453-22.534-48.246-26.726-3.076-0.7525-7.6603 5.4709-9.1637 11.104-2.7033 9.1537-7.1976 17.34-10.216 26.568-3.3164 7.7099-6.5125 8.873-11.461 6.7074-7.7071-2.2863-9.7513-3.0842-9.7513-3.0842l0.2502 100.02c59.155 20.526 120.04 73.114 137.38 158.37zm245.88-1068.8 17.526-19.035c-27.728-3.4028-56.798-8.3589-90.81-19.038 23.617 17.557 48.349 28.424 73.284 38.073zm-96.318-53.548c30.909 10.305 70.014 34.336 118.85 25.288-44.514-17.659-78.316-58.917-92.719-142.92-3.149 16.304-9.661 50.208-19.912 53.877-14.405-55.745-72.32-23.326-49.097 22.139-58.696 40.327-129.27 63.084-193.28 94.188 0 0-9.6342 29.57-57.582 70.077-9.0511-47.492 1.7334-117.95-3.8798-165.67l-75.169-70.991c1.1518 13.519 0.6258 21.907 0.025 37.739 2.0622 2.7585 4.9136 4.2039 7.8085 5.9285 4.857 273.59-1.6753 544.03-1.6161 792.53-0.7455 152.29 3.2837 310.95 1.0535 454.74l-2.8083 5.2016 0.1168 34.366 76.754-73.084s-3.5693-51.86 0.4554-91.485c48.44 9.754 93.616 32.514 134.12 57.479 5.0985 1.4163-24.856-99.564-133.79-144.41 0 0-0.15-31.543-0.1456-100.11 0-66.142-1.0313-73.143-2.4993-74.219-4.409 4.7923-60.155 23.573-62.977 20.399 1.4902 0.49673-15.723-117.08-0.8418-134.94l53.327 1.1242c15.253 12.31 9.1243-2.6832 17.978-5.1504 5.3113-1.4302 29.976 8.1809 29.976 8.1809 101.64-119.97 91.479-317.28 18.541-428.29-18.686 15.173-38.553 35.739-57.289 44.568-0.224-0.6423-0.3395-61.209-0.3395-61.209 97.113-62.334 202.75-242.89 196.01-243.51 0 0 30.068 29.288 41.741 45.849l-95.866 138.84c21.96 44.215 44.171 84.31 58.582 123.19 1.951 5.26 7.9567 5.1111 9.4693 10.645 1.2928 4.7302-4.4799 11.298-3.6825 16.517 20.231 77.372 24.819 159.47 4.8578 233.85-4.2064 16.743 3.5011 30.313 13.805 42.906 0.8511 1.0961-9.603-9.0492-10.537-9.6104-3.586-2.1533-9.5598 5.3992-10.82 14.927 0.8254 5.8407 3.9956 6.8674 8.1943 11.6 7.3999 6.1489 36.791 35.091 49.736 48.311 11.497 11.741 14.47 12.269 22.218 3.9443 2.1869-2.0419 4.4592-4.8211 6.5751-6.5487 0.3962 0.64112 3.261-2.3407 4.2373-3.2937l173.12-168.98c20.109-19.628-172.87 177.3-172.87 177.3s-93.58 91.87-116.54 114.52c-23.711 23.394-26.913 28.51-27.861 30.25-1.6911 3.1016 7.6473 3.0171 11.894 2.3867 0.3397-0.0504-3.566 0.90013-7.5155 0.8716-24.374-5.4467-32.675 21.494-48.037 26.919-40.647 28.864-13.317 75.217 25.518 59.911l9.4593-4.5486c23.538 43.716 57.487 123.35 73.422 192.57l-6.421 2.9678-102.4 153.61h580.73c-41.714-41.525-77.196-92.513-113.33-130.67-57.915 17.32-233.04 13.787-230.27 6.257 0 0-26.519-107.35-41.512-160.08 47.608-40.776 42.729-105.1-26.383-133.97 50.314-39.725 100.96-53.188 150.34-56.413 16.039 40.736 53.694 43.301 71.472 6.001 0.1192-0.41726 66.775 20.489 91.347 43.118-36.44-3.7715-72.425-11.026-108.89-12.767 32.097 12.674 64.775 45.774 75.246 83.629 5.1269 13.518 12.965 58.146 15.038 58.311 0 0 12.163-51.549 21.593-48.712 24.052 50.193 65.522 12.437 48.052-27.546 61.256-29.238 130.18-61.893 186.53-88.995 16.443-24.799 56.883-71.899 59.539-72.103 0 0 74.382-426.12 74.365-568.57-2.4693-171.25 3.4339-361.88-3.9487-522.06l-0.069-46.038-157.1 0.0657-112.15 164.92s-0.8447 2.6145-0.8269 3.751c15.306 66.54 34.944 123.17 65.76 184.65 42.521-32.117 78.356 20.77 46.466 51.478-5.9868 5.765-4.3843 7.2204 1.6049 11.232 5.9046 3.955 46.264 24.258 48.141 24.258 7.2983-10.842 9.4147-26.855 14.336-39.088 1.2396-4.6607 4.7591-5.2327 11.791-4.4063 9.0397 1.0624 8.993 4.8219 8.6908-52.69l-0.2595-49.399c-54.52-25.11-126.7-88.955-130.07-155.35 31.525 22.937 103.96 56.282 123.3 59.267 8.4957 2.3725 7.1898-12.433 7.4541-18.375 2.3001 1.5391 3.1332 24.414 3.1332 24.414-31.998-9.6724-48.766-7.6988-128.64-53.979 13.704 65.306 79.102 116.81 126.52 140.3 0 0 1.9835 31.015 1.8833 65.762-0.3056 105.96 0.755 110.63 0.755 110.63 0-0.0522 26.098-6.6517 33.343-10.245 12.938-10.364 33.674-2.4176 36.544 5.2155 4.2081 39.99 0.1608 77.066-0.7278 115.26-22.104 1.5759-34.211 6.2266-45.115 6.6722-7.0876-0.94762-11.395-0.99191-15.019-5.0233-10.555-22.801-9.8718-8.3417-11.155 8.7816-0.969 5.0661-27.393-3.7532-30.03-5.2784-114.11 131.36-104.39 282.6-26.888 422.65 12.804-8.6394 34.85-25.129 56.891-35.958 0.5321 17.818 0.8324 54.498 0.8324 54.498-89.335 65.543-196.32 239.19-192.7 239.67l-36.295-43.335s22.848-36.319 30.9-45.924c0.9378-1.1 1.5395-12.364 1.5395-12.364l55.464-80.198c-25.077-44.422-42.206-82.406-60.046-126.09-1.0103-3.6566-5.3702-19.359-4.4114-20.844-37.001-167.18 3.0935-250.33 0.1391-256.66 0 0-0.492-3.3448-1.2782-3.9973-1.2126-1.0064 0.3149-1.9731 1.6759-4.3606 2.6393-4.6299 6.844-14.129 5.4084-16.942-1.0612-2.0795-31.067-32.084-56.793-56.788-13.534-12.996-12.996-14.485-19.988-7.3867-2.5918 2.6314-8.9677 10.122-8.9677 10.122-92.95 85.995-166.71 164.3-259.99 255.85l-4.4776-4.0681c135.69-134.87 272.64-268.4 407.02-404.57l-23.636 0.4009c0.6685-1.7123 1.6494-3.3092 3.022-3.7742 12.672 0.011 25.706-3.832 35.123-9.1794 19.166-14.238 46.68-33.301 48.835-52.08-1.3784-36.144-31.866-41.38-53.877-23.709-30.602-54.962-54.823-121.09-67.8-182.81-0.6126-3.0645-4.9254-8.3488-5.5717-11.848 6.5562-20.5 110.48-162.11 110.48-162.11h-583.59l111.07 132.26c0-5.2785 158.29-23.969 230.78-1.8934l44.147 156.82c-40.104 38.775-51.959 102.54 21.802 135.73 1.4354 3.11-6.993 8.2243-6.993 8.2243 1.1743-1.912 3.2124-3.8903 2.3863-5.6484-19.88-8.6892-41.169-30.693-41.169-30.693-44.374 34.665-85.852 53.964-126.48 55.678 0 0 21.451 14.544 25.596 30.52 0 0-1.9916-0.24205-2.515-0.88192-4.4031-5.3836-14.522-22.792-23.056-27.92-14.464-3.4695-23.02-0.94585-34.434 6.9233l-15.453 14.927c-35.454-10.785-74.831-28.422-96.526-55.199zm-5.9355 383.83 16.181-15.964c1.8502-11.85 5.0659-26.918 18.738-43.327 15.166-18.202 31.934-35.317 44.278-51.522 14.828-19.468 22.877-37.086 18.979-45.255 22.1-3.9798 42.388-23.483 43.034-58.882 0.2582-18.595 9.2323-45.719 9.9107-45.342 0 0 154.25-5.2475 260.36-106.4 0 0 7.4349 1.6157 5.6918 2.9606-40.207 40.268-82.966 69.96-133.5 88.863l-278.74 278.43zm30.861-31.947c4.166-4.166 5.106-5.5319 2.7489-7.4881-3.5943-2.983-10.513 3.175-10.513 9.3572 0 3.9339 3.114 2.781 7.7641-1.8691zm14.431-14.186c3.3133-3.1744 3.1918-5.4837 0.4511-8.2245-3.7659-3.7659-9.246-1.4514-11.087 4.6238-1.855 6.1221 5.4298 8.5883 10.636 3.6007zm12.701-12.848c1.707-1.9441 3.1036-3.9346 3.1036-4.4233 0-2.1551-5.3198-7.0419-7.6658-7.0419-2.9916 0-8.3342 5.0221-8.3342 7.8342 0 2.346 5.3628 7.1658 7.9731 7.1658 1.0009 0 3.2163-1.5907 4.9233-3.5348zm11.973-23.921c-3.7937-3.1922-6.2887-3.2159-9.4153-0.0894-3.6357 3.6357-3.2584 7.6325 1.0803 11.442 3.2952 3.4386 4.7097 3.1043 9.1677 0.35476 3.7425-3.8228 4.4129-7.391-0.8327-11.707zm14.054-2.1328c4.1008-3.4506 3.5175-6.2849-0.9552-10.758-4.7057-4.7057-8.3381-4.741-11.686 0.24441-1.255 1.8688-1.4864 3.7459-1.4864 4.2793 0 1.822 7.7601 8.7345 9.8056 8.7345 1.1225 0 2.63-1.0766 4.3222-2.5005zm13.514-13.346c3.4861-3.6387 3.0387-6.2382-1.9595-11.385-4.2036-4.3283-7.1291-4.66-10.832-1.2282-3.8309 3.5504-3.0351 7.298 1.2843 11.617 4.3754 4.3754 7.6213 5.0516 11.507 0.99541zm15.311-15.497c2.559-2.707 1.8712-2.4886 0.056-5.4256-2.8045-4.5377-10.985-12.054-13.314-12.054-2.9295 0-5.4926 4.6837-5.4677 9.2965 0.025 4.5876 2.2603 6.4541 8.0809 11.033 3.8661 3.0415 2.6817 3.3167 5.6581 1.5734 1.6497-0.96622 3.8939-2.9568 4.987-4.4235zm12.148-11.103c5.4808-6.2422 4.4412-7.4462-8.796-21.391-4.4881-4.7282-5.4208-5.2687-8.6287-5-3.0467 0.25516-3.2551 1.0063-4.8248 4.2197-2.892 5.9201-0.748 8.9295 7.5783 17.786 8.5708 9.1166 9.8342 9.8949 14.671 4.3858zm13.569-14.569c2.1171-1.8589 3.5348-4.0236 3.5348-5.3975 0-2.4342-10.719-14.322-14.548-16.512-2.7111-1.5505-5.5419-0.67418-9.056 2.3485-2.1113 1.8161-2.0591 2.2532-1.5571 4.2534 0.819 3.263 14.602 17.791 16.876 17.788 0.9434-0.001 2.8059-0.77392 4.75-2.4809zm13.458-13.056c2.275-2.3209 4.077-5.1321 4.077-6.3605 0-2.6209-11.555-15.989-15.128-17.861-3.0369-1.5912-4.804-0.92786-7.8024 3.283-3.4548 4.8519-2.1053 7.0688 4.7486 14.964 6.5021 7.4899 8.585 9.7588 9.796 9.7588 0.4026 0 2.0666-1.4966 4.3089-3.7841zm12.706-13.668c2.9151-1.7737 6.7301-5.512 5.1825-8.5632-1.6413-3.1244-21.863-24.558-24.042-25.724-4.2695-2.285-4.145 1.0064-4.145 11.624v5.5097l9.3092 9.1153c13.567 13.285 10.536 10.044 13.695 8.0382zm16.447-15.096c1.6077-1.6077 3.1267-4.3184 3.1071-5.3232-8.3945-10.224-32.812-42.551-37.221-41.355-0.4617 0.12527-0.647 0.14698-0.9598 1.0724-1.0956 3.2421-1.5393 9.9368-0.7793 15.357 7.7076 7.4069 25.878 31.524 29.989 33.017 2.4562 0.9462 3.541-0.4454 5.8639-2.7683zm13.118-13.764c1.5426-1.4779 2.8047-3.4795 2.8047-4.4481 0-0.96854-2.7161-4.3676-5.6036-7.7694-2.8875-3.4019-8.5394-10.288-12.56-15.302-23.004-28.69-24.674-30.833-28.185-27.919-2.3058 1.9136-2.8619 8.6731-1.7043 11.2 1.9979 4.3605 27.12 34.658 35.219 42.475 5.1509 4.9714 6.1657 5.4655 10.029 1.7642zm13.234-12.681c1.9642-1.8524 3.5712-4.3081 3.5712-5.4571s-3.7076-5.8208-7.591-10.382c-3.8834-4.5611-10.353-12.343-14.378-17.293-10.322-12.696-10.405-13.156-18.108-13.947-11.67-1.1985-10.114 1.3737 3.1084 16.803 3.2 3.7344 9.2449 11.107 13.433 16.385 9.8053 12.355 14.13 16.905 16.07 16.905 0.8584 0 1.9303-1.1621 3.8945-3.0145zm13.494-13.221c5.9818-5.0334 4.8-6.683-14.657-26.777-6.3798-6.5887-6.8341-7.6339-11.79-7.6339-4.9875 0-6.5929 1.0287-6.5929 3.444 0 1.4808 25.347 31.605 27.193 32.344 2.4964 0.99972 2.7864 1.1973 5.8462-1.3773zm14.176-14.517c1.5957-1.7082 2.9012-3.9178 2.9012-4.9102 0-2.1628-5.5026-9.1537-10.656-13.673-2.4169-2.1195-5.4557-4.3107-7.4104-4.3107-3.3084 0-8.9825 1.8714-9.9603 3.4536-0.6321 1.0229 6.8963 10.322 14.295 18.12 4.9006 5.1648 6.8195 5.6154 10.831 1.321zm12.447-12.349c3.1331-3.1331 3.106-6.0026-0.096-10.201-2.3216-3.0438-3.0227-3.3444-7.7999-3.3444-9.0491 0-9.3112 2.3155-2.3052 9.8054 5.2084 5.5682 6.6443 7.2973 10.202 3.74zm13.326-13.109c3.5202-4.4752 0.5084-6.9333-5.2694-4.3007-1.3707 0.6245-2.1027 2.2495-2.3907 3-1.7847 4.6509 4.2753 5.6038 7.6601 1.3007zm-222.52 37.824c-12.867 8.1318-34.494 23.544-49.199 33.841-0.3886 2.2092-0.6705 7.8378 0.012 12.219 8.3332-5.6689 35.126-22.782 47.287-32.426 0.6159-3.6148 1.5014-9.9927 1.8994-13.633zm23.602-37.333c-0.4311-2.1888-1.8727-0.80406-5.6825 2.4171-4.9871 4.2166-47.301 35.566-58.538 43.454-4.2707 2.9977-8.2926 5.5307-8.75 6.5838-0.4318 0.994-0.8451 9.509 0.7745 11.655 9.1661-7.0001 52.67-36.175 53.323-37.185 4.4941-7.1746 14.527-19.694 18.873-26.925zm-4.8481 94.488s-51.898 62.384-68.59 93.464c0 0-0.1127 35.549-0.5959 56.021l-2.8276 0.79247s-0.2429-54.868-0.9432-114.42c-1.7499-148.81-3.2111-184.94-3.2111-184.94l-16.855-12.34-0.7002-5.8539s74.782 52.363 111.27 60.711c-26.66 41.78-51.314 57.898-17.552 106.56zm-61.589 74.611c1.0393-2.5075 0.3323-2.386-1.8125-2.2921-1.5727 0.0688-2.4657 1.5222-2.5374 3.1154-0.082 1.8192 0.082 2.2499 1.5 1.9796 1.0173-0.19398 2.3496-1.5958 2.8499-2.8029zm12.481-18.489c7.467-9.1984 13.642-15.161 14.75-21.927-4.7836 0.79245-32.316 20.091-32.75 22.135 0.2665 10.218-2.067 11.446 6.3382 6.939 3.6886-2.0016 6.6771-4.4693 11.662-7.1471zm2.3533-22.791c8.0274-6.6697 37.294-22.411 40.647-30.168 1.298-3.5615-2.8751-6.9066-3.5304-6.5789 0.5324 0.46965-41.907 25.896-57.388 39.234-1.3819 1.7187-1.0283 4.6497-0.106 7.0755 1.698 4.466 5.0836 0.83849 20.378-9.5634zm-9.7372-12.268c8.7268-5.8192 29.37-20.086 34.508-23.657 8.7319-6.068 10.469-8.103 7.3195-12.599-1.2555-1.7925-2.963-2.8575-5.8465-1.5887-25.274 17.599-27.454 20.577-46.639 32.908-1.2951 3.4629-0.9743 8.632 1.0278 10.465 1.4564 0.0849 3.898-1.7057 9.6307-5.5285zm-0.097-18.991c23.024-16.652 35.443-25.075 36.261-26.912 0.9032-2.0288 1.1695-9.9482-0.3341-10.797-8.5667 6.5194-31.469 20.538-47.122 33.232-0.4063 2.6086-0.8844 8.4638 0.3791 9.7269 3.1767 1.3126 4.1216-0.40832 10.816-5.2502zm-2.7446-60.121c16.758-12.432 32.247-23.249 49.695-34.906 14.783-9.8162 17.253-12 11.58-14.934-1.9504-1.0086-5.8871-2.6038-8.4085-1.7553-19.648 15.859-41.475 31.034-62.298 46.444-0.5122 2.2994 0 6.8167-0.1253 8.8509-0.2014 3.1478 3.9516 0.45848 9.5565-3.6996zm-2.3051-17.738c1.375-1.2071 10.15-7.0238 19.5-13.79 25.073-18.145 28.03-19.911 28.03-21.837 0-5.2693-7.2339-6.3882-13.822-1.024-12.089 9.8427-40.944 27.778-41.013 30.322-0.1009 3.749-0.732 7.4424 0.3636 9.087 1.3864 2.0812 3.4135 0.33867 6.9408-2.7579zm7.2374-24.578c25.51-17.796 24.5-16.965 24.5-20.161 0-2.7833-2.4835-1.5346-6.386-1.8185-3.68-0.26772-3.75 0.76523-10.748 6.053-14.887 11.249-20.336 14.327-21.895 17.646-0.4901 1.0437-0.8355 5.1727 0.072 6.0807 1.7948 1.796 3.8621-0.40935 14.457-7.8007zm1.6864-17.698c4.9926-4.1553 8.9975-7.2076 9.3319-8.0791 0.7271-1.8947-3.0439-5.2731-5.8858-5.2731-3.0804 0-5.4759 1.5926-13.105 8.1584-6.7339 5.7957-8.0994 4.5785-7.5683 7.851 0.3078 1.8971 0.3419 6.0849 0.9738 6.8463 1.629 1.9629 5.1171-0.23514 16.253-9.5036zm-10.332-11.49c5.3928-4.5377 6.5289-5.471 2.5959-9.404-3.5609-3.5609-7.7113-4.4462-9.8997-2.2578-1.2123 1.6011-0.032 10.991-0.1648 12.866-0.2127 3.0106 3.7898 1.8916 7.4686-1.2039zm115.53-97.916c0-1.9446 9.382-8.8109 16.424-10.377 8.9771-1.9959 20.245-0.96292 28.129 2.9747 6.7949 3.3934 14.168 11.548 3.25 6.5841-10.027-4.4594-31.518-4.5152-39.304-0.91326-5.7759 2.9269-8.5 3.6791-8.5 1.7311zm-6.9761-34.378c0.7304-0.7304 10.111 1.6902 15.276 3.0512 13.852 3.6502 25.234 1.5044 39.752-2.6841 3.4064-0.98271 5.1033 1.3731 3.0025 3.0995-7.3758 5.1071-16.941 8.0831-25.19 8.8504-18.146 1.6881-37.674-7.5758-32.84-12.317zm-88.994-26.789c7.7432-3.7883 17.2-56.914 14.153-66.054-9.4797 14.482-20.11 20.981-35.249 18.471-24.793-4.1113-25.715-34.622-6.5567-37.695 7.6498-1.2268 17.014 3.8167 18.55 2.6341 8.1645-3.8311 14.562-31.26 16.556-40.134 1.465-8.6986 3.6229-32.821 3.9469-40.5 0.6888-16.324 0.034-40.405 0.034-40.405l-120.64-144.33-264.24-1.136s-0.8391 202.17-0.2102 305.6l74.819 71.802 0.9473 116.06c83.6-36.483 164.52-74.802 243.74-116.24-9.1893-10.98-8.9221-38.639 7.8263-49.102 24.659-15.405 45.143 4.9868 46.333 21.037zm66.233 24.601c0.5605-6.5447 5.4256-11.925 5.7685-18.581 0-1.4806 1.1994-3.1977 5.1295-1.1112 5.1302 2.7236 6.7048 0.80548 12.502-1.8635 10.288-4.7367 13.235-4.6291 21.156-1.4602 5.1267 2.7438 6.7032 2.7259 11.502 0.23628 6.5792-4.3449 13.565-5.7526 19.348-3.7246 8.6277 3.0048 11.626 4.6634 16.55 2.2801 2.478-1.1996 5.5817-5.6942 6.1255-5.3581 3.5419 5.2609 2.8271 13.545 5.0894 18.205 4.0039 7.9072 2.4397 13.572-2.2778 9.6829-9.9182-8.1765-17.645-8.378-31.876-4.8543-8.3279 2.062-12.516 3.6664-21.744 2.5725-28.594-3.3894-30.532-2.5326-36.342 1.3515-5.6456 3.7741-9.9829 4.1594-10.932 2.6244zm76.754-51.822c-8.2546-2.063-17.69-9.5678-24.526-7.5566-8.4251 0.57007-13.232-9.3687-8.905-14.811 7.3956-7.199 18.88 0.06098 23.342 3.4408 9.6866 7.3578 11.068 7.9413 14.984 7.9413 16.079-0.31673 13.002-15.34 5.2297-20.82-4.6111-4.8343-5.0665-7.966-4.0867-9.1465 1.5919-1.9181 6.1807-0.30283 11.209 4.9916 9.6267 9.0365 9.8532 27.055-1.9569 32.499-5.8754 3.2803-9.7342 4.8509-15.29 3.4624zm33.557-52.075c-7.4834-5.4209-20.801-17.587-24.281-21.92-5.8823-7.3248-8.2326-12.008-7.4976-17.892 0.5718-4.576 1.2684-7.3012-1.6734-8.8149-3.1227-1.6067-6.1237-8.5235-5.5165-12.154 0.1682-1.0055 3.69-0.40412 5.824 2.2602 2.7017 0.43843 2.1402-1.1677 5.0752-3.1104 30.574-20.521 55.111-16.565 84.119-2.4626 8.4191 4.043 30.39 20.704 18.619 15.298-0.7012-0.32204-8.41-3.6599-16.189-7.5841-25.158-12.04-53.182-19.336-76.001-3.856-3.927 2.7481-6.3013 4.8606-3.2468 4.8606 12.83-2.4948 25.513-7.8309 38.688-6.9984 19.644 0.2574 31.529 9.9516 46.263 16.648 15.993 7.1427 19.078 9.5873 13.249 15.484-1.6455 1.8182-2.9658 1.7658-10.688 1.1743-8.3029-0.63598-8.9926-0.39704-13.663 2.5941-12.247 7.844-28.152 12.126-42.279 10.94-16.644-1.3977-18.427-2.732-18.769-0.3356-0.2187 1.5323 3.3557 4.184 8.2858 8.6959 3.7409 3.4236 8.7687 8.467 9.2085 9.2431 1.3886 2.4504-4.9502 1.2451-9.5281-2.0711zm-4.6696-26.632c-0.034-1.969-3.7028-10.534-5.892-12.747-2.1013-2.1236-3.7508-1.2947-8.2216 1.8541-3.364 2.3694-3.7215 4.2369-0.6262 6.9862 6.5796 5.8441 14.799 7.3085 14.74 3.9064zm25.064 1.1781c6.7174-3.2518 13.554-14.776 10.449-18.518-1.8479-2.2266-3.4506-0.11315-6.9773 6.1358-1.6882 2.9914-4.5922 6.783-5.8359 7.6541-5.489 3.8446-12.732 0.25461-15.782-8.2258-1.8412-5.1203-3.777-8.3765-5.9216-6.4325-3.873 3.5107 0.5139 16.172 8.2115 19.447 4.549 1.9352 11.142 2.2212 15.856-0.06069zm20.896-1.8923c6.8142-2.1047 10.067-5.1688 9.4949-8.1398-0.474-2.4614-5.3821-5.3642-8.7102-5.3642-1.4945 0-4.4169-0.06459-5.4657 1.3319-2.3177 3.0861-5.9975 12.451-6.1633 13.464 0.7917 2.0632 3.0996 1.1002 10.844-1.2919zm23.545-50.777c-33.976-12.996-60.812-18.208-93.126-4.4286-10.352 4.495-16.258 4.9614-16.777 1.2981-0.4378-3.0918 7.0136-12.249 15.064-16.478 22.559-10.317 49.643-11.288 72.339-0.39838 8.4827 4.1514 32.286 21.07 32.286 22.611 0 1.6872-2.1515 0.37528-9.7857-2.6044zm397.68 380.71c8.0941-4.2681 11.815-12.657 6.8597-17.612-1.4547-1.4546-3.4862-1.4444-5.1706-1.4444-2.8306 0-24.086 5.6946-28.209 7.901-2.6901 1.4397-1.7115 3.9527 0.8532 6.2737 1.1872 1.0744 2.0657 3.3709 2.25 5.8816 0.2367 3.2269-0.4043 6.1453 1.7308 5.6454 4.3377-0.99575 11.181-1.9502 21.686-6.6454zm-30.212 7.7819c2.3085-4.195 1.3262-9.9498-4.7307-13.481-3.1574-1.6328-5.6543-0.76011-8.192 2.863-6.0171 10.976 8.9273 15.69 12.923 10.618zm-30.325 5.1504c1.2989-14.026 0.6658-55.463 0.6658-55.463s-7.5463 6.3733-12.304 6.5943c1.745-6.0612 3.6382-8.287 6.3482-14.225 1.5519-6.2919 2.4129-17.418 1.9795-23.779-0.4746-6.9668-5.387-7.1531-0.325-19.674 2.5858-6.396 3.0533-13.129-0.3012-21.049-1.4445-3.91-1.9116-6.1559 1.8539-11.113 3.4988-4.6058 2.1169-6.9103 2.0505-16.513-0.092-13.308-0.01-15.473-4.0391-4.7369-6.0194 8.8916-8.7873 7.1895-17.954 6.1196-8.8697 19.876-19.242 40.713-19.649 57.845-0.2556 10.743-0.3978 12.413 6.3054 35 2.4956 8.4091 3.3522 11.209 3.4971 21.375 0.1382 9.7055 0.8632 13.12 2.3395 18.48 2.6254 9.5327 13.309 25.301 29.533 21.138zm-308.5 893.89 0.037-19.982s-31.965 9.8573-48.187 3.7938c-16.704-4.5184-16.652-5.3486-16.321-3.5375 0.5884 3.2284 12.984 9.771 24.459 12.459 8.073 1.8912 24.237-0.017 32.167-2.3664 4.5011-1.3336 4.979-0.079 3.1785 1.3-19.598 15.32-44.455 8.2662-60.07-4.4478-8.3415-8.1748-13.935-8.2188-9.4313 2.7593 21.448 43.463 74.704 17.821 74.169 10.021zm-21.574-29.697 7.2694 0.1385s-2.2304-12.667-5.998-16.361c-7.7081-7.5568-18.6-6.4043-25.51 1.0199-3.1657 3.401-5.5834 15.425-5.5834 15.425l5.8456 0.1226c2.1664-5.6128 11.388-31.949 23.977-0.345zm-29.091-19.157c-4.1297-1.131-13.195 2.9891-17.607 5.8557-1.6335 1.805-1.6492 2.0659 0.297 4.6284 4.2362 5.5778 10.711 8.2422 11.169 6.1559 1.8804-2.9398 6.5744-15.504 6.1413-16.64zm48.031 14.087c0.9528-3.8959-2.7154-10.557-8.4406-12.891-2.4745-0.6129-4.9218-1.1108-4.1993 1.6184 0.8059 3.0504 2.5177 8.0611 4.1163 11.407 1.1624 2.5142 1.903 3.7792 4.3435 2.8268 1.9174-0.6405 3.5288-1.2367 4.1801-2.961zm311.94-264.91 0.066-33.848c-17.094 17.324-39.435 46.396-46.2 57.277zm-522.2-932.8c7.2383-3.1027 12.556-12.566 10.721-17.347-1.1385-2.9668-4.1483-0.58898-7.1883 3.8067-4.8907 7.0718-6.1293 7.8393-10.43 7.8393-4.5773 0-6.3925-1.1787-9.5324-7.3335-2.163-5.8214-3.6971-6.7329-5.7152-4.1946-0.9491 1.1436-0.872 2.784 0.3611 7.0257 3.2248 11.093 11.526 14.601 21.784 10.204zm19.732-3.5009c8.0317-2.7633 9.6697-3.6432 9.2891-6.3173-0.3986-2.7998-6.7893-6.536-10.405-5.8448-2.6204 1.5794-9.4059 12.32-9.0185 14.238 0.926 1.4984 3.6147 0.16699 10.135-2.0762zm-46.323-4.6821c-0.2789-2.4747-0.6211-4.9068-1.3061-5.7321-2.5757-3.1036-8.0183-0.91155-8.0183 3.035 0 2.9989 4.268 6.393 7.7247 6.393 2.4346 0 2.0833 0.59434 1.5997-3.6959zm45.386-20.234c11.425 4.3004 17.219 4.7829 11.001-1.0589-8.5431-9.4774-47.704-20.301-68.719-4.8346-1.495 2.1343-1.186 10.304 0.4494 9.8534 17.098-11.531 38.987-10.915 57.268-3.9599zm-39.11-32.683c-9.5982 3.1941-18.614 8.2171-19.767 12.888-1.8599 7.5309 1.5109 7.6088 14.064 3.6598 16.17-5.2942 34.255-2.8956 48.04 5.0659 10.465 7.6116 13.564 5.0934 11.796-1.3005-5.8516-21.165-38.563-24.978-54.132-20.313z" fill="#131f67"/>
   <path d="m2924.2 750.5-70.608 69.963 0.989 82.797c7.0948 13.007-108.97-37.102-127.3-52.267 2.1262 55.308 77.612 118.32 126.7 141.38l1.3437 175.62s19.753-7.6604 30.625-11.438c8.0501-2.7966 26.465-2.5314 32.531-5.4375 9.6346-120.39 17.856-277.03 5.7187-400.62zm-392.72 86.656c-6.8775 0.11706-11.001 1.9816-10.906 6.4062-2.07-0.345 26.09 103.38 38.906 146.69-24.948 25.209-50.986 68.999-13.719 109.53 7.9535 8.6506 22.517 15.974 36.375 24.281 6.1734 5.9911-75.777 58.82-148.72 58.844-23.38-51.27-56.047-22.921-74.062-5.0312-14.073-1.2358-66.601-32.524-93.469-50.438-0.4296-0.2861-0.1471-7.7044-0.094-9.0625 1.8695 12.221 105.27 38.59 109.94 26.344-2.9852 0-46.383-29.351-58.844-58.313-15.908-32.665-28.656-77.531-28.656-77.531-5.7859 16.593-3.8057 39.585-19.75 47.812-4.7733-54.002-81.882-26.46-43.5 26.344-21.564 6.3261-40.004 17.485-60.938 26.781 43.799 59.59 104.08 99.229 167.75 122.59-8.396 17.89-57.979 58.158-17.25 105.62 1.8361 1.4605-38.922 45.916-58.969 80.688-15.089 26.172-10.538 46.256-8.8124 46.906 55.221-63.282 86.25-116.81 86.25-116.81-0.4698 7.36 65.54 3.3772 64.437-56.062 1.4587-16.038 4.3615-33.427 10.531-48.312 100.73 4.7386 187.33-31.145 260.53-106.5 0 0 14.91 4.2544 24.312 5.7187 4.7149 0.7344 11.398-2.3387 12.5-2.6562 4.2369-0.2168 10.354-1.0431 16.063-4.25 7.8153-4.3903 15.71-11.955 24.062-18.719 10.955-8.8713 21.891-17.425 25.781-26.562 4.366-10.159 0.9507-22.406-2.7813-33.25-23.497-27.666-39.086 2.0837-49.5-1.7813-36.149-49.145-66.3-188.16-71.219-189.25-20.196-4.068-89.269-30.49-116.25-30.031zm-248.12 94.875c-2.6953 0.18055-12.384 43.402-20.969 43.062-36.353-23.415-37.139 25.048-5.875 22.844 26.408-1.8622 41.17-44.481 26.969-65.875-0.039-0.0197-0.082-0.0341-0.125-0.0312zm-388.7 82.16c1.2054 262.78 5.9362 525.46 12.094 788.16 23.752-5.8634 41.018-10.333 64.312-0.1562 2.1862-74.678-4.3808-263.14-2.8125-445.62 88.771-69.034 151.11-145.17 194.91-244.69l-135.53 63.469s-44.292 63.486-58.438 67.563c-2.0129-9.0361-4.2744-116.5-2.4375-162.59zm301.16 162.53-26.625 38.531s0.6184 132.33 2.1562 196.09c1.0996 12.698 12.639 24.342 3.4063 35.719 5.6291 0 30.241 171.68 6.8437 241.28-4.1905 12.466-0.2677 21.274 6.2813 24.125l50.75 51.5c16.007 5.3138 31.597 3.2398 45.031 0 48-43.8 116.2-120.8 116.2-120.8l-180.41-170.53c-15.471-41.364-23.719-295.78-23.719-295.78zm657.47 551.88c-130.62 97.639-186.76 236.59-187.62 235.66 0.458 1.6212-0.654 7.3197 7.5312 2.8125 33.805-18.306 120.72-57.781 120.72-57.781 20.643-24.801 36.519-48.74 60.156-72.344 0 0 2.5572 107.67 0.4688 161.69 21.32 15.85 71.937 65.375 71.937 65.375-0.01-0.01 13.977-764.99-16.187-784.41-29.293 5.6757-43.998 16.375-54.926-17.596-7.7255 155.75-0.083 312.04-2.0741 466.6zm-283.7-430.5c-31.505 25.749-139.82 132-139.6 133.1 28.726 48.171 142.18 144.68 196.56 198.62l7.875 274.84c8.0013-10.758 13.818-20.89 22.5-31.656 0 0-1.4189-139.16-4.7812-204.41-0.9942-19.292-5.4188-34.497-4.0312-36.25-15.305-79.187-21.653-166.67 0.01-251.57-51.372-44.242-67.694-73.665-78.539-82.684zm8.435 313.91c-0.081 0.029-0.1611 0.087-0.25 0.1876-26.594 37.875-77.444 120.1-81.094 119.91-1.0763-2.4602-52.547-0.1627-62.281 32.219-8.1718 24.106-8.7926 46.294-14.75 71.156-103.28-3.373-178.88 29.278-258.5 102.66-22.643 0.8892-42.471 2.7468-56.406 7.9063-11.674 4.3222-17.947 12.11-25.125 17.312-20.206 14.645-25.679 27.142-24.688 42.438 1.7974 27.716 50.772 31.658 53.281 12.125 2.4825 0 47.925 103.81 52.344 121.5 10.717 28.596 22.198 82.1 23.563 82.188 18.294 1.1753 121 29.978 121.38 19.531 9.6766-4.1522-35.718-152.7-35.718-152.7 79.347-66.562-8.1302-137.7-28.687-135.09 45.179-32.162 97.017-53.824 154.19-56.675 8.8536 31.769 49.876 48.096 70.531 5.875 0 0 88.864 31.806 88.5 42.344-36.591-5.5206-66.674-8.4006-103.31-11.906 70.202 38.103 72.355 88.32 86.687 138.31 1.9507-8.8523 20.469-47.531 20.469-47.531 23.809 52.802 69.089 16.161 50.406-26.469l56.4-26.1c6.4902-3.2929-84.221-105.33-166.72-119.78 4.1561-7.5969 5.7996-14.748 10.094-20.937 20.687-20.294 36.72-50.006 5.0938-85.563 20.876-29.171 69.286-99.589 66.219-100.84 0 0 0.942-32.912-1.5625-32.031zm-678.33 324.54c-0.7955 0-2.2537 244.18-0.5411 365.39-2.0272 5.0217-3.3438 31.844-3.3438 31.844l75.125-70.562 2.25-91.219c19.615-4.6922 141.88 57.372 132.09 57.031 9.3318-3.9292-56.439-128.13-133.16-141.91-1.4258-70.362-2.1449-150.02-4.1563-171.44-26.642 5.0866-68.271 21.018-68.271 20.857zm666.99 146.89c-21.038 6.274-29.811 50.487-23 71.937 1.2603 3.9685 0.4619 4.8225 3.8126 0.9376 8.1973-12.033 5.6113-35.999 20.094-48.656 38.247 11.538 34.453-38.197-0.9063-24.219z" transform="translate(-4650.8 -1012.2)" fill="#e2cf00"/>
   <path d="m-1686.8 1464.6v-22.5h20.25v-121.38s0.1017-29.213 1.4326-32.888c15.614-53.208 102.07-49.51 106.38-2.0468 1.8209 8.0803 1.3168 34.935 1.3168 34.935h-22.875s-0.1615-8.563-0.4685-14.888c2.9627-50.399-58.223-39.932-61.259-6.0828-1.2665 6.0743-1.3974 20.971-1.3974 20.971v121.38h23.625v22.5zm-883.92-105.39 99.449-150.24c118.73 39.68 239.94 40.399 362.44 20.819l109.48 129.42h-44.762l-68.906-98.4c-24.971 5.7674-50.924 8.2856-76.781 11.837l32.248 86.563h-35.1l-25.334-85.622c-59.431 2.3049-99.907-2.9884-141.17-7.8199l-14.864 93.442h-35.719l24.11-96.484c-28.074-5.2594-56.404-9.7729-79.923-17.31l-73.006 113.79zm113.89-88.413 41.285 11.178-20.162 77.235-75.532 0.0003zm106.63 88.413 11.671-68.227c27.726 5.4673 63.907 6.5686 102.05 6.1802l17.94 62.047zm195.43-63.257 32.57-8.6289 48.823 71.886h-59.344zm257.79 51.292c-34.418-69.21-81.426-129.43-132.53-186.72 49.894-52.45 91.964-113.08 132.36-182.01 40.088 69.566 86.323 134.02 137.27 184.7-56.041 55.743-98.95 116.41-137.09 184.02zm277.38-124.61c-16.58-27.1-36.42-54.2-60.791-81.3 22.247-25.015 41.642-51.812 59.096-79.823 20.117 30.885 40.862 57.688 62.178 80.778-22.536 25.199-41.447 52.814-60.484 80.345zm-1010.3-360.78c158.86-184.76 137.73-378.72 49.969-535.16l18.659-19.19c101.49 166.77 123.09 403.89-63.942 587.65-1.9697-11.08-4.6854-33.296-4.6854-33.296zm633.49-207.21c22.821 38.842 36.775 78.169 60.89 117.23l-57.22 77.328zm-683.48 122.37c-1.4816-121.91 0.3701-368.92 0.3701-368.92l53.599-40.998c64.133 77.849 99.133 283.04-16.041 419.61-8.3754-6.1013-31.18-3.5631-37.928-9.6898zm761.01-24.601c-147.01-247.96-72.246-428.77 69.43-589.33 0.4133 12.374 1.3427 24.699 2.4632 37.023-121.64 139.27-170.28 345.25-51.021 531.6zm-266.2-36.022 66.949-91.225s12.691-36.286 23.381-47.006l12.276-10.862c4.0903 3.9444 11.874 8.936 11.637 13.471-0.2526 4.281-6.572 26.923-6.572 26.923l-78.298 114.49s-23.76-4.1646-29.374-5.7936zm356.11-442.79c2.1142-2.3897 28.689 8.6985 28.689 8.6985l1.7012 374.88-53.203 34.183c-15.437 7.8403-136.06-238.18 22.812-417.76zm-560.49 157.92c24.226-32.997 49.744-61.563 73.222-91.872 6.066 2.0872 22.014 2.4417 22.014 2.4417 1.6827 0.90606-5.3651 25.144-22.735 41.854-17.456 17.791-59.029 66.546-60.247 91.107-0.3756 7.5735-17.374 16.251-17.374 16.251l-12.095-12.748c3.7059-18.678 9.499-32.996 17.215-47.033zm-151.09-143.8 53.311-69.159 5.3169 183.76zm-182.18-407.52c50.757-54.027 95.613-116.03 137.99-180.11 38.675 63.622 81.567 128.67 135.24 181.41-48.865 53.589-95.173 117.88-135.58 181.61-38.8-62.06-82.18-126.29-137.64-182.91zm-202.53 16.198c24.155-23.393 44.232-49.296 60.592-77.486 18.764 28.47 36.473 57.803 61.556 81.103-23.146 24.812-30.566 32.703-62.125 79.007-17.811-28.86-36.301-57.312-60.023-82.625zm559.2-74.809-105.55-131.93h51.113l62.859 93.362 75.288-8.5949-26.495-84.767h31.193l22.033 83.406c46.178 1.0946 91.315 4.6879 135.14 9.079l22.523-92.485h31.768l-28.831 96.779 85.021 22.318 75.755-119.1h37.638l-107.36 153.77c-140.36-42.159-253.1-37.327-362.09-21.837zm-564.45-67.401c-1.6426-11.659-2.0075-23.158 0.1121-34.347h22.804s-0.145 8.4064 0.1733 15.556c0.013 45.171 54.07 39.358 62.052 10.904 2.8197-10.052 2.3797-26.133 2.3797-26.133l0.095-120.18h-23.158v-23.335h68.589v23.335h-21.39v119.85s-0.1728 0.51847-0.057 2.5901c0.4048 7.2335 0.6398 24.57-3.1957 32.704-21.672 54-100.94 41.753-108.41-0.94688zm868.76 12.18 24.049-76.79 71.934 0.0803-55.056 87.715zm-174.1-18.678-15.202-58.03h126.82l-16.376 64.878c-33.495-5.6552-64.08-6.7347-95.246-6.8484zm-152.03-58.03h50.622l19.717 60.05-29.202 3.3068z" fill="#d40000"/>
   <path d="m2162.6 693.36 122.23 146.23c25.464-9.1089 153.82-23.753 230.82-6.1857 13.414 52.563 27.612 105.65 42.625 153.5 0 0-4.8101 5.6125-8.2813 9.1875-49.172 56.664-14.368 111.4 30.628 129.25-8.1125 16.853-94.343 58.811-146.85 53.821 0.087-0.5232-16.129-38.51-48.992-25.67-11.235 4.3897-15.866 12.84-24.562 21.094-31.369-9.4586-72.793-30.085-94.324-52.761 40.293 20.059 79.966 30.859 119.81 25.543 0 0-4.9409-4.1151-10.545-6.6884-3.3696-1.5459-11.48-6.4298-18.031-10.844-18.518-12.478-30.816-27.521-43.5-53.25-14.599-26.068-16.974-54.119-24.974-78.85-4.2339 12.677-6.0588 46.158-17.12 53.1-2.8671 1.8786-3.3926 1.3102-5.5313-5.7813-8.4406-25.745-39.337-22.486-49.531-4.1563-5.1666 15.755-4.4238 22.677 2.1066 37.315l-18.732 10.404-0.032 3.0938-11.531 5.5-2.4062-1.625c-53.602 25.889-106.15 52.834-160.84 77.632 0 0-29.045 48.191-55.627 67.364l-1.034-163.65-78.719-71.094-0.375 38.937s3.7763 3.9532 5.6563 5.9376c1.0773 273.96 0.1746 543.47 0.3434 792.19l0.3643 228.96-4.8035 0.285-0.2481 26.704 5.4168 1.2133-0.7608 37.712-2.8124 0.1876-0.4063 23.875 4.2931 0.6715-0.075 134.77-4.25 5.4688 0.094 38.469 82.188-78.094 1.8348-88.82c64.83 12.239 132.59 58.823 132.59 58.823-11.409-74.392-90.261-135.69-135.55-147.94l0.1434-176.26s-33.664 14.04-50.3 16.195c-8.2364 1.1673-11.407-0.083-15.344-6.0312-2.8653-4.3303-2.9352-8.2871-0.3437-17.25 1.2105-4.1877 1.1669-5.2856-0.3438-9.5-2.1199-5.9145-2.1361-8.5892-0.062-19.031 2.1732-6.1354 1.2172-9.4076-1.0625-15.094-2.4481-6.0818-2.6394-7.217-1.5938-10.719 2.7543-9.2283 2.9151-10.725 1.4688-14.844-2.8284-8.0543-2.9208-13.87-0.3125-19.094 12.12-20.339 39.288-15.322 54.031-14.593 7.4706 8.3139 11.934 12.951 12.625 0.9062 5.2306-14.38 25.518 0.3402 34.991 6.4521 80.648-108.07 120.43-254.37 19.259-437.48l-56.281 45.036 0.1303-56.374c74.625-47.957 158.59-157 194.95-242.98 12.089 14.169 25.974 28.091 39.056 42.375l-8.5506 14.31-2.5233-1.4298c-23.153 44.17-86.023 127.71-87.039 126.87 23.274 43.125 43.996 86.676 61.615 130.74l4.6154-2.0724 4.1262 13.275-8.1399 2.4358c27.535 90.324 28.437 173.96 7.7178 251.08l4.8595 20.494s29.135 28.22 36.996 36.515c20.527 19.869 43.406 42.062 43.406 42.062l26.594-26.031-1.5441-2.2135 233.11-231.44 14.538 13.896c-142.77 143.79-390.76 392.04-390.76 392.04l-8.5938 1.25c-4.886 0.7237-12.114 1.0403-16.719 0.7187-7.5814-0.5285-8.5122-0.3582-14.594 2.5313-6.8553 3.2582-12.514 8.0847-20.094 17.156-3.4665 4.1484-5.8452 5.9338-9.6876 7.3124-48.604 28.985-4.6628 87.344 36.677 56.626 30.298 57.884 55.955 125.31 70.104 192 0 0.4874-5.4375 2.3438-5.4375 2.3438l-108.94 161.53h41.906l4.375-7.4374h-31.406l100.22-144.75c127.5 34.73 244.52 39.669 363.28 19l103.38 125.75h-41l5.8437 7.4374 53.063 0.8438-121.51-143.39c-43.506 11.626-158.26 20.978-230.24 8.7955-11.015-53.475-29.167-111.59-42.598-157.84 68.7-53.771 17.118-124.75-25.278-134.65-2.0583-3.8878 85.975-57.403 148.69-53.692 17.959 43.131 57.278 36.745 71.396 4.6501 26.008 9.5486 59.759 19.084 86.552 40.389-35.731-7.8314-77.134-12.107-111.2-12.631 64.812 25.128 82.994 78.081 90.977 128.03 1.404 8.2827 5.8438 18.977 5.8438 18.977 5.5211-18.034 10.034-36.664 20.906-52.102 4.994 17.663 23.392 31.38 41.938 20.875 10.755-7.7904 14.501-21.17 11.094-39.656-0.9465-5.1377-1.4231-7.9571-1.4231-7.9571l14.399-7.7941 1.8756 1.5962s15.78-6.7367 23.616-10.548c1.2297-0.5981-1.4405-3.0497-1.4405-3.0497l145.61-68.664c-0.5517-0.3065 36.709-51.172 58.099-70.79 0.6433 60.949 0.4908 85.998 0.4575 158.36l8.2187 8.0313c7.293 7.1196 23.193 21.89 59.031 54.812 8.0688 7.4121 13.705 11.079 13.705 11.079l-1.1036-1065.9-1.195-0.0001-0.02-20.506 1.6811-0.0884 0.029-53.334-1.5072-0.87491-0.013-16.805 2-1.4647 0.1382-143.98-2.3107-0.39737-0.1394-34.534-81.159 85.837 0.6106 80.946c-36.221-4.6843-81.03-27.859-111.88-46.562-9.9688-6.078-15.532-7.6967-15.219-4.2188 4.3365 48.194 74.1 121.9 127.72 141.19l0.092 181.31c0 0.097 12.661-6.3268 20.392-9.5778l1.1612 3.2228 17.284-7.1545 1.4028-3.7269 14.983-1.8944c0.1652 3.0604 0.6805 2.6412 0.6805 2.6412 13.351 3.7311 19.258 12.835 13.88 23.06-1.8799 3.4262-2.2439 8.2873-0.6875 9.5625 5.785 9.1295 7.3014 17.173 0.3125 25.812-2.6913 4.4139-2.6723 6.9057 0.094 11.594 7.2222 14.566 3.1183 13.605-2.3124 22.281-1.2269 6.5575 5.9599 10.831 3.5937 17-1.1054 4.0717-5.3998 8.8416-8.3125 11-3.4136 2.4734-6.2188-2.125-6.2188-2.125s-10.817 4.6392-18.594 6.125c-7.6485 2.4804-20.814 6.9217-25.375-3.375-2.6127-5.8985-0.5129-11.285-0.6873-17.875l-11.219-1.2188-0.4062 29.938c-6.4201 3.4139-31.938-9.625-31.938-9.625-109.49 141.92-106.43 299.32-25.219 431.19 0.7915 2.1159 57.219-38.594 57.219-38.594s-0.1147 33.373 0.375 51.469c-71.736 59.323-141.03 139.15-190.56 237.56l-30.688-36.375c5.2811-4.6674 5.4818-12.067 5.375-17.656l22.281-33.219 0.1874-8.625 57.936-80.928c0.9068 4.8405-59.777-108.64-67.859-145.59l4.0154-1.0905c-27.235-103.03-21.648-175.19-1.9776-259.22l-5.6147-5.4194-76.436-76.335c-6.2058 5.734-12.395 11.49-18.568 17.267-0.9475 0.8866-5.607 0.3595-6.5538 1.2471-40.229 37.714-78.896 75.576-117.18 114.91-0.9867 1.014 0.6785 5.2108-0.3077 6.2265-38.339 39.486-78.086 76.964-116.89 116.38l-14.165-13.511c137.39-137.35 396.22-392.47 396.22-392.47s1.1215-2.024 2.909-2.0919c7.2013-0.2745 13.638-1.9112 20.75-3.9688 8.5315-1.981 9.9078-2.6067 13.5-6.3125 2.2-2.269 5.8-5.4466 8-7.0625 3.7439-2.7513 12.32-9.9586 25.719-21.625 8.1895-7.1324 13.24-17.511 13.063-26.781-0.3163-16.502-11.239-30.574-25.313-32.594-5.8478-0.8397-17.316 2.204-23.125 6.125-4.4288 2.9886-6.5128 4.3538-8.4145 3.0173-28.042-56.862-55.329-128.38-66.898-187.39-0.6205-3.7217-0.2855-4.8209 2.75-9.5 1.8876-2.9102 5.9935-9.3312 9.1562-14.281 25.064-36.242 54.134-80.268 81.406-120 4.529-6.6 13.313-19.312 13.313-19.312l6.6544-10.919h-43.234l-5.3347 8.5h35.585l-105.86 152.36c-195.07-63.766-354.93-23.348-358.77-22.476l-105.46-129.88h48.227l-5.8427-8.5zm94.941 0 5.3676 8.5h50.594l-2.8687-8.5zm84.369 8.5h31.191l-1.7915-8.5h-31.995zm55.817-8.5 1.979 8.5h126.82l2.2517-8.5zm155.06 8.5h31.77l2.3917-8.5h-31.957zm62.883-8.5-2.7241 8.5h72.042l5.3981-8.5zm308.08 58.794 1.124 23.617-51.936 54.739 0.065 76.428-15.12-3.5089-0.601-78.983zm-14.6 50.35c0.4405 23.41-3.3505 45.85 2.8437 69.719 3.048 11.745 9.2241 25.52 10 39.406l-17.135-0.40494c-2.1668-7.0117-3.0158-14.742-5.5836-23.376-6.328-21.278-11.457-43.695-6.7813-66.25zm-373.91 38.18c0.6226 1.1633 2.6719 11.051 4.5625 20.227 8.993 50.357 21.048 87.723 33.344 125.75 15.628 47.913 38.762 108.23 61.25 136.19 2.9809 3.4846 4.4456 7.4558 3.375 9.1874-1.8127 2.9328-10.994-1.1627-17.156-7.6562-2.5225-2.6592-7.3722-10.106-10.938-16.781-7.8572-14.711-18.417-36.116-19.469-39.5-0.4274-1.375-4.5699-11.95-9.2187-23.5-8.1315-20.203-12.953-34.034-19.75-56.5-5.3924-17.823-10.358-36.474-16.375-55.25-9.8369-30.713-15.529-55.135-21-83.375-0.8031-4.1477-2.1838-8.9879-1.6768-9.9767 3.1038-2.2431 11.558-1.3463 13.052 1.1875zm5.5 1.9142c-0.9709-0.81317 8.9261-0.96567 12.094 1.6874 0.9395 0.93948 2.6187 6.8474 4.0626 14.438 8.9524 46.328 22.429 94.202 38.094 139.56 12.515 36.24 26.191 71.126 43.219 99.375 5.3433 9.4125 12.571 19.472 21.781 30.344 5.1593 6.0886 5.58 6.9464 4.1875 8.625-1.7062 2.0551-4.6856 1.7926-10.438-0.9375-5.3608-2.5434-11.169-8.1187-16.625-16-1.8654-2.6938-4.6975-6.7436-6.3125-9-25.122-43.43-40.37-84.687-54.188-126.59-14.168-42.968-26.905-86.422-35.562-136.5-0.1042-1.6666-0.2083-3.3335-0.3125-5zm31.555 6.528c2.2035 2.2392 3.462 6.5216 5.3827 15.472 10.456 42.955 19.02 81.335 31.375 116.59 6.6458 18.966 12.403 37.915 19.531 55.781 11.388 28.539 25.318 54.537 42.438 76.187 5.6439 7.1273 15.895 15.92 24.5 21.031 5.9636 3.5435 6.8613 4.4466 6.4687 6.5-0.5222 1.8424-6.3395 2.6124-8.25 2.4687-9.4171-1.6067-23.338-8.907-27.312-14.312-28.798-31.117-49.388-82.04-64.387-123.82-25.772-71.932-46.563-161.79-42.609-158.99-0.2612-2.0894 10.314 0.31048 12.863 3.0957zm12.383 2.597c0.9331 0.0168 1.9842 0.17994 3.1562 0.5 5.3797 1.4686 6.0789 2.2218 7.375 8.1562 9.2075 41.076 18.964 77.299 29.844 111.75 11.072 35.06 22.466 68.128 40.219 102.81 13.019 25.313 29.498 42.803 47.219 51.656 5.0891 2.542 9.6301 4.9827 10.094 5.4374 0.4638 0.4558 0.3391 1.778-0.2812 2.9376-0.937 1.7502-2.0113 2.1047-6.3438 2.0312-8.038-0.1386-13.678-2.6398-22.312-8.4375-22.633-15.608-42.423-50.952-51.156-71-10.656-24.461-20.447-49.879-29.281-77.594-15.851-49.73-25.73-82.632-32.969-124.59 0-2.4109 1.6383-3.7066 4.4375-3.6562zm339.19 67.125-0.156 14.562c-56.99 3.7824-115.42-20.314-162.39-41.998 35.386 46.93 73.149 88.574 162.39 97.171l0.1596 15.035c-116.23-1.6457-198.1-119.35-193.79-148.69 47.805 30.881 134.17 66.594 193.79 63.919zm-320.8-61.65c2.7936 0.12495 6.5595 1.3094 8.0313 2.7812 9.5001 35.46 16.421 74.83 32.125 114.34 19.297 48.553 30.001 91.406 65.781 131.41 11.128 11.435 32.937 11.094 32.937 11.094s-2.7551 6.1879-6.4687 7.2187c-7.6653 1.1604-13.222 1.504-18.815-0.2994-20.723-8.7546-36.564-30.89-44.748-45.888-7.6643-11.241-26.366-57.559-41.781-104.78-16.783-51.412-30.612-104.87-29.031-115.62 0.5909-0.22677 1.0377-0.29165 1.9687-0.25zm19.156 5.9688c1.3695 0.002 3.1874 0.51932 5.375 1.5625 2.3346 1.1133 3.3493 1.8027 4.5625 6.1875 0.7915 2.861 0.6588 7.2805 2.0625 14.469 8.0792 37.024 19.221 67.087 30.281 96.375 10.509 27.827 21.784 55.145 35.687 79.844 7.0202 12.44 13.982 24.076 18.375 28.469 11.973 11.974 32.29 12.567 38.281 0.6875 3.3182-6.7557 2.6396-17.454-3.9319-22.996-5.094-4.8619-16.635-2.8056-16.943 3.0587 0 1.5598 2.8717 0.8678 7.0313 0.375 11.616-1.3442 15.256 19.225 0.3124 22.656-18.918 4.3421-32.043-21.232-15.344-36.906 28.303-19.191 49.907 7.0324 43.219 32.25-6.4621 14.906-17.292 22.5-31.594 23.031-18.46 0.5918-26.101-5.1146-45.031-32.625-21.697-34.829-31.113-68.821-46.406-106.91-14.464-36.021-24.092-74.428-28.625-107.97 0.3989-1.0395 1.318-1.5645 2.6875-1.5625zm17.95 5.9482c1.669 0.056 5.1872 0.93774 6.7374 1.8955 0.9283 0.57353 2.2638 1.8513 2.2638 1.8513 25.449 92.863 46.67 148.49 68.274 187.75 0 0-0.3523 7.2201-1.7881 9.2703-2.5749 3.6757-3.8344 2.7722-7.1875-3.0312-13.593-26.311-26.532-55.364-38.594-85.313-14.194-35.244-26.786-71.726-32.125-106.44 0.2803-4.4714-0.7243-5.7284 2.4188-5.9893zm171.67 53.083c3.5997 0 6.5313 2.9003 6.5313 6.5s-2.9316 6.5312-6.5313 6.5312-6.5313-2.9315-6.5313-6.5312 2.9316-6.5 6.5313-6.5zm-529-1.19c-7.546 10.275-13.73 47.086-21.583 47.53-8.6344-0.13458-19.142-5.0891-25.917 2.7197-8.231 9.4878-3.1807 19.973 6.9688 25.75 4.6639 2.3087 14.594 2.8546 20.625 1.125 24.696-8.2822 34.078-48.35 19.906-77.125zm553.5 9.6562c5.2023 0 9.4062 4.2352 9.4062 9.4375s-4.2039 9.4062-9.4062 9.4062-9.4062-4.2039-9.4062-9.4062 4.2039-9.4375 9.4062-9.4375zm-553.06 4.4688c8.4433 21.222-0.8997 46.607-11.188 55.156-9.4663 7.8669-24.33 8.8802-32.812 1.2188-7.0722-6.6426-3.9243-22.595 9.25-21.406 4.4367 0.14299 9.7117 4.1743 12.688 8.4375 8.5837 0.88355 18.468-42.636 22.062-43.406zm585.88 5.1875c5.868 0 10.625 4.757 10.625 10.625s-4.757 10.625-10.625 10.625-10.625-4.757-10.625-10.625 4.757-10.625 10.625-10.625zm37.625 7.5c5.9913 0 10.844 4.8524 10.844 10.844 0 5.9913-4.8524 10.844-10.844 10.844-5.9913 0-10.844-4.8524-10.844-10.844 0-5.9913 4.8524-10.844 10.844-10.844zm-350.16 49.312c1.6187-0.011 2.7519 1.5436 3.8126 4.6562 2.2046 6.4699 2.1544 7.2246-1.2813 11.563-33.354 46.167-2.9475 93.376 45.375 98.5 4.0767 0.2894 6.1232 4.8743 8.2813 10.219-0.2945 2.5235-0.317 2.52-11.281 2.7187-7.1693 0.1309-12.915-0.3166-16.5-1.2812-16.933-4.5607-37.676-19.856-46.156-34.031-9.7716-16.335-11.403-33.225-5.375-55.75 3.8687-14.456 8.779-24.004 16.375-31.875 3.0308-3.141 5.1315-4.7078 6.75-4.7188zm316.19 5.125 0.5624 158.41-16.875 6.1563 0.6876-168.47zm31.928 6.1143c21.02 52.189 21.95 100.02 2.9698 143.55l-19.169 2.7725c26.293-61.313 15.11-105.2 0.2519-147.58zm-1008.2 8.6982 68.25 64.406 2.375 717.53-10.875-3.8438-4.343-705.76-55.407-50.807zm666.5 2.0625c0.1142 0 0.2296 0.017 0.3438 0.031 1.826 0.2206 3.4968 2.5199 5.0312 6.875 1.8071 5.131 1.7781 5.2819-0.25 10.375-9.3657 22.954-1.7221 44.796 21.406 51.688 5.4904 1.7364 6.4026 2.6299 9.625 9.4374 2.0934 4.4234 3.0314 6.0215 2.2187 7-1.2018 0.8757-4.1427 1.2838-12.844-0.5937-34.412-11.742-46.901-49.382-31.25-79.25 1.9528-3.4134 3.7375-5.2713 5.375-5.5313 0.117-0.019 0.2297-0.034 0.3437-0.031zm-274-2.8438s7.1916 25.395 6.5 31.156c-1.8224 11.13-17.638 28.914-31.469 35.406-12.832 4.9134-32.208 2.443-40.312-6.0938-29.453-34.467 25.493-69.072 39.312-33.188 8.3008 23.544-25.47 29.115-26.969 11.031-0.01-4.6637 1.5003-6.1227 5.8437-9.1563 3.8635-2.6984 3.4181-5.0937 0.094-5.0937-12.753 4.6484-13.045 16.408-7.309 23.817 11.49 12.013 25.711 5.0168 35.507-3.8005 13.195-11.877 15.783-28.925 18.802-44.079zm284.95 26.197c0.6623 0 14.162 32.256 15.948 36.851-0.4476 3.2373-3.9736 2.9989-9.9947-1.2036-6.1146-4.2693-7.9407-7.2853-10.531-17.188-0.774-3.52-2.089-16.331 4.5778-18.46zm-273.98 13.616c2.9682 0 6.0584 10.913 4.6562 16.5-2.4283 9.6748-27.782 26.029-45.594 29.406-3.575 0.6775-7.4 1.3964-8.5 1.5938-3.6837 0.6587-7.9869-1.4027-12.469-5.9688-3.1596-3.2197-4.6663-6.4239-3.9053-7.1848 0.6185-0.6185 8.7875 0.8012 15.714 0.6946 19.41 0.2249 34.39-13.696 45.91-30.291 1.7552-2.613 3.6389-4.75 4.1875-4.75zm-385.78 8.0778s13.14 11.891 20.061 18.703c-0.7415 31.638-12.42 65.938-12.406 94.219 0.2795 24.604 16.199 45.09 17.812 66.5 0.9599 13.849-3.112 34.418-9.9375 50-6.3553 14.507-9.6975 29.977-9.6875 45 0.8084 34.954 25.914 73.171 17.094 107.75-8.2859 32.484-17.719 51.244-15.219 68.5 4.8226 33.284 22.52 62.782 17.812 90.469-4.3835 25.781-16.027 51.528-14.781 74.781 1.438 26.846 11.478 49.29 14.312 73.781 1.846 15.948-2.6584 40.762-2.6584 40.762l-18.413 1.5186c10.124-37.711-4.9613-71.81-10.741-108.06-4.9205-30.864 8.9095-55.423 13.031-81.75 2.5597-16.35-0.3357-31.924-8.4375-52.75-16.01-38.454-10.256-63.516 1.2813-97 14.262-35.66-5.3538-63.896-10.25-98.063-2.5185-29.442-0.5593-50.26 10.5-76.437 8.2427-25.203 10.571-39.815-1.7188-64-7.7675-15.286-9.7995-24.313-9.8125-44.438 4.0136-39.928 14.788-62.318 12.158-109.48zm394.56 15.922c2.8624 0 4.2813 2.0197 4.2813 6.0937 0 7.4502-11.108 16.887-30.75 26.125-10.187 4.7917-16.102 5.5056-22.062 2.6875-5.5644-2.6323-5.29-4.938 0.8125-6.7188 15.354-4.4803 26.25-10.612 38.656-21.75 3.9447-3.5403 8.0289-6.438 9.0624-6.4374zm-88.879 5.1384c50.669 54.233 100.36 82.146 138.34 95.194l-5.9761 14.175c-49.91-19.331-100.83-46.227-143.96-104.03zm97.629 8.8616c1.366 0 6.5313 6.5402 6.5313 8.2812 0 1.0181-1.8797 4.2944-4.1875 7.25-3.3558 4.2961-6.3115 6.5077-14.688 11.094-11.346 6.2115-18.203 7.7268-23.125 5.125-4.8921-2.587-3.2467-4.7573 8.9687-11.938 6.3062-3.7065 14.72-9.6888 18.688-13.281 3.9672-3.5933 7.4673-6.5312 7.8124-6.5312zm-134.22 8c41.511 56.798 94.964 94.537 157.81 114.67l-9.8771 13.354c-57.415-19.778-113.56-55.56-164.85-118.57zm144.97 7c2.087 0 6.7813 5.292 6.7813 7.6562 0 1.1326-0.9189 3.2104-2.0313 4.625-2.221 2.8228-13.808 11.538-18.75 14.094-3.8631 1.9975-6.7633 1.9675-10.969-0.125-4.9978-2.4879-4.1447-4.5719 4-9.8126 3.9875-2.5652 10.016-7.3267 13.406-10.562 3.3903-3.2367 6.7926-5.875 7.5624-5.875zm-166.99 4.1395c-1.1816 1.487-61.115 138.76-188.1 236.1l-0.5984-22.798c70.335-55.78 121.47-132.16 160.04-198.84zm179.05 9.8605c1.9211-0.054 3.2743 1.2503 4.625 3.8124 1.614 3.064-0.1468 5.7931-7.25 11.156-4.4366 3.3506-6.0843 4.0027-9.75 3.9375-9.4494-0.1694-9.2129-2.4465 1.1562-11.719 5.381-4.8109 8.7485-7.1195 11.219-7.1874zm245.22 6.7812 26.469 2.0312c7.1299 4.9599-103.46 77.336-180.12 70.844l2.0313-17.344c67.308 1.9182 153.47-52.402 151.62-55.531zm-227.05 6.7755c6.0794 3.4093 13.655 7.4419 11.768 8.7558-2.8172 1.7596-20.772 0.6191-24.906-1.5938-3.0963-1.6567-2.9217-2.5227 1.3438-7.3125 5.2254-5.8677 6.1315-2.9982 11.795 0.1505zm-235.95-4.3067c-41.946 73.998-91.903 141.54-149.73 185.55l-0.7705-39.139c55.036-42.367 96.696-119.76 96.804-120.03zm525.36 4.7171 12.827 7.4927c-79.982 74.029-166.37 105.94-249.38 97.944l6.6779-14.997c134.71 10.643 224.16-89.011 229.87-90.44zm19.44 2.6251s4.3-0.5419 3.8426 0.3358c-26.558 26.025-63.016 53.806-86.897 69.311-113.09 116.14-209.9 207.78-308.41 311.24l-15.747-16.478 14.258-15.091c0.045-29.804 36.547-63.229 58.188-88.969 9.0306-10.176 25.987-36.348 24.062-47.344-0.6585-2.5172-0.75-3.4687-0.75-3.4687 34.229-6.834 42.419-34.588 43.156-59.125 1.5979-16.403 3.7853-31.301 9.3116-44.78 154.91 12.411 254.72-101.63 258.98-105.63zm-269.95 17.126c17.572-0.059 30.852 13.844 30.813 33.562-0.145 8.2445-3.0494 14.503-14.229 36.314-10.826 18.638-12.239 29.987-16.493 51.516l-11.01-9.8929-20.029 18.047 0.2794-26.298s6.9103-8.7782 18.083-21.322c14.158-15.717 26.972-35.956 26.385-47.321-0.3779-11.372-12.39-20.629-24.675-13.196-10.675 7.4604-15.6 20.958-21.885 61.312-1.1135 7.1495-2.1568 15.567-2.7402 17.404-1.576 4.9674-17.02 19.57-17.02 19.57-1.31 0-7.4094-29.62-7.4094-29.62l-15.597 2.5767c18.076-19.62 32.098-43.282 41.213-68.059 8.3752-15.288 19.037-24.432 34.312-24.594zm-339.41 6.2813s-31.059 64.515-85.584 106.48l-0.3535-25.257c31.679-24.568 55.817-66.902 55.781-66.812zm747.52 1.6358c-107.81 111.63-248.51 317.18-73.892 605.96l23.068-26.618c-140.61-261.17-40.961-396.53 51.593-532.36zm-582.95 9.2079c31.563 22.441 64.516 44.724 107.12 58.885-2.2704 7.5897-60.842 56.878-18.812 102.45 1.7559 2.3852-2.7133 8.1915-9.5562 16.416-20.08 27.442-40.125 46.984-56.906 77.877l-0.6874 58.03-16.781-14.813zm578.81 5.3437 0.7188 33.094c-160.18 194.68-142.15 369.97-51.601 531.42l-17.345 17.595c-148.41-255.43-55.817-447.99 68.228-582.11zm-395.18 19.576c-7.0645 18.656-37.959 50.614-37.959 50.614s4.0928-31.122 6.6678-40.941c1.9654-7.4947 6.404-17.621 10.782-22.468 12.471-13.712 24.917 1.8544 20.509 12.795zm-212.53-17.499 3.0025 260.83-22.514-22.698-3.3134-199.45zm-30.411 51.045 4.4776 177.1c-22.473-53.059-54.063-111.14-54.695-110.57 0 0 25.85-34.297 50.218-66.522zm177.83 55.409s3.4338-2.8814 8.8203-9.0616c11.678-11.803 12.735-11.882 11.656 4.0312-0.4149 6.1201-0.062 13.969-0.062 13.969 6.8339-3.9659 22.951-23.001 27.503-19.57 3.5207 3.3067 6.3627 10.202 6.4347 20.913-0.3981 20.97-12.262 40.221-31.062 46.5-51.902 16.075-86.713-43.787-50.671-81.74 3.5811-3.771 13.788-10.757 18.693-9.3744 6.0703 11.093 5.8579 23.4 8.688 34.332zm515-18.8c3.018 8.2572 6.8805 16.431 17.395 20.125-1.6136 253.6-0.4063 702.58-0.4063 702.58l51 47.857-0.3349 20.909-67.589-61.873s-3.6285-529.48-0.065-729.6zm50.646 11.751c1.8158 24.53-2.338 50.364 1.874 75.562 4.158 17.425 10.453 33.134 10.969 50.281 0.4714 15.68-0.5472 24.602-7.25 46.5-4.6778 15.282-5.1445 17.718-6.2187 33-2.5239 21.273 4.3509 40.55 9.625 57.5 7.0099 22.475 5.0561 49.653-6.1563 85.5-4.0353 12.9-4.8066 18.341-4.2187 30.031 1.5479 24.543 10.32 47.876 14.781 71.969 2.4157 13.806-0.056 31.866-8.5625 62.5-3.1646 11.397-6.4997 31.246-6.5 38.75-0.0003 8.0499 2.5721 23.204 5.0625 29.75 11.794 30.998 12.371 36.548 12.979 55.176 0.085 13.987-3.9534 28.138-8.9161 40.449-8.2653 19.67-2.8343 39.865 0 61.969l-20.33-17.368c-5.9965-18.921-3.888-36.615 1.6741-50.725 7.9087-22.096 9.889-24.144 9.7795-36.854-0.1453-16.856-9.8081-36.786-13.811-48.646-7.0966-21.045-7.1193-41.681-0.062-63.938 3.4645-10.928 8.4687-32.362 9.5937-41.062 2.1623-16.727 0.5254-29.93-7.875-63.5-4.0978-16.375-4.9645-22.698-5.25-39-0.2644-15.099 1.9284-30.799 6.7813-49 6.9828-28.927 6.9034-46.293-2.1875-73.125-7.3498-22.178-9.4073-37.216-7.5312-54.875 1.0877-10.244 3.8884-19.851 8.5937-29.438 8.7078-21.748 10.041-42.551 3.5625-63.312-11.144-42.496-10.959-64.086-9.8606-102.44zm-57.126 13.906c-1.7715 173.79 0.029 372.76 0.029 372.76s-51.488 36.047-51.279 34.173c-66.34-109.39-91.624-270.53 24.25-415.88 0 0 18.65 7.9579 27 8.9374zm-783.03 41.426c93.892 175.31 106.11 352.41-49.133 534.11 4.9987 16.059 4.1795 31.027 1.6907 45.682 30.267-23.562 272.98-265.98 68.568-603.52zm478.46-14.27 46.115 2.7066 3.1036 39.668-14.906 14.781s-0.2736-8.1989-0.4688-15.531c-0.2385-8.9647-1.5068-16.807-2.3438-16.531-0.7752 0.2552-1.6167 10.719-2.2812 22.125l-0.6875 17.031-5.1563 5.1563c-6.8777 6.8682-8.2664 6.331-8.5312-3.3438-0.5757-21.035-0.5262-22.474-2.0625-20.938-0.8656 0.8663-1.353 8.0654-1.5625 18.938-0.1664 8.6344-0.7748 16.908-1.3438 18.375-1.1693 3.0139-9.9379 10.844-12.156 10.844-2.1372 0-2.0163-3.0426-2.0312-16.125-0.013-11.041-1.164-17.1-2.9376-13.031-0.4193 0.9625-1.1567 11.932-1.3124 20.844-0.1558 8.912-0.7399 17.051-1.2813 18.063-1.9144 3.5765-10.972 11.235-12.562 10.625-2.2865-0.878-2.8565-7.4259-2.7812-18.375 0.037-5.363 0.876-9.8885-1.1876-11.344-2.0632-1.4553-2.4328 4.7484-1.875 20.5l-0.1562 17.125-5.7812 6.3125c-9.1623 9.4366-9.7926 8.9846-9.8126-7.3125 0.4058-12.896-0.05-18.554-2.5937-17.531-2.5437 1.0226-1.5322 7.2575-1.0313 19.969 0.4485 11.362 0.3057 17.054-0.4687 18.5-0.6155 1.1504-3.5874 4.5018-6.5937 7.4375-3.0065 2.9344-6.714 7-7.1563 7-0.7-13.69-1.875-43.156-1.875-43.156l-48.094-2.125s9.8475-11.69 14.031-13.938c2.172-1.1659 5.5682-1.3038 17.625-0.7812 8.2187 0.355 19.27-0.3423 20.25-0.7188 3.6152-1.3868-3.9154-2.6265-14.531-3.3124-7.0836-0.5082-8.9193-0.3211-16.781-1.4688l7-7.2188 5.25-5.2187 15.344 0.5c9.2846 0.3128 16.181 0.2541 17.25-0.3437 9.0829-1.7899 0.5763-3.8593-9.7812-3.875-10.102-0.017-15.812-0.035-15.812-2.25 0-2.2565 11.307-12.518 14.531-13.188 1.6621-0.3444 9.8875-0.6834 18.281-0.75 14.421-0.1132 19.654-0.3251 18.844-2.7187-0.8107-2.3936-10.361-1.6879-16.719-1.9687-17.654-0.024-18.471-0.6931-6.4062-11.25l5.8437-5.125 11.062 0.3124c16.696 0.4694 24.781-0.1986 24.781-1.7812 0-1.4286-10.868-2.8125-20.094-2.8125-5.517 0-10 0.094-10 0.094 4.1226-5.3685 8.5443-9.7218 13.375-14.5l14.906-0.2812c10.882 0.1629 17.566 0.5784 17.75-1.4062 0.1837-1.9852-3.8993-1.9683-8.9063-2-6.7709-0.043-14.812-0.6246-15.875-1.6876-1.1425-1.1422 0.9914-4.326 5.7187-8.5624l4.875-4.4063zm-456.56 0.5172c129 210.73 82.435 438.44-61.404 580.17l-4.2205-27.652c135.79-165.13 159.5-335.63 49.65-536.25zm239.91 28.295c-23.16 34.825-58.571 69.178-71.936 97.615-2.7376 3.1971-3.6275 10.413-7.876 11.854-2.1186 0-2.813-4.0182-2.2813-13.313 0.4004-7.0009 1.0534-9.3523 4.4376-16.187 18.277-33.368 39.46-57.345 62.844-89.031zm5.4268 3.3715 21.407 1.3607c-4.7567 15.142-11.177 25.95-18.752 35.779-9.7128 12.604-21.398 25.307-35.01 40.809-19.715 22.452-29.595 45.315-28.676 55.368-4.9336 5.2014-8.3553 8.7821-14.62 14.107l-12.486-11.481c9.2552-47.486 54.092-91.116 88.136-135.94zm261.92 19.285 6.9374 0.4063c23.744 1.3925 38.551 2.8455 39.406 3.875 0.5294 0.6386 1.2229 4.2851 1.5625 8.0937 0.5163 5.7906 0.021 9.6424-3.0312 23.438-2.0083 9.0745-4.2592 17.122-5 17.875-2.7347 2.7754-3.8219 0.01-5.0938-12.875-0.7677-7.7763-1.0729-13.443-2.0938-12.813-0.4881 0.3031-1.556 8.6513-1.25 14.875 0.7981 16.208 0.6921 20.176-4.3437 25.063-8.8194 8.5583-9.3057 7.6932-9.9687-7.5-0.2754-6.3012-1.7764-15.494-2.2188-15.938-1.91-1.9085-2.5485 6.8254-2.5625 21.594v15.75l-4.1875 4.5625c-5.4612 5.9254-7.2378 6.8239-9.25 4.8125-1.2418-1.2426-0.7812-3.9404-0.7812-12.938 0-10.547-1.8427-16.618-3.8438-14.594-0.3759 0.3798-0.473 10.582-0.5 19.469-0.028 8.8877-0.14 16.749-0.25 17.469-0.3256 2.1328-10.326 12.188-12.125 12.188-2.1013 0-3.7812-11.606-3.7812-21.094 0-6.3351-1.3515-7.4508-2.6876-3.9688-0.3341 0.8705-0.5937 9.7654-0.5937 17.75v14.5l-5.875 6.0626c-7.8585 8.1304-9.1381 7.6547-9.1563-3.4688-0.016-9.5853-0.6576-14.656-2.5937-14.656-1.1092 0-1.375 4.5407-1.375 15.312 0 7.3895-0.4812 14.702-1.0625 16.25-0.5813 1.5488-3.1581 4.9496-5.7188 7.5626-2.5605 2.6123-5.1895 4.75-5.8437 4.75-1.0838 0-2.631-9.0835-2.2187-13 0.086-0.8252 0.087-6.544 0-12.719-0.2066-14.733 0.7936-14.105-22.719-14.844-27.592-0.8659-27.993-1.032-19.688-9.0624 7.8875-7.6272 6.7737-7.3441 25.062-6.125 14.685 0.9778 16.46 0.9148 17.938-0.5626 0.9018-0.9013 1.405-1.877 1.125-2.1562-0.28-0.2806-5.8752-0.7939-12.438-1.1562-18.17-1.005-19.75-2.3133-12.062-10l4.3437-4.375h18.594c12.548 0 21.084-0.5509 21.548-1.3018 1.2044-1.9493-3.7706-2.4374-15.704-3.1358-6.4087-0.3743-12.444-0.9039-13.406-1.1874-3.0372-0.8958-1.9043-3.9585 3.2187-8.75l4.9376-4.625h16.406c15.234 0 22.688-0.9926 22.688-3 0-1.4203-3.0285-1.9933-10.844-2.0938-11.064-0.1434-18.44-1.2112-18.938-2.7188 2.6961-5.2203 6.4251-8.1437 10.781-12.5l16.9 0.6c16.795 0.5951 22.062-0.01 22.062-2.9375 0-1.5261-7.1896-2.626-16.5-2.0625-5.9927 0.3627-13.25-1.0712-13.25-3.1875 0-0.9094 2.4083-4.0697 5.375-7l5.4063-5.3125 16.344 0.6562c9.1165 0.3678 18.84 0.2759 19.562-0.2187 2.7183-1.8574-3.5772-3.3097-13.844-3.9063-15.831-0.9186-16.866-2.151-8.5-10.062zm-569.88 8.75c84.672 151.62 71.986 294.47-18.188 416.03-10.355-6.0287-21.386-9.316-33.187-10.562l-2.2813-366.09zm605.59 59.25c1.6954-0.263 1.6646 2.5268 1.1875 8.4063-0.3834 4.7261-1.09 9.6761-1.5938 11-0.9728 2.558-1.7428 2.6749-9.9687 1.5-9.3634-1.3358-9.229-3.0289 1.0625-13.156 4.9834-4.9032 7.8165-7.5172 9.3125-7.75zm-454.59 6.8126s11.155-0.072 16.729 0.1287c0 0 0.8654 28.368 3.1454 44.734l36.289 1.7448-14.088 14.653-27.523-0.8767s-8.3653-40.272-14.552-60.384zm432.47 17.156c5.1101-0.087 18.527 2.2142 20.094 3.7812 1.2266 1.2269 1.2672 4.2546 0.1876 22.563-0.3896 6.5996-0.7882 20.774-0.875 31.5-0.1587 19.417-0.1613 19.494-2.4063 19.812-2.9588 0.4203-3.2958-0.617-4.0937-13.406-0.4494-7.2009-1.4433-13.504-2.2813-13.781-0.9671-0.3206-0.875 6.0279-0.875 19.156v16.969c-2.8901 2.3975-5.5641 5.5688-8.875 7.25-2.0325 0-3.1197-3.1876-4.125-12.063-0.9987-8.8161-1.9751-15.027-3.1563-13.062-0.277 0.4601-0.1629 10.058 0.4063 17.937l1.0313 14.344-6.375 6.4062c-6.5382 6.5969-7.3592 7.1314-8.4063 5.4376-2.4354-6.5323 1.0139-36.46-4.875-40.25-0.944-0.4973-8.7688-0.7116-17.844-1.0938-15.324-0.6468-24.017-0.9004-26.156-2.75-1.2942-1.1196 5.9389-9.5078 9.6563-11.188 2.6792-1.2092 5.7087-1.2839 18.344-0.4375 14.626 0.9783 22.004 0.871 20.062-1-0.5045-0.487-7.9516-1.5792-13.781-2.1562-11.759-1.1656-15.906-2.3501-15.906-4.5313 2.7378-4.8573 6.0921-7.7177 10.125-11.875l5.6875 0.5937c3.127 0.314 10.525 1.1049 16.438 1.7813s17.848 0.7869 13.031 0.375c1.5643-1.5643-4.5373-3.1707-13-4.2187-15.955-1.9763-17.401-3.7812-9.375-11.688l4.9374-4.8437c8.3802 0.6362 16.845 0.8488 25.156 2.125 6.0823 0.9641 9.375 0.6209 9.375-1.4375 0-1.4406-3.0318-1.3848-10.375-2.8438-2.6639-0.5293-16.397-0.3267-16.625-4.375 3.2402-4.4878 9.0426-12.668 14.875-13.031zm-371.88 34.406c2.4368-0.1353 2.5572 5.7976 2.8125 21.469 0.2796 17.163 0.5575 20.122 2.0312 21.594 1.4087 1.4059 4.9267 1.8908 20 2.6562 23.078 1.1709 23.669 1.5069 15.531 9.3438-5.6608 5.4505-5.9014 4.7632-10.562 4.2187-12.192-1.4242-30.02-1.0988-30.719 0.031-1.2044 1.9487 0.1007 2.3387 11.25 3.1874 13.569 1.0337 17.281 1.5113 17.281 3.8126 0 1.0138-2.3114 3.9928-5.125 6.625l-5.125 4.7812-14.281-0.5625c-15.029-0.6083-22.75-0.8202-22.75 1.2187 0 1.235 8.5806 2.597 22.188 3.9376 3.5317 0.3478 7.149 0.4076 7.3437 1 0.4863 1.4781-6.3858 9.9947-10.625 13.156-3.4506 2.5721-4.6132 1.1382-19.688 0.8125-15.388-0.3324-16.716 0.2502-13.844 3.0937 0.685 0.679 3.2265 0.7545 8.9688 1.1563 9.4182 0.6608 13.938 2.0702 13.938 4.4063 0 2.2295-8.4914 11.018-12.469 12.906-3.5074 1.6639-5.014 1.7401-12.781 0.6562-6.1218-0.8533-7.2841-2.1341-7.125-7.875 0.072-2.588 0.5252-19.353 1-37.281 0.9165-34.61 1.2042-36.372 5.7813-35.719 1.9546 0.2798 2.4142 2.6356 2.9374 14.375 0.5571 12.492 1.0801 14.969 3.1563 14.969 0.7752 0 0.8951-4.9559 0.4063-17-0.7585-18.685-0.7877-21.462 4.9062-26.875 2.5355-2.4103 4.5522-4.341 5.75-2.5938 2.4118 7.3712 1.7242 15.42 2.4375 22.813-0.068 7.4429 2.8278 9.0006 3.5 1.9062-0.339-11.242-0.426-21.331-0.5-33.344l6.9375-6.875c3.6615-3.6328 5.9754-5.9179 7.4375-6zm-44.969 14c2.755-0.4545 18.202-0.1969 20.437 0.3126-3.8849 6.1422-12.16 14.13-17.812 17.656-1.424 0.078-2.8941-14.896-2.625-17.969zm437.41 33.969 3.281 23.094-25.219-1.7188zm-339.81 3.75c0.1665-0.017 0.3226 0.021 0.4375 0.062 1.82 0.6984 2.3375 5.1543 3.0625 26.594 0.3414 10.095 1.0331 18 1.6563 18.75 0.73 0.88 3.8723 1.3126 9.7187 1.3126 4.7452 0 13.688 0.2993 19.875 0.6562 13.493 0.7768 13.849 1.3448 5.8125 9.2812l-5.4375 5.375-16.906-0.6874c-17.333-0.7042-20.219-0.4169-20.219 1.9687 0 1.6214 2.959 2.3951 8.5 2.25 2.2-0.057 7.7125 0.2331 12.25 0.6563 10.123 0.9429 10.329 1.7108 2.7813 9.8437l-5.4376 5.8437-5.2812-0.7187c-8.4916-1.1678-30.804-0.8843-32.094 0.4063-2.0805 2.0806 0.6241 2.9751 10.781 3.5937 15.754 0.9611 18.5 1.427 18.5 3.2187 0 0.8704-2.2291 3.823-4.9375 6.5313l-4.9062 4.9063-20-1.0313c-14.022-0.2376-18.813 0.0005-19.125 0.9063-0.5427 1.5764 1.7565 2.0666 16.219 3.5624 13.883 1.4357 15.904 2.8676 10.625 9.4376-5.7964 7.2123-7.976 8.0258-18.906 6.9687-12.026-1.163-24.316-1.1898-26.094-0.062-2.7687 1.7536 0.075 2.9269 8.625 3.5625 12.945 0.9638 20.5 2.3524 20.5 4.25 0 2.1419-4.2861 7.6458-8.4375 10.812l-3.4062 2.5938-14.781-1.5626c-14.722-1.5679-22.255-0.7867-20.156 1.3126 0.6099 0.6105 6.09 1.4679 12.156 1.9062 11.108 0.8027 16.625 2.2414 16.625 4.5312 0 0.6845-2.8292 4.0465-6.2813 7.4688-3.5011 3.4698-7.4352 5.7723-7.4352 5.7723l-45.5-4.0838s-2.3244-8.1188 2.2473-30.188c4.1194-19.891 5.8066-24.356 7.7812-20.656 0.5481 1.0261 1.0577 5.8562 1.4375 9.1562 0.9185 7.9824 2.8817 13 4.0625 13 1.3199 0 1.3139-4.7439-0.4062-15.906-2.3977-15.558-2.6731-16.174 3.25-22.438 5.076-5.3668 7.9491-6.6325 9.5312-4.1874 0.445 0.6869 1.0539 7.7374 1.6562 13.656 1.0589 10.405 1.6766 12.792 3.0313 11.438 0.8731-0.873 1.5204-3.8523 0.5625-19.281l-1.2188-15 6.6563-6.7812c6.0857-6.1984 6.7792-6.628 8-5.0312 0.8373 1.0942 1.7749 7.5411 2.2187 15.219 0.6569 11.354 1.565 15.091 3.2188 13.438 0.7837-0.7837 0.3984-26.564-0.4375-32.531-0.546-3.8975-0.274-4.4692 4.6563-10 5.8721-6.5888 8.9574-9.3112 10.562-9.3438 2.1142-0.043 3.2673 6.4276 3.2813 15.031 0.014 9.1802 0.7342 12.815 1.5937 13.969 2.2034 2.9576 2.4583-7.4087 1.9376-17.656l-0.5938-18.688 6.0625-6.0624c5.7369-5.7375 6.1998-5.9881 7.8125-4.375 1.3324 1.3324 1.2441 4.504 1.7812 13.937 0.8057 13.042 3.3601 19.399 4.0938 10.344 0.384-2.0477 0.3281-6.0385-0.125-8.875-0.453-2.8379-0.8255-9.2738-0.8125-14.281 0.02-7.635 0.3879-9.6741 2.25-12.688 2.6954-4.3607 10.628-11.156 13.125-11.406zm262.84 14.219s10.156 8.6801 10.156 11.156c0 1.1029-4.0204 5.8727-9.4687 11.219-10.044 9.8531-10.99 11.546-12.156 22.125-0.4353 3.9457-2.4223 9.1721-7.0625 18.5-3.557 7.1495-8.6875 15.5-8.6875 15.5-16.033 19.152-31.154 36.695-59.259 77.134-1.604 3.7148-1.6876 7.4394-3.3266 10.519-1.2668 2.289-4.1035 4.1698-5.3516 4.6911-1.8502 0.7736-5.5617 3.0734-8.25 5.125-10.495 8.0118-17.26 18.565-20.312 31.688-1.6505 7.0942-2.6305 13.47-5.5 35.344-1.1795 8.9909-5.125 24.656-5.125 24.656-60.384-0.8574-116.91 9.6027-167.31 38.044zm80.688 9.2812 13.437 61.031-13.844-0.2812-1.375-44.312-43.188-4.125 15.438-14.938zm-65.531 5.5938c3.7005 3.7699 8.3066 7.9049 11.656 12-11.547 38.603-48.116 88.689-84.438 138.38l-26.625-2.9063c-0.468-1.092 36.879-53.165 54.75-72.906 6.8107-8.2417 11.438-16.062 17.512-28.208 2.1958-4.3925 6.0364-15.773 8.9883-27.636 6.2786-7.5702 18.195-18.604 18.156-18.719zm14.344 13.531 20.125 20.406 4.9152 288.95c-31.042-24.364-67.621-42.406-106.63-56.142l6.8065-15.531 7.506-8.0627c26.53-28.708 20.618-59.62 0.4375-81.469 24.585-35.853 46.859-62.563 65.594-97.562l-0.25-24c-0.2201-22.121 1.5-26.594 1.5-26.594zm-240.78 12.062c2.1052-0.2108 2.3727 5.1283 2.9062 20.281 0.4991 14.163 1.0928 20.872 2.0313 22.344 1.2585 1.9748 2.4711 2.1463 19.188 2.6563 17.644 0.538 21.312 1.046 21.312 2.9374 0 0.5369-2.2685 3.2553-5.0313 6.0313l-5.0312 5.0313-15.719-0.25c-8.375 0.2672-18.272 0.1026-18.531 0.3437-1.389 1.288 3.8415 3.0492 11.5 3.0625 4.7675 0.01 12.349 0.8542 13.219 1.1875 2.9773 1.1432 1.5812 4.0824-4.9063 10.312l-6.4687 6.25-14.281-0.2812c-7.8428-0.1404-17.388 0.088-18.625 0.5-4.3406 1.4429-2.1818 2.6209 5 2.7187 12.012 0.1646 20.3 1.1626 20.656 3.0313 0.1729 0.9085-2.0544 4.2413-5 7.4062l-5.3438 5.7188-21-0.875c-19.854 0.1468-22.534 1.6254-5.9688 3.2812 6.3253 0.6313 16.303 2.1938 16.656 2.25 0.3537 0.055 0.922 0.802 1.25 1.6562 0.6969 1.8167-7.2978 10.827-11.562 13.031-2.1943 1.135-3.7216 1.2086-7.5312 0.3437-4.473-1.0143-23.711-0.8301-25.781 0.4063-1.7389 1.0397 2.0337 2.2361 7.375 2.3437 8.038 0.1633 17.625 2.4904 17.625 4.4063 0 1.5734-4.0729 6.62-8.4063 10.406-2.009 1.7545-6.7735 0.1858-20.062 0.625-9.098 0.2998-15.156 1.1489-15.156 1.75 0 0.5547 4.5125 2.3353 10.312 2.75 5.7454 0.4103 13.624 1.7816 14.156 2.3124 1.3516 1.3519-8.874 13.424-8.874 13.424l-43.665-0.6125-4.0232-46.249 3.7187-4.2813c8.3557-9.6527 10.176-8.2502 11.844 9.0625 1.2221 12.685 2.1295 16.559 3.9688 14.719 0.6713-0.6703 0.398-7.9095-0.2812-18.563-0.5589-8.7612-1.0313-16.754-1.0313-17.75 0-2.4103 9.9299-12.842 11.875-12.469 1.9079 0.3678 2.9718 4.6859 4 16.531 0.8448 9.7331 1.2994 12.388 3.2187 10.469 0.8968-0.8981 1.0218-5.992 0.125-18.312l-1.1874-16.094 4.2187-5c8.4626-10.036 10.126-8.9183 11.156 7.375 0.6956 10.992 1.7559 16.781 3.7812 16.781 0.6783 0 0.6989-8.2153 0.2812-20.625l-0.625-18.625 5.2813-5.375c2.9087-2.9447 5.8755-5.3437 6.5625-5.3437 2.0551 0 3.2351 4.6745 4.5312 15.719 1.453 12.373 1.9343 14.503 3.125 13.312 0.5065-0.506 0.3984-7.9944-0.2812-17.625l-1.4688-18.438 6.4376-6.5313c3.547-3.5788 7.1035-6.3724 7.9062-6.2187 1.9368 0.3732 3.1934 5.9506 3.3438 13.844 0.1403 7.3684 1.3953 13.709 3.0312 15.344 0.8097 0.8107 1.0484-3.7237 0.8438-16.875-0.3154-20.246-0.8323-21.791 8.2812-31.281 2.4339-2.535 4.0223-4.1697 5.125-4.2813zm235.74 8.2718 0.1947 28.26c-11.327 24.235-37.501 59.755-64.031 97.875l-13.844-7.5c33.192-43.507 60.943-84.06 77.68-118.63zm-378.99 8.8845c0.6224-0.01 1.3157 0.018 2.0938 0.062 7.1621 0.4176 7.3542 2.8892 0.6874 9.125-2.7934 2.6132-5.9702 4.6876-7.1874 4.6876-2.0636 0-2.1635-0.3085-1.5313-5.6876 0.7777-6.6168 1.581-8.1529 5.9375-8.1874zm432.53 20.375 19.563 19.25 4.9062 206.94-20.593 33.58zm24.503 27.275c17.634 41.498 35.958 80.411 56.244 111.96l-52.295 73.838zm-175.94 64.506c24.046-0.3348 46.185 18.694 48.969 38.031 5.2568 22.203-6.1813 46.124-24.948 53.47-6.5407 2.3448-10.372 2.5049-10.372 2.5049-2.2805-13.391-1.2937-26.289-4.3366-39.881 0 0-11.251 14.842-17.589 20.04-3.2817 1.8143-4.7537 2.3023-4.326-1.9972 0.2184-7.5164 0.7902-24.199 0.7902-24.199l-27.781 28.75s-2.2599-3.1237-4.9375-10.281c-8.7222-23.363 2.6041-47.758 20.5-58.969 7.8-5.1223 16.016-7.3572 24.031-7.4688zm369.62-1.75 0.5312 25.298c-43.602 33.8-105.8 105.03-159.09 197.87l-23.472 9.8955c36.158-86.405 112.49-174.4 182.03-233.06zm0.4749 33.266 0.4625 37.703c-38.474 36.986-71.902 75.195-100.99 124.38-16.984 8.1556-48.444 23.651-48.444 23.651-3.9392-0.9556 85.703-140.51 148.97-185.73zm-388.09 32.287c1.7555-0.023 1.6658 3.3769 1.1152 8.2902-1.2473 11.131-2.5508 15.173-6.625 20.594-14.092 16.636-36.482 39.265-39.531 60.312-1.541 11.243 7.2358 21.766 15.857 20.688 26.788-3.3495 29.667-50.945 31.926-74.43 0.9406-5.821 1.3724-10.703 2.3415-12.538 5.6458-7.2055 11.714-14.225 19.329-19.917l3.2825 36.385 15.093-5.0355c-42.563 57.842-30.331 61.467-52.782 85.162-20.864 22.02-61.338-3.0643-50.979-36.543 9.0004-22.524 22.932-45.13 26.691-69.259 1.0215-7.1683 1.6171-12.141 1.6171-12.141l9.6767 20.19c4.9229-4.8597 19.291-20.905 22.988-21.757zm389.68 12.478-0.095 25.972c-19.844 22.347-36.972 39.51-57.244 70.396l-32.203 14.683c21.02-40.046 55.51-77.511 89.542-111.05zm-393.46 22.917s2.1362 12.126-2.5724 34.146c-2.2327 10.441-12.282 40.924-28.165 33.739-13.489-11.915 2.9486-34.015 11.228-44.458 6.4063-7.501 13.356-15.607 19.51-23.427zm-42.385 3.1143-8.7813 18.781c-78.896 0.2871-155.52 28.506-223.72 86.125l-17.25-5.6563c72.253-68.337 161.82-101.56 249.75-99.25zm82.938 14.438c88.914 29.768 129.97 73.21 163.6 118.77l-14.058 7.2044c-35.243-45.608-78.737-87.343-159.73-111.48zm-101.87 28.094-3.7813 16.094c-49.794 1.4943-102.34 19.164-153.47 54.656l-18.438-2.9376c51.458-40.378 110.23-63.433 175.69-67.812zm227.56 108.72-15.791 7.4543c-47.123-61.136-89.732-78.54-138.15-94.111l5.2188-13.562c65.056 17.264 112.79 50.289 148.72 100.22zm-657.1-72.086 1.3651 163.14-11.361-2.2705-1.6169-157.77zm-26.31 8.8463c-21.657 81.151-4.8636 102.16 2.9679 149.52l-17.934-2.8697c-17.462-47.969-19.25-91.619-4.526-142.55zm544.98 12.459c1.3548 1.2933-1.0972 5.2772-4.4375 7.25-3.2322 1.9103-2.5174 1.6178-7.6875-0.25-5.0305-1.8161-11.438-6.5688-11.438-8.375 3.6665 0.068 20.346-0.1132 23.562 1.375zm15.281 1.1563c2.9653 0.3595 11.548 0.1955 12.086 2.8794 0.1975 1.6011-3.1688 4.199-10.055 8.9019-10.463 7.1462-14.02 8.5521-17.094 5.1562-2.9087-3.2138-2.0566-6.5449 2.8437-11.062 4.7733-4.3991 7.535-5.8949 12.219-5.875zm-357.16 1.7813c5.9892 0 16.719 7.4094 23.188 16 6.5539 10.266 14.099 20.806 20.188 31.187 13.841 23.601 24.527 47.545 33.469 72.063 23.428 58.291 37.171 114.81 48.594 170.97-0.2149 4.7315-4.3192 4.6444-7.6875 3.5313-1.7556-0.5645-3.4904-1.7329-3.8438-2.625-4.8429-13.756-6.5216-27.82-10.219-41.625-9.2477-34.531-12.56-54.311-30.375-103-9.2444-25.266-22.63-60.44-37.25-87.469-9.3721-17.327-20.216-33.345-34.281-47.5-3.721-3.7011-8.3437-7.0853-8.3437-7.8125 0-2.3942 2.3382-3.7187 6.5625-3.7187zm379.97 1.875c5.5535 1.3625 18.96 2.9354 13.875 7.375-18.845 7.2479-24.951 15.098-34.938 23.094-1.509 0-7.4687-7.383-7.4687-9.1875 8.104-9.9598 18.316-14.212 28.531-21.281zm-352.72 0.062c7.8758-0.2817 15.582 9.8968 19.219 16.313 24.226 35.649 44.966 86.488 62.031 136.31 18.368 53.629 30.028 105.2 35.094 141.78-0.4352 1.1342-2.7101 1.5577-5.3169 1.5366-4.9602-0.04-5.6635-1.1869-6.9331-5.1303-12.634-60.524-29.597-123-50.125-176.03-11.028-28.261-23.536-56.639-41.125-85.125-11.996-17.585-18.808-26.814-18.281-28.188 0.3588-0.9348 2.3391-1.4062 4.6563-1.4062 0.2541-0.032 0.5271-0.053 0.7812-0.063zm-54.156 1.0626c10.629-0.031 28.215 12.58 40.156 28.781 25.317 34.704 39.808 75.253 54.844 114.59 17.264 45.08 29.717 95.185 37.156 134.62 1.2656 5.6536 3.3361 8.1301-2 9.9062-8.077-2.3071-7.8986-2.0802-10.188-11.906-3.1472-10.562-4.1103-21.232-7.0937-31.969-17.066-61.415-36.185-129.57-67.938-185.03-38.142-61.055-49.24-44.071-55.375-54.844 0.4683-2.433 4.7211-4.1408 10.438-4.1562zm91.781 14.906c32.781 57.034 47.23 92.052 57.2 126.5 15.11 52.205 33 93.894 40.862 154.84 0 0-8.6112 0.1593-12.062-1.25-1.4281-1.4195-2.945-7.5092-3.8438-12.5-7.8697-43.04-20.683-93.968-34.312-134.09-14.68-44.666-32.148-87.149-57.969-128.19-6.7674-11.053-8.0548-15.404-3.9062-15.594 7.3936 0.5049 10.649 6.195 14.032 10.281zm341.5-6.0938c1.5229 0.01 2.1301-0.2056 4.9062 0.75 4.3397 1.4946 5.7245 2.4379 5.9688 4.1563 0.3553 2.5015-2.3319 3.3185-10.719 5.2813-6.592 1.5419-19.458 8.4044-28.406 15.844-4.1506 3.4511-7.7242 7.1563-8.7188 7.1563-2.0569 0-6.9687-5.4063-6.9687-7.6563 6.8491-10.467 28.653-24.831 43.938-25.531zm-451.66 1.4063c27.748 0.8476 49.461 33.074 60.844 54.812 4.4345 8.5055 10.185 17.754 14.531 27.469 22.522 50.348 41.632 113.5 50.969 153.84 4.4918 19.409 9.678 33.644 7.8437 37.438-2.2831 1.4457-7.1178 0.3436-9.3437-1.5312-1.4227-1.1985-2.1953-5.6436-4.7187-13.75-6.4712-20.787-17.19-80.212-45.125-142.66-0.6243-1.3954-14.144-40.9-37.5-78.375-9.5092-15.257-24.886-24.842-38.906-27.969-7.0564-1.1512-9.1544-0.3157-8.7187-4.125 0.277-2.4245 1.0363-3.0864 4.8124-4.2813 1.6794-0.5305 3.4464-0.8273 5.3126-0.875zm173.44 128.78c-1.902 0-3.5764-3.6222-4.8437-9.5626-0.623-2.9229-1.4732-5.0028 4-8.4374 34.425-36.607 4.825-90.354-38.438-95.031-4.0117-0.6105-9.1798-0.6239-10.688-1.1875-2.1959-1.2397-6.2217-9.0248-7.9767-12.152 59.795-14.492 123.25 71.096 57.945 126.37zm297.84-119.59c3.5623 0.894 11.31 8.091 10.344 9.6562-1.1623 1.8801-7.8673 1.9444-17.531 3.6563-20.561 3.642-29.376 17.044-38.938 27-2.1241 0.6465-4.0105-0.827-5.9062-4.0625-1.3977-2.3859-2.5313-5.2491-2.5313-6.375 10.686-15.563 39.31-31.298 54.562-29.875zm-485.34 4.5938c17.482 0 34.946 8.475 44.781 22.281 35.885 53.707 76.195 173.09 85.812 231.97-0.9746 1.8957-3.526 2.096-8.5 0.6562-2.7767-0.8039-2.4364-1.6908-4.1875-7.1562-11.271-42.899-23.624-84.547-38.156-122.75-7.4899-19.69-16.299-38.932-24.594-56.219-5.2517-10.933-15.807-30.397-19.812-36.344-9.4343-17.728-28.501-22.923-40.52-17.197-12.434 6.7274-13.998 22.793-4.5324 29.924 7.8569 5.4865 20.254 4.5821 24.802-3.914 1.5601-3.0068 1.068-6.7419 0.062-7.6876-0.9708-0.9124-2.7306-0.6505-3.0937 0.344 0.6443 10.438-12.667 11.109-18.477 6.9989-9.2846-6.9389-3.1052-28.903 22.196-20.061 9.7622 5.1316 13.033 14.846 8.4063 25.156-4.7356 10.552-12.074 15.348-23.406 15.281-13.756-0.2482-29.351-9.8982-29.469-27.25 0.037-12.953 6.0362-23.721 17.281-30.938 4.1654-2.6723 5.7967-3.0937 11.406-3.0937zm148.03 8.0624c42.42 1.9504 61.904 51.878 39.594 82-5.6902 7.1987-9.2874 5.8874-11.719-3.4062-1.1936-3.8176-2.5177-4.3897 0.9063-7.3438 19.864-19.034 3.5494-56.036-29.188-57.531 0 0-6.1102-8.8972-6.7187-13.625 2.1878-0.7928 5.1315-0.097 7.125-0.094zm353.72 3.4376c3.2183 0.7891 10.031 7.3265 10.031 9.625 0 2.7133-1.335 2.1992-8.875 0.9062-17.839-3.1908-35.71 7.1332-50.625 29.656-7.2356 13.524-8.1326 12.243-11.938 0.5938-1.9525-5.9779-1.9869-5.8422 5.5938-16.875 14.161-18.159 35.058-26.454 55.812-23.906zm16.594 22.906c14.922 13.557 7.961 43.419-12.211 46.508-17.788 2.0512-33.589-17.174-22.383-30.258 7.2837-7.9022 16.396-8.7052 22-1.9062 5.7963 7.0103 3.3429 16.573-4.9062 17.562-0.9625 0.3397-1.75 1.0893-1.75 1.6563 0 1.75 7.319 1.2697 9.8125-0.75 5.0187-5.5364 5.1062-13.992 0.625-20.031-3.9676-5.346-12.433-9.6009-19.219-6.8437-11.966 4.2836-24.154 20.504-31.125 40.938-1.9602 5.7457-3.1078 11.14-3.9376 12.406-1.7037 2.6007-1.579 2.5351-3.1562 1.5313-1.3832-0.8795-3.9375-13.389-3.9375-18.156 0-3.6161 3.1216-13.178 7.25-21.375 12.953-24.076 42.087-40.225 62.938-21.281zm-363.73-6.0615c17.37 1.0466 31.115 25.647 23.559 42.781-2.337 3.1524-5.7042 5.2925-7.2687 3.3115-0.5634-0.7141-3.2388-8.7562-6.9375-17.281-3.6983-8.525-7.1046-16.857-8.1562-18.938-2.763-5.9113-4.7571-9.9317-1.1965-9.874zm-118.02 14.28c19.79 35.046 36.336 75.239 50.062 114.47 10.696 30.569 19.457 60.552 24.5 87.062 0.4784 2.6756 1.1409 4.0787-0.031 5.25-1.9416 1.942-11.391-2.8904-11.391-2.8904-16.549-57.015-29.912-114.18-69.31-186.79 0 0-1.7091-2.8796-2.1647-4.763-0.5291-4.5461 0.7959-10.298 3.5683-13.519 1.1151-1.1902 2.621-1.2752 4.7661 1.1838zm-222.03 66.198c93.576 6.2877 165.96 45.715 204.62 149.87-13.736-7.747-83.424-61.214-203.56-68.304l-0.1955-14.44c86.129-0.7025 170.14 44.121 168.39 43.47-32.036-66.057-112.55-92.821-169.51-94.565zm649.22 21.052c-5.9001 9.2448-5.6398 8.8667-8.4687 16.844 0.3278 2.585 0.7989 18.737 1.1874 28.156 0.4955 12.006 0.8364 17.236 1.7813 18.375 1.6049 1.9337 4.8618 2.2408 6.2813 0.5 0.5605-0.6877 1.5318-3.2754 2.1874-5.75 7.7248-29.179 11.358-40.102 14.469-43.719 2.0507-2.6387 2.7476-2.3984 11.219-1.4375 19.075 1.6912 25.556-21.04 13.094-30.188-16.68-9.2789-34.375 6.275-41.75 17.219zm20.131 6.1993c-13.627 11.214-14.034 27.366-18.162 42.238-2.218 10.007-5.3432 15.276-6.5937 0.1875-2.3225-20.936 0.5979-36.568 9.6757-48.862 5.613-9.0418 14.844-15.13 23.134-15.711 17.851-1.2523 19.677 12.895 14.714 20.488-3.6051 5.5158-13.607 7.9206-22.768 1.659zm-644.6 6.7383c6.7294 0 12.187 5.4574 12.187 12.188 0 6.7291-5.458 12.187-12.187 12.187-6.7292 0-12.188-5.4583-12.188-12.187 0-6.7302 5.4584-12.188 12.188-12.188zm38.844 8.3438c6.0146 0 10.906 4.8604 10.906 10.875 0 6.0144-4.8917 10.906-10.906 10.906-6.0146 0-10.875-4.8918-10.875-10.906 0-6.0146 4.8604-10.875 10.875-10.875zm35.406 11.938c4.8983 0 8.8437 3.9764 8.8437 8.875 0 4.8988-3.9453 8.875-8.8437 8.875-4.8986 0-8.875-3.9762-8.875-8.875 0-4.8986 3.9764-8.875 8.875-8.875zm25.125 15.906c3.7826 0 6.8437 3.0914 6.8437 6.875 0 3.7826-3.0611 6.8437-6.8437 6.8437-3.7835 0-6.875-3.0611-6.875-6.8437 0-3.7836 3.0915-6.875 6.875-6.875zm-88.031 21.871c-2.606 13.213-0.565 26.798 2.4687 36.16 6.9336 20.177 3.7803 56.289 3.7803 56.289l-20.312 20.336c1.4539-18.953 3.7068-38.855 2.6607-54.772-0.7225-10.563-5.5007-20.438-6.7428-31.039-1.1496-9.8113 0.5866-29.454 0.5866-29.454zm32.916 6.0848 0.7089 86.138-69.531 67.375-0.094-17.781 59.281-58.781-1.2536-79.812zm171.46 196.42-4.5625 7.4374h78.438l1.6563-7.4374zm101.53 0-1.8438 7.4374h36.312l1.2109-7.4374s-19.089 0.016-35.68 0zm59.5 0-1.1563 7.4374h134.81l-2-7.4374zm157.56 0 2.1563 7.4374h35.906l-2.9688-7.4374zm60.031 0 2.625 7.4374h61.719l-5.125-7.4374z" transform="translate(-4650.8 -1012.2)"/>
  </g>
 </g>
</svg>
