<svg xmlns:rdf="http://www.w3.org/1999/02/22-rdf-syntax-ns#" xmlns="http://www.w3.org/2000/svg" version="1.1" xmlns:cc="http://creativecommons.org/ns#" xmlns:dc="http://purl.org/dc/elements/1.1/" viewBox="0 0 744.09 1052.4">
 <g transform="translate(-512.47 486.83)">
  <g transform="translate(-6377.9 2318.4)">
   <rect rx="10.63" ry="10.63" height="311.81" width="223.23" stroke="#000" y="-2435" x="7150.8" stroke-width=".99673" fill="#fff"/>
  </g>
  <g transform="matrix(.15456 0 0 .15456 111.19 -36.949)">
   <g transform="translate(4008,112)">
    <g>
     <path d="m1830.2 94.626s163.65 236.55 219.16 278.53c4.0815 1.9146 72.509-11.156 72.509-11.156-35.073-83.963-57.634-170.83-34.874-268.22zm90.937 374.11c-112.82 31.843-225.43 61.789-347.74 9.8824l-133.57 129.05c-1.1092 3.3276 173.09 78.368 175.83 70.155l-42.874 136.87 98.853 21.761 45.38-145.59s136.48-13.092 199.82-34.825c48.159-16.524 97.965-28.508 140.97-64.406-88.826-53.385-136.75-123.53-136.66-122.89zm-678.59 38.16c-42.761-26.24-76.184 27.765-44.873 54.732-3.6805 15.753-4.9292 39.199 10.312 49.5 14.005 8.853 40.127-0.32931 43.898-0.23181 0.2685 0.007 0.6772 28.356-1.5 28.283-4.0501-0.13601-19.341-13.161-28.773-15.988-31.871-9.555-76.699-14.269-75.906-12.625 1.3297 2.7582-7.9389 9.2945 27.625 31.625 13.21 8.2947 54.947-1.0478 88.187 9.4375 20.252 6.3881 40.161 17.009 51.156 11.719 13.901-5.8096 30.113-24.151 35.344-39.094 1.4738-16.319-83.399 18.989-78.239 19.562l-0.2664-32.891c34.201 3.764 65.07-21.022 31.457-63.516 25.032-24.881-9.983-84.18-58.423-40.512zm142.49 150.43c-84.1 84.79-256 243.91-256 243.91l1.84 118.76 167.97 150.31c13.306-159.56 103.98-308.47 190.32-382.97 7.9295-22.655-85.793-122.07-104.08-130.02zm599.3 29.331c-12.674 98.109-24.193 231.9-190.64 380.62 28.842 49.118 65.553 99.11 118.39 122.97 3.7504 8.4387 152.71-154.13 244.34-231l-0.4855-104.12zm-750.16 21.061c-0.346 2.1369-6.493 27.907-8.0778 27.225 0.1242 1.4029 17.045-6.2848 18.958-13.351 1.6772-6.1956 5.5569-14.591 5.8104-15.777-3.8146-26.528-11.028-7.6869-16.69 1.903zm-62.309 68.588c-6.0472 14.602-11.705 41.424-9.6175 58.881 29.799 14.915 37.897-47.131 29.883-53.062-4.7996-2.0278-16.178-5.9618-20.265-5.8188zm920.29 284.48c-2.7636 12.374-2.18 16.044 3.3278 18.459 9.6439 4.2282 13.981-0.8784 21.726-21.03 4.6101-11.994 8.7186-30.042 5-37.219-18.278-12.753-27.938 30.444-30.054 39.79zm-450.6-29.1c-5.8477 0.048-11.477 0.5269-16.688 1.7187-49.189 11.251-45.465 97.197-53.812 131.47-154.51 22.048-195.38 32.545-237.72 49.938-65.827 27.042-86.674 43.545-104.09 57.156 10.945-1.2813 129.06 108.86 135.16 124.41-7.5144-21.317 228.51-73.204 354.22-21.094 15.417 5.5221 132.86-113.98 129.16-127.31 15.245-26.688-148.03-56.673-168.62-73.344-16.894-90.934 114.06-140.74 23.375-138.09-16.505 0.4818-40.084-5.014-60.969-4.8437zm410.94 102.16c-2.9052 3.4335-5.8416 5.2568-9.625 9.2812l-8.625 11.375 6.2813 10.156 16.094-17.75zm-115.21 114.36c16.953-7.6485 77.127-36.819 79.712-30.076l-1.274 29.201c-9.2068-3.0122-68.622 6.8088-34.26 68.139-21.64 48.72 26.583 73.846 60.364 41.632 70.799 24.29 61.322-46.55 46.714-57.996 11.514-17.883-2.9571-55.96-10.16-56.092 0 0 61.782 13.928 55.74 2.9285-2.7575-5.0207-6.2074-13.677-19.938-22.844-15.824-10.565-43.624-6.7303-66.125-11.438-24.054-5.0319-39.542-13.636-59.756-14.849-30.512 2.7808-58.991 29.565-51.018 51.394zm-688.51 229.92-85.125 22.75s27.535 63.898 37.062 120.88c11.654 69.694 2.3438 145.47 2.3438 145.47l247.06 1.25z" transform="translate(-649.37 -550.75)" fill="#e2cf00"/>
     <path d="m1604.3 1321.8c-32.522-11.294-33.188-31.763-34.305-57.85-1.9223-39.569-1.576-81.209 4.1-113.44 2.1749-9.8019 3.3447-14.818-6.4417-18.283-5.3978-1.8619-10.796-1.1132-16.193-1.9387v-24.391c10.251-0.5503 19.77-0.5279 28.426 4.5948 3.8972 2.3735 8.238 5.0022 8.238 5.0022 12.745-12.053 46.217-13.848 62.124 1.0367 10.55 10.633 13.956 19.529 14.641 43.48 0.5046 17.663 0 18.866 0 18.866l18.351-0.1035v23.732h-18.351s0.4094 11.796 0 37.366c-0.3186 19.9-0.7029 32.912-2.0909 42.381-6.2527 33.026-35.664 46.995-58.498 39.549zm35.206-40.862c6.3916-17.037 3.7218-82.878 3.7218-82.878-27.395-10.53-39.012-27.024-50.165-38.757 0 0-4.6481 73.088 0.9012 112.45 5.0551 32.648 34.516 37.515 45.542 9.185zm0.1543-110.72c1.4916 0.2182 3.1981 0.3178 3.4225-0.3155 2.0964-5.9165-1.548-30.669-7.7381-35.636-16.661-13.37-31.891 0-31.401 0.6022 7.8636 10.685 17.094 22.423 28.999 31.683 2.2558 1.8875 4.1709 3.2865 6.7172 3.6665zm-818.5 46.634c-108.41-154.6-208.86-301.82-342.21-464.03 0 0 0.11092-62.693 0.57842-124.87l409.69 587.45zm379.5-202.15c53.707-58.287 94.387-120.4 130.5-183.87 41.158 73.091 88.795 132.64 141.4 181.8-51.571 52.132-98.356 111.78-135.4 186.75-30.111-57.286-69.162-117.06-136.5-184.68zm356.46-18.741c22.909-24.003 42.628-50.888 61.158-79.27 20.593 29.195 33.005 51.038 60.667 81.84-23.754 25.164-43.73 50.445-60.006 77.957-19.598-31.227-40.026-60.274-61.819-80.527zm-516.5-28.79c-3.4918-29.386-9.4771-64.551-18.084-94.819l74.805-70.529c-8.0732 63.024-20.465 111.38-56.72 165.35zm357.51-222.3c16.74 22.236-11.51 34.579-22.178 24.683-21.628-20.062 10.052-40.79 22.178-24.683zm-741.75-140.03c-12.412 7.9548 22.306-193.89 117.61-298.21 57.966 166.03-44.308 259.12-117.61 298.21zm470.16-0.74693-63.294-17.084 31.516-88.517s59.427 13.923 54.359 32.304c-16.499 59.836-22.58 73.297-22.58 73.297zm-292.99-34.02c17.138-28.177 30.15-59.242 42.13-91.03l89.997-12.473-52.163 101.16zm381.49-124.22c-48.986-97.535 8.7235-251.91 115.31-294.4-3.8397 98.911-34.529 199.1-115.31 294.4zm-329.26-27.71c2.1564-34.643-1.8127-70.947-6.6043-103.12l222.79 29.696 7.7838 93.381zm163.06-148.36c7.5498-29.703 14.258-54.425 28.836-78.499 16.222 0.51747 82.013-10.302 73.624 2.4789-17.887 22.881-26.443 60.024-38.157 83.384-12.291-1.3018-67.988 8.2889-64.303-7.3638zm-147.6-17.01c-22.532-7.951-53.339-10.172-65.32-27.597l23.437-74.268 69.414 21.294zm194.8-708.62 54.399-0.51924s261.38 334.44 359.35 464.59c-3.2642 13.248 1.0939 125.52 1.0939 125.52-138.76-195.28-414.84-589.59-414.84-589.59zm-501.23 466.64c-14.62-15.69 8.62-29.593 18.29-15.573 8.51 12.348-10.59 23.848-18.29 15.573zm293.28-54.834c0.8439-77.503 55.803-169.48 55.233-167.13-0.6361-0.15142 7.8334 75.766 18.395 99.655-2.85 4.2093-71.029 72.333-73.629 67.476zm-234.11-25.72c-42.61-81.455-93.82-143.18-138.41-186.42 55.54-52.532 97.182-117.42 139.91-181.34 35.272 67.05 81.125 128.33 132.55 186.57-51.584 50.656-100.32 122.42-134.05 181.2zm-342.76-165.36c24.958-24.895 61.836-81.521 61.476-81.593 17.548 28.664 36.047 58.334 61.516 82.021-0.26949-0.25514-39.474 41.882-59.72 81.499-18.064-33.015-41.912-61.755-63.272-81.928zm-3.5447-180.17v-24.001h17.952s-0.20437 1.9523-0.0623-30.773c0.19862-45.779 2.4863-59.841 11.637-71.53 24.652-31.491 69.881-21.833 81.761 17.459 0.90325 2.9873 2.9433 10.557 3.148 20.578 0.53212 26.048 0.575 69.277-0.28359 96.275 0.43163 10.578-3.3419 24.376-6.0586 26.736 1.309 9.614 16.438 11.549 25.921 10.802v25.112c0.0467-0.14007-9.623 0.91887-21.02 0-4.8002-0.38702-15.887-9.5267-15.887-9.5267s-17.529 12.053-33.285 11.727c-51.551-1.0661-45.827-65.406-45.676-72.761zm41.294 6.332s0.0407 9.0378 0.59147 15.082c1.8176 19.946 14.833 30.285 27.808 26.735 6.4752-2.0127 10.274-5.9137 10.274-5.9137-11.036-16.38-24.159-30.143-38.674-35.903zm47.902-99.846c-5.5092-30.086-33.843-34.698-44.52-9.2403-1.924 4.5874-3.5302 40.851-3.5302 40.851l0.22135 42.839c22.988 5.0515 35.673 19.801 50.031 36.535 0 0 2.8817-76.993-2.2022-110.98z" fill="#d40000"/>
     <path d="m1118.2 80.604-2.046 1695.7 1055.1 0.1951-0.3568-1693.1zm964.2 13.271c-8.5723 93.824-10.07 167.35 38.61 264.66-8.7943 9.2218-75.038 11.836-95.914 22.755-0.3825 2.6212 5.3621 7.1557 5.3621 7.1557 21.84-10.135 107-19.38 107-19.38-35.666-62.164-65.006-181.73-42.919-273.44l61.469 0.19513-0.3903 451.8s4.8337 87.209 6.6554 136.34c-32.728-42.295-76.128-101.37-104.47-145.22-34.384-48.369-72.662-105.11-111.97-158.34-11.589-16.772-28.111-38.532-41.594-58.125-21.168-30.259-38.671-53.739-60.625-86.312-23.442-33.727-45.916-64.337-73.781-103.5-23.6-33.353-24.7-37.302-24.7-37.302zm-403.69 1.7524c39.845 69.244 111.17 92.694 129.11 97.363l10.432 15.243c-84.089-16.479-129.12-70.463-150.27-103.84-1.6449-2.5969-1.4599-8.5665-1.4599-8.5665zm-39.438 0c-11.02 26.146-26.446 41.171-41.065 57.005l0.5046-16.817c0.4518 1.0541 21.889-22.733 29.27-40.189zm19.292 0s0.3218 4.4673-1.0095 8.1382c-8.4463 27.263-60.869 79.011-59.362 71.256l-0.5335-13.349c-0.2296 0.57412 39.382-37.716 49.756-66.045zm-38.124 0c-4.0861 7.6102-19.328 30.597-20.707 24.228l1.3535-24.228zm119.77 0c6.6071 9.5621 12.609 16.555 19.555 26.334 1.2947 1.8642 2.0755 4.0677 1.75 4.9062-1.0545 2.716-4.1938 0.6991-12.871-6.9923-14.233-12.616-23.918-24.248-23.918-24.248zm-53.018 0 12.875 0.03125c26.667 44.289 74.512 67.854 91.074 73.007 4.4171 4.8694 9.1803 13.776 11.031 15.746-44.658-12.095-94.688-49.852-114.98-88.784zm31.31-0.1875c14.202 20.494 36.457 34.862 48.992 44.669 6.7418 5.2844 15.643 16.075 14.811 18.217-27.918-8.823-60.568-39.769-75.553-62.699zm-54.733 12.681 7.7595 12.352c-18.801 31-42.378 58.927-73.822 80.939l-0.1695-16.189c35.682-25.696 51.101-51.518 66.232-77.102zm12.586 17.903c22.415 30.195 70.721 76.926 148.19 90.89 0 0 4.3986 3.9737 10.816 12.711 8.141 11.084 8.2693 11.522 9.3437 29.688 0.7205 33.245 11.523 78.364 22.25 106.75-1.3289 7.0572-2.5681 10.652-15.875 28.625-55.451 74.895-173.58 145.73-231.78 49.048-19.409-30.975-21.298-90.361-22.529-127.39 0 0 0.3663-2.6055 0.513-3.3096 1.4007-6.7222 3.3219-5.6635 13.828-2.7842 10.651 4.5718 21.742 0.879 33.013-2.1875 12.834-5.1838 13.902-1.1872 1.5245 10.364-4.2802 3.9948-9.5192 10.101-8.968 9.8072 0.551-0.29359 7.7504-3.2336 10.933-5.6562 9.8901-7.5287 12.228-4.6448 8.5624 3.641-15.548 35.149-18.308 36.549 3.5626 46.312 4.5589 2.0352 7.6712 4.3086 10.229 6.5411 14.954 14.073 9.584 6.492 5.4032 0.0298-6.4336-10.113-0.6178-15.458 10.243-9.1959 7.2573 4.1847 16.791 7.5618 21.976 5.9604 10.063-3.2762 13.134-14.299 10.149-26.429-2.3895-6.7086-16.14-18.559-12.969-6.1562 8.264-0.37195 15.401 11.348 8.2188 19.281-5.4192 7.3082-15.084 3.3617-29.906-6.4375-8.1904-6.1559-18.136-3.009-17.75 4.5625 0.2593 5.0838-6.9397 3.9152-11.618-2.5625-2.5975-3.5968-0.8353-13.953 4.0448-23.764 30.73-61.78 4.8221-121.69-48.396-104.8-5.8522 1.8571-11.13 3.3638-11.13 3.3638l-0.2877-23.635c30.556-21.292 62.967-55.247 78.41-83.268zm31.07 110.91c-8.0236 9.6858-5.1796 18.307 12.438 9.625 14.346-7.0699 16.333-7.9037 31.969-8.4688 22.19-0.80193 42.104 6.2559 66.75 21.375 16.335 10.021 18.715 10.779 14.281 4.5-13.194-25.25-91.183-63.584-125.44-27.031zm-75.357 2.891c15.401 3.8795 30.181 14.051 27.607 18.265-0.9259 1.5158-1.8205 1.8045-3.7812 0.78125-11.267-5.5651-29.226-14.665-55.188-3.5625-2.8619 1.2239-4.4511-0.67431-4.4375-4.125 0.026-6.6983 11.303-12.048 23.214-12.48 4.2403-0.005 8.8614 0.213 12.585 1.1212zm89.464 19.586c-9.1802 4.7705-12.332 7.3112-16.233 5.1791-9.3168-5.0927-7.3487-1.097-1.5624 9.1562 4.0831 7.2352 4.0434 8.7225 3.4374 13.156-0.6584 4.8185-0.5588 5.0049 4.125 10.156 8.7615 11.513 17.477 22.619 30.595 31.354 4.0899 2.7232 9.5555 5.8214 9.9679 5.834 1.3058 0.0398 0.8074-1.0016-1.5313-3.2812-16.8-16.16-30.049-30.642-12.942-24.49 19.919 6.4945 38.865-1.5975 54.399-6.8794 6.3327-1.9531 12.987-3.6001 14.637-3.5991 14.347 0.0151 17.738-5.9574 8.5626-15.062-31.036-34.802-56.791-42.994-93.455-21.523zm73.642 6.5229c6.4169 5.9257 9.7979 9.1441 9.1563 10.688-0.6882 1.656-5.6278-1.1489-13.906-5.5625-16.653-8.8786-35.534-10.968-59.125-4.1562-18.315 5.2883-12.91-3.1057 7.5-11 16.34-7.535 38.885-5.284 56.375 10.031zm-171.02-11.988c13.99-0.22423 28.562 4.3683 38.306 12.769 6.7974 5.8606 1.8277 7.225-9.2187 2.6562-16.709-6.9108-30.789-8.0121-44.5-1.5938-4.3037 2.0146-9.2673 4.4122-10.625 4.2812-2.2916-1.5511-3.2663-6.0592-1.2813-9.25 5.5112-5.4085 16.438-8.6884 27.319-8.8628zm230.59 4.8003c1.0264 0.0443 2.5745 1.677 4.875 4.9062 4.1849 5.8749 4.3438 8.7763 0.875 19.062-4.2356 12.56-5.9352 10.522-7-7-0.691-11.368-0.7099-17.053 1.25-16.969zm13.875 18.938c1.5967-0.22644 3.458 2.5884 6.4374 8.4062 2.0797 4.0603 1.5869 5.2752-4.9062 24.281-2.7175 7.9545-5.2747 14.289-5.3438 14.344-1.9981 1.5739-1.7395 1.4352-2.5937 0.34375-4.6302-5.9159-4.2987-17.453-0.3125-31.281 3.021-10.48 4.6656-15.803 6.7188-16.094zm-126.06 1.4375c0.5043-0.0435 3.6074 0.63268 3.6074 0.63268-0.3212 28.152 21.449 22.488 24.33 2.4923 0 0 5.3717-0.55318 6.1931 0.77992 2.5797 4.1867-3.4116 16.23-12.373 20.171-6.5399 2.9188-15.427 2.208-20.737-2.6798-1.4853-2.7541-5.9852-13.214-5.1457-17.552 1.0453-2.533 2.6126-3.7132 4.125-3.8438zm-12.972 3.2889c0.2225-0.011 0.4336-0.0114 0.6562 0 2.1369 0.10908 3.6903 0.68593 4.5342 3.2736l4.6639 14.301c-3.4321 4.1025-16.473-4.2103-16.448-10.449 0.017-4.3083 3.2558-6.9601 6.5938-7.125zm-88.52-0.0289c3.2892-0.31884 4.4505 0.0479 4.8323 3.1175 1.112 9.2929-8.1829 19.391-20.237 19.94-11.665 1.3045-17.962-7.7444-17.604-16.568 0.027-6.7071 5.7979-7.5462 6.4387-2.2444 1.8503 15.309 14.931 16.189 20.906 7.7356 2.2604-3.3129 1.7446-11.473 5.6638-11.981zm143.1 3.12c0.9285-0.0384 2.1704 0.31232 4 0.9375 12.032 3.8404 12.354 5.6989 2.0626 9.4062-12.273 4.4213-13.069 4.9994-10.188-3.5625 1.6075-4.7762 2.0826-6.6968 4.125-6.7812zm-127.54 1.349c8.9193 0.55254 9.6675 8.1 1.8231 10.62-11.681 5.1546-15.616 4.8182-11.091-2.7866 2.4547-5.3866 4.6487-7.7302 9.2683-7.8332zm-55.802 2.7134c1.0647-0.0102 2.2859 0.39999 3.5937 1.375 1.3403 4.0468 3.6128 7.1594 5.4063 11.344-1.832 1.8177-6.2005 1.7885-8.9846-0.41923-5.5863-4.4298-4.6291-12.255-0.015-12.3zm280.44 8.7188c3.4642 0.0212 6.9851 5.508 8.1356 9.5967-12.102 15.547-10.199 44.574-13.013 53.338-2.4388 7.1316-3.2257 0.97603-9.9587-17.495-2.7177-7.4556 10.981-44.522 14.149-45.346 0.2245-0.0584 0.4566-0.0953 0.6875-0.0937zm12.375 15.938c2.6942 1.5375 6.3533 5.0686 7 10.625 0.3753 3.2246-1.222 7.5104-2.25 11.75-2.4443 10.08-5.7492 29.124-6.9375 46.719-0.5057 7.4881-0.4798 14.223-0.8125 14.875-3.6424 7.135-11.319-12.062-10.662-27.347 2.3861-12.203 3.7182-54.946 13.662-56.622zm17.094 21.938c1.7099 2.3758 2.7944 4.1954 3.3215 6.2441 0.9159 3.5604 0.1482 7.8131-1.9465 16.881-5.5523 24.034-4.7475 49.938-1.125 76.531 0.7619 5.5949-3.1226 2.7921-9-6.8438-3.2591-5.343-5.344-12.666-6.3438-21.312-2.0476-18.904 1.8991-44.53 5.2576-64.746 1.4864-8.947 2.5215-16.831 9.8362-6.754zm9.2187 14.625 9.7187 11.719s-4.15 26.941-4.125 41.312c-0.6775 5.383 4.8304 63.922 6.625 68.656-5.9722-6.69-8.7647-10.625-15.312-19.031-0.7444 0.12197-6.4139-57.675-2.5-79.781 2.367-13.371 5.5937-22.875 5.5937-22.875zm15.25 23.281c1.6317-0.0595 3.7056 1.7787 6.3125 5.4375 2.352 3.301 3.4978 6.0134 3.625 10.125 0.093 2.9969-1.3915 5.3113-1.4375 10.656-0.2741 31.843 4.0291 61.895 9.4448 90.869 1.9104 10.366-1.8072 6.1376-7.9554-0.42049-5.636-6.0058-5.7382-8.2895-8.747-16.825-0.6006-1.7034-6.6015-60.425-6.5497-64.864 0.2117-18.247 0.7345-28.411 2.8386-32.789 0.6869-1.43 1.4897-2.1518 2.4687-2.1875zm-35.321 63.984s-11.314 5.8226-14.278 3.779c-4.7779-13.03-22.016-47.91-22.313-54.087 0.3056-2.0293 7.0655-11.206 7.0655-11.206 9.5258 20.663 18.097 41.803 29.525 61.515zm-212.94-41.892c-3.4128 4.0071-7.4777 2.3358-15.705-1.2783-4.2179-1.2947-3.5649 0.44071-10.534 4.062-5.4047 2.8082-7.303 2.8804-10.883 2.8498-4.7228-0.0404-6.4239-1.6955-6.437 1.6255-0.01 1.837-0.283 10.139-1.3984 14.43-1.5183 5.8408-2.8445 8.4187-2.0101 9.4322 2.4023 2.2 4.4196 0.8581 9.4836-4.0336 8.4001-8.1143 14.066-5.7887 23.424-2.7712 10.643 3.4318 12.844 4.6963 22.578 1.2942 13.79-4.8198 22.095-4.8246 27.586-1.3279 9.4636 6.0265 12.319 5.6715 8.4208-10.806-1.2568-5.3119-1.3457-13.549-2.1196-14.976-0.8768-1.616-3.2829 2.9936-5.8012 4.6881-4.8137 3.239-7.3023 3.1787-18.156-0.375-6.4284-2.1072-13.635-8.9966-18.448-2.8149zm174.55 2.1501c4.1997 9.8966 20.917 42.967 20.408 46.662-3.2563 2.9238-7.6137 5.0548-10.197 2.4398-8.3575-15.25-10.863-23.471-17.654-40.586-2.0261-4.0913 4.0352-14.517 7.4429-8.5153zm89.777-1.2158c1.1847-0.16457 3.6575 2.294 5.497 4.7548 5.7243 7.6574 6.0687 8.6068 6.25 16.812 0.6575 29.753 4.3974 64.776 12.781 91.781 1.6503 5.3152 4.7781 11.779 4.4376 12.656-2.8109 4.0976-15.847-6.8748-19.781-23.562-5.4265-21.19-8.6029-43.301-10.328-57.693-2.1851-25.314-2.1721-43.429 1.1434-44.749zm-100.28 16.411c4.8161 9.2864 10.882 25.31 14.967 34.924 1.8625 4.1743-7.6603 7.4643-9.85 6.0447-3.8037-2.84-5.6043-10.834-8.1013-15.625-7.9478-17.375-9.3761-17.74-4.9719-23.152 2.7119-3.7624 5.9489-8.3725 7.9566-2.1913zm119.16 10.656c0.6993 0.00045 1.6041 0.68053 2.75 2.1562 5.0239 5.938 8.4369 10.475 9.75 14.875 0.9529 3.1934 0.1883 5.5886 0.5312 11.375 0.8986 15.157 4.8786 35.846 16.156 78.188 1.0999 4.1294 2.5925 9.0153 2.4063 10.344-1.0905 7.7737-12.493-4.8273-15.813-17.844-3.8486-14.775-10.868-33.646-12.937-51.094-4.2604-27.695-6.6199-48.002-2.8438-48zm-129.2 11.194c9.4818 22.125 10.231 22.086 4.2614 23.837-6.3106 1.8509-6.6898 1.2445-14.102-13.821-5.4089-10.994-6.4779-12.373-1.9292-16.335 6.9437-8.1828 8.7665-0.37957 11.77 6.3194zm-132.05-5.277c-1.0796 0.0219-4.2546 2.4297-7.4482 3.6937-7.8335 3.1003-21.743 3.3132-30.221 0.75911-15.024-6.0315-10.792 1.801 2.4969 6.5673 10.314 3.4692 30.742 0.77967 33.908-5.6472 1.9475-2.0568 2.6532-5.401 1.2652-5.3728zm114.23 11.634c8.464 13.081 11.008 18.305 9.5778 19.323-1.3535 1.3526-8.0572 3.8814-10.812 2.5312-3.4595-1.6952-6.472-9.7721-7.9916-16.105 1.0603-3.0932 6.6226-8.6397 9.2263-5.7493zm-212.02 5.5107c3.7827 0.0149 13.621 13.239 11.625 15.625-0.5542 1.2261-4.2431 0.0583-12.861-2.3291-2.8775-1.0582-9.382-1.9104-7.3242-6.0825 1.0239-1.8954 7.0538-7.2194 8.5601-7.2134zm202.94 18.125c-0.846 2.261-7.2282 2.7924-9.9374 2.625-2.333-4.8498-2.9446-7.165-3.5938-10.375 0.8809-1.9272 5.2524-6.9172 7.4089-5.9375 1.2914 1.1527 5.4633 11.298 6.1223 13.688zm176.09-12.75c1.35 0.0469 3.6858 2.4128 7.1562 7.375 6.5584 9.377 5.6694 8.6955 10.375 31.094 5.3428 25.401 11.733 43.491 18.188 69.438 0.088 4.3057-1.6549 3.1622-6.4376 0.25-7.8131-4.7578-10.383-10.043-12.844-23.812-4.1988-22.744-13.068-43.787-16.469-70.656-1.797-8.8861-1.9416-13.756 0.031-13.688zm-196.85 9.0755c4.6126-0.15662 3.9916 6.9496 2.6709 8.1002-3.3706 2.9364-12.663 2.0598-14.258 2.2252-3.5689-5.5961 8.58-10.136 11.587-10.325zm220.29 24.175c1.3571 0.18707 4.9982 5.3293 11.812 14.906 6.5473 9.2017 5.1128 7.6987 9.0312 22.844 5.5437 20.928 14.718 36.021 20.094 55.281-0.01 2.2025-2.6709 1.9183-5.2188 0.875-4.962-2.0793-9.3918-5.5913-13.594-9.0312-2.8752-3.1041-2.8527-7.0485-11.344-36.25-3.0636-10.536-3.8612-13.274-7.6876-29.281-3.1995-13.385-4.6318-19.556-3.0937-19.344zm-709.88 62.523c22.262 40.967 14.021 59.134-33.866 64.808-3.4577-0.48563-0.1935 20.988-0.2902 30.585 23.994-13.725 53.005-16.931 79.745-25.548-7.2802 23.312-20.061 49.73-58.767 45.662-40.458-31.262-88.076-12.479-120.38-25.171-17.573-6.5467-24.283-26.065-24.492-29.412 21.073 2.1111 44.866 6.6254 65.287 5.148-22.306-17.183-15.782-40.962-12.638-51.836-26.101-32.911-4.3107-69.931 33.601-61.323 3.9181 0.8896 11.653 4.7 11.653 4.7 36.571-32.739 78.961-1.9825 60.15 42.386zm739.92-19.93c1.5135-0.14403 4.8586 3.809 11.562 13.188 19.886 27.82 37.105 53.7 36.844 55.156-0.8589 4.7919-21.583-3.6054-26.812-10.469-5.9567-7.8184-22.712-48.073-22.688-54.469 0.01-2.1348 0.3008-3.3308 1.0938-3.4062zm-809.88 119.16c10.344 1.5192 13.233 2.3938 13.125 6.4375 0.8844 3.4334-25.102 3.891-28.625 1.3438-2.8135-2.0343 0.8154-6.4934 3.5937-7.5625 4.0273-1.2131 8.0132-0.78949 11.906-0.21875zm716.38 3.6875c-145.19 68.574-204.59 250.96-131.3 390.73l-10.087 7.2836c-71.851-147.78-18.401-306.13 98.339-386.11 4.7272-3.3595 15.182-5.9544 20.044-9.1762 0 0-47.624 10.864-63.745 17.17-3.2691-0.11156-12.877 3.2752-23.198 14.466-9.0218 8.3593-37.232 47.251-36.33 48.604l-74.956 3.0188 0.064 2.7701 73.569-1.6996c-75.758 124.73-57.145 243.41-10.368 326.47l1.1555 0.7774c2.7199 1.8299 9.8763-3.4053 24.719-17.469 6.1135-5.7925 13.818-12.988 17.125-16 9.1737-8.405 22.24-22.904 31.219-33.375-50.94-103.82-0.6895-240.57 118.51-302.19 0.2035-3.2795-1.271-13.297-1.271-13.297s-4.5042-4.0467-7.1655-3.631c-132.8 58.499-186.01 203.77-132.01 335.86l-8.9061 9.6912c-67.847-136.8 4.9814-307.78 131.97-356.22-0.061-3.0906-2.8121-7.0371-6.2256-4.6608-137.09 63.649-196.84 226.18-129.68 364.72l-8.4596 7.4742c-76.401-151.69 4.099-321.67 130.3-379.75 3.7231-0.8633-3.3124-5.4688-3.3124-5.4688zm-738.95 1.4137s-0.9624 8.0785 1.8903 10.836c1.3111 5.7633-0.7843 5.1377-5.6874 3.9688-12.07-2.8775-2.6553 3.9888 7.2187 9.5312 9.7267 5.4597 8.4214 5.276-0.062 10.656-5.7034 3.6169-5.1101 4.9738-4.3438 7.7188 1.1378 4.0743 1.9168 1.3613 4.2813-0.8125 4.9646-4.5642 8.9314-5.7048 13.344-5.6875 6.6269 0.026 7.2977 5.331 6.125 9.4688-2.6349 8.6842-11.575 8.2217-18.906 6.0625-11.993-3.5321-31.581-24.334-31.278-36.578-0.8335-10.969 14.176-15.666 27.418-15.165zm53.922 2.68c4.6491 1.7087 10.5 3.9926 16.938 6.6875 8.8888 2.8245 17.898 7.4216 23.707 11.294 17.689 11.792 16.61 35.377 15.333 37.72l-91.391 86.613s-5.1619-2.5215-10.023-5.002c-15.366-7.8404-19.059-11.971-10.531-16.312 4.1368-2.1062 5.4705-6.634 6.0624-11.062 0.7933-5.9337 0.4832-4.9217 4.0313-7.625 6.1751-4.7048 6.4693-6.6479 6.5-14.469 0.02-5.1768 0.5543-7.5613 2.4375-10.812 1.4948-2.5808 3.0701-7.9694 4.125-14.156 0.1732-1.0158 0.2235-3.5566 0.4224-4.4487 1.0796-4.8402 2.6132-6.2648 3.6401-7.3638 1.024-1.096 2.6685-4.8273 3.8125-8.0625 2.5503-7.2126 2.0696-6.1428 6.1875-5.3438 5.9819 1.1608 5.124 4.6501 4.4687 10.188-0.3179 2.687-2.1085 4.5725-1.5 3.9688 0.8172-0.81071 4.4904-2.5456 5.25-2.7188 1.9144-0.43642 3.8207 0.21986 4.3126 3.2188 0.2738 1.6704-0.4533 4.7466-0.4063 7.125 0.1218 6.1629 0.3732 13.546 1.7813 18.406 6.7845 23.419 5.4347 20.176 3.125 0.6875-0.5531-4.6652-1.2037-11.516-0.5313-17.219 0.474-4.0203 1.6263-8.9985 3.1875-11.719 4.0115-6.9897 4.2299-8.3714-4.4688-11.812-3.2322-1.2787-8.7361-3.5178-9.875-5.75-1.3939-2.7321-5.5382-6.449-10.937-7.7188-13.129-3.0876-20.77-15.772-18.875-17.656 1.242-1.2347 6.53 0.38095 9.875 0.5 11.986 0.4266 14.533-0.19001 19.844-4.75 2.8282-2.4284 4.0973-4.5887 6.3478-4.7471 2.3754-0.0455 5.4016 1.7198 7.1522 2.3408zm622.07 14.032c-122.78 99.33-144.3 260.01-83.046 384l-10.599 8.3279c-76.974-145.44-25.273-302.33 69.293-388.13zm-709 11.87c2.1666-0.20302 4.5366 2.975 13.156 12.188 5.8056 6.205 11.852 11.595 15.031 13.406 7.2118 3.4533 5.6348 2.0152-0.375 7.7188-6.1438 7.0473-2.751 12.843-10.094 9.3125-19.103-8.9673-32.517-35.387-20.094-41.75 0.9374-0.48006 1.6528-0.80733 2.375-0.875zm-9.5 27.781c0.4662-0.0357 0.9693 0.0343 1.4687 0.15625 2.3563 0.57524 5.213 5.0044 8.2813 8.0938 8.4914 8.5495 12.432 12.342 19.219 15.344 6.67 2.9501 6.8508 3.6674 2.1563 8.875-1.7074 1.894-2.7245 4.1701-3.125 5.4375s-0.5047 2.8812-1.9375 3.1562c-7.4362 1.4276-32.153-13.564-33.125-23.906 0.7981-9.6732 3.24-16.864 7.0625-17.156zm52.375 2.875c4.2878-0.10999 6.8056 3.7109 6.7813 9.9062-0.017 4.2916-2.4326 6.0363-7.3438 7.875-10.497 3.9303-16.965-3.5813-9.625-11.875 3.0848-3.4856 7.2538-5.831 10.188-5.9062zm-6.4063 25.219c7.9185 0.0311 10.212 6.7084 4.4063 12.469-5.4536 5.4109-16.461 5.4378-16.438-0.5 0.018-4.6577 6.9912-11.989 12.031-11.969zm-49.098 7.9886c5.358 1.5836 18.398 10.977 24.133 12.082 0.3021 3.1681-3.511 4.034 1.9032 9.9924 2.4578 2.7049 2.6676 4.5491 0.5312 5.6875-6.5411 3.4854-29.201-7.5315-30.719-18.875-0.737-5.5388 1.1028-8.6876 4.1518-8.8864zm29.567 13.574c7.7961 0.32529 16.615 0.5561 15.688 4.2812-0.6728 2.7011-3.4624 9.8349-7.0313 8.5-1.7344-0.64879-3.4196-2.375-4.625-3.5312-4.1599-3.9902-5.2659-9.3015-4.0312-9.25zm294.83 32.276c22.71 20.561 105.22 235.34-66.721 391.82l-36.488 10.932c165.08-129.62 137.62-313.64 93.072-393.03 0.01-2.3304-0.6465-2.0646-4.7553 1.6562-3.597 3.2574-3.9796 3.961-2.5313 4.5625 50.344 77.465 69.159 296.26-129.19 401.84-3.3273 3.4555 3.4083 2.9293 3.4083 2.9293 0.3512-2.8417 89.31-24.457 83.032-25.002 82.913-73.291 155.1-248.08 65.238-400.43-2.1696-1.4265-5.0686 4.7124-5.0686 4.7124zm-28.641 24.318-1.1563 4.8438c71.964 141.28 3.2708 314.38-130.5 378.44 2.2029 1.6158 4.6464 2.7296 7.1044 3.8808 151.75-81.714 195.51-254.66 129.31-388.61zm-12.031 10.019-0.8387 5.1272c59.576 120.24 12.28 287.1-129.91 354.79-1.3489 7.2785 0.022 5.1522 6.6724 4.8072 164.52-88.227 179.99-256.01 128.51-364.97zm-10.219 14.419c-4.6463 6.1415-13.154 9.3223-15.981 17.227 47.796 126.32-13.977 247.92-118.55 299.17-0.085 6.3581-4.6464 22.087 6.426 19.573 129.2-58.526 185.41-214.09 128.92-336.54 0 0-0.7359 0.5367-0.8149 0.56489zm648.95 244.23c4.7568 0.3336 9.021 1.7755 13.435 2.3514 16.048 2.0802 26.459 13.78 19.287 20.896-2.3562 2.3377-5.6479 0.9925-16.074-4.1067-4.7901-2.3432-5.5588-4.5384-6.5496-9.8219-1.1882-6.336-2.4528-6.9771-4.0625-2.0624-1.6269 4.9664-3.3784 8.0471-8.8566 6.7905-15.386-3.5764-9.5709-14.166 2.8202-14.047zm-171.8 107.5c-38.536-21.868-86.124-61.302-113.33-106.11-13.525 25.376-29.416 71.56-29.416 71.56l-60.484-16.895-0.7117 1.2595 59.782 17.227-5.8269 19.948c-0.6297 2.1558-9.8867 24.861-9.8867 24.861l93.373 43.573c-5.7849 9.0534-12.097 14.907-20.117 23.35-4.5336 4.7613-4.6607 10.932-4.6607 10.932l129.46-123.49s16.701 24.766 22.913 30.383c5.8258 5.2668 7.6356 6.5418 0.8391 8.115-30.418 4.4574-54.026 27.49-45.795 58.385 1.3302 3.4371 4.0101 2.1711 9.7791-1.4558 20.196-18.289 69.56-35.22 71.245-30.923l0.1945 19.672c-53.145 0.7692-47.697 39.84-43.806 60.795 0 0.452-15.368 13.888-15.368 13.888 5.4348 2.8497 10.756 5.7982 15.779 9.3099-4.6708 26.063 17.535 63.841 61.158 44.503 3.7715 3.869 7.3342 7.7559 11.493 12.613 4.4631-5.1688 9.6097-17.344 9.6097-17.344 21.668 9.8046 66.628-12.142 43.632-62.413l12.678-12.09-12.178-7.6765c-0.3156-12.781-2.2944-24.201-9.9261-35.336 0 0 20.456 5.2145 35.594 6.0931v-0.0003c9.3472 0.845 17.228 1.0836 16.442-4.5677-0.231-1.6632-1.6275-9.7981-2.5412-12.464-4.5143-13.168-27.933-22.836-50.677-24.113-3.7099-0.2084-7.7067-0.092-8.4995-1.0549-1.4871-1.8063 1.1803-4.3704 3.6245-3.9451 12.456 2.1671 24.436-7.0391 26.594-18.75 0.4286-2.0535 2.9724-5.8137 6.625-9.8126 6.481-7.0951 6.9897-6.9092 6.8674-17.16-0.085-7.1161 1.1632-8.6948 4.4451-13.465 4.2358-6.8014 6.2035-15.675 4.0742-24.856-0.6745-2.9087-3.4312-7.0244-1.0831-14.274 3.8195-11.792-4.5715-22.578-15.575-28.722-0.8798-0.2508-0.6147 0.6117-1.3438 1.4835-9.9819 3.1078-22.14-4.0454-22.14-4.0454-2.5084-1.2322 8.5004-65.2 31.311-59.486 3.7928 2.3001 5.3963 13.417 5.1098 13.613 1.0505-0.026 1.618-6.5415 0.1425-10.892-1.546-4.5586-5.0854-8.9051-11.89-7.6201-5.2755 0.9964-11.366 7.9979-14.122 11.51-10.655 13.579-10.776 22.247-14.336 36.693-1.7112 6.8278-1.8982 6.4335-11.348-0.951-6.7828-5.3005-10.07-6.9939-7.7099-10.102 1.0606-1.3969 5.4546-5.8109 5.4546-5.8109l82.573-79.454v795.67h-466.94l3.2676-102.25c8.7624-71.896-6.6531-222.87-18.317-237.07 8.9959-10.106 36.91-34.472 35.371-35.571l-3.7004-2.189-14.758 13.574-36.445-11.036c-15.547-10.737-31.412-20.664-47.87-24.889-26.874-6.899-78.634 15.08-78.68 15.307-82.69 6.1227-148.91 39.7-147.98 39.444-3.6012-3.3058-8.3668-13.861-8.4925-13.798-42.624-59.317-84.528-92.543-141.78-133.09l72.512-40.054-171.83-179.53-1.5137-145.78 248.92-237.97c1.4676-4.1092 79.415 55.053 108.44 103.2 5.5646-23.535 15.929-44.905 24.565-68.013 0.9031-2.1136 49.522 17.975 63.945 18.827 2.1563 0.12734 3.8957-2.147 3.8957-2.147l-64.168-20.867 13.126-37.584s4.5689-10.212-0.5883-11.906c-29.251-9.4612-56.699-26.138-84.674-40.347 0 0 13.067-14.526 13.263-15.169 0.1846-0.60482 5.4826-8.3992 4.2195-11.086-14.231 13.807-130.36 121.51-130.36 121.51-3.3036-18.484-8.4967-24.946-19.787-36.352 6.1518-0.29533 15.778-6.3754 21.343-10.429 17.019-12.399 26.286-34.524 24.057-47.45-16.338 5.1971-31.091 11.292-51.555 15.007-11.499 2.0873-22.409 7.2805-29.024 12.851l-1.0159-20.624c0.039 0.23488 27.533 4.8191 40.266-13.631 10.974-15.9 6.4751-34.1 3.9547-43.38 0.2837-2.0605-0.3261-1.8292 4.4063-6.1875 3.4935-3.2173 8.9375-7.375 8.9375-7.375 0.2341-1.1704-14.197-6.5182-16.636-11.403 3.8417-38.226-26.7-52.983-52.552-46.191-4.831 1.4573-7.1371 2.3627-12.883-4.0366-0.856-0.95337-7.75-8.2365-7.75-8.2365s-3.0425 7.0193-4.6016 10.093c-5.07 9.9968-6.461 6.9879-17.391 7.5236-27.688 1.3571-40.042 23.713-33.688 51.156 1.4917 6.4418 0.8229 5.4486-3.4062 13.594-2.1601 4.1598-5.6876 9.4688-5.6876 9.4688s5.0783 2.8141 8.5 4.3438c5.068 2.2657 5.3325 4.9165 5.3126 9.9688 0.7071 11.137 3.1517 18.593 9.5544 28.159-21.689 0.49914-38.328-1.5257-57.968-8.0482 3.0058 30.199 25.268 41.445 52.534 45.87 0 0-2.8605 2.6724-5.8703 3.863-6.3786 1.8485-10.372 7.4506-10.313 12.469-0.9184 4.7924-4.0191 9.6039-6.875 12.165-4.2453 3.6738-7.734 8.8517-6.0624 18.867-0.4281 7.2565-2.1821 9.3546-4.3126 12.125-4.2783 5.5639-5.7227 11.094-4.6562 18.406 0.4963 3.4027 1.5475 10.689 0.8438 18.219-1.1731 12.552 3.3241 17.258 9.0312 26.094 3.6975 5.7241 2.9175 5.8775 2.0625 10.031-2.0529 9.9737-4.1891 15.101-6.4063 22.688-4.9608 16.974-5.151 29.843-1.0937 33.156 6.1131 4.9916 13.034 3.4895 16.254 2.4954 24.122-7.4471 19.945-31.135 21.216-47.031 0.6887-4.0868 2.0838-6.0503 3.4393-5.8586 6.821 7.9826 14.031 12.599 23.316 17.631-32.104 32.673-53.074 52.667-93.657 88.31l1.1038-795.86h462.98s0.4829 5.8877-0.6197 34.685c-2.0044 58.527-4.466 119.84-0.625 179.5 0.6452 20.649 0.2213 41.038 3.1874 61.469 2.8897 19.904 4.1676 41.368 13.469 59.906 3.7376 10.049 3.8584 9.2762-10.384 22.438-6.9865 6.4562-12.922 13.329-12.663 14.54 0.086 0.40309-0.3089 1.9169 0.7625 1.0599 0.7133-0.5705 5.8728-5.6782 6.4445-6.3522 3.8583-4.5489 10.315 1.2895 32.34 7.5019 4.3197 1.2184 10.406 5.2857 15.062 8.6562 32.922 27.743 79.246 19.092 113.88 3.9618 9.8277-4.2939 12.237-4.7373 28.03-6.6097 58.487-6.9339 120.98-32.488 120.85-32.409l7.6328 12.507s2.8744-0.53065 4.9205 2.6157c33.641 63.535 143.47 136.13 141.51 132.77l-71.787 39.742c52.262 64.574 171.78 174.13 171.78 174.13l-2.8 157.22c-32.085 25.663-60.308 55.08-88.521 83.806-8.1114 8.0296-13.838 12.615-10.758 12.767 7.3232-1.1161 13.648 6.1051 19.608 11.114 3.7751 4.2083 2.8631 3.8265-1.4916 9.5752-3.0595 4.0385-4.1809 5.2069-4.1929 8.1263 0.1074 5.649 0.068 9.4351-4.9594 13.672-3.1234 3.9197-4.9075 6.4314-5.4718 11.078-0.5638 4.6386-0.5197 7.6141-3.7119 11.718-5.4069 1.1493-5.9187 9.0215-4.9667 12.543 5.6616 5.6147 3.076 11.694 3.603 10.418-10.813 11.737-22.165 21.906-14.918 5.4966 3.2675-6.1094 4.4059-11.172 4.4059-11.172s-5.2066 5.3937-7.9309 7.9406c-4.1689 3.8599-5.6943 1.5868-5.8188-10.394-0.5348-9.0666-4.3587-21.717-5.8768-24.134-0.849-1.3514-0.9924 0.9887-0.5938 9.7188 0.5243 11.484 1.8919 14.815-2.1514 26.28-5.462 15.488-9.3479 17.682-0.4754 17.148 8.4049-0.5064 15.509-0.5956 19.186 4.4197 1.2392 1.6903 2.8342 4.5875 6.2298 6.2942 6.9145 3.7783 12.415 7.9705 16.257 12.149 12.43 13.517 8.8635 25.6-15.17 17.406-12.653-4.314-4.3662-9.7462 9.2347-8.4892 8.3545 0.7827 9.7613-2.3059 2.5313-4.5184-13.452-2.4871-15.617-4.0042-24.486 6.5436-37.25-3.6862-58.165-24.508-68.217-41.473-4.2035-7.0949-5.4902-8.4509-2.5626-12.469 1.153-1.5822 0.4534-1.0986-1.5312 1.0938-1.9845 2.1921-7.3959 4.0287-9.1854 5.6067-12.513 12.483-25.198 25.896-36.471 36.049zm162.12-87.438c6.3238 0.7805 6.1988 6.0894 0.5548 11.193-5.3036 4.0167-8.9377 4.792-11.93 1.776-5.2416-5.2828 1.5271-13.007 11.375-12.969zm18.411 3.6793c5.096-0.022 11.598 2.3239 19.319 8.74 9.2178 7.659 11.323 26.209 2.8591 29.419-3.5436 1.3438-4.0953 0.029-11.652-7.151-5.0947-4.8414-10.621-9.2229-16.062-11.812-11.11-5.2871-12.534-7.2863-5.0274-10.887 1.5812-0.8099 3.6275-2.7215 4.5624-4.2187 1.9284-3.088 2.5138-4.0752 6.0007-4.0898zm-12.002 24.695c1.4744 0.043 3.4477 0.941 6.5312 2.5938 18.727 10.228 27.882 26.261 21.544 35.312-4.1569 5.936-10.921 3.6701-16.078-4.7488-2.9048-4.7419-10.62-10.812-19.375-15.25-10.026-5.083-10.242-5.8105-3-9.2813 2.9719-1.4242 5.2033-3.4382 6.6562-6 1.6859-2.9722 1.8259-2.6812 3.7218-2.6256zm6.0011 38.208c14.149 14.105 12.531 21.741 3.3385 27.484-6.2737 3.9196-16.34 4.8993-19.639 1.6521-5.3327-4.6596-5.1932-10.003 0.7029-11.719 5.4978-1.1759 3.4376-3.3792-1.6989-4.683-18.346-5.2062-29.621-14.942-9.6813-12.83 5.7234 0.6062 11.262-3.8411 14.255-7.3928 4.3262-5.2531 10.172 4.9457 12.723 7.4889zm-964.81 5.4334 412.91 591.13-333.82-0.6516s-1.2561-4.3406 1.4629-39.772c4.0165-48.072-2.1514-89.764-13.531-136.69 1.4366-0.1596-15.984-56.964-29.531-84.719-2.4654-5.8144-2.0604-6.3774 5.9375-7.4062 23.63-3.7955 49.081-9.5152 72.688-19.5 10.972-0.9665 27.085 3.3121 26.215 1.9708-0.3916-0.6394-14.278-13.372-14.278-13.372-38.546 15.402-74.112 21.036-107.59 24.859 44.442 75.64 60.302 178.6 46.976 271.1l-63.961-0.1951-0.1951-455.19zm73.8 87.548c5.8307-0.2285 20.361 10.029 22.136 17.742 0.3634 1.5797 4.141 11.065 8.375 19.882 0.085 1.6279 14.398 27.475 8.1089 25.222-12.514-17.003-34.87-45.957-40.495-60.064 0.01-1.8794 0.2424-2.7173 1.875-2.7813zm44.606 25.855c0.7827 4.2719 5.1109 15.441 8.5298 22.8 8.9115 19.182 22.712 49.252 19.906 57.813-1.8909 5.7698 0.05 5.4673-5-1.6563-2.4699-3.4843-10.18-14.236-12.031-16.719-4.516-6.0568-1.4776-0.5011-4.0549-10.362-6.1469-27.895-16.078-42.55-22.531-58.849-2.3007-7.6523 12.225 3.8911 15.181 6.9738zm7.936 4.2539c1.2005 0.8427 17.564 12.349 19.219 14 5.8019 20.628 28.993 86.712 22.99 98.519-2.0915-1.6368-10.93-12.296-12.157-17.786-2.6746-31.599-12.702-54.324-23.458-77.875-3.0262-7.0997-5.4044-14.197-6.5938-16.858zm30.782 23.204c5.1811 2.5285 10.543 8.3176 13.58 13.487 2.0301 3.5081 3.0706 7.6367 4.9817 16.324 5.931 26.961 17.245 54.292 12.156 83.062-3.1727 4.3032-10.076-5.453-11.062-15.062-3.2703-31.862-6.0774-47.124-17.281-84.594-2.1735-7.269-3.8182-12.966-2.3742-13.217zm26.28 24.717c1.1067 0.048 3.374 2.106 7.1562 5.6563 7.3572 6.9062 8.3933 9.4509 8.4375 20.906 0.2388 16.838 5.8478 36.061 6.7187 53.062 0.5026 9.8079 2.2985 35.182 0.7813 36.688-2.1413 2.9531-11.64-7.7992-10.906-24.281 1.2099-19.813 0.2275-34.723-8.2187-69-3.9036-15.842-5.8794-22.609-4.1875-23 0.063-0.015 0.145-0.034 0.2188-0.031zm762.34-100.07c29.503 18.939 19.1 53.892 12.784 58.188 40.739 51.474-22.589 77.832-42.686 59.327-29.75 29.56-80.801 4.7856-61.14-43.938-0.025 0-37.365-71.368 36.322-66.6 0 0 1.2688-28.837-0.8101-30.156-26.304-1.7677-62.059 23.558-72.187 30.563-5.6195 3.3958-6.8492 1.7746-6.8492 1.7746-1.4026-14.968-1.4393-21.822 4.6439-30.168 10.615-14.564 28.162-19.488 51.213-24.548 28.526 8.7815 55.687 22.57 82.118 20.424 14.555 0.085 29.44 2.4377 43.546 10.008 9.5205 4.4899 14.475 21.336 14.475 21.336-14.935 7.8125-61.428-6.2108-61.428-6.2108zm-14.031-105.83c0.1231-5.1104 5.8942-10.808 11.578-10.145 7.8086 0.5628 8.8302 9.8108 1.8872 13.216-2.0053 1.6226-8.4864-0.7714-8.8404 1.0243 0.476 3.1493-2.6975 1.8223-3.3107 0.6857-1.0755-1.3363-1.3197-3.2471-1.3146-4.7812zm-4.7357 20.152c2.8682-2.009 5.2616-2.186 8.1481-2.5647 4.4304-0.5394 10.097 0.1302 11.355 4.7735 1.2347 4.5567-7.5072 7.2394-14.579 7.3604-3.6006 0.062-7.7666 0.762-8.8479-1.7643-1.0143-2.3695 2.4756-6.7355 3.9242-7.8049zm-893-325.59c5.694-19.786 2.1385-30.863 11.625-55.25l23.094 7.6875s0.9793 23.92-3.6758 37.247c-4.6615 13.315-19.977 23.935-31.043 10.315zm172.1 535.09c2.7271 0.3279 9.4181 9.8547 12.438 18.562 2.7712 8.0734 1.8564 18.33 3.875 27.031 4.534 29.817 4.2658 59.689 3.0625 68.719-0.5993 4.4969-3.4996 2.6641-7.4688-1.625-5.772-6.2375-4.9742-6.3703-4.9062-23.688 0.058-14.841-3.2342-51.517-4.75-58.969-2.8034-13.782-3.9703-26.93-3.3125-29.187 0.1844-0.6332 0.5575-0.9045 1.0625-0.8438zm270.11 3.568c29.741 4.7361 53.518 25.039 67.142 58.463 13.152 33.988 16.39 80.359 18.431 122.99-0.1422 10.2-4.3458 7.6247-15.361 1.2864-12.036-5.879-14.596-4.1763-32.164-0.154-10.962 2.5098-9.9712-4.9451 8.0626-17.312 6.1403-4.0061 13.285-9.3562 10.937-10.156-1.1904-0.4057-6.6844 1.0713-10.656 4.2813-17.694 14.3-22.492 17.779-17.39 3.875 1.2892-3.5136 5.3888-13.264 7.1015-17.932 6.4096-17.47-0.9763-24.946-22.742-36.005-5.4473-2.7675-9.0293-7.3827-3.5938 2.2813 4.4451 7.9032-4.7445 14.279-16.125 5.0313-7.9097-6.4275-23.803-2.1459-28.935 5.875-4.9693 7.768-2.3106 22.263 7.4851 26.959 8.6322 3.718 11.852 1.0418 3.5029-4.7471-10.737-7.4447-8.6488-20.006 3.4101-19.959 2.9776 0.012 8.2399 3.331 21.536 10.56 9.5146 5.1477 16.288 2.9712 16.3-4.7158 0.01-5.1445 2.9498-4.7227 9.2082-1.6303 8.4277 4.1646 7.504 7.9396 3.0524 19.583-3.0035 8.1315-4.4977 17.375-7.25 25.875-7.0992 28.611-8.0437 61.015-0.1935 71.114 20.879 26.862 43.054 24.015 62.04 6.2636l-0.8124 29.416c-19.359 15.538-41.976 26.128-76.892 83.726-12.176-15.296-64.424-77.821-148.2-91.946l-18.852-25.795c0.3199-1.5997-14.087-95.933-23.51-128.05 0 0 10.365-15.737 19.78-27.338 37.615-46.344 101.2-99.381 164.69-91.843zm-109.26 26.775c-3.2227 1.0217-4.2684-5.4034-2.5156-6.6266 3.8738-0.3238 5.2434-0.203 9.1271 0.083 2.9309 0.1816 2.8615 3.5407-6.6115 6.5438zm-141.38-4.8117c4.1829 2.9798 9.2875 11.003 14.281 18.313 2.7627 4.044 1.1958 10.754 1.625 17.375 0.6085 9.3869 1.6507 24.865 2.3125 34.375 1.2906 18.547-0.4466 34.059-3.1563 39.656-2.7697 6.6962-8.3876 2.0686-9.7812-7.0938-0.335-2.2022 1.4976-24.946 1.5-37.437 0-21.483-5.4903-47.996-6.7812-65.188zm126.81-0.1326c1.4779-0.083 2.6025-0.031 3.5808 1.2228 4.5105 5.7786 6.342 9.2741 2.2318 12.441-5.4463 4.5463-10.404 3.4013-13.426-5.237-1.9438-6.1521 2.6457-8.092 7.6138-8.4269zm-16.796 5.0927c4.8622 3.2592 9.688 11.839 10.193 18.03-0.3098 1.6991-1.8048 3.1402-5.0696 5.7775-3.2359 2.9652-4.2576 2.7734-7.8705-2.9234-5.6653-8.851-8.3173-14.679-7.2065-17.734 2.831-2.9419 6.5146-4.1164 9.9539-3.1502zm198.04 1.1213c8.1187 0.6884 16.136 4.3972 24.037 6.2645l-12.053 11.653c-3.5844-5.9726-7.6654-11.945-11.984-17.918zm-216.05 6.0749c4.4517 5.796 12.215 20.953 11.801 26.586-1.1358 1.9177-2.8958 3.6282-4.7616 4.7008-1.4818 0.4024-2.8149-2.1929-7.8386-11.078-8.7342-15.448-11.291-19.804-6.7576-21.661 2.3826-0.2633 6.0097-0.1495 7.5567 1.4529zm-17.61 3.5937c4.8584 4.3208 16.512 27.341 16.848 33.817-0.1324 1.8219-0.6763 3.4016-1.7567 4.6278-7.3279 7.8806-5.4721 6.6113-16.382-15.846-9.2119-18.469-11.643-20.291-5.5519-22.37 1.3477-0.46 4.7198-1.0671 6.8427-0.2294zm-17.515 6.0053c3.1974-0.048 4.097 5.304 10.331 17.482 10.436 23.027 14.353 26.23 11.989 28.69-2.9113 3.6715-4.6141 6.2531-7.3797 1.7913-6.2936-10.234-12.538-23.29-18.398-34.752-4.6912-8.5561-5.1106-9.594-2.0968-11.688 1.7283-1.2004 4.3031-1.5048 5.5544-1.5236zm186.28 6.542c-3.9206 1.103-19.69 6.0969-10.031 7 1.9522 0.1824 6.8988-1.0545 10.375-1.2943 9.7634-0.6737 30.071 1.1649 29.344-0.7057-1.8525-7.0136-24.367-6.3633-29.688-5zm-199.93 2.1554c0 0.3888 2.5313 4.8763 5.0503 9.2729 14.834 28.658 23.081 39.094 20.445 43.623-2.1681 2.7343-5.519 6.1754-7.5009 5.3591-3.1899-1.3139-7.4418-10.694-18.056-31.927-10.97-21.943-12.112-23.585-6.4727-26.434 2.3091-1.0689 5.1109-1.8636 6.5351 0.1059zm-14.817 10.11c6.8177 11.08 5.9219 9.6235 5.8438 45.687-0.049 22.443-2.9329 36.759-6.6876 42.281-1.9663 2.8921-5.4356 1.191-7.1562-4.4687-0.7871-2.5892 1.4548-6.4346 1.875-10.531 2.6532-27.006 0.7999-53.994 0.862-79.553 2.058-0.2125 4.1619 4.7771 5.263 6.5845zm175.84 8.8437c3.1749 4.5326 2.3989 8.1852 2.375 14.281-0.034 8.6213 0.5895 9.2571 6.5418 4.9038 5.2764-3.859 5.6998-4.1077 15.114 2.2813 5.5847 3.7897 12.629 4.2195 17.188 0.031 3.2107-2.95 4.3221-1.6208 8.625-0.5 4.6817 2.6016 6.0129 3.0023 16.062-1.875 6.7848-3.0012 7.059-3.4334 11.094-1.3101 7.0988 6.2564 8.1466 3.993 7.1874-4.1875 0.019-2.855 0.8463-8.1907 1.6876-11.656 3.5318-14.551-2.1881-14.71-9.75-5.4374-2.9288 3.5911-9.4566 5.1472-15.625 2.25-8.8352-4.1498-22.625-2.4714-32.82-0.7569-12.062 2.0284-17.647-1.2966-22.492-5.4307-2.746-2.3429-9.0199-4.4338-9.7154-2.64-0.6955 1.7937 0.7267 4.6201 4.528 10.046zm-161.75 20.406c1.5105-0.3259 3.8274 4.1476 7.2187 13.625 4.377 12.232-3.2728 54.755-7.875 61.719-2.4346 3.6538-3.9979 5.8951-9-0.875-1.9896-2.9755-0.441-3.9216 1.5313-12.281 3.0012-12.721 5.5288-33.301 5.6874-42.875 0.042-12.425 0.7256-18.943 2.4376-19.312zm15.375 41.25c1.0868 0.076 2.3571 2.5289 4.0937 7.375 2.4598 6.6572 1.2646 19.49-1.9687 29.312-1.8724 5.7216-3.6531 11.82-6.8438 16.938-1.0866 2.8706-6.6528 1.8667-8.1875-4.5-0.9711-4.0285 2.3793-9.0268 4-15.438 1.628-6.4393 3.4856-14.628 4.4063-18.75 1.6992-10.062 2.9114-15.049 4.5-14.937zm119 18.844c-0.135-0.018-0.2581 0-0.3438 0.031 0.025-0.038-0.063 0.064-0.094 0.094-0.2544 0.2524 11.601 13.17 14.781 16.781 1.6628 1.4077 15.944 18.77 7.0625 14.781-22.409-9.2884-48.634-4.7293-64.781 10.844-2.0228 1.9508-3.6936-0.044-9.8125-0.4999-12.543-0.9348-17.097 4.0387-9.4687 10.219 1.1679 0.9462 3.6055 1.3717 4.7061 2.8894 1.01 1.3926 0.7092 3.8899 1.2344 4.587 24.253 32.195 69.172 38.459 97.372 17.43 3.5475-2.6455 5.5377-3.5779 8.8438-2.5938 6.5594 1.9525 7.1389-3.542 1.3437-11.219-2.5272-3.3474-5.6391-7.209-3.8255-8.3201 3.5815-3.0808 5.3525-8.1139-0.875-10-4.2926-1.3001-9.1057-6.0765-11.518-12.742-2.8179-7.7859-30.44-31.713-34.625-32.281zm-110.09 14.094c5.2695-0.123 5.514 31.016-0.3125 40.469-2.9936 3.5783-9.8401-3.0759-8.8125-9.9062 0.7812-5.1928 6.3792-28.601 7.6562-29.813 0.5176-0.4914 1.0222-0.7396 1.4688-0.75zm107.47 19.438c4.4244-0.044 10.481 1.9365 15.296 6.2856 2.6034 2.3515 7.1607 12.536 5.2669 16.527-0.5295 2.0288-5.9964 1.9096-6.4918 0.4233-3.0047-20.551-19.667-23.533-24.957-4.3487 0 0-3.4288 2.9135-3.867-2.7034 1.1862-10.892 6.3064-16.099 14.753-16.184zm134.16 1.7812c5.295-0.099 10.344 2.5633 12.938 8.2188 1.808 3.9429 2.0059 7.2614 1.2882 8.9923-0.536 1.2928-2.3204 0.7317-2.3204 0.7317-8.4568-23.192-19.962-12.466-24.131 0.3545 0 0-4.3515 1.3427-4.8929-0.037-0.544-1.3868-0.2055-3.9935 1.5251-7.6039 3.304-6.893 9.5929-10.544 15.594-10.656zm-113.12 1.4385c2.9943-0.1622 8.1206 2.2725 11.954 6.1356 3.8937 3.9246 4.2767 6.2685 1.1303 9.1768-1.89 1.7509-8.6082 3.4793-9.9097 0.4393l-5.6582-13.216c-0.5381-1.257 1.1229-2.4621 2.484-2.5356zm-40.75 0.6243c3.3527 0.01 4.0611 0.7712-1.2036 13.017-1.1253 2.6173-14.632-1.1843-12.058-6.235 3.8621-4.0199 9.9088-6.7881 13.262-6.782zm135.28 0.9687c1.3484-0.062 2.4453 0.1323 2.9063 0.75-1.2074 0.434-6.3125 13.344-6.3125 13.344-4.8192-0.5823-10.582 0.099-11.625-3.8438-0.9846-3.7246 0.9603-5.9918 7.75-8.5937 2.055-0.7466 5.034-1.5527 7.2812-1.6563zm39.525 3.3126c5.115 1.8741 6.3107 6.2031 5.6563 8.4374-0.4955 1.6913-2.9122 1.7086-4.625 0.4063-1.6288-1.8922-4.0281-5.1136-3.8438-7.2813 0.5328-2.1573 1.183-2.181 2.8125-1.5624zm-254.78 11.927c1.5713 2.9586 4.4099 19.722 1.0938 19.291-3.2177-0.8299-4.7171-5.8875-5.2812-10.438-0.1162-0.9377 2.7494-8.7439 4.1874-8.8538zm56.281 8.9476c1.4892-0.2127 5.2401 1.1016 10.812 4.25 18.338 8.8589 37.136 10.112 57.104 5.6538 11.516-2.9878 14.454-4.7393 16.081-2.763 2.7634 3.3564-1.598 6.7144-17.86 12.18-17.833 5.9937-36.335 4.9825-60.666-12.185-6.5382-4.6132-7.3864-6.8623-5.4717-7.1355zm203.5 4.622c3.0184 5.6317-7.2596 10.975-12.466 12.48-11.063 3.1988-27.824 1.7056-37.29-3.9822-0.7947-0.4775-1.5566-0.986-2.2811-1.5253-7.6981-5.7308-4.5114-9.8267 4.0624-5.4063 9.22 4.7532 27.984 5.627 37.935 0.8275 4.9877-2.4056 8.4143-5.4261 10.04-2.3938zm-227.71 10.503c-1.0227 0.2272 0.7071 2.8134 4.2812 6.6874 25.086 28.155 84.935 43.429 118.58 14.412 10.536-9.8876 8.9306-14.337-7.6876-6.4376-18.376 6.0474-44.491 6.8394-67.076 3.4947-11.106-1.5005-29.196-5.7574-38.375-12.469-5.7816-4.2273-8.8166-5.888-9.7187-5.6874zm172.97 0.8437c1.5311 0.1234 4.2159 0.691 10.04 3.7195 8.4998 4.4202 27.801 2.9061 34.12 0.574 13.317-4.9148 16.05 1.3298 3.4336 8.3002-14.057 8.5094-33.459 5.1825-44.781-5.7812-3.5059-3.1418-5.4014-7.053-3.8628-7.3666 0.1496-0.031 0.8316 0.5364 1.0503 0.5544zm-166.3 49.8c49.4 4.514 123.95 53.534 153.02 112.42h-16.73c-29.205-46.341-74.14-83.639-127.47-97.554-2.1091-1.6234-9.9561-12.811-8.8248-14.865zm219.27 10.788-2.2812 16.28c-8.2781 6.7846-38.623 31.926-61.13 71.289-4.6878-0.2192-6.9608-5.8695-6.1789-9.7168 18.019-35.529 39.563-55.147 69.59-77.853zm-199.65 12.742c11.333-0.7786 85.072 38.822 109.9 88.891h-13.593c-27.932-36.374-58.975-60.104-86.531-69.626-6.7-7.0664-14.036-18.955-9.7782-19.265zm197.37 11.327-0.125 22.001c-17.642 17.175-30.537 34.451-40.633 55.563h-13.7s-3.0438-6.0341-1.9831-9.7935c15.57-28.021 30.481-48.422 56.44-67.77zm-112.02 77.564h-13.256c-11.189-15.818-27.811-31.038-43.069-40.095-6.2527-7.7494-13.259-17.311-10.439-18.862 0.1672-5.7217 58.843 33.927 66.765 58.957zm112.31-44.752-0.2871 12.719c-8.9727 11.474-16.492 21.098-23.675 32.032h-11.297c10.302-22.24 36.181-50.764 35.26-44.752zm-152.15 24.63c4.0891 1.078 19.027 15.343 18.55 20.122l-6.7241-0.1951c-3.7723-4.7626-8.2457-9.719-10.898-14.593-1.6616-3.0842-2.7268-5.9395-0.9276-5.3331zm149.55 3.933c0.046-0.016 0.068-0.011 0.094 0 0.021 0.01-0.1296 16.188-0.1296 16.188h-11.341c-1.2217-0.2221 5.4914-12.225 11.376-16.188z" transform="translate(-649.37 -550.75)" fill="#131f67"/>
     <path d="m1915.8 91.719c-55.578-0.0082-111.78 0.30954-174.31 0.96875l422.16 598.98 0.3416-133.06-135.47-174.83c30.831-9.5085 68.481-16.078 98.125-18.719-38.074-84.403-57.118-163.67-40.344-272.31-59.972-0.68898-114.92-1.0231-170.5-1.0312zm163.47 3.8125c-3.305 38.353-7.6471 81.125-0.6876 128.62-21.97-8.022-27.122 5.6818-30.765 7.1235-4.134-9.2164-19.447-25.162-36.784-6.4208-9.0137 9.7433-4.634 28.07 16.289 36.335-23.959 1.8392-36.411-18.638-40.615-39.757-12.95-8.2888-26.563-16.483-27.859-45.547l6.5 1.12c-2.2075 20.278 18.862 30.605 31.193 20.927 7.9729-6.1078 8.8263-15.534 5.6823-30.177 6.4032-1.3109 21.403-7.5904 17.438-26.859-5.4745-26.602-32.797-23.479-45.281-5.9846-10.377-12.844-29.401-15.227-37.031 4.7188-4.2504 11.111 5.4341 23.587 16.438 26-24.437 4.6856-36.758-29.008-38.125-51.812l-10.125-17.969c66.064-0.38392 94.955-0.30697 173.59-0.3125zm-330.91 0.65625 49.031 0.03125 357.84 463.06 0.75 115.28zm123.97 0.03125 7.8126 0.09375c6.125 40.757 29.564 70.266 69.656 84.625 2.0813 33.298 18.138 78.531 79.062 93.812-1.796 37.599 22.358 73.528 48.219 90.75 0-0.001-6.981 1.7281-12.437 2.25-34.767-27.567-43.336-68.156-46.781-84.906-1.1766-2.4186-4.49-3.0052-7.125-3.5938-29.755-10.51-54.797-34.95-65.031-64.781l-6.4374-29.281c0.015-3.7614-0.7496-1.9944-9.5938-5.25-22.951-8.4483-44.17-33.279-53.688-62.938-5.0046-15.593-3.6563-20.781-3.6563-20.781zm-31.531 0.09375 27.469 0.03125s0.163 4.8453 0.5624 8c3.6957 29.199 29.914 65.844 56.656 78 3.7835 1.7194 9.0494 4.1349 10.281 5.2812 7.4746 47.866 29.173 76.694 74.969 96.438 0.7286 0.7557 2.7937 1.2352 3.4063 2.1875 6.2433 29.6 19.888 63.914 45.844 82.781l-11.219 1.1562zm134.18 50.237c6.211 0 11.25 5.0395 11.25 11.25s-5.039 11.219-11.25 11.219c-6.2101 0-11.25-5.0082-11.25-11.219 0-6.2105 5.0399-11.25 11.25-11.25zm-379.12 61.388c0.6499 1.6248-153.64 132.13-138.62 377.69l-4.4687 5 1.2187 1.75c-5.0951 5.7828-10.002 10.424-15.562 16.062 31.994 20.39 87.762 42.647 87.938 42.062l-10.656 24.688 66.656 21.531-8.9375 23.469s-46.374-15.375-65.594-21.781c-9.4821 21.023-15.222 43.226-22.125 65.094-0.65 1.7629-2.1653 0.9152-4.5312-2.5-34.625-59.05-105.74-101.66-103.34-97.438l-252.19 239.28-1.7188 147.88 174.53 179.88s-50.507 24.854-74.406 41.156c18.585 15.167 39.62 26.846 58.094 41.188 38.217 26.952 64.01 66.572 88.781 93.406 116.82-57.917 234.46-54.692 336.06-19.531-11.837 12.455-25.048 23.245-37.25 36.75 29.533 77.489 20.081 231.38 18.594 235.56 61.486-62.81 152.95-197.49 140.75-387.12l25.875-25.938c-0.4717-1.3295-64.726-35.724-91.5-43.213l7.4068-23.568-64.125-20.031 7.1563-18.719 63.875 18.5c12.095-29.692 24.906-71.281 24.906-71.281 25.507 38.161 53.625 72.87 111.5 108.19l250.75-239.91-1.625-154.25-170.72-170.72 71.063-37.031c-6.828-5.507-16.727-10.733-23.75-16.25-0.5011-0.39371 1.4096-1.5816 0.9062-1.9688-1.7837-1.3718-3.0884-2.4851-4.9062-3.75-0.4082-0.28398-1.6897 1.5646-2.0938 1.2812-24.114-16.91-48.236-33.55-67.219-53.781-0.4752-0.51137 0.2273-2.6152-0.25-3.125-9.8651-10.539-19.685-20.346-29.719-30.719-4.6535-4.6966-12.344-15.844-12.344-15.844l-0.4376-3.6875-11.1-13.63c-34.718 20.478-182.74 71.876-325.97 14.969l27.2-27.21c-7.2459-17.482-11.945-36.991-13.812-52.969-7.4903-64.078-4.625-179.47-4.625-179.47zm451.5 36.281c6.5534 0 11.875 5.3216 11.875 11.875s-5.3216 11.875-11.875 11.875-11.844-5.3216-11.844-11.875 5.2903-11.875 11.844-11.875zm37.141 14.125c6.0437 29.513 19.335 72.369 32.577 101.26l-15.774 1.7493c-12.844-8.3447-26.418-20.52-27.843-37.79-34.731 0.26692-44.888-54.208-32.202-47.67-1.6175 18.61 11.732 25.944 24.832 24.118 11.277-1.572 21.026-17.145 7.606-34.334 5.9644-2.3209 8.8807-4.074 10.804-7.3292zm-492.4 87.28c2.3002 37.743 9.7093 65.269 16.625 93.781l-68.625 64.75c5.3527-59.101 22.712-111.92 52-158.53zm329.12 124.31 8.7188 12.5c-99.173 58.237-268.44 62.353-371.56 13.25l13.688-13.031c90.678 40.945 238.31 43.988 349.16-12.719zm-644.09 19.438c-9.9922-0.12297-21.526 3.6875-33.75 13-45.495-20.726-75.294 27.724-47.156 59.812-4.1651 23.097-7.3183 27.399 10.062 50.781-18.463 2.3497-41.769-2.48-61.594-5.5312 3.3499 34.203 52.328 42.166 72.719 38.406 22.014-4.771 42.782 6.1223 43.688 6.375 12.944 3.6138 20.985 9.8446 33.75 12.844 21.051 5.008 51.878-19.663 56.344-43.094 0.4221-3.1479 1.3948-5.9986-0.3438-6.4688-14.391 3.6804-30.201 8.8683-44.219 11.938-13.729 3.3688-24.076 6.6919-34.531 14.875l-0.875-28.25c71.272 3.391 40.254-64.371 36.219-67.281 13.243-26.736-2.6868-57.066-30.313-57.406zm647.81 2.125 15.5 37.281-41.188 13.969-10.531-36.5zm-650.78 1.125c24.225 0.23455 45.892 25.747 22.625 54.312 45.101 39.776-12.698 82.4-40.219 52.812-36.64 33.552-75.563-1.4927-55.094-38.031-39.074-34.966 9.1136-81.862 42.031-51.656 8.0848-12.427 19.645-17.544 30.656-17.438zm281.25 13.656c5.7989 0 10.5 4.701 10.5 10.5s-4.7011 10.5-10.5 10.5c-5.7999 0-10.5-4.701-10.5-10.5s4.7001-10.5 10.5-10.5zm-268.34 0.78125c-0.5997 0.007-1.3161 0.27808-2.0938 0.96875-1.1753 0.10908-3.7254 4.4886-10.125 11.906-11.122 12.892-12.323 13.014-12.323 13.014-11.85-3.8774-19.774-1.7836-27.584 3.1556 0 0-8.902-1.6866-21.187-11.951-5.6032-4.6843-8.6183-5.6998-9.5937-3.1875-1.0391 2.6765 1.5021 5.3126 12.25 12.625 14.874 10.119 13.951 9.3457 13.951 9.3457-0.9204 8.8932 0.5224 16.122 3.886 22.853 0 0-2.6204 6.3163-13.181 20.145-2.9859 3.9082-5.4318 8.1585-5.4376 9.4375-0.021 5.3803 4.6735 1.7638 15.469-11.875 4.2302-5.3459 10.036-12.999 10.036-12.999 12.679 4.3908 17.121 1.7203 25.07-1.1052 0 0 2.7258 2.0265 9.6396 7.5382 12.651 10.085 15.388 11.158 16.942 9.8788 2.0931-1.7233 1.8157-2.2866-2.9687-5.75-14.269-10.331-19.178-16.3-19.178-16.3 2.9021-11.301-0.2722-20.651-3.3827-26.546 0 0 0.2257-1.4397 8.2791-10.435 5.9149-6.6065 14.01-17.031 13.5-18.531 0.1358-0.93343-0.6517-2.2025-1.9687-2.1875zm292.03 2.2812 37.094 11.531-8.1876 38.562-39.531-12.75zm268.44 9.4688 10.344 37.625-38.594 10.25-6.3125-39.938zm27.094 0.625c5.8007 0 10.5 4.701 10.5 10.5s-4.6993 10.5-10.5 10.5c-5.7989 0-10.5-4.701-10.5-10.5s4.7011-10.5 10.5-10.5zm87.719 1.3438 32.438 28.875-36 18.188-17.344-37.625zm-305.88 8.3438 37.688 4.4375-1.5313 40.5-43.25-5.7812zm-130.75 0.4375 41.938 18.406-15.125 42.25-42.938-18.438zm108.09 3.2812c15.456 2.4195 11.297 20.657 0 21-5.799 0-10.5-4.701-10.5-10.5s4.701-10.5 10.5-10.5zm135.59 0.0312 5.1563 40.531-39.125 2.375-0.8438-41.188zm26.906 4.625c5.7989 0 10.5 4.701 10.5 10.5s-4.7011 10.5-10.5 10.5c-5.8011 0-10.5-4.701-10.5-10.5s4.6989-10.5 10.5-10.5zm-544.68 3.8019c5.9828 0 10.844 4.8306 10.844 10.812 0 5.9819-4.861 10.844-10.844 10.844-5.9809 0-10.812-4.8618-10.812-10.844 0-5.9819 4.8315-10.812 10.812-10.812zm463.31-0.39566c5.7989 0 10.5 4.701 10.5 10.5s-4.7011 10.5-10.5 10.5c-5.8007 0-10.5-4.701-10.5-10.5s4.6993-10.5 10.5-10.5zm184.28 2.5938 15.25 41.656-42.75 13.781-12.094-42.781zm30 1.125c5.7989 0 10.5 4.701 10.5 10.5s-4.7011 10.5-10.5 10.5c-5.7999 0-10.5-4.701-10.5-10.5s4.7001-10.5 10.5-10.5zm73.906 11.812 27.625 19.531-13.687 7.625c-3.5876-8.586-9.9212-18.766-13.938-27.156zm-394.88 3.7812 40.781 8.8438-6.2187 42.719-44.5-8.875zm-121.28 2.3438 21.656 10.188-14.281 35.594-35.031-18.656zm96.812 2.3125c5.7999 0 10.5 4.701 10.5 10.5s-4.7001 10.5-10.5 10.5c-5.7989 0-10.5-4.701-10.5-10.5s4.7011-10.5 10.5-10.5zm235.53 2.3438 7.2812 42.719-46 6.4688-2.8438-43.562zm172.22 0.8125c5.7999 0 10.5 4.701 10.5 10.5s-4.7001 10.5-10.5 10.5c-5.7989 0-10.5-4.701-10.5-10.5s4.7011-10.5 10.5-10.5zm-32.625 0.3125 15.219 37.656-45 18.812-13.312-37.688zm-114.75 2.7188c5.8006 0 10.5 4.701 10.5 10.5s-4.6994 10.5-10.5 10.5c-5.7989 0-10.5-4.701-10.5-10.5s4.7011-10.5 10.5-10.5zm-151.97 4.2812 43.062 0.78125-0.5 43.188l-46.8-1.29zm344.41 3 16.938 11.75c-174.31 112.09-419.19 125.99-610.28 15.656 0 0 7.8085-7.782 12.25-12.344 172.27 103.1 423.77 88.628 581.09-15.062zm-367.75 4.875c5.8006 0 10.5 4.701 10.5 10.5s-4.6994 10.5-10.5 10.5c-5.7989 0-10.5-4.701-10.5-10.5s4.7011-10.5 10.5-10.5zm88.406 2.375c5.799 0 10.5 4.701 10.5 10.5s-4.701 10.5-10.5 10.5c-5.7998 0-10.5-4.701-10.5-10.5s4.7002-10.5 10.5-10.5zm-205.09 5.7812 44.969 13-7.6562 35.5-49.312-14.188zm-29.75 0.25c5.8006 0 10.5 4.701 10.5 10.5s-4.6994 10.5-10.5 10.5c-5.7989 0-10.5-4.701-10.5-10.5s4.7011-10.5 10.5-10.5zm349.28 7.5625 10.75 39.844-49.719 10.625-6-39.188zm28.562 5.7812c5.7999 0 10.5 4.701 10.5 10.5s-4.7001 10.5-10.5 10.5c-5.7989 0-10.5-4.701-10.5-10.5s4.7011-10.5 10.5-10.5zm-649.53 6.1875-0.094 27.938c-8.2458-6.7971-17.56-14.031-27.094-21.344 9.7246 0.51625 18.764-2.1671 27.188-6.5938zm-102.41 0.6875c2.269-0.0221 7.5798 1.8325 13.906 1.8125 20.246-0.0641 58.064 6.2514 69.25 15.438 3.7275 3.0505 9.307 5.76 12.344 10.688-0.01 2.3495-3.3329 2.4102-8.2188-0.625-9.3732-5.8222-24.971-11.012-45.844-13.906-3.7717-0.52298-4.2418-0.36989-4.25 1.4062-0.01 2.1954 3.476 3.4771 14.469 5.2812 14.226 2.3348 17.254 3.7306 20.406 4.5938 8.4483 2.3132 3.0502 5.4038-5.6471 6.2347-35.494 3.3247-62.068-11.947-67.415-29.391-0.4303-1.1445-0.031-1.5212 1-1.5312zm494.47 0.625 44.656 5.7812-2.0313 37.375-48.875-5.5938zm-379.75 3.25c7.8013 6.1241 2.4353 24.691-1.8125 30.156-2.75 3.0693-9.1906 1.4416-9.1562-2.875 0.9721-3.8771-0.4035-22.343 0.4374-28.062 3.1095-1.7709 7.6893-1.2711 10.531 0.78125zm517.5 1.6562 2.3125 38.531-48.719 2.2188 0.375-37.844zm-164.38 2.5938c5.7989 0 10.5 4.701 10.5 10.5s-4.7011 10.5-10.5 10.5c-5.7999 0-10.5-4.701-10.5-10.5s4.7001-10.5 10.5-10.5zm-271.3 0.54c1.7989 28.275-41.629 47.461-57.875 38.781-7.1938-3.8434-4.2015-6.2118 10.062-9.0938 18.457-4.8862 30.612-9.6459 30.625-13.094 0.01-2.1155-2.7889-1.8605-10.312 0.9375-11.584 3.891-23.627 5.5634-34.688 10.531-8.2681 3.7539-11.485 5.0694-13.344 2.8125-3.8949-4.7314 14.477-16.67 33.531-19.844 14.296-2.3811 28.71-10.002 42-11.031zm462.72 3.5312c5.7998 0 10.5 4.701 10.5 10.5s-4.7002 10.5-10.5 10.5c-5.8006 0-10.5-4.701-10.5-10.5s4.6994-10.5 10.5-10.5zm-97.656 7.6875c5.7999 0 10.5 4.701 10.5 10.5s-4.7001 10.5-10.5 10.5c-5.7998 0-10.5-4.701-10.5-10.5s4.7002-10.5 10.5-10.5zm233.97 17.844c70.276 66.914 147.3 143.95 210.84 207.31-0.091 33.155-0.2813 99.469-0.2813 99.469l-242.62 230.59c-43.935-26.821-81.128-60.352-115.38-119.91 3.8611-3.3327 7.2588-5.4501 10.188-9.0937l-12.656 7.5625c-44.757-71.582-63.74-214.2 12.281-328.53l-76.812 2.8125 12.531-26.156 83.625-4.5625 33.812-36.281s10.715-1.9823 19.594-4.0312c8.8072-2.0327 26.786-7.1764 39.969-11.438 13.182-4.261 24.401-7.752 24.906-7.75zm-567.22 18.531s72.215 39.247 112.31 117.84c-129.62 111.5-178.47 241.33-189.5 376.47-70.547-65.984-106.2-102.48-169.94-166.56l2.3126-95.625zm272.62 12.469c-18.684 39.945-34.758 83.704-49.156 130.59l-20.094-5.9375s12.997-5.4346 18.781-8.875l-10.438-16.812 19.781-8.125-11.687-14.25 20.062-11.625-10.031-12.594 18.375-9.1875-11.406-13.125 19.281-10.75-10.062-12.562zm6.1563 0.0937s2.5878 0.49269 5.625 1.0938c0.7296-0.2795-3.6211 10.467-3.1563 10.844 7.0182 1.4447 7.4271 1.0543 9.5313 1.6875l5.3437-11.062 8.7813 1.6562c-17.714 39.977-36.657 83.716-47.531 131.06l-10.344-2.1562s3.0222-9.9832 3.0313-11.312c-1.2147-0.25693-7.0385-2.709-8.8438-3.4375-0.6224 1.5616-4.3125 13.125-4.3125 13.125l-8.1875-0.21875c13.401-51.695 36.763-109.02 50.062-131.28zm33.656 1.5312 18.344 15.188-20.812 8.0938 10.781 14.344-22.062 7.9688 12.656 14.906-21.844 8.0625 13.031 18.031-22.719 7.6562 14.344 15.844-20.5 9.5938 12.281 12.156s-12.791 4.217-13.531 4.4062c-2.0562 0.52649-10.656-1.5938-10.656-1.5938 12.959-46.135 28.971-92.9 50.688-134.66zm-446.28 7.6875c-5.0653 3.2871-2.1759 10.446-8.5313 16.562-1.0144 1.096-1.1014 3.614-1.5 5.8125-0.3014 1.6681-5.3232 21.631-5.3232 21.631s1.2689-1.5253 3.2787-7.8925c1.7153-5.4341 3.2048-15.747 4.1344-17.468 4.6839-1.431 5.3949-16.709 10.145-14.617 2.7437 1.2086 2.2198 3.7056 0.6716 9.5649-3.3813 11.71-4.7086 16.643 1.0937 8.6562 8.6674-10.433 9.5136-19.85-0.25-21.844-1.029-0.19741-3.121-0.386-3.7187-0.40625zm131.06 4.3438-226.72 212.88-0.6874 79.438 78.906 79.969 56 54.281c20.328-121.57 66.965-237.54 181.78-337.91-17.593-28.288-47.731-63.923-89.281-88.656zm611.1 2.2c-133.2 62.6-163.8 191.01-122.6 307.29 63.5-81.69 113.3-158.4 122.6-307.29zm-474.12 6.5 60.5 19.469-22.781 77.688-54.469-16.531-5.5625-13.75zm467.44 2.0312c-5.7888 103.89-44.964 205.35-113.12 284.97-34.465-85.024-13.735-220.96 113.12-284.97zm-325.84 0.5625-3.8126 9.6562 8.375 2.375 3.5626-9.8125zm-8.375 22.812-3.4376 9.8125 8.5938 2.9062 3.2188-9.9688zm356.88 1.7812c-18.647 144.1-96.501 275.24-178.75 342.06 26.21 42.515 57.029 69.861 88.344 92.688l231.6-221.89-0.9-74.03zm-612.25 38.25c-1.4231 5.2684-1.9274 7.9468-1.9274 7.9468s2.6679-2.4653 9.7116-6.3189c45.523-22.706 30.834 11.823 9.385 24.594-4.7933 2.5522-9.7212 5.5846-9.7212 5.5846s4.556 1.0307 9.4919 1.9467c27.628 5.7411 21.746 21.901-7.0679 19.386-4.26-0.37194-9.2659-1.1782-9.2677-0.93989 0 0.23828 1.7266 6.3067 3.7211 11.33 9.714 24.466-8.4064 26.37-20.325 10.815-1.6594-2.1656-5.4205-8.142-5.4205-8.142s-1.1749 4.5206-1.8921 8.892c-10.297 38.346-35.701 37.374-26.219-1.5312 1.1868-4.0209 2.6318-11.216 2.6318-11.216s-5.712 3.4513-11.928 6.2269c-32.901 14.69-38.242-0.42777-8.3544-22.534 8.504-6.2899 11.386-8.7606 11.386-8.7606-5.2925-0.40434-10.174-1.2158-14.483-2.2975-23.842-5.9838-30.198-20.236 8.0038-19.567 5.6426 0.11391 11.39 0.48719 11.39 0.48719s-1.8838-8.1932-3.874-14.366c-9.2157-28.584 9.3572-31.985 25.025-6.379 3.3334 5.4457 4.2895 5.4807 4.2895 5.4807-0.4814 0.0172 0.9842-9.751 4.7806-18.785 18.968-35.133 26.395-3.0665 20.665 18.148zm409.75-28.438c-15.914 28.116-29.789 56.07-36.406 85.219l-61.906-1.0625c4.2829-25.845 15.218-52.728 28.281-81.156 25.198-0.68839 47.929-1.7956 70.031-3zm-163.44 12.469-3.5624 10.344 8.9687 2.75 3.25-10.062zm-462.94 19.406c-6.6319 17.234-8.8513 36.428-12.531 51.812-1.5525 8.9175 0.029 12.631 5.375 14.625 7.606 2.8375 18.581-1.0289 24.719-9.8125 3.4611-4.954 5.9738-15.184 6.5-33.25l0.5938-16.094c-9.4091-1.7484-15.834-4.2697-24.656-7.2812zm454.56 2.25-2.9687 9.5 8.6563 3.2188 3.3124-9.5938zm400.94 3.5625c10.532 0.25896 12.49 1.2037 22.031 6.8438l18.406 18.938c-4.8245 4.6198-7.8437 11.109-7.8437 18.312 0 14.01 11.365 25.375 25.375 25.375 6.9412 0 17.812-7.3125 17.812-7.3125l29.17 30.212c-17.004 7.4492-33.656-9.6895-39.918-16.47-1.4688-1.5904-1.8473-2.6825-1.8473-2.6825s0.2593 0.83421-0.3497 4.186c-2.4444 13.452-15.713 53.152-28.399 51.036-14.288-2.3827 0.2597-59.133 0.4135-57.825-9.8224 10.384-57.688 21.44-54.335 9.8456 6.661-23.033 42.464-31.91 47.173-35.911-19.038-11.452-43.172-43.21-27.689-44.547zm-853.19 0.74545c6.0626 0.42595 10.223 1.1577 14.344 2.8796 1.9194 0.51353 2.0059 2.1169 2.2188 3.625 0.036 6.8021 1.7417 26.765-4.5626 26.969-7.0028-0.14633-13.576 1.355-18.187 4.875-3.7085 2.8308-4.9382 0.78565-3.9376-6.4688 0.9695-7.029 4.4634-21.801 5.9688-27.781 0.2391-2.467 2.2003-4.2092 4.1562-4.0983zm189.16 0.25455c-14.01 0-25.375 11.365-25.375 25.375s11.365 25.375 25.375 25.375 25.375-11.365 25.375-25.375-11.365-25.375-25.375-25.375zm0 8.875c9.1063 0 16.5 7.3937 16.5 16.5s-7.3937 16.469-16.5 16.469-16.5-7.3624-16.5-16.469c0-9.1063 7.3937-16.5 16.5-16.5zm130.93 0.3078c58.162 100.4 51.423 238.2-17.147 338.44l73.719-5.1563-9.6875 18.875-78.594 7.6563c-12.008 10.991-22.938 23.556-34.75 35.312l-0.125 4.1563c-26.943 6.2561-53.912 13.458-81.375 23.355-14.497-14.233-41.764-42.692-41.585-43.407l1.7531-9.2127c186.91-95.361 132.23-286.61 119.08-302.33 20.051-24.075 43.985-46.732 68.716-67.687zm518.76 18.255c7.5706 0 13.688 6.1481 13.688 13.719 0 7.5706-6.1169 13.719-13.688 13.719-7.5706 0-13.719-6.1481-13.719-13.719 0-7.5706 6.1482-13.719 13.719-13.719zm60.938 3.6875 22.969 23.656c-2.9814 2.942-7.0726 4.7812-11.594 4.7812-9.1063 0-16.5-7.3624-16.5-16.469 0-4.6972 1.9702-8.9626 5.125-11.969zm-788.91 2.9375c7.5707 0 13.688 6.1169 13.688 13.688 0 7.5706-6.1169 13.719-13.688 13.719-7.5697 0-13.719-6.1481-13.719-13.719 0-7.5706 6.149-13.688 13.719-13.688zm-102 5.75c6.4194 2.147 4.9233 8.1451-3.3711 13.422-5.3668 3.4142-10.283 4.1676-15.004 1.6403-8.9458-4.7891 9.6158-18.189 18.375-15.062zm105.97 33.562-82.594 79.906c5.1972-13.277 5.3885-26.518 5.7813-39.781 24.853 2.5617 35.259-10.046 31.625-36 16.053 0.95802 32.69-0.73431 45.188-4.125zm132.34 9.125c38.297 109.2 5.0353 224.76-114.75 291.69 4.9315-104.64 48.851-204.68 114.75-291.69zm109.09 9.5625c65.734 17.206 140.56 25.226 218.25 25.281 0.5845 29.561 2.0052 60.823 8.0625 91-66.179-17.311-140.1-25.359-220.84-23.938 3.3506-31.244-2.0126-66.684-5.4687-92.344zm487.44 16.156-70 81.844 2.9375-44.688c23.576 3.0022 31.972-9.4333 28.5-34 12.86 1.5915 25.702-0.66095 38.562-3.1562zm-680.19 4.5312-5.5313 32.688c-13.97 0.37836-27.683 5.339-27.5 36.531l-41.75-0.5zm770.38 6.0312c7.5706 0 13.688 6.1481 13.688 13.719 0 7.5706-6.1169 13.719-13.688 13.719-7.5706 0-13.719-6.1481-13.719-13.719 0-7.5706 6.1481-13.719 13.719-13.719zm-833.88 4.1562c7.5706 0 13.719 6.1481 13.719 13.719 0 7.5706-6.1481 13.688-13.719 13.688-7.5706 0-13.719-6.1169-13.719-13.688 0-7.5706 6.1481-13.719 13.719-13.719zm803.28 14.062-7.3126 49.5c-19.072-1.6764-34.99 1.2629-30.094 34.812-16.137-1.5775-38.546 2.234-53.562 3.5312zm-68.344 8.9688c7.5706 0 13.719 6.1481 13.719 13.719 0 7.5706-6.1482 13.688-13.719 13.688-7.5706 0-13.719-6.1169-13.719-13.688 0-7.5706 6.1482-13.719 13.719-13.719zm-835.44 10.625c7.5706 0 13.719 6.1481 13.719 13.719 0 7.5706-6.1481 13.688-13.719 13.688-7.5706 0-13.688-6.1169-13.688-13.688 0-7.5706 6.1169-13.719 13.688-13.719zm45.469 16.219c17.51 3.9296 9.4092 44.744 5.4688 55.844-0.2993 0.2993 48.853-25.75 51.781-14.25 1.9203 23.054-40.687 39.125-40.687 39.125s28.717 24.945 29.531 40.625c0.07 10.144-12.007 8.2631-27.688-4.5938-6.7021-6.5842-11.888-11.518-16.5-16.094 5.386-4.6538 8.7813-11.546 8.7813-19.219 0-14.01-11.365-25.375-25.375-25.375-7.7374 0-14.658 3.4737-19.313 8.9374-3.6365-3.5022-7.7517-7.5861-13.281-12.812-9.0577-8.4696-15.415-15.201-14.5-18.25 11.951-8.4141 35.722 14.193 37.844 16.25-1.7809-4.4073 11.365-47.843 23.937-50.188zm-23.937 50.188c0.095 0.2356 0.2231 0.375 0.4062 0.375 0 0-0.3071-0.2789-0.4062-0.375zm746.44-18.313c8.3296-0.11528 7.8108 18.841 4.8438 28.688-2.0289 7.5072-4.0312 13.656-4.0312 13.656s7.019-5.4826 10.125-6.9375c22.666-10.615 31.114 1.4045 19.687 15.344-5.4909 7.17-12.981 8.7599-19.062 14.781 8.663 0.3945 18.611 2.314 26.094 6.7187 5.8191 3.4789 10.386 7.695 10.375 10.313-0.023 5.8595-14.414 9.0172-27.875 7.5-5.7269 0.1248-16.5-2.9376-16.5-2.9376s4.4661 7.5136 6.0937 12c5.0255 13.946 3.2636 30.279-4 30.25-12.156-3.2496-18.09-16.764-22.844-26.469-3.9022 10.817-7.6842 22.396-16.375 30.438-8.6175 7.9736-13.037 1.3519-12.594-12.156 0.1764-5.3736 4.125-21.406 4.125-21.406-51.055 17.236-47.263-6.0822-7.4183-26.504-24.542-11.704-39.453-22.234 2.2933-24.621-1.1051-0.9997-8.3945-23.358-0.5938-28.594 7.2483-4.8654 22.696 11.845 23.438 12.656-0.3122-1.6519 4.0683-14.743 11.406-23.781 5.6253-6.3674 9.7996-8.8958 12.812-8.9375zm-47.062 48.656c0.052 0.047 0.1026 0.052 0.125 0 0 0-0.1146 0.001-0.125 0zm223.5-14.768c-8.8919 0.81-14.422 8.6983-18.535 15.578-0.8339 1.395-2.3731 1.8909-2.9457 3.734-3.685 11.862-6.9 26.07-8.8698 43.759 5.6337 2.3156 18.34 6.2226 23.959 4.1213 1.5814-0.6617 1.0908-4.7485 1.6256-6.0951 8.864-22.319 13.245-39.004 13.247-49.258 0-8.2669-2.8435-12.353-8.4813-11.839zm-913.57-1.0136c9.1062 0 16.5 7.3945 16.5 16.5 0 5.2347-2.4429 9.8914-6.25 12.906-10.627-10.597-16.067-16.147-23.187-23.125 3.0226-3.8246 7.6893-6.2813 12.937-6.2813zm916.71 7.8553c2.2291 5.4124-4.9348 11.29-14.207 11.254-5.5155-0.022-7.3104 0.7574-4.8552-4.0245 2.9228-5.8154 14.796-17.587 19.062-7.2292zm-124.4-3.824c7.5706 0 13.719 6.149 13.719 13.719 0 7.5707-6.149 13.688-13.719 13.688-7.5707 0-13.719-6.1169-13.719-13.688 0-7.5706 6.1481-13.719 13.719-13.719zm-723.16 0.9687c7.5706 0 13.719 6.1169 13.719 13.688 0 7.5703-6.1481 13.719-13.719 13.719-7.5706 0-13.688-6.149-13.688-13.719 0-7.5707 6.1169-13.688 13.688-13.688zm648.56 5.5626c-14.01 0-25.375 11.365-25.375 25.375s11.365 25.375 25.375 25.375 25.375-11.365 25.375-25.375-11.365-25.375-25.375-25.375zm-339.12 3.4062c-6.6712 29.238-16.939 57.189-29.906 84.844-24.462 1.4743-50.903 2.6164-68.344 5.0937 29.046-50.872 29.748-62.832 40.5-89.781zm42.031 4.125c6.8699 0.8115 14.4 1.85 21.188 3.1562-12.486 43.949-28.996 89.071-50.313 132.5l-12.906-2-6.125-7.5624 20.5-8.1876-15.969-16.312 26.469-8-16.281-16.063 26.156-6.5312-14-17 23.469-9.1562-14.906-19.25 25-6.875zm297.09 1.3438c9.1063 0 16.5 7.3937 16.5 16.5s-7.3937 16.469-16.5 16.469-16.5-7.3623-16.5-16.469c0-9.1063 7.3937-16.5 16.5-16.5zm-271.22 2.5 8.7188 1.4062-2.6875 9.3438 9.9375 2.125 3.2188-10.094s7.9923 0.7373 8.8437 1.375c-10.409 42.426-47.216 131.22-47.688 130.75l-9.4688-1.4062 2.5-8.9688-8.8124-1.25v-0.094l-4.25 9.75-9.4063-0.7812c22.789-52.005 38.305-91.929 49.094-132.16zm463.19 3.375c6.989-0.031 6.565 3.5712 1.5 16.75-4.7594 12.382-6.5415 17.343-8.8522 18.946-5.5086 3.909-17.372 0.6305-16.41-5.068 3.1211-18.5 4.2297-26.389 9.0043-28.901 4.975-0.9804 9.8233-1.7054 14.758-1.7272zm-428.12 1.5312 22.75 4.4062-19.031 11.313 12.094 14.125-23.375 9.9687 14.188 14.688-22.563 9.2188 13.719 16.156-23.406 9.875 15.937 13.812-26.312 8.3125 9.9687 15.312-9.9063 5.5313-12.219-1.9063c20.282-47.315 33.317-86.235 48.156-130.81zm55.906 11.312 44.562 12.125 8.9063 15.906-20.906 70.594-59.375-17.438zm-88.562 6.8125-4.25 11.594 9.8125 2.0312 3.7812-11.938zm-8.625 26.625-4.25 11.594 9.2187 1.8124 4.3438-11.719zm-8.6875 23.406-4.3438 11.531 8.9688 1.8437 4.2812-11.562zm418.68 21.218c0.01 0.0007-4.5483 3.2981-5.7468 4.7584 0.9914 2.6464 3.8675 6.7123 3.4384 9.3813-0.3913 2.0075-2.6298 3.6267-5.9924 7.2044-8.3889 9.7653-11.34 8.7014-6.4688-1.7188 1.6025-3.2753 2.3126-6.3125 2.3126-6.3125-1.9403 2.7165-3.4029 5.9364-4.7167 8.487-2.7679 5.3285-5.3479 10.364-5.3479 10.364 5.3435 1.8444 8.8949 5.8165 12.345 8.3921 0 0 1.7564-4.7246 2.9695-9.2432 1.6922-6.3017 5.0298-8.8955 9.125-11.062 2.5825-1.3696 5.0481-3.8587 5.0481-3.8587-4.5067-4.5963-5.0228-11.17-6.9661-16.392zm-427.96 2.8441-4.5938 12.281 8.9375 2.1875 4.9687-12.531zm-504.19 30.875c-0.8154 48.904 0.8055 81.104-0.9062 133.84l132.41 171.59-20.656 6.9376s-0.2251 2.3798-1.3438 2.6874c-28.294 7.7815-74.187 15.531-74.187 15.531 34.133 77.938 56.27 175.4 41 272.75l342.69-0.9063zm724.75 82.875-11.812 11.844c-174.28-94.321-414.31-93.95-589.47 20.25l-14.281-10.469c191.18-122.48 426.37-121.71 615.56-21.625zm-718.34-65.719 403.34 579.41-47.375 0.6876-355.62-465.22zm865.59 10.469s-11.648 3.0212-21.437 6.1562c-28.025 8.9746-41.138 25.182-38.563 47.688 0.7609 6.6486 2.4842 6.5548 13.906-0.6563 26.727-16.871 28.398-17.617 61.688-27.375 2.575-0.7543 6.3125-0.1874 6.3125-0.1874l-1.4687 26.281c-55.491-0.2089-52.46 43.868-36.5 66.781-5.5872 10.595-17.812 47.585 22.437 61.656 20.077 3.9984 41.343-12.314 40.688-13.156 37.034 17.515 80.013-11.85 46.5-62.719 12.6-22.184 3.7168-38.653-8.3126-52.812 0 0 2.0327 0.175 19.563 3.4062 26.59 4.9049 36.75 4.0313 36.75 4.0313 0.035-23.932-19.786-34.623-61.125-37.875-29.278 4.1305-80.438-21.425-80.438-21.219zm-446.5 2.7812c2.0021-0.01 3.9807-0.01 5.9688 0.031l-1.9375 40.875-45.031 2.0626-2.9374-40.719c15.509-1.0698 29.923-2.2017 43.937-2.25zm53.969 1 48.312 5.875-7.3125 38.219-44.5-4.7813zm390.84 0.4375c4.9628-0.1089 3.8813 5.047-1.9376 6.1875-8.6855 1.7001-30.957 14.665-30.969 18.031-0.01 2.1703 1.0959 1.8578 9.25-2.5 4.0752-2.1775 12.58-5.8892 18.875-8.2812 6.2953-2.3941 13.493-5.2758 16-6.4062 7.4872-3.3778 11.198-1.0426 8.5 5.3437-1.7835 4.2227-2.489 4.5543-19.844 10.062-15.704 4.9807-18.586 6.2706-28.563 12.656-3.721 2.3832-10.315 6.1885-14.656 8.4376-10.258 5.3115-12.34 5.3324-12.312-1.8126-0.5618-21.172 22.857-37.058 54.594-41.625 0.3861-0.056 0.731-0.083 1.0626-0.094zm-417.12 4.9687c6.0398 0 10.937 4.8977 10.937 10.938 0 6.0415-4.8976 10.937-10.937 10.937-6.0408 0-10.938-4.8959-10.938-10.937 0-6.0399 4.8968-10.938 10.938-10.938zm-119.53 2.9063 3.5937 37.094-44.281 11.375-10.125-38.312c16.941-4.1501 33.872-7.0661 50.812-10.156zm570.2 2.8c12.139 1.8473 11.175 29.648 4.9688 34.469-9.5537 6.8796-15.42-7.5089-11.156-26.594 1.2003-5.7393 3.4139-7.7437 6.1875-7.875zm-545.31 1.5c6.0408 0 10.938 4.8986 10.938 10.938 0 6.0426-4.8967 10.938-10.938 10.938-6.0395 0-10.938-4.8949-10.938-10.938 0-6.0389 4.898-10.938 10.938-10.938zm216.31 3.1875 50.062 13.656-12.25 38.75-46.969-13.219zm-27.25 0.75c6.0408 0 10.938 4.8966 10.938 10.938 0 6.0405-4.8967 10.938-10.938 10.938-6.0398 0-10.938-4.897-10.938-10.938 0-6.0409 4.8977-10.938 10.938-10.938zm409.53 3.25c21.568 0.2257 50.01 11.043 50.063 27.719-0.4386 4.7383-45.181-1.5534-65.844-9.875-7.3312-2.9519-16.266-11.936-16.25-15.687 0.01-2.2302 4.3745-2.0707 6.1562 0.094 2.9078 3.5346 13.209 7.2255 36.875 13.188 18.178 4.5787 19.989 4.7583 20 2 0.01-2.511-10.735-5.9741-22.375-7.9062-5.8533-0.9578-11.315-2.7247-20.312-3.5-4.1948-0.015-5.2172-2.6477-1.7188-4.4376 3.8106-1.1323 8.4292-1.6458 13.406-1.5937zm-38.094 8.625c5.4399 2.5518 7.4045 7.6351 10.406 10.312-3.7315 1.7681-5.3981 3.5512-11.438 4 0.1105-3.9905-0.9792-8.7542 1.0313-14.312zm-655.59 3c6.0398 0 10.937 4.8977 10.937 10.938 0 6.0408-4.8976 10.938-10.937 10.938-6.0408 0-10.938-4.8967-10.938-10.938 0-6.0398 4.8968-10.938 10.938-10.938zm-29.438 3.0937 11.813 37.875-42.313 18.406-15-37.531c14.627-7.6896 30.627-13.276 45.5-18.75zm195.66 6.1876s33.707 0.047 45.344 0.1874l-2.7187 42.75-42.062 0.3126zm-45.031 2.3437 2.3438 42.688-40.5 5.4375-8-42.938zm256.06 0.375c6.0398 0 10.937 4.8977 10.937 10.938 0 6.0408-4.8976 10.938-10.937 10.938-6.0408 0-10.938-4.8967-10.938-10.938 0-6.0398 4.8968-10.938 10.938-10.938zm293.03 1c24.66 0.106 48.18 28.474 23.812 58.188 39.966 30.749-3.4848 82.434-38.812 52.312-50.515 49.616-78.748-17.757-57.844-35.625-30.872-50.728 7.0576-82.786 46.188-60.406 7.2053-10.222 17.007-14.51 26.656-14.469zm-412.78 1.2187 44.437 9.875-8.9374 42.219-43.406-8.8125zm147.06 1.0313 40.625 20.188-31.5 30.312-23.406-11.656zm-260.47 4.7813c6.0406 0 10.938 4.8976 10.938 10.937 0 6.0408-4.8969 10.938-10.938 10.938-6.0406 0-10.938-4.8968-10.938-10.938 0-6.0398 4.8969-10.937 10.938-10.937zm87.781 1.375c6.0407 0 10.937 4.8976 10.937 10.937 0 6.0414-4.8967 10.938-10.937 10.938-16.098-2.5202-11.766-21.517 0-21.875zm-202.34 6.1562 9.9062 42.219-41.156 13.906-14.719-41.125zm28.281 3c6.0399 0 10.938 4.8967 10.938 10.938 0 6.0398-4.8977 10.938-10.938 10.938-6.0407 0-10.937-4.8977-10.937-10.938 0-6.0408 4.8967-10.938 10.937-10.938zm609.22 19.469c-3.0959 3.8469-7.1639 8.3798-7.1639 8.3798-10.239-4.222-20.164-2.5375-26.805 2.0182 0 0-7.0552-5.6256-13.5-10.836-11.168-9.0226-14.893-11.086-14.906-7.3124 0 0.7826 3.7912 4.6435 8.4062 8.5937 12.593 10.775 15.168 14.659 15.168 14.659-3.0264 9.7778-2.9951 17.439 2.7874 25.66 0 0 0.2408 1.0704-4.1822 5.7362-8.0236 8.4627-16.298 21.531-14.393 23.452 2.3679 2.3861 9.0731-3.3352 17.487-14.702 5.9954-8.1033 7.7985-8.2792 7.7985-8.2792 10.229 2.7602 15.896 5.2586 26.121-3.1817 0 0 3.8591 1.1698 11.565 7.5294 12.008 9.9122 16.32 12.047 17.625 8.6876 1.0632-2.7401-0.517-4.5748-10.688-12.313-6.623-5.0389-13.988-10.941-13.988-10.941 2.1638-3.5523 3.6984-16.173-3.7064-24.811 0 0 0.2916 0.569 11.24-13.622 7.2862-9.4393 8.5489-10.633 6.1339-12.656-3.2177-4.2133-13.916 12.594-15 13.938zm-317.41-12.094 40.094 16.844-14.344 41.906-38.719-15.812zm-441.16 2.8125c6.0408 0 10.938 4.898 10.938 10.938 0 6.0419-4.8967 10.938-10.938 10.938-6.0393 0-10.938-4.8956-10.938-10.938 0-6.0395 4.8981-10.938 10.938-10.938zm410.16 1.125c6.0401 0 10.937 4.8977 10.937 10.938 0 6.0408-4.8972 10.938-10.937 10.938-6.0408 0-10.938-4.8967-10.938-10.938 0-6.0398 4.8968-10.938 10.938-10.938zm-438.16 3 13.125 32.5-29.844-22.25zm329.03 8.375 39.937 4.7187-6.3124 38.063-34.438-3.125zm-43.594 0.094-0.4062 39.125-37.938 1.625-3.2187-39.062zm-195.19 7.125c6.0391 0 10.938 4.8977 10.938 10.938 0 6.0413-4.8984 10.937-10.938 10.937-6.0408 0-10.938-4.8961-10.938-10.937 0-6.0399 4.8967-10.938 10.938-10.938zm-30.25 0.7813 15.438 39.312-23.938 11.562-32.094-30.375zm142.78 0.5 6.1874 37.406-39.562 9.7812-9.5938-38.062zm565.47 0.375c8.6109 0 15.594 6.9832 15.594 15.594 0 8.6115-6.9828 15.594-15.594 15.594-8.6109 0-15.594-6.9822-15.594-15.594 0-8.6105 6.9828-15.594 15.594-15.594zm-462.91 1.1875c6.0399 0 10.938 4.8969 10.938 10.938 0 6.0406-4.8977 10.938-10.938 10.938-6.0407 0-10.937-4.8969-10.937-10.938 0-6.0406 4.8967-10.938 10.937-10.938zm107.75 4.0312 42.188 13.656-14.188 33.781-36.437-9.875zm-186.97 1.4063c6.0406 0 10.938 4.8969 10.938 10.938 0 6.0406-4.8969 10.938-10.938 10.938-6.0406 0-10.938-4.8969-10.938-10.938 0-6.0406 4.8969-10.938 10.938-10.938zm160.41 4.0313c6.0398 0 10.937 4.8975 10.937 10.937 0 6.0414-4.8976 10.938-10.937 10.938-6.0408 0-10.938-4.8962-10.938-10.938 0-6.0399 4.8968-10.937 10.938-10.937zm-267.88 12.812 14.531 33.438-39.688 17.156-17.281-34.094zm28.125 2c6.0398 0 10.937 4.8986 10.937 10.938 0 6.0424-4.8976 10.937-10.937 10.937-6.0408 0-10.938-4.895-10.938-10.937 0-6.039 4.8968-10.938 10.938-10.938zm146.22 10.094c65.155-0.1352 123.97 13.486 171.19 33.031l-14.062 13.188c-153.15-52.626-253.29-28.917-356 16.125l-10.375-12.813c72.594-35.51 144.1-49.396 209.25-49.531zm173.25 0.4062c6.0408 0 10.938 4.8977 10.938 10.938 0 6.0407-4.8967 10.937-10.938 10.937-6.0404 0-10.938-4.8967-10.938-10.937 0-6.0399 4.8971-10.938 10.938-10.938zm-399.09 24c8.787 0.5183 9.627 16.915 5.5312 12.188l-9.7812-11.313c1.5883-0.6807 2.9947-0.949 4.25-0.875zm409.41 6.7813c-0.3223 12.433-12.101 95.77-51.844 153.06-2.4121-28.979-9.405-63.626-17.219-86.75 0 0 42.765-39.514 69.062-66.312zm-508.41 126.28 206.81 278.88-21.719-0.1563c-4.5384-20.478-11.105-41.431-24-57.094-10.47-12.718-19.847-22.3-38.625-30.844-11.3-5.1363-12.755-4.043-13.469-12.719-3.411-48.775-42.908-79.451-73.156-91.125-2.9193-29.482-16.228-58.486-49.594-82.906zm-20.138 6.6774c18.896 12.987 39.606 24.252 50.764 75.45 0.8389 10.706 1.4952 9.5662 9.9048 12.716 32.96 9.6612 61.633 49.276 64.188 83.906-0.027 10.445 3.3795 11.372 16.25 16.781 15.805 6.6376 32.213 20.679 41.5 34.5 13.814 19.87 18.691 49.961 17.5 48.531l-11.375 0.063c-8.1146-51.017-40.212-71.368-74.163-80.9 2.6434-72.024-53.357-94.501-72.915-97.883 1.1491-51.877-32.417-73.276-54.078-90.686 4.0393-1.5875 12.425-2.4792 12.425-2.4792zm-33.454 7.1549c16.916 5.5285 29.736 29.1 28.435 39.949 22.313 2.8116 45.755 24.38 40.61 46.847-1.6505 0.9518-4.2559 1.1447-6.8357-1.435 5.9792-43.585-59.087-22.008-33.087 9.5258l-11.625 7.5937c-9.3502-43.619-20.861-68.331-33.355-99.839 4.5573-1.2034 15.858-2.6409 15.858-2.6409zm53.873 91.386c5.779 0 10.438 4.6898 10.438 10.469 0 5.7791-4.6585 10.469-10.438 10.469-5.779 0-10.469-4.6896-10.469-10.469 0-5.7789 4.6898-10.469 10.469-10.469zm55.859 47.046c24.845 7.0287 32.886 32.178 32.068 41.329l-5.4297-0.1229c-8.7353-39.848-54.153-18.17-35.193 13.608-24.278 8.9729-22.362 31.382-15.214 40.242 9.8675 12.23 35.023 11.846 42.691-6.9771 23.604 30.533 56.17-3.7282 27.438-32.188 23.531 8.6672 27.306 40.192 23.769 50.039 10.923 3.7253 23.507 21.06 21.825 20.961l-176.5 0.1s8.5349-71.145-0.5312-124.84c11.731 2.822 19.597 5.6576 33.094-10.188 21.842 18.085 37.54 4.4361 36.406-11.188-1.6785-10.927-7.3244-16.354-16.688-22.125 19.117-4.6999 33.573 28.367 32.078 41.421zm19.672 50.124c5.9542 0 10.781 4.8271 10.781 10.781 0 5.9541-4.8269 10.781-10.781 10.781-5.9539 0-10.781-4.8271-10.781-10.781 0-5.9541 4.8273-10.781 10.781-10.781z" transform="translate(-649.37 -550.75)"/>
    </g>
   </g>
  </g>
 </g>
</svg>
