<svg xmlns:rdf="http://www.w3.org/1999/02/22-rdf-syntax-ns#" xmlns="http://www.w3.org/2000/svg" version="1.1" xmlns:cc="http://creativecommons.org/ns#" xmlns:dc="http://purl.org/dc/elements/1.1/" viewBox="0 0 744.09 1052.4">
 <g transform="translate(-719.55 936.46)">
  <g transform="translate(-887.67 -844.33)">
   <g transform="translate(-5060 3025)">
    <rect rx="10.63" ry="10.63" height="311.81" width="223.23" stroke="#000" y="-2746.8" x="6927.6" stroke-width=".99673" fill="#fff"/>
   </g>
   <g transform="translate(.076182 -.000043597)">
    <path d="m4561.2-2529.2 10.696-0.094c2.034 6.4574 6.5502 13.041 12.678 14.859 17.312 4.0652 28.457-5.6046 32.128-16.763 4.4514-13.531-0.1008-32.536-12.016-39.287-9.8838-5.5995-24.563-0.877-31.296 11.089l-7.4975-4.5831 4.0237-44.582h48.929v10.536h-39.652l-0.6221 18.571c8.5208-5.9858 21.65-5.9276 30.178-1.7268 16.159 7.7024 23.663 25.22 20.518 45.873-4.3527 20.538-13.942 32.174-35.599 33.847-24.064 0.2079-32.564-16.336-32.468-27.739z" transform="matrix(.30106 0 0 .30106 502.63 1077.1)"/>
    <path d="m5248.4-1742.9-10.696 0.094c-2.034-6.4574-6.5502-13.041-12.678-14.859-17.312-4.0652-28.457 5.6046-32.128 16.763-4.4514 13.531 0.1008 32.536 12.016 39.287 9.8838 5.5995 24.563 0.877 31.296-11.089l7.4975 4.5831-4.0237 44.582h-48.929v-10.536h39.652l0.6221-18.571c-8.5208 5.9858-21.65 5.9276-30.178 1.7268-16.159-7.7024-23.663-25.22-20.518-45.873 4.3527-20.538 13.942-32.174 35.599-33.847 24.064-0.2079 32.564 16.336 32.468 27.739z" transform="matrix(.30106 0 0 .30106 502.63 1077.1)"/>
    <path d="m1971.9 462.64c2.879-5.7756 4.9759-11.701 5.3481-18.037 0.3416-2.3317-1.0746-2.3708-1.2881-0.7286-4.0764 15.593-25.763 11.37-25.017-3.2965 0.605-11.895 12.42-14.454 18.582-10.565 2.4336 1.4328 2.2961 0.5746 0.9679-0.91177-9.1548-10.211-3.6101-23.362 8.7612-23.602 13.38 0.79343 16.851 14.87 8.6442 23.148-1.0206 0.99462-3.2835 4.1913 0.123 1.9563 8.2868-5.888 19.787 0.44285 19.553 9.5208-0.4327 16.739-20.839 17.987-25.203 4.0058-0.4198-1.5502-1.6291-2.3286-1.295 0.30427 0.6049 4.7666 1.8565 11.953 5.4374 18.206z"/>
    <path d="m2021.1 363.38c2.879-5.7756 4.9759-11.701 5.3481-18.037 0.3416-2.3317-1.0746-2.3708-1.2881-0.7286-4.0764 15.593-25.763 11.37-25.017-3.2965 0.605-11.895 12.42-14.454 18.582-10.565 2.4336 1.4328 2.2961 0.5746 0.9679-0.91177-9.1548-10.211-3.6101-23.362 8.7612-23.602 13.38 0.79343 16.851 14.87 8.6442 23.148-1.0206 0.99462-3.2835 4.1913 0.123 1.9563 8.2868-5.888 19.787 0.44285 19.553 9.5208-0.4327 16.739-20.839 17.987-25.203 4.0058-0.4198-1.5502-1.6291-2.3286-1.295 0.30427 0.6049 4.7666 1.8565 11.953 5.4374 18.206z"/>
    <path d="m1922.4 363.38c2.879-5.7756 4.9759-11.701 5.3481-18.037 0.3416-2.3317-1.0746-2.3708-1.2881-0.7286-4.0764 15.593-25.763 11.37-25.017-3.2965 0.605-11.895 12.42-14.454 18.582-10.565 2.4336 1.4328 2.2961 0.5746 0.9679-0.91177-9.1548-10.211-3.6101-23.362 8.7612-23.602 13.38 0.79343 16.851 14.87 8.6442 23.148-1.0206 0.99462-3.2835 4.1913 0.123 1.9563 8.2868-5.888 19.787 0.44285 19.553 9.5208-0.4327 16.739-20.839 17.987-25.203 4.0058-0.4198-1.5502-1.6291-2.3286-1.295 0.30427 0.6049 4.7666 1.8565 11.953 5.4374 18.206z"/>
    <path d="m2035.8 502.89c-2.879 5.7755-4.9759 11.701-5.3481 18.037-0.3416 2.3317 1.0746 2.3708 1.2881 0.7286 4.0764-15.593 25.763-11.37 25.017 3.2965-0.605 11.895-12.42 14.454-18.582 10.564-2.4336-1.4328-2.2961-0.5746-0.9679 0.9118 9.1548 10.211 3.6101 23.362-8.7612 23.602-13.38-0.79343-16.851-14.87-8.6442-23.148 1.0206-0.9946 3.2835-4.1913-0.123-1.9563-8.2868 5.888-19.787-0.4428-19.553-9.5207 0.4327-16.739 20.839-17.987 25.203-4.0058 0.4198 1.5502 1.6291 2.3286 1.295-0.3043-0.6049-4.7666-1.8565-11.953-5.4374-18.206z"/>
    <path d="m1937.1 502.89c-2.879 5.7755-4.9759 11.701-5.3481 18.037-0.3416 2.3317 1.0746 2.3708 1.2881 0.7286 4.0764-15.593 25.763-11.37 25.017 3.2965-0.605 11.895-12.42 14.454-18.582 10.564-2.4336-1.4328-2.2961-0.5746-0.9679 0.9118 9.1548 10.211 3.6101 23.362-8.7612 23.602-13.38-0.79343-16.851-14.87-8.6442-23.148 1.0206-0.9946 3.2835-4.1913-0.123-1.9563-8.2868 5.888-19.787-0.4428-19.553-9.5207 0.4327-16.739 20.839-17.987 25.203-4.0058 0.4198 1.5502 1.6291 2.3286 1.295-0.3043-0.6049-4.7666-1.8565-11.953-5.4374-18.206z"/>
    <path d="m1881.8 353.16c1.1921-2.4451 2.3522-4.7208 2.9843-7.4009 0.4192-2.5276-0.4383-1.5885-0.9252 0.0682-0.7212 2.2974-2.7226 3.3438-4.58 3.3689-3.3711 0.0455-5.0527-2.6042-4.9479-5.4539-0.3681-2.9986 2.671-5.1202 4.9617-4.9567 1.7223 0.1229 3.224 1.052 4.1329 1.7751 0.5963 0.3153 1.234 0.45461 0.3449-0.35848-1.6776-1.8329-3.0766-2.9642-3.046-5.7108 0.029-2.5787 2.2335-5.2681 5.1554-5.1838 3.6515 0.10546 5.312 2.8901 5.3033 5.4805-0.01 1.8883-0.9536 3.6263-2.4114 4.7027-0.9442 0.76609-0.6794 1.3398 0.3977 0.61483 1.0349-0.89201 2.2671-1.2826 3.5448-1.31 3.4905-0.0547 4.855 2.9615 4.6551 5.7642-0.1874 2.6257-2.4228 5.3284-5.369 5.0223-2.6307-0.3015-4.013-2.5099-4.8051-4.7769-0.2623-0.69509-0.676-0.88281-0.6645 0.15307 0.6077 5.0574 2.4916 8.2044 2.5053 8.2016z"/>
    <path d="m2076.6 515.17c-1.1921 2.4451-2.3522 4.7208-2.9843 7.4009-0.4192 2.5276 0.4383 1.5885 0.9252-0.0682 0.7212-2.2974 2.7226-3.3438 4.58-3.3689 3.3711-0.0455 5.0527 2.6042 4.9479 5.4539 0.3681 2.9986-2.671 5.1202-4.9617 4.9567-1.7223-0.1229-3.224-1.052-4.1329-1.7751-0.5963-0.3153-1.234-0.45461-0.3449 0.35848 1.6776 1.8329 3.0766 2.9642 3.046 5.7108-0.029 2.5787-2.2335 5.2681-5.1554 5.1838-3.6515-0.10546-5.312-2.8901-5.3033-5.4805 0.01-1.8883 0.9536-3.6263 2.4114-4.7027 0.9442-0.76609 0.6794-1.3398-0.3977-0.61483-1.0349 0.89201-2.2671 1.2826-3.5448 1.31-3.4905 0.0547-4.855-2.9615-4.6551-5.7642 0.1874-2.6257 2.4228-5.3284 5.369-5.0223 2.6307 0.3015 4.013 2.5099 4.8051 4.7769 0.2623 0.69509 0.676 0.88281 0.6645-0.15307-0.6077-5.0574-2.4916-8.2044-2.5053-8.2016z"/>
   </g>
  </g>
 </g>
</svg>
