<svg xmlns:rdf="http://www.w3.org/1999/02/22-rdf-syntax-ns#" xmlns="http://www.w3.org/2000/svg" version="1.1" xmlns:cc="http://creativecommons.org/ns#" xmlns:dc="http://purl.org/dc/elements/1.1/" viewBox="0 0 744.09 1052.4">
 <g transform="translate(-6220.7 2805.3)">
  <rect rx="10.63" ry="10.63" height="311.81" width="223.23" stroke="#000" y="-2435" x="6481.2" stroke-width=".99673" fill="#fff"/>
  <g transform="matrix(.30106 0 0 .30106 5727.1 -1950.5)">
   <g fill="#d40000" transform="translate(-1267.8 -112.91)">
    <path d="m3880.9-1304.8c32.952-32.158 54.594-67.22 75.29-100.94 18.15 37.102 44.197 69.561 72.364 100.94-30.137 31.118-53.494 64.393-72.274 99.374-20.818-35.859-42.736-68.33-75.381-99.374z"/>
    <path d="m3880.9-1087.8c32.952-32.158 54.594-67.22 75.29-100.94 18.15 37.102 44.197 69.561 72.364 100.94-30.137 31.118-53.494 64.393-72.274 99.374-20.818-35.859-42.736-68.33-75.381-99.374z"/>
    <path d="m3880.9-865.59c32.952-32.158 54.594-67.22 75.29-100.94 18.15 37.102 44.197 69.561 72.364 100.94-30.137 31.118-53.494 64.393-72.274 99.374-20.818-35.859-42.736-68.33-75.381-99.374z"/>
    <path d="m3880.9-649.34c32.952-32.158 54.594-67.22 75.29-100.94 18.15 37.102 44.197 69.561 72.364 100.94-30.137 31.118-53.494 64.393-72.274 99.374-20.818-35.859-42.736-68.33-75.381-99.374z"/>
    <path d="m4068.3-977.73c32.952-32.158 54.594-67.22 75.29-100.94 18.15 37.102 44.197 69.561 72.364 100.94-30.137 31.118-53.494 64.393-72.274 99.374-20.818-35.859-42.736-68.33-75.381-99.374z"/>
    <path d="m4251.3-1304.8c32.952-32.158 54.594-67.22 75.29-100.94 18.15 37.102 44.197 69.561 72.364 100.94-30.137 31.118-53.494 64.393-72.274 99.374-20.818-35.859-42.736-68.33-75.381-99.374z"/>
    <path d="m4251.3-1087.8c32.952-32.158 54.594-67.22 75.29-100.94 18.15 37.102 44.197 69.561 72.364 100.94-30.137 31.118-53.494 64.393-72.274 99.374-20.818-35.859-42.736-68.33-75.381-99.374z"/>
    <path d="m4251.3-865.59c32.952-32.158 54.594-67.22 75.29-100.94 18.15 37.102 44.197 69.561 72.364 100.94-30.137 31.118-53.494 64.393-72.274 99.374-20.818-35.859-42.736-68.33-75.381-99.374z"/>
    <path d="m4251.3-649.34c32.952-32.158 54.594-67.22 75.29-100.94 18.15 37.102 44.197 69.561 72.364 100.94-30.137 31.118-53.494 64.393-72.274 99.374-20.818-35.859-42.736-68.33-75.381-99.374z"/>
    <path d="m4426.6-676.62c13.499-13.173 22.364-27.536 30.842-41.349 7.435 15.199 18.105 28.495 29.644 41.349-12.346 12.747-21.914 26.378-29.607 40.708-8.5281-14.689-17.506-27.991-30.879-40.708z"/>
    <path d="m3799.4-1294c13.499-13.173 22.364-27.536 30.842-41.349 7.435 15.199 18.105 28.495 29.644 41.349-12.346 12.747-21.914 26.378-29.607 40.708-8.5281-14.689-17.506-27.991-30.879-40.708z"/>
    <path d="m3799.8-1365.6 10.053-3.1289c3.7922 9.9493 11.459 12.884 19.569 12.253 14.556-1.1319 19.386-17.101 20.478-31.221-5.6714 5.8929-14.197 8.8873-21.456 8.5952-23.192-1.2267-29.128-19.446-29.344-38.535-0.6442-16.097 6.137-27.754 17.765-33.094 6.1521-2.7117 20.244-2.7121 26.438 0.4937 14.223 7.3614 19.487 20.091 18.532 50.458 0.015 24.991-5.396 54.099-32.676 54.723-15.77 2.1396-27.743-9.8975-29.359-20.544zm39.484-27.382c4.7326-2.9414 7.4036-5.7004 9.5251-9.8386 1.7414-3.3968 2.3306-5.159 1.8343-12.192-1.2788-18.12-10.959-28.392-24.994-26.351-7.8275 1.1381-12.101 5.442-14.557 13.445-4.5359 14.778 1.214 32.078 11.986 36.062 4.8586 1.7971 12.338 1.2775 16.205-1.1258z"/>
    <path d="m4484.2-591.31-10.053 3.1289c-3.7922-9.9493-11.459-12.884-19.569-12.253-14.556 1.1319-19.386 17.101-20.478 31.221 5.6714-5.893 14.197-8.8874 21.456-8.5953 23.192 1.2267 29.128 19.446 29.344 38.535 0.6442 16.097-6.137 27.754-17.765 33.094-6.1521 2.7117-20.244 2.7121-26.438-0.4937-14.223-7.3614-19.487-20.091-18.532-50.458-0.015-24.991 5.396-54.1 32.676-54.723 15.77-2.1396 27.743 9.8975 29.359 20.544zm-39.484 27.382c-4.7326 2.9414-7.4036 5.7004-9.5251 9.8386-1.7414 3.3968-2.3306 5.159-1.8343 12.192 1.2788 18.12 10.959 28.392 24.994 26.351 7.8275-1.1381 12.101-5.442 14.557-13.445 4.5359-14.778-1.214-32.078-11.986-36.062-4.8586-1.7971-12.338-1.2775-16.205 1.1258z"/>
   </g>
  </g>
 </g>
</svg>
