<svg xmlns:rdf="http://www.w3.org/1999/02/22-rdf-syntax-ns#" xmlns="http://www.w3.org/2000/svg" version="1.1" xmlns:cc="http://creativecommons.org/ns#" xmlns:dc="http://purl.org/dc/elements/1.1/" viewBox="0 0 744.09 1052.4">
 <g transform="translate(-1983.3 198.15)">
  <g transform="translate(-4683.9 2918.9)">
   <rect rx="10.63" ry="10.63" height="311.81" width="223.23" stroke="#000" y="-2746.8" x="6927.6" stroke-width=".99673" fill="#fff"/>
   <g fill="#d40000" transform="matrix(.30106 0 0 .30106 5562.6 -1947.8)">
    <path d="m4561.2-2529.2 10.696-0.094c2.034 6.4574 6.5502 13.041 12.678 14.859 17.312 4.0652 28.457-5.6046 32.128-16.763 4.4514-13.531-0.1008-32.536-12.016-39.287-9.8838-5.5995-24.563-0.877-31.296 11.089l-7.4975-4.5831 4.0237-44.582h48.929v10.536h-39.652l-0.6221 18.571c8.5208-5.9858 21.65-5.9276 30.178-1.7268 16.159 7.7024 23.663 25.22 20.518 45.873-4.3527 20.538-13.942 32.174-35.599 33.847-24.064 0.2079-32.564-16.336-32.468-27.739z"/>
    <path d="m5248.4-1742.9-10.696 0.094c-2.034-6.4574-6.5502-13.041-12.678-14.859-17.312-4.0652-28.457 5.6046-32.128 16.763-4.4514 13.531 0.1008 32.536 12.016 39.287 9.8838 5.5995 24.563 0.877 31.296-11.089l7.4975 4.5831-4.0237 44.582h-48.929v-10.536h39.652l0.6221-18.571c-8.5208 5.9858-21.65 5.9276-30.178 1.7268-16.159-7.7024-23.663-25.22-20.518-45.873 4.3527-20.538 13.942-32.174 35.599-33.847 24.064-0.2079 32.564 16.336 32.468 27.739z"/>
   </g>
  </g>
  <path d="m2253.3 232.72c-1.583-3.4723-1.7567-9.4054 2.9711-10.208 3.5621-0.45844 5.0117 1.1983 5.2999 3.7419 0.1422 0.74302 0.5617 0.7885 0.6948-0.0583 0.2044-2.6094 2.7872-4.1326 4.8064-3.75 5.5266 0.9454 5.2039 7.0284 3.3985 11.156-2.7309 5.4795-5.6006 8.9376-8.245 14.452-3.0382-5.741-6.5073-10.405-8.9257-15.333z" fill="#d40000"/>
  <path d="m2287.8 200.05c7.144-0.4744 10.868 5.6274 11.595 10.436 0.4334 0.76389 0.6707 0.54864 0.8369-0.0423 0.3493-6.1741 5.8749-11.22 10.993-10.53 8.328 0.10829 13.39 9.3754 11.966 17.219-1.7385 9.5816-6.8997 15.351-10.808 21.293-4.4213 6.1524-10.373 15.04-12.29 19.317 0 0-6.0483-9.2045-13.917-20.03-5.2618-7.2385-9.4731-15.082-9.8651-21.835-0.4479-7.7155 2.7193-14.632 11.489-15.828z" fill="#d40000"/>
  <path d="m2398.5 200.05c7.144-0.4744 10.868 5.6274 11.595 10.436 0.4334 0.76389 0.6707 0.54864 0.8369-0.0423 0.3493-6.1741 5.8749-11.22 10.993-10.53 8.328 0.10829 13.39 9.3754 11.966 17.219-1.7385 9.5816-6.8997 15.351-10.808 21.293-4.4213 6.1524-10.373 15.04-12.29 19.317 0 0-6.0483-9.2045-13.917-20.03-5.2618-7.2385-9.4731-15.082-9.8651-21.835-0.4479-7.7155 2.7193-14.632 11.489-15.828z" fill="#d40000"/>
  <path d="m2343.3 299.28c7.144-0.4744 10.868 5.6274 11.595 10.436 0.4334 0.76389 0.6707 0.54864 0.8369-0.0423 0.3493-6.1741 5.8749-11.22 10.993-10.53 8.328 0.10829 13.39 9.3754 11.966 17.219-1.7385 9.5816-6.8997 15.351-10.808 21.293-4.4213 6.1524-10.373 15.04-12.29 19.317 0 0-6.0483-9.2045-13.917-20.03-5.2618-7.2385-9.4731-15.082-9.8651-21.835-0.4479-7.7155 2.7193-14.632 11.489-15.828z" fill="#d40000"/>
  <path d="m2287.8 454.19c7.144 0.4744 10.868-5.6274 11.595-10.436 0.4334-0.76389 0.6707-0.54864 0.8369 0.0423 0.3493 6.1741 5.8749 11.22 10.993 10.53 8.328-0.10829 13.39-9.3754 11.966-17.219-1.7385-9.5816-6.8997-15.351-10.808-21.293-4.4213-6.1524-10.373-15.04-12.29-19.317 0 0-6.0483 9.2045-13.917 20.03-5.2618 7.2385-9.4731 15.082-9.8651 21.835-0.4479 7.7155 2.7193 14.632 11.489 15.828z" fill="#d40000"/>
  <path d="m2398.5 454.19c7.144 0.4744 10.868-5.6274 11.595-10.436 0.4334-0.76389 0.6707-0.54864 0.8369 0.0423 0.3493 6.1741 5.8749 11.22 10.993 10.53 8.328-0.10829 13.39-9.3754 11.966-17.219-1.7385-9.5816-6.8997-15.351-10.808-21.293-4.4213-6.1524-10.373-15.04-12.29-19.317 0 0-6.0483 9.2045-13.917 20.03-5.2618 7.2385-9.4731 15.082-9.8651 21.835-0.4479 7.7155 2.7193 14.632 11.489 15.828z" fill="#d40000"/>
  <path d="m2440 423.58c-1.583 3.4723-1.7567 9.4054 2.9711 10.208 3.5621 0.45844 5.0117-1.1983 5.2999-3.7419 0.1422-0.74302 0.5617-0.7885 0.6948 0.0583 0.2044 2.6094 2.7872 4.1326 4.8064 3.75 5.5266-0.9454 5.2039-7.0284 3.3985-11.156-2.7309-5.4795-5.6006-8.9376-8.245-14.452-3.0382 5.741-6.5073 10.405-8.9257 15.333z" fill="#d40000"/>
 </g>
</svg>
