<svg xmlns:rdf="http://www.w3.org/1999/02/22-rdf-syntax-ns#" xmlns="http://www.w3.org/2000/svg" version="1.1" xmlns:cc="http://creativecommons.org/ns#" xmlns:dc="http://purl.org/dc/elements/1.1/" viewBox="0 0 744.09 1052.4">
 <g transform="translate(-1160.8 -219.68)">
  <g transform="translate(-5060 3025)">
   <rect rx="10.63" ry="10.63" height="311.81" width="223.23" stroke="#000" y="-2435" x="6481.2" stroke-width=".99673" fill="#fff"/>
   <g transform="matrix(.30106 0 0 .30106 5727.1 -1950.5)">
    <g transform="translate(-1267.8 -112.91)">
     <path d="m3799.8-1365.6 10.053-3.1289c3.7922 9.9493 11.459 12.884 19.569 12.253 14.556-1.1319 19.386-17.101 20.478-31.221-5.6714 5.8929-14.197 8.8873-21.456 8.5952-23.192-1.2267-29.128-19.446-29.344-38.535-0.6442-16.097 6.137-27.754 17.765-33.094 6.1521-2.7117 20.244-2.7121 26.438 0.4937 14.223 7.3614 19.487 20.091 18.532 50.458 0.015 24.991-5.396 54.099-32.676 54.723-15.77 2.1396-27.743-9.8975-29.359-20.544zm39.484-27.382c4.7326-2.9414 7.4036-5.7004 9.5251-9.8386 1.7414-3.3968 2.3306-5.159 1.8343-12.192-1.2788-18.12-10.959-28.392-24.994-26.351-7.8275 1.1381-12.101 5.442-14.557 13.445-4.5359 14.778 1.214 32.078 11.986 36.062 4.8586 1.7971 12.338 1.2775 16.205-1.1258z"/>
     <path d="m4484.2-591.31-10.053 3.1289c-3.7922-9.9493-11.459-12.884-19.569-12.253-14.556 1.1319-19.386 17.101-20.478 31.221 5.6714-5.893 14.197-8.8874 21.456-8.5953 23.192 1.2267 29.128 19.446 29.344 38.535 0.6442 16.097-6.137 27.754-17.765 33.094-6.1521 2.7117-20.244 2.7121-26.438-0.4937-14.223-7.3614-19.487-20.091-18.532-50.458-0.015-24.991 5.396-54.1 32.676-54.723 15.77-2.1396 27.743 9.8975 29.359 20.544zm-39.484 27.382c-4.7326 2.9414-7.4036 5.7004-9.5251 9.8386-1.7414 3.3968-2.3306 5.159-1.8343 12.192 1.2788 18.12 10.959 28.392 24.994 26.351 7.8275-1.1381 12.101-5.442 14.557-13.445 4.5359-14.778-1.214-32.078-11.986-36.062-4.8586-1.7971-12.338-1.2775-16.205 1.1258z"/>
    </g>
   </g>
  </g>
  <path d="m1474 658.82c0.015-2.0257-1.5868-2.0644-1.5686-0.58579-0.1343 7.4286-6.4165 11.086-10.981 10.219-7.0361-1.3376-9.2818-8.3221-9.2147-12.435 0.2072-12.696 12.988-22.058 24.52-38.335 8.4501 14.691 22.397 26.23 23.223 37.586 1.0977 15.098-18.009 20.73-20.737 3.1327-0.176-1.243-1.6397-1.8011-1.5261-0.065 0.4145 4.8226-0.1749 6.8314 5.2657 18.719h-14.222c3.1497-5.5549 5.0254-12.375 5.2398-18.236z"/>
  <path d="m1585.5 658.82c0.015-2.0257-1.5868-2.0644-1.5686-0.58579-0.1343 7.4286-6.4165 11.086-10.981 10.219-7.0361-1.3376-9.2818-8.3221-9.2147-12.435 0.2072-12.696 12.988-22.058 24.52-38.335 8.4501 14.691 22.397 26.23 23.223 37.586 1.0977 15.098-18.009 20.73-20.737 3.1327-0.176-1.243-1.6397-1.8011-1.5261-0.065 0.4145 4.8226-0.1749 6.8314 5.2657 18.719h-14.222c3.1497-5.5549 5.0254-12.375 5.2398-18.236z"/>
  <path d="m1585.5 724.15c0.015-2.0257-1.5868-2.0644-1.5686-0.58579-0.1343 7.4286-6.4165 11.086-10.981 10.219-7.0361-1.3376-9.2818-8.3221-9.2147-12.435 0.2072-12.696 12.988-22.058 24.52-38.335 8.4501 14.691 22.397 26.23 23.223 37.586 1.0977 15.098-18.009 20.73-20.737 3.1327-0.176-1.243-1.6397-1.8011-1.5261-0.065 0.4145 4.8226-0.1749 6.8314 5.2657 18.719h-14.222c3.1497-5.5549 5.0254-12.375 5.2398-18.236z"/>
  <path d="m1474 724.15c0.015-2.0257-1.5868-2.0644-1.5686-0.58579-0.1343 7.4286-6.4165 11.086-10.981 10.219-7.0361-1.3376-9.2818-8.3221-9.2147-12.435 0.2072-12.696 12.988-22.058 24.52-38.335 8.4501 14.691 22.397 26.23 23.223 37.586 1.0977 15.098-18.009 20.73-20.737 3.1327-0.176-1.243-1.6397-1.8011-1.5261-0.065 0.4145 4.8226-0.1749 6.8314 5.2657 18.719h-14.222c3.1497-5.5549 5.0254-12.375 5.2398-18.236z"/>
  <path d="m1585.5 833.28c0.015 2.0257-1.5868 2.0644-1.5686 0.58579-0.1343-7.4286-6.4165-11.086-10.981-10.219-7.0361 1.3376-9.2818 8.3221-9.2147 12.435 0.2072 12.696 12.988 22.058 24.52 38.335 8.4501-14.691 22.397-26.23 23.223-37.586 1.0977-15.098-18.009-20.73-20.737-3.1327-0.176 1.243-1.6397 1.8011-1.5261 0.065 0.4145-4.8226-0.1749-6.8314 5.2657-18.719h-14.222c3.1497 5.5549 5.0254 12.375 5.2398 18.236z"/>
  <path d="m1585.5 768.18c0.015 2.0257-1.5868 2.0644-1.5686 0.58579-0.1343-7.4286-6.4165-11.086-10.981-10.219-7.0361 1.3376-9.2818 8.3221-9.2147 12.435 0.2072 12.696 12.988 22.058 24.52 38.335 8.4501-14.691 22.397-26.23 23.223-37.586 1.0977-15.098-18.009-20.73-20.737-3.1327-0.176 1.243-1.6397 1.8011-1.5261 0.065 0.4145-4.8226-0.1749-6.8314 5.2657-18.719h-14.222c3.1497 5.5549 5.0254 12.375 5.2398 18.236z"/>
  <path d="m1530.4 734.42c0.015 2.0257-1.5868 2.0644-1.5686 0.58579-0.1343-7.4286-6.4165-11.086-10.981-10.219-7.0361 1.3376-9.2818 8.3221-9.2147 12.435 0.2072 12.696 12.988 22.058 24.52 38.335 8.4501-14.691 22.397-26.23 23.223-37.586 1.0977-15.098-18.009-20.73-20.737-3.1327-0.176 1.243-1.6397 1.8011-1.5261 0.065 0.4145-4.8226-0.1749-6.8314 5.2657-18.719h-14.222c3.1497 5.5549 5.0254 12.375 5.2398 18.236z"/>
  <path d="m1474 768.18c0.015 2.0257-1.5868 2.0644-1.5686 0.58579-0.1343-7.4286-6.4165-11.086-10.981-10.219-7.0361 1.3376-9.2818 8.3221-9.2147 12.435 0.2072 12.696 12.988 22.058 24.52 38.335 8.4501-14.691 22.397-26.23 23.223-37.586 1.0977-15.098-18.009-20.73-20.737-3.1327-0.176 1.243-1.6397 1.8011-1.5261 0.065 0.4145-4.8226-0.1749-6.8314 5.2657-18.719h-14.222c3.1497 5.5549 5.0254 12.375 5.2398 18.236z"/>
  <path d="m1474 833.28c0.015 2.0257-1.5868 2.0644-1.5686 0.58579-0.1343-7.4286-6.4165-11.086-10.981-10.219-7.0361 1.3376-9.2818 8.3221-9.2147 12.435 0.2072 12.696 12.988 22.058 24.52 38.335 8.4501-14.691 22.397-26.23 23.223-37.586 1.0977-15.098-18.009-20.73-20.737-3.1327-0.176 1.243-1.6397 1.8011-1.5261 0.065 0.4145-4.8226-0.1749-6.8314 5.2657-18.719h-14.222c3.1497 5.5549 5.0254 12.375 5.2398 18.236z"/>
  <path d="m1438 657.33c0.01-0.87153-0.8953-0.46462-1.0178-0.1903-1.1632 1.9856-2.8648 2.4477-4.5479 1.7318-1.6673-0.70915-2.6042-2.2803-2.4539-4.5222 0.3102-3.4378 3.0354-7.1996 4.355-9.3262 1.252-1.9299 2.6279-4.2222 4.0767-7.1541 1.6973 3.3632 2.5587 4.3206 4.4052 7.3915 1.626 2.7044 3.8925 5.353 4.0675 8.6224 0 2.4849-1.046 4.8318-3.3994 5.2594-1.3314 0.2419-2.5787-0.44156-3.5038-2.0369-0.2818-0.40656-0.8488-0.19466-0.8393 0.3619 0.1652 2.0933 0.9554 3.9832 2.8295 6.2116h-6.8871c1.4101-1.576 2.8487-3.7037 2.9153-6.349z"/>
  <path d="m1626.8 830.08c0.01 0.87153-0.8953 0.46462-1.0178 0.1903-1.1632-1.9856-2.8648-2.4477-4.5479-1.7318-1.6673 0.70915-2.6042 2.2803-2.4539 4.5222 0.3102 3.4378 3.0354 7.1995 4.355 9.3262 1.252 1.9299 2.6279 4.2222 4.0767 7.1541 1.6972-3.3632 2.5586-4.3206 4.4051-7.3915 1.626-2.7044 3.8925-5.353 4.0675-8.6224 0-2.4849-1.046-4.8318-3.3994-5.2594-1.3314-0.24189-2.5787 0.44156-3.5038 2.0369-0.2818 0.40657-0.8487 0.19467-0.8392-0.36189 0.1651-2.0933 0.9553-3.9832 2.8294-6.2116h-6.887c1.4101 1.576 2.8487 3.7037 2.9153 6.349z"/>
 </g>
</svg>
