<svg xmlns:rdf="http://www.w3.org/1999/02/22-rdf-syntax-ns#" xmlns="http://www.w3.org/2000/svg" version="1.1" xmlns:cc="http://creativecommons.org/ns#" xmlns:dc="http://purl.org/dc/elements/1.1/" viewBox="0 0 744.09 1052.4">
 <g transform="translate(-1830.5 92.135)">
  <g transform="translate(-5060 3025)">
   <rect rx="10.63" ry="10.63" height="311.81" width="223.23" stroke="#000" y="-2746.8" x="7150.8" stroke-width=".99673" fill="#fff"/>
   <g transform="matrix(.30106 0 0 .30106 6829.3 -2295.3)">
    <path d="m1095.5-1380.2c-1.3564-9.1251-1.3347-32.702-0.2195-39.668 3.4183-21.353 11.732-31.119 25.651-34.32 13.514-3.1079 32.515 0.3517 36.684 18.209l-11.315 0.209c-6.111-12.068-21.575-8.8426-30.278-3.5944-6.9526 4.1923-10.093 21.656-8.7492 22.73-0.01 0 13.144-9.5567 23.503-8.8518 22.149 2.2646 31.281 21.112 30.509 38.925-0.6999 21.423-7.6228 38.538-31.094 39.681-22.315-0.842-32.55-12.788-34.691-33.32zm55.04-5.6632c0.1233-14.865-6.7551-25.984-19.762-27.212-13.007-1.2276-26.119 11.233-25.211 26.382 0.9112 15.202 6.9042 28.007 22.674 27.936 16.96-0.076 22.211-16.529 22.299-27.106z"/>
    <path d="m1782.2-583.67c1.3564 9.1251 1.3347 32.702 0.2195 39.668-3.4183 21.353-11.732 31.119-25.651 34.32-13.514 3.1079-32.515-0.3517-36.684-18.209l11.315-0.209c6.111 12.068 21.575 8.8426 30.278 3.5944 6.9526-4.1923 10.093-21.656 8.7492-22.73 0.01 0-13.144 9.5567-23.503 8.8518-22.149-2.2646-31.281-21.112-30.509-38.925 0.6999-21.423 7.6228-38.538 31.094-39.681 22.315 0.842 32.55 12.788 34.691 33.32zm-55.04 5.6632c-0.1233 14.865 6.7551 25.984 19.762 27.212 13.007 1.2276 26.119-11.233 25.211-26.382-0.9112-15.202-6.9042-28.007-22.674-27.936-16.96 0.076-22.211 16.529-22.299 27.106z"/>
   </g>
  </g>
  <path d="m2144.7 346.7c0.015-2.0257-1.5868-2.0644-1.5686-0.58579-0.1343 7.4286-6.4165 11.086-10.981 10.219-7.0361-1.3376-9.2818-8.3221-9.2147-12.435 0.2072-12.696 12.988-22.058 24.52-38.335 8.4501 14.691 22.397 26.23 23.223 37.586 1.0977 15.098-18.009 20.73-20.737 3.1327-0.176-1.243-1.6397-1.8011-1.5261-0.065 0.4145 4.8226-0.1749 6.8314 5.2657 18.719h-14.222c3.1497-5.5549 5.0254-12.375 5.2398-18.236z"/>
  <path d="m2256.3 346.7c0.015-2.0257-1.5868-2.0644-1.5686-0.58579-0.1343 7.4286-6.4165 11.086-10.981 10.219-7.0361-1.3376-9.2818-8.3221-9.2147-12.435 0.2072-12.696 12.988-22.058 24.52-38.335 8.4501 14.691 22.397 26.23 23.223 37.586 1.0977 15.098-18.009 20.73-20.737 3.1327-0.176-1.243-1.6397-1.8011-1.5261-0.065 0.4145 4.8226-0.1749 6.8314 5.2657 18.719h-14.222c3.1497-5.5549 5.0254-12.375 5.2398-18.236z"/>
  <path d="m2144.7 422.72c0.015 2.0257-1.5868 2.0644-1.5686 0.58579-0.1343-7.4286-6.4165-11.086-10.981-10.219-7.0361 1.3376-9.2818 8.3221-9.2147 12.435 0.2072 12.696 12.988 22.058 24.52 38.335 8.4501-14.691 22.397-26.23 23.223-37.586 1.0977-15.098-18.009-20.73-20.737-3.1327-0.176 1.243-1.6397 1.8011-1.5261 0.065 0.4145-4.8226-0.1749-6.8314 5.2657-18.719h-14.222c3.1497 5.5549 5.0254 12.375 5.2398 18.236z"/>
  <path d="m2256.3 422.72c0.015 2.0257-1.5868 2.0644-1.5686 0.58579-0.1343-7.4286-6.4165-11.086-10.981-10.219-7.0361 1.3376-9.2818 8.3221-9.2147 12.435 0.2072 12.696 12.988 22.058 24.52 38.335 8.4501-14.691 22.397-26.23 23.223-37.586 1.0977-15.098-18.009-20.73-20.737-3.1327-0.176 1.243-1.6397 1.8011-1.5261 0.065 0.4145-4.8226-0.1749-6.8314 5.2657-18.719h-14.222c3.1497 5.5549 5.0254 12.375 5.2398 18.236z"/>
  <path d="m2256.3 521.32c0.015 2.0257-1.5868 2.0644-1.5686 0.58579-0.1343-7.4286-6.4165-11.086-10.981-10.219-7.0361 1.3376-9.2818 8.3221-9.2147 12.435 0.2072 12.696 12.988 22.058 24.52 38.335 8.4501-14.691 22.397-26.23 23.223-37.586 1.0977-15.098-18.009-20.73-20.737-3.1327-0.176 1.243-1.6397 1.8011-1.5261 0.065 0.4145-4.8226-0.1749-6.8314 5.2657-18.719h-14.222c3.1497 5.5549 5.0254 12.375 5.2398 18.236z"/>
  <path d="m2144.7 521.32c0.015 2.0257-1.5868 2.0644-1.5686 0.58579-0.1343-7.4286-6.4165-11.086-10.981-10.219-7.0361 1.3376-9.2818 8.3221-9.2147 12.435 0.2072 12.696 12.988 22.058 24.52 38.335 8.4501-14.691 22.397-26.23 23.223-37.586 1.0977-15.098-18.009-20.73-20.737-3.1327-0.176 1.243-1.6397 1.8011-1.5261 0.065 0.4145-4.8226-0.1749-6.8314 5.2657-18.719h-14.222c3.1497 5.5549 5.0254 12.375 5.2398 18.236z"/>
  <path d="m2107.8 346.57c0.01-0.87153-0.8953-0.46462-1.0178-0.1903-1.1632 1.9856-2.8648 2.4477-4.5479 1.7318-1.6673-0.70915-2.6042-2.2803-2.4539-4.5222 0.3102-3.4378 3.0354-7.1996 4.355-9.3262 1.252-1.9299 2.6279-4.2222 4.0767-7.1541 1.6973 3.3632 2.5587 4.3206 4.4052 7.3915 1.626 2.7044 3.8925 5.353 4.0675 8.6224 0 2.4849-1.046 4.8318-3.3994 5.2594-1.3314 0.2419-2.5787-0.44156-3.5038-2.0369-0.2818-0.40656-0.8488-0.19466-0.8393 0.3619 0.1652 2.0933 0.9554 3.9832 2.8295 6.2116h-6.8871c1.4101-1.576 2.8487-3.7037 2.9153-6.349z"/>
  <path d="m2296.6 519.32c0.01 0.87153-0.8953 0.46462-1.0178 0.1903-1.1632-1.9856-2.8648-2.4477-4.5479-1.7318-1.6673 0.70915-2.6042 2.2803-2.4539 4.5222 0.3102 3.4378 3.0354 7.1996 4.355 9.3262 1.252 1.9299 2.6279 4.2222 4.0767 7.1541 1.6972-3.3632 2.5586-4.3206 4.4051-7.3915 1.626-2.7044 3.8925-5.353 4.0675-8.6224 0-2.4849-1.046-4.8318-3.3994-5.2594-1.3314-0.2419-2.5787 0.44156-3.5038 2.0369-0.2818 0.40655-0.8487 0.19465-0.8392-0.36191 0.1651-2.0933 0.9553-3.9832 2.8294-6.2116h-6.887c1.4101 1.576 2.8487 3.7037 2.9153 6.349z"/>
 </g>
</svg>
