<svg xmlns:rdf="http://www.w3.org/1999/02/22-rdf-syntax-ns#" xmlns="http://www.w3.org/2000/svg" version="1.1" xmlns:cc="http://creativecommons.org/ns#" xmlns:dc="http://purl.org/dc/elements/1.1/" viewBox="0 0 744.09 1052.4">
 <g transform="translate(-1384 -219.68)">
  <g transform="matrix(-1 0 0 -1 8572 -1533.2)">
   <rect rx="10.63" ry="10.63" height="311.81" width="223.23" stroke="#000" y="-2435" x="6704.4" stroke-width=".99673" fill="#fff"/>
   <g transform="matrix(.30106 0 0 .30106 5267.6 -1982.7)"></g>
  </g>
  <g>
   <path d="m4797.9-1351.7v-104.65h10.333v104.65z" transform="matrix(-.30106 0 0 -.30106 3304.5 449.47)"/>
   <path d="m4838.8-1456.4c-9.9454 0-17.941 8.9238-17.941 20.004v64.644c0 11.08 7.9954 20.004 17.941 20.004h5.7965c9.9453 0 17.956-8.9239 17.956-20.004v-64.644c0-11.08-8.0112-20.004-17.956-20.004h-5.7965zm2.9927 9.8918c5.8743 0 10.601 4.4408 10.601 9.9706v65.51c0 5.5298-4.7264 9.9864-10.601 9.9864-5.8742 0-10.601-4.4566-10.601-9.9864v-65.51c0-5.5298 4.7264-9.9706 10.601-9.9706z" transform="matrix(-.30106 0 0 -.30106 3304.5 449.47)"/>
   <path d="m3799.2 1843.8v-207.62h20.5v207.62z" transform="matrix(.15175 0 0 .15175 1075.5 355.51)"/>
   <path d="m3880.5 1636.1c-19.731 0-35.594 17.704-35.594 39.688v128.25c0 21.983 15.863 39.688 35.594 39.688h11.5c19.731 0 35.625-17.704 35.625-39.688v-128.25c0-21.983-15.894-39.688-35.625-39.688h-11.5zm5.9375 19.625c11.654 0 21.031 8.8104 21.031 19.781v129.97c0 10.971-9.3771 19.812-21.031 19.812s-21.031-8.8417-21.031-19.812v-129.97c0-10.971 9.3771-19.781 21.031-19.781z" transform="matrix(.15175 0 0 .15175 1075.5 355.51)"/>
   <path d="m1799.7 740.92c2.879-5.7755 4.9759-11.701 5.3481-18.037 0.3416-2.3317-1.0746-2.3708-1.2881-0.7286-4.0764 15.593-25.763 11.37-25.017-3.2965 0.605-11.895 12.42-14.454 18.582-10.564 2.4336 1.4328 2.2961 0.5746 0.9679-0.9118-9.1548-10.211-3.6101-23.362 8.7612-23.602 13.38 0.79343 16.851 14.87 8.6442 23.148-1.0206 0.9946-3.2835 4.1913 0.123 1.9563 8.2868-5.888 19.787 0.4428 19.553 9.5207-0.4327 16.739-20.839 17.987-25.203 4.0058-0.4198-1.5502-1.6291-2.3286-1.295 0.3043 0.6049 4.7666 1.8565 11.953 5.4374 18.206z"/>
   <path d="m1696.2 740.92c2.879-5.7755 4.9759-11.701 5.3481-18.037 0.3416-2.3317-1.0746-2.3708-1.2881-0.7286-4.0764 15.593-25.763 11.37-25.017-3.2965 0.605-11.895 12.42-14.454 18.582-10.564 2.4336 1.4328 2.2961 0.5746 0.9679-0.9118-9.1548-10.211-3.6101-23.362 8.7612-23.602 13.38 0.79343 16.851 14.87 8.6442 23.148-1.0206 0.9946-3.2835 4.1913 0.123 1.9563 8.2868-5.888 19.787 0.4428 19.553 9.5207-0.4327 16.739-20.839 17.987-25.203 4.0058-0.4198-1.5502-1.6291-2.3286-1.295 0.3043 0.6049 4.7666 1.8565 11.953 5.4374 18.206z"/>
   <path d="m1747.9 708.26c2.879-5.7755 4.9759-11.701 5.3481-18.037 0.3416-2.3317-1.0746-2.3708-1.2881-0.7286-4.0764 15.593-25.763 11.37-25.017-3.2965 0.605-11.895 12.42-14.454 18.582-10.564 2.4336 1.4328 2.2961 0.5746 0.9679-0.9118-9.1548-10.211-3.6101-23.362 8.7612-23.602 13.38 0.79343 16.851 14.87 8.6442 23.148-1.0206 0.9946-3.2835 4.1913 0.123 1.9563 8.2868-5.888 19.787 0.4428 19.553 9.5207-0.4327 16.739-20.839 17.987-25.203 4.0058-0.4198-1.5502-1.6291-2.3286-1.295 0.3043 0.6049 4.7666 1.8565 11.953 5.4374 18.206z"/>
   <path d="m1799.7 675.59c2.879-5.7755 4.9759-11.701 5.3481-18.037 0.3416-2.3317-1.0746-2.3708-1.2881-0.7286-4.0764 15.593-25.763 11.37-25.017-3.2965 0.605-11.895 12.42-14.454 18.582-10.564 2.4336 1.4328 2.2961 0.5746 0.9679-0.9118-9.1548-10.211-3.6101-23.362 8.7612-23.602 13.38 0.79343 16.851 14.87 8.6442 23.148-1.0206 0.9946-3.2835 4.1913 0.123 1.9563 8.2868-5.888 19.787 0.4428 19.553 9.5207-0.4327 16.739-20.839 17.987-25.203 4.0058-0.4198-1.5502-1.6291-2.3286-1.295 0.3043 0.6049 4.7666 1.8565 11.953 5.4374 18.206z"/>
   <path d="m1696.2 675.59c2.879-5.7755 4.9759-11.701 5.3481-18.037 0.3416-2.3317-1.0746-2.3708-1.2881-0.7286-4.0764 15.593-25.763 11.37-25.017-3.2965 0.605-11.895 12.42-14.454 18.582-10.564 2.4336 1.4328 2.2961 0.5746 0.9679-0.9118-9.1548-10.211-3.6101-23.362 8.7612-23.602 13.38 0.79343 16.851 14.87 8.6442 23.148-1.0206 0.9946-3.2835 4.1913 0.123 1.9563 8.2868-5.888 19.787 0.4428 19.553 9.5207-0.4327 16.739-20.839 17.987-25.203 4.0058-0.4198-1.5502-1.6291-2.3286-1.295 0.3043 0.6049 4.7666 1.8565 11.953 5.4374 18.206z"/>
   <path d="m1710.9 750.79c-2.879 5.7755-4.9759 11.701-5.3481 18.037-0.3416 2.3317 1.0746 2.3708 1.2881 0.7286 4.0764-15.593 25.763-11.37 25.017 3.2965-0.605 11.895-12.42 14.454-18.582 10.564-2.4336-1.4328-2.2961-0.5746-0.9679 0.9118 9.1548 10.211 3.6101 23.362-8.7612 23.602-13.38-0.7934-16.851-14.87-8.6442-23.148 1.0206-0.9946 3.2835-4.1913-0.123-1.9563-8.2868 5.888-19.787-0.4428-19.553-9.5207 0.4327-16.739 20.839-17.987 25.203-4.0058 0.4198 1.5502 1.6291 2.3286 1.295-0.3043-0.6049-4.7666-1.8565-11.953-5.4374-18.206z"/>
   <path d="m1710.9 816.12c-2.879 5.7755-4.9759 11.701-5.3481 18.037-0.3416 2.3317 1.0746 2.3708 1.2881 0.7286 4.0764-15.593 25.763-11.37 25.017 3.2965-0.605 11.895-12.42 14.454-18.582 10.564-2.4336-1.4328-2.2961-0.5746-0.9679 0.9118 9.1548 10.211 3.6101 23.362-8.7612 23.602-13.38-0.7934-16.851-14.87-8.6442-23.148 1.0206-0.9946 3.2835-4.1913-0.123-1.9563-8.2868 5.888-19.787-0.4428-19.553-9.5207 0.4327-16.739 20.839-17.987 25.203-4.0058 0.4198 1.5502 1.6291 2.3286 1.295-0.3043-0.6049-4.7666-1.8565-11.953-5.4374-18.206z"/>
   <path d="m1814.4 750.79c-2.879 5.7755-4.9759 11.701-5.3481 18.037-0.3416 2.3317 1.0746 2.3708 1.2881 0.7286 4.0764-15.593 25.763-11.37 25.017 3.2965-0.605 11.895-12.42 14.454-18.582 10.564-2.4336-1.4328-2.2961-0.5746-0.9679 0.9118 9.1548 10.211 3.6101 23.362-8.7612 23.602-13.38-0.79343-16.851-14.87-8.6442-23.148 1.0206-0.9946 3.2835-4.1913-0.123-1.9563-8.2868 5.888-19.787-0.4428-19.553-9.5207 0.4327-16.739 20.839-17.987 25.203-4.0058 0.4198 1.5502 1.6291 2.3286 1.295-0.3043-0.6049-4.7666-1.8565-11.953-5.4374-18.206z"/>
   <path d="m1814.4 816.12c-2.879 5.7755-4.9759 11.701-5.3481 18.037-0.3416 2.3317 1.0746 2.3708 1.2881 0.7286 4.0764-15.593 25.763-11.37 25.017 3.2965-0.605 11.895-12.42 14.454-18.582 10.564-2.4336-1.4328-2.2961-0.5746-0.9679 0.9118 9.1548 10.211 3.6101 23.362-8.7612 23.602-13.38-0.79343-16.851-14.87-8.6442-23.148 1.0206-0.9946 3.2835-4.1913-0.123-1.9563-8.2868 5.888-19.787-0.4428-19.553-9.5207 0.4327-16.739 20.839-17.987 25.203-4.0058 0.4198 1.5502 1.6291 2.3286 1.295-0.3043-0.6049-4.7666-1.8565-11.953-5.4374-18.206z"/>
   <path d="m1763 783.46c-2.879 5.7755-4.9759 11.701-5.3481 18.037-0.3416 2.3317 1.0746 2.3708 1.2881 0.7286 4.0764-15.593 25.763-11.37 25.017 3.2965-0.605 11.895-12.42 14.454-18.582 10.564-2.4336-1.4328-2.2961-0.5746-0.9679 0.9118 9.1548 10.211 3.6101 23.362-8.7612 23.602-13.38-0.79343-16.851-14.87-8.6442-23.148 1.0206-0.9946 3.2835-4.1913-0.123-1.9563-8.2868 5.888-19.787-0.4428-19.553-9.5207 0.4327-16.739 20.839-17.987 25.203-4.0058 0.4198 1.5502 1.6291 2.3286 1.295-0.3043-0.6049-4.7666-1.8565-11.953-5.4374-18.206z"/>
   <path d="m1657.6 665.19c1.1921-2.4451 2.3522-4.7208 2.9843-7.4009 0.4192-2.5276-0.4383-1.5885-0.9252 0.0682-0.7212 2.2974-2.7226 3.3438-4.58 3.3689-3.3711 0.0455-5.0527-2.6042-4.9479-5.4539-0.3681-2.9986 2.671-5.1202 4.9617-4.9567 1.7223 0.1229 3.224 1.052 4.1329 1.7751 0.5963 0.3153 1.234 0.45461 0.3449-0.35848-1.6776-1.8329-3.0766-2.9642-3.046-5.7108 0.029-2.5787 2.2335-5.2681 5.1554-5.1838 3.6515 0.10546 5.312 2.8901 5.3033 5.4805-0.01 1.8883-0.9536 3.6263-2.4114 4.7027-0.9442 0.76609-0.6794 1.3398 0.3977 0.61483 1.0349-0.89201 2.2671-1.2826 3.5448-1.31 3.4905-0.0547 4.855 2.9615 4.6551 5.7642-0.1874 2.6257-2.4228 5.3284-5.369 5.0223-2.6307-0.3015-4.013-2.5099-4.8051-4.7769-0.2623-0.69509-0.676-0.88281-0.6645 0.15307 0.6077 5.0574 2.4916 8.2044 2.5053 8.2016z"/>
   <path d="m1854.5 827.2c-1.1921 2.4451-2.3522 4.7208-2.9843 7.4009-0.4192 2.5276 0.4383 1.5885 0.9252-0.0682 0.7212-2.2974 2.7226-3.3438 4.58-3.3689 3.3711-0.0455 5.0527 2.6042 4.9479 5.4539 0.3681 2.9986-2.671 5.1202-4.9617 4.9567-1.7223-0.1229-3.224-1.052-4.1329-1.7751-0.5963-0.3153-1.234-0.45461-0.3449 0.35848 1.6776 1.8329 3.0766 2.9642 3.046 5.7108-0.029 2.5787-2.2335 5.2681-5.1554 5.1838-3.6515-0.10546-5.312-2.8901-5.3033-5.4805 0.01-1.8883 0.9536-3.6263 2.4114-4.7027 0.9442-0.76609 0.6794-1.3398-0.3977-0.61483-1.0349 0.89201-2.2671 1.2826-3.5448 1.31-3.4905 0.0547-4.855-2.9615-4.6551-5.7642 0.1874-2.6257 2.4228-5.3284 5.369-5.0223 2.6307 0.3015 4.013 2.5099 4.8051 4.7769 0.2623 0.69509 0.676 0.88281 0.6645-0.15307-0.6077-5.0574-2.4916-8.2044-2.5053-8.2016z"/>
  </g>
 </g>
</svg>
