<svg xmlns:rdf="http://www.w3.org/1999/02/22-rdf-syntax-ns#" xmlns="http://www.w3.org/2000/svg" version="1.1" xmlns:cc="http://creativecommons.org/ns#" xmlns:dc="http://purl.org/dc/elements/1.1/" viewBox="0 0 744.09 1052.4">
 <g transform="translate(-1160.8 92.135)">
  <g transform="translate(-5060 3025)">
   <rect rx="10.63" ry="10.63" height="311.81" width="223.23" stroke="#000" y="-2746.8" x="6481.2" stroke-width=".99673" fill="#fff"/>
   <g transform="matrix(.30106 0 0 .30106 5635.6 -1949)">
    <path d="m2836.7-2519.9 8.4607-6.1116c7.3538 11.738 15.562 19.474 28.118 18.144 18.845-1.2674 26.649-20.661 22.704-35.285-3.8092-13.103-19.417-19.495-31.815-12.498-2.9236 1.65-6.3052 3.6875-6.3052 3.6875l-4.4137-7.1942 29.109-33.863h-31.59v14.016h-12.122v-25.128h61.746v8.5286s-16.538 16.837-22.013 26.066c13.469 0.4898 24.323 8.8645 28.208 22.116 2.2798 6.97 1.255 22.922-1.7164 29.788-4.9614 11.463-18.548 20.759-30.962 21.296-20.828 1.3757-31.893-12.961-37.408-23.562z"/>
    <path d="m3522-1744.7-8.4607 6.1116c-7.3538-11.738-15.562-19.474-28.118-18.144-18.845 1.2674-26.649 20.661-22.704 35.285 3.8092 13.103 19.417 19.495 31.815 12.498 2.9236-1.65 6.3052-3.375 6.3052-3.375l5.2262 6.7567-29.922 33.988h31.59v-14.016h12.122v25.128h-61.746v-8.5286s16.538-16.837 22.013-26.066c-13.469-0.4898-24.323-8.8645-28.208-22.116-2.2798-6.97-1.255-22.922 1.7164-29.788 4.9614-11.463 18.548-20.759 30.962-21.296 20.828-1.3757 31.893 12.961 37.408 23.562z"/>
   </g>
  </g>
  <path d="m1530.6 347.07c0.015-2.0257-1.5868-2.0644-1.5686-0.58579-0.1343 7.4286-6.4165 11.086-10.981 10.219-7.0361-1.3376-9.2818-8.3221-9.2147-12.435 0.2072-12.696 12.988-22.058 24.52-38.335 8.4501 14.691 22.397 26.23 23.223 37.586 1.0977 15.098-18.009 20.73-20.737 3.1327-0.176-1.243-1.6397-1.8011-1.5261-0.065 0.4145 4.8226-0.1749 6.8314 5.2657 18.719h-14.222c3.1497-5.5549 5.0254-12.375 5.2398-18.236z"/>
  <path d="m1530.7 422.62c0.015 2.0257-1.5868 2.0644-1.5686 0.58579-0.1343-7.4286-6.4165-11.086-10.981-10.219-7.0361 1.3376-9.2818 8.3221-9.2147 12.435 0.2072 12.696 12.988 22.058 24.52 38.335 8.4501-14.691 22.397-26.23 23.223-37.586 1.0977-15.098-18.009-20.73-20.737-3.1327-0.176 1.243-1.6397 1.8011-1.5261 0.065 0.4145-4.8226-0.1749-6.8314 5.2657-18.719h-14.222c3.1497 5.5549 5.0254 12.375 5.2398 18.236z"/>
  <path d="m1530.6 521.3c0.015 2.0257-1.5868 2.0644-1.5686 0.58579-0.1343-7.4286-6.4165-11.086-10.981-10.219-7.0361 1.3376-9.2818 8.3221-9.2147 12.435 0.2072 12.696 12.988 22.058 24.52 38.335 8.4501-14.691 22.397-26.23 23.223-37.586 1.0977-15.098-18.009-20.73-20.737-3.1327-0.176 1.243-1.6397 1.8011-1.5261 0.065 0.4145-4.8226-0.1749-6.8314 5.2657-18.719h-14.222c3.1497 5.5549 5.0254 12.375 5.2398 18.236z"/>
  <path d="m1439.2 347.86c0.01-0.87153-0.8953-0.46462-1.0178-0.1903-1.1632 1.9856-2.8648 2.4477-4.5479 1.7318-1.6673-0.70915-2.6042-2.2803-2.4539-4.5222 0.3102-3.4378 3.0354-7.1996 4.355-9.3262 1.252-1.9299 2.6279-4.2222 4.0767-7.1541 1.6973 3.3632 2.5587 4.3206 4.4052 7.3915 1.626 2.7044 3.8925 5.353 4.0675 8.6224 0 2.4849-1.046 4.8318-3.3994 5.2594-1.3314 0.2419-2.5787-0.44156-3.5038-2.0369-0.2818-0.40656-0.8488-0.19466-0.8393 0.3619 0.1652 2.0933 0.9554 3.9832 2.8295 6.2116h-6.8871c1.4101-1.576 2.8487-3.7037 2.9153-6.349z"/>
  <path d="m1626.2 520.96c0.01 0.87153-0.8953 0.46462-1.0178 0.1903-1.1632-1.9856-2.8648-2.4477-4.5479-1.7318-1.6673 0.70915-2.6042 2.2803-2.4539 4.5222 0.3102 3.4378 3.0354 7.1996 4.355 9.3262 1.252 1.9299 2.6279 4.2222 4.0767 7.1541 1.6972-3.3632 2.5586-4.3206 4.4051-7.3915 1.626-2.7044 3.8925-5.353 4.0675-8.6224 0-2.4849-1.046-4.8318-3.3994-5.2594-1.3314-0.24189-2.5787 0.44156-3.5038 2.0369-0.2818 0.40655-0.8487 0.19465-0.8392-0.36191 0.1651-2.0933 0.9553-3.9832 2.8294-6.2116h-6.887c1.4101 1.576 2.8487 3.7037 2.9153 6.349z"/>
 </g>
</svg>
