<svg xmlns:rdf="http://www.w3.org/1999/02/22-rdf-syntax-ns#" xmlns="http://www.w3.org/2000/svg" version="1.1" xmlns:cc="http://creativecommons.org/ns#" xmlns:dc="http://purl.org/dc/elements/1.1/" viewBox="0 0 744.09 1052.4">
 <g transform="translate(-1313.6 198.15)">
  <g transform="translate(-4683.9 2918.9)">
   <rect rx="10.63" ry="10.63" height="311.81" width="223.23" stroke="#000" y="-2746.8" x="6257.9" stroke-width=".99673" fill="#fff"/>
  </g>
  <g transform="translate(-.13622 .000045316)" fill="#d40000">
   <path d="m1583.3 232.36c-1.583-3.4723-1.7567-9.4054 2.9711-10.208 3.5621-0.45844 5.0117 1.1983 5.2999 3.7419 0.1422 0.74302 0.5617 0.7885 0.6948-0.0583 0.2044-2.6094 2.7872-4.1326 4.8064-3.75 5.5266 0.9454 5.2039 7.0284 3.3985 11.156-2.7309 5.4795-5.6006 8.9376-8.245 14.452-3.0382-5.741-6.5073-10.405-8.9257-15.333z"/>
   <path d="m1771 423.63c-1.583 3.4723-1.7567 9.4054 2.9711 10.208 3.5621 0.45844 5.0117-1.1983 5.2999-3.7419 0.1422-0.74302 0.5617-0.7885 0.6948 0.0583 0.2044 2.6094 2.7872 4.1326 4.8064 3.75 5.5266-0.9454 5.2039-7.0284 3.3985-11.156-2.7309-5.4795-5.6006-8.9376-8.245-14.452-3.0382 5.741-6.5073 10.405-8.9257 15.333z"/>
   <g transform="matrix(.30106 0 0 .30106 995.98 969.14)">
    <path d="m1947.7-2492.4 0.5475-6.7053c1.6921-20.723 6.2259-27.723 31.96-49.343 12.488-10.492 16.588-15.669 17.165-21.677 1.6305-14.15-11.131-18.57-19.448-18.647-10.769-0.099-22.951 6.3494-17.143 21.304l-12.079 3.547c-2.4391-13.951 0.056-27.044 11.378-32.858 15.101-7.5722 34.478-4.6012 44.255 7.33 6.5707 8.0186 8.0644 19.086 4.5432 27.754-10.299 22.16-45.244 31.908-48.132 57.528h38.634v-14.266h11.379v26.264z"/>
    <path d="m2634-1766.5-0.5475 6.7053c-1.6921 20.723-6.2259 27.723-31.96 49.343-12.488 10.492-16.588 15.669-17.165 21.677-1.6305 14.15 11.131 18.57 19.448 18.647 10.769 0.099 22.951-6.3494 17.143-21.304l12.079-3.547c2.4391 13.951-0.056 27.044-11.378 32.858-15.101 7.5722-34.478 4.6012-44.255-7.33-6.5707-8.0186-8.0644-19.086-4.5432-27.754 10.299-22.16 45.244-31.908 48.132-57.528h-38.634v14.266h-11.379v-26.264z"/>
   </g>
   <path d="m1673.7 200.09c7.144-0.4744 10.868 5.6274 11.595 10.436 0.4334 0.76389 0.6707 0.54864 0.8369-0.0423 0.3493-6.1741 5.8749-11.22 10.993-10.53 8.328 0.10829 13.39 9.3754 11.966 17.219-1.7385 9.5816-6.8997 15.351-10.808 21.293-4.4213 6.1524-10.373 15.04-12.29 19.317 0 0-6.0483-9.2045-13.917-20.03-5.2618-7.2385-9.4731-15.082-9.8651-21.835-0.4479-7.7155 2.7193-14.632 11.489-15.828z"/>
   <path d="m1673.7 456.39c7.144 0.4744 10.868-5.6274 11.595-10.436 0.4334-0.76389 0.6707-0.54864 0.8369 0.0423 0.3493 6.1741 5.8749 11.22 10.993 10.53 8.328-0.10829 13.39-9.3754 11.966-17.219-1.7385-9.5816-6.8997-15.351-10.808-21.293-4.4213-6.1524-10.373-15.04-12.29-19.317 0 0-6.0483 9.2045-13.917 20.03-5.2618 7.2385-9.4731 15.082-9.8651 21.835-0.4479 7.7155 2.7193 14.632 11.489 15.828z"/>
  </g>
 </g>
</svg>
