<svg xmlns:rdf="http://www.w3.org/1999/02/22-rdf-syntax-ns#" xmlns="http://www.w3.org/2000/svg" version="1.1" xmlns:cc="http://creativecommons.org/ns#" xmlns:dc="http://purl.org/dc/elements/1.1/" viewBox="0 0 744.09 1052.4">
 <g transform="translate(-5774.3 2805.3)">
  <rect rx="10.63" ry="10.63" height="311.81" width="223.23" stroke="#000" stroke-miterlimit="3.8" y="-2435" x="6034.7" stroke-width="0.99" fill="#fff"/>
  <g fill="#d40000" transform="matrix(.30106 0 0 .30106 5449.6 -1980.9)">
   <path d="m2053.2-1313.1c32.952-32.158 54.594-67.22 75.29-100.94 18.15 37.102 44.197 69.561 72.364 100.94-30.137 31.118-53.494 64.393-72.274 99.374-20.818-35.859-42.736-68.33-75.381-99.374z"/>
   <path d="m2053.2-980.13c32.952-32.158 54.594-67.22 75.29-100.94 18.15 37.102 44.197 69.561 72.364 100.94-30.137 31.118-53.494 64.393-72.274 99.374-20.818-35.859-42.736-68.33-75.381-99.374z"/>
   <path d="m2053.2-652.63c32.952-32.158 54.594-67.22 75.29-100.94 18.15 37.102 44.197 69.561 72.364 100.94-30.137 31.118-53.494 64.393-72.274 99.374-20.818-35.859-42.736-68.33-75.381-99.374z"/>
   <path d="m2240.6-1146.6c32.952-32.158 54.594-67.22 75.29-100.94 18.15 37.102 44.197 69.561 72.364 100.94-30.137 31.118-53.494 64.393-72.274 99.374-20.818-35.859-42.736-68.33-75.381-99.374z"/>
   <path d="m2423.6-1313.1c32.952-32.158 54.594-67.22 75.29-100.94 18.15 37.102 44.197 69.561 72.364 100.94-30.137 31.118-53.494 64.393-72.274 99.374-20.818-35.859-42.736-68.33-75.381-99.374z"/>
   <path d="m2423.6-980.13c32.952-32.158 54.594-67.22 75.29-100.94 18.15 37.102 44.197 69.561 72.364 100.94-30.137 31.118-53.494 64.393-72.274 99.374-20.818-35.859-42.736-68.33-75.381-99.374z"/>
   <path d="m2423.6-652.63c32.952-32.158 54.594-67.22 75.29-100.94 18.15 37.102 44.197 69.561 72.364 100.94-30.137 31.118-53.494 64.393-72.274 99.374-20.818-35.859-42.736-68.33-75.381-99.374z"/>
   <path d="m2598.6-676.62c13.499-13.173 22.364-27.536 30.842-41.349 7.435 15.199 18.105 28.495 29.644 41.349-12.346 12.747-21.914 26.378-29.607 40.708-8.5281-14.689-17.506-27.991-30.879-40.708z"/>
   <path d="m1971.4-1294c13.499-13.173 22.364-27.536 30.842-41.349 7.435 15.199 18.105 28.495 29.644 41.349-12.346 12.747-21.914 26.378-29.607 40.708-8.5281-14.689-17.506-27.991-30.879-40.708z"/>
   <path d="m1984.5-1353.9c7.0822-36.836 14.645-64.473 34.478-94.491h-40.306v12.922h-10.714v-24.35h58.972l7.2692 11.429c-21.064 22.576-40.351 95.556-36.934 94.491z"/>
   <path d="m2644-627.17c-7.0822 36.836-14.645 64.473-34.478 94.491h40.306v-12.922h10.714v24.35h-58.972l-7.2692-11.429c21.064-22.576 40.351-95.556 36.934-94.491z"/>
  </g>
 </g>
</svg>
