<svg xmlns:rdf="http://www.w3.org/1999/02/22-rdf-syntax-ns#" xmlns="http://www.w3.org/2000/svg" version="1.1" xmlns:cc="http://creativecommons.org/ns#" xmlns:dc="http://purl.org/dc/elements/1.1/" viewBox="0 0 744.09 1052.4">
 <g transform="translate(-6667.2 3117.1)">
  <rect rx="10.63" ry="10.63" height="311.81" width="223.23" stroke="#000" y="-2746.8" x="6927.6" stroke-width=".99673" fill="#fff"/>
  <g fill="#d40000" transform="matrix(.30106 0 0 .30106 5562.6 -1947.8)">
   <path d="m4646.6-2464.9c32.952-32.158 54.594-67.22 75.29-100.94 18.15 37.102 44.197 69.561 72.364 100.94-30.137 31.118-53.494 64.393-72.274 99.374-20.818-35.859-42.736-68.33-75.381-99.374z"/>
   <path d="m4646.6-1811.7c32.952-32.158 54.594-67.22 75.29-100.94 18.15 37.102 44.197 69.561 72.364 100.94-30.137 31.118-53.494 64.393-72.274 99.374-20.818-35.859-42.736-68.33-75.381-99.374z"/>
   <path d="m5014.2-2464.9c32.952-32.158 54.594-67.22 75.29-100.94 18.15 37.102 44.197 69.561 72.364 100.94-30.137 31.118-53.494 64.393-72.274 99.374-20.818-35.859-42.736-68.33-75.381-99.374z"/>
   <path d="m4830.7-2135.2c32.952-32.158 54.594-67.22 75.29-100.94 18.15 37.102 44.197 69.561 72.364 100.94-30.137 31.118-53.494 64.393-72.274 99.374-20.818-35.859-42.736-68.33-75.381-99.374z"/>
   <path d="m5014.2-1811.7c32.952-32.158 54.594-67.22 75.29-100.94 18.15 37.102 44.197 69.561 72.364 100.94-30.137 31.118-53.494 64.393-72.274 99.374-20.818-35.859-42.736-68.33-75.381-99.374z"/>
   <path d="m5184.4-1826.7c13.499-13.173 22.364-27.536 30.842-41.349 7.435 15.199 18.105 28.495 29.644 41.349-12.346 12.747-21.914 26.378-29.607 40.708-8.5281-14.689-17.506-27.991-30.879-40.708z"/>
   <path d="m4564.2-2444c13.499-13.173 22.364-27.536 30.842-41.349 7.435 15.199 18.105 28.495 29.644 41.349-12.346 12.747-21.914 26.378-29.607 40.708-8.5281-14.689-17.506-27.991-30.879-40.708z"/>
   <path d="m4561.2-2529.2 10.696-0.094c2.034 6.4574 6.5502 13.041 12.678 14.859 17.312 4.0652 28.457-5.6046 32.128-16.763 4.4514-13.531-0.1008-32.536-12.016-39.287-9.8838-5.5995-24.563-0.877-31.296 11.089l-7.4975-4.5831 4.0237-44.582h48.929v10.536h-39.652l-0.6221 18.571c8.5208-5.9858 21.65-5.9276 30.178-1.7268 16.159 7.7024 23.663 25.22 20.518 45.873-4.3527 20.538-13.942 32.174-35.599 33.847-24.064 0.2079-32.564-16.336-32.468-27.739z"/>
   <path d="m5248.4-1742.9-10.696 0.094c-2.034-6.4574-6.5502-13.041-12.678-14.859-17.312-4.0652-28.457 5.6046-32.128 16.763-4.4514 13.531 0.1008 32.536 12.016 39.287 9.8838 5.5995 24.563 0.877 31.296-11.089l7.4975 4.5831-4.0237 44.582h-48.929v-10.536h39.652l0.6221-18.571c-8.5208 5.9858-21.65 5.9276-30.178 1.7268-16.159-7.7024-23.663-25.22-20.518-45.873 4.3527-20.538 13.942-32.174 35.599-33.847 24.064-0.2079 32.564 16.336 32.468 27.739z"/>
  </g>
 </g>
</svg>
