<svg xmlns:rdf="http://www.w3.org/1999/02/22-rdf-syntax-ns#" xmlns="http://www.w3.org/2000/svg" version="1.1" xmlns:cc="http://creativecommons.org/ns#" xmlns:dc="http://purl.org/dc/elements/1.1/" viewBox="0 0 744.09 1052.4">
 <g transform="translate(-1607.2 92.135)">
  <g transform="translate(-5060 3025)">
   <rect rx="10.63" ry="10.63" height="311.81" width="223.23" stroke="#000" y="-2746.8" x="6927.6" stroke-width=".99673" fill="#fff"/>
   <g transform="matrix(.30106 0 0 .30106 5562.6 -1947.8)">
    <path d="m4561.2-2529.2 10.696-0.094c2.034 6.4574 6.5502 13.041 12.678 14.859 17.312 4.0652 28.457-5.6046 32.128-16.763 4.4514-13.531-0.1008-32.536-12.016-39.287-9.8838-5.5995-24.563-0.877-31.296 11.089l-7.4975-4.5831 4.0237-44.582h48.929v10.536h-39.652l-0.6221 18.571c8.5208-5.9858 21.65-5.9276 30.178-1.7268 16.159 7.7024 23.663 25.22 20.518 45.873-4.3527 20.538-13.942 32.174-35.599 33.847-24.064 0.2079-32.564-16.336-32.468-27.739z"/>
    <path d="m5248.4-1742.9-10.696 0.094c-2.034-6.4574-6.5502-13.041-12.678-14.859-17.312-4.0652-28.457 5.6046-32.128 16.763-4.4514 13.531 0.1008 32.536 12.016 39.287 9.8838 5.5995 24.563 0.877 31.296-11.089l7.4975 4.5831-4.0237 44.582h-48.929v-10.536h39.652l0.6221-18.571c-8.5208 5.9858-21.65 5.9276-30.178 1.7268-16.159-7.7024-23.663-25.22-20.518-45.873 4.3527-20.538 13.942-32.174 35.599-33.847 24.064-0.2079 32.564 16.336 32.468 27.739z"/>
   </g>
  </g>
  <path d="m1921.6 346.26c0.015-2.0257-1.5868-2.0644-1.5686-0.58579-0.1343 7.4286-6.4165 11.086-10.981 10.219-7.0361-1.3376-9.2818-8.3221-9.2147-12.435 0.2072-12.696 12.988-22.058 24.52-38.335 8.4501 14.691 22.397 26.23 23.223 37.586 1.0977 15.098-18.009 20.73-20.737 3.1327-0.176-1.243-1.6397-1.8011-1.5261-0.065 0.4145 4.8226-0.1749 6.8314 5.2657 18.719h-14.222c3.1497-5.5549 5.0254-12.375 5.2398-18.236z"/>
  <path d="m2032.3 346.26c0.015-2.0257-1.5868-2.0644-1.5686-0.58579-0.1343 7.4286-6.4165 11.086-10.981 10.219-7.0361-1.3376-9.2818-8.3221-9.2147-12.435 0.2072-12.696 12.988-22.058 24.52-38.335 8.4501 14.691 22.397 26.23 23.223 37.586 1.0977 15.098-18.009 20.73-20.737 3.1327-0.176-1.243-1.6397-1.8011-1.5261-0.065 0.4145 4.8226-0.1749 6.8314 5.2657 18.719h-14.222c3.1497-5.5549 5.0254-12.375 5.2398-18.236z"/>
  <path d="m1977.1 445.52c0.015-2.0257-1.5868-2.0644-1.5686-0.58579-0.1343 7.4286-6.4165 11.086-10.981 10.219-7.0361-1.3376-9.2818-8.3221-9.2147-12.435 0.2072-12.696 12.988-22.058 24.52-38.335 8.4501 14.691 22.397 26.23 23.223 37.586 1.0977 15.098-18.009 20.73-20.737 3.1327-0.176-1.243-1.6397-1.8011-1.5261-0.065 0.4145 4.8226-0.1749 6.8314 5.2657 18.719h-14.222c3.1497-5.5549 5.0254-12.375 5.2398-18.236z"/>
  <path d="m1921.6 520.04c0.015 2.0257-1.5868 2.0644-1.5686 0.58579-0.1343-7.4286-6.4165-11.086-10.981-10.219-7.0361 1.3376-9.2818 8.3221-9.2147 12.435 0.2072 12.696 12.988 22.058 24.52 38.335 8.4501-14.691 22.397-26.23 23.223-37.586 1.0977-15.098-18.009-20.73-20.737-3.1327-0.176 1.243-1.6397 1.8011-1.5261 0.065 0.4145-4.8226-0.1749-6.8314 5.2657-18.719h-14.222c3.1497 5.5549 5.0254 12.375 5.2398 18.236z"/>
  <path d="m2032.3 520.04c0.015 2.0257-1.5868 2.0644-1.5686 0.58579-0.1343-7.4286-6.4165-11.086-10.981-10.219-7.0361 1.3376-9.2818 8.3221-9.2147 12.435 0.2072 12.696 12.988 22.058 24.52 38.335 8.4501-14.691 22.397-26.23 23.223-37.586 1.0977-15.098-18.009-20.73-20.737-3.1327-0.176 1.243-1.6397 1.8011-1.5261 0.065 0.4145-4.8226-0.1749-6.8314 5.2657-18.719h-14.222c3.1497 5.5549 5.0254 12.375 5.2398 18.236z"/>
  <path d="m1885.4 347.79c0.01-0.87153-0.8953-0.46462-1.0178-0.1903-1.1632 1.9856-2.8648 2.4477-4.5479 1.7318-1.6673-0.70915-2.6042-2.2803-2.4539-4.5222 0.3102-3.4378 3.0354-7.1996 4.355-9.3262 1.252-1.9299 2.6279-4.2222 4.0767-7.1541 1.6973 3.3632 2.5587 4.3206 4.4052 7.3915 1.626 2.7044 3.8925 5.353 4.0675 8.6224 0 2.4849-1.046 4.8318-3.3994 5.2594-1.3314 0.24189-2.5787-0.44156-3.5038-2.0369-0.2818-0.40656-0.8488-0.19466-0.8393 0.3619 0.1652 2.0933 0.9554 3.9832 2.8295 6.2116h-6.8871c1.4101-1.576 2.8487-3.7037 2.9153-6.349z"/>
  <path d="m2072.1 520.54c0.01 0.87153-0.8953 0.46462-1.0178 0.1903-1.1632-1.9856-2.8648-2.4477-4.5479-1.7318-1.6673 0.70915-2.6042 2.2803-2.4539 4.5222 0.3102 3.4378 3.0354 7.1996 4.355 9.3262 1.252 1.9299 2.6279 4.2222 4.0767 7.1541 1.6972-3.3632 2.5586-4.3206 4.4051-7.3915 1.626-2.7044 3.8925-5.353 4.0675-8.6224 0-2.4849-1.046-4.8318-3.3994-5.2594-1.3314-0.2419-2.5787 0.44156-3.5038 2.0369-0.2818 0.40657-0.8487 0.19466-0.8392-0.36189 0.1651-2.0933 0.9553-3.9832 2.8294-6.2116h-6.887c1.4101 1.576 2.8487 3.7037 2.9153 6.349z"/>
 </g>
</svg>
