<svg xmlns:rdf="http://www.w3.org/1999/02/22-rdf-syntax-ns#" xmlns="http://www.w3.org/2000/svg" version="1.1" xmlns:cc="http://creativecommons.org/ns#" xmlns:dc="http://purl.org/dc/elements/1.1/" viewBox="0 0 744.09 1052.4">
 <g transform="translate(-937.54 -219.68)">
  <g transform="translate(-5060 3025)">
   <rect rx="10.63" ry="10.63" height="311.81" width="223.23" stroke="#000" y="-2435" x="6257.9" stroke-width=".99673" fill="#fff"/>
   <g transform="matrix(.30106 0 0 .30106 5370.1 -1979.9)">
    <path d="m2971.7-1386.8c0.5319-14.533 5.8816-19.991 16.421-27.6-8.4057-5.9629-11.95-14.736-11.234-22.212 1.7322-18.092 15.976-27.144 31.505-26.75 15.529 0.3942 28.913 12.501 29.957 25.649 0.9079 11.437-2.5591 16.948-10.82 22.969 9.8084 8.1096 16.078 13.452 15.84 27.769-0.2379 14.316-12.641 31.355-34.26 31.878-21.62 0.5231-37.94-17.169-37.408-31.703zm60.362 0.048c0.9274-13.16-10.922-22.04-24.292-22.178-13.028-0.1345-24.683 10.784-24.685 22.599 0 12.692 15.158 19.586 24.948 19.623 11.899 0.044 23.23-8.7095 24.029-20.044zm-4.2782-47.078c0.2587-11.086-10.154-19.031-20.888-18.711-9.5508 0.2844-19.667 7.4427-19.672 16.71-0.01 11.592 11.5 17.38 21.314 17.598 8.9033 0.1981 19.051-7.2235 19.246-15.597z"/>
    <path d="m3667.7-600.56c-0.5319 14.533-5.8816 19.991-16.421 27.6 8.4057 5.9629 11.95 14.736 11.234 22.212-1.7322 18.092-15.976 27.144-31.505 26.75-15.529-0.3942-28.913-12.501-29.957-25.649-0.9079-11.437 2.5591-16.948 10.82-22.969-9.8084-8.1096-16.078-13.452-15.84-27.769 0.2379-14.316 12.641-31.355 34.26-31.878 21.62-0.5231 37.94 17.169 37.408 31.703zm-60.362-0.048c-0.9274 13.16 10.922 22.04 24.292 22.178 13.028 0.1345 24.683-10.784 24.685-22.599 0-12.692-15.158-19.586-24.948-19.623-11.899-0.044-23.23 8.7095-24.029 20.044zm4.2782 47.078c-0.2587 11.086 10.154 19.031 20.888 18.711 9.5508-0.2844 19.667-7.4427 19.672-16.71 0.01-11.592-11.5-17.38-21.314-17.598-8.9033-0.1981-19.051 7.2235-19.246 15.597z"/>
   </g>
  </g>
  <path d="m1250.4 657.79c0.015-2.0257-1.5868-2.0644-1.5686-0.58579-0.1343 7.4286-6.4165 11.086-10.981 10.219-7.0361-1.3376-9.2818-8.3221-9.2147-12.435 0.2072-12.696 12.988-22.058 24.52-38.335 8.4501 14.691 22.397 26.23 23.223 37.586 1.0977 15.098-18.009 20.73-20.737 3.1327-0.176-1.243-1.6397-1.8011-1.5261-0.065 0.4145 4.8226-0.1749 6.8314 5.2657 18.719h-14.222c3.1497-5.5549 5.0254-12.375 5.2398-18.236z"/>
  <path d="m1362 657.79c0.015-2.0257-1.5868-2.0644-1.5686-0.58579-0.1343 7.4286-6.4165 11.086-10.981 10.219-7.0361-1.3376-9.2818-8.3221-9.2147-12.435 0.2072-12.696 12.988-22.058 24.52-38.335 8.4501 14.691 22.397 26.23 23.223 37.586 1.0977 15.098-18.009 20.73-20.737 3.1327-0.176-1.243-1.6397-1.8011-1.5261-0.065 0.4145 4.8226-0.1749 6.8314 5.2657 18.719h-14.222c3.1497-5.5549 5.0254-12.375 5.2398-18.236z"/>
  <path d="m1306.6 707.91c0.015-2.0257-1.5868-2.0644-1.5686-0.58579-0.1343 7.4286-6.4165 11.086-10.981 10.219-7.0361-1.3376-9.2818-8.3221-9.2147-12.435 0.2072-12.696 12.988-22.058 24.52-38.335 8.4501 14.691 22.397 26.23 23.223 37.586 1.0977 15.098-18.009 20.73-20.737 3.1327-0.176-1.243-1.6397-1.8011-1.5261-0.065 0.4145 4.8226-0.1749 6.8314 5.2657 18.719h-14.222c3.1497-5.5549 5.0254-12.375 5.2398-18.236z"/>
  <path d="m1250.4 758.03c0.015-2.0257-1.5868-2.0644-1.5686-0.58579-0.1343 7.4286-6.4165 11.086-10.981 10.219-7.0361-1.3376-9.2818-8.3221-9.2147-12.435 0.2072-12.696 12.988-22.058 24.52-38.335 8.4501 14.691 22.397 26.23 23.223 37.586 1.0977 15.098-18.009 20.73-20.737 3.1327-0.176-1.243-1.6397-1.8011-1.5261-0.065 0.4145 4.8226-0.1749 6.8314 5.2657 18.719h-14.222c3.1497-5.5549 5.0254-12.375 5.2398-18.236z"/>
  <path d="m1362 758.03c0.015-2.0257-1.5868-2.0644-1.5686-0.58579-0.1343 7.4286-6.4165 11.086-10.981 10.219-7.0361-1.3376-9.2818-8.3221-9.2147-12.435 0.2072-12.696 12.988-22.058 24.52-38.335 8.4501 14.691 22.397 26.23 23.223 37.586 1.0977 15.098-18.009 20.73-20.737 3.1327-0.176-1.243-1.6397-1.8011-1.5261-0.065 0.4145 4.8226-0.1749 6.8314 5.2657 18.719h-14.222c3.1497-5.5549 5.0254-12.375 5.2398-18.236z"/>
  <path d="m1362 833.76c0.015 2.0257-1.5868 2.0644-1.5686 0.58579-0.1343-7.4286-6.4165-11.086-10.981-10.219-7.0361 1.3376-9.2818 8.3221-9.2147 12.435 0.2072 12.696 12.988 22.058 24.52 38.335 8.4501-14.691 22.397-26.23 23.223-37.586 1.0977-15.098-18.009-20.73-20.737-3.1327-0.176 1.243-1.6397 1.8011-1.5261 0.065 0.4145-4.8226-0.1749-6.8314 5.2657-18.719h-14.222c3.1497 5.5549 5.0254 12.375 5.2398 18.236z"/>
  <path d="m1306.6 784.46c0.015 2.0257-1.5868 2.0644-1.5686 0.58579-0.1343-7.4286-6.4165-11.086-10.981-10.219-7.0361 1.3376-9.2818 8.3221-9.2147 12.435 0.2072 12.696 12.988 22.058 24.52 38.335 8.4501-14.691 22.397-26.23 23.223-37.586 1.0977-15.098-18.009-20.73-20.737-3.1327-0.176 1.243-1.6397 1.8011-1.5261 0.065 0.4145-4.8226-0.1749-6.8314 5.2657-18.719h-14.222c3.1497 5.5549 5.0254 12.375 5.2398 18.236z"/>
  <path d="m1250.5 833.76c0.015 2.0257-1.5868 2.0644-1.5686 0.58579-0.1343-7.4286-6.4165-11.086-10.981-10.219-7.0361 1.3376-9.2818 8.3221-9.2147 12.435 0.2072 12.696 12.988 22.058 24.52 38.335 8.4501-14.691 22.397-26.23 23.223-37.586 1.0977-15.098-18.009-20.73-20.737-3.1327-0.176 1.243-1.6397 1.8011-1.5261 0.065 0.4145-4.8226-0.1749-6.8314 5.2657-18.719h-14.222c3.1497 5.5549 5.0254 12.375 5.2398 18.236z"/>
  <path d="m1215.8 661.92c0.01-0.87153-0.8953-0.46462-1.0178-0.1903-1.1632 1.9856-2.8648 2.4477-4.5479 1.7318-1.6673-0.70915-2.6042-2.2803-2.4539-4.5222 0.3102-3.4378 3.0354-7.1996 4.355-9.3262 1.252-1.9299 2.6279-4.2222 4.0767-7.1541 1.6973 3.3632 2.5587 4.3206 4.4052 7.3915 1.626 2.7044 3.8925 5.353 4.0675 8.6224 0 2.4849-1.046 4.8318-3.3994 5.2594-1.3314 0.2419-2.5787-0.44156-3.5038-2.0369-0.2818-0.40656-0.8488-0.19466-0.8393 0.3619 0.1652 2.0933 0.9554 3.9832 2.8295 6.2116h-6.8871c1.4101-1.576 2.8487-3.7037 2.9153-6.349z"/>
  <path d="m1404.6 834.66c0.01 0.87153-0.8953 0.46462-1.0178 0.1903-1.1632-1.9856-2.8648-2.4477-4.5479-1.7318-1.6673 0.70915-2.6042 2.2803-2.4539 4.5222 0.3102 3.4378 3.0354 7.1995 4.355 9.3262 1.252 1.9299 2.6279 4.2222 4.0767 7.1541 1.6972-3.3632 2.5586-4.3206 4.4051-7.3915 1.626-2.7044 3.8925-5.353 4.0675-8.6224 0-2.4849-1.046-4.8318-3.3994-5.2594-1.3314-0.24189-2.5787 0.44156-3.5038 2.0369-0.2818 0.40657-0.8487 0.19467-0.8392-0.36189 0.1651-2.0933 0.9553-3.9832 2.8294-6.2116h-6.887c1.4101 1.576 2.8487 3.7037 2.9153 6.349z"/>
 </g>
</svg>
