<svg xmlns:rdf="http://www.w3.org/1999/02/22-rdf-syntax-ns#" xmlns="http://www.w3.org/2000/svg" version="1.1" xmlns:cc="http://creativecommons.org/ns#" xmlns:dc="http://purl.org/dc/elements/1.1/" viewBox="0 0 744.09 1052.4">
 <g transform="translate(-6444 3117.1)">
  <rect rx="10.63" ry="10.63" height="311.81" width="223.23" stroke="#000" y="-2746.8" x="6704.4" stroke-width=".99673" fill="#fff"/>
  <g fill="#d40000" transform="matrix(.30106 0 0 .30106 5623.3 -1949.7)">
   <path d="m3706.6-2464.9c32.952-32.158 54.594-67.22 75.29-100.94 18.15 37.102 44.197 69.561 72.364 100.94-30.137 31.118-53.494 64.393-72.274 99.374-20.818-35.859-42.736-68.33-75.381-99.374z"/>
   <path d="m3706.6-1804.4c32.952-32.158 54.594-67.22 75.29-100.94 18.15 37.102 44.197 69.561 72.364 100.94-30.137 31.118-53.494 64.393-72.274 99.374-20.818-35.859-42.736-68.33-75.381-99.374z"/>
   <path d="m4077.1-2464.9c32.952-32.158 54.594-67.22 75.29-100.94 18.15 37.102 44.197 69.561 72.364 100.94-30.137 31.118-53.494 64.393-72.274 99.374-20.818-35.859-42.736-68.33-75.381-99.374z"/>
   <path d="m4077.1-1804.4c32.952-32.158 54.594-67.22 75.29-100.94 18.15 37.102 44.197 69.561 72.364 100.94-30.137 31.118-53.494 64.393-72.274 99.374-20.818-35.859-42.736-68.33-75.381-99.374z"/>
   <path d="m4240.4-1821.7c13.499-13.173 22.364-27.536 30.842-41.349 7.435 15.199 18.105 28.495 29.644 41.349-12.346 12.747-21.914 26.378-29.607 40.708-8.5281-14.689-17.506-27.991-30.879-40.708z"/>
   <path d="m3618.6-2436.5c13.499-13.173 22.364-27.536 30.842-41.349 7.435 15.199 18.105 28.495 29.644 41.349-12.346 12.747-21.914 26.378-29.607 40.708-8.5281-14.689-17.506-27.991-30.879-40.708z"/>
   <path d="m3650.2-2493.7v-9.3439h8.5863v-15.399h-42.932v-10.865l46.452-70.079 7.5907 0.026v70.053h13.132v10.865h-13.132l-0.2526 15.399h7.1974v9.3439zm8.5863-80.04-29.493 44.432h29.493z"/>
   <path d="m4273.2-1766.1v9.3439h-8.5863v15.399h42.932v10.865l-46.452 70.079-7.5907-0.026v-70.053h-13.132v-10.865h13.132l0.2526-15.399h-7.1974v-9.3439zm-8.5863 80.04 29.493-44.432h-29.493z"/>
  </g>
 </g>
</svg>
