<svg xmlns:rdf="http://www.w3.org/1999/02/22-rdf-syntax-ns#" xmlns="http://www.w3.org/2000/svg" version="1.1" xmlns:cc="http://creativecommons.org/ns#" xmlns:dc="http://purl.org/dc/elements/1.1/" viewBox="0 0 744.09 1052.4">
 <title>Vectorized Playing Cards 1.0</title>
 <g transform="translate(-512.47 -1384.1)">
  <g transform="translate(-1318 1164.4)">
   <rect rx="10.63" ry="10.63" height="311.81" width="223.23" stroke="#000" y="589.95" x="2090.9" stroke-width=".99673" fill="#fff"/>
  </g>
  <g transform="matrix(.15387 .0017083 -.0017083 .15387 610.09 1850.4)">
   <g transform="translate(3353 67.403)">
    <g transform="translate(-509.04 9.6925)">
     <path d="m-1108.6 1129.1 147.78-277.02c-0.0178 0.0651 36.668 13.59 79.506 24.202-39.809 107.27 2.4546 247.73 2.4546 247.73s-229.86 4.8664-229.74 5.0952zm-419.76-465.96c-9.8813-116.93-11.41-229.98 6.8217-323.85 0.3404-1.5042-54.248-32.23-48.676-35.889 8.5288-5.6002 114.77-62.491 114.77-62.491s7.2642 4.0252 13.487 3.3222c4.8565-0.5486 9.3631-5.0168 7.4232-9.717-4.5872-11.114-12.865-38.802-8.3936-66.816 2.569-16.094 11.082-33.874 19.996-44.799 19.871-24.354 65.981-12.112 79.344-12.663 8.4844-0.3496 33.136-90.331-7.8951-106.52-11.305-4.4607-36.458 57.055-18.354 70.599 2.7226 2.0367-36.324-20.027-66.193-33.117-2.7674-1.2128-15.008-10.421-17.876-22.722-3.5779-15.345 45.044-45.49 35.24-62.725-14.283-25.107-50.867-62.484-66.233-51.943-14.485 13.378-49.089 40.769-48.651 59.246 11.269 33.008 39.01 35.006 53.921 66.187 3.7055 6.7343 30.806 34.906 30.806 34.906-9.8858 15.483 6.6841 42.166 7.3969 38.049l-127.5-53.864s31.513 218.48 1.1585 251.21c-3.2117 3.4625 27.079-8.8856 27.616-7.0207 9.3764 11.596 112.58 75.602 142.17 98.69 51.284-73.213 69.954-105.38 136.37-170.57 14.599-12.339 47.204-34.945 65.692-61.875 14.855-21.638 20.845-45.888 17.926-64.628-3.775-24.233-6.1191-40.82-21.318-59.996-35.111-44.302-90.648-86.316-89.685-87.104l18.645-15.51s68.532 55.384 97.748 96.354c19.684 27.603 11.346 59.599 28.114 65.122 4.0337 1.3286 31.445-1.2636 40.474 0.36413 1.0932 0.19707 201.33 138.18 165.39 146.66-49.742 11.748-129.34 5.3273-129.34 5.3273-57.387-54.771-84.993-72.686-118.64-54.95 0 0-84.909 75.934-133.74 135.19-27.83 33.771-50.91 75.903-69.477 103.05-7.1532 10.457-99.17-75.995-98.133-65.517 14.586 95.054 23.57 209.66 13.962 287.53-6.4494 66.13-15.498 137.18-19.214 198.14 0 0 15.232-4.6061 26.928-0.59793 6.3201 2.1659 10.965 7.9509 11.584 14.43 3.7214 28.962-33.704 22.647-34.602 20.145 0.042-0.0253 21.343 44.506 21.343 44.506s-31.731 56.146-30.861 53.709c0.5386-1.5084-29.953-49.197-29.953-49.197s22.281-40.386 25.048-48.775c1.6599-5.032-32.614 16.967-35.626-14.316-3.0364-31.537 37.418-23.526 35.649-19.622-5.5835-64.677-17.191-131.48-24.672-185.94zm488.05 140.22c0.8862-0.68014-86.242-33.848-165.9-29.746-28.197-10.615-74.115-21.542-104.45-0.83339-34.627-22.882-64.586-48.164-95.016-73.203 8.4414-0.20221 37.81-203.91 57.709-274.99-10.205-87.896 74.607-88.774 82.754-18.371 92.415 93.418 205.37 189.85 321.75 284.68-17.923 38.233-83.814 67.967-96.846 112.46zm192.97-624.69c-105.34-104.99-325.47-292.35-325.47-292.35l100.94-100.69c53.743 15.362 108.94 28.087 171.18 28.024 0.24657 0.24115 68.54 30.145 104.4-1.2411l95.027 73.564s-36.789 205.84-58.934 277.78c0.80335 28.392-9.5626 63.098-37.565 68.547-23.913 4.6532-42.717-29.101-49.599-53.634zm207.81-248.24c10.125-66.895 11.824-115.53 18.5-193.51-46.832 14.277-46.898-49.029-0.56264-32.892l-21.916-46.885 31.089-53.429 29.64 50.083-24.545 44.962c52.079 1.9807 40.056 50.412-4.8943 39.251 9.2802 74.535 28.726 149.72 28.643 223.51 17.421 118.15-16.677 283.2-10.685 287.04l51.144 34.33-5.8146 257.54-80.543-34.221-23.677 16.347c7.8254 15.066 17.727 29.483 21.2 45.907 0 0 55.705 44.767 48.201 58.996 3.5801 2.0456-38.63 59.19-51.218 57.917-24.034-2.4299-52.448-33.071-60.375-55.037-7.0167-22.1 49.074-44.46 41.788-60.604-8.7154-19.311-30.276-28.405-49.361-33.899-26.311-7.5741-38.539-28.19-39.743-28.176 0 0-9.2758 82.396-19.161 75.926-39.766-26.025-13.704-110.29-6.3546-108.03 0 0 17.282 3.7676 37.667 5.4551 71.834 6.7161 65.996-81.398 51.617-123.92-3.6007-10.088 1.8509-10.225 1.4661-10.352-3.3444-1.1075 11.601-0.44011 24.231-4.3136 34.727-10.65 87.712-46.668 87.712-46.668-56.423-30.464-106.32-65.386-151.1-98.526 0 0-40.446 70.77-88.768 120.08-35.177 35.899-40.83 48.051-99.857 94.43-1.1459 0.90039-44.523 53.917-22.91 115.02 18.496 52.289 105.22 108.15 104.63 111.95l-16.77 16.371c0.69471 0.93327-122.72-74.632-120.78-157.4-0.17093-3.1248-55.745-3.5855-55.745-3.5855l-163.16-147.79 136.8-2.1059 70.878 56.554 43.914 1.7903c2.8957 2.4895 4.3308-11.639 42.664-40.883 73.24-55.875 163.18-198.27 163.18-198.27s97.517 66.939 97.615 66.949c-5.9743-102.09-23.671-211.75-14.635-299.9zm-357.65-478.8s-98.449 189.86-152.6 279.39l-78.352-21.518c31.765-87.167-1.4077-252.26-9.6879-256.34z" fill="#e2cf00"/>
     <path d="m5852.8-282.69 5.9347 1699.8 1055.5-0.6784-3.0358-1699.1zm733.6 1231.8c50.07-46.507 99.598-84.896 145.9-112.8 17.959-10.821 23.409-12.405 30.464-5.9873 11.505 10.466 18.671 19.57 14.913 26.897-0.8475 1.6525-3.5567 4.3956-3.5567 4.3956l-27.662-10.519 8.9623 31.373c-24.891 10.131-24.441 37.049-0.4221 51.315l-16.528 38.022 38.424-16.905c1.4707 8.2882 28.871 28.326 45.914 0.007l34.698 16.927-11.958-42.471c11.394-10.852 18.034-28.195 0.1185-44.176l8.2479-33.271-31.336 10.195c-7.8513-10.73-12.412-9.9929-14.216-12.919-0.5359-3.9973-0.6346-13.313-5.8438-21.897-4.3086-7.1006-9.2371-14.639-13.844-19.92-2.4436-4.131-0.4914-4.4796 12.022-11.246 5.8792-3.1788 10.737-6.3935 10.737-6.3935s61.669 30.926 86.826 42.703l1.4285 569.54-338.27-0.9867c-38.041-113.52-10.711-211.64-0.6314-252.94-17.735-1.478-109.22-31.103-111.96-41.297 36.241-57.558 85.425-109.86 137.56-157.65zm-658.22 165.71c-44.121-14.245-44.567 38.872-22.028 42.989 5.8466 1.0678 11.951 1.9432 21.088-1.0068 2.2688 0.4701-26.427 44.531-26.427 44.531s22.979 41.723 33.985 59.453l34.74-61.622-22.713-42.649c35.565 18.12 53.979-35.841 16.634-42.901-9.0222-1.229-18.991 3.2838-18.991 3.2838l19.634-184.59c15.832 10.754 44.71 32.321 44.71 32.321 6.5739 101.7 1.7564 186.45 58.627 334.41l0.7 103h-195.25l-0.7576-537.49 34.169 24.445c0.7276 3.036-5.4468 1.0062-2.1166 38.411 3.0085 33.791 13.297 92.385 24.109 187.47zm701.04-1381.7c1.5579 2.2067 1.4423 5.5832 2.7861 10.059 7.9032 26.328 35.374 57.942 57.268 66.246 7.6659 2.9074 10.643 7.3255 6.2143 11.754-5.5928 5.5925-28.669-9.702-45.706-29.536-15.471-18.012-25.789-32.916-28.074-44.226-1.3562-6.7132-2.0352-11.028-1.0333-14.52 2.8315-3.918 6.3457-2.8303 8.5444 0.22184zm27.3-2.85c2.8945-0.0125 6.787 3.395 9.125 9.5938 5.6221 14.906 14.434 26.049 28.219 35.688 3.655 2.5555 5.1084 6.3858 3.25 8.625-0.6879 0.82891-1.5864 1.2366-2.5989 1.5194-10.746 3.0009-39.049-29.738-41.304-50.062-0.4896-4.4136 1.0574-5.3539 3.3087-5.3636zm35.219 0.40625c5.7163-0.0252 8.4577 11.9 5.146 18.147-2.1581 1.9706-6.8999-1.0682-11.108-8.8991-3.6163-6.729-2.1679-9.2116 5.9625-9.2475zm-19.156 0.1875c1.2811-0.04 3.9281-0.71763 5.2697 1.1426 2.2042 12.323 11.498 21.246 18.914 28.386 1.2455 2.3375 1.827 7.2288-0.8976 8.5012-6.4973 2.8773-26.058-19.356-26.193-32.217-0.041-3.8713 1.1427-5.7575 2.9063-5.8125zm-24.821 7.8125c6.8558 22.499 23.464 40.85 38.332 50.374 10.628 6.7661 14.732 10.61 9.8015 14.064-1.2224 0.85618-2.4599 1.5122-2.75 1.4688-24.892-9.5024-55.488-45.542-56.517-71.051 5.4214-6.9429 10.206 0.83242 11.133 5.1448zm-86.147 97.656c-13.092 0.0173-29.123 2.9976-42.142 8.905-18.117 8.2209-22.658 13.683-20.017 15.664 1.9005 1.393 13.565-3.6085 19.411-4.3687 31.544-7.8063 53.251-9.7234 73.81-0.76269 15.895 6.9277 15.99 3.7478 5.3189-7.7876-7.7369-8.3632-21.544-11.669-36.381-11.65zm111.2 17.29c10.439-0.10538 21.096 2.335 24.883 7.2004 2.9468 15.749-4.9172 8.5479-11.252 5.4103-9.1577-4.2242-19.646-7.8738-29.436-6.3709-6.2925 0.96594-6.468 0.64996-2.902-1.3699 5.3767-3.2692 12.996-4.7899 18.708-4.87zm-123.65 6.1334c-29.837 2.3162-40.169 17.402-59.432 32.963-7.9143 6.0175-6.113 10.673 3.5312 9.0938 11.904-1.9493 16.704-1.4822 32.939 4.0612 17.726 6.0522 30.43 8.5597 40.172 4.8176 18.422-7.077 16.84-5.899-9.5 19.601-14.094 11.317-8.4022 10.724 5.8725 0.92529 10.548-8.4257 17.803-13.796 20.005-18.415 1.07-2.2441 1.1646-10.284 3.1511-10.283 6.7003 0.002 3.2451-8.3576-2.8438-11.906-4.001-2.849-3.1079-5.8303 2.0728-11.31 8.1303-8.5518 5.3663-12.42-3.4618-7.0912-1.5539 0.84336-2.3208-1.77-7.7098-5.0203-8.5255-5.142-15.71-7.5364-24.796-7.4362zm21.506 11.197c7.2113 6.0679 4.1256 7.7475-11.612 7.5982-13.299-0.12622-24.62 1.2705-40.42 6.5089-17.94 5.9481-19.037 6.0997-8.5-2.8795 14.495-12.352 43.944-24.743 60.531-11.228zm93.201-5.2392c7.2364-0.15565 13.344 0.87108 18.856 3.9088 15.031 8.2839 18.375 15.466 1.6435 9.611-10.496-3.6732-24.672-3.1562-34.469-0.44131-10.119 2.8041-11.861 3.7874-10.491-1.6697 1.6782-6.6867 12.399-11.149 24.46-11.409zm-118.2 24.443c3.5643 17.852 17.105 12.02 18.446 1.2398l4.9438 0.0211c-2.1008 14.335-21.621 26.332-29.206-1.2589 1.6022-0.0428 8.6885 0.44744 5.8168-0.002zm108.02 0.30171 3.6696-0.11663c2.4215 13.687 15.142 18.164 20.673 1.0414l4.44 0.0926c-3.3985 28.554-33.62 14.646-28.782-1.0174zm-118.38 1.3342c2.4443 0.86243 3.5582 7.5564 3.1474 9.3214-0.8516 3.659-12.804-0.23612-15.335-3.8125 2.4954-2.654 8.3941-6.8474 12.187-5.5089zm162.62 3.0402-0.031 5c-5.5202 1.3229-7.8111 4.4218-12.969 3.4062 0.2924-3.195-0.2478-7.5852 2.75-11.312 3.7587-1.9851 8.2343 0.44833 10.25 2.9062zm-120.44 5.7812c-2.5058 1.971-5.942 2.1875-5.942 2.1875-0.54-4.7868-1.3466-10.17 4.6203-10.214 3.9213 1.1434 3.6467 5.9956 1.3217 8.0268zm68.875-7.9375c2.0978 0.14785 4.5568 5.3675 4.8437 8.4062-0.6143 4.9957-12.904 3.0021-12.904-1.9637-0.0002-2.0993 5.1368-6.4365 8.0606-6.4426zm-112.5 189.06c-9.49-4.745-81.457-48.473-99.888-125.8l-3.664 7.9095c7.8144 18.516 19.341 48.587 19.341 48.587-0.4821-2.5911 2.9417 20.145 10.274 58.745-3.8903 0.04444-8.1908-1.0612-12.416-2.19-9.4922-35.34-11.738-63.043-19.709-97.622l-3.5 9.662s10.022 62.053 16.812 86.312c-3.8822-0.36809-11.031-1.9688-11.031-1.9688-5.6565-26.174-10.028-43.727-15.353-69.97l-4.8973 6.345c7.0307 21.541 9.7712 40.801 13.312 61.438-4.8293-0.72741-9.6859-1.1911-14.286-3.75 0 0-7.2589-37.641-8.2213-38.191-2.767 2.7872-3.9075 6.375-3.9075 6.375-0.2916-0.33793 6.2972 20.866 5.8265 29.598-4.6221-0.76027-12.637-3.0708-18.286-4.9688-2.9574 1.9669-4.4992 5.2422-6.7712 8.1862 2.7827 11.978 167.89 37.905 157.99 28.001-0.059 1.0351 72.802 31.888 113.47 5.6723 0 0 70.72 52.441 98.347 73.39 0 2.3831 9.5699 13.496 19.531 20.562l28 21.562c8.1363 6.3179 11.389 1.7431 12.625-10.156 1.3764-13.253 11.006-102.58 13.256-121.63 8.4045-64.165 8.3957-63.483-1.3501-60.531-14.9 4.5137-28.312-1.3507-28.312-16.594 0-9.3251 4.3139-17.049 14.25-20.656 2.8202-0.96446 6.4965-1.05 10.719-0.96875 1.9251 0.3477 5.495 0.58383 5.875 0.65625 4.744-0.26721-18.375-42.125-18.375-42.125s22.09-39.366 32.719-54.031l28.594 51.812-23.414 45.703c45.603-3.4229 41.137 53.899-3.5038 34.706 0 0-0.2647 17.028-0.1761 15.779 0.4311-4.8746 0.3631-9.0362 1.9063-9.9514 43.247 16.387 52.062-46.68 5.454-43.772 7.6703-13.369 16.217-27.191 24.186-41.926l-33.696-61.421-38.069 63.321 19.156 39.531c-4.3047-1.118-7.7648-0.4387-12.375 0.03125-28.212 5.7791-22.149 51.179 10.094 44.938 3.6862-0.71355 9.2239-3.5 9.2239-3.5l-20.818 185.45s-2.0525 1.6642-10.406-4.3541c-9.6468-6.95-29.854-22.049-31.143-23.601 7.2219-118.56-22.434-243.3-56.295-321.4-2.1517-5.9914-0.875-123.61-0.875-123.61l192 0.50508 0.7143 546.27c-10.043-6.3554-20.897-14.719-31.219-22-3.0938-2.5032-5.0137-5.4736-3.6876-10.25-3.395 7.2628-1.3446 10.378-1.3446 10.378l42.399 33.872-1.6821 537.6s-68.448-35.272-110.59-52.292c-19.012-7.757-19.862-5.5223-19.862-5.5223 0.061-0.0347 13.436 30.149 9.6167 35.595 9.0588 8.7069 24.286 26.933 25.026 44.771 8.1113 7.0204 10.388 7.895 16.472 18.004l25.432-9.1918-5.7734 26.494c27.043 18.938 1.0029 44.406-4.0058 42.06 0 0 11.932 25.604 14.656 37.259-4.2715-0.29048-25.689-11.905-31.656-14.656-15.519 30.545-41.728 4.9103-41.938 0.40625l-29.072 12.945 10.293-33.089c-18.721-11.386-31.368-28.6-1.0978-47.135l-6.9909-25.813 24.897 9.7779s4.6436-7.4595 8.1763-12.9c-9.3129-40.545-70.54-32.877-90.206-69.344 0 0-4.8311 45.524-9.7812 61.996-1.9325 43.539-32.438-0.504-32.438-46.562 0-10.401 13.074-45.395 17.5-47.094 4.6026-0.6392 48.308 20.487 77.656-0.5 13.362-13.899 36.408-52.994 14.268-114.2-7.3262-14.144 13.928-15.933 20.829-11.16 0 0 63.872-33.405 92.707-49.498-48.369-26.577-148.95-97.288-148.88-100.64-13.414 21.301-28.788 39.164-50.39 69.285-35.023 41.235-62.399 80.424-106.84 113.38-62.505 45.507-77.184 91.314-59.75 145.09 7.0545 23.24 21.257 46.813 44.522 54.969 11.835 11.965 59.377 56.976 59.377 56.976-79.371 72.264-133.86 131.7-172.08 197.37 32.256 16.964 110.05 41.531 110.05 41.531-28.895 96.033-15.74 172.31 3.2992 248.88 0 0-225.83 0.291-343.01-3.3928-1.0028 0.9877-13.684 0.3118-13.853-0.4955-0.4616-8.5622 21.106-32.099 27.562-28.813 3.2468-3.1941 10.109-4.8261 8.875-8.75-16.166-1.928-40.699 26.004-41.67 37.563h-9.6429c-1.9757-1.7248 17.502-47.187 56.531-50.813-0.4079 1.6347 5.2382-3.5337 1-5.75-45.498 5.3926-66.687 55.875-65.344 56.563h-7.0312c15.471-49.646 55.752-65.313 79.062-67.469 0.2247-0.097 7.5617-2.6521 5.5937-7-51.52 8.9458-77.204 31.242-89.589 74.469h-9.2864c6.7027-43.844 51.803-82.252 102.78-81 1.5969-1.0118 3.5495-2.2028 2.7187-7.1876-56.575 6.3746-84.788 25.252-108.03 73.844-20.79-53.963-78.568-79.566-79.256-79.792 0 0-1.3964-15.106 1.8307-14.482 49.292 17.844 68.112-24.954 66.051-49.82-1.1469-13.837-0.3712-21.461-5-41.406-4.1273-17.785-7.18-29.769-6.8527-37.49 0.3241-7.6426 2.7191-9.1882 8.3616-11.746 10.569-4.7913 17.185-22.133 14.835-24.254-5.4298 12.615-19.78 14.79-26.391 23.268-5.2786 6.9813-2.9538 18.098 6.4462 56.695 5.7278 23.519-1.0631 12.705-14.43 5.3412l-8.9286-5.0492c5.9867 6.1551 12.318 11.955 18.42 17.987 5.4596 4.9908 2.4028 8.0791-5.4287 5.1875-11.278-5.628-33.01-3.2714-41.339 3.815-3.2468 2.312-4.3974 2.0728-5.2162-0.061-3.6446-59.944 2.6583-96.818 22.514-141.86 12.837-30.624 31.945-53.553 57.44-55.186 25.686-2.1299 62.616 6.8704 96.158 29.651 39.393 26.754 77.783 67.436 81.862 117.35 0.1579 0.5779 3.0297-4.2673 4.3348-6.8272 1.802-5.9335-4.7733-23.756-15.037-44.416-1.8946-15.538-7.2406-42.782-11.442-61.214 3.1946-1.4539 10-0.6399 11.913 1.6862 7.213 30.471 12.346 54.202 18.531 95.031 0.088 3.9802 5.2036-5.9091 5.2188-8.5312-0.8891-6.0898-17.904-85.976-17.563-84.156 0.1003-2.7161 16.142 0.856 13.938 3.375 0 0 12.198 67.013 13.062 64.937l4.125-5.6874s-11.642-48.942-10.187-58.375c0.9955-1.443 10.018 1.4791 12.875 3.0312 3.5921 4.8152 5.8899 22.276 7.4062 34.188 4.1488 3.168 4.9701-5.9876 4.6562-8.4063-2.9891-4.7415-6.1534-22.433-3.7812-23.344 1.8647-0.7155 12.205 3.389 14.188 5.1563 2.3332 2.0794 11.348-10.4 9.0571-12.559-48.774-18.684-110.31-29.585-156.62-30.321-10.763 0.045-15.033-1.4733-31.536-7.4331-42.028-15.174-76.776-0.058-81.871 4.7378-51.315-35.658-108.6-85.456-154.2-117.23-2.1457-1.4199-7.2591-2.2625-7.8208-2.2627-7.2374 55.317-12.291 119.32-18.46 170.37-2.5084 20.213-2.8047 21.79-1.8795 22.362 0.8031 0.4963 2.3852-0.3106 3.0134-0.6339 15.008-5.5284 28.566-1.929 35.75 11.625 3.6132 19.385-13.342 32.141-31.219 22.938-6.6382-3.4176-7.5907-2.7464-4.5624 3.7187 5.2278 11.638 20.312 42.281 20.312 42.281 0.029 0.01-20.379 41.592-30.687 52.906-10.05-16.233-22.874-32.646-28.438-50.375 7.8972-15.455 22.818-35.358 27.531-50.594-0.6714-0.4883-4.7341-0.068-7.5625 1.4062-26.084 12.338-30.274-10.893-29.926-19.244 0.706-16.977 15.495-20.588 36.972-12.677-23.213-154.23-28.169-242.11-22.238-232.6 0 0-28.04-20.044-41.978-33.643l-1.259-1123.2 335.5 0.50507c34.2 91.689 24.784 201.95 4.3401 259.37 36.312 6.6378 72.989 15.212 114.43 38.999-70.005 102.63-179.9 213.55-298.93 284.56-6.7489 3.0449-28.914-10.779-31.516-24.436-0.6044-3.1721 1.1554-9.4254 4.7241-9.3096 8.7455 2.8378 17.219 6.7361 25.758 10.217 0 0-11.894-29.846-6.1526-34.379 3.7341-2.4529 6.7912-4.5003 9.1848-7.0253 8.5437-11.035 7.8601-23.561-1.1857-33.178-3.6451-3.8168-7.895-6.4502-10.02-7.4216 0 0 8.3906-23.285 12.598-34.262l-33.027 10.925c-10.698-14.825-30.362-26.358-44.894-4.2864-2.7719 5.8844-2.1969 4.9804-22.644-4.065-11.59-5.1272-18.733-7.7541-18.733-7.7541 4.3442 12.941 10.031 25.094 14.998 40.074-22.756 14.506-17.57 38.972 1.5847 46.27l-10.09 33.047s21.514-8.0192 33.178-11.133c0 0 10.227 10.279 13.259 20.041 5.2016 16.747 17.015 28.888 24.485 35.802-12.445 9.1205-18.591 12.192-32.606 18.929l48.379 19.544c-3.0055-10.226-9.4162-17.818-10.061-30.753-0.5739-11.081-1.2045-11.285-8.3687-18.785-11.719-10.107-13.483-23.631-20.063-34.672-4.5909-2.7723-8.2543-8.3272-11.676-14.606-7.3625 0.69743-23.993 8.9636-27.142 6.0011-3.8598-4.1186 6.6982-25.223 5.5262-27.329-8.4905-0.72672-32.281-19.266-3.9474-39.919l-9.0391-33.589s21.57 9.4256 31.907 14.703c7.1816-33.562 39.925-17.467 45.22-2.9995 0 0 25.957-8.5326 24.349-1.6083-0.7237 6.2166-4.9387 21.727-4.9387 21.727 23.338 20.663 18.509 30.807-0.451 44.358-0.2899 10.954 4.3087 27.983 4.3087 27.983s-13.203-5.8637-21.902-8.3265c-3.4806 3.4806-7.4325 9.7704-6.7723 13.009 5.9008 26.118 38.108 33.39 85.83 60.085 1.6367-16.874 13.28-39.939 14.598-60.188 0.8197-14.766 1.327-14.999 11.719-10.281 27.344 19.748 18.999 74.018 9.0313 96.281-5.9018 12.605-6.8697 12.28-18.344 8.625-15.889-5.0614-43.982-3.0218-59.438 2.2188-21.371 8.7525-31.455 56.422-31.687 70.906-0.3757 13.758 0.6859 27.407 7.9062 44.406 2.9915 10.876-2.5053 19.258-12.312 16.344-2.2-0.6537-7.4375-2.6562-7.4375-2.6562l-92.25 47.719 17.379 10.223s-12.811-7.6463-4.8717-11.79l79.092-41.275c14.74 5.749 12.764 6.9223 22.318-3.0325 5.7175-5.8884 8.5248-6.0047 16.184-5.2698 46.632 4.4745 67.287-2.3152 75.349-21.856 1.2098-2.9327 0.7481-2.8306 5.511-5.2348 8.822-3.4291 12.97-9.6348 13.419-17.424 0.2942-5.1047 2.5096-5.8018 6.396-9.3699 7.255-6.6607 8.7249-15.012 4.1563-23.594-2.15-4.0386-3.795-5.3116-2.9012-9.5025 1.4971-7.0185-1.0985-14.328-7.8437-22.062-7.7638-8.902-7.7123-7.3966 6.9063-21.013 28.716-27.297 54.022-48.192 81.955-72.89 19.104-16.896 17.041-15.687 24.477-7.9561 27.375 28.46 38.113 72.837 25.786 111.86-0.5788 1.8326-0.8385 1.6239 0.5937 0 7.7414-8.7772 7.9603-52.947 1.3438-72.531-8.0644-24.068-15.881-36.6-42.558-60.165-16.654-15.04-61.978-58.451-61.978-58.451 65.8-57.32 136.8-128.39 176.7-193.74-20.5-21.914-115.2-42.123-115.2-42.123 11.8-24.465 35.1-134.38-4.8-256.24l340.38 3.9324 12.106 0.81979s1.8245-0.69766 2.795-0.95145c3.2612-0.85281 4.8887 1.4454 4.0995 5.0938-2.505 9.3001-16.156 31.076-25.787 29.277-4.2929-1.6664-3.0827 6.5872-5.0076 10.022 15.183-1.967 32.987-21.203 37.445-40.268 2.4447-4.0041 4.0327-4.6794 6.4688-3.9062 2.8057 0.8905 2.1037 3.5619-0.935 12.781-9.5071 23.062-28.785 44.492-51.19 42.351l-2.9062 7.8674c30.232-0.4884 53.607-28.831 60.513-50.031 4.8246-12.603 5.0131-14.311 9.8623-13.094 4.0078 3.7093 1.5294 9.0371 0.1629 13.422-15.196 48.556-56.941 61.532-77.726 59.422-2.5036-0.31239-2.9448 2.0352-2.1874 6.0312 44.656 2.947 80.221-35.521 85.25-68.531 2.4468-9.1672 6.6925-12.296 9.1402-8.1082 1.3807 3.6962 0.9214 7.4673 0.2429 10.987-12.204 52.109-67.751 81.698-101.7 73.246-1.5698-1.4663-4.1271 5.736-0.4323 8.3066 68.521-2.585 89.676-37.943 105.31-69.182 18.642 28.119 33.885 57.117 78.558 74.154 0 0 4.4549 9.8131 0.9424 12.013-1.8516 1.1597-4.68 0.62037-8.782-0.0421-54.453-8.7939-72.459 42.098-49.281 118.12 6.3463 20.817 3.5037 17.629-10.063 30.656-6.4655 6.2086-9.5427 17.215-7.8437 17.469 2.3243-1.3079 3.0911-4.8734 8.75-9.5625 2.4641-2.0418 7.5193-3.9908 11.25-6.5625 10.072-5.841 9.9831-9.838 6.3661-23.647-2.6895-10.268-9.5347-41.496-9.5447-44.665-0.017-5.984 1.3993-5.353 8.8872 0.0089 10.45 7.7482 16.375 7.1933 3.7302-2.7314-4.8966-3.8472-8.0798-6.8424-9.5589-8.9987-2.0123-2.9337-0.7664-4.8294 3.3125-3.5509 18.762 5.881 34.873 5.4534 53.084-5.6296 2.082 50.152-4.8194 126.24-46.839 180.65-32.236 36.2-93.951 8.8082-116.78-2.625zm49.375-115.25c-1.2521 0.05736-5.7492 0.98745-8.5313 2.5804-12.378 7.0871-9.4242 32.228 4.0849 35.576 5.4315 1.3462 10.364 2.0848 19.496-2.2723 5.4377-2.5948 13.051-4.6247 15.188-3.7321 4.4866 1.8743 5.9046-2.0903 6.8615-6.558 2.1411-9.9947-14.25-10.233-27.294 0.098214-16.459 13.036-29.074-6.202-13.567-20.688 5.1702-3.3382 5.0153-5.0618 3.7634-5.0045zm-127.85 53.796 13.823 15.975 8.6858 38.073c-5.2688 0.89568-11.656-2.0312-11.656-2.0312-4.3109-17.223-8.5229-34.463-10.853-52.016zm188.26 9.579c-0.1409 0.01719-0.3049 0.05303-0.4688 0.125-0.5822 0.25588-3.1581 1.4163-6.7187 1.8125-2.0548 0.22864-5.1612-1.231-7.375-1.0938-6.05 0.37516-11.706 2.1567-13.219 2.7812-1.8623 0.76884-3.6933 1.0921-5.2813 0.15625-4.5129-2.6595-17.661-1.9084-21.656 0.4375-4.733 2.0125-10.054 2.0395-13.937 0.03125-1.674-0.86555-3.3869-3.0506-3.6876-2.75-0.6184 0.61849-3.1451 11.395-3.9062 15.562 0.021 1.4665-1.0131 3.9087-0.4062 4.1562 0.771 0.31457 3.2501-1.9377 6.3124-3.5 6.2783-3.2028 13.298-2.9558 25.625 0.0625 15.215 3.7252 21.14 2.6453 30.125-1.9375 7.1518-3.6479 11.497-4.5239 16.25-3.2188 1.1726 0.32196 4.2921 1.942 4.7188 1.5312 0.8393-0.80791-1.4632-5.3182-3.4375-9.7812-1.4283-3.229-1.9514-4.4953-2.9375-4.375zm-164.17 17.181c13.364 12.661 12.36 11.576 20.796 17.839l-0.4087 12.199s-10.336 0.23161-15.406-1.3438c-1.6016-4.7465-8.5534-28.571-4.9814-28.694zm109.94 8.197c0.9034 0.62184 2.2204 1.2763 4.0316 1.8942 21.281 7.9783-0.9775 5.967-3.0982 13.567-0.0001 0.68358 0.9707 0.79114 2.0179 0.37946 7.2996-2.8698 25.138-4.7255 33.25-3.1562 10.528 3.5527 11.187 1.098 1.0624-4.1875-7.408-2.9171 1.5751-4.9031 4.5983-7.4554 6.2791-4.0398 1.9594-5.7046-6.0357-1.8705-8.0044 3.8385-22.254 3.7768-28.75 0.13839-2.8758-1.4589-5.6736-2.8181-7-2.9018-2.7218-0.1097-1.2753 2.7354-0.076 3.5924zm-83.757 13.668 12.452 9.7352-12.734-1.2238zm-282 244.62c-2.515 0-4.5626 2.0476-4.5626 4.5625 0.0002 2.5149 2.0476 4.5625 4.5626 4.5625 2.5148 0 4.5626-2.0476 4.5624-4.5625 0-2.5149-2.0476-4.5625-4.5624-4.5625zm16.623 4.6046-57.116 27.116 15.094 5.0536-0.1205 15.625 13.902-4.433 5.8929 14.594zm2.5319 12.769c-2.5149 0-4.5625 2.0476-4.5625 4.5625s2.0476 4.5625 4.5625 4.5625 4.5625-2.0476 4.5625-4.5625-2.0476-4.5625-4.5625-4.5625zm-72.413 27.749c-2.515 0-4.5626 2.0164-4.5626 4.5312 0.0002 2.5149 2.0476 4.5625 4.5626 4.5625 2.5148 0 4.5626-2.0476 4.5624-4.5625 0-2.5149-2.0476-4.5312-4.5624-4.5312zm17.555 8.4866-64.116 29.451 19.004 5.7768-5.0223 19.567 15.482-6.5 8.6428 13.134zm1.8878 14.017c-2.5148 0-4.5626 2.0476-4.5624 4.5625 0 2.5149 2.0476 4.5625 4.5624 4.5625 2.515 0 4.5313-2.0476 4.5313-4.5625s-2.0163-4.5625-4.5313-4.5625zm-127.21 2.9337c24.108-0.0312 51.148 9.1423 60.375 29.781 2.4557 10.318-7.6868 16.462-29.344 10.524-35.801-9.8169-42.481-10.921-36.531-4.8361 0.7838 0.80168 2.3602 2.7674 7.7187 4.5938 13.484 4.5957 39.585 9.9125 46.625 9.1875 9.6199-1.2761 16.277 3.2014 13.875 11.219-2.7284 9.1067-15.219 12.833-34 10.188-19.451-2.7399-30.159-4.982-36.625-6.9375-8.2975-2.5096-8.5881-2.2947-4.6562 3.5312 2.0474 3.0337 2.2479 5.4622 5.2812 6.0312 12.844-0.72494 26.52 1.7328 38.313 2.8438 21.17 1.8944 24.482 7.895 8.9374 17.062-7.3692 4.3459-29.411 3.1552-41.937-1.3539-8.9525-3.2226-29.476-7.8288-21.563-1.5836 1.9012 1.5004 1.2496 5.185 4.5626 6.3438 10.855 1.4972 41.542 3.6473 46.339 7.989 3.0899 2.7963-3.8686 9.8962-18.196 13.602-21.565 4.0862-53.812 2.3804-62.331-3.4348-15.768-32.114-7.2816-84.673 17.406-105.22 7.8781-6.1625 21.285-9.5125 35.75-9.5312zm141.37 16.749c-2.5149 0-4.5313 2.0476-4.5313 4.5625 0.0002 2.5149 2.0164 4.5312 4.5313 4.5312s4.5625-2.0164 4.5625-4.5312c0-2.5149-2.0476-4.5625-4.5625-4.5625zm19.043 4.8673-66.201 32.969 16.746 4.9732-3.9688 19.263 15.515-6.3927 9.3953 12.96zm0.5135 16.134c-2.5149 0-4.5625 2.0476-4.5625 4.5625s2.0476 4.5625 4.5625 4.5625 4.5625-2.0476 4.5625-4.5625-2.0476-4.5625-4.5625-4.5625zm38.5 38.875c-29.359 28.569-62.441 51.201-92.662 78.946l6.5456-0.26369 16.467-14.851 463.75-1.4561-10.834 15.816 4.5583 1.9561s13.907-20.562 12.963-21.506c-101.89 0.29152-180.54 0.0562-292.31 0.82773-20.37-20.176-41.89-39.082-63.188-58.25zm-140.96 18.32c-2.5148 0-4.5626 2.0476-4.5624 4.5625 0 2.5149 2.0476 4.5625 4.5624 4.5625 2.515 0 4.5313-2.0476 4.5313-4.5625s-2.0163-4.5625-4.5313-4.5625zm605.44 3.4873c40.059 29.73 87.524 66.191 126.91 87.835 15.775 6.8523 14.248 9.1892-1.7812 16.763-15.755 9.7942-41.976 22.412-63.844 33.438-9.4764 3.5807-13.618-1.0855-20.344 0.15625-4.8496 1.2358-6.235 2.1478-9.125 5.9688-4.7391 6.2661-3.4466 6.0494-28.781 4.9062-25.56-1.1535-36.099-0.58335-41.594 2.2188-5.2837 2.6943-14.348 11.901-14.348 15.719-0.0001 3.6746-2.8878 8.3884-8.1519 9.9688-6.1315 1.4889-13.206 6.3431-12.906 13.875-1.6395 5.6708-5.108 8.1831-8.1875 11.29-7.285 7.3501-6.5579 13.131-4.4508 19.955 0.9748 3.0593 2.4589 2.3464 1.7027 11.389-1.7323 20.713-3.1589 18.966 19.001 34.295l-113.22 98.652c-2.6236 2.065-3.3967 1.8595-5.7825 0.21704-13.805-10.251-23.415-27.194-28.952-44.143-19.125-52.69 4.228-95.974 35.268-122.46 10.755-9.1778 25.204-20.12 29.223-22.871 58.453-49.851 109.29-120.45 149.36-177.17zm-588.54 3.8572-64.724 30.56 20.846 3.5117-3.9892 18.01 15.099-5.7224 7.9907 15.18zm3.9581 14.282c-2.5149 0-4.5625 2.0476-4.5625 4.5625s2.0476 4.5312 4.5625 4.5312 4.5313-2.0164 4.5313-4.5312c-0.0002-2.5149-2.0164-4.5625-4.5313-4.5625zm593.06 20.039-7.348-17.376s-20.445 50.356-24.77 67.421c17.321-8.927 68.061-34.757 68.061-34.757l-21.712-4.0286 2.453-19.721zm-739.32 3.1079c-2.5149 0-4.5625 2.0476-4.5625 4.5625s2.0476 4.5625 4.5625 4.5625 4.5625-2.0476 4.5625-4.5625-2.0476-4.5625-4.5625-4.5625zm19.824 4.157s-48.164 22.599-69.901 32.351l20.297 4.2524-3.5653 19.736 18.319-7.1452 7.3878 19.505zm2.5755 14.907c-2.5148 0-4.5626 2.0476-4.5624 4.5625 0 2.5149 2.0476 4.5312 4.5624 4.5312 2.515 0 4.5626-2.0164 4.5626-4.5312-0.0002-2.5149-2.0476-4.5625-4.5626-4.5625zm681.54 3.28c-2.5149 0-4.5625 2.0164-4.5625 4.5312 0 2.5149 2.0476 4.5625 4.5625 4.5625s4.5313-2.0476 4.5313-4.5625c-0.0001-2.5149-2.0164-4.5312-4.5313-4.5312zm78.745 4.1232-22.924 63.704 61.993-31.21-16.829-4.5963 0.087-15.759-13.845 4.0314zm-732.66 15.314c-2.5148 0-4.5626 2.0476-4.5624 4.5625 0 2.5149 2.0476 4.5625 4.5624 4.5625 2.515 0 4.5626-2.0476 4.5626-4.5625-0.0002-2.5149-2.0476-4.5625-4.5626-4.5625zm678.06 1.1588c-2.5149 0-4.5313 2.0476-4.5313 4.5625s2.0164 4.5312 4.5313 4.5312c2.5148 0 4.5625-2.0164 4.5624-4.5312 0-2.5149-2.0476-4.5625-4.5624-4.5625zm-659.05 4.6697-65.691 32.045 20.388 4.777-2.2375 20.509 16.577-9.4124 8.9993 18.703zm4.1055 13.549c-2.5148 0-4.3101 2.0476-4.3099 4.5625 0 2.5149 2.0476 4.5312 4.5624 4.5312 2.515 0 4.5313-2.0164 4.5313-4.5312 0-2.5149-2.2688-4.5625-4.7838-4.5625zm683.11 4.0287c-2.5149 0-4.5625 2.0476-4.5625 4.5625s2.0476 4.5312 4.5625 4.5312 4.5625-2.0164 4.5625-4.5312c0-2.5149-2.0476-4.5625-4.5625-4.5625zm-90.52 20.953-6.1043-17.149-24.303 62.888 65.358-29.939-20.74-4.8656 0.3676-16.422zm-66.404-13.539c-0.7474-0.0403-1.4064 0.1673-1.4062 0.65625-0.0001 1.453-16.701 17.773-16.701 17.773l-192.91 1.7812c0.3966 0.0283 16.056 4.3615 16.056 4.3615 25.306 20.218 64.961 56.079 64.961 56.079l47.889-1.9088c26.519-26.035 66.368-45.833 84.138-77.992-0.4336-0.43364-1.2838-0.70972-2.0312-0.75zm180.82 12.964c-2.5148 0-4.5625 2.0476-4.5624 4.5625 0 2.5149 2.0476 4.5312 4.5624 4.5312 2.5149 0 4.5313-2.0164 4.5313-4.5312 0-2.5149-2.0164-4.5625-4.5313-4.5625zm-148.91 21.956c-2.5149 0-4.5313 2.0164-4.5313 4.5312 0 2.5149 2.0164 4.5625 4.5313 4.5625 2.5148 0 4.5625-2.0476 4.5624-4.5625 0-2.5149-2.0476-4.5312-4.5624-4.5312zm97.928 6.5848c13.826-0.0701 27.146 0.40547 30.594 3.0357 21.371 17.994 11.242 102.11-15.696 112.73-29.562 6.6533-50.008 7.8867-75.666-9.0369-7.2764-3.5452-21.715-14.269-18.897-23.119 3.8423-10.879 14.412-10.087 44.719-0.65625 11.062 3.442 17.144 2.7486 19.969 0.59375 2.6369-2.0118-0.8156-4.2603-6.4687-4.2812-2.2772-0.008-12.077-2.4247-20.25-4.9375-11.538-3.5474-14.854-4.5896-22.313-5.0312-12.542-0.7425-16.187-1.2344-16.187-8.9062-0.0001-14.326 19.923-16.222 56.594-7.8125 4.3853 1.0057 12.33 2.1204 14.281 2.0625 1.414 0.53919-2.7931-4.7465-3.5-7.9062-1.3242-1.1283-3.6936-1.6637-9.9376-1.875-23.582-2.3131-43.156-3.9117-43.58-7-2.083-15.165 28.419-19.292 60.049-7.125 8.1208 3.1238 8.2817 1.8308 8.2188-0.53125-0.1169-4.3693-13.711-11.999-33.763-11.79-19.505 0.20336-16.784-9.7087-0.75-17.156 5.4805-2.5456 18.758-1.1888 32.585-1.2589zm-75.428 16.254c-2.5149 0-4.5313 2.0476-4.5313 4.5625s2.0164 4.5625 4.5313 4.5625c2.5148 0 4.5625-2.0476 4.5624-4.5625 0-2.5149-2.0476-4.5625-4.5624-4.5625zm-70.281 31.473-4.125-16.996-26.54 66.129 67.031-34.134-22.103-4.1518 1.9374-13.915zm-34.156 26.554c-2.5148 0-4.5625 2.0476-4.5624 4.5625 0 2.5149 2.0476 4.5625 4.5624 4.5625 2.5149 0 4.5313-2.0476 4.5313-4.5625s-2.0164-4.5625-4.5313-4.5625zm66.781 18.759-5.6429-16.067-22.54 57.562 57.196-25.549-16.893-4.6116 2.4017-17.442zm-45.531 0.16964c-2.5148 0-4.5625 2.0476-4.5624 4.5625 0 2.5149 2.0476 4.5625 4.5624 4.5625 2.5149 0 4.5313-2.0476 4.5313-4.5625s-2.0164-4.5625-4.5313-4.5625zm14.643 21.987c-2.5148 0-4.5625 2.0164-4.5624 4.5312 0 2.5149 2.0476 4.5625 4.5624 4.5625 2.5149 0 4.5313-2.0476 4.5313-4.5625s-2.0164-4.5312-4.5313-4.5312zm-28.746 13.478-19.304 54.522 53.745-26.018-15.705-5.1741s0.8641-12.26-0.6162-11.692c-0.9376 0.3598-11.054 3.183-11.054 3.183zm47.839 6.5223c-2.5149 0-4.5625 2.0164-4.5625 4.5312 0 2.5149 2.0476 4.5625 4.5625 4.5625s4.5625-2.0476 4.5625-4.5625-2.0476-4.5312-4.5625-4.5312zm-71.254 26.228c-2.5148 0-4.5625 2.0476-4.5624 4.5625 0 2.5149 2.0476 4.5625 4.5624 4.5625 2.5149 0 4.5626-2.0476 4.5626-4.5625-0.0001-2.5149-2.0477-4.5625-4.5626-4.5625zm20.545 21.094c-2.5149 0-4.5626 2.0164-4.5626 4.5312 0.0001 2.5149 2.0477 4.5625 4.5626 4.5625 2.5148 0 4.5625-2.0476 4.5624-4.5625 0-2.5149-2.0476-4.5312-4.5624-4.5312zm-283.48 251.1c-2.4641 0.3664-8.8607-5.4807-10.105-8.2264 3.6477-0.9259 7.4097-0.243 9.4518 1.4668 1.6878 1.6006 2.8819 5.7084 0.6534 6.7596zm19.458-3.9413c-0.8666 6.6618 3.2572 18.705 2.4738 21.565-2.1123 1.0366-12.804-10.432-15.437-13.219-0.5513-3.8072 0.039-8.6372 0.2543-10.823 3.6746-0.6504 10.189-0.4063 12.709 2.4764zm19.255 3.315c2.2791 14.762 8.7771 38.493 7.7627 46.496-0.9628-0.7689-9.206-8.8954-15.293-17.516-2.1419-5.1609-5.4747-23.129-5.1887-31.73 4.1041-0.5629 9.6122 0.095 12.719 2.75zm-128.98-1.6607c-6.5737 3.3526-14.051 5.7666-23.433 5.7276-7.5257-0.031-20.486-3.9327-19.174-2.9731 3.4275 6.1276 12.376 2.9155 12.549 6.9151-2.2264 3.9555-8.1733 3.5817-11.134 7.3706-0.6207 1.0044 0.8763 1.8536 5.0658 1.4124 12.712-5.765 29.32-5.6589 44.515-0.6669 3.1968 0.6682 1.0981-2.3923 0.012-3.2032-1.9731-1.4483-5.2347-2.9684-7.9804-3.2968-13.278-2.359-7.4458-3.6963 1.4375-7.6652 6.5185-2.3827 8.1571-8.2448-1.8575-3.6205zm28.763 18.754c-1.7645 0.1381-6.1868 2.3849-11.031 4.3437-8.1773 3.3064-15.745 2.5328-26.75-0.5313-9.5577-2.6611-13.04-1.9203-22.554 2.8706-6.3122 4.046-13.225 5.1756-18.228 2.3482-6.4801-3.6845-6.4376-2.4225-3.2263 6.6862 0.8021 2.2752-0.7842 9.1611 2.0389 10.751 2.145 1.2083 4.6218-2.8159 6.2812-3.375s12.088 4.1187 17.906-1.0313c10.38-3.7644 13.498 2.3405 20.688 1.75 11.671-4.114 18.972-8.4034 28.996-0.4573 0.5974-2.976 2.9283-19.224 6.66-23.074-0.096-0.2227-0.3741-0.3132-0.7812-0.2812zm-21.259 46.782c-8.3992 0.1-12.946 5.2586-23.776 4.2723-8.6491-0.6058-11.611 7.0634-7.947 12.655 2.58 3.9376 6.0353 4.6635 17.826-0.7411 4.8496-2.223 11.591-7.1125 15.531-6.7187 11.533 1.1527 14.322 12.299 4.7187 21.719-4.6728 2.7505-4.7167 5.731-3.2902 5.7857 3.7968 0.1456 11.483-4.3905 13.228-9.6768 4.7807-14.479-3.8118-27.555-16.29-27.295zm37.678 66.713c-10.926 2.3009-26.677 14.843-32.031 22.964-5.0079 7.9116-9.8043 16.857-6.3035 21.277 2.8689 3.6223 6.8835 7.1437 7.2276 9.1071 0.3006 1.7149-2.0427 3.417-4.2366 5.8706-9.5967 10.732-7.312 11.32 6.1429 4.3526 6.8162-3.5298 9.9874-4.9467 14.438-3.7857 12.969 3.3834 29.115 0.9711 40.094-3.0625 4.9601-1.8224 9.8135-4.2915 10.187-3.0313-20.037 22.047-45.018 16.498-53.937 15.156-1.5526-0.4047-2.7543-0.3098-2.75 0.2187-0.0001 1.0727 2.5846 3.3993 8.0937 5.8438 9.2071 4.0854 31.325-0.2585 45.156-10.344 27.349-17.892 42.425-34.987 20.875-27.844-9.8858 3.2767-13.59 2.7035-25.594-2.7187-17.993-8.1279-31.78-10.512-46.688-5.3126-18.881 6.5847-4.3997-8.979 16.844-22.469 4.6021-2.9269 5.1769-6.2738 2.4821-6.2232zm-101.85 46.506-6.2964 0.094c-4.5046-15.166-15.387-15.136-20.099 0.095l-5.2602-0.3724c5.1552-18.906 24.617-22.799 31.656 0.1835zm112 1.2525-4.7301 0.2149c-2.8676-9.1856-12.981-17.268-20.104-2.2136l-3.2826-0.6755c5.8228-24.046 29.041-10.67 28.117 2.6742zm-31.544-13.816c2.9457 0 3.6926 3.3464 0.3438 8.7813-2.3586 3.8276-5.1587 3.4806-7.9688 0.5937-2.5372-2.5372-2.3837-2.9872 0.375-5.5 2.9393-2.677 5.4826-3.8758 7.25-3.875zm34.844 0.094c1.2794-0.039 3.7148 1.0151 6.4464 1.9375 7.1788 2.4243 8.8084 4.4328 5.866 7.375-2.8896 2.8898-8.3752 3.7619-10.906 2.1206-0.1159-3.6138-3.6928-6.3952-3.8169-10.022 0.01-0.9732 1.1311-1.3716 2.4107-1.4107zm-112.47 0.125c4.9774-0.2277 11.652 2.7177 11.165 5.5938-0.5317 3.1385-5.4424 5.1955-9.4902 5.5344-2.7102 0.3531-2.601-0.7425-3.3115-2.6697-0.6338-1.7177-1.4509-3.9105-1.9136-5.6256-1.1165-3.3 1.0052-2.7366 3.5501-2.8329zm-34.04 1.091s-2.7882 8.2982-4.0351 11.128c-10.416-0.5588-9.4304-5.1506-4.5119-8.4698 2.6456-2.0136 5.3228-2.0535 8.547-2.6577zm-8.0849 19.722c1.8842 0.034 4.2253 1.6641 7.5 2.7187 9.2233 2.971 24.548 2.6345 36.5-0.125 5.723-1.3212 8.4319-3.0958 9.6875-2.1874 2.2405 1.6208-0.078 7.2732-8.3437 10.906-10.766 3.9708-27.187 6.1249-39.625-0.2188-10.639-5.4259-11.822-11.202-5.7188-11.094zm-2.8438 11.875c9.7556 6.4437 19.521 8.4765 31.589 7.3571 18.072-0.6616 21.292-2.8897 6.067 5.1742-14.069 7.4515-35.76 6.079-39.938-2-2.3935-4.6287-0.8474-10.143 2.2812-10.531zm87.563 10.812c-0.065 0-0.1126 0.011-0.1563 0.031 1.4582 9.7494 17.829 18.673 25.688 20.781 16.672 7.3952 43.175 0.073 63.125-8.5313 14.568-6.2831 19.823-15.765 2.4688-10.375-27.922 8.6724-62.973 9.3274-80.526 2.5938-5.7082-2.7054-9.6206-4.5424-10.599-4.5zm-91.884 36.513c34.942 7.8836 77.175 61.77 77.019 85.33h-11.286c-17.18-59.936-61.796-72.906-66.158-76.485-1.9991-7.354 0.5084-9.0243 0.4247-8.8458zm-0.5536 15.179c41.526 18.188 56.295 50.642 62.515 70.151h-12.14c-9.0449-26.843-25.305-45.989-50.469-57.906-1.7062-3.7376 0.094-12.245 0.094-12.245zm-0.062 18.37c21.28 6.2745 40.044 34.287 45.375 51.781l-10.625-0.063c-7.5299-19.521-18.201-32.041-35.156-39.25-0.7011-3.6782-0.5592-7.8381 0.4063-12.469zm-0.3438 19.031c9.9917 2.0117 26.91 17.54 29.344 32.75h-9.75c-3.4392-10.252-14.068-19.619-19.517-23.44-0.016-1.8621-0.077-9.3104-0.077-9.3104zm1.0274 16.237c1.0719-0.67 15.988 12.764 13.473 16.513h-13.438c-0.1539-4.1747-0.2499-16.556-0.035-16.513z" transform="matrix(.99994 -.011102 .011102 .99994 -7446.5 -205.05)" fill="#131f67"/>
     <path d="m6452.9-269.09c-25.3 49.05-155.2 269.97-156.6 277.66l33.281 14.718 161.56-291.25s-33.479-1.0889-38.25-1.125zm381.47 184.5-15.094 21.219 12.844 23.281 13.031-23.031zm-593.6 221.65s-46.598 46.295-64.807 67.888c39.144 39.054 113.96 88.093 114.51 163.55l51.583 0.19636 166.97 149.34s151.2 1.101 154.02 0.44638c3.045-0.7076 56.765-77.606 56.765-77.606l95.812 69.852s-4.5952-75.231-8.2154-121.33c-1.1855-30.833-2.2048-49.797 20.332-63.443-30.969-14.761-29.009-41.897-6.2373-61.825-7.5138-10.386-18.739-12.305-20.427-49.13-4.7402-5.0821-9.2283-8.0615-15.156-12.375l-6.1876 5.5312c-19.88 17.847-33.425 36.053-35.656 47.906-4.2461 22.56 18.663 38.013 31.906 21.531 3.7329-4.6447 7.0619-3.344 7.0626 2.7188 0 12.301-15.474 19.247-28.563 12.844-3.0584-1.4964-5.7588-2.491-6.0312-2.2188-0.4738 0.47388 12.988 33.446 16.625 40.719 6.0503 12.099 9.2197 24.251 9.6875 36.969 0.4996 13.58 0.2267 15.318-6.125 38.781-5.9841 22.105-3.1652 35.25 7.5313 35.25 6.0223 0 5.8335 5.7855-0.25 7.9062-12.93 4.507-20.951-5.0214-21.406-25.375-0.2767-12.37-0.4899-12.674-6.8437-9.6875-22.11 10.392-46.123-8.1846-35.719-27.625 2.1859-4.0844 4.7687-2.7965 6.125 3.0312 2.545 10.935 8.274 15.758 18.625 15.719 23.862-0.0894 33.855-33.803 20.094-67.75-2.7628-6.8135-4.1536-6.4256-7.7813 2.1875-5.6914 13.513-15.228 17.49-23.094 9.625-2.6368-2.6361-3.9128-6.9142-2.125-7.125 0.4124-0.0487 3.0381-0.1611 5.8124-0.25 13.902-0.44546 18.703-13.932 12.188-34.219-5.7256-17.825-6.6081-21.056-8.3126-30.719-2.6327-14.93-0.7964-26.264 6.5938-40.75 1.3056-2.5591 9.458-11.669 19.594-21.906 10.348-10.452 19.25-18.469 19.25-18.469s-5.2339-4.512-12.331-9.8438c-14.95-11.231-17.594-13.165-17.594-13.165s-71.051 195.09-66.018 271.1c-9.0152 100.15-82.641 72.442-88.061 3.0837zm-3.1697 29.25c24.284-0.40338 40.294 31.71 49.438 98.344 3.0298 22.081 16.487 53.005 26.25 60.312 24.634 18.441 63.188 4.2296 63.219-23.312 0.038-34.287-48.103-39.369-48.844-5.1562-0.1749 8.064-4.3143 8.4838-8.2813 0.8125-3.5387-6.8433-0.3517-19.634 6.5313-26.094 4.4107-4.14 4.0656-4.9204-4.3438-9.5625-29.287-16.167-41.746-40.276-26.094-50.531 6.8448-4.4844 16.199 1.1853 11.906 7.2188-6.7087 9.4283-6.7938 10.921-1.1875 18.75 6.3719 8.8983 13.926 13.339 31.844 18.625 15.044 4.4383 17.518 5.27 24.469 8.4375 20.342 9.2702 29.632 29.681 22.531 49.5-1.6758 4.675-3.3027 9.2875-3.625 10.25-0.7289 2.1745 0.4655 2.187 14.781 0.28125 22.782-3.0329 48.092 5.1056 60.562 19.469 6.7031 7.7205 12.08 25.077 12.25 39.562 0.033 2.7888 0.8914 9.0888 1.9375 14 1.046 4.9112 2.4342 13.212 3.0625 18.438 5.9608 49.57 47.23 74.923 65.062 39.969 11.222-21.997-14.729-44.001-27.938-23.688-4.6394 7.1348-9.4228 3.8541-6.75-4.625 5.1939-16.477 25.769-19.279 39.781-5.4062 7.5762 7.5016 11.21 24.517 7.5312 35.312-1.9305 5.6657-1.7277 6.0251 2.4688 4.5625 9.4159-3.2824 25.692-0.12292 31.531 6.125 13.76 14.722 11.001 32.396-5.9375 38.125-7.7029 2.5797-16.427-0.10168-19.281-9.125-1.2527-6.4323 3.1744-8.2828 6.5938-2.75 6.4053 10.364 20.355 2.01 17.062-10.219-3.7464-13.913-15.639-16.867-37.594-9.3125-34.9 12.009-46.167 11.007-62.875-5.5938-11.928-11.851-16.414-22.089-19.625-44.688-3.5468-24.953-3.8855-25.599-10.063-20.344-29.535 25.129-68.553-12.846-43.531-37.812 7.736-7.736 13.431-0.99595 6.4688 7.6562-10.165 12.63 3.0865 30.222 19.687 26.125 30.23-7.4598 24.059-51.697-8.6562-62.031-9.9723-3.15-37.367-1.8437-58.438 2.7812-58.837 12.915-84.831-12.198-96.938-93.562-1.4146-9.5063-3.07-16.532-8.6562-37-6.6277-24.282-29.168-37.463-41.469-24.25-9.8071 10.535-4.65 24.716 9 24.75 13.607 0.0341 9.4367 9.364-4.75 10.625-24.619 2.1883-28.901-38.791-5.2812-50.531 5.7657-2.866 11.148-4.3538 16.187-4.4375zm-321.29 15.126 7.6323 29.16 30.422 8.5944-9.646-27.748zm78.043 8.7046-8.1695 26.388 23.062-5.6562 7.5223-27.522zm250.25 43.201c4.8332 0 8.75 3.9175 8.75 8.75 0.0008 4.8325-3.9168 8.75-8.75 8.75-4.8324 0-8.7492-3.9175-8.75-8.75 0-4.8325 3.9176-8.75 8.75-8.75zm-293.26 15.746-23.991 8.3928-4.6161 20.92 25.105-6.4682zm57.228 6.6116-19.594-3.3795 5.5089 21.598 20.754 8.4822zm850.75-1.6541-12.603 9.8049c36.736 31.931-2.9165 62.702-4.1488 60.617 26.558 17.578 21.826 45.305 18.381 70.688-6.2866 45.287-8.7359 88.122-15.594 134.53 0 0 31.997 22.078 53.28 30.624 0.4015 0.0502 0.1263-272.31 0.1263-272.31zm-453.34 41.016c4.8331 0 8.75 3.9175 8.75 8.75 0.0007 4.8325-3.9169 8.75-8.75 8.75-4.8324 0-8.7493-3.9175-8.75-8.75 0-4.8325 3.9176-8.75 8.75-8.75zm-537.14 22.394 1.097 254.15 52.61-94.071-36.196-41.753 31.285-33.403zm512.26 38.731c4.833 0 8.75 3.9175 8.75 8.75 0.0006 4.8325-3.917 8.75-8.75 8.75-4.8324 0-8.7494-3.9175-8.75-8.75 0-4.8325 3.9176-8.75 8.75-8.75zm119.44 26c4.8324 0 8.7495 3.9175 8.75 8.75 0 4.8325-3.9176 8.75-8.75 8.75-4.8329 0-8.75-3.9175-8.75-8.75-0.0005-4.8325 3.9171-8.75 8.75-8.75zm342.12 283.12 38.644 39.662-30.185 37.584 47.528 80.649-0.7657-249.53zm-974.31-83.467 1.8348 273.35 41.321 30.143 10.479-9.8954c-26.665-28.476-10.738-49.659 9.3647-61.916-35.463-8.257-24.697-55.29-22.58-77.086-0.867-40.465 13.964-86.636 9.3972-125.54zm237.99 37.996-59.223 82.513s-65.076-49.291-97.888-71.529c3.5116 35.607 6.7121 81.031 11.066 119.33 10.642 55.924-17.062 56.889-17.317 62.244 44.034 33.415 7.0759 64.666 0.4509 63.096 23.449 12.768 21.518 51.558 21.518 51.558l11.12 6.2902s3.6208-2.205 5.1562-3.0312c11.892-6.3982 31.279-29.203 35.719-44.25 7.5286-25.513-14.629-46.707-28.562-27.312-6.8452 9.5273-12.329 3.1558-6.7187-7.8125 5.1197-10.011 18.489-15.037 27.375-10.281 5.1681 2.7659 4.0114-4.4102-3.9688-24.5-2.6773-6.7403-4.8543-14.091-8.625-29-3.6472-14.421-2.2295-31.807 4.0938-49.5 9.1154-25.51 5.882-41.51-8.7188-42.906-7.7905-0.74519-8.6335-3.1842-2.2812-6.7812 14.182-8.0318 27.933 3.403 27.375 22.781-0.3023 10.48-0.1867 10.656 5.3437 8.4375 27.983-11.225 50.094 17.813 30.531 40.094-5.9822 6.8091-9.7466 2.4888-5.8126-6.6562 6.0801-14.132 0.2901-24.205-13.937-24.312-20.641-0.1563-32.066 28.359-23.938 59.719 2.5375 9.7873 2.9286 9.9114 9.7813 3.375 6.0829-5.8021 10.63-7.66 15.344-6.25 9.7711 2.9229 12.333 13.319 2.9688 12.031-16.091-2.2131-20.32 14.643-11.219 44.625 12.076 39.779-0.1487 72.193-35.875 95.25-1.8071 1.1663-4.6874 3.4062-4.6874 3.4062 13.782 12.278 22.596 19.254 40.805 30.344l65.015-262.71s-1.0964-14.919-2.6953-21.95c-0.052-70.516 65.739-77.268 86.331-13.242 1.9773 6.148 12.441 21.846 12.441 21.846l342.52 303.95s63.945-61.795 63.068-63.431c-48.578-48.961-114.19-83.577-116.58-161.26-11.64-0.33561-50.56 0.38271-50.56 0.38271l-166.3-152.74c-52.268 0.33389-98.627-3.4055-152.87-1.8017zm93.321 5.7232c9.1469-0.28765 18.374 4.4658 18.375 12.094 0 6.5825-4.4097 8.0889-8.0626 2.75-5.1047-7.4627-11.032-8.0585-17.062-1.7188-16.716 17.571 9.2581 33.631 39.125 24.188 18.291-5.7833 27.147-7.3435 33.844-6 28.217 5.6605 41.843 24.699 44.25 61.781 1.2238 18.855 1.1882 18.786 9.3437 11.312 19.85-18.188 48.534-8.0656 53 18.719 1.9173 11.494-10.457 25.969-22.219 25.969-4.6126-0.00001-3.8805-4.8155 1.0937-7.1875 11.963-5.7043 12.434-24.567 0.8126-31.938-15.428-9.7835-35.752 5.4762-35.5 26.656 0.302 25.46 19.318 37.188 56.875 35.031 5.5-0.3157 19.307-0.96459 30.656-1.4375 17.939-0.76401 37.219-4.1439 55.5 9.6562 19.144 15.224 31.849 45.488 37.281 89.219 8.5593 53.823 15.174 68.246 33.25 69.539 10.722 0.76711 19.813-8.3665 19.813-18.976-0.0007-7.4802-9.8963-14.072-17.406-11.594-9.069 2.993-10.9-6.8313-1.9687-10.562 12.373-5.1698 27.481 4.7924 30.844 20.344 1.9598 9.0643-8.269 26.451-18.998 30.789-27.986 11.316-47.887-11.802-54.44-63.539-4.0195-23.727-6.2275-39.722-13.625-60-13.578-37.324-35.889-52.727-60.188-41.562-27.515 12.642-22.055 53.835 7.0937 53.531 16.014 1.2673 19.368-10.5 19.699-23.099 0.3755-9.2928 10.908-0.56884 11.81 5.8276 0.864 7.7597-6.0924 17.362-12.233 21.904-9.9234 6.6427-6.3934 6.2267 3.7551 8.8986 27.284 5.0264 47.564 41.132 31.25 53.393-8.4762 5.1688-17.482-2.4396-11.604-9.9113 9.3432-11.878-6.4697-30.645-35.252-36.95-37.698-8.2588-52.709-36.318-39.112-65.156 4.4982-9.5406 4.8893-9.3192-13.5-8.2812-40.46 2.2836-54.825-3.3082-68.406-26.75-4.0981-7.0737-5.908-16.541-6.7813-35.344-1.5622-33.664-4.631-54.506-8.875-60.375-21.008-29.058-64.715-20.363-59.25 11.781 2.8706 16.879 20.31 22.291 32.219 10 8.9944-9.2828 13.189-0.6578 4.4062 9.0625-21.126 23.384-57.893-3.9135-46.969-34.875 2.5004-7.0871 2.8363-6.8596-10.719-7.25-30.152-0.8684-44.499-26.667-25.063-45.031 3.4042-3.2157 8.1456-4.7556 12.938-4.9062zm72.75 110.75c4.8324 0 8.7499 3.9175 8.75 8.75 0 4.8325-3.9176 8.75-8.75 8.75-4.8325 0-8.75-3.9175-8.75-8.75-0.0001-4.8325 3.9175-8.75 8.75-8.75zm121.22 31.062c4.8325 0 8.75 3.9175 8.75 8.75s-3.9175 8.75-8.75 8.75-8.75-3.9175-8.75-8.75 3.9175-8.75 8.75-8.75zm-26.031 57.094c4.8327 0 8.75 3.9175 8.75 8.75 0.0003 4.8325-3.9173 8.75-8.75 8.75-4.8324 0-8.7497-3.9175-8.75-8.75 0-4.8325 3.9176-8.75 8.75-8.75zm385.22 34.031 5.5452 25.881 20.082 5.2853-3.1346-22.176zm70.251 8.9583-0.434 15.347 17.864 2.1017 6.3192-26.456zm-299.9 23.17c4.8324 0 8.7496 3.9175 8.75 8.75 0 4.8325-3.9176 8.75-8.75 8.75-4.8328 0-8.75-3.9175-8.75-8.75-0.0004-4.8325 3.9172-8.75 8.75-8.75zm256.55 35.647-21 5.8259-10.089 29.161 26.884-9.7321zm41.076 2.625 2.5714 21.607 25.87 11.692-8.75-30.799zm-381.33 184.19-160.61 290.36 43.889-0.6104 151.59-273.79zm-505.14 70.29-14.188 19.094 13.469 22.156 15.469-22.25z" transform="matrix(.99994 -.011102 .011102 .99994 -7446.5 -205.05)" fill="#d40000"/>
     <path d="m1362-139.91c-19.782 0.0883-39.636 13.403-45.219 39.312-1.2466 5.786-1.7328 15.787-2.1562 43.781-0.6273 41.479-1.0312 38.125-1.0312 38.125l-17.781-0.4375 0.9375 23.094 18.969 0.15625c-0.091 0.10779-0.4125 1.3576 0.1874 14.406 1.4961 32.52 6.5722 44.073 25 52.812 12.463 5.9107 35.502 5.878 45.938-2.3125 6.313-4.0036 6.9456-3.9711 14.437 0.65625 15.938 9.8431 29.063 4.5 29.063 4.5l-0.4376-23.625c-25.114-0.38377-28.453-6.3316-21.875-22.656 0.4603-1.1412 0.5224-3.2714 0.7188-6.0625 1.8509-26.304 1.105-114.97-1.8125-125.53-6.5762-23.807-26.354-36.302-44.938-36.219zm-2.1562 23.25c9.0352 0.0485 18.253 6.1532 22.437 17.531 4.4268 12.035 4.3672 10.99 5.6563 85.094 0.6346 36.478-0.8951 36.331-0.8951 36.331-14.008-18.557-31.72-32.236-51.116-38.671 0 0 0.3642 1.7213 0-34.232-0.376-37.129 0.073-45.115 5.6045-54.804 4.3824-7.6746 11.284-11.288 18.313-11.25zm449.69 72.052c29.573 89.66 32.32 178.02 6.6563 262.92 14.621 0.74218 78.413 17.102 113.53 38.772-6.4992 16.712-106.05 139.14-173.62 194.32 19.206 19.019 40.345 38.037 62.562 59 33.601 31.881 45.468 53.835 47.688 95.219-0.3015 19.982-7.4629 44.64-20.188 62.094-9.6202 13.196-19.831 23.339-40.312 36.906-18.897 12.516-46.516 39.448-81.25 79.156-13.24 15.142-35.588 42.708-54.094 69-7.0033 9.5571-27.621 39.382-27.621 39.382-68.778-56.124-142.43-99.415-144.32-99.083 0 0 74.308-39.602 89.938-47.674 12.009 7.7037 28.314 1.1135 20.486-15.841-15.043-38.588-4.5513-78.305 13.92-106.03 4.4227-6.6822 15.08-10.579 32.313-11.781 7.4821-0.4876 15.388-0.24536 23.312-0.34375 2.8577 0.00001 10.56 1.1012 14.781 3.4062 14.048 7.6705 16.863-2.1936 25.625-35.406 8.7172-33.043-5.3105-74.833-25.312-74.969-4.7014-0.032-7.3406 1.7021-6.3725 13.459 0.7309 8.8753-1.4034 13.475-3.69 19.073-4.9882 12.211-7.6388 24.163-9.2232 40.094 2.921 0.59131-18.571-21.384-52.433-30.094-22.005-2.6036-33.178-30.004-32.25-30.062 0 0 3.2953-7.4207 6.1876-10.312 7.517 3.5954 14.9 7.8212 23.812 10.438 0 0-2.053-11.008-2.8437-13.969-4.0875-15.307-3.8681-17.636 2.0313-20.812 14.626-7.8764 16.168-21.965 4.75-34.781-2.8831-3.2783-5.3123-5.3807-9.1876-7.0312l7.2188-28.75s-6.6128 1.4232-11.906 3.0312c-15.305 4.6491-14.163 4.8057-20.688-2.625-14.199-16.173-35.885-13.098-39.125 5.5625-0.358 2.0625-1.3124 5.3438-1.3124 5.3438l-32.645-15.841c0.9533 7.6559 9.4324 33.591 9.4324 33.591-28.563 22.186-4.4242 41.836 3.3673 43.91 0 0-6.6721 21.233-8.9674 30.058l32.215-9.2065c2.7071 6.1364 6.0432 10.796 12.743 15.094 1.7482 18.122 15.712 32.734 25.335 41.526-0.0007-0.001 1.3869 6.6288 0.5507 10.868-2.0785 10.537 8.6314 27.223 10.445 28.22-44.212-18.085-90.297-39.785-134.79-61.095l2.7813 546.84s10.359 9.2806 30.906 24c9.8713 7.0713 9.8682 7.0993 7.8124 15.25-2.7096 10.746-2.0403 18.948 7.125 89.687 4.8562 37.41 10.141 76.206 14.875 111 1.8778 12.673 2.1396 20.804 2.1396 20.804-9.8209-4.5483-24.121-5.0094-31.515 3.2897-12.752 14.524-2.5475 37.906 16.344 37.406 4.2935-0.2623 7.2074-1.508 10.906-4.0312 2.561-1.3724 5.1992-0.1746 5.1992-0.1746l-28.191 49.534 32.454 54.64 32.374-58.435-23.544-46.223s2.2961-0.2579 5.4884 1.3455c3.1635 1.5889 7.419 2.7981 10.375 2.9687 16.426 0.1249 19.797-7.364 21.531-20.844-0.0007-17.349-13.81-25.194-32.813-18.656-2.9825 1.027-6.2812 1.3126-6.2812 1.3126l19.938-190.72 10.688 7.8438 3.5-1.9063-9.3438-7.9687c2.0265-30.559-8.0526-41.384-18.941-48.78 36.413-20.711 20.63-53.454-3.5817-63.533 0 0 15.733-9.1902 18.886-18.836 2.6839-8.6219 1.6813-22.291-1.3633-46.539-2.2757-37.384-10.312-114.62-10.312-114.62 31.814 23.984 64.469 49.654 95.187 73.906l61.563-85.562 148.38 1.0312s112.77 102.39 169.53 154.59l49 0.4375s0.5385 5.2396 1.0312 8.7187c4.6449 50.556 38.558 85.276 69.438 109.62 12.587 11.305 43.687 41 43.687 41l-57.656 58.125-353.06-315.34s-1.6901-4.6009-2.375-7.4062c-8.154-33.399-30.283-47.386-50.406-45.031-21.114 2.4706-39.125 23.266-38.219 58.656 0.1402 5.4747 2.125 15.125 2.125 15.125l-64.5 268.66s-25.793-19.689-39.719-29.156l-3.0626 1.7813 37.75 28.375 2.8126-1.2187 10.719 8.375 0.8125 5.7187c33.025 22.469 89.031 64.406 89.031 64.406 26.436-19.644 54.228-13.078 82.063-5.6876 0 0 20.236 6.7638 31 6.7188 54.694 1.229 103.13 11.854 153.97 30.219l-185.31 328.5 353 0.7187c-17.4-68.756-35.886-138.6-2.8438-255.88-34.814-7.0256-112.22-38-112.22-38s-0.3678-1.7604 2.9063-5.7813c14.308-20.463 50.494-75.927 84.406-108 4.1305-2.9554 63.237-60.311 63.812-62.125 0.3231-1.0179 1.7426-4.8874 4.0625-6.4062 5.4478-3.6387 19.93-17.327 19.93-17.327l-73.97-64.142s-3.251-0.3139-4.3036-0.9027c-10.327-5.776-28.971-37.996-33.562-59.566-10.562-49.618 8.9405-88.85 63.969-129.12 53.726-36.789 155.6-179.59 155.94-182.75 54.934 45.477 97.821 69.024 146.15 98.853-29.195 16.747-53.002 27.947-73.433 39.022-13.257 7.5624-15.08 9.1416-26.281 5.9688-12.692 0.10307-17.03 4.9955-13.812 15.938 19.21 30.355 10.964 101.03-15.01 114.65-22.547 11.824-44.47 8.622-62.584 1.9158-13.982-4.4787-13.798-4.526-20.031 8.1562-13.714 29.206-14.595 53.804-1.9375 81.812 10.386 22.487 25.821 32.736 27.723 2.4196 1.1168-17.802 8.9614-38.607 8.7143-57.732 15.746 17.384 26.185 25.328 52.031 32.406 17.334 2.6971 35.746 24.44 35.174 33.305-4.7605 4.8058-6.2077 10.946-6.9795 10.509-8.4425-2.7568-26.726-10.532-26.726-10.532l7.7812 27.5s-1.2841 1.2446-5.0312 3.1562c-17.207 8.7789-16.096 32.51 1.9688 42 3.6777 1.9327 3.9411 2.8412 2.375 7.9063-2.244 11.278-7.1783 18.853-9.8438 30.031 0 0 2.4581 0.09 23.062-9.4376l8.0937-3.75 4.875 5.2188c10.673 11.41 23.495 11.343 34.688-0.1875l5.125-5.2813 14.312 7.25c13.486 6.8364 17.031 8.25 17.031 8.25s-7.777-30.174-9.2187-33.625c-0.7801-1.8652-2.3699-3.7578-3.5313-4.1874-1.9233-0.7123-1.6181-1.163 3.5-5.2188 12.973-10.281 14.275-24.468 3.2187-35.25-4.2147-4.1109-4.75-4.9688-4.75-4.9688l6.7188-27.969-27.862 9.2289c-4.3957-9.3528-11.384-13.608-15.795-15.512-0.4723-12.62-2.0557-25.594-23.744-45.324 7.3066-6.6749-1.3826-22.76-8.5413-32.406 12.201 4.0964 42.714 17.003 42.714 17.003l4.6067-0.1872 14.569 6.9842 1.7087 2.5901s45.829 21.626 66.875 31.748c-0.053-1.1306-0.2195-23.769-0.2812-272.97-0.037-148.58 0.2081-270.78-0.094-271.56-0.3002-0.78263-5.3338-4.6466-10.562-8.5938-9.648-7.2829-11.624-8.7032-23.875-16.875-9.8308-6.5571-9.1684-6.5048-7.125-14.062 2.3461-8.6803 2.2953-20.615-0.8126-42.969-2.2938-16.503-10.612-74.537-16.406-121.38-4.0647-32.858-5.0287-40.151-6.0312-45.438-1.6123-13.308 0.117-19.105-0.1742-19.299 46.024 19.933 49.658-46.172 3.5187-37.245 8.8271-17.803 16.263-26.066 23.828-45.083-9.6216-20.717-30.922-55.748-30.922-55.748l-33.719 58.719 19.844 40.625c-22.828-4.1125-34.942 12.505-30.719 27.406 4.5914 13.18 17.227 16.875 28.375 11.562 8.5877-3.3849 8.5771-4.245 0.9688 60.156-2.2503 19.042-12.249 108.09-13.625 121.34-0.9252 8.9007-1.4994 11.371-5.125 9.4062-4.9138-2.1123-7.7243-5.1946-12.656-8.4375l-2.75 2.5625c4.38 3.5513 9.5688 8.1464 14.871 13.021-1.2144 23.584-0.7345 37.246 18.897 48.755-35.584 22.305-14.778 56.619 6.1209 61.58-12.456 3.2172-24.74 19.242-21.764 51.082l10.094 131.22-96.469-71.625-56.625 81.031-149.19 0.1875-168.28-151.84s-36.892-0.50357-52.031-0.875c1.7165-0.79912-3.1767-46.938-27.531-77.062-26.472-31.473-86.727-83.421-86.687-83.438l63.281-64.25 355.3 319.75s1.7194 9.0563 2.625 12.906c11.877 50.485 69.316 53.546 81.531 2.125 1.9736-8.308 4.3518-27.638 3.4687-29.938-0.284-0.74009 1.5017-9.1707 3.9688-18.75 19.099-74.905 35.367-139.52 54.156-211.44 2.5913-9.9 5.3355-20.925 6.0938-24.5 3.0955-14.592 2.634-14.5 17.906-3 9.3514 7.041 13.219 9.5625 13.219 9.5625l2.9688-3.0938c-10.488-8.1184-28.438-21.062-28.438-21.062l0.1876-5.5c-57.684-41.308-69.567-52.274-103.72-79.344-26.464 23.306-64.314 13.866-88.031 5.625-6.1107-2.4034-21.125-6.3125-21.125-6.3125-59.078 0.0763-110.98-11.327-160-27.344l189-336.56-72.998 0.0045-2.5496 2.8625h-37.983l-0.1263-2.8599zm697 1106.9c0.01 0.2074 0.031 0 0.031 0zm-481.5-1099.3l25.844 0.5-152.94 272.88-16.25-6.3438s1.4894-0.78124 1.4688-12.281c-0.022-12.343-2.6909-17.618-8.25-24.906-4.6555-6.3078-6.6399-6.6559 7-4.7812 27.888 3.833 47.702-26.485 36.625-50.156-4.2742-9.132-3.6732-9.6864 7.625-10.812 31.101-3.0998 43.2-42.557 21.187-62.219-4.5499-4.1176-2.5189-6.7376 5.9688-4.9062 26.909 5.8059 47.752-24.03 37.062-47.406-3.4812-6.5213-0.3507-7.6035 4.5625-8.25 23.036-5.4015 30.875-23.493 30.094-41.312zm-206.12 0.03125 119.72 0.03125c-16.109 24.639 12.334 39.227 15.938 37.5-25.81 14.097-18.725 33.965-5.337 40.792 12.988 6.623 32.47 0.66264 27.274-28.011l6.4063-2.7812c6.2285 7.0432 12.408 50.701-35.094 44.625-8.4575-1.0817-13.044 6.8145-5.9688 11.188 37.535 43.156-21.224 62.224-23.781 55.062l-0.1964-7.3036c15.889 2.9242 36.224-17.554 18.394-35.755-10.136-10.348-39.539-5.3048-34.506 26.098-17.368-25.94-36.325-18.115-41.434-4.4105-3.9615 10.626 1.0773 25.17 18.399 27.643-19.344 16.206-9.9497 34.287 3.347 38.28 14.679 4.4076 29.668-1.5734 25.62-28.238 0.2303-2.5262 5.3551-1.7026 5.7812-1.8438 15.176 37.87-21.1 51.783-40.687 43.969-7.2565-2.8238-11.053 8.3642-3.3438 14.062 11.697 8.6462 8.0839 33.535 6.715 33.784-21.751-8.2503-52.916-14.351-51.752-13.887 20.782-82.188 19.437-165.76-5.494-250.8zm190.88 0.03125 10.812 0.03125c0.1433 15.478-6.5798 34.532-33 37.469 0.1178-4.1495-0.1823-8.0822-1.25-12.469 9.9078-2.2438 23.055 0.50693 23.438-25.031zm47.219 0.84375 34.531 0.15625l-162.5 288.38-26-13.35zm-85.188 21.875c6.1019 0 11.062 4.9293 11.062 11.031 0 6.1019-4.9606 11.062-11.062 11.062-6.1019 0-11.031-4.9606-11.031-11.062-0.0003-6.1019 4.9293-11.031 11.031-11.031zm-338.69 5.0625c-26.029 67.431-76.081 108.29-112.5 176.12-38.033 68.962-20.621 128.36 33.094 139.38 28.321 5.8099 61.419-21.771 65.656-51.75 1.0114-7.1553 2.2615-9.1875 5.625-9.1875 4.9192 0 4.362 12.487 1.25 29.406-7.4874 44.869-22.894 72.167-34.625 88.906l93.281-0.78125c-18.954-22.784-33.501-53.497-36.625-91.438-2.2921-20.628-0.6047-29.691 6-26.156 2.1721 1.1625 2.7252 3.2128 3.6874 13.875 3.382 36.985 42.119 57.144 73.406 40.875 43.191-22.856 42.024-65.584 32.094-96.719-29.9-81.48-95.9-135.08-130.4-212.54zm-285.07 25.526c11.212 9.4973 22.321 20.231 29.968 29.739-10.742 7.6892-22.041 8.1552-28.976 4.3252-7.801-4.3085-11.182-14.306-11.92-31.115-0.41-9.3254 2.8772-9.7554 10.928-2.9489zm13.473 89.162c0.3192-0.0798-16.881 35.123-29.5 54.062-9.0011 16.641-31.203 45.64-25.25 68.844 6.8793 24.134 32.658 30.286 46.375 11.719 6.4299-8.7038 7.8063-7.6664 7.625 2.0625-0.1573 18.602-10.025 29.174-17.25 38.312l47.125 0.34375c-9.9866-11.998-18.968-21.965-20-38.25 0.028-6.1299 1.8468-10.585 6.1562-3.9688 4.8549 4.7318 8.9864 13.437 22.25 11 13.755-2.4548 25.758-20.309 23-37.625-3.6949-20.117-16.268-39.887-28.906-56.844-10.548-14.152-32.017-48.949-31.625-49.656zm541.03 6c5.6487 0 10.219 4.5701 10.219 10.219 0 5.6486-4.5701 10.25-10.219 10.25-5.6487 0-10.219-4.6014-10.219-10.25s4.5701-10.219 10.219-10.219zm534.84 8.1562 27.5 47.875-31.375 55.562-26.188-53.25zm-0.5 16.312-19.344 31.938 17.562 32.719 19.969-31.094zm0.375 13.688 10 19.312-12.156 19.594-10.094-20.719zm-26.656 64.875c2.0794 0.006 4.3033 0.44923 6.5937 1.4062 18.526 7.7402 12.622 35.902-7.1562 34.156-2.6109-0.27318-6.0447-1.6008-8.5312-3.2812-13.721-11.254-5.4619-32.323 9.0937-32.281zm45.281 0.53125c16.202 0.29318 25.964 22.833 8.9062 33.375-8.2302 4.5816-20.535 1.8018-25.375-6.3438-4.1538-6.9902-2.3594-18.643 6.9375-24.688 3.3141-1.6907 6.5303-2.398 9.5313-2.3438zm-22.5 32.156c1.6169 0.13618 3.3791 8.001 5 21.656 0.5873 4.95 2.1648 17.325 3.5 27.5 2.5493 21.759 5.1793 42.024 7.4374 63 0.4455 4.125 1.561 12.9 2.4688 19.5 9.371 68.13 11.496 89.892 9.2812 95.688-5.9131 20.315-33.635 21.867-45.219 10.062-8.7545-8.9211-10.043-18.719-6.5937-44.25 1.9912-14.742 2.8097-22.159 8.6562-78.5 1.3698-13.2 3.3484-30.75 4.4062-39 2.3187-22.044 5.0587-42.703 8.0626-64.438 0.8645-7.7752 1.8929-11.312 3-11.219zm-454.03 50.625s88.795 29.264 156.34 27.938c9.9172-0.008 11.527-0.0941 23.875 3.9375 7.3216 2.3902 18.843 5.6314 25.594 7.1875 20.828 4.0344 39.132 2.8937 55.344-3.7188 2.5472-1.039 6.2887-4.1708 10.062-3.0312 2.3031 0.69524 5.6563 5.2812 5.6563 5.2812-59.147 15.704-197.52 12.807-283.66-23.5zm456.19 9.3125c-0.3681 0.0613-0.754 0.56536-1.1875 1.25-1.4467 2.2848-0.2513 17.279 5.125 64.969 10.27 91.099 10.228 93.048-2.2187 102.62-6.1179 4.707-7.0666 6.5997-4.125 8.3125 2.189 1.2751 2.0112 1.2695 6.4687 0.0312 10.471-2.908 14.804-11.218 14.719-28.188-0.065-12.935-0.2174-14.495-4.25-46.281-1.3952-11-3.302-26.525-4.25-34.5-6.7401-56.75-8.2935-68.55-10.281-68.219zm-465.12 9.5312c88.398 31.655 180.76 40.619 292.09 23.531 0 0 10.703 6.9355 16.094 10.344l-3.75 0.875 1.6875 15.375 18.906-3.0312s10.226 8.1322 17.844 13.125c-99.27 30.311-259.6 25.086-358.5-18.875-3.7634-2.17-5.9688-3.9062-5.9688-3.9062 2.1337-5.2417 4.7144-8.3566 7.3438-11.281l18.062 5.1562 5.2187-16.469-13.812-5.0312zm23.156 19.719-5.7812 16.219 25.25 7.5 4.3125-16.562zm38.625 10.031-3.3437 18.469 25.344 4.6875 3.1563-17.969zm41.938 8.6562-2 17.812 26.875 2.8438 1.6562-18.031zm184.72 0.28125-22.875 2.5 1.4375 15.688 23.125-2.7188zm-40.344 4.5312-22.688 1.5 0.7813 16.438 22.812-1.4375zm-102.22 0.34375-0.031 17.469 23.25 0.875 0.2812-17.844zm63.938 2.1875-21.438 0.0937-0.094 16.625 21.656 0.0937zm-248.56 2.9375c2.3106-0.0686 7.5969 5.0793 9.7812 10.844 4.2961 11.336 2.3252 23.902-4.4062 28.062-9.162 5.6624-19.928-3.2053-13.625-11.219 1.1143-1.4167 2.9083-2.841 4-3.1875 4.7108-1.4952 5.8105-8.9128 3.25-21.75-0.3786-1.898 0.096-2.7231 1-2.75zm34.281 4.3438c95.686 31.326 204.26 41.848 316.12 18.938 0 0-53.007 216.49-54.156 216.59zm-46.9 0.66c5.036 0.00001 5.951 8.5497 1.4062 13.094-5.8022 5.8023-16.871 1.1472-14.562-6.125 0.6708-2.1134 9.8303-6.9688 13.156-6.9688zm27.5 5.0312c1.0435-0.0768 3.0195 1.996 6.1562 6.2188 10.749 14.469 11.59 30.635 1.9688 38-11.28 8.6347-19.526-4.7652-10.125-16.469 2.4351-3.0315 2.7935-8.6318 1.3438-21.031-0.5171-4.4156-0.3873-6.642 0.6562-6.7188zm371.03 5.2188c1.235-0.0407 3.4254 0.91403 7.8126 3.0625 6.8585 3.3593 9.2389 8.2727 5.9374 12.25-4.7973 5.7805-17.945-5.6672-15.469-13.469 0.3766-1.1867 0.7588-1.8121 1.7187-1.8438zm-10.312 7.5312c1.7192 0.17096 4.4688 3.3199 7.6562 9.7188 2.0473 4.11 3.2365 5.2853 6.6875 6.5312 8.182 2.9541 9.6998 11.428 2.5 13.938-7.8181 2.7254-13.642-2.894-17.219-16.625-2.3593-9.0553-1.8363-13.782 0.375-13.562zm-342.28 6.0625c1.1868-0.0722 3.4594 2.5888 7.0625 7.9062 10.695 15.784 7.0091 46.084-6.4688 53.156-5.9409 3.1177-10.078 2.4534-14.844-2.3125-6.966-6.966-5.2514-12.476 5.0937-16.281 8.8069-3.2391 11.654-13.261 8.9376-31.5-1.0862-7.2877-1.1264-10.887 0.2187-10.969zm50.938 5c65.346 53.885 124.34 111.65 200.38 179.09 18.058-55.556 44.382-170.9 44.469-171.28-2.874 2.3704-127.73 20.085-244.84-7.8125zm244.84 7.8125c0.06-0.0494 0.079-0.0895 0.031-0.125 0 0-0.031 0.12437-0.031 0.125zm40.531-7.6562c1.088 0 4.2376 8.1052 6.0312 15.5 1.6258 6.6997 8.0967 17.921 10.594 18.344 12.877 2.1795 18.361 9.3582 12 15.719-4.6709 4.6709-14.783 2.0235-19.656-5.125-9.1598-13.435-15.412-44.438-8.9688-44.438zm-729.12 7.4375c7.7706 0.0629 15.238 4.9615 17.125 15.062 2.196 11.754-4.4492 20.302-10.072 18.933-6.1092-2.2841-8.1867-11.962-8.1867-11.962s-1.4532 7.891-3.9604 11.873c-5.4788 8.3618-17-4.0541-14.937-16.094 2.0137-11.756 11.224-17.884 20.031-17.812zm465.09 3.0938c71.163 10.692 132.39 13.464 217.28 4.25l-40 155.31zm-53.75 0.25c1.0541 0.0689 3.2177 1.9616 6.5937 5.5312 11.059 11.693 14.25 27.918 7.0625 35.969-4.374 4.8998-7.319 5.4649-11.969 2.2812-5.9391-4.0671-6.3855-10.183-0.9374-13 5.009-2.5903 5.4611-8.2793 1.5-19.062-2.9544-8.0405-3.7915-11.819-2.25-11.719zm-464.25 4 26 10.781 9.3124 21.969-25.937-6.6875zm98.312 2.9062-7.7187 21.875-20 7.4688 7.7813-23.656zm678.22 4.5938c0.9624-0.0148 2.3906 2.7532 4.125 8.4688 4.2938 14.15 6.114 17.726 10.031 19.594 6.3814 3.0428 6.8455 10.782 0.8126 13.531-3.8287 1.7441-5.0865 1.3857-7.8126-2.1875-4.2454-5.5659-7.6619-16.221-8.2812-25.781-0.5806-8.9619-0.1123-13.606 1.125-13.625zm-289.44 9.875c0.7533-0.0524 1.8621 1.0535 3.5 3 10.102 12.005 11.201 30.422 2.1563 35.938-8.7601 5.3412-21.012-5.6794-13.375-12.031 0.6874-0.57188 2.2693-1.8502 3.5312-2.8125 2.1274-1.6225 2.3092-2.569 2.5-13 0.1417-7.746 0.432-11.006 1.6875-11.094zm76.742 1.2794 124.47 113.12 28.577-111.9c-49.162 4.4142-100.53 3.1026-153.05-1.2181zm-305.77 5.6894c39.326 41.523 90.778 75.089 103 116.38 21.906 56.836 5.8428 122.77-45.437 160.5-28.306 21.419-56.048 43.964-79.125 71.188-37.866 40.31-63.139 84.357-88.438 116.31-4.2877 5.3725-15.594 22.281-15.594 22.281s-5.535 6.326-24.031-9.1875c-49.073-43.635-100.57-75.286-153-105.44l22.188-12.406c43.769 24.955 98.182 60.476 147.13 101.87 0 0 38.92-56.836 51.34-73.122 18.012-23.373 30.664-38.426 47.438-56.5 42.836-52.885 87.067-70.377 105.47-97.156 26.958-39.231 28.113-85.738 5.9374-125.44-21.868-37.882-64.386-63.855-92.625-95.219zm373.25 3.0625h48.656s-7.1456 5.9609-12.625 9.625c-3.437 2.2983-7.4545 1.9826-15.031-1.1875-7.3593-3.0794-21-8.4375-21-8.4375zm55.719 0 11.344 0.34375c-8.4823 10.654-17.177 17.526-28.563 27-1.4716 0.6333-2.2925 0.89274-5.7187-0.21875-23.256-7.6938-44.6-17.471-67.25-26.719l20.188-0.0937s9.7149 3.1032 24.312 9.1562c16.738 6.9406 21.073 9.0778 27.531 4.8438 6.2254-4.1407 11.378-10.372 18.156-14.313zm22.969 0-4.0626 14.906c-6.786 8.4752-20.509 18.244-31.969 27.875-2.6867 1.4018-2.5968 1.6558-14.344-2.9062-43.1-16.8-64-27.72-64-27.72l-8.7813-7.8438s11.278 3.2258 18.719 6.1562c5.0757 1.999 13.718 5.2798 19.219 7.3125 5.4999 2.0327 17.664 7.2024 25.781 10.406 18.72 7.3884 17.685 7.6147 35.625-8.2188 19.426-17.145 23.969-19.969 23.969-19.969zm-655.22 1.375 18.875 21.625-25.156 21.156-19-22.375zm716.17 0.0223c4.3405 8.1234 7.2543 17.731 14.299 24.571 5.3061 5.0592 6.6278 8.9616 3.4776 11.812-8.2093 5.076-9.6254-3.1213-12.169-8.476-4.4738-9.4338-9.9355-22.186-5.6081-27.908zm-682.54 2.1652c0.4795-0.0151 0.9693-0.008 1.4688 0 20.127 0.30427 24.879 30.047 5.9374 37.188-6.7888 2.5595-14.603 1.3968-18.812-2.8125-4.0848-4.0843-4.6584-7.5367-1.8551-9.6775 4.3661-3.1045 14.76-3.3165 14.76-3.3165s-9.4364-3.1997-13.64-5.5556c-8.2741-4.7146-1.1065-15.297 12.142-15.825zm414.41 0.0312c1.1389 0.0627 3.0959 2.3787 5.875 6.9688 10.154 16.769 9.6195 48.674-0.9687 56.75-5.5049 4.1988-12.363 3.5977-16.969-1.5-6.0724-6.7206-4.2045-13.512 4.8124-17.5 8.7058-3.8498 10.48-12.452 6.9376-33.719-1.2357-7.4126-1.1509-11.081 0.3124-11zm-488.41 0.53125c6.0099-0.21231 11.805 2.1356 14.688 6.875 2.1295 3.5015 1.0967 6.0757-2.9237 7.8232-4.8913 1.9338-14.172 3.6848-14.172 3.6848s9.001 1.4815 14.438 3.6887c6.8111 3.0045 6.2802 8.5209-3.6903 13.259-19.197 9.1217-37.334-15.804-21.496-30.112 3.6885-3.3324 8.4818-5.0536 13.156-5.2188zm504.81 12.031c0.1419-0.0229 0.2974-0.021 0.4687 0 1.763 0.21645 5.0146 2.767 8.2813 7.0938 11.445 15.158 13.432 37.935 3.6875 42.375-10.292 4.6894-17.694-4.9816-10.281-13.438 5.2487-5.9877 4.5969-14.749-2.375-32.094-1.0147-2.5228-0.7747-3.7768 0.2187-3.9375zm247.16 0.71875c0.9023-0.0692 2.5444 3.5765 5.1874 10.938 5.819 16.204 10.794 23 16.781 23 7.5249 0 11.467 10.311 5.5313 14.469-11.728 8.2143-27.092-11.912-28.219-37-0.3385-7.5376-0.1843-11.337 0.7188-11.406zm-62 8.0938-3.4688 13.219s-7.9969 7.775-13.719 12.719c-9.0864 7.8518-11.324 9.4129-18.5 6.9688-11.041-3.8115-21.968-7.2648-33.469-10.75l-26.594-22 60.687 23.688s5.2608 1.5501 7.0938-0.28125c7.9483-7.941 16.676-14.099 27.969-23.562zm57.25 12.375c0.7613-0.1732 1.5282 0.79792 2.0624 3.2188 2.7485 12.45 6.7366 21.472 10.094 22.875 4.2538 1.7773 5.8844 5.4634 4.0938 9.2188-5.1651 10.831-18.75-8.298-18.75-26.406-0.0008-5.1388 1.2303-8.6176 2.5-8.9062zm-219.03 0.875c0.7398-0.0454 1.937 1.062 3.8125 2.9375 8.3905 8.3905 10.927 31.573 4.1875 38.312-9.7393 9.7393-20.14-4.7369-10.688-14.875 2.4996-2.681 2.5042-2.8705 1.9062-14.75-0.4158-8.2705-0.4516-11.549 0.7813-11.625zm-508.38 2.3125-6.5625 21.75-20.969 5.4062 4.9063-17.906zm25.125 2.2188c1.6636-0.0673 3.5486 0.56423 5.5313 2 8.5425 6.1882 9.2439 16.762 5.25 24.562-3.8199 7.618-11.631 9.8014-19.188 9.0312-9.8026-1.0901-17.203-7.9206-16.687-18.375 0.1707-5.2405 2.4557-11.049 6-13.531 2.4951-1.7477 4.542-1.0295 6.7043 2.5548 2.0149 3.5076 5.4554 11.446 5.4554 11.446s0.1123-8.1467 1.2661-12.338c0.9407-3.3365 3.0153-5.2431 5.6679-5.3504zm16 1.9062 15.188 5.1875 6 20.625-17-6.5938zm865.94 3.8482s4.3575 1.8425 25.094 18.308c5.1863 4.1183 13.937 12 13.937 12l-0.5 269.16s-40.891-22.102-46.187-27.344c-2.8244-3.0155-1.4607-11.467-0.4688-26.812 4.8102-40.307 6.7641-71.196 11.938-108.5 3.6166-41.577 11.608-53.516-16.226-71.148 29.959-18.809 21.502-48.075 2.7033-60.263zm-244.25 1.0268-2.75 12.312c-9.8595 16.877-18.688 16.011-33.781 8.1875l-18.125-15.406c11.728 2.4441 18.036 6.2014 29.5 9.8125 5.6915 1.5727 7.7754 0.56225 11.781-3.0312 4.6051-4.191 8.0688-7.322 13.375-11.875zm-134.38 6.4688c6.1437 6.7039 7.7454 13.308 7.2188 29.625-1.1825 11.605-0.6642 20.245-10.188 26.75-4.6514 3.0478-12.69 3.0537-16.281 0.0312-8.6183-5.7706-3.8669-17.313 7.4265-17.878 7.1241-0.1259 10.056-23.417 6.011-37.966-0.6278-2.2583-0.4658-3.74 0.6534-3.8463 1.1192-0.10631 3.205 1.1516 5.1591 3.2838zm192.59-0.875c1.3852-0.0152 3.8288 3.5306 5.2812 9.3125 2.1038 8.3754 5.06 13.077 9.6875 15.438 5.9369 3.0288 7.8555 8.8486 4.0625 12.281-7.5535 6.8358-15.273-1.3618-17.75-18.844-0.1164-1.9861-3.5838-18.002-1.2812-18.188zm162.12 2.875c16.842 0.26221 26.373 12.053 26.35 26.337-0.1844 10.3-5.8105 20.772-16.172 25.119-24.738 7.282-38.242-9.2779-38.007-25.387 0.1895-12.999 10.987-26.331 27.828-26.068zm-340 9.3438c14.168 14.168 14.802 44.469 0.9374 44.469-16.635-5.5065-3.6583-15.324-3.3405-17.875 1.2998-10.437-1.0958-17.127-3.5345-26.875-1.0749-5.7637 4.3775-1.4073 5.9376 0.28125zm340.91-1.375c-2.9725-0.0895-2.7591 2.9012 2.6875 7.5938 9.8763 8.509 5.0407 24.215-7.4687 24.281-5.7731 0.0307-7.1855 3.9176-2.1563 5.9375 19.429 7.8033 32.692-21.731 15.281-34.031-3.6362-2.5683-6.5603-3.7276-8.3438-3.7812zm-742.99 3.9675c15.634 5.3286 21.026 35.116 21.619 45.626 0.7032 18.285-7.811 48.182-15.406 54.156-19.665 15.468-28.884-39.214-12.063-74.406 1.4725-2.8859 3.314-6.7827 2.625-13.969-0.6835-7.1305 0.52-11.355 3.2251-11.408zm516.65 2.8763s-1.9694 8.9296-4.0624 13.812c-2.4225 5.6497-4.2038 5.8277-9.8438 1-3.14-2.6877-8.3438-8.25-8.3438-8.25 4.9094 0.76767 9.2989 3.3127 13.469 1.25 4.4492-2.2008 8.0368-6.329 8.7812-7.8125zm59.5 0.47c1.1098 0.0378 2.5262 3.1489 4.4062 9.3125 5.1468 16.871 9.6479 23.219 16.469 23.219 11.174-0.00001 13.609 13.454 3.0625 16.906-3.9088 1.2794-5.2247 1.269-10.219-0.0625-7.5244-2.006-17.816-27.392-16.344-40.312 0.6925-6.076 1.5152-9.1003 2.625-9.0625zm-688.12 9.8125c4.1018-0.0992 5.7148 1.9215 8.125 6.9062 2.7437 5.6745 9.9421 12.889 16.031 16.031 14.68 7.2159 30.146 12.854 44.656 20.094 18.812 9.4506 35.669 38.387 24.125 41.406-4.1841 0.96526-9.0001 1.0156-13.281 0.625-1.3986-0.73281-4.1272-3.8952-6.0624-7.0625-8.5798-14.041-24.627-27.789-49.375-34.219-17.448-4.5332-33.079-26.025-36.438-36.125-0.8698-2.6158-0.9105-4.6684 1.4376-5.3438 4.9638-1.428 8.3201-2.253 10.781-2.3125zm530.5 1.75c0.7786-0.1277 1.9247 0.86804 3.6562 2.7188 10.386 11.1 11.675 31.483 2.3438 37.25-10.115 6.2514-18.971-4.0873-11.031-12.875 3.5-3.8741 3.4999-3.8712 3.5-15.5-0.0008-8.0133 0.2336-11.381 1.5312-11.594zm151.19 12.938c1.2464 0.0498 3.1159 3.4968 5.375 10.281 3.2061 9.6285 3.6437 10.386 7.3125 12.281 6.2035 3.2054 7.2101 8.0093 2.6562 12.562-8.4876 8.4876-17.035-5.1727-17.062-27.25-0.01-5.3078 0.6189-7.919 1.7187-7.875zm-135.76 1.5262c0.772 0.0738 2.9273 1.7667 4.6039 3.7551 12.723 15.088 10.163 50.418-4.0312 55.719-4.7395 1.77-6.1816 1.8672-9.125 0.59375-10.581-4.5782-9.2907-15.75 3.75-22.844 9.7516-5.3045 2.8011-37.085 4.8023-37.224zm-650.52 11.13 52.531 26.062s14.399 30.318 21.031 41.688c4.5507 7.883 13.658 15.492 4.25 20.75-15.805 10.713-24.766 16.815-24.625 23.469 0.1147 5.3832 6.8065 10.87 15.812 21.469 12.936 15.223 12.809 11.717 1.0626 34.938-9.0026 16.285-16.656 53.156-16.656 53.156l-53.062 27.344c15.789-37.713 34.381-69.808 55.219-92.75-15.479-11.495-28.49-23.459-42.063-39.344 10.015-13.412 23.234-24.245 35.438-35.906-24.783-28.013-40.309-54.882-48.938-80.875zm664.38 0.46875c0.084-0.0135 0.1871-0.006 0.2813 0 2.2037 0.14404 7.2329 5.6197 11.656 14.406 5.7125 11.349 6.2645 25.642 1.1874 30.719-8.7508 8.7508-20.148-2.4965-11.969-11.812 5.7706-4.1925 4.1998-14.62-0.3437-25.469-2.1016-5.2014-2.0689-7.6416-0.8126-7.8438zm-670.19 5.0938c13.669 29.041 28.954 52.662 44.625 75.031l-34.188 35.875c10.524 12.213 23.283 25.33 41.188 40.562-21.984 24.447-36.406 58.679-50.844 91zm786.25 0.625c1.1845 0.0882 2.8662 3.6084 4.5937 10.688 2.1781 8.9257 3.6744 11.208 8.875 13.438 8.2714 3.5455 8.4602 11.534 0.3437 14.406-2.9761 1.0532-8.5403-1.935-10.844-5.8438-3.0346-5.5826-4.5966-13.094-4.5625-19.969-0.4818-8.5087 0.2506-12.819 1.5938-12.719zm189.55 5.379c12.919 3.6208 17.591 16.573 15.072 40.558-3.3744 32.082-7.3399 67.777-10.563 97.25-3.7155 34.001-5.8608 51.663-6.6874 53-2.6218 4.2409-3.0547-11.734-1.1563-29.5 2.8899-25.391 4.4851-47.628 6.9375-73 5.4909-56.449 4.1484-74.291-6.0625-79.5-7.8991-4.0298-11.295-1.6528-5.4687 3.8438 11.113 8.5678 10.764 12.153-1.125 151.16-1.2191 14.38-1.7188 24.562-1.7188 24.562l-15.094-9.375s-1.1196-11.915-2.5312-29.906c-3.4087-33.887-5.3976-70.017-7.6562-102.5-2.4235-34.652 4.0655-46.78 25.562-47.625 3.4364-0.13148 7.2505 0.14419 10.491 1.0353zm-277.4 20.14c1.6464 4.5888 9.1406 38.771-10.038 28.956-5.1101-2.8846-5.3908-7.3994-1.6207-11.787 4.2173-4.9071 5.2068-11.963 3.0938-22.031-1.2861-6.1284-2.8422-11.208-2.8422-11.208 3.6973 1.3515 10.977 14.872 11.407 16.07zm-570.28-10.719c16.224 3.0803 34.045 12.544 45.532 24.38 7.1247 7.5737 6.7644 13.673-4.3756 14.384-10.727 1.5776-10.956 3.322-16.081-1.1136-2.3016-1.8005-6.7803-6.2214-11.888-7.0114-16.188-2.5041-24.448-32.776-13.188-30.638zm654.88 8.9509c1.7109 2.7519 1.8901 8.157 3.3126 12.031 2.4232 10.831 9.8533 18.845 16.531 17.844 4.4848-0.54017 10.68 0.81673 11.344 6.1875 1.303 4.5435-1.0787 8.8433-6 10.812-5.555 2.2223-11.823 0.8581-16.563-3.5938-9.9866-9.382-16.084-40.007-8.625-43.281zm-78.038 0.42417c5.8183 2.2327 13.245 20.862 14.038 35.638-0.023 10.582-1.6557 23.896-10.781 28.938-5.7953 2.9969-11.788 1.5015-14.406-3.5625-3.2133-6.2123-0.828-12.631 5.8124-15.625 8.1241-3.6631 10.764-20.135 5.8126-36.219-0.2789-2.6808-4.3411-10.279-0.476-9.1696zm-619.74 7.7321 42.812 21.688c-6.2294 8.5054-11.126 16.394-14.5 25.375-13.606-15.434-20.74-31.165-28.312-47.062zm635.83 7.4242c0.7358-0.0175 3.1996 2.3332 5.3542 4.4196 10.685 10.347 15.295 29.134 8.8437 36-5.1574 5.4895-14.18 5.11-15.687-0.65625-0.5446-2.827 2.4562-8.1174 3.7812-10.656 1.9734-3.7812 2.3279-14.578-0.6562-22.469-1.3383-3.5371-2.5815-6.6159-1.6355-6.6383zm-297.43 4.2633 48.375 1.6562 162.06 145.97-15.219-0.34375-148.91-135.69-46.344 0.125zm-278.71 26.296c-18.468 29.349-23.51 66.352-12.166 99.235 8.6115 23.321-10.19 24.715-17.902 9.348-5.929-11.49-9.3417-31.489-7.5354-52.785 2.5267-34.437 18.421-69.006 31.148-73.158 12.923-4.2157 10.085 12.674 6.4562 17.36zm664 70.65c-4.9159 22.958-14.019 34.385-26.938 39.156-52.909 19.54-75.959-87.169-26.875-112.69 46.782-15.55 60.305 43.209 53.812 73.531zm-388.28-69.719 45.625 0.9375c41.593 37.829 86.303 73.127 130.81 119.12h-21.531s-6.2912-5.9842-7.7812-7.4062c-40.231-35.933-70.032-65.266-108.81-98.656l-40.719-1.125zm348.1 7.0363c-24.669 0.99792-26.679 34.421-25.94 47.081 1.7961 18.242 9.0668 45.196 32.22 43.07 16.99-1.6954 24.853-21.814 23.301-45.977-1.4603-22.736-10.735-44.196-29.581-44.174zm-352.25 11.089 40.031 0.90625c35.265 30.755 72.562 64.165 109.62 101.03h-17.469s-4.5654-4.3514-5.9375-5.75c-30.004-27.123-60.501-57.347-89.594-81.719l-41.5-1.63zm352.91 1.3125c7.0055 2.5949 8.1762 19.654 2.0624 26.723-4.1891 4.8442-13.823-4.3268-14.687-15.879-0.5268-7.0424 6.323-13.178 12.625-10.844zm-661.62 2.125c-3.2214 11.032-5.3388 23.432-6.6563 36.844l-16.75-21.281zm674.34 20.531c4.0928 0 7.4056 3.3134 7.4063 7.4062 0 4.0928-3.3135 7.4062-7.4063 7.4062s-7.4056-3.3134-7.4063-7.4062c0-4.0928 3.3135-7.4062 7.4063-7.4062zm-336.34 3.7188 79.781 75-22.719 0.25-65.437-59.312-41.531-1.5625 8.125-14.156zm310.28 1.2812c4.0928 0 7.4062 3.3134 7.4062 7.4062 0.0006 4.0928-3.3134 7.4062-7.4062 7.4062s-7.4062-3.3134-7.4062-7.4062c-0.0006-4.0928 3.3134-7.4062 7.4062-7.4062zm94.969 0.15625c44.976 34.954 108.46 81.33 174.41 118.94 0-0.12892-10.867 8.54-20.875 11.281-51.324-28.294-112.39-68.204-150.22-100.56-35.71 52.565-104.3 148.2-165.28 192.34-38.48 27.528-57.862 61.46-57.75 101.12 0.1153 41.031 14.604 67.739 54.969 101.34 26.038 21.678 54.5 49.344 54.5 49.344l-15.1 12.9c-2.4903-0.3032-43.674-35.788-85.344-77.625-22.898-22.99-33.086-73.451-29.187-100.69 5.2993-37.03 17.643-63.57 52.75-92.156 13.479-10.433 27.093-18.539 38.969-30.406 109.07-116.67 148.03-185.84 148.03-185.84zm-73 19.062c4.1245 8.4772 6.3917 19.598-6.5313 20.344-7.6556 0.44201-12.039-12.303-5.4063-23.656 5.0208-8.9379 9.49-1.3304 11.938 3.3125zm-384.38-2.25 43.062 1.2812s42.468 37.017 63.906 57.531h144.25c79.332-0.00002 144.54 0.31741 144.91 0.6875 0.9867 0.98671-10.25 16.062-10.25 16.062l-475.75 0.28125c0.098-0.0736 29.386-26.154 39.875-33.469 18.574-12.954 35.597-25.014 50-42.375zm-291.6 17.9c3.1123 11.487 5.7178 23.2 11.094 33.781l-33.1 17.53c6.0704-17.485 13.02-34.302 21.938-51.312zm917.25 95.5c-6.5608 17.876-23.729 54.354-44.469 82-4.118 5.299-6.9376 9.4375-6.9376 9.4375l40.469 38.75-35.125 37.344c19.728 20.527 36.411 51.968 45.188 77-15.933-6.2934-24.879-10.097-44.531-21.031-5.5566-13.938-11.223-28.708-17.469-41.438-14.335-29.045-14.139-26.203-2.4375-34.75 17.131-12.512 22.233-15.413 17.781-21.719-3.1302-4.4342-23.342-28.433-24.562-29.188-1.8586-1.1483-1.032-4.6992 2.4062-10.375 11.711-21.033 21.311-44.213 27.281-64.812zm7.6563 1.4688 1.0624 244.19c-14.494-29.173-29.572-58.973-46.375-77.594-0.6332-1.2664 36.656-37.688 36.656-37.688-13.667-12.662-21.661-20.23-40.75-37.812 18.591-26.794 33.309-61.823 49.406-91.094zm-1026.3 8.4688 46.397 26.933c-2.4555 34.445-5.5473 79.662-10.304 125.54-3.9845 35.791-5.6284 52.286 0.7162 62.219 5.3735 7.2652 19.864 15.125 19.864 15.125-24.402 9.8821-33.811 39.015-6.4555 60.812 0 0-6.6437 5.2256-9.5937 8.375l-38.062-28.469zm726.22 12.344c-11.567 12.961-29.707 32.182-43.625 41.375-18.563 12.262-44.625 35.799-43.375 36.156 0 0-27.316-0.13712-45.812-0.875l-63.8-56.94s2.2805-0.83881-84.562-0.125c-112.24 0.92253-203.19-0.3125-203.19-0.3125l12.75-17.906zm227.47 11.188c-6.2856 20.188-16.031 38.848-28.375 56.344-2.8596-12.411-4.4306-25.583-10.406-36.125zm-901.41 6.4688 5.5624 3.9688s-3.3161 42.136-4.4062 54.469c-1.9564 22.784-2.9179 43.318-4.9062 66.531-3.9965 46.09-3.3291 52.883 5.7187 60 6.9582 5.2075 11.703 2.842 5.5313-3.75-4.0658-5.2278-4.0477-5.1224-5.2813-12.812-0.8572-5.3445-0.723-13.318 0.5-34.938 6.8882-121.77 8.3181-125.87 8.4687-125.91l13.871 8.9688c-0.77 1.8699 12.709 122.74 11.339 152.78-1.6011 35.132-48.888 27.374-51.129 1.2991-0.9289-5.9925 8.0445-104.64 8.0445-104.64zm385.72 7.0938 18.562 0.53125 114.5 105.25 39.031 0.84375-3.4062 13.281-37.719-0.0937zm71 0h17.969l65.531 59.406 40.344 0.625-7.6874 11.438-40.125-1.1562zm-22.375 0.0625 96.875 87.344 33.031 1.7188-5.0938 11.938l-39.1-1.09-108.9-99.69zm-93.406 0.3125h20.125l151.44 136.34 39.687 0.71875-0.5937 12.281-47.781-0.2188zm509.62 3.875c7.9888 2.0049 11.928 9.7491 17.563 38.469 6.5697 33.491-7.6666 87.862-25.5 98.062-9.2271 7.2576-19.268-0.43818-12.75-9.9062 21.277-30.906 24.087-81.472 11.5-109.75-3.9889-9.0893 0.1187-18.512 9.1874-16.875zm-642.5 5.0312c48.39 0.57818 60.896 99.956 13.295 113.89-30.92 4.5652-46.844-23.422-51.332-48.679-5.2869-31.38 8.5378-65.566 38.038-65.214zm-26.597 59.618c2.8908 19.916 15.242 42.724 33.197 40.775 23.616-2.5642 26.58-34.091 24.24-49.96-2.8233-19.15-13.379-36.508-30.247-37.464-25.148-1.4246-29.421 31.284-27.191 46.649zm26-38.68c6.7493-0.11004 11.72 8.9059 9.875 20.094-1.1944 7.2436-3.9504 16.159-12.094 10.103-3.7929-3.4608-7.1911-13.612-6.2789-21.197 0.5997-4.9852 3.0616-8.8614 8.4977-8.9997zm667.25 22.969 22.719 26.281-25.813 18.094c3.6264-13.83 4.8256-28.536 3.0938-44.375zm-650.78 2.375c4.0928 0 7.4062 3.3447 7.4062 7.4375s-3.3134 7.4062-7.4062 7.4062c-4.0933 0-7.4063-3.3134-7.4063-7.4062s3.313-7.4375 7.4063-7.4375zm-26.5 4.5625c4.0928 0 7.4062 3.3134 7.4062 7.4062s-3.3134 7.4062-7.4062 7.4062c-4.0934 0-7.4371-3.3134-7.4376-7.4062 0-4.0928 3.3442-7.4062 7.4376-7.4062zm15 9.5625c3.7226 1.129 6.0977 4.5491 8.0936 7.5184 4.9566 7.3733 5.6036 16.627 2.0805 20.5-7.115 8.4558-18.231-0.58546-16.893-13.643 0.9808-9.5736 3.5221-15.344 6.7188-14.375zm63.437 29c10.624 0.00001 13.622 12.53 4.4688 18.656-5.9515 3.9834-7.2728 16.938-3.5938 34.875 2.9832 12.955 1.4186 14.958-6.3124 3.2812-13.205-21.168-9.7977-56.812 5.4374-56.812zm-24.844 6.8125c9.3205-0.35551 12.312 6.7645 6.875 12.219-3.1862 3.534-2.8679 12.862 0.6875 20.531 5.0296 11.105 3.8455 14.459-5.5625 3.7812-13.004-13.902-12.804-36.119-2-36.531zm616.06 5.4062c10.574 14.058 19.945 32.401 28.5 53.188l-45.844-21.062zm-669.93 56.52c-3.2451-3.7551-4.816-15.918-7.4776-21.114-2.0668-6.2369-3.8637-9.8705-7.2321-9.6607-19.372 1.6417-18.55-16.881-7.431-20.379 23.014-7.2402 31.406 48.321 22.141 51.154zm96.107-18.695c-3.285 9.708-0.8947 15.514-0.2118 25.884 0.5743 4.7099 0.818 5.952-3.0508 2.3378-9.1901-8.0171-14.073-35.374-5.7976-40.444 11.125-6.816 14.499 4.6939 9.0602 12.221zm459.29-12.981c4.4952-0.20767 9.5972 3.2889 12.125 9.7188 3.6359 9.25 3.3033 31.927 1.4687 44-2.808 18.478-7.2652 35.45-9.0937 48.156-6.4883 7.7105-22.468-19.568-23.969-41.094-2.5149-17.072 3.3647-52.542 16.5-60.031 0.9347-0.44947 1.9311-0.70208 2.9688-0.75zm61.893 2.9075c4.0179-0.18453 3.1033 1.1708 6.0755 4.28 4.5131 4.721 6.3448 5.8696 12.719 7.875 13.148 4.1347 27.605 22.466 22.036 28.036-4.4011 3.4887-16.381-3.1018-20.473-4.5045-4.4007-1.5155-9.8968-3.4045-12.219-4.1875-11.019-3.7156-26.868-24.033-21.938-28.125 2.6365-2.1882 10.674-3.2302 13.8-3.3737zm-32.05 3.3737c8.1457 0.0817 10.371 2.1115 15.031 10.875 6.9068 12.99 19.738 22.154 38.375 27.438 23.789 7.2624 44.317 21.051 43.318 46.594-5.6771 0.06-11.354 0.4372-17.031 2.1651-6.5857-18.532-22.97-29.154-37.068-32.353-32.525-7.3793-62.709-40.374-54.125-53.469 3.753-1.9169 7.7784-1.2956 11.5-1.25zm-561.03 1.625 280.97 244.69c-118.57-43.99-227.35-43.043-332.53-26.781zm119.83 16.2c-0.5279 7.6186-10.98 9.2458-13.142 11.126-5.254 4.5701-4.5548 17.76-2.3087 33.142 1.7189 9.236-0.5809 8.8294-5.4374 1.5938-8.599-12.811-8.4265-35.03-2.7226-48.118 7.3473-16.859 24.35-8.4171 23.61 2.2561zm-161.58-11.982c10.774 1.1198 13.743 15.779 14.188 25.5-0.0001 13.394-3.7994 12.891-5.9376 0-1.0195-5.7122-2.7934-7.9305-7.4062-9.3124-10.481-3.141-11.164-16.187-0.8438-16.188zm130.56 14.969c-2.7622 3.0377-2.8249 17.236-0.3126 26.781 1.3892 5.2782-1.1798 5.6871-4.75 1.5-11.623-13.632-12.693-36.751-1.9062-41.219 8.7829-2.2831 11.063 8.435 6.9688 12.938zm-121.56 27.344c0.2618 13.607-2.8421 14.861-6.9374 1.8124-1.0504-3.031-2.9132-6.0845-4.25-7-7.6492-5.2339-8.9957-9.3162-4.5626-13.75 10.888-8.8868 15.607 14.89 15.75 18.938zm41.063-12-38.094 162.47c93.759-7.8592 136.36-9.5104 236.53 10.062zm113.59 2.6874c5.7335 1.4377 7.7148 8.9189 1.0313 16-2.1932 2.804-4.2361 7.1355-1.5619 18.619 3.6599 15.716-2.5022 10.688-10.001-4.1499-4.8037-9.5052-2.5994-33.761 10.531-30.469zm-179.34 0.5c10.187 0.0001 19.63 16.535 19.781 34.625 0.1073 14.621-1.9756 13.565-7.4062-0.4062-3.824-9.24-6.9072-12.587-13.844-15-12.855-4.4716-11.736-19.218 1.4688-19.219zm68.844 4.6876 176.44 154.19c-72.25-11.546-143.18-12.436-212.06-3.7812zm146.84 5.8124c13.839 0 19.288 17.097 2.3146 23.079-10.114 3.5646-5.7995 24.019-3.9396 36.171 0.7027 4.5811-0.7434 4.9031-3.6562 0.8126-10.66-15.736-16.623-55.411 5.2812-60.063zm-18.687 19.219c-2.509 3.9587-2.7926 8.2067-1.0626 15.875 4.4864 16.492 5.653 19.543-3.7187 11.156-9.8619-10.427-14.166-31.073-5.9063-37.187 9.2791-6.8686 17.642 0.7514 10.688 10.156zm-348.66-12.728c16.378-0.1162 28.28 10.484 27.651 25.269-0.6925 16.282-10.892 26.552-25.871 27.407-16.72 0.8474-27.052-12.494-27.423-26.315-0.3276-12.208 7.4448-26.232 25.643-26.361zm-0.2811 6.5402c-18.744-0.06-25.767 24.651-10.25 36.062 6.652 4.8913 11.907 3.5119 6.4376-1.6875-10.305-9.796-6.1634-25.988 7.4062-28.969 6.7084-1.4741 4.1076-5.3823-3.5938-5.4063zm228.22 4.1875-22.562 109.44c46.158-7.1712 102-4.9832 145.09-0.9375zm-76 4.1562c11.224-0.5702 14.505 16.313 14.594 23.031 0.01 8.6908-1.0186 13.216-2.6199 8.5688-3.7766-10.957-7.5034-16.975-11.561-16.975-2.2014-0.5632-4.0786-1.4488-5.85-3.4374-3.9893-5.2752-0.1258-10.967 5.4375-11.188zm78.094 4.375 14.875 12.625c-9.5707-4.194-17.719 6.6563-17.719 6.6563zm153.09 20.656c-4.3147 5.4294-4.2845 16.884-0.9375 30.219 0.9366 3.7322-2.5492 0.9671-6.0625-3.4687-6.6574-8.3901-9.7824-18.222-8.5765-26.286 1.3394-20.38 27.199-16.411 15.576-0.4645zm-235.31-9.75c9.6261 1.0906 13.258 21.189 13.031 27.281-0.3148 6.3707-1.766 10.667-3.0274 6.7952-2.4793-8.4008-7.6007-20.467-12.035-23.233-7.6027-4.7425-5.4527-10.172 2.0312-10.844zm737.08 22.52c0.3402 7.0907-2.6075 14.348-6.9744 16.685-4.4642 2.3892-7.1884-0.8459-9.8526-9.0179-1.9584-6.0073-2.6518-8.3169-2.6518-8.3169s-1.6521 7.5159-2.1766 9.0874c-3.4804 10.429-14.812 10.528-19.56-1.1231-5.0531-13.589 9.0592-27.514 19.907-27.016 12.026 0.5522 20.672 8.3126 21.309 19.702zm-642.98-15.177c3.3816 0 16.5 5.875 16.5 5.875l13.062 11.563s-12.014-5.2199-16.25-6.7188c-10.114-3.5792-9.8979-3.6085-18.062 3.0625-8.409 6.8702-15.313 11.906-15.313 11.906l2.5938-14.844s12.303-10.843 17.469-10.844zm-85.719 36.469c1.9279 15.687-2.458 17.012-6.7188 2.0312-3.6474-12.826-7.2386-17.5-13.437-17.5-11.413 1.7031-15.252-15.225-5-18.625 19.352-5.4334 24.332 27.906 25.156 34.094zm663.12-34.406 17.844 8.2812 3.7812 18.469-16.438-4.0626zm-399.93 1.7026c17.176-4.7637 19.298 16.614 6.1339 19.771-8.037 1.9273-7.9936 14.377-5.7036 32.464 0.5217 4.1257 1.6319 9.1248 1.375 9.8126-1.2228 3.2716-5.3103-1.7258-10.812-13.313-8.2139-21.132-5.6507-44.67 9.0072-48.735zm490.9-0.2652-4.9688 21.375-15.094-1.0312-0.5624-13.094zm-508.52 13.899c-8.2688 11.97-0.8382 23.021 0.9962 32.392 0.3253 5.4454-6.705 0.1151-10.754-7.8214-8.443-16.55-8.9307-29.908-1.3437-35.875 10.632-6.2268 15.518 4.9118 11.101 11.305zm-154.85-2.9299c2.9219 0.03 6.8781 1.6155 15.187 4.8125 6.2959 2.4221 20.875 8.3437 20.875 8.3437l19.281 17.031s-16.931-6.2393-28.719-11.219c-26.546-11.214-22.732-11.577-43.719 4.4062-6.0552 4.6114-12.375 9.875-12.375 9.875l2.5625-13.688s7.9271-7.8741 17.812-15c4.2588-3.07 6.1711-4.592 9.0938-4.5625zm-246.94 6.4688c13.585-0.3775 22.516 10.428 25.781 22.5 1.8915 6.9914 0.2577 13.447-0.125 20.156-9.3778 71.849-13.503 138.53-22.125 205.06-1.0595 3.1759-2.214 1.9957-3.5937-3.7187-9.9824-60.323-16.482-126.54-24.875-186.31-1.9188-22.322-7.6825-51.51 20.562-57.219 1.5035-0.2896 2.9698-0.4297 4.375-0.4687zm-0.8124 7.9687c-5.9922 0.2394-13.078 4.3546-15.594 9.6563-5.138 10.828-3.7959 32.872 5.9688 98.937 0.8128 5.5007 1.9407 14.683 2.5 20.406 1.712 17.543 4.0406 31.474 5.7187 34.062 3.1945 4.9277 3.6054-0.3667 1.3125-17.531-1.1699-8.7593-2.7604-22.151-3.5312-29.75-4.3889-31.333-5.3428-53.627-8.0626-82.219-1.3614-14.054 4.2939-24.412 14.906-27.219 5.7448-1.5192 6.0524-4.1036 0.6875-5.8437-1.1972-0.3883-2.5236-0.5552-3.9062-0.5zm898.44 0.8794c19.842 0.045 27.14 27.825 7.7188 37.621-7.2062 3.6346-19.292 1.923-22.295-3.8839-1.4538-4.5176 0.1758-7.1462 3.7749-9.0629 4.3794-2.3322 10.806-4.3316 10.806-4.3316s-10.509-2.0366-13.469-7.0104c-6.3819-10.726 5.3322-13.13 13.463-13.332zm-746.56 29.964c-0.2218 5.237-2.8961 3.0766-3.5626 0-2.1387-6.9672-6.6015-14.524-10.344-17.531-4.5212-3.6334-5.5984-8.5578-2.5313-11.625 11.519-10.177 16.375 25.893 16.438 29.156zm673.21-30.04c5.0795-0.1465 11.988 1.5773 16.357 5.9464 5.6423 5.6415 5.337 7.757-4.116 11.201-4.5887 1.7052-7.7488 3.032-7.7488 3.032s4.262 1.6746 7.4274 2.5573c9.0626 3.0257 8.5848 8.2827 0.2633 14.496-11.332 8.4602-29.539-2.7689-29.326-17.661 0.1698-11.806 7.4471-19.292 17.143-19.571zm41.888-0.085 18.125 19.969-21.188 21.938-19.938-21.875zm-615.94 1.875c0.2584-0.012 0.5082 0.0006 0.7812 0 5.6184 0.1042 14.582 3.8968 36.563 12.75 12.076 4.865 26.031 10.406 26.031 10.406l19.781 17.5s-27.101-8.5078-36.531-13.281c-2.0482-1.0366-6.5483-2.953-10-4.25-3.4517-1.2963-12.012-4.6439-19.031-7.4687-15.085-6.0709-15.257-6.1117-20.313-1.8437-2.1614 1.8246-7.4677 5.9864-11.781 9.25-4.3136 3.263-10.614 8.0516-14 10.625-3.9935 3.0339-9.0312 7.625-9.0312 7.625l3.1874-16.875s2.8477-2.7902 7.9376-6.6876c4.1235-3.1572 11.157-8.5451 15.625-11.969 4.539-3.4785 6.905-5.5974 10.781-5.7813zm194.53 14.813c0.5602 3.5123 0.2282 4.1878-3.8124 8.3124-5.1024 5.2087-5.7991 13.744-2.0626 24.813 1.031 3.0518 2.2868 6.6666 2.0063 6.9463-5.3909 5.3918-19.581-28.646-16.194-38.79 4.0507-12.13 17.373-12.311 20.062-1.2812zm-311.09 1.4687c3.7139-0.1736 8.026 2.6433 10.188 8.5 5.8657 16.38 2.2779 36.47-3.7188 17.75-1.5557-3.9629-4.2378-8.2176-6.2812-10.375-2.1036-2.2361-6.8285-4.8284-6.7188-8.4687 0.4572-4.7751 3.2543-7.2531 6.5313-7.4063zm121.28 0.4687c2.3787 0.076 5.5502 1.26 11.25 3.5938 5.1514 2.1095 19.656 6.9413 27.906 10.125 12.813 4.9446 26.188 11.469 26.188 11.469l-29-1.625s-9.8554-3.2777-15.719-5.6876c-21.238-8.7261-20.056-8.6809-30.625-0.6562-3.7766 2.8668-8.5313 7.5-8.5313 7.5l-14.75 0.8125s6.9315-7.3961 16.938-14.812c3.2729-2.4259 7.7447-5.8872 9.9062-7.6875 2.4906-2.0738 4.0581-3.1061 6.4376-3.0313zm226.88 5.7188c8.0713-1.5292 12.492 6.1629 11.982 10.962-0.5593 5.2642-5.448 10.51-12.968 11.971-1.5816 5.885-6.0888 19.314-3.4599 39.348 2.1189 9.3866-1.8536 9.595-5.9062 0.5938-6.5671-14.586-16.136-57.856 10.353-62.875zm-23.04 16.062c-3.4225 7.3164-4.6097 13.21-2.7187 22.438 2.1014 10.254 2.5435 12.784-3.2813 6.375-11.286-15.046-12.931-38.999-2.5313-41.75 10.039-2.6554 12.241 8.2402 8.5313 12.938zm-338.31-11.216c17.613 2.7844 22.801 32.791 20.341 45.622-4.6661 15.533-4.4341 5.0372-6.0626-1.4376-4.3362-15.63-9.3534-24.139-14.719-25.031-14.446-2.4018-12.421-21.187 0.44-19.154zm135 5.9037c0.303-0.021 0.5692 0.017 0.8438 0.062 5.7957 0.9686 21.318 5.7594 14.625 7.375l-22.906 0.125c-4.4469 0.1645 2.893-7.241 7.4375-7.5625zm616.81 4.9062c2.2221-0.2016 5.2521 2.4035 8.8125 6.0313 8.1484 8.3025 4.5736 21.391-6.4375 27.844-17.285 10.13-36.96-8.964-27.469-26.5 5.2093-9.6244 11.467-7.9062 16.808 5.6742 0.9773 1.6497-0.011-1.6973 1.817-5.8304 1.8207-4.1162 4.2466-7.0164 6.4687-7.2188zm-29 0.9688-5.1875 20.875-21.062 10.125 7.6875-25.719zm43.812 3.5625 16.781 1.3437 9.3126 27.125-24.188-10.312zm-396.53 15.33c12.206 0.5044 13.443 12.031 6.4374 17.076-3.9268 3.762-5.2841 9.2055-4.4687 17.906 0.3624 3.8679 1.1286 8.6063 1.0937 9.1562-0.1146 1.8545-1.6543 1.5646-3.75-0.7187-12.89-14.049-11.173-43.91 0.6876-43.42zm-369.22 4.5133c7.735 0.0001 16.508 22.162 12.191 30.639-2.7203 4.977-5.3442 3.7483-6.3361-2.0274-0.7397-4.2053-3.1499-9.959-9.3864-10.987-9.0642-2.8947-6.114-17.624 3.5312-17.625zm391.53 13.406c5.9087 3.0551 6.4658 9.853 1.125 13.656-4.1406 2.9482-5.2322 5.4441-5.875 13.437 1.3567 18.194-8.868 6.6435-9.8303-9.9062-0.5238-9.0085 4.3513-22.376 14.58-17.188zm-398.03 5.5937c5.5519 0 12.147 9.9647 10.686 15.785-0.778 4.6225-3.1989 3.8028-6.5924 0.3712-1.3125-1.0244-4.2577-2.083-5.6326-2.4987-8.3072-2.5113-6.9119-13.657 1.5388-13.658zm157.78 7.6563c75.039-0.3494 153.09 11.561 217.97 37.469l-5.3438 9.5938-17.031-5.8438-5.8438 15.438 14.031 5.3437-6.5937 14.25c-76.57-25.183-159.15-43.935-296.38-23.625-6.8115-4.7418-19.125-14.094-19.125-14.094l10.969-2.4063-1.4375-15.25-27.719 4.9375-8.0937-8.4688c43.329-11.115 93.251-17.105 144.59-17.344zm251.69 3.3437c7.1848 0.012 11.644 8.0786 6.375 11.531-3.6907 2.4178-11.885 3.078-13.531 1.0937-3.4022-4.0994 1.4259-12.634 7.1563-12.625zm-262.28 9.4376-0.3125 15.812 22.625-0.7187 0.4688-15zm39.531 0.3437 0.094 15.531 21.969 0.7187 1.0313-15.219zm-57.469 1.0625-22.219 1.4688 0.6876 14.5 22.031-0.9688zm99.344 2.4062-0.5626 14.969 22.344 2.4688 1.625-15.219zm-140.69 0.7188-22.344 2.8438 1.9063 14.906 21.719-2.4062zm183.88 4.8438-2.1874 15.625 20.844 3.0937 2.6875-14.844zm365.72 4.5312c10.061 14.078 19.685 26.08 26.375 41.812 8.5876 20.215 14.354 46.632 14.344 68.406-0.01 13.009-9.0823 10.389-10.938-3.1563-7.8108-57.047-76.451-65.633-103.44-12.938-7.0131 15.099-8.3443 33.733-4.6563 54.531 13.046 73.57 105.77 144.62 134.84 221.81 54.588-111.87 102.5-129.25 127.34-220.31 20.013-70.006-48.12-122.07-97.531-76.719-9.0221 8.3156-17.345 23.772-18.313 33.969-2.0476 16.399-9.3335 13.958-10.031 0.4376-0.2533-14.233 5.8466-41.565 14.469-65.906 4.5898-12.843 11.417-28.65 20.656-41.938zm-324.41 4.2188-2.0626 15.781 21.188 4.5 2.8437-14.656zm-149.97 18.187c70.352-0.083 134.47 12.036 188.47 32.563 0 0-6.9988 15.088-9.4688 16.719-38.75-15.468-104.78-29.843-149.41-30.625-16.351-0.6057-19.976-1.0417-26-3.125-34.008-11.184-64.03-16.02-91.719 0.5l-11.312-8c34.192-5.4396 67.459-7.9935 99.438-8.0313zm769.2 58.6s3.9822 5.3559 6.4375 8.3125c10.893 13.117 17.546 36.594 10.375 36.594-1.7781 0.0007-2.6416-1.6483-5.2812-4.1874-9.7504-14.421-29.261-9.379-36.813 1.2812-7.7647 10.961-8.6026 28.693-2.5937 41.688 19.527 40.28 56.984 86.263 56.312 91.531 20.02-44.689 36.443-57.292 51.281-90 5.3226-16.205 5.3827-25.68 1.25-38.125-5.643-16.994-33.023-24.748-42.719-7.0313-3.1995 5.403-5.7298 6.9569-7.9063 4.7813-4.4331-4.4339 3.2522-28.697 12.25-38.656 1.5908-1.76 4.5626-6.1875 4.5626-6.1875zm-1066.4 31.344c16.089 0.1876 23.745 24.854 6.75 35.219-4.5607 2.5791-10.555 2.2341-15.375 0.062-13.775-6.5596-14.801-27.043 1.25-33.75 2.5944-1.084 5.0765-1.5582 7.375-1.5312zm525.81 0.8124c5.759 3.5201 27.031 12.938 27.031 12.938l-149.41 270.09-36.156 0.2813zm-481.9 0.6381c8.9533-0.9976 15.308 6.6872 17.616 13.112 3.1494 8.7653-2.5009 24.334-18.281 23.438-18.104-1.028-26.216-33.554 0.6652-36.549zm513.8 14.05c4.0092 2.202 18.521 4.6082 19.781 7.4062 0.5451 1.3993-0.5521 4.155-0.875 7.7188-0.7779 8.5853 1.3665 18.096 6.5625 25.719 8.515 11.831-0.7076 6.3966-9.2187 6.3125-19.206-4.9063-43.672 21.26-34.375 48.188 2.1486 5.9587 1.7278 6.43-8.5626 9.5625-23.362 7.1122-33.55 31.902-22.326 54.04 5.8489 11.535 6.02 10.949-4.2679 11.804-28.585 2.3731-45.186 27.731-33.188 53.656 1.8568 4.0121 0.6752 5.1158-5.5625 6.2812-19.514 3.58-28.253 19.898-30.719 37.813l-25.813 0.25zm24.75 9.5312 49.594 13.531c-20.595 70.022-23.441 151.37 1.3437 245.47l-114.03 0.094c15.837-14.216 9.5819-33.855-8.9286-38.179 17.963-10.314 17.973-37.755-3.5536-41.054-18.928-2.9001-28.701 15.096-20.295 33.125l-8.0849 2.2008s-3.6193-4.5447-4.4508-6.9687c-7.14-20.815 7.806-41.475 33.281-41.406 15.713 0.043 18.965-4.4044 10.281-14.062-15.524-17.266-10.639-41.531 9.6295-51.076 9.332-4.3945 14.835-1.4866 14.835-1.4866l0.4821 11.442s-3.7834 0.3671-6.7276 0.8347c-22.388 3.5799-18.237 39.263 4.5179 38.955 12.522-0.1696 21.48-9.6674 21.482-23.308 0.0001-3.8322 0.018-9.4867 0.018-9.4867 11.501 19.676 31.256 21.082 39.67 5.0759 9.9039-18.842-8.0658-30.686-26.08-28.741 0 0 3.7808-2.4545 6.1696-3.683 19.182-9.8639 12.576-38.049-8.6384-38.049-14.558 0.0007-23.048 13.525-18.357 27.866 0.7525 2.3006 2.5357 5.991 2.5357 5.991l-8.6607 2.1964s-1.9644-1.5007-2.8438-2.875c-14.859-23.222 9.0026-48.801 39.063-43 11.005 3.4496 10.648-4.1603 4.4687-11.031-6.6441-9.908-11.603-21.133-6.7187-32.375zm-560.47 10.125 26.031 45.875-29.156 52.844-28.906-49.5zm-2.5625 23.875-18.062 24.875 17.688 28.562 16.781-28.906zm-0.7813 9.3438 11.75 15.75-11.844 19.344-11.594-18.156zm537.94 49.562c5.4735 0 9.9374 4.4328 9.9374 9.9063 0.0001 5.4735-4.4639 9.9062-9.9374 9.9063-5.4737 0-9.9063-4.4328-9.9063-9.9063s4.4326-9.9062 9.9063-9.9063zm540.97 54.563c-7.6187 0.1889-15.872 2.4117-24.438 6.8437-9.2311 4.7763-9.2318 4.7647-12.844 2.375-8.7904-5.8172-11.495-7.1875-21.406-7.1875-6.1541 0.0002-10.406 0.3438-10.406 0.3438l0.8437 23.75c21.347-0.5764 27.198 6.6745 22.719 19.531-4.6488 5.8286-3.5981 89.638-2.125 121.97-0.3518 15.882 6.7095 30.984 16.469 40.156 15.244 13.509 42.229 12.498 57.906 1.2188 10.466-7.5304 15.444-20.138 17.676-32.947 1.054-26.292 0.454-52.647 0.454-78.959l16.902 0.1875-0.1875-23.812-16.5-0.9687s0.169 0.6795-0.5312-16.969c1.1603-36.926-17.799-54.529-43.031-55.531-0.5023-0.01-0.9921-0.013-1.5 0zm-1.3432 23.941c13.927 1.0596 19.582 6.5813 22.797 18.469 2.2914 8.4732 3.1535 18.478 1.2339 21.621-3.128 5.1224-15.168-3.7967-30.938-23.031-5.3127-6.4804-7.6791-9.8184-7.6791-9.8184 3.0506-5.4371 9.5246-7.6255 14.586-7.2404zm-25.318 31.97c14.476 12.449 16.522 25.08 50.674 37.089 0 0 0.9696-1.3299 0.3929 40.312-0.6372 45.94-3.3867 55.348-17.25 59.156-12.014 3.3-23.325-2.2771-28.313-13.938-5.1018-11.928-6.3396-40.011-6.1562-93.438 0.066-19.394 0.6518-29.183 0.6518-29.183zm-584.39 13.902c5.6708 0 10.281 4.5793 10.281 10.25 0 5.6708-4.6105 10.281-10.281 10.281-5.6707 0-10.25-4.6105-10.25-10.281 0-5.6707 4.5793-10.25 10.25-10.25zm-15.54 6.9867c-0.9366 0.4014 0.025 9.3136 2.2679 13.004-14.806 0.9069-18.725 12.233-20.165 21.794l-13.263-0.036c2.2095-32.335 30.219-33.06 31.161-34.763z" transform="matrix(.99994 -.011102 .011102 .99994 -3051.6 -485.62)"/>
    </g>
   </g>
  </g>
 </g>
</svg>
