<svg xmlns:rdf="http://www.w3.org/1999/02/22-rdf-syntax-ns#" xmlns="http://www.w3.org/2000/svg" version="1.1" xmlns:cc="http://creativecommons.org/ns#" xmlns:dc="http://purl.org/dc/elements/1.1/" viewBox="0 0 744.09 1052.4">
 <g transform="translate(-5774.3 3117.1)">
  <rect rx="10.63" ry="10.63" height="311.81" width="223.23" stroke="#000" y="-2746.8" x="6034.7" stroke-width=".99673" fill="#fff"/>
  <g fill="#d40000" transform="matrix(.30106 0 0 .30106 5730.6 -1948.1)">
   <path d="m1306.4-2134.7c32.952-32.158 54.594-67.22 75.29-100.94 18.15 37.102 44.197 69.561 72.364 100.94-30.137 31.118-53.494 64.393-72.274 99.374-20.818-35.859-42.736-68.33-75.381-99.374z"/>
   <path d="m1661.7-1825.7c13.499-13.173 22.364-27.536 30.842-41.349 7.435 15.199 18.105 28.495 29.644 41.349-12.346 12.747-21.914 26.378-29.607 40.708-8.5281-14.689-17.506-27.991-30.879-40.708z"/>
   <path d="m1036-2442.5c13.499-13.173 22.364-27.536 30.842-41.349 7.435 15.199 18.105 28.495 29.644 41.349-12.346 12.747-21.914 26.378-29.607 40.708-8.5281-14.689-17.506-27.991-30.879-40.708z"/>
   <path d="m1034-2499.9v-9.0914h8.8389l18.814-97.227h10.705l20.736 97.227h7.1342v9.0914h-24.307v-9.0914h6.566l-2.6161-14.9h-24.532l-1.894 14.9h6.566v9.0914zm43.772-34.598-10.657-52.05-9.9871 52.05z"/>
   <path d="m1727.4-1770.2v9.0914h-8.8389l-18.814 97.227h-10.705l-20.736-97.227h-7.1342v-9.0914h24.307v9.0914h-6.566l2.6161 14.9h24.532l1.894-14.9h-6.566v-9.0914zm-43.772 34.598 10.657 52.05 9.9871-52.05z"/>
  </g>
 </g>
</svg>
