<svg xmlns:rdf="http://www.w3.org/1999/02/22-rdf-syntax-ns#" xmlns="http://www.w3.org/2000/svg" version="1.1" xmlns:cc="http://creativecommons.org/ns#" xmlns:dc="http://purl.org/dc/elements/1.1/" viewBox="0 0 744.09 1052.4">
 <title>Vectorized Playing Cards 1.0</title>
 <g transform="translate(-512.47 -760.44)">
  <g transform="translate(-1317.8 540.77)">
   <rect rx="10.63" ry="10.63" height="311.81" width="223.23" stroke="#000" y="589.95" x="2090.7" stroke-width=".99673" fill="#fff"/>
  </g>
  <g transform="matrix(.15135 -.0016854 .0016854 .15135 833.29 1245.7)">
   <path d="m376.57 1111.8c4.1384-52.338 1.7132-108.61 4.5761-151.21-1.5889-3.0254 4.3418-11.231 4.6492-11.228-3.3973-6.3732-4.3843-22.612 0.1579-36.957 35.737-130.24 98.956-231.2 163.96-325.29 50.258 157.24-114.26 265.34-150.12 401.85-11.981 47.275-10.635 80.392-15.504 123.16zm-271.52-1-190.91-302.26 42.411-20.07 196.12 321.83zm257.46-553.13c1.6197 8.6338 8.3444 13.336 15.583 9.4743 7.0893-3.7818 7.9057-4.0329 3.4458 2.7108-9.8482 14.891 9.5986 29.625 22.326 16.897 4.5235-4.5236 5.3542-11.96 1.3347-15.785-4.5397-4.3202-5.5126-6.5428 1.2179-3.2151 16.922 7.0704 26.559-17.412 10.181-25.865-4.2213-2.1785-12.513-0.37965-15.663 2.8306-3.8041 3.8779-4.3179 2.4949-3.2819-0.53446 0.61275-1.7919 1.0659-4.7066 2.5207-8.1712 1.1413-2.718 1.9806-6.4291 1.9806-6.4291l-17.369-0.0102s1.3601 3.9939 2.7434 7.3579c1.3017 3.1655 1.7824 5.5282 2.4174 6.8448 2.2883 4.7446-0.50406 2.9673-5.1558-0.57455-6.576-5.007-14.905-3.7145-19.706 2.722-1.7852 3.7947-3.289 7.7485-2.5753 11.747zm27.797-243.86 37.354-0.69309 39.803 113.78c-33.473 54.197-43.023 115.64-5.4752 178.44l-118.41-1.13c28.823-93.683 34.224-193.33 46.741-290.4zm37.403 147.88c5.0619-4.4246 5.7944-12.544 1.2872-18.014-5.6668-6.8776-4.3458-7.2108 3.3066-2.6751 11.043 6.5451 21.83-7.2254 15.408-19.579-4.0793-7.8471-17.532-9.7233-22.758-2.8459-4.3573 5.7334-3.8209 0.4459-0.43315-7.2009 1.2455-2.8113 3.0472-8.0967 3.0472-8.0967l-18.1 0.17025s2.2791 5.1489 3.4879 8.4544c3.2058 8.7664 3.3086 11.531-1.7187 5.8611-10.942-9.4055-23.97-2.8231-24.24 10.505 0 10.248 9.2131 16.93 17.399 12.231 4.9739-2.8554 7.1991-3.5277 1.5587 3.0927-3.9105 6.3274-2.6238 14.461 2.4025 18.327 6.8953 4.2737 14.331 4.1195 19.353-0.22835zm-250.55 32.527c1.4648-1.0545 1.9944-0.34536 1.0871 1.0889-0.77326 1.2223-2.7411 2.9506-4.4281 4.7855-8.5498 9.2997 2.2448 21.36 15.879 19.665 9.2806-1.1542 14.882-15.669 8.0981-21.501-2.2008-1.5063-3.937-1.8077-5.596-3.8538-0.1254-0.81106 0.25947-1.3545 1.0769-1.0259 1.2028 0.5185 3.6478 2.5404 4.8896 2.8925 8.585 2.4344 15.127-1.0526 17.38-7.1081 1.4609-7.014 0.21346-14.581-5.4876-18.592-5.2995-3.6424-13.207-2.7033-17.879 3.358-4.781 6.2033-5.3641 0.24323-1.4148-8.347 1.48-3.2193 2.5236-7.8122 2.5236-7.8122l-16.645 0.69758s0.84491 3.5896 2.263 7.7217c3.592 9.4372 6.2096 12.161 1.543 7.2537-20.19-12.196-27.119 4.0053-27.526 10.474-0.76498 12.179 16.901 19.288 24.235 10.303zm83.401-182.88 30.019 0.43811c-23.98 120.09-71.48 220.39-150.3 288.89l-146.86-2.08-70.216-50.27 27.726-35.19c186.24 21.28 266.67-70.28 309.63-201.8zm-138.23 277.48c8.8299-3.7781 12.598-13.688 6.8588-20.431-5.1884-6.0964-5.7042-7.9876 2.3168-3.1945 10.733 6.4137 21.315-6.0316 16.155-18.381-3.2119-7.6871-13.575-10.168-21.111-5.0536-6.6266 4.8321-6.4771 2.6417-2.9562-5.0629 1.7425-3.8131 3.1183-9.9386 3.1183-9.9386l-18.404 0.0525s1.281 4.3872 2.5872 7.4061c2.9938 6.9187 4.0699 10.092 2.6435 10.092-0.68912 0-2.9398-2.1242-4.2571-3.3617-3.6267-3.4071-13.635-4.1549-17.393-0.64379-11.132 10.383-5.1343 28.831 8.9158 25.596 9.0717-2.0887 11.18-5.5052 3.5895 2.9205-9.3553 10.384 4.7878 25.626 17.936 20.001zm-116.03-4.94c7.6497-3.5027 10.292-12.249 6.0955-17.961-4.2248-5.7504-6.3029-9.4491 1.2674-4.2268 10.08 5.2128 19.015-1.4629 19.015-12.994 0-12.078-13.499-17.862-23.555-10.7-1.6989 1.2097-3.7844 2.2928-4.1557 2.2928-1.2181 0 1.068-6.5075 3.5411-10.757 1.0735-1.8445 2.969-5.6039 2.969-5.6039l-18.396-0.9087s0.97362 5.0252 2.374 8.8979c2.8446 7.8666 3.5339 10.486-1.5551 5.9805-13.695-13.087-28.64 3.2193-22.973 17.503 2.9941 8.0398 12.437 8.1428 18.056 4.2041 5.1002-3.8629 2.4572 1.3062-1.056 5.4035-9.5798 11.173 4.1244 25.339 18.373 18.87zm843.73-292.38l0.71982 22.272-240.01 195.52-9.8021-15.386zm-884.93 31.82c34.51-23.98 73.079-67.3 110.92-89.67 26.761 63.42-38.341 124.58-110.92 89.67zm628.54-8.97c-33.12-118.61 129.45-108.93 108.75-84.05zm-772.15-85.84 237.54-189.29 10.521 16.251-250.61 200.68zm647.02-186.41c0.64104 2.0131 7.6767 9.7402 7.6822 10.435-2.0172-1.5405-14.033-8.4493-20.011-1.9305-2.0887 2.388-4.7741 8.1233-4.5586 14.097 2.3541 10.717 14.481 14.624 23.206 7.4012 2.5124-2.08 4.677-4.6112 5.1726-3.706 0.43075 0.78676-0.96874 4.4458-2.1092 7.3419-1.3106 2.9747-6.1224 9.2012-2.6818 9.2333l16.717 0.15563s-0.57305-3.9234-2.5248-8.2781c-3.6473-8.1377-3.4428-12.534 1.003-6.6494 8.6554 11.456 25.783 2.1743 24.156-11.462-1.1748-9.8465-11.065-15.58-18.439-10.975-0.80683 0.50387-3.1809 2.8057-3.5165 2.8173-0.89615 0.03104 1.5971-3.6925 3.2553-6.7863 5.51-10.28-2.44-19.942-14.77-19.049-3.9832 0.28812-8.3681 2.7472-8.395 3.103-4.6703 3.681-5.5025 10.121-4.1867 14.253zm204.32-94.012c23.311 21.925 46.687 38.068 70.085 52.201l-22.63 34.842c-150.47-15.622-260.68 42.712-308.18 203.65l-24.884 4.5007c10.46-100.61 45.32-200.1 146.18-296.59zm-144.63 22.49c-0.0135 4.7747 8.6924 10.552 6.7273 11.845-0.90212 0.46783-6.0732-4.1352-8.4694-4.4168-17.371-2.0416-21.277 24.959-4.0772 28.186 3.3837 0.63479 10.405-1.3933 12.501-3.0761 2.7838-2.2351 4.717-4.0776 5.2824-3.8654 1.0514 0.39464-1.4081 5.1918-3.3393 8.7425-1.794 3.2985-4.318 9.7714-4.318 9.7714 6.8803 1.3216 13.532 1.6837 19.77 0.30944 0 0-1.7282-5.6679-3.4596-9.9928-2.2133-5.5286-2.6552-9.0232-1.1306-8.6366 0.65693 0.16659 1.3806 1.894 2.7528 3.0989 8.4829 7.4481 21.084 4.4463 24.514-7.002 3.2246-10.763-9.5764-22.023-18.644-16.082-3.168 2.0757-3.1547 0.49041 0.0352-4.2102 2.9136-4.2935 2.2841-10.852-0.27057-14.774-9.339-10.134-28.157-3.1716-27.875 10.104zm141.61 33.604c-0.4473-2.4132 0.15731-1.72 2.6605 0.94454 7.8361 8.3412 21.502 7.2137 25.1-3.6863 3.5898-10.877-6.8675-23.485-16.151-19.299-4.8288 2.1775-4.904 1.3868-2.1172-2.1561 7.1852-9.1344-0.48859-21.364-12.64-21.364-11.103 0-17.769 10.616-12.466 19.854 2.1716 3.7838 1.443 4.5781-2.4283 2.6468-11.297-5.6356-22.092 12.221-13.889 22.975 4.82 6.3193 16.133 7.1053 22.678 0.95654 3.4826-3.2718 3.4363-1.6887 0.85725 5.1343-2.2463 5.9427-4.7174 10.742-4.7174 10.742l19.65 0.393s-5.1374-10.033-6.5374-17.14zm-423.56 236.82s-28.268-81.524-37.827-120.56c22.198-51.542 52.346-101.39 3.4324-176.5l120.89 1.0097c-38.29 84.257-41.47 297.96-50.25 298.38zm11.663-94.92s-5.877-8.2773-6.1681-14.932c-0.67141-4.2738 0.43209-4.5231 2.6034-0.14919 10.636 12.022 25.339 0.6927 25.523-9.8473 1.345-9.6303-9.8449-18.022-17.143-13.288-5.1141 3.3168-6.4833 2.3344-1.8858-3.8968 6.4749-8.7758-0.34487-20.366-11.751-20.366-14.839 0-20.674 13.8-10.15 23.811 7.7742 7.3949 0.49982 2.9962-5.7094 0.31321-12.091-5.2247-20.195 7.0566-14.884 19.604 3.6648 8.6586 14.683 11.028 21.237 4.1236 3.59-3.7823 6.8935-5.9854 4.9058-0.22906-1.0585 4.6606-6.5968 14.505-6.5968 14.505zm20.17-129.94s-7.0583-9.053-8.2175-15.817c-0.39232-2.49 1.362-1.8406 5.3879 1.6942 12.883 11.311 30.974-8.5092 18.99-20.874-4.1186-4.2493-8.3398-5.5147-13.234-3.0279-6.1066 3.1028-5.6028 1.5703-2.5365-1.6755 4.4956-4.7588 4.2638-13.537-0.47113-17.852-13.093-11.931-34.216 5.395-22.066 18.128 5.2891 5.5427 2.7601 4.8024-3.0881 1.2147-11.065-6.7881-23.597 11.331-15.35 22.143 9.823 8.4932 17.301 4.4517 24.216-0.73828 1.4974-0.76989 2.7908-1.1121 2.7908-0.46442 0 1.2109-7.0438 17.29-7.0438 17.29zm-158-52.356c-7.369-0.57375-11.874-69.552-2.6145-91.276 20.248-91.841 79.663-158.24 116.81-214.21 59.514-83.318 53.784-222.87 56.212-217.28l8.2983 1.059s-7.3391 81.691-4.1158 118.67c3.4194 32.523 2.5677 34.534 0.206 37.728-0.64807 3.021 0.16292 11.884-0.53002 14.917-27.41 119.98-91.007 242.94-156.3 335.59zm604.67-203.39-194.36-314.14 47.588-3.7492c17.332 28.149 186.22 296.6 186.22 296.6z" fill="#d40000"/>
   <path d="m-105 1114c23.415-82.22-35.398-274.71-73.208-300.19 44.691-1.3874 98.409 0.0164 96.761-4.183 0 0 186.63 300.88 185.06 302.45-1.4799 1.48-208.61 1.9294-208.61 1.9294zm775.1-459.32c-45.962-7.0534-27.382-45.063 2.2609-48.7-3.8615 0.59948 3.382-18.963 27.342-26.64 5.5307-9.7697 9.9703-26.512 15.019-34.252-14.361 4.491-31.884 16.387-96.784 6.1323 6.0043-30.741 68.245-35.301 90.615-30.289 12.916 3.1526 25.483 22.588 29.414 23.038 39.987-6.2049 90.363 30.468 74.594 66.951-2.439 5.2001-8.3816-6.2998-21.765-11.322-43.252-16.23-46.031-39.765-55.9-50.399-3.6225-0.72226-23.25 37.068-23.25 37.068l5.7097 25.879c10.426-0.83757 56.397 28.281-1.4452 47.015-16.544 54.742-46.124 15.649-45.81-4.4799zm111.81-244c-2.4331-2.5279 2.1567-19.576 8.1107-29.346 3.2158-5.2768 10.549-8.7609 14.818-7.9624 7.6061 1.4225 6.2935 12.487-4.1647 44.811-0.47427 4.675-10.783 5.0517-18.764-7.5024zm-914.2-237.34c-12.633-0.18413-0.92058-34.41 6.9701-45.23 2.589-3.3558 12.591 3.9711 13.055 8.953 0.83121 8.9245-13.21 39.893-20.025 36.277zm-6.3625-233.67c15.377 3.8913 39.54 19.682 51.075 28.329 14.341 10.952 10.159 32.097 21.706 34.106 7.8585-3.7772 22.575-38.315 22.575-38.315s3.795-17.786-6.3356-23.389c-25.207-13.941-24.592-28.693-22.965-29.987 7.7389-19.411 22.671-15.775 30.774-16.77 0.29176-10.672 0.18833-33.205 22.253-30.636 19.3 2.0415 20.896 29.665 12.768 29.83-0.15046-0.46872 36.593-4.8579 35.965 19.341-0.34056 13.12-22.29 29.664-28.999 23.492 0 0 3.3411 26.198-29.637 34.796-7.7653 7.7316-14.407 40.912-14.375 37.959 20.02-17.679 51.114-21.529 100.03-14.559-30.979 55.92-114.59 28.657-121.03 17.699-42.075-13.206-81.485-30.231-73.805-71.903zm362.92-130.81c44.608 4.5521 93.613-8.9176 130.67-1.083 4.223 0.62382 8.7494 6.9334 11.281 8.3509 19.08 10.686 39.205 7.6538 70.229-3.693 7.6614-2.8021 149.23-0.12281 149.23-0.12281 31.719 47.997 88.061 138.25 89.34 135.23 0 0-78.473-1.764-114.65-0.02558-25.442 1.2224-10.532 4.8535-28.196 5.4222-124.76 91.538-150.55 292.07-150.55 292.07s39.435-9.9086 49.588 1.0585c50.22-141.73 143.29-205.67 271.91-191.52 59.438 6.542 129.79 65.848 129.79 65.848l-128.5 102.21c-98.093-50.863-141.99 95.339-112.07 96.042l258.77-206.76s4.1982 17.16 3.7516 17.733c-18.54 23.77-327.02 268.51-327.02 268.51l-13.257-14.977s-8.5163 7.3914-13.009 12.326c-0.52902 8.1235 2.2565 15.046 8.3521 21.476-61.103 47.927-64.098 137.07-19.995 186.25 0 0-19.814 1.1821-21.899 1.5152-25.207 4.0272-49.846-120.32 0.6679-177.49-24.611-49.62-39.365-116.92-42.482-120.07 0.58353 7.9158-39.776 4.8384-39.776 4.8384-4.1984 100.23-15.757 198.43-40.904 292.9l185.49 6.0581-80.508 136.19s-88.603-3.2038-126.76-6.2984c-39.606-23.641-62.786-6.2615-100.3 1.9104-53.25 0.97-131.6-2.38-131.6-1.66-25.998-53.09-54.133-92.22-92.454-137.91-4.8411-8.27 157.63-1.38 157.63-1.38s82.61-121.99 97.797-156.54c11.852-26.96 38.859-125.3 38.859-125.3 1.1393 5.1532-14.468-25.811-51.63-25.528-32.997 203.89-276.45 269.98-421.02 136.91l-1.096-23.765 324.72-257.44 14.115 16.686c-3.0476-2.4943-199.33 157.18-196.09 156.19 57.306 30.811 124.27 7.1334 117.62-91.988 46.036-32.506 86.903-70.514 127.1-109.33 0.86988-1.5255 43.275 98.113 41.993 117.18 25.119-8.1259 39.741 9.6612 39.302 6.6446-8.3604-57.44 44.276-274.29 45.51-299.28-27.866-2.5556-64.859-1.9399-122.83-4.8868 45.58 90.689 28.718 151.59-37.018 206.42l-13.429-17.263c5.4949 3.1407 95.947-73.39 25.102-190.02-3.3054 0.24002-37.985-3.5611-37.985-3.5611s72.434-112.13 76.21-128.07zm349.92-368.81s203.16-2.6178 203.16 3.3365c-7.6983 109.05 16.626 208.86 76.983 301.6 0 0-89.922-4.1905-88.293-3.0414z" fill="#e2cf00"/>
   <path d="m3920.8 104.59-1055.9-1.2953 6.5523 1694.8h1054.6zm-96.584 6.7188c-0.085-0.0924-13.613 179.29 79.984 296.78-57.175-8.6616-89.91 0.10092-123.2 23.621l4.5565 4.6906c45.851-28.17 84.687-20.759 124.49-16.371l-1.1 230.78c-0.2836 11.206-46.517 6.2024-75.75-15.781-13.882-8.1949-31.786-25.402-39.812-38.312-2.4412-3.9268-5.0099-7.8078-5.7187-8.625-2.6842-3.0918-19.361-34.155-49.969-92.969-15.562-29.903-36.136-70.697-52.844-102.31-10.816-20.468-30.926-59.138-32.344-62.219-2.9576-6.4282-24.853-49.145-33.375-64.688-22.511-41.056-58.857-112.69-71.822-138.37-2.8651-6.663-7.2263-9.7344 0.5805-9.5171 1.7336 0.042 3.4639 0.14861 4.4606 0.38612 1.3748 0.68596 3.0446-2.3595 3.0446-2.3595zm-940.25 970.44-0.668-18.147 306.87-253.09 9.7919 12.599zm296.5-443.31c-1.2314 0.45439-2.5802 0.91787-4.0578 1.3868-7.8867-35.143-3.3903-82.096 5.9032-117.4 13.536-49.004 38.813-88.307 66.954-127.8 64.329-90.194 92.817-158.18 91.665-279.34l9.1952 0.97949c-0.3882 19.137-2.9191 33.532-3.6588 58.995-1.1523 27.286-0.6957 48.033 2.2062 74.675 1.4261 13.092 2.2825 21.578 0.078 23.281-1.05 0.85365-2 5.3838-1.0377 7.0499-0.1543 3.6338-0.6483 10.89-0.6483 10.89-14.734 72.135-93.743 257.1-166.6 347.28zm38.373 163.99-16.258-19.951s-12.508-10.083-1.2669-21.48c32.488-32.944 32.705-74.819 1.2972-112.48-2.1108-4.7821 9.7579-28.939 9.7579-28.939l24.726 0.40747c38.566 46.924 49.086 129.83-18.255 182.44zm22.723-186.21c0.77-3.2108-36.641-1.9712-36.641-1.9712 23.236-34.637 43.001-70.267 62.421-105.99 30.126-54.074 71.904-148.81 84.998-217.48 9.7509 80.315 23.932 199.52 92.66 204.22 22.535 1.5418 48.63-13.899 52.885-11.346l142.78-1.131c29.282 59.37 60.742 97.619 97.991 138.23 26.769 15.264 59.416 27.347 90.969 35.188 17.924 4.4535 19.645 1.4892 55 6.5312 9.3322 1.3309 23.549-2.612 23.406-2.612-28.245 22.282-60.834 15.969-96.724 6.4282-2.0075-0.53367-4.1155-1.1553-6.213-1.897l-27.099 40.768c-60.319-14.295-253.97-4.1752-305.02 206.37 0 0 5.2482 2.6769 4.023 1.2248 40.547-182.75 211.81-219.18 293.46-200.98l-7.02 10.717c-135.48-16.57-245.78 68.164-272.05 188.32l2.6145 2.3723c50.838-181.67 264.55-248.89 397.04-122.96l24.303-17.208-0.7846 23.292-325.75 272.92-13.029-13.473s-2.2935 1.7368-4.8914 3.9001c-8.4039 6.9963-11.722 8.7053-9.3657 12.61 2.3563 3.9052 11.494 12.702 11.893 13.686-54.03 44.026-71.172 128.93-19.835 188.39 5.7287 6.3014 4.6881 7.9938 3.6394 0.8965-46.055-50.117-40.217-138.76 17.202-180.76l11.572 15.163c-25.28 55.509-38.765 142.09 27.712 149.58 23.817 63.822-3.5835 139.44-34.17 190.14-32.413 58.399-71.692 106.94-96.216 170.54-11.916 26.541-30.88 105.26-29.88 165.42l-7.1454-0.073c-0.01-24.548 1.631-53.655 1.8319-72.264 0.9997-90.721 0.8693-85.337 2.9103-87.64 0.675-0.7645 2.5776-1.5697 2.7584-2.2074 0.2707-0.9549-1.4847-2.8355-2.1753-5.0506-0.7079-2.2725-1.9102-6.2674-1.7897-9.6267 0.1205-3.3612 3.2719-8.2618 2.6705-9.3552-14.299-50.065-15.474-140.04-61.631-181.37-22.633-19.437-52.698-20.221-91.633-4.2742-85.923 0.1535-73.185 4.5692-142.57 0.6082-28.707-52.554-63.52-103.74-101.18-141.7-17.606-19.633-42.084-30.388-65.1-44.616 9.2315-17.511 19.705-30.316 31.146-38.627 2.3785-3.3856 3.9922-7.0395 7.0642-9.9079 233.97 22.479 284.71-204.11 274.03-198.35l-2.0725 1.7956c-63.967 233.46-291.61 224.96-406.04 124.03 0 0-16.166 14.043-16.221-1.3676-0.048-14.009 5.0659-18.066 5.0659-18.066l321.17-261.9c5.8691 3.7382 12.195 16.184 14.828 14.789 5.9173-3.144 14.634-9.4582 14.365-13.221-0.2063-2.8919-11.743-21.068-11.743-21.068 85.92-88.955 47.165-128.69 19.585-189.65zm121.75-499.94c1.5469-0.0114 3.0068 0.72193 4.0937 2.4375 1.9581 3.0908-5.8382 21.133-10.656 24.312-4.5588 3.0092-4.8916-0.48841-1.5937-17.938 0.967-5.1164 4.7511-8.7875 8.1563-8.8125zm471.25 0.3125h74.403l0.5466 285.71c-55.594-78.139-83.748-168.12-74.95-285.71zm-451.28 0.6875c1.8573-0.083 3.4944 0.43225 4.0313 1.7812 1.9081 4.8117-9.0006 25.623-22.5 42.875-7.0037 8.9482-10.535 11.542-12.719 9.4062-1.8449-4.0727-1.7901-8.8092 4.6562-16.25 5.3154-6.1336 14.367-20.477 18.098-28.508 1.6092-4.7081 3.2131-8.9674 8.4333-9.3042zm76.386 1.0207c2.1674 0.0191 4.3942-0.0161 5.0208 1.0105 12.984 26.485 37.443 50.385 62.469 63.156 3.6493 2.0712 1.9275 7.2682 3.1563 10.916-28.112-4.1772-65.007-44.003-74.875-73.073-0.053-2.1065 2.0598-2.0296 4.2292-2.0105zm43.958-0.0207c5.5937 5.6802 14.394 12.545 16.375 19.031 1.2168 3.9766 2.1055 8.5418 1.25 10.688-4.8839 3.0534-29.156-25.104-28.219-28.396 3.0848-2.028 6.962-2.4578 10.594-1.3229zm-105.25-0.40625c2.3863 0.092 6.03-0.0435 6.5626 1.75 3.0324 12.282-25.012 60.13-45.469 73.688-7.2697 4.8179-7.738 3.5525-7.1562-4.5312 0.3896-5.4327 0.9121-5.0001 8.375-12.125 10.654-10.174 22.287-25.868 28.687-39.781 8.2078-17.839 6.201-18.959 9-19zm19.031 0.1875c2.6685 0.004 5.1566 0.9075 5.8437 2.0938 0.9323 1.6061-0.3171 4.2145-1.1874 7.4375-9.2393 26.151-32.209 63.781-59.188 85.156-10.49 8.0894-12.269 8.0396-13.031-0.3125-0.4429-4.8549 1.7874-6.2698 6.7188-9.6875 22.888-15.868 43.454-43.406 52.156-71.531 1.6948-5.4777 1.0501-10.396 4.0312-12.062 1.3813-0.7709 3.0552-1.0961 4.6563-1.0938zm142.03 45.312c1.0952 1.8784 8.9474 14.155 2.5312 9.5312-2.6332-2.1602-7.4146-7.6009-15.031-16.25-18.012-20.451-18.554-19.183-18.198-24.271 0.1767-6.6279-4.5647-17.506 5.6788-14.684 10.073 11.832 16.4 30.912 25.019 45.674zm-82-44.906c2.0404-0.0358 4.4575 0.34383 6.4687 0.75 11.86 22.296 40.811 41.871 40.698 41.771 0 0 0.7304 9.7014-0.323 11.416-0.6033 2.9898-45.984-31.489-51.031-52.125 0.4835-1.3299 2.1452-1.7767 4.1876-1.8125zm-32.295 0.40674c10.654 19.573 32.64 63.993 84.295 81.937 3.714 0.80943 7.6718 11.38 4.8258 14.29-28.324-8.2118-79.7-35.943-97.149-95.956 1.6989-1.596 6.2162-1.3501 8.0275-0.27042zm-13.872 3.8019c-1.7721 0.03 24.391 75.529 98.917 98.041 6.4446 2.0211 10.223 4.8104 9.8124 8.625-0.5154 4.8077-0.3601 5.4064-7.5312 1.8125-20.331-10.62-49.311-15.592-73.514-3.2935-3.776 1.9189-7.6085 7.1536-4.5667 10.452 1.7362 1.6763 6.0092 0.42973 11.455-1.6897 28.171-10.963 71.291-4.5148 78.906 12.719 5.4076 12.233 6.3278 21.249 3.375 22.75-2.2536 1.1461-6.0778-2.966-12.812-8.875-21.435-18.805-47.063-24.035-67.438-5.9688-4.409 3.91-8.774 3.2335-10.312 4.8438-1.494 1.5617 0.279 5.073 1.5312 8.5 1.3103 3.586 1.3664 4.5653 0.062 7.5938-1.7848 4.147-1.8522 9.4557-1.6563 13.406 0.4797 9.6298 6.8537 17.924 25.188 30.625 14.281 9.8939 25.446 15.455 8.0624 1.375-30.002-24.303-35.447-34.201-16-25.781 19.417 7.8037 46.341-0.0185 65.406-14.562 6.4908-0.10885 10.352-1.2416 13.771 1.25 14.22 33.383 25.847 77.806 44.751 120.87-22.573 25.507-101.18 87.971-157.22 85.743-48.39-1.9238-65.476-81.124-76.178-124.89-3.6013-18.521-7.7156-37.371-7.2187-63.531 0 0 0.8769-0.70403 2.125-0.46875 8.1138 1.5319 22.069 2.5938 29.156 0.9375 12.878-3.0095 15.465-5.3032 16.219-3.4062 0.8873 2.2376-4.4744 7.2727-13.844 13.688-4.0753 2.7902-15.938 8.507-14.688 9.3438 2.835 1.8965 17.188-5.7411 19.594-7.7812 3.7538-3.1814 6.3295-3.381 8.125-1.625 2.1041 2.0559 2.5367-0.13427-4.4062 17.094-7.6515 18.986-6.9176 20.708 8 32.406 5.1881 4.0683 9.9285 8.1313 11.062 9.9062 1.4307 2.3325 2.4002 5.0837 3.0625 5.9688 2.5234 3.3724 0.9752-2.0584-0.5312-10.688-1.7413-6.3856-8.0007-12.728-12.438-15.812-8.1417-5.6619-6.8814-11.216-0.1383-30.5 19.886-56.872 14.815-82.238-7.0804-94.594-9.8725-5.571-37.516-4.0839-46.229 3.1976-4.292 3.5868-3.7055-3.4562-3.0213-3.9265 52.524-36.102 64.842-70.538 78.24-103.75zm101.38 27.866c14.907 14.795 33.46 34.888 44.634 49.176 6.1356 7.6187 9.368 15.435 14.25 23.438 0.9282 1.4501 1.8474 3.1065 1.1875 3.7812-0.2469 0.28723-2.381-0.95334-3.5625-1.8438-10.926-8.2343-56.031-59.597-56.031-59.597-2.0823-8.4328-3.5277-11.308-0.4778-14.954zm8.9154 34.863s39.083 42.67 61.469 63.656c4.4056 9.2468 12.839 22.567 12.625 24.812-0.094 0.99126-4.7813-2.625-4.7813-2.625-24.74-22.792-47.595-48.409-71.344-72.688 0.2247 0.12842-1.8786-10.048-1.9063-14.156 0.5403-2.0114 2.9132 0.20726 3.9376 1zm84.781 109.38c5.2584 8.5566 9.0944 16.219 11.625 21.25 4.1747 7.9666 2.7784 8.1927-0.9062 5.25-27.963-22.886-51.379-50.749-77.719-76.281-3.4211-3.5207-10.25-11.344-10.25-11.344 0.2426 0.28336-8.5819-18.4-3.0415-18.025 4.3323 1.6865 7.1814 6.3946 9.9782 9.3899 13.811 14.791 40.124 40.212 70.313 69.76zm-243.94-60.99c11.53-0.34647 22.894 2.6353 28.625 9.7084 5.2146 6.4353 7.3209 16.616 4.4287 19.574-1.8053 1.846-8.21-3.3549-8.21-3.3549-27.156-15.238-36.513-7.8984-51.25-3.4271-2.1022 0.6378-4.3363-5.0288-1.6459-10.633 5.4083-9.3158 19.116-11.598 28.052-11.867zm170.91 14.427c29.051 29.126 58.565 61.482 90 86.531 4.4048 3.7547 7.4295 6.1659 9.4374 8.1875 4.1501 8.226 13.696 27.808 13.696 27.808-33.689-23.553-109.58-104.76-108.74-104.22 0.7595 0.37977-6.3527-14.858-4.3928-18.31zm-56.864 4.8226c5.3051-0.0505 11.121 1.6157 15.707 3.435 14.638 5.8068 23.85 11.993 8.6883 9.9298-21.095-2.8704-28.306-3.0223-36.031-1.7812-14.347 2.3048-15.466 3.9026-16.719 1.625-3.2915-5.9821 12.44-13.057 28.355-13.209zm-119.7 1.66c5.2873-0.0329 11.033 1.1353 16.656 3.5938 17.895 7.824 21.047 12.919 5.8125 10.469-7.9051-1.2717-22.404-1.1417-32.781 1.5312-3.2907 0.84778-6.9303 2.7595-7.7812 3.0312-3.6812 1.1756-4.6992-1.573-3.125-6.1875 2.7195-7.972 11.123-12.375 21.219-12.438zm129.55 22.831 3.6929 0.2698c-4.6141 26.136-30.716 23.586-37.744 1.1387l3.693-0.0816c13.749 21.466 24.03 8.8405 30.358-1.3269zm14.543 1.3564c12.062-0.13431 11.282 7.1086-1.2813 11.969-9.629 3.7254-10.715 3.0528-7.1874-4.1562 3.3894-6.9308 3.0423-7.7521 8.4687-7.8125zm-124.28 0.94077c1.1768 23.548-31.634 27.864-33.648 2.184l3.1205-0.1526c10.752 20.193 23.169 8.0021 27.046-2.0301zm14.594 3.2155c3.713 2.5358 1.4076 6.0188-6.6562 10.938-7.2753 4.5264-9.1477-0.946-3.1509-8.5351 2.5177-2.4483 6.6518-4.4713 9.8071-2.4024zm56.906-0.0312c1.4352-0.45255 4.8371 5.9148 1.9376 7.4375-1.725 0.90487-4.2753-1.6998-4.5626-3.625-0.2257-1.523 0.7358-3.216 2.625-3.8125zm98.25 1.4688c21.896 24.122 43.94 48.342 108.41 100.84 0 0 9.1077 16.199 11.094 22.531-1.5662 1.9305-2.3863 1.7101-6.9062-0.53125-42.043-32.458-81.133-71.934-111.75-108.62-1.4541-5.1802-4.6976-10.176-0.8438-14.219zm-208.75 2.4062c2.4859-0.0836 5.995 5.472 4.0626 8.8125-1.6001 1.2548-4.0784-0.69221-5.1563-2.2188-1.0707-1.5163-1.0385-4.3006-0.375-5.5312 0.388-0.71963 0.8955-1.0432 1.4687-1.0625zm217.91 33.406c-0.1718-0.84068 101.83 102.54 114.91 100.56 6.0953 3.585 21.25 32.969 21.25 32.969 0.4354 0.93081 0.3664 2.6548-2.0938 1.4375-17.241-8.5307-89.333-68.346-126.19-112.88-2.6954-6.4847-5.9587-14.725-7.875-22.094zm-121.24 15.181c17.785 8.5935 10.133 26.214-8.6362 15.007-14.793-8.9904-26.524-9.8064-26.438-2.0312 0.037 3.2881 4.0655 7.5122 7.9688 7.4688 7.3132 0.47001 13.938 3.1471 21.125 4.7188 11.21 2.4059 19.593-0.56962 22.399-7.3728 4.7627-11.547-6.5614-24.148-14.023-23.478-7.4616 0.66992-5.5841 4.2448-2.3964 5.6875zm140.83 28.257c-1.246-1.0902 50.718 55.845 121.56 102.88 2.7495 3.174 9.5937 19.598 10.687 21.812-0.2823 1.5473-1.8437 0.0312-1.8437 0.0312-35.778-20.684-83.008-61.701-127.75-108.25 0 0-4.3043-10.319-5.625-17.031 0.9708-0.44757 2.0291 0.1378 2.9687 0.56255zm-117.9 20.48c-1.6164 0.22318-3.7707 2.657-6.4375 4.125-5.4491 2.9996-7.1723 3.7984-20.562-0.21875-7.264-2.1792-8.4411-2.0263-12.781 1.1875-3.792 2.8065-5.8949 3.2711-10.125 1.375-7.6121-3.4121-11.139-0.93058-18.188 1.5312-6.713 2.4277-9.0186-0.52992-15.062-1.9062-0.7985 0.009-1.1409 24.377-0.3438 25.156 0.2766 0.27055 6.2838-3.6738 9.6875-5.4062 5.855-2.9801 5.0155-2.5071 13.562-2.1562 12.618 2.1768 25.112 1.4427 33.562-1.875 10.518-2.9735 18.737-2.4205 26 3.5312 4.4107 3.6142 10.263 3.0232 6.8437-3.625-1.1806-2.2969-3.8528-10.759-3.5312-13.906 0.4808-4.7059-0.5638-7.7178-2.3125-7.8125-0.103-0.006-0.2047-0.0149-0.3125 0zm134.75 19c23.916 22.935 53.407 57.939 122.78 98.5 3.6148 6.3331 8.5004 14.747 11.594 21.312 0.283 1.8194-0.1637 3.4387-1.9375 2.8108-42.869-27.173-66.701-40.373-126.12-98.936-3.6937-5.9375-7.6289-16.043-10.688-24.281 0.6465-2.3243 3.3929 0.003 4.375 0.59375zm-10.094 8.75 26.531 49.812-89.344-0.1875c22.705-13.532 44.377-31.569 62.812-49.625zm-148.09 1.125c-14.67 5.8311-16.887 7.0448-31.438 3.5-8.4776-2.0653-6.152 2.8491-1.8127 4.8816 10.978 5.1422 26.88 1.5125 32.774-2.5533 3.8891-2.5056 6.5499-8.2427 0.4758-5.8283zm-15.062 15.375c-15.364 0.21563-29.858 5.5706-30.938 11.812-0.2086 1.206 1.0483 2.5633 3.4375 1.125 10.411-6.2676 36.257-8.3122 55.812-1.25 3.1668 1.1437 3.7155-0.82487 0.4375-3.5312-7.3164-6.0405-18.238-8.3038-28.75-8.1562zm195 21.281c28.919 26.69 56.829 51.244 119.07 86.972 4.4802 9.7756 10.963 21.471 12.104 22.488-58.332-28.312-121.9-84.188-121.9-84.188s-10.006-17.823-12.302-25.46c-0.2082-2.5763 2.2159-0.45646 3.0312 0.1875zm19.916 41.581s53.251 45.037 113.96 75.607c2.4602 2.3617 8.5698 16.852 10.562 18.406 2.0113 1.5685-2.4086 1.564-6.7813-0.6875-31.7-14.65-99.9-61.48-99.9-61.48-6.5382-10.71-15.893-21.854-17.834-31.857zm-637.28 188.19c4.8696-10.415 9.8384-22.003 13.06-31.457 14.498 0.15164 21.624-5.2826 26.768-11.826 7.3447-0.20076 12.966-0.17206 22.971-0.46029-0.3268-9.8926 0.1254-23.893 0.1254-23.893 10.144-10.442 17.021-22.503 1.2994-40.958 0 0-0.633-8.6014-0.8623-23.273-7.2464-1.1544-23.495-0.4069-23.495-0.4069-13.133-18.485-36.433-13.826-43.496-0.008 0 0-10.469 0.57527-17.653 0.60265-0.1477 3.91-1.3859 21.236-1.3859 21.236-0.0001-0.00012-30.621 20.883 1.1473 45.493l-0.4291 20.677c5.9452 0.47791 10.206 0.0777 17.961 1.5659 0 0-12.152 28.219-20.143 41.611-2.7316 0.71787-2.0807-0.8526-5.3861-10.209-3.9744-11.031-12.963-23.094-20.589-29.03-10.337-7.9738-24.479-10.449-34.344-17.375-9.5103-6.6772-16.226-15.291-19.25-13.688-0.9842 3.3532-2.0766 22.619 1.5 35 5.0436 20.365 34.341 33.349 58.812 43.094 1.8821 1.2158 3.5551 3.0554 3.5625 3.7188 0.037 3.3694-3.219 2.3315-11.25 1.5312-12.133-1.209-17.149 2.1079-21.406 12.469-1.2727 2.5552-4.2949 6.9576-6.75 9.875-2.4531 2.9174-5.0165 5.7608-5.375 7-0.3564 1.2392-2.8778 7.5281-5.375 12.781-1.5364 3.2346-4.0946 6.6248-4.2812 11.406-0.5697 14.596-0.7873 34.205 1.4062 46.562 1.6134 9.0783 13.083 14.294 17.031 15.031 6.0635 1.132 7.1687 7.2797 6.2187 12.312-4.6733 24.81-18.957 39.995-23.531 31.844-1.2028-2.1437-2.4755-12.283-2.8125-12.156-0.219 0.0821-2.393 8.6216-1.5625 12.094 0.8937 3.7364 5.6681 6.487 10.375 4.7812 6.9815-2.53 12.476-9.4482 16.812-25.188 1.7741-6.4395 3.4534-10.034 6.4687-10.5 5.5179 0.38039 14.125 11.75 14.125 11.75-28.658 23.878-83.818 67.23-83.818 67.23l-2.0569-782.23 454.05 0.88155c2.5281 62.01-4.9988 114.18-27.269 169.43-26.39 59.508-67.344 103.74-98.68 158.51-37.836 66.13-49.95 134.72-37.063 203.72-38.657 50.6-71.221 74.889-102.14 98.398 0 0-23.182-24.369-36.059-38.006 0 0 5.4334-0.4497 11.787-0.70703 29.372-3.2936 61.162-7.4563 73.438-38.031 1.7491-3.3988 1.0136-4.9058-1.0626-5.375-22.996 3.1883-42.978-0.047-56.023 0.87475-31.893 2.2535-45.37 13.306-45.37 13.306zm3.5027 22.511s-36.904-17.539-39.641-18.035c-16.089-2.9161-54.884-23.132-61.438-36.875-0.8548-1.7925-2.9998-26.866-3.6875-32 0.2346-1.6355 0.8908-1.5796 2.5-0.40625 4.1436 2.8568 20.221 13.335 26.156 16.219 24.512 11.909 33.998 20.391 40 38.312 1.5055 4.4896 3.078 9.1624 3.9688 10.125 1.9625 2.1206 2.791 1.9427 5.25 0.0625 10.502-13.591 15.418-24.911 20.282-39.5 0.6311-1.6258 1.9977-3.2894 1.1918-5.6429-1.9179-6.4409-6.6283-14.783-1.8109-21.087-15.358 0.70267-30.056-10.519-28.182-21.761 4.0898-20.83 12.932-17.075 29.491-20.11-1.9138-48.172 43.176-36.473 43.063-2.9206 49.533 4.17 26.126 49.976-2.6478 42.97 11.412 26.028-22.87 35.791-27.687 31.364-1.9355 8.4103-14.989 35.495-17.769 43.546 36.703-26.013 95.758-14.466 104.31-16.135-21.325 44.595-91.036 33.74-93.35 31.874zm660.89-164.19c9.3213 7.176 88.353 56.601 102.94 57.719 0 0 6.9835 7.8388 12.75 14.969 5.3716 6.644 7.3487 7.6892 7.9687 9.0312 0.6161 1.3336-2.026 1.2677-2.4687 1.2188-35.554-15.455-71.726-31.717-102.47-57.406-4.1507-3.5213-5.0816-5.1265-7.125-7.8125-2.7092-3.5858-10.75-16.383-11.594-17.719zm26.192 39.87c36.146 20.313 66.87 40.007 99.808 50.599 4.6968 1.7609 7.0963 1.8797 9.4376 3.5312 2.3393 1.6516 12.378 7.86 14.75 9.25 15.028 8.8141 16.569 8.3975 12.844 9.875-4.1273 1.6368-30.517-6.0702-52.812-14.312-39.551-14.621-53.54-22.915-67.844-35.812-3.2217-3.3358-18.25-21.305-16.183-23.13zm-720.6 113.28c3.0492-0.0686 7.9211 1.8264 13 5.7188 5.4316 4.1644 18.773 12.886 24.281 15.25 2.8177 1.2091 3.6973 1.5187 3.6973 1.5187l35.547 40.351-91.521 74.398s-7.4292-7.6014-9.7946-10.143c-2.235-2.4011-1.5916-4.4027 1.1963-7.1252 2.2367-2.1843 2.4065-6.9248 2.0312-9.25-0.5568-3.4494-0.4686-7.3416 3.9063-10.562 3.5268-2.5966 4.0747-7.1463 3.9063-8.4062-0.1346-1.0073 1.9101-4.3321 4.9687-6.5625 6.4235-4.6843 8.3579-10.382 6.1875-17.094-0.9088-2.8103-1.3988-3.545 2.2812-6 6.5351-4.3583 8.1626-8.4766 8.6563-14.844 0.078-1.0091-0.1921-2.0775-0.3437-2.875-1.289-6.7697 4.6858-5.0563 9.5937 3.4375 2.6756 4.6305 3.4387 12.23 4.7813 20.875 1.5807 10.193 2.6633 12.971 3.2187 11.531 3.1735-8.2264-0.5712-39.12-9.9687-43.312-13.739-6.1287-25.222-18.625-21.781-23.531 1.1926-1.7003 1.4022-1.1173 9.7813 2.75 4.9048 2.2643 9.4447 4.1035 10.125 4.125 9.6952 0.30715 3.8129-3.8439 0.6562-4.2812-3.7942-0.52571-15.137-7.4239-16.469-9.8438-2.2118-4.0246-0.9886-6.0564 2.0626-6.125zm-23.406 5.3125c8.9415-0.0996 10.657 2.2981 10.75 10 0.055 4.5441 1.7506 8.0416 8.875 17.094 2.9044 3.6903 4.8455 6.521 4.6563 7.9688-0.3142 2.3882-1.1765-0.0874-11.031-1.25-3.4981-0.41267-5.2762-0.47109-6.5 1.3438-3.3935 5.0323-10.578-0.20966-15-7.625-10.541-17.679-6.8236-27.364 8.25-27.531zm170.39 10.657 97.299 119.08-10.976 8.5218-97.664-117.46zm-16.268 7.3113 10.422 17.596s-30.149 25.759-38.078 33.029c-64.052 51.87-208.65 169.62-208.65 169.62l-1.9452-23.68zm-175.62 3.1875c1.9003 0.0476 4.0739 2.4532 7.1563 7.1562 2.6702 4.0767 8.3949 12.253 14.5 17.875 11.856 10.922 13.001 9.9314 3.375 10.969-3.8255 0.41202-5.0732-0.0446-7.4063 5.7812-7.0629 8.8071-27.918-22.741-23.031-34.812 1.9097-4.7128 3.506-7.0164 5.4063-6.9688zm33.938 17.031c1.7588-0.0846 4.0753 0.57763 6.7812 2.2188 5.165 2.1178 5.5068 3.3522 4.6563 8.2812-0.8139 4.7172-4.4057 5.939-11.469-0.28125-5.3668-5.0546-4.4634-10.003 0.031-10.219zm155.3 2.9151 11.432 14.758-259.49 209.84 0.061-24.151c6.3259 0.81519 172.72-143.77 248-200.44zm-201.24 2.3974c0.6931-0.14451 1.7768 2.233 4.6563 6.5625 5.8589 8.8152 11.239 14.626 17.375 19.25 5.7996 4.3722 6.4505 6.8143 2.4687 6.8438-1.6999 0.0126-4.0282 1.804-5.25 3.9062-2.4546 4.2232-2.6703 3.2227-6.4687 1-5.4263-3.1741-10.864-7.966-13.031-14.25-2.0424-5.9207-2.2694-14.93-0.5937-21.5 0.2922-1.1472 0.5286-1.7468 0.8437-1.8125zm40.969 16.75c6.613-0.22933 11.372 7.464 7 13.688-2.4313 2.3701-4.6258 3.5093-9.4687 0.65625-6.3917-3.7655-7.5484-9.5641-2.3125-12.812 1.6325-1.0128 3.2556-1.4783 4.7812-1.5312zm-42.562 16.656c1.391-0.0637 3.8941 1.9409 8.0937 6.25 3.2229 3.3069 8.8207 6.1246 11.062 7.375 5.026 2.8034 5.2636 3.7792 2.5312 6.0312-1.1642 0.96026-4.992 1.0228-6.0312 4.0625-2.9736 8.6977-15.581-1.408-16.781-13.844-0.6114-6.3131-0.6654-9.7931 1.125-9.875zm31.687 1.0312c8.276 0.34509 12.187 10.002 5.5938 14.75-3.5937 2.5876-12.654-1.9806-13.562-6.7188-0.5851-3.0509 4.8224-8.1625 7.9687-8.0312zm193.49 7.1774c4.8003 0 8.6874 3.8874 8.6876 8.6875 0 4.8001-3.8873 8.6875-8.6876 8.6875-4.8001 0-8.6874-3.8874-8.6874-8.6875-0.0002-4.8001 3.8873-8.6875 8.6874-8.6875zm-25.969 3.5938c4.8001 0 8.6875 3.8874 8.6875 8.6875s-3.8874 8.6875-8.6875 8.6875-8.6875-3.8874-8.6875-8.6875 3.8874-8.6875 8.6875-8.6875zm-174.03 11.604c0.5269-0.0297 1.084-0.0279 1.6563 0 7.9717 0.38865 8.3959 7.9773 3.6563 12.062-2.8331 2.4402-5.3977 3.2116-9.0626 0.28125-6.5468-5.2374-4.1248-11.899 3.75-12.344zm193.37 12.709c4.8002 0 8.6875 3.8874 8.6876 8.6875 0 4.8001-3.8874 8.6875-8.6876 8.6875-4.8001 0-8.7187-3.8874-8.7187-8.6875s3.9186-8.6875 8.7187-8.6875zm762.72 0.51007 0.4085 21.97-306.82 255.22-10.379-13.555zm-780.36 1.874-22.68 50.938-6.8138-13.129-16.963-0.009 5.2039-15.193-9.9879-12.152zm482.83 211.86 40.374-32.368c-17.38-87.689 51.998-122.58 117.88-97.107l40.992-34.938c-76.064-64.047-254.93-20.602-199.25 164.41zm-546.1-171.36c4.8001 0 8.6875 3.8874 8.6875 8.6875s-3.8874 8.6875-8.6875 8.6875-8.6875-3.8874-8.6875-8.6875 3.8874-8.6875 8.6875-8.6875zm-26.375 2.125c4.8001 0 8.4113 3.6112 8.4113 8.4113s-3.6112 8.995-8.4113 8.995-8.6875-3.9186-8.6875-8.7188c0-4.8001 3.8874-8.6875 8.6875-8.6875zm140.37 17.639-40.026 32.046c10.343 83.962-30.502 126.72-118.31 97.932l-42.468 33.688c114.73 78.914 264.88-22.808 200.8-163.67zm-123.19 7.5798c4.8001 0 8.6875 3.8874 8.6875 8.6875s-3.8874 8.6875-8.6875 8.6875-8.6875-3.8874-8.6875-8.6875 3.8874-8.6875 8.6875-8.6875zm842.01 2.2018c4.8001 0 8.7187 3.8874 8.7187 8.6875s-3.9186 8.6875-8.7187 8.6875c-4.8012 0-8.6865-3.8874-8.6876-8.6875 0-4.8001 3.8864-8.6875 8.6876-8.6875zm-859.98 2.0766-25.591 50.623-6.3753-15.243-17.181 0.23711 5.549-17.671-10.745-9.0781zm825.61 5.3293 7.9573 13.393 16.8 0.40858-6.3202 12.747 12.133 12.504-54.736 13.448zm-886.67 36.762c4.8001 0 8.7181 3.8874 8.7188 8.6875 0 4.8001-3.9187 8.6875-8.7188 8.6875s-8.6875-3.8874-8.6875-8.6875 3.8874-8.6875 8.6875-8.6875zm-25 0.96875c4.8001 0 8.7179 3.8874 8.7188 8.6875 0 4.8001-3.9187 8.6875-8.7188 8.6875s-8.6875-3.8874-8.6875-8.6875 3.8874-8.6875 8.6875-8.6875zm869.35 5.1647c4.8001 0 8.6875 3.8874 8.6875 8.6875s-3.8874 8.6875-8.6875 8.6875-8.6875-3.8874-8.6875-8.6875 3.8874-8.6875 8.6875-8.6875zm87.881 1.3454 0.3807 19.292c-80.052 70.657-248.39 207.03-248.39 207.03l-10.475-13.452s171.27-139.95 258.49-212.87zm-939.82 18.818c4.8009 0 8.6868 3.8874 8.6876 8.6875 0 4.8001-3.8867 8.7188-8.6876 8.7188-4.8001 0-8.6874-3.9186-8.6874-8.7188-0.0008-4.8001 3.8873-8.6875 8.6874-8.6875zm869.72 2.0871c4.8001 0 8.6874 3.8874 8.6874 8.6875s-3.8873 8.7188-8.6874 8.7188c-4.8013 0-8.6864-3.9186-8.6876-8.7188 0-4.8001 3.8863-8.6875 8.6876-8.6875zm-24.594 1.5625c4.8001 0 8.6875 3.8874 8.6875 8.6875s-3.8874 8.7188-8.6875 8.7188-8.7174-3.9186-8.7188-8.7188c0-4.8001 3.9187-8.6875 8.7188-8.6875zm97.112 3.0777-0.7283 24.558c-77.573 66.133-236.24 197.5-235.69 197.57l-11.986-16.547s173.93-149.82 248.41-205.58zm-958.19-3.6094-23.933 53.99-10.328-14.536-15.107-1.0274 3.5967-14.605-13.872-9.4316zm829.84 21.327 15.279-2.9034-2.6657 15.639 10.738 11.274-56.286 12.369 27.207-50.461zm84.096 263.03c11.412 17.07 10.688 35.717 5.9111 38.574-5.0348-2.8341-9.4084-7.7579-14.619-10.005-26.226-11.311-47.163-20.598-50.908-37.234-14.282-37.634 50.105-5.5338 59.616 8.6645zm-137.83-99.97 88.227-71.83s13.525 6.9709 16.084 10.138c0.9118 3.4844-1.5271 4.5543-5.1233 7.7988-1.652 2.1156-2.6853 4.1502-2.7785 8.7281-0.1004 4.93 1.5265 7.1391-0.4656 9.3125-3.3255-0.1725-5.9823 4.1703-5.8404 7.6859 0.1084 2.6836-3.4023 5.656-5.4594 7.6781-3.6489 3.5866-4.7177 4.3334-7.0609 16.491-0.2345 1.2165-0.1538 4.3795-1.8689 6.0185-5.1007 0.4568-8.7998 12.944-11.125 13.737-3.723-0.2387-9.641-4.7895-11.085-11.513-0.9383-4.3694-0.6839-12.857 0.3492-18.322 1.2296-6.5076 1.7861-12.405 1.375-13.969-0.9525-3.6239-3.3481-1.398-3.3125 3.6875 0.015 2.0671-0.7817 8.2596-2.0938 14.094-1.3137 5.851-4.8808 13.619-3.2764 18.231 2.3927 6.8775 11.2 9.7869 15.171 13.427 10.446 9.5752 12.719 14.248 13.906 16.373 8.3537 15.27 8.3786 17.872 6.2873 29.361-1.2037 6.613-7.6508 5.4863-11.53 2.7998 0 0-24.809-18.053-35.605-27.021-16.355-13.584-27.838-27.466-34.775-42.905zm33.478 49.365c9.4635 3.8294 34.101 21.707 34.101 21.707l-22.44 46.682c4.0864 7.3136 5.7307 25.468 5.7307 25.468 28.383-2.1728 43.755 45.665-0.4475 41.247 5.0445 29.569-42.591 52.744-41.29-0.249-49.616 3.8538-32.954-52.354-2.3795-41.808-0.9157-23.818 14.963-26.904 26.164-32.754 9.1838-10.388 14.815-33.903 14.815-33.903l-2.2374-7.1743v0.0005c-9.4107 16.438-49.474 21.155-93.5 12.437 11.92-28.241 48.077-27.442 81.482-31.655zm-87.548 35.536c-1.4969 5.6259-1.5359 5.5618 5.25 4.875 3.4338-0.3477 17.235-0.3203 26.867 0.062 17.711 1.3807 45.594 1.5049 59.581-9.1528 2.7055-2.5804 4.1944-2.4056 4.7003-0.9928 1.1952 6.8814-12.387 29.52-12.387 29.52l-22.417 12.392s-9.175 0.4305-20.544 0.1561l-0.1991 20.167c-8.9092 5.2655-24.192 27.834 0.3729 45.137l-0.8102 21.962 21.654 0.3976c14.372 13.754 26.071 13.692 39.264 0.7372l24.967 0.02-0.098-23.722c12.308-9.8926 14.059-26.681 1.4769-40.094l-0.3088-24.073-19.213 0.122s-3.9743-3.0759-4.0854-5.5213c-0.014-1.581 14.026-28.634 16.714-32.498 3.4928-5.0227 2.5453-2.1505 8.1307 9.4427 7.9955 16.592 15.903 23.356 36.166 33.15 18.08 8.7409 24.541 12.822 29.785 17.827 4.1752 3.9847 6.6376 2.7304 8.25-3.2188 3.4872-13.229 2.4138-26.47-4.8715-38.578-15.379-25.561-42.166-26.74-46.425-32.654-0.5589-1.4095 4.8946-3.039 10.756-5.6595 10.142-6.1611 24.982-24.796 26.889-32.274-0.3471-3.6056 2.0357-14.959 3.7889-17.472 2.0208-4.4634 2.2467-6.5471 2.1563-18.531-1.8141-6.8394-0.1616-15.744 0.6874-18.812 0.9197-6.2187-2.3834-13.547-7.0789-22.542-1.7586-8.3522-1.351-6.18 4.0538-24.998 0.8799-3.0411 6.9561-29.257-0.8186-31.054 0.096 0.2328 0.8145 1.0369 1.0313 1.4688 1.3078 2.6289 2.0267 13.95 0.8437 17.156-0.468 1.2706-1.3523 4.5536-1.9687 7.3126-4.7117 21.064-7.4945 26.348-11.756 21.744-1.0148-1.0985-4.9066-2.6632-7.9002-4.6498-5.6541-3.752-5.1718-5.5953-3.7813-12.625 0.3414-1.0676 2.5814-10.732 2.3438-10.438-1.2228 3.3238-2.0446 11.895-5.9062 13.906-2.0704 0.4815-4.9273-1.36-10.313-6-2.0561-1.7715-6.4621-4.864-6.4621-4.864s63.765-53.667 87.466-71.459l-0.2078 794.85-450.7 0.1931c-5.6394-49.234 9.1648-114.37 33.682-179.62 15.152-40.322 36.917-70.235 61.46-106.33 47.051-68.828 82.644-138.71 68.922-227.3-1.7917-13.148-3.6007-19.446-2.9823-22.983 5.7173-10.73 28.404-43.265 44.987-56.81 24.334-19.877 58.193-49.574 60.908-47.814 8.0806 15.589 17.651 28.211 30.318 37.727 2.2291 2.4202 2.2869 4.546-2.8559 5.6258-33.592-0.3031-68.169 7.0758-79.386 36.791zm-782.6-225.76c4.8001 0 8.6875 3.8874 8.6875 8.6874 0 4.8011-3.8874 8.6866-8.6875 8.6876-4.8001 0-8.6875-3.8865-8.6875-8.6876 0-4.8001 3.8874-8.6874 8.6875-8.6874zm842.56 1.9688c4.8001 0 8.6875 3.8874 8.6875 8.6875s-3.8874 8.6875-8.6875 8.6875-8.6875-3.8874-8.6875-8.6875 3.8874-8.6875 8.6875-8.6875zm18.928 23.833c4.8016 0 8.6861 3.8874 8.6876 8.6875 0 4.8001-3.886 8.6875-8.6876 8.6875-4.8001 0-8.6874-3.8874-8.6874-8.6875s3.8873-8.6875 8.6874-8.6875zm-28.116 3.6985c4.8001 0 8.6875 3.8873 8.6875 8.6874 0 4.8018-3.8874 8.6859-8.6875 8.6876-4.8001 0-8.6875-3.8858-8.6875-8.6876 0-4.8001 3.8874-8.6874 8.6875-8.6874zm-31.044 19.799 15.712-0.7755c-1.9711 5.6401-3.027 11.469-4.1458 17.316l12.794 9.3976-55.354 9.4154 23.852-49.049zm-37.763 143.05-93.216-120.37 11.243-9.0931 93.969 119.05zm-11.4-117c4.8001 0 8.6875 3.8874 8.6875 8.6875s-3.8874 8.6875-8.6875 8.6875-8.6875-3.8874-8.6875-8.6875 3.8874-8.6875 8.6875-8.6875zm195.79 13.483c7.5573 5.8751 0 14.114-7.2219 10.864-6.2652-2.6448-5.7934-9.0009-0.856-11.546 3.0802-1.4636 5.4302-1.1012 8.0779 0.6817zm10.059 5.602c7.7516 0.1231 16.317 18.501 14.743 23.9-2.309 6.2829-4.4318 6.5076-15.368-2.7434-10.808-9.142-10.963-9.5233-6.5937-14.469 2.4256-2.8084 3.5891-6.5133 7.2187-6.6874zm-184.38 3.3525c4.8019 0 8.6858 3.8874 8.6876 8.6875 0 4.8001-3.8857 8.717-8.6876 8.7188-4.8001 0-8.6874-3.9187-8.6874-8.7188s3.8873-8.6875 8.6874-8.6875zm-26.937 3.3437c4.8001 0 8.6874 3.8856 8.6874 8.6876 0 4.8001-3.8873 8.6874-8.6874 8.6874-4.802 0-8.6857-3.8873-8.6876-8.6874 0-4.802 3.8856-8.6857 8.6876-8.6876zm190.82 6.1973c8.5758 1.2694 10.818 7.7452 6.875 12.563-5.3605 6.5165-17.381 0.5971-14.531-7.1563 1.2942-3.5215 4.4255-5.3413 7.6562-5.4063zm15.381 9.7813c3.3584-0.2867 8.4135 4.3542 13.947 12.05 6.2193 8.6495 6.7238 11.441 4.9623 16.718-2.5687 7.6898-4.1755 9.0994-9.7589 1.6035-2.1062-2.8242-6.9938-9.4514-10.481-13.104-7.4447-7.8003-8.6076-5.8163-4.166-11.772 2.0593-2.7601 3.4817-5.3252 5.4967-5.4972zm-20.156 9.091c7.7017 3.9765 8.4408 9.1536 3.8904 12.816-5.3568 2.9289-14.806-0.5454-16.64-5.8469-2.6832-7.7549 5.5395-11.69 12.75-6.9688zm13.053 11.453c4.3543-0.2753 7.9424 4.2212 13.271 12.825 9.0755 14.649 9.5698 19.583 1.8345 29.24-5.5649 6.9496-6.129 7.3205-11.575-3.7527-4.45-9.0485-12.912-19.646-20.75-26-3.2742-2.654-4.4254-6.3731-2.0625-6.625 0.6867-0.073 3.5872-0.2088 6.4375-0.3125 4.1882-0.1523 5.7051-0.7207 8-2.9687 1.517-1.488 3.1407-2.2986 4.8437-2.4063zm-31.276 11.431c4.0534-0.1977 9.2893 2.0018 13.188 6.5312 4.4173 4.6452 3.8943 8.8961-4.7812 9.75-3.9064 1.5302-14.542-5.4446-14.594-10.125-0.044-3.9275 2.611-5.9835 6.1875-6.1562zm20.447 16.989c0.213-0.012 0.4162-0.01 0.625 0 3.6427 0.1749 5.523 3.6902 9.6185 11.906 6.2839 12.614 4.4705 19.482-6.3938 25.064-7.3699 3.7874-12.995 4.9223-13.944 0.5926-0.2757-1.2583-0.2807-4.892-0.8904-8.4249-0.811-4.7019-1.889-9.599-6.0499-15.869-6.6403-10.006-7.8146-13.56-0.5285-10.612 3.857 1.5602 8.053 1.3777 12.469-0.9374 1.9461-1.0222 3.6003-1.6351 5.0938-1.7188zm-36.847 20.285c-2.5278-0.052-4.1509 1.4953-3.4688 5.625 2.2935 1.1274 5.9214 0.077 8.6563 1.0626 3.6889 1.3293 5.9691 7.3226 9.9063 6.3437 0.4145-5.0533-9.5327-12.912-15.094-13.031zm-752.14 87.943c-20.307-9.6759-70.62-32.065-94.857-32.39-44.942-12.613-47.96-6.8847-63.719-10.921 83.42-21.633 140.83 19.957 161.86 40.166 9.5435 9.5129 4.3458 6.7818-3.2827 3.1454zm53.122 196.65c47.729 82.798 92.22 176.2 166.86 314.49l-7.1704 2.2401-284.64 0.5094c14.096-152.78-68.462-298.35-74.05-292.64 64.479 1.1874 118-11.249 129.3-35.008l-9.1919-2.6344c-37.524 32.384-91.884 33.873-129.39 23.863 0.8511-79.606-3.6288-163.69-1.1501-243.27 44.334-3.2992 78.99 12.959 103.56 45.351 41.309 54.459 69.326 123.71 105.86 187.09zm-130.54-220.57c11.416-0.8721 73.721 24.76 101.59 43.906 7.7415 8.0065 19.047 21.921 19.062 23.281 0.043 3.6988-5.4552-0.8658-32.375-16.219-20.374-11.46-41.51-20.602-62.088-29.387-0.9436-0.4029-2.8273-1.2065-2.8273-1.2065s-1.525-1.7558-4.1393-3.7789c-7.3292-5.6717-21.568-15.729-19.227-16.596zm30.288 29.03c-0.6169-0.1157 61.793 22.488 111.45 62.033 6.6031 5.2582 14.708 24.874 14.708 24.874-4.4305-8.3389-82.867-55.266-110.4-66.013-0.034-0.037-15.757-20.894-15.757-20.894zm22.004 30.012c3.402-2.0412 94.675 51.832 108.05 65.739 6.064 4.6363 20.262 27.156 20.312 31.688 0.047 4.0318-4.3909 0.5501-12.562-7-42.032-39.251-102.76-68.833-103.25-68.177zm16.937 31.302c42.858 18.135 96.692 61.735 123.86 87.687 6.7963 6.7244 11.645 16.466 12.562 21 0.5707 2.8113-0.8486 2.6222-1.4062 4.125-35.213-40.416-112.6-86.549-122.86-90.156 0.078 2.5556-8.5123-15.67-12.156-22.656zm142.3 125.94c4.9322 5.027 12.748 22.66 11 24.812-0.8587 1.0584-0.7757 0.5007-2.8437-0.9375-11.267-11.209-69.144-62.56-117.43-91.366-4.5365-2.268-19.743-26.248-16.518-26.708 25.242 8.235 97.445 65.879 125.8 94.198zm-104.5-57.2c0.8349 0.062 2.3461 1.1332 4.9374 2.5625 44.41 24.496 108.78 86.181 120.99 101.01 2.7762 4.5662 7.1457 12.948 6.8237 18.084-0.5535 4.0384-2.1696 0.6063-20.125-17.062-28.853-28.254-62.044-55.597-97.219-78.563-6.7629-4.6474-5.4685-5.2399-10.375-13.781-4.9218-8.568-6.8701-12.385-5.0312-12.25zm284.03 0.9375c31.71 0.9025 44.112 24.909 63.64 69.156 15.985 43.599 22.611 83.544 23.344 115.34 0.049 2.1353-3.8294 0.3192-5.5937-0.1563-8.4909-2.2782-19.063-4.4087-31.313-1.3124-8.998 2.2733-17.551 2.0174-8.3124-4.0313 2.9788-1.9508 11.049-9.4235 15.344-12.094 8.6959-5.409 3.4078-5.3433-5.2187-1.0938-6.5316 3.2165-10.9 7.2917-13.594 7.9375-1.6641 0.399-0.6293-5.074 0.9688-9 9.2208-22.68 12.013-36.107-1.7188-40.312-3.7158-1.1379-8.7286-4.5782-11.094-6.875-1.8883-1.8353-3.4984-9.1718-4.0937-9.4688-0.6328-0.3136-1.0743 6.6859-1.0625 7.75 0.041 3.6452 4.7175 11.028 10.344 15.063 9.5524 6.8497 11.44 8.7451 6.25 24.969-7.2723 22.725-8.8228 28.289-10.156 33.562-0.7671 3.0337-2.2519 8.1886-3 11.531-2.8824 12.881-2.5318 24.136-2 34.844 3.1398 23.92 28.926 35.721 63.537 22.436 3.2754-1.2742 4.637-0.1243 4.637-0.1243-27.57 28.04-58.514 45.958-76.547 102.61-23.195-46.737-56.043-83.356-110.65-98.033l-0.8051-9.7599c19.047 9.1322 55.979 21.556 79.421 7.591 12.551-8.5701 8.733-14.097-6.5-8.1876-18.137 7.0383-50.893 6.2181-67.25-3-3.3292-1.8758-6.7235-0.2549-7.6815 0.063-0.8552-5.4937-8.7241-26.197-7.5692-33.98-0.6755-1.0896 4.9786-1.1423 6.0661 0.3093 4.5245 6.0397 27.502 24.026 51.375 22.622 11.869-0.6981 21.628-4.3019 31.94-15.181 0.859-0.7664 5.0584-1.3146 5.6293-1.9571 0.9205-1.0326 0.2536-2.5731 0.2187-3.125-0.2569-0.8281-1.7994-3.0985-2.8124-5.6562-1.3293-2.2345-1.6023-4.5668-1.3783-6.3626 0.029-1.4949 1.0196-2.2834 1.7962-3.3279 0.8908-2.0011 0.6455-4.549 0.1491-5.9048-2.1177-1.4314-1.8601-4.1024-0.7233-5.3422 3.2268-3.6522-27.799-31.974-33.875-31.906-2.1939 0.026-0.8987 4.0682 3.5625 7.0313 15.77 10.474 27.264 24.15 24.656 25.938-2.0078 1.3768-9.0722-1.6384-16.263-3.3344-14.432-3.3839-31.753-5.5393-50.549 8.0219-7.0305 5.7742-25.616 6.6413-25.616 6.6413-0.2354-10.124-43.018-123.17-43.1-118.26 15.562-18.145 64.467-61.109 113.47-79.625 15.074-4.9427 31.263-7.4658 42.129-6.0094zm-185.79 25.302 88.954 1.3737c-22.365 11.255-63.001 51.636-63.001 51.636-11.625-23.389-15.178-35.059-25.953-53.01zm-76.897 11.729c6.6299 0.037 77.237 57.57 87.281 71.156 1.2097 1.6366 8.3616 9.1871 15.906 16.75 18.262 18.306 25.791 28.888 25.875 36.438 0.04 3.5661-3.2202 1.245-8.0938-4.125-36.57-40.633-60.365-62.69-105.56-93.844-5.1313-2.7477-21.063-23.95-15.656-26.313 0.073-0.029 0.1448-0.063 0.25-0.062zm241.52 10.594c-1.9862-0.069-1.6598 1.839-0.5785 3.5973 11.207 9.9022 40.786 9.4655 50.986 1.4626 9.2529-7.2598-2.8798-3.4294-6.6572-1.8099-8.8402 3.7901-18.318 3.3624-30.625 0.094-7.1775-1.9062-11.139-3.2751-13.125-3.3437zm27.281 16.125c-10.345 0.096-21.16 3.1998-18.75 7 0.8789 1.3873 3.7064 3.9851 10.469 0.3125 9.7609-4.828 29.815 1.5018 30.406 1.6562 2.0473 0.5381-6.6655-5.7402-9.5938-7.0312-3.2222-1.4206-7.8299-1.981-12.531-1.9375zm-249.27 10.75c37.942 23.215 84.164 69.668 111.91 102.84 4.6182 5.7126 7.954 12.741 8 16.875 0.066 5.9585-1.21 2.6564-26.406-22.875-19.762-20.22-49.591-47.74-69.344-62.562-11.865-8.6463-13.978-9.7717-19.562-20.031-5.2392-9.6251-7.1314-14.398-4.5937-14.25zm236.39 7.75c-7.1335 3.3893-16.599 2.6669-25.813-0.5-8.3443-2.8688-6.3875-0.4148-3.2187 8.6875 1.4413 4.1403 2.3341 10.01 2.3437 10.875 0.025 2.0234 0.022 2.1667 5.9063-1.125 5.1295-2.8694 6.2136-3.8582 17.156-1.3125 11.124 2.5878 11.304 1.6296 16.531-1.0937 4.5567-2.374 5.4996-3.7974 8.6143-2.5429 6.099 2.4566 13.001 3.5016 20.818-0.6098 5.994-3.1528 7.9486-1.0253 10.724 0.3714 3.7668 1.8941 5.2263 0.6891 3.75-3.0625-0.5871-1.4939-1.6881-7.911-1.7187-9.9375-0.059-3.8475-1.0041-7.3147-2.625-6.5-5.9818 3.0063-10.837 6.2052-16.542 6.1013-10.462-0.1907-19.637-6.4744-35.926 0.6487zm-462.39 7.9137c94.57 117.82 77.856 287.67 74.708 286.29l-74.12 0.3239zm246.07 23.814c37.774 26.487 82.73 72.658 107.65 104.58 4.2387 5.514 0.79 7.2545 2.9063 13.906 0.7774 2.4691-3.4065-1.1737-15.406-14.062-14.95-16.06-39.534-40.203-55.719-54.219-17.731-15.354-22.85-19.215-26.628-24.401-2.9759-4.3404-15.12-25.2-12.8-25.808zm212.6 10.9c-0.4012-0.01-0.7979 0.013-1.1876 0.031-13.446 0.6318-20.272 15.698-8.75 26.344 4.3335 4.0022 11.212 6.3705 11.188 4.2188-0.011-0.512-2.1721-2.6803-3.6876-3.8438-9.5978-7.3782-8.615-18.878 2.3126-19 3.7861-0.042 4.0242 1.3072 12.781 7.5938 10.3 7.3919 22.458 7.4011 22.312-0.031-0.107-5.4617-2.144-11.057-11.344-10.156-2.4182 0.2386-5.6415 0.4958-8.4688-0.2187-2.7087-0.6846-5.0237-2.3385-6.0938-2.8125-3.2055-1.4224-6.2668-2.0827-9.0624-2.125zm-188.04 34.688c28.9 19.402 68.618 63.276 88.919 89.151 4.6523 6.065 4.9603 12.77 3.0808 16.38-0.4464 0.7113-4-1.5-4-1.5-23.474-27.639-50.089-52.766-76.219-78.281 0 0-15.521-24.966-11.781-25.75zm280.16 41.968-6.2414 3.1032c-9.4619-14.18-18.116-14.375-25.362 2.1925l-4.6477-1.17c-3.4633-3.8177 12.457-39.845 36.251-4.1257zm-1.4004-12.093c2.6047 0.091 7.1595 1.5002 8.2187 4.1563 1.1871 2.4485-0.1456 5.2183-3.7187 5.0937-0.5432-0.019-3.9975-4.2576-5.7167-6.8538-1.2717-1.5822-0.7247-2.4476 1.2167-2.3962zm-106.14 17.349-6.9866 0.3226c-13.307-17.488-23.258-5.7491-29.223 1.5472l-7.4825-1.0159c1.1939-19.207 35.143-25.897 43.692-0.8539zm67.982-14.932c1.0519 0.02 2.0885 0.2173 3.0624 0.5938-2.7535 4.1756-3.2222 7.6601-3.8437 11.437-2.7174 1.1247-6.5885 3.4706-9.4687 0.4688-5.3572-4.8645 2.8845-12.642 10.25-12.5zm-109.15 1.9586c3.2967 0.014 2.3101-0.2037 0.8776 1.6371-1.4455 1.8704-3.4213 5.1902-4.4795 8.1598-0.4461 2.0645-0.7909 2.813-2.7271 2.8805-3.6936 0.1159-11.175-1.1984-11.124-1.1478-2.8446-2.6869 8.9191-11.242 17.453-11.53zm42.27 2.4468c2.2031-0.268 1.6864 2.8815 0.9802 4.1157-1.3915 1.6426-1.9469 2.1787-2.7249 0.131-0.3781-0.9853-0.9498-1.7673-1.4251-2.3537-1.0881-1.3975-0.9639-1.4702 0.3819-1.7079 0.6037-0.1026 2.015-0.1732 2.7879-0.1851zm114.19 13.96c8.1391-0.2134 2.6962 13.595-8.625 16.937-12.504 6.3365-26.843 4.8196-41.438-3.5-8.3255-4.7452-10.845-9.7463-3.5937-7.75 27.325 7.525 33.968 6.1327 50.451-4.5304 0.9807-0.8358 2.0234-1.0405 3.2051-1.157zm-262.92-2.9893c27.207 23.046 47.684 49.151 69.437 73.208 4.3367 5.3609 6.3684 10.53 5.5313 14.031-1.0421 4.3568-9.9687-6.0313-9.9687-6.0313 0.2253 0.097-53.104-56.823-53.104-56.823s-13.535-24.265-11.896-24.385zm81.298 7.958c1.8897 0.063 5.6379 0.939 11.688 2.5 26.169 7.9326 34.088 7.6394 49.128 0.7341 9.5862-4.4006 13.548-3.7667 9.4457 2.8512-7.5507 12.177-34.215 13.524-54.23 6.7272-5.2997-1.7999-9.9583-4.9582-15.062-8.7812-2.737-2.8491-3.3984-4.1119-0.9688-4.0313zm120.69 8.0686c1.5672-0.1023 4.487 1.6984 8.0403 3.7118 21.922 12.431 38.105 10.151 51.613 1.8133 2.4435-2.2285 3.7661-1.1598 4.0937 1 1.15 7.571 1.4899 13.011-1.9687 16.656-2.0116 2.1202-5.4329 3.0768-10.594 4.8125-21.226 7.138-47.06 2.0375-52.005-13.884-1.6084-8.1865-2.6276-13.889 0.8202-14.11zm-173.95 34.15c0.077-0.01 0.1584-0.014 0.25 0 1.5356 0.2312 5.0756 3.3259 10.656 9.6563 29.178 33.096 45.322 52.112 42.375 61.688-0.2706 0-0.4559 2.0636-1.6874 1-16.048-13.857-29.15-29.006-38.906-44.844-10.694-17.356-15.088-27.291-12.688-27.5zm235.23 23.286c-24.623 18.827-54.491 63.639-57.17 85.714-0.5148 4.2177-0.065 7.3815-1.625 8.9063-1.2413 1.2132-4.0242 1.3255-7.75 0.5937-2.2844-0.4182-1.7392-0.6716-2.2813-3.25-2.1175-10.101 7.5638-35.529 27.594-65.5 10.509-15.724 34.381-36.958 41.05-37.098 4.4498 1.8327 0.1275 10.836 0.1822 10.634zm-182.33-10.224c1.7387-0.05 4.4296 0.8578 8.1876 2.4687 22.104 9.4802 30.35 12.93 44.656 24.594 26.659 21.736 56.293 73.358 47.594 78.188-3.8198 2.1207-6.5297 0.7837-8.0834-4.0105-0.2828-0.8723-3.0786-8.1045-6.4166-14.24-17.871-32.843-41.113-55.43-73.875-71.406-12.101-5.9002-13.331-5.247-14.25-10.188-0.6917-3.7086-0.046-5.3439 2.1874-5.4062zm181.97 18.969c2.2145-0.1867 2.7461 3.8559 1.9939 11.989-0.6115 6.6279-1.0078 6.4905-8.4001 14.261-11.814 9.5647-25.783 32.028-32.25 54.906 0.01 0.7957-0.6003 2.5375-1.7188 3.5-3.0391 2.6097-6.8759 1.334-9.5 1.2812-1.8869-1.0034-1.3678-5.1437-1.0312-7.4688 5.4046-20.771 18.708-46.28 39.562-68.687 5.8654-6.3019 9.3899-9.6165 11.344-9.7813zm-177.38 0.5937c11.705-0.2715 53.292 30.802 70.125 58 11 17.776 13.969 25.068 11.438 27.656-1.3385 1.3686-7.2533 1.5878-10.344 0.375-2.8135-1.1034-3.8894-5.385-9.1563-15.281-13.741-25.814-33.534-44.526-54.969-54.406-3.9893-1.8385-6.1232-3.0038-7.411-4.4311-1.4348-2.9591-3.2767-11.294 0.3172-11.913zm6.3125 23.094c3.6328 0.6846 13.689 7.2057 22.094 13.375 14.863 10.909 37.485 44.253 32.813 49.031-1.4999 1.5336-6.6927 1.5917-9.3646 0.5418-15.914-28.33-36.573-41.814-44.963-49.689-2.5451-4.275-8.4884-14.358-0.5789-13.259zm-33.062 5c0.6887-0.1745 3.4757 2.5654 8.5312 7.875 14.934 15.683 24.41 33.064 22.219 41.844-1.854 7.4264-4.0321 3.36-21.125-29.25-7.1929-13.725-10.632-20.214-9.625-20.469zm204.34 0.4375c0.3411 9.0219-0.3885 11.244-1.3438 16.031-0.6504 3.2585-2.8041 4.7747-4.8438 7.3124-5.0781 6.3261-10.847 17.262-13.75 26.094-2.4419 7.1275-1.2936 8.8355-10.062 7.875-4.0895-0.5343-3.1031-1.6374-1.5-6.3438 5.5221-15.453 18.778-40.491 31.5-50.969zm-169.76 17c0.1851-4.6274 40.075 35.522 34.594 40.042-5.1899 0.9071-8.2821 1.0979-10.452-0.7526-4.2631-9.5509-23.256-27.664-23.256-27.664zm167.54 12.656c0.092-0.021 0.1702-0.018 0.25 0 1.7814 0.3637 0.7971 25.057-0.6875 27.094-2.8392 1.4336-8.2166 1.5612-11.094 0-1.7563-0.9519-2.2883-2.7127-1.625-4.625 1.6528-4.7794 10.297-21.879 13.156-22.469zm-150.6 27c-1.2566 1.96-9.019 2.3071-11.948 0.094-0.9376-0.7106-1.8529-12.957-0.7605-15.177 2.975-1.9391 13.694 12.442 12.708 15.083z" transform="matrix(.99994 .011135 -.011135 .99994 -3049.7 -712)" fill="#131f67"/>
   <path d="m2774.3 6.9058c-31.011 0.59963-46.388 26.553-46.54 52.542l0.024 68.173h-18.512v22.626h18.512s0.3182 10.342 0.2665 16.534c-0.2557 30.63 10.564 49.207 31.688 54.344 20.269 3.6884 30.829-0.67438 46.25-8.6562 5.6029 2.3298 9.5226 7.1341 15.518 7.7394 6.6323 0.66957 20.45 0.35422 20.45 0.35422l-0.375-23.219-6.9123-1.0066c-13.201-0.22661-18.935-4.8437-17.507-13.1 2.8052-5.3797 3.2108-9.2898 3.4777-15.78v-115.31c-0.41-28.266-23.507-44.995-46.34-45.242zm-1 22.469c14.806-0.23058 27.107 17.008 26.781 34.656l0.2239 89.076c0.4885 5.6056-0.417 11.081-2.8801 14.924-1.9412-5.6919-32.563-36.975-47.875-35.531 0 0-0.6261 1.5816-1.0626-37.562-0.1952-19.227-5.2387-47.916 12.031-60.875 4.316-3.1763 8.635-4.6229 12.781-4.6875zm802.41 77.188 5 6.5625-29.219 0.15625c4.7792 4.0355 113.04 221.89 251.47 473.59 22.916 44.173 66.625 60.098 117.38 62.031l-134.44-216.5c14.32-7.7998 42.749-28.678 59.944-24.801 1.0639 5.2803 6.1697 3.1792 6.2432-1.5112l6.2188 0.125 2.1874 3.4062h26.125l2.1361-3.0833 22.52 3.2395c-60.183-74.183-91.932-188.5-81.625-300.09l-199.59 0.4375-2.6563-3.5zm-24.219 6.7188c-0.1114-0.0941-0.1901-0.14089-0.1874 0zm-229.4 145.22c-22.692 73.28-78.81 133.57-112.13 194.28-35.722 66.242-44.114 123.89-34.062 186.94l6.5312 0.5625c76.15-103.87 135.12-227.98 168.12-350.02 0.7187-2.6579-0.5141-7.3532 0.094-10.044-1.4092-3.2275-0.1756-6.716 0.7188-7.6562 1.9179-2.0178 1.2073-9.939-0.2188-23.031-3.5934-38.891-2.8865-69.417 0.3623-104.67 2.5018-27.064 2.3611-31.32 2.3611-31.32l-13.034-0.19759c2.405 46.066-3.6818 102.83-18.751 145.16zm313.47-142.03 21.42 0.44189c3.302 65.46 58.436 73.975 66.963 73.019-14.079 44.269 9.2251 92.848 65.342 99.745-12.87 41.04 9.9141 95.142 54.807 93.67l4.75 3c-2.8954 5.9098-3.5146 18.064-3.3437 18.25-9.9822 0.73142-15.392 2.1848-21.875 3.4688-58.023-87.485-188.06-291.59-188.06-291.59zm190.38 0c-6.4867 73.129 8.183 173.56 42.531 232.91 0 0-1.0934 3.9787-1.8125 5.0625-3.272 4.9317-4.891 0.66397-6.875-3.3125-7.3154-13.515-21.135-15.618-27.188-8.0938-13.368 18.219 1.1257 25.407 12.377 35.694-45.98-2.8079-61.308-53.409-50.68-78.443-0.2376 4.774 2.3236 11.98 5.6926 17.091 12.921 19.598 31.793 3.0654 26.384-12.44-2.2376-6.414-10.48-17.113-10.48-17.113s11.195-1.651 15.771-4.4161c4.274-2.653 6.9718-7.3511 5.8719-13.78-0.8827-5.1589-1.1093-7.4132-3.875-12.062-3.3915-4.2354-9.4672-7.1632-14.332-6.8393-9.4921 0.63196-10.646 7.1624-16.859 11.637-1.543-11.764-9.0763-20.712-21.377-18.488-9.3555 1.6917-16.097 11.642-10.366 24.101 2.895 6.3607 6.9643 8.2925 11.059 13.808-66.066-7.399-58.867-85.848-51.557-84.445 0 0 1.9886-0.3679 1.4005 2.6325-3.7634 19.195 20.079 30.668 30.531 16.719 6.6621-11.315-7.6499-29.179-7.6499-29.179s9.5303-2.0455 13.857-4.5405c17.253-9.9499-1.1309-38.532-17.184-31.513-5.6332 2.5637-7.0679 7.7859-12.564 10.568-3.6741-4.0887-3.8974-8.561-10.5-12.237-18.115-10.086-29.441 13.778-19.413 24.277 4.1135 4.2536 11.37 8.1317 9.9503 8.6517-56.169-7.0921-55.624-65.875-54.339-65.464zm-482.79 0.49317 7.7323-0.004c-2.2907 34.875-7.2414 80.88-4.001 114.89 3.7813 32.483 3.9509 37.092 1.625 40.312-3.1924 3.5819-1.5046 5.2696-0.875 8.1875 0.8391 5.3373 0.917 5.3935 0.1582 8.4326-6.8077 27.268-15.512 55.525-26.564 84.099-36.144 99.659-95.111 208.32-141.36 265.31-0.03-0.20293-2.1131 0.1815-2.1453-0.0207-12.655-79.518 14.388-145.8 28.504-173 28.62-55.153 73.578-102.23 100.27-160.01 22.717-49.168 39.477-108.26 36.651-188.18zm284.54-0.33688 188.38 292.94-34.375 16.844l-192.8-308.71zm-567.31 30.656c-66.793 0.98611-99.372 85.02-43.438 125.38 10.053 7.2524 13.146 11.48 10.406 14.281-2.3009 2.3527-5.3986 1.2608-10.406-3.7188-43.549-42.747-110.76-19.378-117.03 39.875-10.391 98.21 111.8 123.96 143.12 30.469 8.9782-26.799 12.806 2.2373 4.0938 30.75-7.2542 26.299-19.872 53.261-34.625 75.719-2.4712 3.6813-6.0626 8.375-6.0626 8.375h107.31s-3.4099-4.5774-8.25-10.219c-19.526-29.059-30.103-61.67-33.531-95.719-0.7936-9.6811-0.4565-17.033 1.4375-18.25 3.2493-2.0882 5.1226 0.52279 8.5938 12.062 7.1414 23.746 20.631 43.15 35.687 50.5 36.4 15.1 66.129 10.521 91-22.625 53.804-71.707-34.179-160.29-97.062-102.41-5.7722 5.2663-9.3823 5.8391-9.9376 1.5-0.2683-2.0995 1.3573-4.1066 9.2188-11.5 54.038-42.927 26.961-116.5-40.438-123.97-3.4439-0.36822-6.8089-0.5485-10.094-0.5zm-271.53 44.812c1.3603 2.7438-3.658 5.4603-9.0317 6.9562-15.161 4.2201-30.03-5.2278-30.506-26.962-0.1448-6.6208-0.5737-13.706 1.75-14.75 6.9654-3.1303 33.682 26.474 37.787 34.756zm949.25-18.25c4.8771 0 8.8125 3.9667 8.8125 8.8438s-3.9354 8.8438-8.8125 8.8438-8.8437-3.9667-8.8437-8.8438c-0.0004-4.8771 3.9666-8.8438 8.8437-8.8438zm-966.76 77.325c-30.546 0.076-46.547 41.637-17.463 66.269 5.097 4.3168 7.0673 8.2481 6.7187 9.1875-0.7901 2.1296-1.5685 0.33757-7.7813-4.0312-27.34-19.227-60.166-2.0126-57.281 25.625 4.1189 39.458 48.536 48.805 64.312 12.312 2.788-6.4491 4.1252-8.452 5.625-8.4688 1.3707-0.0153 1.5563 2.633 0.9063 6.8438-2.8811 17.187-11.23 35.269-20.594 49.781h49.594c-10.168-15.379-14.395-30.54-17.094-49.5-0.2003-4.9924 0.5024-8.291 2.4375-8.3125 1.3033-0.0145 2.0496 1.7778 4.1875 10.219 7.9121 31.239 56.178 29.6 64.219-2 9.0056-35.397-24.428-60.574-51.875-38.188-3.8724 3.1579-8.2681 5.46-9.0313 3.25-0.2188-0.63352 2.2468-5.2507 6.625-9.0938 28.017-27.366 9.274-63.975-23.506-63.894zm1029.2 20.362c4.935 0 8.9371 4.003 8.9376 8.9375 0 4.9345-4.0026 8.9375-8.9376 8.9375-4.9345 0-8.9374-4.003-8.9374-8.9375-0.0005-4.9345 4.0029-8.9375 8.9374-8.9375zm-448.84 17.446c3.2157 12.765-59.79 204.36-149.32 326.27l39.094 0.8125 1.2069 4.3129c54.77 80.863 20.517 152.4-23.707 185.62l15.312 20.406-13.781 11.156-13.781-16.406c-112.08 84.069-330.78 270.16-330.78 270.16l1.2187 29.844 17.063-13.437c110.94 107.39 346.18 101.51 407.88-120.16l16.531 0.375c-37.314 162.47-189.15 226.07-303.75 199.12l-26.844 38.562 7.1876 3.8438c-1.3264-2.0544-2.54-2.7693-0.5938-4.6563l22.812-29.344c171.4 22 274.9-75 308.5-206.46l21.875 0.375c-18.765 110.42-70.527 207.63-144.34 283.72-53.271-0.2167-146.94-1.4374-146.94-1.4374 34.106 33.046 99.245 133.9 101.84 144.12 0 0 67.002 2.1333 138.88 0.375 26.344-11.855 61.598-16.61 78.062-8.3126 28.929 14.579 56.12 68.676 68.344 155.47 3.1487 22.359 6.0051 31.834 6.875 36.344 0.1565 0.8118 2.1196 1.4016 2.4062 1.25 1.103-0.5843-1.7545 3.9532-1.875 7.3124-0.1205 3.36-0.01 8.4273 1.5938 10.188 2.0268 2.229 1.7791 3.6973 1.5 4.6562-0.1841 0.6303-4.0938 4.25-4.0938 4.25-0.5837 50.563-0.2983 96.464-3.0625 158.66l9.9375 0.063c-0.072-100.07 30.121-192.67 76.656-256.41 28.29-41.833 58.226-86.916 74.781-129.84 18.636-48.321 21.202-99.098 11.219-141.94l-6.8124 0.375c-40.926-28.053-57.6-87.935-7.1876-130.72l-17.844-23.219c-50.345 38.924-61.907 110.73-9.75 170.16l-20.406-0.062c-50.891-63.513-39.62-136.45 19.188-188.5l-13.156-16.719 14.302-12.602 12.905 14.121 328.3-274.3-0.2343-30.015-25.157 20.403c-147.5-136.22-365.8-40.69-397.9 123.3l-20.015 0.21043c41.97-176.47 196.61-226.35 308.48-202.88l27.61-41.763c-20.309-5.705-40.116-19.186-58.811-35.115-7.8756-6.7101-12.853-10.822-18.578-17.538-52.984-55.993-88.951-133.75-90.638-133.88l-144.07-0.35485c-21.138 10.452-57.332 22.338-77.192 6.2992-42.646-34.44-56.959-103.92-62.822-148.62-1.779-13.916-3.2862-38.126-4.5938-46.156-0.8119-1.471-2.3841-1.5584-3.8057-1.3044zm510.77 77.272c4.8197 0 8.7187 3.9303 8.7187 8.75s-3.899 8.7188-8.7187 8.7188c-4.8204 0-8.7188-3.899-8.7188-8.7188 0-4.8197 3.8984-8.75 8.7188-8.75zm18.75 10.281c7.103 9.2016 13.41 18.688 16.937 28.719-3.3117-0.10269-6.4213 0.92739-10.104-1.948-0.8552-10.13-5.0236-16.209-10.271-22.958zm-26.344 12.906c2.9131 1.4276 5.2234 12.426 3.1875 14.312-3.5066 0.74747-5.8979 0.49653-7.0814-0.72818-1.7599-2.9009 1.5746-13.021 3.8939-13.584zm-573.2 95.57l133.75 0.15625c23.27 17.839 46.014 15.477 79.031 1.1754h148.72l8.4063 15.262h-377.16c2.1004-5.6707 7.25-16.594 7.25-16.594zm-11.031 23.844h384.91l9.7188 15.656h-404.16zm37.156 22.75h43.188l-16 27.156h-44.563zm95.875 0h41.219l-18.344 27.125h-40.844zm133.31 0-17.344 27.125h-41.906l18-26.875zm51.687 0h41.281l-15.438 27.125h-42.75zm-554.49 4.2189c-26.766-0.30624-21.807 35.19-19.282 34.081-16.803-3.8473-29.22 4.1342-31.288 18.45-1.6412 11.362 9.4591 27.555 28.871 25.293-2.5807 2.9764 0.054 20.154 2.6358 21.719 0 0 0.3299 2.4897-9.9166 23.865-12.161 25.37-14.644 26.572-20.156 9.9062-5.928-17.924-15.096-27.005-38.969-38.594-6.3598-3.0873-15.357-8.4712-20-11.969-10.66-8.0303-10.783-7.904-10.281 8.4062 0.6527 21.179 7.0762 30.467 29.688 42.969 11.067 6.1191 32.256 14.761 36.094 14.719 2.699-0.03 12.613 4.4175 27.312 12.25 2.8712 1.5299 12.697 6.9404 25.281 8.1562 13.354 0.94224 43.438-2.2094 60.875-12.281 9.7846-5.6511 13.563-10.707 20.781-25.156 0 0-24.711 1.2785-36-1.6875-23.459-1.376-35.119-0.0172-52.906 9.2188-14.88 7.7268-15.713 9.1087-9.5-3.6562 2.8394-5.8615 5.4834-12.759 7.875-19.625 2.5929-6.8307 3.2757-7.3995 9.7813-8.0625 14.27-1.4544 22.399-9.6878 23.719-23.969 0.3542-3.8291-0.2175-7.8708-0.2175-7.8708 9.713 1.4359 29.599-3.3796 28.978-23.504-0.5582-18.094-13.458-22.256-29.339-23.499 2.0411-9.2694-4.7261-28.936-24.036-29.157zm0.3225 5.6145c23.452 0.1636 22.906 21.689 12.686 33.906l-12.475-10.268-10.062 9.2855c-10.952-6.9958-10.907-33.068 9.8508-32.924zm641.67 0.26041 11.531 17.031h-23.812zm-437.84 24.469h44.156l-17.719 24.906h-41.75s9.3435-15.901 15.312-24.906zm139.19 0-16.688 25.875h-38.594l15.469-25.344zm51.719 0h39.906l-15.781 27.594h-39.438zm93.906 0h40.406l-16.437 27.594h-39.844zm91.531 0h41.625l-17.187 27.594h-40.125zm-579.59 5.125 19.844 20-19.344 19.375-19.938-19.062zm50.314 19.482c-3.5151 23.232-25.9 21.968-32.262 10.606l9.1237-10.407-11.186-10.978c10.855-17.42 36.979-6.7705 34.324 10.779zm-66.628-11.121-10.728 12.087 11.772 11.314c-7.5854 10.537-36.731 9.7024-30.886-15.658 3.7114-16.104 20.094-19.063 29.842-7.7427zm680.16-2.955 12.281 16.875-23.031 0.1875zm-479.1 20.73 493.8 1.59l13.219 16.156c-172.4 2.9704-341.22-2.77-517.34-2.9062zm-173.6 10.5c19.567 12.001 5.116 37.29-15.886 32.989-15.654-6.8709-18.857-23.106-4.7735-32.531l11.034 9.0934zm169.32 9.6874-13.469 0.0625l-13.1 15.34c49.613 52.266 47.791 97.601 1.5624 137.12l18.594 20.812c51.854-44.359 63.347-114.06 6.4375-173.34zm50.969 2c27.812 43.453 51.864 125.76-31 201.16l-10-12.125c72.146-70.462 55.193-129.71 22.875-188.5zm7.7188 1.0625 112.12 0.4375c-24.003 91.474-40.844 145.34-43.375 288.44l-32.406 0.1875c3.5264-3.2979-16.78-86.404-40.469-115.22 49.68-84.352 22.909-131.93 4.125-173.84zm-352.69 0.125c1.9366-0.0157 5.9078 2.492 13.688 7.1562 6.9804 4.185 16.048 9.4784 20.156 11.781 15.4 8.6329 23.055 16.783 27.438 29.219 3.2807 9.3102 1.2367 9.4923-8.1876 0.71875-7.0094-6.5259-14.48-12.148-33.156-24.938-6.5786-4.5052-8.6597-3.7645-4.8438 1.7188 2.7509 3.952 8.6688 8.4441 20.656 15.75 8.6935 5.2983 20.661 15.906 19.719 17.469-0.8575 1.4228-2.3411 1.2993-6.5312-0.53125-1.9345-0.84514-8.1898-3.4117-13.875-5.7188-24.421-9.9099-34.849-22.078-36.312-42.312-0.5097-7.0457-0.9448-10.295 1.25-10.312zm511.69 0.4375s3.3782 4.455 3.8125 6.3125c0.9386 4.0143-2.9978 7.6977-15.406 13.219-4.2578 1.8946-7.8013 2.9221-7.6874 5.4062 0.5676 5.8337 11.742 14.739 10.375 22.688-2.5689 6.0799-18.089 12.05-21.969 19.219 0.027 4.9326 10.093 12.481 8.6562 19.188-0.7837 1.9996-4.0343 4.0453-8.8437 8.2188-9.8454 8.5434-10.456 9.8503-6.8437 16.5 8.3906 15.448 8.7009 14.309-2.75 25.281-11.54 11.057-11.327 10.918-5.8126 20.531 5.9442 10.361 5.6687 9.8937-2.3124 16.531-7.8228 6.5054-7.504 7.828-3.3126 15.906 4.054 7.8123 4.9779 7.9248-1.8437 13.969-7.9694 7.0609-9.4645 7.8035-3.8437 16.688 5.8126 9.1884 6.2427 8.7998-0.3126 16.312-6.2083 7.1158-6.9295 7.4437-3.5624 12.281 4.2286 6.0763 5.0276 7.6887 0.5937 14.375-4.7889 7.2216-4.7672 6.7097-0.375 13.438 3.6984 5.6651 3.0625 11.969 3.0625 11.969l-13.875-0.0312s-0.099-7.9755-1.7188-10.906c-3.931-7.1108-3.8289-9.3171 0.8438-15.625 4.7954-6.4736 3.9964-7.0272-0.4688-13.5-4.5182-6.5507-3.8698-6.4847 2-13.938 5.3848-6.8361 5.6551-10.064 2.5938-13.969-7.2572-9.2575-7.2396-13.158 0.062-19.281 5.5707-4.6694 6.0889-6.7525 1.2813-14.75-4.7057-7.8268-5.2983-8.542 3.3437-16.344 8.831-7.9724 8.7367-7.805 2.8125-16.844-5.7456-8.7663-5.4395-9.3507 3.7812-17.906 9.3303-8.6566 9.454-8.6755 3.3438-19.594-5.7191-10.219-5.7657-10.046 5.4062-20 11.123-9.2689 14.911-10.446 3.8126-23.75-6.1831-10.551-1.7811-11.588 8.375-16.844 17.812-10.878 9.7027-10.202 2.2187-26.344-6.2543-10.822-2.6815-10.901 8.2187-16.312 2.7039-1.1632 5.7051-2.5029 8.7813-4.2188 7.289-4.0657 3.3437-7.7812 3.3437-7.7812zm23.281 0.25 53.531 0.6875c-62.046 79.231-91.906 180.57-102.62 287.47l-20.219-0.3125c-1.2657-83.487 24.998-187.79 69.312-287.84zm274.87 1.8571c30.615 25.771 53.307 40.526 69.445 46.341 0 0-21.591 35.83-23.25 34.52-124.19-23.923-271.87 48.486-305.28 204.59l-19.562 0.125c7.2264-61.256 23.345-112.42 53.031-165.78 29.455-51.817 56.588-82.099 97.512-120.26zm-213.7-1.33l26.375 0.46875s4.952 5.9482 7.1875 8.0938c11.384 12.911 12.364 10.34-12.719 24.5-15.84 8.9425-22.856 13.097-23.781 16.844-0.708 3.7751 6.9167 11.266 7.8125 16.312 0.01 0.56722-21.534 14.989-25.438 17.031-5.4346 2.635-5.7089 4.904-0.3125 14.281 6.204 10.781 5.704 10.405-7.6875 19.75-13.062 9.1154-15.627 8.2125-10.062 17.281 7.7285 12.595 4.0921 15.435-14.094 25.25-4.5921 2.4784-4.7089 4.9645-1.5 13.562 4.4596 11.947 5.6142 10.749-3.7812 17.219-11.096 7.6406-13.052 7.852-10.594 12.531 7.1452 13.6 9.9798 16.904 0.4376 21.344-7.2787 3.3862-7.4296 5.3036-3.4063 14.281 4.0444 9.0246 5.092 8.6624-2.0937 13.75-6.6577 4.7133-10.576 3.6654-4.0938 11.375 5.1273 6.0977 4.6698 10.912 0.5 14.656-3.5919 1.5218-5.2654 8.3505-4.2188 8.5l-9.25 0.25c-7.2433-9.7638 1.303-15.356 2.5938-16.312 1.177-2.2485-0.2665-3.8396-3.1875-9.125-4.023-7.2796-3.8824-8.1494 1.9063-12.406 5.8481-4.3011 6.0222-3.1865 2.125-12.688-4.534-11.052-4.3217-12.314 2.8124-17.438 7.0226-5.0432 7.1157-6.1644 2.3438-15.844-5.0335-10.21-5.0374-10.217 7.4375-18.5 8.7754-5.8269 8.8967-5.4783 4.25-16.281-3.2093-7.4611-0.9402-10.044 11-18.219 6.8207-4.6696 7.336-5.5939 4.125-11.156-8.8524-15.335-8.7586-15.801 6.5-25.688 12.482-8.0875 12.377-8.784 7.5625-19.562-5.2139-11.673-5.6801-10.773 11.438-21.031 14.095-8.4466 14.861-7.9572 9.0625-18.125-7.2129-12.647-6.7551-10.577 21.438-26.688 10.163-6.9617 19.334-4.5515 9.2187-16.406-4.4-5.67-9.9-11.8-9.9-11.8zm-497.88 20.812c1.9528-0.0699 3.4758 2.3308 3.375 6.7812-0.3473 6.2696-3.3115 12.488-6.1562 18.719-5.962 12.694-11.901 22.09-15.031 22.125-7.3687 0.082-7.1702-1.5693 2.625-20.719 4.4714-8.7416 9.0853-18.723 9.8125-20.656 1.575-4.1871 3.652-6.1883 5.375-6.25zm90.625 28.75c0.1329 26.882-84.176 40.427-88.554 26.857 14.696-11.506 58.151-6.3982 67.356-16.69-11.101-0.64113-26.134 1.1872-36.438 1.3715-12.85 0.22985-33.611 5.7223-33.822 7.9928-1.3443-7.075 22.066-20.353 40.614-21.187 17.338-0.75366 36.172 1.3013 50.844 1.6562zm7.2188 41.031s-164.39 136.03-245.66 201.84l0.5 29.344 260.2-212.89zm-0.5313 6.7188 10.5 12.75-244.12 198.91-0.875-20.844zm771.65 69.792-8.7736 9.3673c-238.4-177.41-458 91.96-336.9 284.63-1.0969 2.4833-9.517 8.6354-9.517 8.6354-134.94-223.7 123.26-485.46 355.22-302.66zm-131.2-38.85c13.535 0.1043 38.446 9.3967 48.969 22.062 12.25 14.746 8.6876 21.317-6.875 7.4062-16.728-12.154-30.542-14.974-7.3126-0.625 5.1249 3.1653 9.733 9.3463 9.9688 10.031 0.8486 2.4646-3.4361-0.11957-22.906-7.2188-11.576-4.2207-26.249-15.633-30.063-23.406-2.8531-5.8155 1.1289-8.3046 8.2188-8.25zm-50.188 0.40625c4.2219-0.0343 7.984 0.29546 10.656 1.0625 17.055 4.8965 22.425 7.4624 28.781 12.406 4.3494 3.3831 2.956 5.8215-2.0938 3.6562-5.8818-2.5224-24.51-8.0611-27.844-7.7188-4.8441 0.49753 0.014 3.6669 6.9687 5.4062 15.416 3.8554 23.065 7.8333 12.063 8-5.7374 0.85149-30.848 0.93172-37.688 0.125-11.426-1.3478-28.534-11.766-24.594-15.5 4.2509-4.029 21.084-7.3347 33.75-7.4375zm-48.906 16.031c20.223 0.238 31.165 7.7905 9.0626 9.3125-37.999 6.0162-45.297 14.28-3.1876 4.4375 9.7983-2.29 9.617 1.2431 2.8438 4.5625-5.5394 2.6911-12.456 4.0173-18.219 6.8125-10.388 4.3228-34.185 5.2803-43.469 1.75-13.699-5.209 29.304-27.154 52.969-26.875zm162.72 3.4375c10.217 0.26391 32.016 15.077 41.719 28.969 6.3422 9.081 3.1834 15.603-6.4063 8.3125-1.9177-1.4578-15.69-13.163-16.438-13.438-1.2879-0.47278 11.423 11.6 13.281 15 1.5939 2.8807 5.2634 9.4884-1.5937 9.625-10.715-1.3216-35.876-29.433-36.031-43.312-0.041-3.7127 2.0631-5.2442 5.4688-5.1562zm-126.78 7.9062c4.2573-0.13782 2.0834 2.1214-6 7.8125-14.585 10.268-6.9795 8.2099 10.062-0.5625 5.1795-2.6658 11.429-4.7514 13.625-5.1562 2.1963-0.40485 4.8078-1.0043 5.8126-1.3125 4.5817-1.4064 1.0475 4.2442-6.4063 10.219-15.684 12.571-33.397 22.442-45.625 25.469-15.584 3.8571-18.886 4.3514-13.125-5.375 9.1545-15.455 22.485-27.817 35.219-30.219 2.864-0.5401 5.0178-0.82906 6.4376-0.875zm52.437 0.25c6.4917-0.12952 14.515 1.2138 27.156 3.9375 8.8859 2.7713 6.558 3.3672-4.0937 4.5312-20.035 2.1895-11.695 4.5276 7.7812 4.1875 26.571-0.19947-13.313 9.5791-26.25 11.531-10.09 0.44956-13.052 0.0914-35.062-4.0312-8.3867-1.5709-3.3568-7.7153 12.531-15.312 6.4944-3.1056 11.446-4.7142 17.937-4.8438zm164.3 3.59 0.7 17.12-321.7 269l-10.938-12.094zm-109.47 14.719c12.829-0.17076 31.367 8.7273 29.375 14.094-0.7427 2.0019-2.1755 1.9184-11.969-0.6875-6.426-1.7099-17.936-3.5163-16.406-2.0938 0.5286 0.49087 9.5113 3.9266 12.938 4.75 11.332 2.7238 24.906 9.1306 21.906 11.031-5.2516 3.1965-10.062 0.69698-16.281 0.0312-15.556-2.1596-41.108-10.015-45.313-13.938-4.7695-4.4503 11.946-13.004 25.75-13.187zm-150.06 1c2.313 0.12208 3.1778 2.2742 0.9687 5.2188-3.3529 4.4206-4.8945 8.131-7.9063 13.562-10.754 16.609-17.536 23.186-27.875 29.625-10.338 6.4388-11.815 5.3322-10.906-8.0625 1.1605-13.909 11.118-28.536 25.188-35.406 6.4946-0.92046 10.22-2.6306 3.4063 5.5312-12.09 14.482-3.8168 13.003 7.4687-3.4375 3.587-5.2254 7.3426-7.1533 9.6563-7.0312zm-41.781 1.9375c6.9723-0.0353 9.3102 2.4342 0.375 6.625-8.5082 3.9905-25.429 15.825-25.844 17.125-0.704 2.2037 5.6327-1.2547 16.156-7 14.069-7.6808 15.302-7.4999 8.5 1.2812-7.6918 9.9296-26.196 22.366-40.719 26.969-20.319 5.5645-19.824 1.6737-8.4687-13.406 10.825-16.393 20.016-24.213 33.875-28.688 6.0734-1.9606 11.942-2.8851 16.125-2.9062zm-344.62 2.5c73.724 127.14 32.796 256.32-52.737 322.21-89.421 68.876-228.54 64.787-310.64-17.874l11.389-10.754c-0.056 0.053 129.42 131.91 292.48 14.868 82.754-59.397 116.93-199.66 48.666-297.45zm-330.25 0.28125c-0.2396 0.002-0.4262 0.0366-0.5625 0.125-2.4829 1.6116-11.838 29.072-13.719 40.469-0.55 3.3346 0.2627 6.6042 3 9.2812 1.9234 1.8804 5.0385 0.66248 6 0.28125 6.2342-2.8214 9.6733-7.1445 15.125-20.844 3.6583-7.4991 4.1614-16.462 3.4376-19.594-0.2937-1.268-2.3114-4.2246-4.8438-5.9062-2.8034-1.8616-6.7605-3.8236-8.4375-3.8125zm1.4375 5.7188c2.9485-0.0278 8.7834 4.7704 9.5 8.1875 0.054 5.9609-3.3583 15.881-5.9062 14.406-4.2581-5.2903-9.1564-1.9547-9.9688-3.875-0.5487-5.8655 3.2201-13.546 5.8125-18.656 0.1684-0.0466 0.3659-0.0607 0.5625-0.0625zm796.25 4.75c32.782 0.009 65.383 9.6101 89.312 30.812l-12.781 11.719c-55.9-40.02-121.3-28.31-160-1.32-38.342 26.722-72.275 85.875-39.031 169.19l-12 10.875c-37.246-67.012-17.261-155.57 48.656-197.47 23.242-14.772 53.015-23.228 82.875-23.781 1.0575-0.0196 2.13-0.0317 3.1875-0.0312zm-484.78 9.7812c0.9949 0.00046 2.5044 3.2573 2.3437 7.25-0.193 4.7946-2.2231 11.05-5.4687 12.375-3.6581 1.493-5.9688-9.4062-5.9688-9.4062 2.2447-3.5556 5.3118-7.1754 9.0938-10.219zm586.94 3.75c1.3361-0.0673 2.6314-0.0137 3.75 0.125 3.6617 0.45408 3.693 3.7296 0.25 6.875-3.7173 3.3966-5.6553 3.5778-9.4062 0.84375-3.3477-2.4401-3.5206-4.2359-0.625-6.3125 1.514-0.9636 3.8054-1.4191 6.0312-1.5312zm-629.62 0.75 10.875 13.406-37.687 30.312-4.5 0.34375-288.5 238.91-0.063-21.219zm602.79 32.347-39.292 32.419c-78.535-40.801-141.51 31.906-119.29 97.948l-33.978 29.489c-60.5-166.83 117.2-223.9 192.8-159.89zm-205.5-25.48c0.1231-0.0225 0.2294-0.0255 0.3437 0 0.2613 0.0584 0.5272 0.25217 0.7813 0.5 1.3743 1.3441-1.3613 23.456-3.4063 27.562-0.7438 1.4936-1.3221 3.418-1.3125 4.2812 0.02 1.8143-7.2334 16.989-12.906 27-2.1385 3.7727-4.4236 8.7227-5.0626 11.031-4.5538 21.897-14.374-13.313-10.906-33.75 1.6297-9.6058 15.263-29.436 19.219-27.969 2.0161 0.74804 1.8721 2.2625-1.6563 9.9375-9.8457 21.417-12.315 32.459-1.9687 11.75 11.924-23.869 15.028-30.006 16.875-30.344zm-667.47 0.4375c1.4585 0.0829 2.6181 0.89196 3.25 2.5938 0.438 1.4534 0.9087 4.4642 0.094 5.9375-2.014 4.5352-6.1875 7.5211-10.406 7.25-1.8545-0.11919-3.8748-1.7488-4.125-3.75-0.2263-1.8102 0.2161-4.8834 2.5-7.2188 3.0055-3.0732 6.2567-4.9507 8.6875-4.8125zm299.12 1.375c4.6535 0.22828 9.5597 12.747 6.4375 18.469-2.5546 4.6817-3.0286 3.8085-7.5-5.25-2.3513-4.7634-4.1563-9.875-4.1563-9.875l3.8126-3c0.311-0.16849 0.6501-0.27234 0.9687-0.3125 0.1493-0.0188 0.2874-0.0386 0.4375-0.0312zm-7.8438 5.2812s4.8974 8.8698 6.0938 15.938c0.7305 4.3151 0.6102 3.508-4.125 1.7188-3.7313-2.331-4.5531-3.6818-6.875-6.5938-1.5274-2.6956-3.0625-4.6875-3.0625-4.6875zm29.438 1.9062c2.4749-0.0845 5.1303 2.4141 7.5624 8.5312 9.1326 22.968 8.2928 48.74-1.9687 60.906-1.7 2.0156-2.1154 2.1026-4.1563 0.84375-1.6669-1.0286-1.8294-11.939-0.2187-15.031 0.5045-0.96848 2.0114-7.5564 2.125-11.281 0.269-8.8211-2.1532-9.9291-3.3125-1.75-1.3397 9.4517-2.7977 16.056-5.375 10.375-1.2949-2.8866-1.9549-5.7707-2.9375-8.8438-5.1353-19.858 0.8557-43.497 8.2813-43.75zm-39.781 5.875s8.79 11.347 12.406 15.406c1.277 2.1926 1.2264 2.7513-0.8126 3.5312-3.4789 1.3311-15.108-6.4165-19.719-8.8125-2.4862-1.9818-1.4063-3.5-1.4063-3.5 3.1779-2.3935 6.3541-4.7452 9.5313-6.625zm346.62 0.40625c4.6896-0.0522 4.6916 1.5823-0.3125 8.7812-27.952 40.212-22.308 34.24-4.5312 12.25 9.8855-12.229 11.602-13.394 12.687-10.656 0.8132 2.0489-10.947 25.846-17.031 34.469-3.143 4.4543-13.882 11.907-19.312 14.656-13.294 6.7303-11.82 4.0261-6.9063-12.656 6.2651-25.882 22.006-46.695 35.406-46.844zm-362.9 13.89c76.628 190.55-133.2 274.19-227.88 186.06l11.031-8.7813c131.7 89.323 261.68-53.773 202.19-165.75 0 0 5.3915-4.4829 14.656-11.531zm17.75 4.625c12.613 1.2919 31.248 24.365 32.188 37.219 1.9924 9.1301-0.5875 10.697-5.0626 4.2812-7.5559-13.958-6.6487-5.11-0.2187 8.75 3.4154 7.0033 4.2067 15.395 0.6563 15.844-4.8527-0.98338-15.353-17.723-18.563-24.625-7.6527-15.122-8.2105-12.557-12.406-34.969-0.7863-4.2002 0.3103-6.4655 3.4062-6.5zm-38.125 6.25c58.369 111.94-67.195 246.43-194.91 159.5l38.281-30.375c66.655 31.973 141.02-7.6832 119.72-99.594zm582.29 20.87-105.29 87.737c-21.669-72.723 57.893-114.26 105.29-87.737zm-195.6-0.17c3.4407-0.71626 6.3619 21.309 7 52.219 0.6242 30.237 1.3972 33.225-8 22.094-3.9401-4.5365-8.7849-8.8677-10.938-12.938-6.2418-11.801-4.2566-24.164-2.5313-41.438 1.6104-16.116 7.3749-13.599 6.4376 3.2812-0.6038 10.861-0.4875 24.363 1.2187 24.344 0.6188-0.007 0.7953-1.0512 0.4063-2.5312-0.8128-3.0898 2.9061-38.091 4.4374-42.219 0.6614-1.781 1.3316-2.6799 1.9688-2.8125zm-290.2 13.31c7.6056 2.9767 9.769 28.36 1.5313 52.906-3.5401 10.546-8.9828 17.435-17.094 21.688-5.7889 3.035-7.1414 2.0727-4.5312-3.2188 4.8043-8.6232 7.3675-17.56 9.3124-28.688 0.7784-10.86-4.9505-2.1403-4.4687 2.5-4.4893 20.257-10.388 23.307-9.625 1.9688 0.562-15.726 2.6238-22.473 10.031-33.281 3.7252-5.4118 7.7096-12.862 14.844-13.875zm264.09 2.5625c3.1292 0.0279 3.896 4.225 1.0938 12.406-1.9421 5.67-8.557 24.033-7.7812 23.969 0.486-0.0404 7.5838-16.555 9.0312-19.25 2.3761-4.4248 3.2575-5.262 5.3438-5.0625 2.0354 8.1551-0.062 18.339-1.0626 26.781-4.3013 22.005-19.289 44.733-25.031 37.969-9.3554-11.021-4.972-55.652 7.4375-69.219 4.6737-5.1094 8.5354-7.6155 10.969-7.5938zm-401.03 3.375c11.309 77.84-52.917 111.07-108.41 87.594 1.1754-0.2939 108.41-87.594 108.41-87.594zm262.56 1.4375 11.188 14.688 20.5 1.0625-10.5 15.469 10.438 19.812-22.875 0.4375-13.156 15.125-11.437-13.656-20-1.0625 11.656-18.594-9.4062-17.781 21.594-1.0312zm-172.03 6.6875c2.571 0.09 15.214 16.707 16.469 22.844 3.8191 14.858 2.408 42.966-2.9375 42-5.7988-20.246-3.5446-30.7-5.625-28.375-3.6033 3.7248 2.236 34.759 0.3125 42.406-0.9163 1.9493-4.0173-0.3976-7.5-5.4062-9.2995-13.374-8.0488-65.693-0.9375-73.406 0.061-0.0324 0.1358-0.0654 0.2187-0.0625zm684.5 31.53-253 209.6l14.594 18.781 238.86-197.21zm-365.4 3.6149c1.1061-0.22585 3.629 1.5478 8.375 6.75 8.28 11.179 17.055 26.533 20.25 38.344 1.2129 4.5937 3.162 10.683 4.3437 13.531 1.7747 4.2761 1.9229 5.4578 0.875 6.75-4.3815 5.4006-22.712-8.1983-28.625-21.219-8.3053-18.288-8.5146-34.768-0.1875-18.719 3.0291 5.838 6.7876 14.345 6.75 10.969-0.011-0.96244-3.6884-13.218-6.5-18.688-1.7449-3.4385-8.1086-17.142-5.2812-17.719zm362.72 5.0938 0.5313 17.344-235.62 197.06-9.25-11.25s221.94-184.59 244.34-203.16zm-367.88 10.719c1.1078 0.11152 1.6761 1.6953 1.3437 5.2188-1.0784 11.455-3.9004 36.396-3.3124 38.594 0.3535 1.3224 3.7273-16.516 4.5-19.688 4.0238-16.529 10.178 22.984 6.4687 40.688-0.5834 2.7838-1.7638 7.2742-2.375 10.031-0.6112 2.757-2.5825 7.4717-3.375 8.7188-6.6754 10.498-22.36-31.299-19.719-52.594 1.6443-13.261 12.512-31.367 16.469-30.969zm-272.59 9.1562c3.0823-0.1647 3.6759 2.8591 3.1562 9.2188-1.7816 21.801-16.276 44.693-32.156 50.781-15.814 6.0628-17.284 4.8448-7.9063-6.4687 7.1101-8.5781 11.415-17.584 10.219-18.75-0.6609-0.6453-2.2415 2.9563-8 10.344-7.2196 9.263-8.4097 1.42-1.8437-12.188 5.6709-11.752 10.968-17.904 21.625-25.094 7.519-5.0726 12.186-7.6984 14.906-7.8438zm143.28 6.625c-3.1868 93.879-26.591 195.87-71.781 284.53l-42.219 0.094c51.694-76.148 84.691-170.43 93.875-284.22zm18.562 0.0937s6.3317 6.5694 8.9063 11c2.8386 4.8863 3.6318 9.155-1.5313 12.812-5.9918 5.0661-8.4902 3.1824 1.2813 15.75 5.1489 6.6224 3.4761 7.7044-2.9063 13.281-6.5885 5.7568-6.966 6.0641-0.8437 13.844 6.5512 8.3245 7.7335 9.6033-0.8126 16.031-7.6988 5.7907-7.794 7.1503-1.7812 16.562 5.5382 8.6692 7.2164 8.5839-3.4062 17.562-9.0743 7.6693-9.2871 5.5453-0.5313 19.656 3.2207 5.1913 2.9971 5.528-2.9063 10.75-14.504 12.832-13.748 12.03-11.687 15.406 15.896 22.778 8.7076 22.127-6.8438 33-3.1373 2.6847-2.3297 5.7113 4.6875 17.094 5.9645 9.6754 5.0976 11.766-8.875 21.375-14.549 10.006-15.024 11.356-7.75 21.563 7.1658 10.054 7.3237 9.3696-4.3125 19.75-5.2527 4.6854-9.5625 9-9.5625 9h-25.781s5.4439-4.9709 9.1563-7.7188c21.171-15.671 21.086-14.013 12.156-25.312-7.903-9.9993-7.1364-10.657 0.875-16.375 5.7599-4.1142 13.521-8.3542 19.344-12.562 3.1372-2.231 0.8166-4.0913-4.4063-13.969-5.8532-11.07-6.1707-9.7892 4.7188-18.75 11.922-9.8095 12.119-9.447 5.6562-21.875-6.4817-12.465-6.5903-11.382 1.5938-18.062 12.167-9.9324 12.747-9.3991 6.3438-20.906-5.1077-9.1779-5.1572-8.9169 3.4687-17.531 8.6989-8.6865 7.6174-8.1399 2.4687-16.094-5.2326-8.0845-4.9593-9.1744 1.9376-15.312 7.4305-6.6137 6.3795-6.2102 0.2187-14.656-6.0712-8.3239-5.9781-7.7009 1.4063-14.156 3.8816-3.3936 7.7851-6.8431 7.5624-8.4375-0.5724-4.1111-4.4993-9.9475-8.2812-15.562-1.4424-2.1415 1.4455-2.798 6.0625-7.5937 4.696-4.8783 4.4854-3.6534 0.9375-10.125-1.9199-3.502-5.5625-9.4062-5.5625-9.4062zm-69.094 0.21875 7.3437 0.1875s1.262 1.6652 2.9687 3.4062c4.7183 4.8126 4.9248 7.6371 0.1876 10.219-4.5469 2.4776-2.8017 5.9488 1 11.531 4.033 5.9227 3.9966 5.2432-1.7813 11.062-5.9674 4.851-9.0484 6.2231-2.4687 15.406 3.7395 4.2583 3.2755 8.6535-2.5313 12.469-4.4627 2.9327-11.876 5.3689-4.0625 16.531 3.8122 7.9562 4.1146 7.4465-3.8438 13.094-10.589 7.5151-12.58 6.2085-7.7187 17.156 5.4077 12.18 5.9433 12.364-5.1563 20.531-12.899 9.4915-13.34 10.259-7.9687 21.625 5.4172 11.463 5.5569 8.5573-8.0937 19.187-10 7.7875-12.275 8.2156-9.3126 14.656 5.5496 12.065 7.9015 15.302-8.2812 23.594-18.686 9.5756-19.629 10.286-10.656 24.531 7.2973 11.586 5.6758 9.9402-6.375 16.875-17.421 10.025-25.115 14.39-25.656 17.5-0.355 3.5213 13.594 14 13.594 14l-24.312 0.6563s-10.221-8.2964-14.188-12.156c-10.997-10.704-11.116-7.1984 25.438-24.938 20.174-9.7901 18.481-7.5706 15.187-13.281-9.7259-16.868-10.065-18.624 8.1876-27.813 15.859-7.9834 13.136-8.5551 9.2812-20.625-3.3599-10.519-2.8257-9.5497 5.5312-15.75 20.202-14.986 19.654-13.434 16.5-20.781-3.1025-7.2286-5.4853-10.594-3.1562-14.156 7.2805-10.441 22.767-12.66 16.438-25.094-2.9546-8.0195-4.0084-9.8144 4.9063-16.75 8.0398-6.692 8.0849-5.8815 2.9374-14.719-6.2676-8.1102-5.3642-9.4455 3.8126-15.812 6.5401-5.979 6.4521-5.822 2.7812-11.656-5.0606-8.043-4.816-8.2922 2.4062-14.625 5.883-5.158 6.9074-5.4371 3.1563-11.125-4.9768-7.5466-4.1516-9.2043 2.4063-12.906 4.0222-2.2703 4.0003-3.1961 3.6562-7.0312-0.066-0.73793-2.1562-5-2.1562-5zm91.187 0.4375 33.844 0.0937c10.81 62.754 29.682 88.505 40.594 108.37-42.792 68.699-33.063 125.76-6.9376 176.25l-107.19-0.4062c27.48-94.01 41.649-188.6 39.687-284.31zm-232.31 0.25c1.2436-0.0896 2.1197 1.9222 4.2187 5.5 6.7816 11.559 1.9859 27.951-7.9375 45.125-7.4245 12.849-8.7707 3.0349-5.375-15.469 2.1408-11.666-3.7384 5.8139-6.5312 19.906-1.5148 7.64-5.1768 13.805-9.1563 13.438-3.7467-0.6082-2.5888-11.314-2.4687-13.688 0.8488-16.867 7.1349-28.815 19.344-45.563 4.6242-6.3432 6.4962-9.1484 7.9063-9.25zm345.5 33c1.6081-0.073 3.8538 0.5986 6.625 2.1875 2.1568 1.237 6.0336 3.584 8.7187 5.0625 9.387 5.1684 10.147 6.7427 5.6875 11.938-5.517 6.4264-9.0505 3.9772-18.594-6.7189-6.4385-7.2162-6.5477-12.282-2.4374-12.469zm-3.125 14.125c1.5158 0.036 4.6412 1.6692 7.6874 5.1563 6.1822 7.0746 5.4371 13.052-1.4062 11.344-2.7944-4.0851-4.2369-10.306-6.9062-14.906-0.6073-1.0451-0.2852-1.6155 0.625-1.5936zm302.31 0.9063c-5.9929 0.01-16.028 7.9212-17.937 15.969-5.8244 24.55-5.8159 23.487-0.5938 27.062 1.5325 1.0489 2.6825 1.8152 3.4375 2.2811 3.062 2.4145 7.2317 6.1495 7.7813 5.4064 4.9745 0.027 12.532-31.426 12.281-37.906 0.3139-6.844 0.5529-7.6715-1.1562-10.781-0.7768-1.4122-2.1339-2.0342-3.8126-2.0312zm-306.91 0.5312c0.3991-0.076 0.8994 0.1376 1.5 0.625 3.9278 3.9076 5.5079 10.899 7.5 15.906 0.012 1.0853-0.4425 2.8669-1 3.9376-3.3936 6.5144-8.6747 0.1976-9.2188-11.031-0.3055-6.3127 0.022-9.2085 1.2188-9.4374zm305.97 4.8438c0.2635-0.016 0.5173-0.011 0.75 0 4.024 0.1814 3.3984 4.3403-2.1876 10.375-2.9374 3.1735-8.998 4.676-11 2.7187-2.9121-2.848 3.1016-10.674 9.6563-12.562 1.0661-0.3072 1.9901-0.4838 2.7813-0.5312zm-679.78 3.4374c0.2264 0 0.4366-0.014 0.6563 0 2.1038 0.132 3.8681 1.0821 5.25 2.6876 2.6806 3.3143 1.5528 8.4382 0.2812 12.719-3.1787 11.22-24.206 32.946-31.75 33.031-4.4906-0.7835 14.286-24.641 14.875-28.656-1.398-1.3672-13.034 12.071-18.5 21.406-2.475 4.2272-5.2877 9.4389-6.7812 10.344-3.9213 0.4519-8.4428 2.9492-8.4688 0.3125 0.6483-11.92 23.986-37.896 31.938-45.125 4.8801-4.5952 9.1035-6.6573 12.5-6.7188zm56.281 1.125c18.03-0.2007-17.47 39.252-40.438 44.938-7.1534 1.7707-20.34 2.2355-21.281 0.75-0.941-1.4861 0.1162-2.6944 3.0625-3.4688 4.74-1.2464 28.207-16.178 28.188-17.938-0.025-2.2102-9.7188 1.4547-18 6.8125-5.3621 3.4691-7.8813 2.7508-4.9688-1.4375 13.483-19.388 31.524-29.412 53.438-29.656zm312.09 0.063c1.0239 0.083 2.0486 2.1169 2.6875 6.6562 3.2773 8.4545 3.4336 10.763 0.3438 13.25-5.2884 4.2555-6.5912 3.065-6.5313-6.7188 0.049-8.0609 1.7936-13.327 3.5-13.187zm-593.97 11.219s6.5783 2.4656 3.8437 5.5937c-1.8996 2.1733-9.9929 0.3223-10-0.3124zm905.78 0.25c2.1464-0.14 2.1989 1.8403 1.0625 6.8437-0.5965 2.6269-3.1927 16.445-7.7813 20.281-0.5571 0.3659-7.2202-3.6067-9.0312-5.4375-0.8302-0.8475-3.4347-2.7864-3.7812-4.0625-1.1345-4.1755 0.08-9.6052 3.25-12.312 1.2382-1.0577 3.725-1.6414 5.0624-1.6562 1.0509-0.012 4.1553-1.0301 6.9063-2.25 1.9244-0.854 3.3368-1.3427 4.3125-1.4063zm-903.47 9.5313c4.3298-0.031 9.6474 0.4318 14.156 1.9687 13.296 3.8654 37.686 14.79 41.438 18.375 5.4632 5.2204-8.7951 10.778-25.938 10.969-9.0896 0.1017-10.802-1.7882-23.375-9.3124-1.6146-1.0631-8.9399-5.8723-6.8125-7.625 2.3296-2.3829 9.349 0.6835 18.094 5.125 2.8526 1.4483 9.7955 1.0335 9.7812-0.25-0.017-1.51-17.478-8-30.562-12.156-8.5911-2.7288-8.3907-5.4826-3.125-6.6563 1.5092-0.2264 3.7462-0.4192 6.3437-0.4373zm-17.187 5.9687s3.6204 3.2047 8.3124 6.7187c5.0936 3.8139 11.008 8.5204 15.125 14.781 5.9536 7.2594 15.362 25.323 14.313 28.594-2.4079 7.4993-27.543-5.6594-48.094-26.219-6.6801-6.683-10.594-11.656-10.594-11.656l7.8438-7.0937s6.8883 5.7613 14.844 12.781c14.924 13.168 14.824 8.6452-0.1876-5.2188-4.2462-3.9218-8.1562-7.4375-8.1562-7.4375 0.1989-2.5148 2.5759-4.7353 6.5938-5.25zm613.97 0.625s8.0208 8.3241 11 12.156c-48.909 47.812-67.582 114.61-20.375 185.75l-22.656-0.094c-42.436-83.508-22.312-146.38 32.031-197.81zm-413.66 1.9687c3.041-0.137 0.2721 3.4412-5.125 12.625-10.076 17.148-12.074 21.477-28.437 25.75-4.2136 1.089-10.217 0.222-12.688 0.5313-7.0371 0.8813-3.9063-0.01 6.875-7 14.94-9.6886 2.2517-4.7058-11.562 2.4063-8.0009 4.1184-16.394 3.9143-17.125 1.7812-0.4038-1.1756 3.2408-4.2713 5.5937-6.375 21.036-18.809 27.49-18.017 47.062-24.812 8.5418-2.9659 13.326-4.8119 15.406-4.9063zm-87.937 17.156c7.6146 0.046 14.717 0.8082 21.031 2.2187 4.1821 0.9432 10.991 1.7788 5.25 6.9688-6.5022 6.1174-24.064 14.472-37.062 15.031-1.8251 0.067-28.587-1.8215-22.875-7.5624 1.141-0.6365 4.7738-0.4696 7.9063-1.0626 14.826-2.8056 10.814-5.1929-7.4376-4.2187-22.858 1.2196-23.902-1.1432-6.5937-5.875 12.658-3.4606 25.098-5.2388 36.5-5.4687 1.1085-0.022 2.1929-0.038 3.2813-0.031zm122.12 1.75c10.174-0.1003 18.081 1.7156 18.125 5.5937 0.07 6.2885-19.199 20.082-31.844 22.813-2.9778 0.6428-7.2116 1.567-9.4062 2.0624-4.4103 0.9949-28.838 0.1457-31.219-0.7187-11.44-4.1538-3.4811-5.7844 17.5-8.2187 9.1312-1.0601 13.488-3.4532 13.469-5.1876-0.01-0.8427-6.7383-1.0795-16.75 0.1876-11.186 1.4148-8.9897-1.8772 4.9374-9.0938 9.2001-4.7668 23.657-7.3239 35.188-7.4375zm-188.28 8.7187c1.4233 0.036 4.8577 1.2156 10.562 3.5938 12.181 3.5449 28.917 7.5535 40.375 20.062 9.2529 8.9612 11.508 11.849 9.5625 15-2.3562 3.8168-31.072 0.9144-43.156-4.25-7.9827-3.4116-17.498-10.732-21.844-17.062-10.529-15.336-6.0996-19.375 7.2813-8.6562 16.125 12.917 18.514 14.245 21.375 13.656 1.1508-0.2368-1.6873-2.8903-7.0938-6.9062-13.58-10.088-20.194-15.516-17.062-15.438zm99.344 16.469c13.505 0.018 16.421 1.0288 29.531 7.0312 16.408 5.7829 12.43 10.929-16.688 18.188-14.581 3.4211-29.256 1.0226-39.906-5.5314-23.469-14.441-21.92-17.329 4.2812-10.875 8.6108 2.1209 17.189 2.5172 17.719 0.9064 0.4053-1.2341-10.01-3.8857-18.469-6.6876-9.1618-3.0344-1.2871-2.7767 17.031-2.9687 2.4238-0.025 4.5709-0.065 6.5-0.062zm675.29 62.386s-2.9995 1.4183-4.3229 2.1456c-1.0458 0.5753-9.157 1.5902-18.031 2.25-17.498 1.3015-29.267 4.1073-39.883 8.3739-16.026 6.442-26.743 26.313-26.743 26.313 11.98-0.8124 79.789 11.445 98.604-12.984 3.9392-5.1146-10.113 38.607-17.322 40.548-17.871-2.1459-25.392 25.898-23.603 24.714-18.025 6.9846-32.003 11.085-27.421 32.006 1.9984 9.1234 11.245 19.96 30.836 17.236-5.3356 36.278 39.058 45.662 43.95 1.9322 0 0 8.6568-1.6499 11.989-2.0439 20.241-4.7951 25.145-34.368-4.5625-43.75-8.2423-2.4414-8.7083-3.9901-8.7083-3.9901 1.5366-6.6733 1.1711-13.677-3.6561-21.457 6.5526-15.616 22.864-45.729 22.864-45.729zm3.136 9.024c4.0841 5.4557-17.215 14.484-39.896 16.434-5.0867 0.4372-16.274 1.4632-16.562 1.9687-2.4433 4.2779 43.856 1.1704 58.281-6.9063 4.941-2.7663 5.3859-0.3337 3.2403 3.9315-16.746 21.531-57.166 16.225-88.772 12.444-1.8033-1.8144-0.2676-4.0374 6.8125-9.7812 12.987-10.536 22.339-14.054 42.844-16.156 5.7228-0.1834 31.475-5.0298 34.053-1.9342zm25.1 22.4c-2.9116 9.2618-18.125 37.531-18.125 37.531-1.8682 1.8682-8.5333 3.1855-8.0312-3.9688 0.079-7.6805 14.463-39.328 18.344-39.938 4.635-0.3568 8.0464 3.054 7.8125 6.375zm9.6498 2.1558c4.4573 32.438 29.075 40.152 52.694 50.376 6.2166 2.85 11.487 7.9138 17.719 11.187 11.673-15.919-1.4792-46.833-22.031-56.906-15.268-7.1249-29.181-12.795-37.781-12.156-4.976 0.3697-10.53 3.5652-10.6 7.4995zm12.631-1.9371c2.6431-0.029 6.4261 0.7378 20.219 4.4063 20.82 5.5376 35.509 20.896 39.344 41.125 0.1551 0.8189 1.2235 16.496-2.3645 15.937-5.4226-1.5599-8.3443-7.0175-17.042-10.655-10.861-4.5428-26.093-10.512-35.438-19-7.5484-6.8565-11.673-14.239-12.594-20.563-0.9327-6.5635 1.2636-7.2333 6.7813-1.9374 12.354 9.8286 24.536 13.191 36.75 22.687 3.3932 2.6382 15.575 9.389 7.2568 0.9822-5.6343-5.6944-22.228-15.623-31.038-19.857-12.247-5.8862-18.902-13.046-11.875-13.125zm-937.81 32.375l139.7 218.1c-34.357 18.122-51.294 26.058-108.34 21.594l0.2187 2.875-24.24-1.4123c41.871 65.358 93.547 150.62 78.885 299.37l170.04-0.1748s2.655 2.5192 2.914 2.6942c2.4857 1.6789 6.2163-2.9511 6.2163-2.9511l76.706-0.4102 2.0748 2.4747 35.766-0.2485s-163.54-306.01-245.67-457.97c-33.744-60.954-68.886-88.034-134.16-84.063zm880.25 7.2188c9.1662-0.226 18.281 6.0743 18.344 18.312 0.033 6.3751-5.3464 15.268-5.3464 15.268l-12.455-11.871-11.906 11.916c-5.8618-4.8478-9.337-14.073-7.4169-19.323 3.6645-8.972 11.651-14.126 18.781-14.302zm-144.38 4.3438c11.815 46.042 24.576 109.53-77.875 256.25-60.597 86.78-80.424 168.65-82.844 268.56l-6.125 0.031c2.8935-54.833 3.2812-154.25 3.2812-154.25l5.7188-5.0937s-2.6043-4.2261-3.75-9.1876c-1.9311-8.3615-0.3038-5.5735 4.6875-28.031 20.942-108.46 156.91-328.28 156.91-328.28zm-547.06 21.125 519.22 2.375-6.9062 13.625-502.44-3.5938zm692.09 3.9374 19.281 18.781-18.844 21.156-19.844-20.75zm-15.814 7.9827-10.519 11.184 9.1176 9.593c-9.3867 19.703-34.367 4.3281-33.531-10.416 0.9782-17.25 21.136-24.323 34.933-10.361zm33.32 22.23 8.3783-10.651-9.4677-10.378c15.504-15.311 30.165-1.8263 31.582 10.95 1.5106 13.617-19.724 28.99-30.493 10.079zm-614.94-13.026 42.531 0.4062-15.813 29.594-43.125-0.1876zm94.75 0.2187h39.062l-16.5 30h-39.531zm92.25 0h41.438l-16.812 30h-42.562zm92.75 0h42.406l-15.438 30h-44zm94.469 0h40.875l-16.562 30h-42.063zm-451.38 0.1563h27.469l-11.219 19.75zm684.93 18.927c15.72 12.621 4.7962 33.354-11.583 33.724-11.28 0.2545-27.656-18.828-9.9377-34.38l11.801 10.787zm-577.8 15.948h39.938l-15.031 27h-39.125zm88.781 0.2187h43.812l-15.438 27h-41.688zm93.812 0h43.594l-14.219 27h-44.031zm93.469 0h43.25l-13.469 27h-45.719zm-356.69 1.0313h27.563l-11.75 21.625zm20.781 31.312 404.72 3.5938-6.875 13.125-387.56 0.062zm14.219 23.5 379.25 0.9376-8.7187 18.156-131.03-0.5938c-25.57-19.085-54.79-10.262-88.125 0.5938 0 0-100.31 1.0475-139.75 0zm532.3 46.4c21.038 26.929 36.135 64.437 42.25 94.031 6.0593 30.258-0.5148 45.078-8.25 18.594-12.822-66.22-91.338-75.89-126.38-24.594-48.671 71.256 36.592 157.73 97.719 99.813 5.2161-4.9433 8.1111-6.1395 9.875-4.0626 2.0472 2.4123 0.63 4.5686-10.25 15.531-42.466 42.788-26.687 104.37 30.812 118.69 81.619 20.321 130.96-79.434 59.625-126.53-7.4191-5.6451-8.2019-7.0718-5.5-10.125 2.4143-2.7282 4.5113-2.4087 11.113 3.5624 61.141 55.308 144.65-16.952 105.97-91.687-29.797-57.564-112.71-46.997-132.55 16.969-3.699 11.924-3.9761 12.609-6.0313 13.938-8.4965 0.3267-2.5091-27.785-1.2187-35.219 9.6164-32.814 20.244-63.522 40.562-88.906zm-658.34 30.594 200.03 315.72-44.219-0.5-189.94-297zm982.47 18.425c1.3295 0.9971 19.963 52.258 16.326 56.965-1.1309 3.7067-4.28 2.4268-5.5-2.2187-11.621-44.276-66.416-36.82-65.906 8.9687 0.3157 28.356 29.431 40.598 54.75 23 3.754-2.6086 5.4721-2.659 5.5-0.1562 0.01 0.7492-2.9089 4.6234-6.5 8.625-20.342 22.668-12.682 53.978 14.781 60.406 36.906 8.6389 54.782-32.9 27.031-62.781-4.0361-4.346-7.3378-8.3427-7.3437-8.875-0.025-2.2507 3.0822-1.864 6.6874 0.8125 25.6 19.005 56.794 6.1852 56.438-23.188-0.4704-38.768-48.66-48.984-61.906-13.125-3.2988 8.9298-4.9118 11.309-6.5937 9.6875-6.4775-3.3989 17.354-58.677 18.007-58.677zm-1022.6 2.1371 188.84 295.08c-8.6662-0.2011-16.71 0.3301-25.377 0.199 3.5103-55.109-40.836-80.947-66.894-82.26 15.631-64.448-31.356-91.566-62.701-96.685 12.71-83.758-56.626-95.633-57.634-94.79 0.3374-6.8757-0.956-11.835-1.8801-17.57l25.643-3.9734zm-30.594 4.6772c-0.4064 1.7727 3.5575 18.461-3.9059 15.385l-0.5312-15.354zm-39.754 0.4266c2.6961 11.096 8.399 13.298 16.143 20.741 0 0-9.9047 1.6813-12.201 0.094-4.1176-2.8467-12.718-20.924-12.718-20.924zm29.536 18.772c4.7875 0 8.6561 3.8999 8.6562 8.6876 0.0001 4.7874-3.8687 8.6562-8.6562 8.6562s-8.6562-3.8688-8.6562-8.6562c-0.0002-4.7877 3.8687-8.6874 8.6562-8.6876zm17.16 6.6684c24.837-1.6254 60.859 25.018 51.361 74.873-1.653-3.4811-3.6091-11.142-7.64-16.578-17.124-23.093-37.283 8.554-23.695 21.47 6.6612 6.3312 9.7813 8.8267 9.0632 9.4012-15.31-2.9057-26.908 10.652-20.536 25.699 10.621 19.474 25.376 9.1567 33.915-2.3944 0 0 5.2555 17.429 10.484 19.645 8.004 3.3924 19.045-0.9055 22.806-10.576 5.5945-14.385-8.0101-18.073-11.002-26.081 28.734 0.9358 65.342 42.933 48.687 79.354 2.1843-8.3031-6.7155-26.894-24.016-22.102-8.6455 3.0191-11.655 15.61-4.6822 28.56 2.2316 4.1446 3.4376 5.6874 3.4376 5.6874s-7.4828 0.988-9.4477 2.198c-22.447 13.823 6.493 51.531 23.198 27.958 1.7041-2.8025 4.4979-6.0053 4.4979-6.0053 2.7584 5.2503 3.6001 12.643 8.6329 15.177 20.683 10.412 29.903-11.566 21.213-22.338-4.8946-6.0674-10.418-13.069-10.418-13.069-0.8618-3.8782 61.988 12.603 54.334 73.744l-166.62-0.2272c15.445-93.924-21.952-201.38-41.039-234.13l8.2665-10.907c2.0724 4.0573 5.5153 14.268 11.596 16.225 19.328 6.2217 25.217-7.2877 22.627-21.174-1.379-7.394-11.732-13.344-15.021-14.412zm44.121 88.394c4.5442-0.0001 8.2188 3.7058 8.2188 8.25 0 4.544-3.6746 8.2187-8.2188 8.2187-4.544 0-8.2499-3.6747-8.25-8.2187 0-4.5442 3.706-8.25 8.25-8.25zm989.78 76.014c-11.082-10.343-23.338-10.057-34.42-8.8447l-0.6024 23.282s27.436-1.3639 23.79 12.854c-0.9793 2.7885-2.2964 12.141-2.2964 12.141l-0.3617 119.4c4.4533 52.473 72.017 62.976 88.669 13.18 3.2088-8.5032 2.6825-16.228 2.6825-25.506v-62.95l19.213-0.3835-0.7356-22.369-17.596 0.273c1.2861-31.441-4.1457-61.72-26.229-68.91-24.28-7.3095-39.512-1.1267-52.114 7.8346zm57.299 53.729c-11.16 2.029-26.772-19.044-39.619-34.149 5.8842-11.32 23.792-9.2789 30.469-2.3251 9.6761 10.078 9.0083 28.702 9.1497 36.474zm-984.55-31.899c4.5902 0 8.3125 3.7223 8.3125 8.3125s-3.7223 8.3125-8.3125 8.3125-8.3125-3.7223-8.3125-8.3125 3.7223-8.3125 8.3125-8.3125zm935.9 20.079c11.789 23.014 48.001 40.674 48.544 37.153l0.2004 63.322c1.8395 25.363-7.0708 37.724-23.152 39.375-28.187 0.3078-27.872-34.702-27.879-54.209l-0.3763-62.496c0.1831-7.5238-0.7236-16.908 2.6632-23.146z" transform="matrix(.99994 .011135 -.011135 .99994 -3051.4 -711.61)"/>
  </g>
 </g>
</svg>
