<svg xmlns:rdf="http://www.w3.org/1999/02/22-rdf-syntax-ns#" xmlns="http://www.w3.org/2000/svg" version="1.1" xmlns:cc="http://creativecommons.org/ns#" xmlns:dc="http://purl.org/dc/elements/1.1/" viewBox="0 0 744.09 1052.4">
 <g transform="translate(-714.31 -219.68)">
  <g transform="translate(-5060 3025)">
   <rect rx="10.63" ry="10.63" height="311.81" width="223.23" stroke="#000" stroke-miterlimit="3.8" y="-2435" x="6034.7" stroke-width="0.99" fill="#fff"/>
   <g transform="matrix(.30106 0 0 .30106 5449.6 -1980.9)">
    <path d="m1984.5-1353.9c7.0822-36.836 14.645-64.473 34.478-94.491h-40.306v12.922h-10.714v-24.35h58.972l7.2692 11.429c-21.064 22.576-40.351 95.556-36.934 94.491z"/>
    <path d="m2644-627.17c-7.0822 36.836-14.645 64.473-34.478 94.491h40.306v-12.922h10.714v24.35h-58.972l-7.2692-11.429c21.064-22.576 40.351-95.556 36.934-94.491z"/>
   </g>
  </g>
  <path d="m1027.8 659.96c0.015-2.0257-1.5868-2.0644-1.5686-0.58579-0.1343 7.4286-6.4165 11.086-10.981 10.219-7.0361-1.3376-9.2818-8.3221-9.2147-12.435 0.2072-12.696 12.988-22.058 24.52-38.335 8.4501 14.691 22.397 26.23 23.223 37.586 1.0977 15.098-18.009 20.73-20.737 3.1327-0.176-1.243-1.6397-1.8011-1.5261-0.065 0.4145 4.8226-0.1749 6.8314 5.2657 18.719h-14.222c3.1497-5.5549 5.0254-12.375 5.2398-18.236z"/>
  <path d="m1139.4 659.96c0.015-2.0257-1.5868-2.0644-1.5686-0.58579-0.1343 7.4286-6.4165 11.086-10.981 10.219-7.0361-1.3376-9.2818-8.3221-9.2147-12.435 0.2072-12.696 12.988-22.058 24.52-38.335 8.4501 14.691 22.397 26.23 23.223 37.586 1.0977 15.098-18.009 20.73-20.737 3.1327-0.176-1.243-1.6397-1.8011-1.5261-0.065 0.4145 4.8226-0.1749 6.8314 5.2657 18.719h-14.222c3.1497-5.5549 5.0254-12.375 5.2398-18.236z"/>
  <path d="m1084.3 710.08c0.015-2.0257-1.5868-2.0644-1.5686-0.58579-0.1343 7.4286-6.4165 11.086-10.981 10.219-7.0361-1.3376-9.2818-8.3221-9.2147-12.435 0.2072-12.696 12.988-22.058 24.52-38.335 8.4501 14.691 22.397 26.23 23.223 37.586 1.0977 15.098-18.009 20.73-20.737 3.1327-0.176-1.243-1.6397-1.8011-1.5261-0.065 0.4145 4.8226-0.1749 6.8314 5.2657 18.719h-14.222c3.1497-5.5549 5.0254-12.375 5.2398-18.236z"/>
  <path d="m1139.4 760.2c0.015-2.0257-1.5868-2.0644-1.5686-0.58579-0.1343 7.4286-6.4165 11.086-10.981 10.219-7.0361-1.3376-9.2818-8.3221-9.2147-12.435 0.2072-12.696 12.988-22.058 24.52-38.335 8.4501 14.691 22.397 26.23 23.223 37.586 1.0977 15.098-18.009 20.73-20.737 3.1327-0.176-1.243-1.6397-1.8011-1.5261-0.065 0.4145 4.8226-0.1749 6.8314 5.2657 18.719h-14.222c3.1497-5.5549 5.0254-12.375 5.2398-18.236z"/>
  <path d="m1027.8 760.2c0.015-2.0257-1.5868-2.0644-1.5686-0.58579-0.1343 7.4286-6.4165 11.086-10.981 10.219-7.0361-1.3376-9.2818-8.3221-9.2147-12.435 0.2072-12.696 12.988-22.058 24.52-38.335 8.4501 14.691 22.397 26.23 23.223 37.586 1.0977 15.098-18.009 20.73-20.737 3.1327-0.176-1.243-1.6397-1.8011-1.5261-0.065 0.4145 4.8226-0.1749 6.8314 5.2657 18.719h-14.222c3.1497-5.5549 5.0254-12.375 5.2398-18.236z"/>
  <path d="m1139.4 835.93c0.015 2.0257-1.5868 2.0644-1.5686 0.58579-0.1343-7.4286-6.4165-11.086-10.981-10.219-7.0361 1.3376-9.2818 8.3221-9.2147 12.435 0.2072 12.696 12.988 22.058 24.52 38.335 8.4501-14.691 22.397-26.23 23.223-37.586 1.0977-15.098-18.009-20.73-20.737-3.1327-0.176 1.243-1.6397 1.8011-1.5261 0.065 0.4145-4.8226-0.1749-6.8314 5.2657-18.719h-14.222c3.1497 5.5549 5.0254 12.375 5.2398 18.236z"/>
  <path d="m1027.9 835.93c0.015 2.0257-1.5868 2.0644-1.5686 0.58579-0.1343-7.4286-6.4165-11.086-10.981-10.219-7.0361 1.3376-9.2818 8.3221-9.2147 12.435 0.2072 12.696 12.988 22.058 24.52 38.335 8.4501-14.691 22.397-26.23 23.223-37.586 1.0977-15.098-18.009-20.73-20.737-3.1327-0.176 1.243-1.6397 1.8011-1.5261 0.065 0.4145-4.8226-0.1749-6.8314 5.2657-18.719h-14.222c3.1497 5.5549 5.0254 12.375 5.2398 18.236z"/>
  <path d="m991.82 660.97c0.01-0.87153-0.8953-0.46462-1.0178-0.1903-1.1632 1.9856-2.8648 2.4477-4.5479 1.7318-1.6673-0.70915-2.6042-2.2803-2.4539-4.5222 0.3102-3.4378 3.0354-7.1996 4.355-9.3262 1.252-1.9299 2.6279-4.2222 4.0767-7.1541 1.6973 3.3632 2.5587 4.3206 4.4052 7.3915 1.626 2.7044 3.8925 5.353 4.0675 8.6224 0 2.4849-1.046 4.8318-3.3994 5.2594-1.3314 0.2419-2.5787-0.44156-3.5038-2.0368-0.2818-0.40657-0.8488-0.19467-0.8393 0.36189 0.1652 2.0933 0.9554 3.9832 2.8295 6.2116h-6.8871c1.4101-1.576 2.8487-3.7037 2.9153-6.349z"/>
  <path d="m1180.6 833.71c0.01 0.87153-0.8953 0.46462-1.0178 0.1903-1.1632-1.9856-2.8648-2.4477-4.5479-1.7318-1.6673 0.70915-2.6042 2.2803-2.4539 4.5222 0.3102 3.4378 3.0354 7.1996 4.355 9.3262 1.252 1.9299 2.6279 4.2222 4.0767 7.1541 1.6972-3.3632 2.5586-4.3206 4.4051-7.3915 1.626-2.7044 3.8925-5.353 4.0675-8.6224 0-2.4849-1.046-4.8318-3.3994-5.2594-1.3314-0.2419-2.5787 0.44156-3.5038 2.0369-0.2818 0.40656-0.8487 0.19466-0.8392-0.3619 0.1651-2.0933 0.9553-3.9832 2.8294-6.2116h-6.887c1.4101 1.576 2.8487 3.7037 2.9153 6.349z"/>
 </g>
</svg>
