<svg xmlns:rdf="http://www.w3.org/1999/02/22-rdf-syntax-ns#" xmlns="http://www.w3.org/2000/svg" version="1.1" xmlns:cc="http://creativecommons.org/ns#" xmlns:dc="http://purl.org/dc/elements/1.1/" viewBox="0 0 744.09 1052.4">
 <g transform="translate(-5997.5 2805.3)">
  <rect rx="10.63" ry="10.63" height="311.81" width="223.23" stroke="#000" y="-2435" x="6257.9" stroke-width=".99673" fill="#fff"/>
  <g fill="#d40000" transform="matrix(.30106 0 0 .30106 5370.1 -1979.9)">
   <path d="m3056.6-1323.5c32.952-32.158 54.594-67.22 75.29-100.94 18.15 37.102 44.197 69.561 72.364 100.94-30.137 31.118-53.494 64.393-72.274 99.374-20.818-35.859-42.736-68.33-75.381-99.374z"/>
   <path d="m3056.6-990.49c32.952-32.158 54.594-67.22 75.29-100.94 18.15 37.102 44.197 69.561 72.364 100.94-30.137 31.118-53.494 64.393-72.274 99.374-20.818-35.859-42.736-68.33-75.381-99.374z"/>
   <path d="m3056.6-662.99c32.952-32.158 54.594-67.22 75.29-100.94 18.15 37.102 44.197 69.561 72.364 100.94-30.137 31.118-53.494 64.393-72.274 99.374-20.818-35.859-42.736-68.33-75.381-99.374z"/>
   <path d="m3243.2-1157c32.952-32.158 54.594-67.22 75.29-100.94 18.15 37.102 44.197 69.561 72.364 100.94-30.137 31.118-53.494 64.393-72.274 99.374-20.818-35.859-42.736-68.33-75.381-99.374z"/>
   <path d="m3427-1323.5c32.952-32.158 54.594-67.22 75.29-100.94 18.15 37.102 44.197 69.561 72.364 100.94-30.137 31.118-53.494 64.393-72.274 99.374-20.818-35.859-42.736-68.33-75.381-99.374z"/>
   <path d="m3427-990.49c32.952-32.158 54.594-67.22 75.29-100.94 18.15 37.102 44.197 69.561 72.364 100.94-30.137 31.118-53.494 64.393-72.274 99.374-20.818-35.859-42.736-68.33-75.381-99.374z"/>
   <path d="m3427-662.99c32.952-32.158 54.594-67.22 75.29-100.94 18.15 37.102 44.197 69.561 72.364 100.94-30.137 31.118-53.494 64.393-72.274 99.374-20.818-35.859-42.736-68.33-75.381-99.374z"/>
   <path d="m3243.2-826.74c32.952-32.158 54.594-67.22 75.29-100.94 18.15 37.102 44.197 69.561 72.364 100.94-30.137 31.118-53.494 64.393-72.274 99.374-20.818-35.859-42.736-68.33-75.381-99.374z"/>
   <path d="m3606.6-676.62c13.499-13.173 22.364-27.536 30.842-41.349 7.435 15.199 18.105 28.495 29.644 41.349-12.346 12.747-21.914 26.378-29.607 40.708-8.5281-14.689-17.506-27.991-30.879-40.708z"/>
   <path d="m2979.4-1294c13.499-13.173 22.364-27.536 30.842-41.349 7.435 15.199 18.105 28.495 29.644 41.349-12.346 12.747-21.914 26.378-29.607 40.708-8.5281-14.689-17.506-27.991-30.879-40.708z"/>
   <path d="m2971.7-1386.8c0.5319-14.533 5.8816-19.991 16.421-27.6-8.4057-5.9629-11.95-14.736-11.234-22.212 1.7322-18.092 15.976-27.144 31.505-26.75 15.529 0.3942 28.913 12.501 29.957 25.649 0.9079 11.437-2.5591 16.948-10.82 22.969 9.8084 8.1096 16.078 13.452 15.84 27.769-0.2379 14.316-12.641 31.355-34.26 31.878-21.62 0.5231-37.94-17.169-37.408-31.703zm60.362 0.048c0.9274-13.16-10.922-22.04-24.292-22.178-13.028-0.1345-24.683 10.784-24.685 22.599 0 12.692 15.158 19.586 24.948 19.623 11.899 0.044 23.23-8.7095 24.029-20.044zm-4.2782-47.078c0.2587-11.086-10.154-19.031-20.888-18.711-9.5508 0.2844-19.667 7.4427-19.672 16.71-0.01 11.592 11.5 17.38 21.314 17.598 8.9033 0.1981 19.051-7.2235 19.246-15.597z"/>
   <path d="m3667.7-600.56c-0.5319 14.533-5.8816 19.991-16.421 27.6 8.4057 5.9629 11.95 14.736 11.234 22.212-1.7322 18.092-15.976 27.144-31.505 26.75-15.529-0.3942-28.913-12.501-29.957-25.649-0.9079-11.437 2.5591-16.948 10.82-22.969-9.8084-8.1096-16.078-13.452-15.84-27.769 0.2379-14.316 12.641-31.355 34.26-31.878 21.62-0.5231 37.94 17.169 37.408 31.703zm-60.362-0.048c-0.9274 13.16 10.922 22.04 24.292 22.178 13.028 0.1345 24.683-10.784 24.685-22.599 0-12.692-15.158-19.586-24.948-19.623-11.899-0.044-23.23 8.7095-24.029 20.044zm4.2782 47.078c-0.2587 11.086 10.154 19.031 20.888 18.711 9.5508-0.2844 19.667-7.4427 19.672-16.71 0.01-11.592-11.5-17.38-21.314-17.598-8.9033-0.1981-19.051 7.2235-19.246 15.597z"/>
  </g>
 </g>
</svg>
