<svg xmlns:rdf="http://www.w3.org/1999/02/22-rdf-syntax-ns#" xmlns="http://www.w3.org/2000/svg" version="1.1" xmlns:cc="http://creativecommons.org/ns#" xmlns:dc="http://purl.org/dc/elements/1.1/" viewBox="0 0 744.09 1052.4">
 <g transform="translate(-713.31 92.135)">
  <g transform="translate(-.000065580)">
   <g transform="translate(-5061 3025)">
    <rect rx="10.63" ry="10.63" height="311.81" width="223.23" stroke="#000" y="-2746.8" x="6034.7" stroke-width=".99673" fill="#fff"/>
   </g>
  </g>
  <g>
   <path d="m1034-2499.9v-9.0914h8.8389l18.814-97.227h10.705l20.736 97.227h7.1342v9.0914h-24.307v-9.0914h6.566l-2.6161-14.9h-24.532l-1.894 14.9h6.566v9.0914zm43.772-34.598-10.657-52.05-9.9871 52.05z" transform="matrix(.30106 0 0 .30106 669.69 1076.8)"/>
   <path d="m1727.4-1770.2v9.0914h-8.8389l-18.814 97.227h-10.705l-20.736-97.227h-7.1342v-9.0914h24.307v9.0914h-6.566l2.6161 14.9h24.532l1.894-14.9h-6.566v-9.0914zm-43.772 34.598 10.657 52.05 9.9871-52.05z" transform="matrix(.30106 0 0 .30106 669.69 1076.8)"/>
   <path d="m1078 462.62c2.879-5.7756 4.9759-11.701 5.3481-18.037 0.3416-2.3317-1.0746-2.3708-1.2881-0.7286-4.0764 15.593-25.763 11.37-25.017-3.2965 0.605-11.895 12.42-14.454 18.582-10.565 2.4336 1.4328 2.2961 0.5746 0.9679-0.91177-9.1548-10.211-3.6101-23.362 8.7612-23.602 13.38 0.79343 16.851 14.87 8.6442 23.148-1.0206 0.99462-3.2835 4.1913 0.123 1.9563 8.2868-5.888 19.787 0.44285 19.553 9.5208-0.4327 16.739-20.839 17.987-25.203 4.0058-0.4198-1.5502-1.6291-2.3286-1.295 0.30427 0.6049 4.7666 1.8565 11.953 5.4374 18.206z"/>
   <path d="m986.66 353.32c1.1921-2.4451 2.3522-4.7208 2.9843-7.4009 0.4192-2.5276-0.4383-1.5885-0.9252 0.0682-0.7212 2.2974-2.7226 3.3438-4.58 3.3689-3.3711 0.0455-5.0527-2.6042-4.9479-5.4539-0.3681-2.9986 2.671-5.1202 4.9617-4.9567 1.7223 0.1229 3.224 1.052 4.1329 1.7751 0.5963 0.3153 1.234 0.45461 0.3449-0.35848-1.6776-1.8329-3.0766-2.9642-3.046-5.7108 0.029-2.5787 2.2335-5.2681 5.1554-5.1838 3.6515 0.10546 5.312 2.8901 5.3033 5.4805-0.01 1.8883-0.9536 3.6263-2.4114 4.7027-0.9442 0.76609-0.6794 1.3398 0.3977 0.61483 1.0349-0.89201 2.2671-1.2826 3.5448-1.31 3.4905-0.0547 4.855 2.9615 4.6551 5.7642-0.1874 2.6257-2.4228 5.3284-5.369 5.0223-2.6307-0.3015-4.013-2.5099-4.8051-4.7769-0.2623-0.69509-0.676-0.88281-0.6645 0.15307 0.6077 5.0574 2.4916 8.2044 2.5053 8.2016z"/>
   <path d="m1183.1 515.15c-1.1921 2.4451-2.3522 4.7208-2.9843 7.4009-0.4192 2.5276 0.4383 1.5885 0.9252-0.0682 0.7212-2.2974 2.7226-3.3438 4.58-3.3689 3.3711-0.0455 5.0527 2.6042 4.9479 5.4539 0.3681 2.9986-2.671 5.1202-4.9617 4.9567-1.7223-0.1229-3.224-1.052-4.1329-1.7751-0.5963-0.3153-1.234-0.45461-0.3449 0.35848 1.6776 1.8329 3.0766 2.9642 3.046 5.7108-0.029 2.5787-2.2335 5.2681-5.1554 5.1838-3.6515-0.10546-5.312-2.8901-5.3033-5.4805 0.01-1.8883 0.9536-3.6263 2.4114-4.7027 0.9442-0.76609 0.6794-1.3398-0.3977-0.61483-1.0349 0.89201-2.2671 1.2826-3.5448 1.31-3.4905 0.0547-4.855-2.9615-4.6551-5.7642 0.1874-2.6257 2.4228-5.3284 5.369-5.0223 2.6307 0.3015 4.013 2.5099 4.8051 4.7769 0.2623 0.69509 0.676 0.88281 0.6645-0.15307-0.6077-5.0574-2.4916-8.2044-2.5053-8.2016z"/>
  </g>
 </g>
</svg>
