<svg xmlns:rdf="http://www.w3.org/1999/02/22-rdf-syntax-ns#" xmlns="http://www.w3.org/2000/svg" version="1.1" xmlns:cc="http://creativecommons.org/ns#" xmlns:dc="http://purl.org/dc/elements/1.1/" viewBox="0 0 744.09 1052.4">
 <g transform="translate(-1090.4 198.15)">
  <g transform="translate(-4683.9 2918.9)">
   <rect rx="10.63" ry="10.63" height="311.81" width="223.23" stroke="#000" y="-2746.8" x="6034.7" stroke-width=".99673" fill="#fff"/>
   <g fill="#d40000" transform="matrix(.30106 0 0 .30106 5730.6 -1948.1)">
    <path d="m1034-2499.9v-9.0914h8.8389l18.814-97.227h10.705l20.736 97.227h7.1342v9.0914h-24.307v-9.0914h6.566l-2.6161-14.9h-24.532l-1.894 14.9h6.566v9.0914zm43.772-34.598-10.657-52.05-9.9871 52.05z"/>
    <path d="m1727.4-1770.2v9.0914h-8.8389l-18.814 97.227h-10.705l-20.736-97.227h-7.1342v-9.0914h24.307v9.0914h-6.566l2.6161 14.9h24.532l1.894-14.9h-6.566v-9.0914zm-43.772 34.598 10.657 52.05 9.9871-52.05z"/>
   </g>
  </g>
  <path d="m1359.1 232.88c-1.583-3.4723-1.7567-9.4054 2.9711-10.208 3.5621-0.45844 5.0117 1.1983 5.2999 3.7419 0.1422 0.74302 0.5617 0.7885 0.6948-0.0583 0.2044-2.6094 2.7872-4.1326 4.8064-3.75 5.5266 0.9454 5.2039 7.0284 3.3985 11.156-2.7309 5.4795-5.6006 8.9376-8.245 14.452-3.0382-5.741-6.5073-10.405-8.9257-15.333z" fill="#d40000"/>
  <path d="m1450.4 299.28c7.144-0.4744 10.868 5.6274 11.595 10.436 0.4334 0.76389 0.6707 0.54864 0.8369-0.0423 0.3493-6.1741 5.8749-11.22 10.993-10.53 8.328 0.10829 13.39 9.3754 11.966 17.219-1.7385 9.5816-6.8997 15.351-10.808 21.293-4.4213 6.1524-10.373 15.04-12.29 19.317 0 0-6.0483-9.2045-13.917-20.03-5.2618-7.2385-9.4731-15.082-9.8651-21.835-0.4479-7.7155 2.7193-14.632 11.489-15.828z" fill="#d40000"/>
  <path d="m1547.5 423.57c-1.583 3.4723-1.7567 9.4054 2.9711 10.208 3.5621 0.45844 5.0117-1.1983 5.2999-3.7419 0.1422-0.74302 0.5617-0.7885 0.6948 0.0583 0.2044 2.6094 2.7872 4.1326 4.8064 3.75 5.5266-0.9454 5.2039-7.0284 3.3985-11.156-2.7309-5.4795-5.6006-8.9376-8.245-14.452-3.0382 5.741-6.5073 10.405-8.9257 15.333z" fill="#d40000"/>
 </g>
</svg>
