<svg xmlns:rdf="http://www.w3.org/1999/02/22-rdf-syntax-ns#" xmlns="http://www.w3.org/2000/svg" version="1.1" xmlns:cc="http://creativecommons.org/ns#" xmlns:dc="http://purl.org/dc/elements/1.1/" viewBox="0 0 744.09 1052.4">
 <g transform="translate(-1536.8 198.15)">
  <g transform="translate(-4683.9 2918.9)">
   <rect rx="10.63" ry="10.63" height="311.81" width="223.23" stroke="#000" y="-2746.8" x="6481.2" stroke-width=".99673" fill="#fff"/>
   <g fill="#d40000" transform="matrix(.30106 0 0 .30106 5635.6 -1949)">
    <path d="m2836.7-2519.9 8.4607-6.1116c7.3538 11.738 15.562 19.474 28.118 18.144 18.845-1.2674 26.649-20.661 22.704-35.285-3.8092-13.103-19.417-19.495-31.815-12.498-2.9236 1.65-6.3052 3.6875-6.3052 3.6875l-4.4137-7.1942 29.109-33.863h-31.59v14.016h-12.122v-25.128h61.746v8.5286s-16.538 16.837-22.013 26.066c13.469 0.4898 24.323 8.8645 28.208 22.116 2.2798 6.97 1.255 22.922-1.7164 29.788-4.9614 11.463-18.548 20.759-30.962 21.296-20.828 1.3757-31.893-12.961-37.408-23.562z"/>
    <path d="m3522-1744.7-8.4607 6.1116c-7.3538-11.738-15.562-19.474-28.118-18.144-18.845 1.2674-26.649 20.661-22.704 35.285 3.8092 13.103 19.417 19.495 31.815 12.498 2.9236-1.65 6.3052-3.375 6.3052-3.375l5.2262 6.7567-29.922 33.988h31.59v-14.016h12.122v25.128h-61.746v-8.5286s16.538-16.837 22.013-26.066c-13.469-0.4898-24.323-8.8645-28.208-22.116-2.2798-6.97-1.255-22.922 1.7164-29.788 4.9614-11.463 18.548-20.759 30.962-21.296 20.828-1.3757 31.893 12.961 37.408 23.562z"/>
   </g>
  </g>
  <path d="m1807 232.79c-1.583-3.4723-1.7567-9.4054 2.9711-10.208 3.5621-0.45844 5.0117 1.1983 5.2999 3.7419 0.1422 0.74302 0.5617 0.7885 0.6948-0.0583 0.2044-2.6094 2.7872-4.1326 4.8064-3.75 5.5266 0.9454 5.2039 7.0284 3.3985 11.156-2.7309 5.4795-5.6006 8.9376-8.245 14.452-3.0382-5.741-6.5073-10.405-8.9257-15.333z" fill="#d40000"/>
  <path d="m1896.8 200.86c7.144-0.4744 10.868 5.6274 11.595 10.436 0.4334 0.76389 0.6707 0.54864 0.8369-0.0423 0.3493-6.1741 5.8749-11.22 10.993-10.53 8.328 0.10829 13.39 9.3754 11.966 17.219-1.7385 9.5816-6.8997 15.351-10.808 21.293-4.4213 6.1524-10.373 15.04-12.29 19.317 0 0-6.0483-9.2045-13.917-20.03-5.2618-7.2385-9.4731-15.082-9.8651-21.835-0.4479-7.7155 2.7193-14.632 11.489-15.828z" fill="#d40000"/>
  <path d="m1896.8 299.28c7.144-0.4744 10.868 5.6274 11.595 10.436 0.4334 0.76389 0.6707 0.54864 0.8369-0.0423 0.3493-6.1741 5.8749-11.22 10.993-10.53 8.328 0.10829 13.39 9.3754 11.966 17.219-1.7385 9.5816-6.8997 15.351-10.808 21.293-4.4213 6.1524-10.373 15.04-12.29 19.317 0 0-6.0483-9.2045-13.917-20.03-5.2618-7.2385-9.4731-15.082-9.8651-21.835-0.4479-7.7155 2.7193-14.632 11.489-15.828z" fill="#d40000"/>
  <path d="m1994 424c-1.583 3.4723-1.7567 9.4054 2.9711 10.208 3.5621 0.45844 5.0117-1.1983 5.2999-3.7419 0.1422-0.74302 0.5617-0.7885 0.6948 0.0583 0.2044 2.6094 2.7872 4.1326 4.8064 3.75 5.5266-0.9454 5.2039-7.0284 3.3985-11.156-2.7309-5.4795-5.6006-8.9376-8.245-14.452-3.0382 5.741-6.5073 10.405-8.9257 15.333z" fill="#d40000"/>
  <path d="m1896.8 455.46c7.144 0.4744 10.868-5.6274 11.595-10.436 0.4334-0.76389 0.6707-0.54864 0.8369 0.0423 0.3493 6.1741 5.8749 11.22 10.993 10.53 8.328-0.10829 13.39-9.3754 11.966-17.219-1.7385-9.5816-6.8997-15.351-10.808-21.293-4.4213-6.1524-10.373-15.04-12.29-19.317 0 0-6.0483 9.2045-13.917 20.03-5.2618 7.2385-9.4731 15.082-9.8651 21.835-0.4479 7.7155 2.7193 14.632 11.489 15.828z" fill="#d40000"/>
 </g>
</svg>
