<svg xmlns:rdf="http://www.w3.org/1999/02/22-rdf-syntax-ns#" xmlns="http://www.w3.org/2000/svg" version="1.1" xmlns:cc="http://creativecommons.org/ns#" xmlns:dc="http://purl.org/dc/elements/1.1/" viewBox="0 0 744.09 1052.4">
 <title>Vectorized Playing Cards 1.0</title>
 <g transform="translate(-512.47 -136.72)">
  <g transform="translate(-1694.1 23.063)">
   <rect rx="10.63" ry="10.63" height="311.81" width="223.23" stroke="#000" y="483.94" x="2467" stroke-width=".99673" fill="#fff"/>
  </g>
  <g transform="matrix(.15410 0 0 .15410 -84.139 794.49)">
   <g transform="translate(4412.2 -1166.4)">
    <g transform="matrix(.99999 .0038796 -.0038796 .99999 1.3098 -8.449)">
     <g transform="translate(-307.16 -19.012)">
      <path d="m3628.4-18.625-1059 0.53125 6.375 1700.2 1062.8-2.2187c-8.2279-566.88-9.0076-1132.7-10.156-1698.6zm-124.94 14.312 111.69 0.5625v654.25s-6.9583-0.20068-6.3124-4.7812c0.8649-6.1331-0.076-17.609-4.375-22.438-1.8116-2.0348-4.7705-5.2357-5.9376-7.5625-2.933-5.8476-7.7623-11.9-11.625-13.531-1.9198-0.81096-4.1465-1.2641-4.4374-2.5938-0.2704-1.2352-0.8988-5.3127-1.7188-9.0625-2.0534-9.3897-3.8809-9.0942 2.0938-18.438 20.702-32.373 28.671-62.153 26.055-91.679-0.8171-9.2234-3.1304-21.171-4.2232-22.81-20.009 20.049-34.491 44.827-48.106 63.131-3.0344-26.153-2.5983-45.893-3.0391-66.859 10.685-3.0471 17.149-8.7335 21.75-23.281 0 0 11.454 8.9667 18.469 7.6875l-4.619-16.897c30.636-9.4007 34.826-49.381-1.3576-57.831l3.2-21.05s-10.918 3.6555-15.719 6c-2.3899 1.0071-2.9814 0.2087-4.6563-3.25-16.873-26.25-43.074-20.662-54.625 5.2188l-14.125-6c1.5313 7.1624 3.3577 14.425 2.0626 21.594-29.647 13.2-22.323 49.327 1.3437 54.062l-2.1 16.87 17.812-5.75c2.5972 7.929 1.2683 12.513 15.5 21.438-0.3487 35.369-0.9225 57.482 0.1875 88.906-18.555-18.998-36.459-32.192-67.844-41.875 0 0-0.2924 7.617 1.5313 19.188 0.6016 3.8172 0.4866 3.257-1.3125 3.25-4.0794-0.0933-22.469-29.656-22.469-29.656s-2.137 0.0264-4 1.875c-2.1902 2.1733 2.8144 6.1875 9.8438 16.625 8.2288 12.218 7.4335 11.702 0.9688 17.188-36.749 31.181-89.824 149.87-80.906 161.41-23.23 1.3903-113.78 45.784-130.22 137.31-0.9749 4.1212-2.9063 9.4688-2.9063 9.4688l-26.188-6.5c15.795-74.966 51.438-227.41 51.438-227.41s25.061-7.1199 39.719-8.6875l-0.1562-5.9062-34.5 8.0312 1.6562-13.062 32.563-6.4062-0.094-3.0938-34.469 4.625 5.625-21.75s-77.378 11.365-105.09 10.531c1.7548 84.577-4.9194 154.84-1.3276 245.99l-37.829-22.925c-3.3644-63.46-4.375-223.75-4.375-223.75l-104.45-16.406 3.4687 25.18c-86.6-34.3-173.4-65.88-237.4-132.98 39.376-30.219 105.09-60.188 105.09-60.188l-2.1563-4.8125c-161.58 83.299-221.6 141.17-302.78 212.97l-2.1874-593.56 441-0.21875-1.4688 108.25s-0.5733 2.804-1.4062 3.7812c-5.3922 26.224 10.086 72.774 6.9687 95.438 1.4442 6.9952 0.9375 20 0.9375 20-26.329 36.063-40.278 70.299-52 112.22-4.5349 1.7991-11.216 5.5082-15.938 6.7812l-1.3437 5.7188c10.332-5.6751 39.625-14.938 39.625-14.938 130.5 63.62 226.4 48.047 329.03 0.78125-16.365 57.442 19.212 130.48 77.75 145.84 6.6927 1.756 18.16 3.253 24.719 1.5312 6.5539-1.89-14.752-50.645-24.188-52.469-28.277-12.247-39.922-41.027-36.906-74.031l-4.6875-7.875c-9.6396 40.095 13.554 80.806 45.406 90.75l8.5624 18.688c-57.727-17.315-82.309-71.367-63.094-124.81 0.3354-33.351-21.272-48.097-31.188-62.469-50.2-19.15-59.5-65.64-50.7-103.22 23.37 9.9398-15.75-33-15.75-33-17.213 37.282-24.405 84.418 14.969 132.19-25.472 33.749-58.315 60.448-95.031 83.25-53.661 28.001-93.919 9.1338-119.84-52.875-15.565-37.231-21.14-74.345-21.063-113.22 0.088-24.067 0.3594-24.797 9.375-20.719 8.4704 3.8318 26.843 4.3757 37.813-1.2812 14.948-7.7084 14.243-3.0165-2.0313 13.719-4.427 4.5523-9.1529 8.6596-9.1563 9.5312-0.019 4.9414 6.948 0.77829 16.875-9.0625 3.6248-3.5933 6.3041-7.0525 7.4376-7 1.2978 0.0601 1.1802 4.6878-0.3126 9.6875-0.5729 1.9192-2.3957 10.031-4.0624 18-1.6667 7.9686-3.9503 17.33-5.0626 20.812-4.4144 13.821-3.2169 20.227 10.039 26.612 6.9896 3.3663 18.944 14.825 18.839 14.825 0 0-2.8552-12.565-1.7977-16.605 1.2718-4.8587 7.0467-1.4235 12.931 1.3873 13.005 6.2123 20.574 6.3899 27.554 0.5625 9.632-8.0411 6.8711-26.102-5.0342-30.812-8.7338-3.4559-10.261-0.25844-1.5433 5.8206 13.081 9.1213-1.6686 23.22-12.777 14.48-8.6892-6.8369-23.775-7.6026-25.459-1.9088-1.5922 5.3831-3.2368 4.4049-9.2516 0.88962-9.3482-5.4634-9.4272-6.4186-1.5937-36.562 14.833-57.078 13.38-78.034-6.2813-95.375-14.553-12.836-38.591-18.796-63.531-4.5312v-19.438c36.609-14.629 63.243-38.832 84.719-79.344h4.1874c21.382 46.296 55.945 79.549 120.97 103.94 25.406 25.083-32.2-72.046-13.812-32.281-34.502-13.362-65.261-39.263-82.188-71.656h9.4062c9.9113 14.32 29.994 40.451 65.75 58.5 3.2456 2.7157 6.375-0.09375 6.375-0.09375s-29.999-47-34.906-58.188l299.71-2.121c-9.5107 72.995-22.904 152.32 29.802 294.48-24.72-12.98-123.84 14.672-106.39 20.136 8.7578-10.107 71.919-25.028 118.66-14-3.8665-3.3376-71.272-159.74-32.062-299.06zm32.062 299.06c0.086 0.074 0.1662 0.10964 0.1876 0.0312-0.061-0.0145-0.1264-0.0168-0.1876-0.0312zm-231.56 281.69 0.2812 11.438 2.375-0.5625-1.375-11.125zm-270.6-580.41h13.156c-3 5.9421-7.2 10.397-13.6 14.063zm22.625 0h14.156c-11.029 17.553-22.754 28.185-36.906 36.5l0.25-13.75c8.1832-7.1673 15.989-14.579 22.5-22.75zm23.406 0h13.063c-17.729 27.235-35.924 45.519-59.219 57.094v-11.125c14.389-11.19 34.793-27.635 46.156-45.969zm19.938 0h10.562c-18.161 34.598-43.49 58.494-76.656 71.781v-8.3125c36.327-19.358 52.223-40.966 66.094-63.469zm28.875 0h12.687c17.408 34.591 53.571 67.313 93.281 81.656l6.0625 14.031c-52.347-18.793-87.017-46.211-112.03-95.688zm36.719 0h9.0625c9.5252 13.278 21.072 24.067 34.562 33.031l8.2187 15.906c-18.208-12.249-38.534-27.123-51.844-48.938zm16.531 0 10.125 0.53125l13.5 22.344c-8.9322-5.019-15.696-15.223-23.531-22.875zm-11.625 89.812c-13.883-0.0636-26.511 3.7641-35.656 11.219-9.6604 7.8744-2.5532 16.453 11.344 10 23.67-10.991 50.864-6.037 80.219 10.031 24.716 13.529 16.057-0.56933-7-15.625-15.806-10.456-33.172-15.553-48.906-15.625zm-111.62 17.719c19.913 0.15776 42.726 8.9767 43.281 20.656-13.206-11.047-39.752-16.41-65.219-5.0625-1.9487-0.41331-2.2229-7.3407-1.0624-9.875 5.4835-4.0474 13.949-5.7905 23-5.7188zm120.59 7.5312c-12.592-0.003-24.114 3.2931-29.438 10.375-2.7193 3.3571-3.4382 3.7174-6.4375 3.2188-5.8572-0.97383-5.5293 2.4125 1.1563 11.688 3.2431 4.4993 2.7103 9.6184-1.625 15.719-4.9778 7.004-4.0072 7.2714 10.812 14.375 11.33 5.516 20.428 13.34 30.719 19.781 7.3517 4.1477 8.8204 0.49964 2.0312-4.9688-2.3302-1.8769-9.234-6.8063-15.437-10.844-10.514-6.8431-18.232-13.76-9.875-10.688 3.8313 1.2108 4.8182 1.716 9.0312 2.4375 10.831 2.3407 21.534 3.6461 30.625 1.8125 6.5206-1.3027 15.015-5.6185 22-11.656 1.7846-0.82183 3.5466 0.0507 7.875 0.21875 16.557 0.64272 12.902-4.2172-10.875-17.188-23.527-12.834-41.981-15.174-57.031-8.125-6.3715 2.984-10.019 3.7291-9.0938 1.8438 0.9649-1.9658 2.7345-4.2497 5.5938-5.9062 24.323-14.555 43.87-2.4898 65.312 8.4375 9.2017 5.4833 11.689 6.9089 12.781 5.1562 1.3995-2.2449-10.26-10.532-25.906-18.375-9.1739-4.7552-21.108-7.3103-32.219-7.3125zm-77.763 16.852c4.1166 1.6121 2.2714 6.3166-1.4889 4.834-22.462-10.085-26.969-14.999-53.744-5.6653-8.846 3.0838-12.35 0.35855-1.4943-4.2962 23.652-9.8964 40.816-3.2204 56.727 5.1275zm-15.393 11.866c-6.0836 30.901-36.848 21.374-33.375 0.15625l5.6563 0.0312c0.4402 18.662 19.145 18.536 22.344 0.1875zm178.91 0.0625 8.2813 17.719c-18.118 44.618 6.4779 104.7 59.969 119.09 0 0 8.6288 13.259 6.9375 14.938-100.42-22.224-92.695-117.95-75.188-151.75zm-95.125 1.1562 2.8125 0.15625c8.6726 21.538 21.267 9.1622 23.719 0.0625l6.4062 0.15625c-1.9562 22.307-35.798 26.094-32.938-0.375zm-77.406 0.625c4.0641-0.47376 5.4481 5.6257 4.3126 6.75-0.3138 0.31066-7.7474 7.5319-8.6563 3.2812-1.3297-6.2181 2.6552-9.7269 4.3437-10.031zm-46.844 0.625c0.3437 0.002 0.6921 0.0186 1.0625 0.0625 2.5201 1.921 3.4764 7.6649 2.1562 10.625-1.4916 1.5483-7.5202-0.56517-8.6874-2.875-1.7932-3.3759 0.3133-7.8464 5.4687-7.8125zm162.88 2.0625c1.9823 0.0789 7.4372 2.4352 6.9063 5.0625-0.1349 0.66758-7.7256 6.2562-9.4376 5.3438-3.2926-1.7549 1.2629-9.7824 1.9063-10.281 0.1131-0.0877 0.3418-0.13627 0.625-0.125zm-44.375 0.96875c0.05-0.0153 0.1072-0.0132 0.125 0 0.5849 0.43406 5.436 3.4525 1.3125 9.0312-0.2847 0.38521-5.7865-1.5721-5.875-2.2188-0.4461-3.2447 3.6819-6.5831 4.4375-6.8125zm121.69 39.125c-1.225 25.646 5.463 50.545 33.469 66.531l-6.0313-11c-7.1789-5.7193-22.222-22.039-20.344-41.469zm-251.5 45.844 3.1562 16.875c-15.412 25.607-27.112 50.773-36.812 80.188l-14.563 5.3125c11.562-37.097 22.253-66.491 48.219-102.38zm6.125 26.281 4.125 14.5c-7.5671 13.945-15.654 29.698-20.531 48.031l-16.094 5.9375c7.2419-24.292 17.832-47.89 32.5-68.469zm51.031 6c-0.2401 0.002-0.4759 0.0268-0.7187 0.0937-0.17 2.86-0.1385 10.76 0.4687 23.781 0.1153 2.47 2.5385 1.4299 9.375-2.0625 5.9609-3.045 5.3469-3.5273 11.125-1.5938 16.001 5.479 23.28 3.1005 29.531 1.4899 9.5332-2.4562 13.426-1.4614 18.969 1.8538 3.0486 1.8235 7.2075 3.1691 8.0313 3.4688 4.3899 1.5968 2.7167-0.3343-0.2813-12.188-3.3716-13.33-1.9256-14.792-7.2695-11.32-1.1737 0.76256-4.5637 2.6396-6.416 2.8555-4.6551 0.54245-12.429-5.1644-17.065-3.3507-11.228 4.3928-11.126 3.2365-21.552 0.68094-5.2118-1.2775-10.202 1.8977-14.728 2.7908-2.5862 0.32319-5.8668-6.5261-9.4688-6.5zm191 6.9062c18.969 17.398 38.47 23.352 59.625 29.938-2.5496 8.6519-7.6557 18.38-10.031 29.688-110.1 58.193-220.73 56.365-325.09 3.5312l54.156-20.688c29.587 51.242 67.515 64.922 110.16 48.156 47.651-22.165 82.928-53.003 111.19-90.625zm-235.25 10.25 4.6876 12.562-6.9688 18.938-13.281 5.375c2.5438-12.901 7.4522-23.501 15.562-36.875zm99.5 14.562c-3.2953 0.15826-8.2732 2.3743-19.625 2.4375-6.1464 0.0342-10.96-0.51403-13.344-0.0312-4.9454 1.0017 0.8342 3.2101 11.906 6.375 11.072 3.1506 24.6-1.6014 26.281-6.4062 0.4109-1.1741-1.049-2.5752-5.2188-2.375zm-91.719 6.1875 2.9063 6.375-4.9688 1.7812zm292.72 3.5938 8.2188 18.719c-14.24 30.818-23.695 115.28 71.375 141.56l4.1562 12.094c-64.706 1.2637-129.55-80.98-83.75-172.38zm-217.69 6.375c-9.2901-0.0925-19.019 2.2146-25.281 7.1875-5.6623 4.4791 1.2599 7.3031 8.625 3.7188 9.5388-4.6422 25.464-4.2592 34.812 1.5938 7.1485 4.8726 10.876 4.0157 6.0938-3.4062-3.7533-5.825-13.721-8.9889-24.25-9.0938zm415.09 21.031c24.849-0.40959 27.432 35.161 22.594 38.219 1.3992-0.47147 5.6447-1.7206 11.688-1.5625 18.209 0.47648 27.702 10.543 28.75 25.188 1.056 14.755-10.155 22.974-26.5 22.156-6.0661-0.30344-10.245-0.91758-9.9688 0.15625 3.0361 11.79-0.6293 29.562-16.25 34-1.7946 0.50987-4.3498 3.0107-4.4062 3.9062-1.1692 18.701 4.1562 82.938 4.1562 82.938s29.284-49.219 35.875-56.688c12.892-17.597 15.221-16.024 15.25 13.219-2.1337 40.563-8.6412 49.867-32.531 83.906-10.228 14.661-34.443 6.9633-32.25 16.875 0.4842 2.1886 4.416 6.1199 8.3437 9.8438 2.5158 2.3852 5.119 3.8826 11 3.6875 10.332-0.34266 14.354-2.4382 8.1836 6.5391-4.8832 7.105-22.047 8.5784-23.98 12.273-4.4988 8.5956-1.419 6.6962-9.1095 14.25-5.8848 6.4478-3.8377 3.1618-1.1562 8.4688 4.2081 6.8473 2.4563 20.511-1.7188 29.719-3.401 7.5002-3.0221 12.851-3.0221 12.851 0.062 0.62509 9.5616-9.8022 12.428-21.851 2.3851-10.024 5.178-15.05 5.1563-9.4375-0.028 7.0809 1.2064 16.704 7.5937 20.375 5.052 2.9036 5.7793 5.8035 4.9375 9.375-0.87 3.6915 3.0749 6.9437 6.9688 10.031 0.9146 0.91233 3.9849 2.1134 3.6562 4.0625-1.0389 6.1615 1.462 13.406 5.9536 14.586 2.0008 0.99136 14.754-0.0934 16.859-7.2732-0.2043-2.2884-0.019-11.706-5.0937-12.25-3.5868-1.6511-3.2125-2.6376 2.2187-5.875 8.1252-4.8432 14.02-8.319 18.031-9.0625 5.3717-0.72925 10.531-6.5625 10.531-6.5625l1.0312 387.19c-48.188 49.32-101 98.409-170.66 146.66-40.476-33.73-84.704-67.874-131.66-93.438l-16.219-9.5937 5.8125-7.4376-28.156-37.125 31.688-25.5 8.0312 10.156-15 14.562 22.5 24.875 50.562-49.312-33.312-31.875 17.344-32.469 11.094 5.4375-8.375 20.594 25.344 16.031 31.719-63-40.219-18.312 10.188-42.312 12.406 1.3125-4.125 30.469 31.344 6.2188 12.75-71.844-46-8.2188 3.9062-40.969 12.844 0.15625-1.875 22.656 32.5 4.625 6.125-62.625-45.094-7.4688 5.8125-48.344 10.312 1.4688-2 29.812 33.094 5.6562c3.6374-20.218 6.601-45.606 12-65.438l-42.625-15.875 15.094-40.594 9.5937 3.3438-8.375 22 31.469 13.375 26.531-52.344-37.062-26.219c8.3038-13.776 16.596-26.871 28.469-38.031l7.2813 6.3438s-2.672 2.4086-6.7813 8.0938c-4.9911 6.9051-6.5559 10.392-5.875 12.188 0.6731 1.7748 23.573 18.681 25.312 18.688 2.0198 0.008 9.6153-6.9145 13.531-11.562 4.1906-4.9739 6.3868-5.4538 10.719-2.3438 0.8635 0.61992 2.1088 1.8477 3 2.9062 1.0415 1.2503 1.459 2.2984 1.5625 3.0938 0.1017 0.78118-0.1179 1.304-0.3125 1.625 0.3681-0.34752 1.1657-0.95312 2.875-1.9062 3.1124-1.7355-6.0267-9.7693-13.5-13.938-22.35-12.542-48.643-36.178-54.719-65.75-2.228-13.279 32.102 2.6921 55.75 26.25 3.5835 3.5644 16.906 16.469 16.906 16.469-1.9431-34.18-4.7266-68.903-3.2187-103.5l-5.2-3.61c-7.3068-5.089-10.117-13.441-10.781-21.812-0.458-5.7717 4.4955-8.723-6.8126-8.3438-23.531 0.20871-37.15-21.94-22.875-40.875 5.1012-7.0849 26.806-10.546 26.781-10.375-5.5445-22.645 11.107-34.794 23.375-35.938zm-8.5625 263.34c-0.4461 0.42114-0.2569 0.42382 0 0zm31.156-225.12c-0.3079 0.10377-0.6562 0.21875-0.6562 0.21875 0.2264-0.009 0.4545-0.0913 0.6562-0.21875zm-783.5 73.969c65.718 55.324 107.65 92.551 241.41 134.22l3.3125 19.812c-76.9-17.76-160.8-53.71-260.6-143.07zm-19.8 12.78c41.611 38.846 84.268 68.433 127.44 93.25l15.156 9.125-7.8126 8 25.406 36.625-32.688 26.656-7.7812-7.75 17.062-16.719-24.281-23.875-49.469 50.062 33.906 30.062-19.656 30.219-7.125-3.2188 10.438-21.062-31.5-17.188-35.219 64.719 44.844 20.406-10.125 39.719-10.469-0.53125 3.5312-31.125-33.719-5.9688-11.344 72.719 43.375 6.8125-1.0313 41.875-11.562-0.1875 0.8125-23.656-34.25-1.5938-3.0625 61.031 42.156 5.4688-4.1874 49.531-10.375-2.6562 1.1562-32.156-32.125-3.1562-11.062 68.375 43.344 12.375-15.312 42.625-9.4063-5.1562 6.1563-22c-7.9037-3.4468-30.125-12.688-30.125-12.688l-28.313 53.094 36.719 25-22.594 39.688-8.7187-5.8437 15.594-23.156-30.5-19.156-17.375 23.719c-7.3751-6.4061-20.631-15.294-25.687-21.25-5.4042-4.9206-9.5132-5.6714-16.469-4.0312-5.4888 1.2942-10.774 2.2864-9.5625 0.3437 0.5961-0.9562 11.018-7.968 26.938-18.062 4.4519-2.823 7.9605-5.2885 7.9062-7.8125-0.04-1.8837 2.4114-4.8709 5.625-6.8125 3.5566-2.1488 2.7606-4.1509 2.1876-6.375-3.077-11.942-1.1364-30.561 4.875-43.094 4.024-8.3894 5.2843-9.896 2.6562-9.9062-7.7488 0.9926-17.192 29.061-19 36.969-0.6075-0.6278-1.4512-8.0276-2-10.875-0.9912-5.1433-1.7133-8.3316-5.8438-9.3125-4.9383-1.1728-3.3716-3.5373-3.875-7.25-0.8167-6.0225-3.662-9.8375-8.8124-11.969-4.9583-2.0517-5.4983-2.877-5.2813-7.8125-0.017-3.8772-4.0568-10.441-7.0625-12.531l-17.188 6.0625c-1.3525 4.5381 0.4461 10.422 3.2813 12.562 8.6373 8.1266-3.9997 8.2385-12.656 13.531-2.3391 1.5142-5.1377 4.8068-7.0313 3.7188-5.4952-1.7998-5.0637 14.618-10.469 12.562l1.4-393.89c46-47.68 180.2-147.12 180.2-147.12zm696.06 69.656 6.625 7.3438c-20.547 23.121-35.45 46.928-51.875 76-14.013 24.804-26.123 59.531-32.469 97.406-4.8982 23.184-5.6561 46.779-8.6876 70.5-3.0878 25.524-3.6778 59.89-8.5624 86.844-9.0176 73.917-29.778 113.25-74.906 155.19-19.834 18.432-81.536 53.243-83.219 52.906l-14.625-3.625c126.52-64.767 158.15-109.44 171.84-262.75 2.6772-192.35 90.166-266.86 95.875-279.81zm12.438 12.875 6.7812 6.5312-36.937 52.156 36.406 25.656-14.438 33.719-11.031-4.0938 7.8438-23-30.625-12.906-24.75 67 43.625 13.75-7.1875 43.656-8.8125-2.375 0.031-29.75-32.375-6.5938-9.4062 74.844 47.688 6.625-3.5 38.625-11.281-0.78125-0.4374-23-33.094-1.75-7.5625 64.875 46.969 7.9688-8.5 46.094-10-2.375 2.25-30.406-31.5-4.1562-18.219 62.25 39.562 19.938-19.469 39.906-8.3437-5.8125 10.781-23.594-30.781-15.188-29.719 51.5 32.25 31.719-31.5 33-7.0313-9 16.25-17.5-24.281-24.031-50.5 40.156 25.781 33.969-3.0313 4.2812-26.625-10.688-12.75-16.844-15.25 6.6874-12.031-4.5937c74.588-39.109 123.12-84.456 143.16-152.84 11.004-37.812 14.275-79.073 17.844-120.66 1.8537-21.597 3.7761-43.288 6.9062-64.625 3.6769-34.851 9.0127-64.101 23.156-97.719 17.154-40.772 38-69.508 63.688-100.62zm-401.38 25.781 51.219 27-0.75 17.938-47.344-23.719zm14.406 0.5 36.5 5 0.1563 14.719zm-164.5 0.46l21.312 9.5938 18.062 20.844 13.531-8.875 14.688 5.5c-46.408 23.85-87.586 52.39-119.66 101.62-35.737 54.867-39.708 126.7-44.281 196.03-7.6243 95.638-24.025 162.82-87.594 240.34l-9.375-5.9062 34.312-54.5-38.688-25 17.625-32.219 8.9063 3.0626-6.9063 19.219 32 16.875 24.531-68.688-45.125-14.062 7.5624-42.969 11.344 1-3 30.781 32.25 5.0938 9.25-72.625-43.469-6.6562 0.9688-38.375 10.656 1.0312-0.062 23.344 34.281 1.8438 2.6562-66.25-42.625-4.7188 5.25-46.781 11.938 1.2188-2.75 28.062 32.812 4.6875 15.563-60.562-42.625-19.25 23-40.906 10.344 4.75-10.562 22.656 29.562 14.406 31-47.375-32.938-31.625 32.344-33.844 7.9374 7.7812-17.562 20.188 24.344 22.5 48.188-40.438-23.531-35.375zm306.53 2.25-1.5 16.969-51.344 29.156-0.031-16.625zm275.56 0.59375 11.344 7.0312-8.2187 9.75-9.9063-6.25zm-297.16 2.4062-30.75 17.75v-17.656zm362.62 16.562c1.6054 0.0368 3.0795 0.38187 4.2187 1.125 3.0941 2.0183 2.6505 6.9916-0.8437 9.4375-4.5499 3.1848-17.016 2.9687-18.25-0.3125-1.78-4.7312 7.9185-10.41 14.875-10.25zm-490.78 7 44.125 23.812-0.1562 16.781-42.469-23.344zm143.75 0.53125-2.5937 21.875-45.438 24.094-0.375-18.969zm-219.94 0.40625 18.094 4.5938c-66.984 29.883-133.18 73.226-158.94 148.84-8.0378 22.631-13.463 47.817-16.995 80.062-1.6598 34.009-6.0456 67.478-7.6534 95.837-3.274 57.747-22.282 135.95-87.945 219.04l-6.2812-4.9376c40.283-49.634 61.223-94.643 74.156-142.19 20.496-75.657 10.335-159.15 32.188-235.31 13.33-46.332 41.007-87.759 82.469-123.59 28.85-22.415 70.906-42.344 70.906-42.344zm30.5 6.34c0.1983-0.01 0.2885-0.006 0.3125 0.0625 16.262 54.746 36.344 154.53 36.344 154.53-43.015-20.804-114.62-17-114.62-17s-40.289-51.971-48.094-56.25c32.22-43.46 119.92-81.041 126.06-81.344zm553.88 8.625c9.9064-0.31634 9.1941 14.733-3.3438 24.969-6.4042 5.2281-9.3695 4.493-14.094 0.3125-1.3898-1.8665-5.4201-3.1971-8.375-2.8438-7.0259-0.0273 6.8596-14.56 19.219-20.562 2.5547-1.2407 4.7593-1.8164 6.5938-1.875zm-502.91 12.25 39.344 20.188 0.375 16.625-36.406-19.75zm133.38 2.25-2.125 18.281-40.969 21.312 0.2188-16.844zm383.38 6.8125c1.3609-0.12595 2.418 0.39952 3.4062 1.5 5.5854 6.2202-5.0291 25.066-17.062 30.719-4.6198 2.1703-7.4664 1.8146-11.312-1.5-1.8687-1.6104-4.6336-3.7256-6.2188-3.5625-6.8894 0.70899-3.0879-7.0172 2.4688-7.4688 1.5342-0.12468 11.175-7.3391 18.469-13.406 4.889-4.0669 7.9817-6.0713 10.25-6.2812zm-41.625 7.3438c8.6964-0.21024 11.861 7.028 1.5624 10.188-7.3326 2.2496-11.425 0.64949-11.406-4.2812 1.5418-5.0648 5.977-5.6542 9.8438-5.9062zm-469.72 9.7812 34.906 17.5 0.1563 17.938-32.062-16.719zm124.91 2.4688-2.4374 16.969-37.594 19.312 0.094-14.031zm394.03 7.125c2.3765 0.14733 3.0807 2.7969 3.0625 7.5-0.03 7.7887-5.1896 14.982-12.938 18.5-5.6724 2.5755-9.6747 2.3746-12.5-0.65625-1.2864-1.38-3.0786-2.4948-4-2.5312-12.143-0.48088-10.187-3.6113 1.4375-8.4688 4.094-1.7107 12.13-7.2809 15.938-10 4.2864-3.0608 7.1516-4.4583 9-4.3438zm-44.6 5.54c5.9558 0.0231 11.2 4.225 7.9062 6.9375-2.5615 2.1091-12.169 3.1268-14.062 1.2188-3.5973-3.6253-0.3939-8.1817 6.1562-8.1562zm-468.59 12.062 29.75 16.031-0.1562 17.062-28.406-16.062zm114.12 1.3125-0.6874 17.469-34.156 16.844-0.2187-16.656zm367.5 7.245c5.7776 0.41707 5.0498 6.0103 0.377 8.7238-3.485 2.4209-8.0021 1.1472-9.8437-1.6875-4.1536-7.8914 5.2845-6.9405 9.4667-7.0363zm11.592 17.928c0.9616 1.9304 0.4292 5.3838-1.4673 6.4768-2.5334 1.0682-9.1072-0.0463-10.123-1.9622-0.8343-1.5736-0.6441-2.3996 0.9688-4 2.6892-2.1383 8.7313-3.7272 10.622-0.51463zm-488.9 0.32713 25.406 13.875-0.1562 16.75-23.344-13.562zm105.66 0.4375-1.25 16.125-29.562 14.656 0.4063-15.719zm-309.5 10.156c6.3367 0.0737 11.229 4.2961 7.5 11.5-2.3286 4.4985-4.0841 6.1615-14.219 13.312-4.1363 2.9186-7.7236 5.5898-8 5.9375-0.2763 0.34773-2.9166 2.1707-4.6562 3.375-9.0822 6.2872-5.9309-6.8399 5.4062-26.188 3.2494-5.5451 9.0403-7.9948 13.969-7.9375zm307.25 14.375-2.3438 17.75-26.437 13.5v-17.094zm-99.406 1.6562 21.375 10.594 0.3124 17.281-19.406-10.188zm256.78 1.3438c0.6866-0.0279 1.2864 0.20732 1.7188 0.8125 1.7512 2.4514 2.0317 13.04 0.3124 19.031-2.9916 7.0489-8.8094-10.734-8.1562-15.25 1.2428-2.0449 4.0652-4.5099 6.125-4.5938zm-449.34 3.2188c8.6448-0.15906 14.895 5.747 11.969 14.5-3.3713 8.451-22.885 13.769-31.688 19.594-5.7583 2.8559-7.1516-0.24229-5.375-5.2188 0.8216-2.3015 1.4526-4.1032-2.9375-4.75-10.659-1.5705-4.1638-6.7501 15.375-19.844 4.2806-2.8686 8.7268-4.209 12.656-4.2812zm428.69 5.5312c3.0658-0.0337 6.8467 1.7629 10.75 6 6.7141 7.2886 11.566 22.634 7.9062 26.625-2.8048-0.31221-4.1961 3.8248-4.3438 5.5-0.426 4.8341-9.2471-3.9912-17.594-17.906-6.7235-11.209-3.4637-20.145 3.2813-20.219zm-360.03 2.5938c26.351-0.18015 76.666 5.2658 146.31 48.844 8.8823 5.5658 17.766 11.701 27.812 16.656 26.422 14.248 48.227 23.905 82.281 30.25l-1.2 17.61c-0.3062 5.5613 8.862 37.766 4.6562 55.875-6.2476-0.12014 6.0313 5.3438 6.0313 5.3438l8 16.375s-41.806-0.35438-60.812-4.0938c-30.616-4.9788-86.492-30.93-113.5-51.344-28.054-20.578-70.425-37.684-106.75-44.312l-0.5-15.156s-3.6068-51.896-6.5-59l-6.6875-16.406c1.6397 0.6588 8.6474-0.57436 20.625-0.65625zm219.84 11.375-2.0312 17.406-23.188 10.875v-14.906zm115.56 0.78125c6.4885 0.0146 16.316 7.6083 27.531 22.781 2.5267 3.4182 4.4755 6.3835 4.8438 8.4375 0.3395 1.894-0.8284 2.982-2.6876 2.75-4.4215-0.7995-6.0435-2.3946-7.2812 3.0938-0.3041 1.3592 0.4834 3.8195-1.0312 3.375-7.873-2.3102-30.383-25.021-29-32.281 1.0386-5.453 3.7318-8.165 7.625-8.1562zm-206.5 1.1562 16.906 9 0.75 17.156-15.031-6.4688zm-181.69 5.2188c5.1906-0.16866 8.413 1.8797 10.063 5.9062 3.9765 9.7068-3.0658 15.553-23.969 19.938-18.161 4.3162-17.789 4.5852-15.25-2.1562 1.6843-4.4727-3.9272-4.9706-7.0625-6.1562-5.2989-2.0038-0.9625-2.6245 14.281-10.219 9.5778-4.7716 16.747-7.1438 21.937-7.3125zm-60.437 4.5938c0.5159-0.0444 1.1338 0.44323 2.0312 1.5625 26.406 31.988 19.616 78.607-13.812 101.62-3.7955 2.5132-3.9286 0.18337-3.5-4.8125l0.6563-9.5c0.1715-1.8871 38.397-25.354 10.125-77.562l2.375-7.375c0.7559-2.3492 1.265-3.8635 2.125-3.9375zm431.2 9.92c10.425 0.0404 39.683 26.583 27.219 27.531-1.464 0.11134-0.9641 2.011-0.9688 3.2188 0 1.2077-0.069 3.5063-0.4062 4.375-0.8995 2.3169-4.3108 1.8596-9.5626-1.25-13.313-7.8822-16.334-10.394-20.937-14.75-9.0592-8.5714-6.4845-19.168 4.6562-19.125zm-103.03 4.5625-0.1876 14.312-20.844 10.094 0.125-12.938zm-264.16 10.281c14.029-0.48436 21.921 13.494 7.9063 20.844-5.6027 2.9381-24.046 0.87821-32.625 0.125-9.6839-0.8502-3.9649-3.7257-3.4376-4.5938 1.329-2.1874 2.3605-2.5241-2.6874-5.5312-4.0121-4.2204-6.3094-5.2565 3.7187-6.5625 4.8671-0.63392 16.686-1.7864 20.781-3.125 2.2091-0.72209 4.3395-1.0871 6.3437-1.1562zm427 3.41c1.0332-0.0461 0.9218 1.6684 0.5 6.125l-0.6876 9.5625c-6.3888 1.0197-38.13 40.48-12.344 86.375l-2.1563 8.1562c-0.9911 4.0326-1.3134 4.6211-4.6562 2.125-19.326-13.356-25.598-81.349 14.438-109.47 2.6063-1.7256 4.1026-2.8392 4.9063-2.875zm-75.375 7.9688c3.7313 0.0668 8.2964 1.118 13.531 3.5 12.194 5.549 20.298 10.036 22.188 13 1.1667 1.8299-0.6643 3.354-3.125 4.0625-2.9765 0.85707-3.3397 2.1035-2.5313 5.5938-0.01 2.0278 0.5104 4.2704-2.0312 4.4062-4.7035 0.25139-15.212-3.0612-25.844-8.7812-17.951-9.6572-15.514-22.02-2.1874-21.781zm-91.188 0.21875v17.406l-17.125-7.9062zm-287.06 14.969c1.8146 0.0484 4.2186 0.37272 7.375 0.875 3.858 0.61387 9.8493 1.2099 12.937 1.1562 19.516-0.33869 27.6 13.249 11.5 20.156-4.4035 1.8891-6.2357 1.6838-18.281-1.8125-5.7685-1.6743-12.834-3.4318-15.719-4.25-5.8015-1.6458-7.8084-3.4731-3.9687-4.7812 3.5759-1.2182 3.8854-3.6911 1.6563-6.9688-0.5416-3.2832 0.5077-4.4816 4.5-4.375zm453.53 0c-2.7647 26.955-5.0226 47.96-9.0938 74.344-2.9711-1.1709-24.032-50.883 9.0938-74.344zm-82.125 12.906c6.351 0.11552 17.071 2.5604 27.5 6.6562 9.1139 3.3556 10.264 4.2516 3.9688 6.9375-3.8024 1.6222-3.3402 3.0758-2.2188 5.5625 1.7328 1.8649 5.0178 5.596-0.1562 4.8438-6.1314 0.46065-22.239-0.44949-27.156-1.3125-14.708-2.5815-18.716-15.841-6.6563-22 0.9712-0.49599 2.6018-0.72601 4.7188-0.6875zm-377.91 6.8125c1.3597-0.003 3.8513 0.72912 8.375 2.1562 26.413 8.3328 37.122 18.428 24.187 28.219-3.7518 2.8401-9.5748 1.6341-20.562-4.5-11.236-6.2726-16.875-9.7099-18.969-11.938-2.0773-2.2104-0.9451-4.7426 2.25-4.5312 4.3835 0.28994 3.7254-1.9095 3.375-5.5938-0.2454-2.5803-0.4045-3.8084 1.3438-3.8125zm71.25 2.4375 20.25 4.5938-50.563 221.12c-17.26 4.9795-27.214 7.1248-39.344 13.656l34.969-6.0313-3.0312 15.813-31.75 5.9687-0.7188 4.7187 36.375-6.5624s-1.2967 15.092-2.5624 20.937c34.713-2.7951 68.997-12.447 103.91-12.719 0 0 0.8472-174.51 0.7188-193.53-0.1389-20.554 0.031-45.125 0.031-45.125l35 19.75 5.7812 219.94 109.62 17.812c-0.7644-3.7095-3.7488-20.71-3.7488-20.71 81.275 23.963 163.68 59.39 236.62 132.6-33.942 18.367-66.022 36.581-98.999 54.235l-4.7812 6.875c83.623-39.064 210.74-120.27 302.53-210.03l2.0313 581.56-439.34 1.75s-0.024-28.006-0.031-54.406l0.25-48.625c-1.7845-31.182 3.6441-65.524-5.9063-91.687l-1.875-27.406c27.079-31.492 41.71-71.204 54.625-111.78 0 0 13.032-5.0455 19.375-7.2812l2.1876-7.9688c-12.595 6.4301-41.5 17.219-41.5 17.219 3.1081-2.4322-61.46-29.616-101.34-36-65.808-10.534-154.33 0.3164-224.91 35.312-3.4567 2.4382-4.9316 2.3797-4.0626-0.7813 16.387-59.594-18.134-119.42-78.719-136.75-12.853-3.6773-23.375-3.6562-23.375-3.6562l1.0937 5.2188c99.006 11.154 122.23 115.77 84.117 164.38-9.9916 16.035-11.516 20.713 9.461 20.18 84.773-0.6922 114.24 94.028 75.605 146.44 0.098-0.4077 3.129 6.0977 3.129 6.0977 24.093-31.802 30.509-92.223-12.188-134.69 31.564-35.192 92.156-91.515 144.56-88.219 19.074 1.1998 37.9 24.289 50.437 42.719 26.548 39.025 33.368 93.516 35.25 124.59 0.4632 8.1428 1.5482 14.059 1.5626 18.344 0.041 12.441-2.3366 10.95-10.375 8.875-10.089-2.6048-23.93-2.7093-34.156 0.4063-16.433 5.0064-13.781 2.1519 0.8437-15.969 8.6286-10.691 9.7876-13.986 6.2188-14.688-1.0906-0.2143-4.7462 3.4511-9.5312 10.812-14.427 22.195-13.303 13.082-2.875-21.531 6.78-22.505 6.0921-24.077-12.375-38.063-6.1098-4.627-13.616-9.1204-14.281-10.531-3.4795-7.3833-4.9307 1.8802-1.8125 7.9688 3.0469 5.9493-3.4061 8.6659-14.75 2.5312-26.699-14.789-44.079 15.151-20.25 28.125 5.6169 3.0581 8.7519 0.5491 4.4062-3.4688-14.661-13.555-4.4615-24.974 15.375-12.969 11.466 6.9393 15.823 4.7182 19.656-3.9687 2.123-3.5404 19.925 9.2088 19.906 14.156-0.013 3.246-2.0741 13.636-4.0938 20.594-5.7009 19.638-7.2498 25.737-9.7188 38.469-4.4771 23.087-4.3571 34.916 0.4376 45.062 10.744 22.737 37.789 33.463 61.25 24.312 3.4096-1.3298 9.9374-2.4375 9.9374-2.4375l0.2813 16.688c-46.258 17.518-79.677 72.196-78.156 74.062l-16.5 0.031c-21.9-43.478-60.436-76.217-109.41-94.312 0 0-5.8925-9.8073-0.625 8.0937 0.3257 7.1803 7.887 17.307 14 20.844 23.264 11.824 54.044 32.792 71.031 65.344l-11.687 0.1875c-14.25-21.723-32.709-36.39-50.219-49.188-4.1164-0.8666 3.0005 39.392 19.812 51.812l-301.56 5.25c20.579-80.516 24.532-169.86-23.688-286.97 39.978 2.4535 75.442-6.1254 107.94-20.313l-2.9375-8.3437c-37.025 17.676-77.65 21.153-118.31 17 30.847 57.108 57.84 176.78 31.562 291.88l-110.69 0.5937-1.5312-627.44s4.3275 3.948 5.6874 5.3124c3.4751 3.4865 5.8245 8.6967 6.8126 12.469 1.2637 4.8247 2.6017 5.1176 9.5 10.281 3.3095 2.4773 5.2237 4.6585 5.2187 5.9376-0.1916 1.4249-0.2374 5.8255 2 8.5312 6.0769 7.3488 5.0007 12.066 0.4375 16.812-21.222 22.076-34.511 68.466-23.781 117.41 25.168-16.941 51.086-61.24 51.906-61.313l2.4375 60.5c-2.2364-0.4975-17.598 8.6032-17.781 20.5-6.9573 2.0682-15.448-1.3911-22.5-3.4687l5.0859 17.82c-25.829 10.302-27.221 45.635 2.7139 55.724 0 0-2.7314 13.815-5.081 21.237l19.437-2.9609c11.29 33.718 54.639 22.921 54.43-0.6016 0 0 13.191 4.9528 18.195 7.1562l-4.875-22.984c49.293-24.594 12.419-56.792 1.164-56.328 0.1529-6.423 3.1001-8.4501 5.8047-15.938l-19.906 1.25c-3.6522-11.872-17.031-21.583-17.531-20.281l-2.75-86.594c15.051 13.125 29.859 26.586 49.812 37.031 18.416 9.6407 20.29 7.4878 17.563-9.1563-1.2307-7.509-1.125-12.438-1.125-12.438 6.9063 1.6239 24.338 24.269 23.5 35.438 6.3651 8.303 12.139-14.038-4.2813-33.062 43.711-45.773 77.019-121.64 84.125-173.34l58.125-23.125 0.6563-7.5625c39.6-26.495 60.252-63.349 71.125-105.03zm48.375 13.531 13.375 5.9688-15.188 7.5312zm-128.8 3.65c2.5776 1.1867 6.4807 3.7544 11.844 7.6875 11.367 8.3364 17.998 14.072 18.219 19.125 0.109 2.4968-1.7241 5.7285-4.5937 7.25-6.8659 3.6403-13.435 0.66082-28.281-14.531-4.7978-4.9095-8.0073-7.5369-9.4687-9.7188-1.704-2.5439-0.448-4.9418 2.375-3.9062 12.049 5.4397 1.6177-9.667 9.9063-5.9062zm409.59 3.125c2.4772 0.0109 4.4315 0.0666 5.6563 0.3125 3.2185 0.64624 4.1495 2.4725 2.1562 4.25-3.0889 2.7546-2.2106 5.5436 0.9062 7.0312 2.1396 1.0212 1.2729 3.1763-1.3124 4.6562-1.5101 0.86437-3.8175 1.7959-6.9688 2.7812-18.248 5.7057-31.698 4.0032-35.219-4.5-4.0458-9.7713 3.6939-14.517 26-14.5 3.3133 0.003 6.3041-0.0422 8.7813-0.0312zm-265.72 5.8125-0.1563 13.094-18.938 9.0938 2.0625-13.281zm-160.97 4.0938c1.6612 0.0997 4.386 2.6522 8.3438 7.5 18.266 22.374 20.732 26.689 14.75 32.625-7.09 7.0352-17.036 0.23361-27.75-19.375-1.4405-2.6365-3.1998-6.0208-4.25-7.25-3.9295-4.5991-2.1983-6.04 2.7812-5.6562 2.7274 0.21019 4.0228-0.75203 4.0938-3.5625 0.075-2.9665 0.7392-4.3588 2.0312-4.2812zm437.75 11.312c3.3248 0.00049 3.0774 1.1346 1.5938 5-1.1432 3.425-3.0113 4.5313 1.8124 6.6875 0.7986 0.38893 2.5768 2.5826 0.9688 3.5312-3.811 2.5759-20.838 10.33-27 12.375-11.974 3.9734-19.343-5.7809-12.312-15.469 2.9465-4.0602 23.194-11.411 33.281-12.062 0.6277-0.0406 1.1812-0.0626 1.6562-0.0625zm-447.31 12.969c12.137 18.101 13.656 26.562 5.6563 31.844-5.0619 3.8521-15.848-1.6823-18.313-13.375-1.8869-8.953-2.7511-18.313 0.1641-25.746 4.415-11.258 11.237 5.4051 12.492 7.2773zm170.44-7.5 0.094 14.156-23.031 11.562 2.125-15.594zm46.938 0.5625 21.656 14.031 1.25 12.062-22.375-12.312zm241.59 13.938c0.5697 0.009 0.8777 0.26628 0.875 0.9375-0.01 1.6653-0.4269 7.5875 2.8126 8.125 6.3698 1.057 4.9196 3.0429-0.6563 7.8438-6.0408 5.3466-11.56 11.694-18.844 15.594-18.777 6.9423-24.678-12.904-6.9063-23.219 6.1361-3.5614 11.696-6.0181 15.844-7.1875 3.1191-0.87947 5.6218-2.1126 6.875-2.0938zm-241 7.2812 25.094 14.781 0.875 14.875-24.938-12.688zm-48.406 1.375 0.094 12.938-24.5 14.031 2.0312-14.469zm101.41 10.562c6.9365 3.2354 95.987 27.974 125.47 19.531 0 0 25.235 36.377 43.906 49.406-28.903 42.415-126.78 84-126.78 84zm200.44 0.90625c1.6207-0.0561 2.0117 1.5558 2 4.5938-0.396 8.7995-14.854 41.197-26.375 24.594-3.1663-6.1815 0.053-12.584 10.156-20.219 8.0117-6.0543 12.135-8.8966 14.219-8.9688zm-484.84 5.1094c2.1987 2.3938 1.2033 9.7696-3.5313 9.2812-1.3702-0.14134-1.5527-7.6284-0.6562-11.688 1.3638-0.66559 3.425 1.6157 4.1875 2.4062zm183.3 4.1094-0.1563 16.438-29.062 15.812 3.125-18.281zm48.062 2.3125 28.781 15.344 3.375 18.156-31.906-16.531zm-48.125 22.344v16.562l-32.656 16.75 2.2187-16.344zm48.688 1.4375 32.188 18.312 4.2188 17.25-35.938-18.562zm-456.25 0.53125c5.2763-0.0708 7.1724 5.5467 3.1875 9.125-2.6315 2.4474-10.092 1.9516-10.75 0-3.3693-3.2517 1.2544-9.0404 7.5625-9.125zm9.8437 17.531c0.7793-0.0534 1.5166-0.007 2.1563 0.15625 3.802 0.96996 6.1701 6.463 3.8437 9.5938-4.2955 5.7808-15.624 1.773-13.969-5.5312 0.4379-1.9331 4.5921-3.9871 7.9687-4.2188zm397.16 5.5312v14.812l-35.531 18.75 2.25-16.562zm50.25 2.0625 36.656 19.688 2.8124 16.594-39.406-20.5zm-464.81 0.4375c1.7694-0.0979 3.1769 0.39572 3.9375 1.7188 0.6798 1.1825 1.4864 4.2099 4.0313 5.6875 4.7475 2.7564 5.2401 3.3316-3.7813 7.2812-3.7995 1.6634-11.267 6.7444-13.875 8.5-7.9799 5.371-11.227 3.5686-11.812-2.7812-0.7378-8.0053 13.833-19.982 21.5-20.406zm27.5 12.125c1.8487-0.10602 3.6472 0.24113 4.9375 1.0938 3.0504 2.0156 3.2106 6.0589 0.2813 8.0937-6.7116 4.2906-17.212-1.5911-11.625-6.7187 1.5701-1.4411 4.0293-2.3324 6.4062-2.4688zm387 8.0312 0.1875 19.219-39.625 20.906 2.625-19.5zm-406.59 2.25c2.5974-0.1469 5.0833 0.4621 7.25 2.0625 2.3487 2.9939 5.1747 3.8741 6.8126 3.9375 6.7978 0.2628 4.6325 2.7447-2.5 6-9.8312 4.4869-16.736 10.182-23.813 16.75-7.3607 6.8322-7.8946 8.3-10.312 5.5-8.9942-10.415 8.5368-33.457 22.562-34.25zm457.5 0.2188 41.531 22.719 3.5625 19.188-45.094-25.094zm-430.2 13.6c1.68-0.039 3.2608 0.3636 4.5 1.375 2.9512 2.4087 1.2463 7.0613-2.8437 9.1562-3.4792 1.7821-9.2058 1.0257-10.844-0.625-3.9243-3.9548 3.1875-9.7655 9.1875-9.9062zm-20.062 9.6562c2.5282-0.2441 4.8224 2.9827 6.875 6.4688 0.7173 0.8712 3.557 0.4821 5.5938 0.5 7.7729 0.063 8.8578 3.3496 1.3124 7.5312-2.2057 1.2224-9.4428 6.7622-14.281 10.875-13.039 12.452-20.106 9.5314-18.438-3.2187 1.5954-12.192 12.182-21.504 18.938-22.156zm450.28 1.1876 45.813 25.125 4.4687 20.656-50.281-27.094zm-50.562 0.375-0.1876 19.031-43.125 22.812 3.3438-19.312zm51.25 24.219 51.312 31.062 1.875 20.219-53.187-30.625zm-51.281 3.375 0.094 18.656-47.687 24.187 2.4062-17.625zm-387.12 12.344c1.2188-0.029 2.3644 0.1574 3.3125 0.5938 5.5848 2.5709 4.1211 7.0176-4.2812 11.594-8.5718 4.6684-11.505 3.8637-13.344-1.375-1.5482-4.4097 7.731-10.655 14.312-10.813zm535.78 2.5313c89.22 20.422 176.57 64.584 261.38 141.69l-17.719 12.531s-74.318-84.754-239.47-134.44zm-96.844 8.875 24.75 14.594 0.062 3.7188-24.812-2.0312zm-421.66 0.1563c1.8759 0.1 3.5263 1.1925 12.375 5.4062 35.518 25.644 49.742 41.106 58.562 69.219 5.286 16.847 5.1821 16.156-12.187 7-16.34-8.6733-38.734-23.073-53.188-41.688-2.3951 43.799 2.7188 98.25 2.7188 98.25 22.186 10.933 15.006 39.398 14.944 39.228 57.095-15.582 44.584 59.764 2.0398 43.514 10.142 56.527-54.583 51.928-47.953 3.4766-51.518-1.9915-42.406-58.142 0.358-50.38-4.4488-17.324 1.6847-29.058 17.455-36.495l-2.4063-74s-41.987 60.258-49 59.312c-4.1191-0.5553-10.317-7.4733 0.125-60.312 5.4366-27.51 34.605-61.013 50.938-62.094 2.888-0.1911 4.0932-0.4975 5.2188-0.4374zm41.062 0.5624 7.5313 5.1563-7.0937 12.656-7.8438-5.6876zm328.53 3.625-0.25 11.094-23.125 1.375zm-253.56 125.25c-3.4683 0.091 5.8551 2.2744 11.75 7.5626 54.418 8.4268 87.709 74.991 62.531 123.19-3.0467 2.1665 1.6556 12.659 4.7188 8.7188 26.544-37.624 6.7859-130.09-70.656-138.91-4.595-0.3912-7.1877-0.5929-8.3438-0.5626zm20.562 25.281c-4.3737 11.991-5.5236 14.863 5.6875 9.9687 19.81 7.333 41.185 39.576 34.344 71.969-2.1996 3.7781 1.6427-2.4656 4.25 8.1875 9.7778-23.713 0.024-74.845-44.281-90.125zm251.53 60.344c55.703-0.1637 110.83 12.011 154.69 37.219-14.906 8.2871-62.469 19.844-62.469 19.844-26.731-29.995-40.355-59.988-88.688-44.656-50.618 13.068-96.202 56.878-121.86 85.945-25.723-15.313-39.653-19.053-62.457-20.32-1.3192-0.037-3.2773 5.7656-1.6563-3.5937 6.523-10.052 11.022-21.44 15.375-32.938 47.807-27.18 107.77-41.326 167.06-41.5zm173.16 38.5c-11.092 35.89-25.417 71.24-49.719 102.38l-3-15.562c22.852-35.086 33.679-66.988 38.563-80.969zm-21.562 9.3126c1.4256 2.2808-22.151 58.467-33.781 68.687l-4.5624-14.5c9.4872-14.334 23.534-48.892 23.125-49.219zm-143.81 0.062c-0.7338 0.067-0.9945 0.7132-1 2.125-0.02 5.1583 5.3597 9.2167 15.156 11.438 13.237 3.0006 31.788-1.576 31.813-7.8438 0.014-3.6185-2.5727-3.8837-10.156-0.375-9.5092 4.3997-17.902 3.5381-30.312-3.0312-2.8454-1.5062-4.5566-2.3985-5.5-2.3126zm117.91 8.9688c-3.6806 13.613-9.1495 23.634-16.125 34.031l-2.25-7.1562c4.8255-7.7971 8.0109-16.712 12.094-25.375zm-13.844 4.4062c-1.7857 4.7342-3.7552 10.215-7.8437 14.438l-5.3126-11.25zm-83.805 10.43c-8.9688 0.1721-17.849 3.0576-18.621 7.8243-0.3698 2.2831 3.0727 1.4001 19.758-0.6329 8.8051-1.0728 13.004 4.143 21.074 3.5977 4.1099-0.4866 0.2667-4.2841-1.0117-5.3828-4.4845-3.816-13.286-5.5581-21.199-5.4063zm-38.289 10.383c-0.9 0.1832 0.1071 2.4729 3.4687 8.3124 1.8203 3.1622 2.2728 9.6049 2.625 13.594-0.4365 9.9322-0.4054 9.6203 4.5 3.875 3.0872-3.0633 9.0857-2.3856 18.594 0.1875 6.1271 1.6577 7.6001 2.2511 11.852-0.4143 4.9312-3.0913 6.0902-1.532 10.336-0.6794 4.0999 0.8233 7.8182-0.8204 12.312-2.0626 5.4857-1.5162 6.5373-1.1651 11.313 0 7.296 3.4547 6.2357 3.1468 6.8437-9.2187 0.609-12.174-0.048-13.041-7.0937-8.9375-6.8246 3.9746-11.527 5.7743-22 2.125-11.413-3.9766-13.029-2.9691-21.125-0.5312-9.7865 2.9467-14.235 3.951-22.031-0.8126-5.1308-3.1349-8.5738-5.6451-9.5937-5.4374zm-159.47 18.375 4.375 7.125c39.453 14.114 66.183 46.362 50.406 100.72l3.75 6c19.746-54.771-2.7919-100.05-58.531-113.84zm12.219 23.187 5.375 11.031c29.69 14.34 27.914 53.835 26.25 52.281l4.7 10.2c7.4273-25.556-6.1059-63.294-36.281-73.594zm124 58.906c-1.1676 0.01-1.9358 0.4093-2.25 1.2187-0.7631 1.9658 1.5326 3.1463 15.094 12.531 11.647 8.0606 20.657 14.037 19.969 15.188-0.4605 0.7692-7.7024-0.9932-12.875-2.5312-13.553-4.0301-33.542 0.8243-44.75 8.7187-2.8443 1.9108-7.5783-0.1763-11.687-1.25-1.6446-0.4655-5.2732-0.906-7.0626-0.4375-8.4755 2.2192-0.2728 10.313 20.469 20.812 25.454 12.886 39.227 14.062 54.688 6.25 10.266-5.3094 13.946-1.3702 2.7187 4.6875-19.61 10.581-38.392 7.3083-69.375-14-14.351-9.8701-20.087-8.2206-7.75 1.1875 21.649 16.926 63.324 37.57 88.906 12.344 0.9985-0.3624 3.3208-0.1918 4.4375-0.1874 5.32 0.021 5.5445-1.6565 0-10.438-3.3418-5.2926-10.104-10.862-1.875-17.344 6.2382-4.9135 5.7888-7.2481-1.75-9.5-1.9898-0.551-1.789 0.7567-4.7812-1.6563-18.105-14.599-35.82-25.625-42.125-25.594zm7.8437 28.844c7.6029 0.211 15.263 6.0632 17.656 16.594 0.2147 0.9375 0.4013 1.8991 0.5312 2.9062l-6.4765 0.2422c-5.371-21.453-21.545-14.342-23.156-1.7773l-5.8359-0.7773c2.1486-11.964 9.6784-17.398 17.281-17.188zm134.15 18.313-4.3125 0.6365c-2.823-7.8997-15.598-18.516-21.686 0.7385l-5.4376-0.2188c3.7872-26.085 27.466-22.033 31.436-1.1562zm-33.064-10.839c1.7655 2.5019-1.3336 6.7237-3.133 8.6528-1.7195 1.8434-5.5441 0.2861-7.1447-1.5328-1.4009-1.7969-0.3627-5.3737 1.9688-6.5625 2.4197-1.2338 6.5343-2.3476 8.3089-0.5575zm-75.809 0.7762c1.8087 4.047-3.2554 7.0697-3.8897 5.6991-1.0872-0.3769-2.4301-7.0524-1.8059-7.4934 1.6758-0.053 5.0071 0.495 5.6956 1.7943zm113.97-0.6567c2.7311 0.2203 5.7077 1.5135 6.25 4.5938 0.029 2.0396-2.3308 4.2566-5.0313 4.375-1.187 0.052-5.7367-3.2857-4.883-8.0489 0.9642-1.6903 2.0766-1.0511 3.6643-0.9199zm-158.44 1.2817c0.9582 1.4669-0.8378 5.8469-1.25 6.4376-0.2142 0.3069-6.0322 0.056-5.9062-0.375 0.1259-0.4316-0.5402-3.7289 0.875-6.125 1.6135-1.0277 5.1164-1.5716 6.2812 0.062zm105.69 14.125c0.7533 0.019 1.7111 0.3264 2.8437 1.0313 16.273 10.594 37.204 15.314 52.281 7.75 3.3674-1.6893 5.5688-1.5997 5.5625 0.031-0.01 1.7875-3.7356 5.4448-10.688 7.5312-15.531 4.6614-41.169-1.4925-50.031-11-2.6066-2.7966-2.2285-5.4001 0.031-5.3438zm-142.72 11.094c-1.554-0.043-2.0559 0.8747-1.75 2.75 1.0296 6.3125 44.554 31.288 62.75 34.656 14.942 2.7661 26.549 1.527 35.687-3.7812 22.193-12.89 16.501-30.325-5.2187-17.188-14.591 8.8258-51.57 4.7629-73.562-7.9375-9.7784-5.6468-15.316-8.4274-17.906-8.5zm196.09 9.1328c5.4993-2.3074 7.8617-3.1124 9.0703-2.1016 5.5941 4.6795-3.5729 11.976-20.289 14.824-13.37 2.197-21.408 2.6276-36.672-8.6638-11.816-8.7406-6.2492-12.976 0.5363-9.0089 18.051 10.552 31.464 10.886 47.354 4.9503zm-192.21 27.305c38.503 13.789 82.304 47.045 101.75 87.438l-11.875-0.094c-13.221-23.062-39.377-52.353-82.5-72.937-3.8213-3.141-5.8074-8.7496-7.375-14.406zm202.22 18.906v12.625c-23.795 11.99-43.74 30.449-58.781 55.906l-13.469-0.1875c15.43-27.315 38.545-52.89 72.25-68.344zm0 19.25v15.5c-15.045 8.8205-27.602 20.45-36.406 33.781h-15.937c12.773-21.59 30.296-38.803 52.344-49.281zm-176.28 11.906c11.464 6.5888 30.447 24.161 37.344 37.688l-6.125 0.2813c-6.2428-7.945-16.218-17.083-24.344-24.281-5.1942-6.1023-6.875-13.688-6.875-13.688zm176.28 9.9375c0.1917 0 0.1929 0.1194 0 0.375v12.312c0 0.3234-11.427 7.7866-16.281 14.75h-12.937c8.8834-16.071 27.365-27.47 29.219-27.438zm0.031 20.469-0.031 6.9688-8.125 0.031c0.5398-0.788 5.0624-5.7596 8.1563-7zm-158.56 1.75c2.4355 1.2809 4.3074 5.8502 4.3074 5.8502l-2.1821 0.2338z" transform="matrix(.99999 -.0038796 .0038796 .99999 -924.74 -489.76)" fill="#131f67"/>
      <path d="m1765.5 887.03c26.782 0.62439 83.26-9.5968 82.358-8.5743 0 0 176.47 290.65 169.33 287.79-2.2664 3.6234-224.61 4.3547-224.61 4.3547-4.8174 0.074 46.756-108.13-27.08-283.57zm78.713-205.55c85.165-71.128 174.66-72 270.73-82.11l1.2693-240.6 34.865 20.683 1.5902 220.44c126.9 9.0156 236.53 55.051 330.88 136.01 1.1842 1.7607-135.75 75.662-195.77 95.307-46.791-34.064-169.97-55.177-251.5-28.531-22.393 7.3189-49.877 19.001-76.628 27.655 18.948-116.22-71.814-133.02-103.74-138.25-4.0014-0.65655-8.8038-9.2348-11.704-10.597zm-109.53 37.976c1.401-24.752-0.3123-49.516-2.26-74.813-0.5112-5.775-49.671 75.478-52.513 55.828-7.1151-49.195 17.091-111.87 55.459-119.7 3.8088-5.1953 80.069 41.597 76.75 82.299-1.0812 13.258-68.039-44.507-68.302-41.042-1.5395 6.7908 2.3465 97.583 4.4101 97.394 19.259 10.736 15.129 24.639 17.272 36.14 51.465-7.7921 48.871 49.334 0.2659 47.739 3.2648 67.465-59.522 37.22-47.316 1.2312-63.122-2.7288-32.272-61.798-0.7956-48.964-1.9525-14.871 1.667-30.4 17.029-36.113zm71.295-286.57c-3.64-1.4229-134.67-7.624-134.67-7.624l5.6166-319c66.285-153.8 318.26-82.974 278.34-50.146-119.97 79.249-137.72 222.99-149.29 376.77zm241.1-131.97-4.1331-35.401c-10.364-21.969 268.24 105.37 271.39 108.1l8.2375 37.763c1.6717 16.596-177.15-66.591-275.49-110.46zm505.65-64.519c-3.5381 143.15-25.239 240.17-107.96 357.45-2.2949 3.8525-25.767 13.679-27.582 16.992 11.963 18.748 79.929 46.054 111.33 60.752l162.69-97.725c1.8873 0.12745-6.9-340.13-6.9-340.13zm61.11-155.68c-21.918-3.2569-73.104-55.912-62.596-71.934 0.2787-12 63.554 33.673 70.164 46.02-3.2486-3.665-4.1219-112.14-5.126-107.83-2.3977 1.2833-19.317-10.731-15.009-33.357-48.334 10.877-45.923-51.969-3.6333-49.564-5.6859-57.149 64.247-36.424 45.811 1.9351 59.733-11.24 49.673 55.89 4.4585 45.147 3.9317 25.429-6.536 32.5-21.199 37.639 0.9813 10.661 5.2614 81.785 5.2614 81.785s43.933-67.876 47.126-62.053c8.9243 20.502-6.7737 129.15-65.258 112.21zm-205.8-248.88c-19.68 68.797 35.27 147.1 86.895 146.68 10.374-1.6751 30.285 3.8529 23.443 9.438-81.188 66.279-271.19 80.711-271.25 77.851 2.305 80.968-1.0083 162.77-2.6321 243.73l-34.907-20.833c-1.4032-73.842-3.5187-149.37-5.497-223.19-121.83-15.411-231.43-54.253-318.24-137.44 57.257-42.767 125.76-69.609 191.56-96.719 83.139 42.763 198.76 67.21 330.62 0.4832zm-61.364-326.28c-3.8255-1.6669 13.072-14.312 13.072-14.312s141.49 1.3058 211.67 0.0897c-25.162 105.02-6.7104 198.96 26.66 289.1-8.7652-2.0123-66.859 2.9266-81.025 9.325-2.2719 2.2952-168.57-281.65-170.37-284.21z" fill="#e2cf00"/>
      <path d="m2764.5 1243.7c-2.2949-6.4219-2.3318-7.2152-3.072-66-0.748-59.402-0.528-65.911 2.6451-78.248 6.0941-15.392-11.886-15.397-23.279-17.191l-0.094-24.307c13.344-1.9002 29.448 1.9117 35.378 9.7097 13.834-9.6482 22.809-11.291 32.41-10.949 32.247 0 46.501 19.868 45.771 58.326-0.1188 6.2627 1.0466 14.285 1.0466 14.285l17.328-0.067 0.095 24.583-18.236 0.071s3.2093 60.933-0.8355 82.499c-12.351 48.028-71.918 51.388-89.158 7.2877zm65.664-8.9056c3.0575-7.3189 2.6031-4.2665 2.5105-60.202l-0.1848-25.56c-25.584-5.803-48.312-36.355-48.162-36.352 0 0-0.33-2.9387-0.33 55.105 0 65.781 2.3415 69.593 16.319 80.185 13.557 7.5941 24.66-1.1338 29.848-13.175zm-36.287-147.79c7.8278 10.899 17.547 22.047 29.06 31.019 4.3144 3.3619 10.345 4.6763 10.345 4.6763s-0.3461-7.4027-0.3873-11.17c-0.2513-22.97-16.857-40.97-39.018-24.525zm-772.05 78.772-172.18-288.08 25.625-11.249 177.51 299.62zm446.77-41.766c-64.26-9.8774-82.646-90.536-35.739-166.65 22.191-36.915 115.16-174.35 109.68-169.76-2.9369-2.5497 72.267 105.83 109.86 161.41 35.628 58.642 54.83 154.6-32.086 172.58-33.282 6.8829-67.998-13.021-69.688-51.916-0.2367-5.4497-2.4995-9.8809-5.6831-9.8809-2.6674 0-4.5124 3.8242-4.5124 7.5934-0.7638 37.158-34.004 62.64-71.832 56.626zm300.73-96.179c-28.621-9.4165-33.869-43.68-12.708-82.978 17.328-31.22 26.439-39.268 42.398-70.294 6.5533-12.812 7.2911-13.074 12.276-4.3599 12.042 19.721 25.215 41.19 35.959 57.881 28.182 43.533 33.226 73.964 15.32 92.416-16.241 16.735-50.801 7.1821-51.059-14.113-0.012-0.9987-0.5034-2.7153-1.0917-3.8146-1.3247-2.4751-3.9248-0.8235-3.9401 2.5027-0.071 15.484-20.756 28.156-37.154 22.761zm-1053.4-246.91 24.613-25.515 24.875 25.003-25.817 24.164zm548.19-164.06-3.5573-20.625c98.653 23.744 179.51 74.076 237.73 129.01l-13.772 10.158c4.3035-1.1916-140.44-108.84-220.4-118.54zm-286.32-19.223 31.226-4.6494-0.8206 17.357-29.667 6.8632zm576.83-15.952-17.08-13.651 12.195-14.573 16.596 12.969zm-579.4-137.58c42.23-20.184 74.943-101.09 70.778-106.46l23.075 5.3733-52.398 221.53-40.069 7.4051c-0.3471-42.339-1.2373-85.514-1.3863-127.84zm278.91 124.14c-14.525-46.533-43.174-151.81-43.174-151.81 1.0457 3.4373 91.882 28.877 124.21 19.356 13.894 18.858 29.154 35.418 45.24 50.591-33.472 32.985-75.082 60.591-126.28 81.861zm379.68-171.08-16.036-13.783 14.269-17.608 17.608 13.299zm-208.85-8.4481c-13.115-23.343-14.122-49.787 9.9382-75.964zm-496.7-43.41c-1.0399-2.4074 5.2528-57.874 6.7737-60.335 2.6737-4.3261 7.9975 11.206 10.53 23.08 3.1748 14.885-13.489 46.086-17.304 37.255zm365.08-18.634s34.509-162.93 49.48-226.78l42.829-10.98-5.2686 133.69c-35.107 31.633-64.114 106.78-64.114 106.78zm-564.83-24.879-17.028-15.775 14.293-15.758 15.025 15.247zm303.66-64.642-46.82-54.333c28.718-40.26 76.554-63.689 127.27-82.124l34.98 152.84c-38.914-11.56-80.872-24.083-115.43-16.379zm-238.73-135.42 11.895-14.908 15.7 12.26-11.832 16.484zm560.92-48.133 29.978-4.4013-2.1813 20.589-31.732 5.1731zm-488.96-113.77 18.418-11.556c65.053 57.933 136.8 97.797 214.98 120.32l5.3434 25.112c-88.2-26.799-171.5-67.603-238.8-133.88zm757.39-26.153-24.104-23.577 21.524-24.114 25.761 22.08c-8.4256 12.816-23.18 25.611-23.18 25.611zm-805.92-40.656c-29.933-45.82-64.396-94.478-91.506-134.56-44.971-66.693-57.236-111.97-43.315-153.04 22.811-67.302 121.29-64.146 128.73 4.1249 1.5186 13.944 8.1056 12.737 9.8508-1.6512 9.2155-75.978 124.75-66.526 132 14.369 7.569 68.689-39.734 122.22-65.822 158.7-23.14 37.146-50.102 72.55-69.934 112.07zm-285.01-107.74c-19.612-32.506-73.172-105.9-22.189-128.77 18.104-8.1222 41.335 6.1528 41.335 21.492 0 6.9356 3.8347 7.3123 4.7029 0.11634 3.6339-30.121 45.834-32.451 59.449-3.3868 11.685 34.596-9.0381 66.268-38.081 110.88-6.666 10.239-22.041 38.083-22.041 38.083zm957.47 33.729-180.89-305.81 25.96-0.31581 177.98 294.56zm-981.94-263.79-18.359 0.0712-0.096-24.609 18.359-0.0712s0.097-13.221 0.5318-36.607c0.9261-49.826 2.1943-57.584 16.802-71.338 28.91-27.219 77.592-5.3226 77.158 35.435-0.6111 57.5 0.2258 112.34-1.4638 120.12-2.9758 13.692-3.2765 14.475-2.0245 16.955 2.5365 5.0261 24.51 7.1037 24.504 5.694l0.094 24.219c-16.767 1.3644-23.729-0.15439-37.18-9.5227-8.3409 7.9828-33.806 16.02-54.102 6.7474-15.443-7.0553-27.217-25.425-24.224-67.09zm62.28 42.699c-9.1616-12.91-24.541-30.477-39.019-36.654-0.8201 14.829 0.5082 27.287 5.8643 33.97 8.5177 10.628 22.192 13.028 33.155 2.6833zm7.0009-142.09c-6.8213-18.796-24.215-25.074-36.847-13.299-7.9166 7.3791-9.1527 15.062-9.1527 56.891 0 25.797 0.017 36.641 0.017 36.641 24.744 7.7523 47.939 35.933 47.717 35.566l0.3105-78.016c0.4119-12.635-0.258-25.315-2.0441-37.782z" fill="#d40000"/>
      <path d="m3231.6-9.6875-42.938 0.15625 243.72 490.12s-6.6052 1.1099-19.531-2.2812c-58.538-15.357-94.609-77.187-81.375-137.84 1.346-4.7139 1.6874-8.75 1.6874-8.75-150.9 68.29-244.32 43.138-331.44-0.34375l-37.156 14.25c2.466-22.437 30.229-106.7 71.75-146.38l-0.062-42.5-1-20.062-3.2812-36.406c-61.775 58.16-133.85 149.71-142.88 279.72 0 0-56.247 28.887-104.25 60.844 2.664-0.35499 74.778 88.187 248.03 137.91l-7.625-28.25c25.763 7.2305 62.386 12.947 98.812 17.562l4.875 221.91 41.375 24.5 1.4063-245.69c1.2703 1.0133 65.988-2.2818 100.84-10.594l-4.9063 23.688 34.438-6.7812v17.281l-37.75 8.9062-53.75 229.66 31.312 6.9688c9.1646-46.258 32.308-83.673 65.844-106.62l-0.3438-8.8125c21.51-15.43 66.212-27.695 66.5-27.406 15.249-74.478 50.74-126.09 88.469-175.19l-17.969-24.406 68.906-25.281-95.656-162.72c36.803-25.397 109.78-15.938 109.78-15.938-31.28-84.435-58.77-171.53-27.875-299.34l-266 0.2162zm87.287 5.2941c-0.062 21.352-27.957 19.153-31.362-0.10664zm170.93-0.66914c-16.929 97.866-11.316 193.2 27.938 283.78 0 0-5.7195 0.3293-6.4375 0.1875-0.542-0.1071 0.667-4.885 0.375-6.1562-0.781-3.4027-6.4247-1.8089-11.156 1.375-2.061 1.387-4.4374 2.9698-5.9374 3.7188-4.8616 2.4267-29.52 2.2422-29.52 2.2422 8.0439-5.4458 19.36-20.776 12.793-29.719-1.488-1.9066-2.388-1.065-3.8359 1.5078-7.004 12.446-10.483 14.398-19.844 14.281-14.683-0.18268-25.191-9.2794-24-23 1.1478-13.333 20.773-20.371 17.875-7.4375-0.793 11.522 10.636 13.76 12.75 2.2812 0.7916-4.2988 0.1626-2.3035 1.0937-7.3438 22.862-12.129 10.24-36.826-11.094-31.656-5.017 1.3259-5.6465 1.7922-9.1875-0.0312-6.58-3.3889-12.046-2.3223-14.531 2.4375-2.1896 4.193 1.1432 7.5436 6.0312 7.5625 5.068 0.02 6.0438 2.4613 6.0312 5.5-0.03 7.066-12.227 10.468-20.312 6.3438-21.344-10.888-13.434-39.19 11.344-39.094 7.533 0.029 10.68 0.5004 11-1.125 0.901-4.5704-10.6-12.475-17.094-11.312-5.5056 1.075-8.8476 2.5129-5.9376-4.8125 1.7876-7.5518 1.7368-10.976 0.2188-16.656-3.961-8.1106-3.8655-3.9525-6.3125 2.625-8.162 13.535-20.462 16.529-31.062 9.125-9.831-6.8697-9.5375-19.917-0.1875-29.219 6.495-6.462 13.462-2.0634 9.5625 5.1562-1.615 2.9892-0.3415 6.6968 2.5625 7.4375 5.865 1.4963 9.5027-1.9552 9.5313-9.0625-0.1226-3.9136-1.2053-4.7865 5.8437-8.8125 18.254-10.424 4.6003-38.904-16-29.75-4.522 2.0093-5.578 3.9738-7.625 3.0312-8.6114-8.1356-20.962 2.1492-13.656 7.5938 3.1565 1.5367 7.0179 2.1236 8.0313 2.2188 1.7792 1.0145 1.1855 3.5441-1.4063 6.7188-8.529 10.057-27.898 5.0914-32.469-9.0938-5.295-16.429 11.5-33.699 24.375-24.125 3.8063 2.831 7.108 3.1285 7.125-1.0625 0.02-6.5291-8.1994-14.02-18.688-13.281-10.65 0.7498-9.4869 2.1237-3.6875-7.5 4.277-8.5699 3.6983-16.932-0.031-21.969-2.874-3.8813-5.8315-4.6998-5.5312-0.59375 2.3308 12.735-12.548 24.842-24.781 19.5-11.758-5.2564-17.588-18.419-11.813-29.844 5.3253-10.54 18.245-11.632 16.094-0.375-1.012 7.1771 4.4472 10.953 9.7188 6.7188 1.917-1.5399 2.3664-2.9002 2.5-7.5312 0.148-5.1569-1.9483-6.6665 1.375-9.6875 8.72-1.1564 9.259-19.673 7.9374-20.438l140.03-0.65625zm-156.09 0.625c5.5298 0 10.125 1.8764 10.125 7.4062-0.0003 5.5299-4.4702 10-10 10-5.5302 0-10.031-4.4701-10.031-10s4.3761-7.4062 9.9063-7.4062zm-98.133 0.71875h22.258l175.79 292.96-20.816 10.125zm36.557 10.238c10.653 6.0912 20.487 11.088 33.847 12.394-3.9117 7.9396-7.4776 16.609-8.124 31.442zm35.805 58.998c10.846 3.8846 20.262 9.7712 38.13 3.8236-9.5267 8.4316-14.923 18.515-18.959 29.143zm91.458 35.389c5.1243 0 9.2813 4.1575 9.2813 9.2812s-4.157 9.25-9.2813 9.25c-5.1237 0-9.2812-4.1263-9.2812-9.25s4.1575-9.2812 9.2812-9.2812zm-56.948 23.131c7.836 2.8844 16.05 4.797 25.17 4.38-4.5092 6.2018-6.0443 15.636-6.335 26.424zm26.911 46.175c7.2557 3.5377 15.846 8.6928 31.081 7.0404-10.09 17.119-7.9301 21.842-8.9618 29.332zm88.099 34.006c5.3664 0 9.7187 4.3523 9.7187 9.7188 0 5.3664-4.3523 9.7188-9.7187 9.7188-5.3669 0-9.7188-4.3523-9.7188-9.7188 0-5.3664 4.3519-9.7188 9.7188-9.7188zm-54.603 21.824c6.6461 3.7554 19.767 5.8984 19.913 4.8813-0.8422-0.63167-3.7788 12.653-4.2894 21.003zm30.595 49.904c9.4442 5.5695 19.897 5.0378 26.04 5.6941-6.5689 1.3148-12.76 2.9606-19.814 5.7297zm111.4 54.785c-22.755 1.4671-28.032 18.915-25.335 36.595-17.348-2.7719-36.769 13.672-31.339 33.785 5.1487 19.072 22.884 19.741 35.123 18.466-0.94 4.6337-3.518 20.214 15.307 33.394l2.5082 99.015s-8.2966-7.6213-13.714-13.018c-23.651-23.558-59.231-40.622-57-27.344 0.3286 1.9519 1.0853 6.9055 1.6563 11 3.762 22.418 33.877 46.648 54.406 58.844 7.335 4.0911 11.875 8.4688 11.875 8.4688-38.404 41.057-59.047 84.865-64.188 128.34-4.775 40.397-8.6394 76.783-12.437 113.88-15.672 186.06-95.518 232.86-99.313 241.97l-1.5 24.812-22.281-1.6563-25.688 22.219c84.14 43.476 133.22 95.94 132.53 96.938 67.181-43.991 125.17-92.858 179.91-143.44l-1.0625-414.28s-4.5407 1.6608-5.7187 1.6562c-4.1556-0.016-4.684 1.855-6.125 9.7812-0.7716 4.2426-3.3013 8.1501-5.2813 10.938-3.761 5.2946-2.4215 2.6158 2.3125 4.5312 10.778 4.3611-3.2162 24.12-18.531 26.531-11.03 1.7366-17.191 3.765-19.063 6.3125-23.217 20.311-46.35 23.528-63.844 16.062-8.606-3.6723-17.961-9.0422-21.125-18-7.184-20.337 7.7825-49.638 16.562-66.562 16.099-31.036 42.844-54.344 42.844-54.344l-4.375-4.75s5.2554 0.0801 6.25-0.28125c23.08-8.3913 24.507-8.5114 28.75-14.625 4.244-6.1176 14.947-23.566 17.156-29.312 11.861-30.851 13.458-32.855 13.438-53.094-0.02-16.397-1.1117-27.351-4.2813-28.219-18.183 13.941-36.543 46.499-47.281 65.688-3.7115-28.429-4.8125-78.059-4.8125-78.059 3.8478-4.2529 25.684-1.8748 20.844-37.473 19.221 8.6689 39.471-4.5938 38.625-23.102-1.3178-28.82-23.524-27.97-41.598-24.332 8.6128-17.408-7.7562-38.395-24.201-37.334zm-0.3508 2.4244c23.748 0.73398 28.458 26.978 13.906 41.835 0 0-9.4304-7.2591-14.431-11.389-4.7524 3.7324-6.1228 6.9636-11.348 10.804-6.184-4.5712-9.9158-12.659-9.9729-20.449 0.2897-12.169 12.568-21.087 21.846-20.8zm-542.57 0.8125c96.101 53.705 216.6 57.546 326.91 2.8125l-1.3438 9.0938-12.094 6.8125 6.8438 12.531 3.7812-1.8125 0.094 8.2812c-90.925 49.114-243.24 59.277-362.47-22.281l10.375-4.8125s2.3408 1.6365 4.5938 3.0312c4.347 2.6909 11.517 7.0064 16.25 9.125l7.2188-10.406s-11.021-6.7168-9.9376-7.1562l9.7813-5.2188zm8.4687 16.469-5.5 12.5 13.781 7.3438 5.25-12.594zm-52.281 1.4062c147.99 92.89 285.74 65.239 368.47 27.25l1 9.9c-106.77 45.423-247.17 57.615-380.81-32.219zm348.34 5.9688-13.156 5.25 5.2187 12.062 13.531-5.7812zm-366.03 2.25c120.26 77.543 249.24 92.723 388.25 35.906l5.2 14.83c-135.4 54.37-278.3 48.11-408.8-44.31zm92.406 0.4375-5.375 13 14.906 5.6562 4.3438-12.75zm252.91 5.375-13.031 4.2188 4.0624 12.438 13.5-4.5938zm-230.12 3.5625-3.2188 13.062 15.219 4.2812 2.6562-13.125zm550.76 21.503c2.0497 22.216-30.893 32.937-43.216 12.203l10.862-13.19-9.7154-9.0594c13.182-20.847 40.145-10.813 42.07 10.047zm-684.48-20.785 35.875 24.656-26.062 40.5-38.625-25.938zm621.78 1.125 22.781 19.75-20.906 24.469-21.375-21.562zm-14.162 6.699-12.81 14.891 13.864 14.741c-16.441 17.474-40.975 6.688-40.731-14.703 0.1861-16.327 25.178-32.222 39.678-14.929zm-265.59-5.7302-13.688 4.0938 3.125 12 14.156-3.6875zm-184.62 3.7812-2.5313 12.906 15.719 3.375 2.6562-12.844zm162.03 2.1875-14.563 3.1562 2.5 12.844 14.594-3.0625zm303.88 3.0312-12 11.781 12 12.438 12.094-12.438zm-440.69 0.375-1.8437 13 16.469 2.2188 1.2813-13.156zm110.91 1.7812-14.812 1.6875 1.5 12.75 15.375-1.9375zm-87.438 1.5-0.1875 13.344 14.438 1.1562 0.031-13.219zm63.688 1.25-14.5 0.53125 0.094 12.906 14.813-0.9375-0.4063-12.5zm-264.56 0.125c-8.531 0-15.438 6.9067-15.438 15.438 0 8.5308 6.9065 15.438 15.438 15.438 8.531 0 15.438-6.9067 15.438-15.438 0-8.5308-6.9065-15.437-15.438-15.438zm240.25 0.4375-14.25 0.125 0.062 13.062 14.688 0.0625-0.5-13.25zm377.84 0.0625 6.25 6.25-6.25 6.1562-6.4063-6.1562zm-618.12 4.9375c5.597 0.00001 10.125 4.5282 10.125 10.125-0.0006 5.5968-4.528 10.156-10.125 10.156-5.5976 0-10.157-4.5594-10.156-10.156 0-5.5968 4.5587-10.125 10.156-10.125zm-54.906 0.75 20.531 16.719c-6.5326 12.504-27.219 38.906-27.219 38.906l-37.938-30.406 19.844-11.219c-1.08 2.086-1.6874 4.4287-1.6874 6.9375-0.0006 8.3829 6.8034 15.156 15.187 15.156 8.3826 0.00012 15.187-6.7734 15.188-15.156 0-8.0407-6.279-14.601-14.188-15.125zm-11.469 10.75c5.622 0.00001 10.188 4.566 10.187 10.188 0 5.6215-4.5654 10.156-10.187 10.156-5.6216 0.00009-10.188-4.5348-10.188-10.156 0.0006-5.6215 4.566-10.188 10.188-10.188zm697.82 4.8086s5.5927 2.1225 6.961 4.2227c11.013 16.903-0.4587 37-18.916 36.607-21.562-0.45962-27.238-27.487-12.407-38.512l12.054 11.382zm-560.54 6.8789 42.5 16.312-16.125 46.188-46.469-19.062zm-174.69 4.8125c173.39 156.22 419.71 167.45 598.75 63.75l10.906-0.21875 5.7812 5.9375c-203.96 120.62-457.52 94.372-628.69-60.875zm477.44 9.3125 13.688 45.656-47 12.375-10.5-46.25zm-495.22 1.6562c52.625 50.709 127.03 95.144 214.41 120.34l2.1563 18.719c-92.758-27.854-162.82-65.054-231.06-129.62zm203.72 0.71875c-8.383 0-15.188 6.8046-15.188 15.188 0 8.3829 6.8045 15.156 15.188 15.156 8.383 0.0002 15.188-6.7734 15.188-15.156 0-8.3829-6.8045-15.188-15.188-15.188zm-75.5 3.4 43.8 23.19-21.8 43.72-46.6-24.97zm75.406 1.5938c5.621 0 10.188 4.566 10.188 10.188 0 5.6215-4.5655 10.156-10.188 10.156-5.622 0.0002-10.188-4.5348-10.188-10.156 0-5.6215 4.5655-10.188 10.188-10.188zm72.594 6.2188 42.125 6.125-1.9374 46.688-49.156-5.9062c1.885-16.433 8.9687-46.906 8.9687-46.906zm203.47 1.1562c-8.383 0-15.188 6.8046-15.188 15.188 0 8.3829 6.8045 15.156 15.188 15.156 8.383 0.0002 15.188-6.7734 15.188-15.156 0-8.3829-6.8045-15.188-15.188-15.188zm-0.1875 5c5.621 0 10.188 4.566 10.188 10.188 0 5.6215-4.5655 10.156-10.188 10.156-5.622 0.0002-10.188-4.5348-10.188-10.156 0-5.6215 4.5655-10.188 10.188-10.188zm-342.5 0.65625c-8.383 0-15.184 6.8046-15.188 15.188 0 8.3829 6.8045 15.156 15.188 15.156 8.383 0.0001 15.184-6.7734 15.188-15.156 0-8.3829-6.8045-15.188-15.188-15.188zm269.31 0.0625 6.0312 46.906-46 2.2812-2.7187-46.781zm329.69 4.1875h6.5313c0.6024 40.367 3.7967 87.098 8.4687 121.66 0.704 5.1475 1.024 6.6666 0.5 7.5938-4.517 7.9992-9.7655-2.0694-11.812-25.031-0.564-6.3273-1.2825-15.541-2.0625-21.594-2.362-18.306-1.625-82.625-1.625-82.625zm-777.47 0.71875c-69.167 43.15-184.22 146.22-183.53 148.62l0.4687 396.06 9 0.4375 7.4376-14.562c-11.508-2.8807-8.2856-24.506 13.75-28.844 3.76-0.74021 15.247-4.604 18.062-6.75 16.727-12.751 43.902-20.281 62.969-15.25 27.803 7.1101 33.505 27.549 20.125 63.094-10.547 28.019-31.442 63.844-51.062 74.062-1.601 0.8346-5.0625 2.5313-5.0625 2.5313s4.5612 4.1484 6.2188 5.2187c54.049-31.233 81.337-143.26 79.875-212.97 2.178-71.397 14.492-143.05 43.312-195.16 47.632-86.121 110.63-120.75 110.31-121.06 0 0-84.931-51.559-131.88-95.438zm178.28 0.0312c5.625 0 10.188 4.566 10.188 10.188 0 5.6215-4.5625 10.156-10.188 10.156-5.621 0.0001-10.188-4.5348-10.188-10.156 0-5.6215 4.5665-10.188 10.188-10.188zm420.16 1.625 16.406 43.594-45.594 18.656-16.438-45.812zm-262.25 0.21875c-8.383 0-15.187 6.8046-15.187 15.188-0.0006 8.3829 6.8044 15.156 15.187 15.156 8.3866 0.0002 15.187-6.7734 15.188-15.156 0-8.3829-6.801-15.188-15.188-15.188zm92.688 3.7812c-8.3836-0.0001-15.184 6.8046-15.188 15.188 0 8.3829 6.804 15.156 15.188 15.156 8.383 0.0001 15.184-6.7734 15.187-15.156 0.0006-8.3829-6.8044-15.188-15.187-15.188zm-92.875 1.2188c5.622 0 10.191 4.566 10.187 10.188 0 5.6215-4.5654 10.156-10.187 10.156-5.6216 0.0002-10.191-4.5348-10.188-10.156 0.0006-5.6215 4.566-10.188 10.188-10.188zm92.687 3.7812c5.6256 0 10.188 4.5661 10.188 10.188-0.0006 5.6216-4.562 10.156-10.188 10.156-5.621 0.0001-10.188-4.5346-10.187-10.156 0-5.6215 4.5664-10.188 10.187-10.188zm155.06 5.1875c-8.3836 0-15.187 6.8046-15.188 15.188 0 8.3829 6.804 15.156 15.188 15.156 8.386 0.0002 15.187-6.7734 15.187-15.156 0.0006-8.3829-6.8014-15.188-15.187-15.188zm-0.1876 5c5.6226 0 10.191 4.566 10.188 10.188-0.0006 5.6215-4.565 10.156-10.188 10.156-5.621 0.0002-10.191-4.5348-10.187-10.156 0-5.6215 4.5664-10.188 10.187-10.188zm-322.03 0.78125 45.562 11.656-10.594 47.781-51.406-13.656zm576.38-1.2329c7.4521 23.34-6.2224 53.277-6.9123 55.233-8.2817 23.479-18.248 42.666-21.875 43.781-3.0846 1.1696-4.4486 0.42075-4.4376-2.4688 0.02-4.4328 10.184-34.5 18.188-53.844 1.959-4.737 6.4965-19.058 6.5061-21.463 0.01-3.6208-3.4994 2.278-7.2874 11.306-7.3306 18.059-18.027 37.396-20.344 54.906-1.6616 14.309-4.383 12.288-6.375-4.75-2.7666-23.65 2.4094-35.813 29-68.75 6.361-7.8799 12.892-15.973 13.537-13.952zm-334.72 12.139 13.188 46.781-53.781 9.1875-8.375-47.438zm-225.19 4.7188c-8.3846 0-15.187 6.8045-15.188 15.188 0 8.3828 6.804 15.156 15.188 15.156 8.382 0.0001 15.187-6.7734 15.187-15.156 0.0006-8.383-6.8054-15.188-15.187-15.188zm80.406 3.0312 48.719 2.7812 0.4374 48.625-52.875-2.2812zm-80.594 1.9688c5.6226 0.0001 10.188 4.566 10.188 10.188-0.0006 5.6215-4.565 10.156-10.188 10.156-5.621 0.0001-10.188-4.5348-10.187-10.156 0-5.6216 4.5664-10.187 10.187-10.188zm204.47 4.3125c-8.383 0-15.186 6.8046-15.188 15.188 0 8.3829 6.8045 15.156 15.188 15.156 8.383 0.0001 15.186-6.7734 15.188-15.156 0-8.3829-6.8045-15.188-15.188-15.188zm-101 3.9062c-8.383 0-15.186 6.8045-15.188 15.188 0 8.3828 6.8045 15.156 15.188 15.156 8.383 0.0001 15.186-6.7734 15.188-15.156 0-8.383-6.8045-15.188-15.188-15.188zm100.81 1.0938c5.622 0 10.188 4.566 10.188 10.188 0 5.6215-4.5645 10.156-10.188 10.156-5.621 0.0001-10.188-4.5348-10.188-10.156 0-5.6215 4.5665-10.188 10.188-10.188zm-101 3.9062c5.622 0.0001 10.188 4.566 10.188 10.188 0 5.6215-4.5645 10.156-10.188 10.156-5.621 0.0001-10.188-4.5348-10.188-10.156 0-5.6216 4.5665-10.188 10.188-10.188zm332.22 2.9062c0.8007-0.0198 1.8583 0.13306 2.5626 0.125 10.878-0.1242 47.572 26.23 56.969 42.188 7.797 14.091 3.7613 19.685-5.2187 7.0938-12.388-13.794-35.271-34.27-38.188-34.281-3.125-0.012 1.18 4.451 15.75 18.656 14.453 14.087 29.7 32.447 29.688 35.719-0.0006 2.1581-2.875 1.8864-7-0.65625-9.0146-5.5552-16.841-11.171-20.844-14.938-2.412-2.2695-7.0162-6.4506-10.281-9.3125-13.476-11.813-28.834-39.052-24.5-44.281 0.1927-0.23258 0.5824-0.30064 1.0624-0.3125zm-679.75 3.875c9.3866-0.2728 19.977 5.6959 20.406 16.625 0.304 7.7212 0.8285 8.3116 7.8125 8.4375 6.66 0.12 25.906 2.4062 25.906 2.4062l0.125 21.625s-9.2904-0.0555-20-0.5625c-18.234-0.8631-18.152-0.888-20.469 7.125-0.937 3.2396-2.24 4.8314-5.875 7.2188-16.375 10.755-32.163-8.7565-22-27.188 3.489-6.3265 3.6923-8.4886 1.2813-12.281-4.8986-11.002 1.6214-22.855 12.812-23.406zm4 11.062c-2.021 0-4.2264 0.8678-6.25 2.875-2.7 2.6761-2.7222 10.31-0.031 14.75 2.567 4.2469 2.502 5.389-0.5 8.1875-5.29 4.9313-5.4398 14.712-0.2812 18.391 4.704 3.3556 9.6927-1.0762 9.7187-7.8599 0.03-7.433 5.2305-7.2969 5.2305-7.2969l34.258 0.59375 0.1123-5.5824-24.854-1.2446c-3.457-0.0143-7.0723-0.34348-9.7421-2.1481-2.8279-1.9556-6.0505-5.3494-2.9729-9.478 4.31-5.7831 0.471-11.227-4.6876-11.188zm-74.25 12.781 16.25 27.625 18.938 0.6875 1.6562 16.812 23.02 14.824-23.582 13.797-1.1641 16.914-17.867 2.2461-16.594 20.781-15.906-20.75-17.531 0.0937-0.25-17.344-24.125-15.531 26.406-14.844l-0.3-19.81 18.719-1.25 12.312-24.25zm574 12.562 0.7813 16.688-26.594 4.7188 3.4687-17zm-170.44 16.812 35.844 1.0938-2.0625 234.22s-7.0622-0.0493-8.4062-0.0625l-0.1563-9.125-11.469 0.375-11.656-7.0625zm-403.56 5.9375-21.031 26.625 25.469 22.25 22.437-26.031zm414.31 3.5625v10.781h15.031v-10.781zm-413.84 9.2188 14.812 10.844-11.281 14.906l-14.4-12.37zm574.28 6.125-0.4687 128.19c-49.25 38.65-64.595 106.69-64.594 106.69l-20.031-1.1875 50.906-225.81zm-266.97 2.8438c-44.318 21.085-88.98 37.05-132.94 87.344 17.02 15.318 35.007 30.933 51 57.031 36.596-5.4498 77.31 1.0969 121.72 18.562zm106.53 2.875v11.156h15.031v-11.156zm-498.16 16.094c1.093 3.4104 1.4375 7.0625 1.4375 7.0625 32.497-2.7255 24.21 34.989 3.5 36.281-2.429 0.3144 2.0082 6.6876 6.8438 8.7188 12.308 5.1714 21.152 1.8487 29.219-8.9062 6.187-8.2491 6.5625-9.4375 6.5625-9.4375l20.062 10.625s0.5743-0.29175-2.9687 8.9062c-6.4476 16.74 2.9587 37.279 10.219 22.312 3.869-7.9762 15.247-12.518 23.125-9.2188 9.208 3.8561 12.396 20.296 5.9375 30.656-1.955 3.1318-2.0125 3.7871-0.8125 6.6875 1.806 4.3659 2.9233 15.594 1.0313 19.219-2.4546 4.7003-5.285 5.7712-10.813 1.9375-7.569-5.2478-11.803-7.4304-24.969-11.094-23.123-4.3512-27.649-12.488-36.844-31.5-27.387 8.2013-68.367-8.9694-62.906-49.625 2.484-8.9721 3.1673-26.196-1.4063-29.719-8.964-6.905 0.8718-16.869 14.344-18.469 11.07-1.0988 16.396 9.3864 18.438 15.562zm387.4-11.78 35.6 149.19c-39.103-14.321-77.478-25.496-111.44-17.188-15.553-24.817-28.81-37.031-46.062-53.156 33.612-40.521 76.345-63.195 121.88-78.844zm-403.06 7.3125c-2.3036-0.0237-4.9073 0.97118-7.625 3.375 0 0 2.4077 2.016 3.7187 4.75 2.0956 4.3715 2.1176 4.3693-0.25 14.062-10.862 38.862 14.908 64.574 51.563 53.344 9.001-2.7846 8.6534-2.4784 11.25 8.0938 4.273 17.399 16.576 26.387 41.031 29.688 1.503 0.20287 4.01 0.69405 6 1.9062 10.759 6.8625 6.3458-2.2661 3.4062-5.8125-2.1-2.7737-5.9374-5.5312-5.9374-5.5312s3.2794-2.1245 4.8124-2.9375c6.9026-3.6594 9.4763-17.986 3.7813-21.062-5.194-2.8053-14.038 1.4302-14.062 6.75-0.04 9.7198-12.307 10.753-23.039 2.6724-13.774-10.37-1.571-36.505-1.4899-36.47l-7.7671-3.4153c1.0321 0.91597-16.359 25.619-37.753 17.004-14.942-6.0165-25.474-23.32-18.544-28.26 5.0486-1.3516 11.102 1.4198 14.938-1.5312 7.64-5.9932 1.475-16.51-9.4376-16.125-2.291 0.081-7.5 1.0938-7.5 1.0938 0.5736-4.8971 1.8288-8.3404 1.2188-13.062-0.6398-4.7264-3.9148-8.486-8.3125-8.5312zm513.94 11.344v9.1875l14.875 0.0937v-9.1875zm-0.1562 18.938v9.4688h15.031v-9.4688zm0 20.406v9.6875h15.031v-9.6875zm0 19.031v10.25h15.031v-10.25zm0 19.094v9.5625h15.031v-9.5625zm0 19.469v9.6562h15.031v-9.6562zm-488.69 9.4375 12.656 21.375 15.031 0.65625 0.5937 14.688 25.562 19.531-22.344 15.969-1.625 15.844-17.719 0.5625-14.344 24.188-17.656-21.219-14.188-2.2812-1.625-19.312-21.844-16.344 20.531-16.406 1.6563-17.156 16.719 1.4688zm831.9 10.22c1.368 0.0275 2.8567 0.40548 4.4687 1.2188 5.3106 2.6784 6.9843 2.9917 20.781 3.6875 16.003 0.80709 21.659 2.2364 29.594 7.5312 4.7846 3.1928 5.065 3.1751 10.188-0.21875 22.47-14.889 48.133-1.353 50 26.375 0.491 7.2906 1.2197 10.226 4.0937 16.344 1.959 4.2391 3.9905 7.5795 2.8125 10.281-3.602 8.2571-20.913 8.7874-30.344-3.4688-1.688-1.8494-3.4024-2.6471-5.75-2.6562-4.683 1.7408-16.666-7.6883-16.531-8.0938-1.113 6.562-1.6702 11.777-2.8438 21.312l-21-0.31s-0.4675-3.8416-1.4375-17.25c-1.117-15.412-4.948-19.921-9.875-11.594-8.477 14.337-31.01 8.0334-32.312-9.0312-0.442-5.7847-0.7705-6.5362-3.9375-8.9688-10.609-8.1575-7.5185-25.349 2.0625-25.156zm-343.09 0.84375v8.5625h15.031v-8.5625zm345.5 9.1562c-4.1656 0.29772-1.7933 7.688 5.0937 11.594 3.908 2.2164 3.9193 2.1997 3.4063 9-0.9296 12.315 10.944 18.353 16.219 8.25 0.915-1.7488 1.3065-3.9754 0.9375-5.4688-2.212-8.9506 17.154-6.5092 21.812 2.75 1.071 2.1286 2.2667 7.7867 2.8437 13.5 0.5486 5.414 0.6876 11.688 0.6876 11.688h6.1874s-0.074-3.7389 0.2813-7.3125c1.534-15.3 8.3025-24.973 17.438-24.938 3.899 0.0151 4.0395 0.70794 1.3125 5.75-4.614 8.5288-0.1693 14.708 10.594 14.781 6.8266 0.0463 6.8018 0.0567 9.3438 4.9062 2.79 5.3271 4.901 7.0161 7.5 6.0312 1.835-0.69599 1.8688 0.3323-0.5312-17.844-3.5766-27.083-19.335-34.379-41.094-19.031-6.157 4.344-7.5052 4.2127-12.969-1.0625-8.186-7.9054-13.369-9.7156-29.375-10.312-7.626-0.28439-15.141-1.0314-16.687-1.6562-1.2326-0.49805-2.229-0.68013-3-0.625zm-516.41 7.75c-3.5591 0.0607-7.6881 0.80944-11.271 1.1149 3.9785 20.93 5.8294 41.861 7.6481 62.791 18.326-3.1829 42.061-0.2157 73.373 14.375 19.216 8.9546 42.683 24.26 67.281 41.531 26.629 18.697 57.842 29.738 84.429 35.508 32.376 7.0268 58.377 6.4252 57.667 4.8982-1.4323 0.2393-11.672-51.342-10.33-62.37-44.785-4.1132-88.025-20.696-121.08-43.161-43.754-29.739-94.332-55.598-147.72-54.688zm170.91 1.75v8.6875h15.031v-8.6875zm-493.25 1.7188-23.781 24.781 25.875 24.5 21.969-24.969zm-0.6563 11.25 13.469 12.906-10.875 13.781-15.156-13.062zm335.3 2.03c3.169 0.0272 6.269 2.2522 16.75 8.125 8.791 6.0646 15.81 9.8501 13.25 0.34375 2.004-2.7391 11.741 6.1695 23.219 11.781 13.837 11.086 13.889 8.4127 15.687 2.9062 1.8546-4.0258 4.4118-1.3023 15.469 8.9375 14.525 13.454 13.221 13.472 16.125 10.125 3.31-6.2844 4.414-6.2189 16.25 7.375 12.303 13.725 14.906 16.655 17.531 10.781 4.0496-3.0413 6.1448-0.0878 22.844 15.594 8.213 8.191 10.146 6.9195 11.688 1.4062 1.588-5.6797 2.0397-4.4001 15.906 6.5938 16.056 12.854 17.645 13.795 18.312 9.3438 1.0606-7.0688 6.035-4.5598 22.563 7.3125 10.016 7.1579 13.801 9.1485 15.937 7.375 2.1826-3.8558-5.4322-11.27 10.719-4.2812l4.4375 23.438-5.5937-1.5938c-3.4336-0.97724-10.963-3.5251-8.125 3.7812 1.638 4.2198-2.4268 3.7195-14.969-3.75-17.967-10.701-21.282-13.158-22.625-10.969-2.372 8.012-2.0705 8.5272-14.188-0.96875-14.101-10.693-16.936-13.647-18.906-10-0.257 8.0729-4.1927 6.4342-17.344-4.9062-11.117-9.7219-13.486-14.801-18.464-7.3643-1.3669 2.5845-2.7406 1.9334-4.5802 0.58987-6.465-4.78-19.466-18.503-23.143-22.444-2.888-3.1482-4.5332-2.1332-6.9062 0.46875-2.2166 2.4293-2.387 1.6754-9.5626-4.9062-17.14-15.72-20.326-19.649-22.719-17.5-1.954 3.6869-0.087 8.6972-13.25-1.6875-16.51-11.893-23.68-17.17-22.562-9.375-2.833 3.4886-0.848 4.1729-17.375-4.9688-15.707-8.6885-17.699-11.297-19.969-8.3125-1.542 4.7195-6.813 3.0247-6.8124 2.75l-3.1876-23.844 5.6563 0.0625s5.4395-2.2163 7.9375-2.2188zm-126.03 2c-1.2596 3.6865-9.9233 24.954-10.031 79.094 1.039 1.2788 21.474-19.553 22.469-38.969 0.9436-18.399-12.395-40.176-12.437-40.125zm284.59 1.5v9.875h15.031v-9.875zm-283.52 7.8286c19.105 30.29-1.9535 58.851-7.1962 60.868 0.0008-22.764 3.3498-44.164 7.1962-60.868zm501.43 25.445c-31.41 19.793-26.31 73.355-10.898 87.078 1.1336 0 11.028-57.859 10.898-87.078zm-4.3008 6.5898-8.4532 68.938c-10.981-12.161-12.929-48.417 8.4532-68.938zm198 11.63l16.594 20.875 14.75 1.0938 3.2812 15.062 21.531 17.531-21.562 14.625-1.9063 16.688-16.031 1.625-15.875 24.969-15.5-24.47-14.875-1.5938-0.4688-16.062-23.375-17.25 22.313-13.406 0.4374-18.156 17.469 0.0625zm-587.66 6.5312c-10.544 50.131-35.725 84.434-71.25 107.5l0.1874 5.0625-59.844 24c-13.107 61.155-36.682 120.81-86.094 176.78l13.781 28-66.844 22.969 95.688 164.09c6.589 0-46.361 25.061-110.28 18.531 40.452 99.041 48.792 201.58 26.406 291.38l313.22-1.3126-239.38-469.72-3.9063-7.6563c-3.324-6.137 127.25 18.359 99.531 139.47-0.388 2.8036 0.5817 3.1573 2.1563 2 25.385-21.805 193.97-82.268 328.59-2.4375l40-16.562c-19.036 66.639-40.675 112.48-77.156 152.66l6.1876 94.844c64.551-52.861 134.6-149.91 144-278.88 29.069-14.165 54.351-30.249 81.437-45.406l3.5938 1.1562 17.531-10.531c-56.227-61.509-171.03-120.3-244.59-135.75l4.3437 20.844c-40.594-10.899-70.951-13.268-102.53-16.656l-4.8438-220.69-40.875-24.094-1.2812 243.44c-30.566 0.3782-100.84 12.438-100.84 12.438l3.1563-20.812-32.188 6.625-0.5625-20.281 36.375-10.437 52.75-223.63zm4.5 4.97l16.812 3.4062-52.219 219.25s-29.292 8.0922-31.094 6.9688c-2.331-41.115-3.2188-124.91-3.2188-124.91 51.5-43 59.6-73.42 69.7-104.76zm-358.41 16.094c7.8697-0.0984 16.337 5.6252 16.875 10.781 1.348 3.178 2.4727 4.5506 4.5937 4.8438 13.174 1.8206 13.594 5.3096 13.969 12.906-1.856 14.563 7.8933 2.3377 10.656-12.125 0.288-1.5065 0.125-12.562 0.125-12.562l16.125-0.15625s0.5467 11.541 0.7813 13.375c1.422 11.185 6.1914 20.254 9.5 14.312 11.343-20.373 37.327-9.9848 33.219 9.6562-1.01 4.6453-0.9463 4.9406 2.2187 8.4688 5.1616 5.7569 7.0806 11.849 5.375 17.156-1.661 5.1819-5.2887 5.9703-13.094 2.8438-3.669-1.4692-8.113-1.9942-20-2.3438-16.813-0.49433-17.862-0.81313-24.406-7.1562l-4.125-4-7.125 4.1875c-11.863 6.9713-22.649 7.2382-35.187 0.8125-8.1636-4.1833-12.917-14.209-14.188-29.844-0.242-8.3073-2.5737-14.322-7.7187-16.312-2.778-2.6155 0.3155-7.8161 5.0625-12.562 2.177-1.562 4.72-2.2484 7.3438-2.2812zm940.28 2.375-22.156 27.625 26.344 23.562 24.531-28.844zm-513.22 3.9688 30.688 17.562 3.9374 217.56-34.687-0.9687 0.062-234.16zm-426.22 3.0312c-2.334 0.22872-0.8673 3.9724 0.8437 9.6875 1.5356 5.1135 1.9226 8.292 1.4376 11.844-3.2576 23.841 24.078 35.964 43.812 19.438 5.2466-6.0104 6.106-5.6206 10.5 0.8125 5.4136 6.7851 13.291 8.9909 29.813 8 7.541-0.45227 12.54 3.5725 15.812 0.90625 2.3656-1.7153 0.07-6.2601-4.5-8.9062-2.798-1.6189-2.8987-1.8721-2.3437-7.4688 1.401-14.112-10.237-17.847-18.5-5.9375-6.825 9.8382-17.118 3.3364-20.438-12.906-1.972-12.498-3.5452-12.303-5.0312-1.4062-1.6106 13.25-19.062 27.616-26.031 21.094-1.907-1.9219-1.888-1.4418 0.062-8.0938 2.518-8.5378 0.5025-11.72-8.8125-13.938-1.525-0.36312-3.28-1.636-3.875-2.8125-4.932-7.6341-4.716-10.312-12.75-10.312zm941.66 5.0625 14.062 12.125-12.25 14.469-14.969-11.5zm-505.81 7.75v10.031 0.25h13.125v-10.281zm0 20.719v9.875 0.9375h13.125v-10.812zm79.063 12.438c14.711 54.626 29.537 109.2 44.312 163.81 13.997-5.5914 94.821-41.464 132.94-87.375-1.4498 0.11515-34.654-32.348-46.281-53.406-38.121 6.2827-81.91-1.7106-130.97-23.031zm-79.063 6.5v9.7812 0.3125h13.125v-10.094zm87.344 2.75c34.742 10.361 79.242 24.651 120.22 17.375 10.569 18.988 25.862 34.615 43.125 49.031-31.011 33.734-75.856 59.467-122.25 79.281zm329.75 3.9375c1.747 0.0104 3.5182 0.67596 5.2188 2.1875 5.496 4.8873 9.7347 6.5764 20.969 8.4062 18.095 2.9476 31.894 14.246 35.812 29.312 1.645 6.3285 2.5505 6.6738 11.562 4.4062 34.145-8.592 60.467 19.717 52.344 57.5-2.837 13.193-3.708 14.772 0.25 20 8.6786 9.3554 10.564 9.4773 1.0626 17.719-8.6516 7.7728-25.827 4.0145-29.469-8.5937-3.484-6.9088-3.4312-7.4311-9.1562-8.3437-22.283-3.5523-21.361-34.371-0.375-37.938 1.755-0.2982 3.0514 0.057 3.9374-0.3437 5.9586-2.6944-6.4932-16.786-16.781-14.625-12.621 2.651-18.906 10.747-23.875 23.438l-19.9-11.4c4.987-10.31 8.6455-23.595 4.3125-31.812-3.502-6.9297-7.9267-7.1948-9.2813-0.5625-3.184 15.605-22.582 20.265-35.312 7.5625-7.1156-7.099-7.9468-14.718-2.7188-25 3.386-6.6525 3.4708-7.1299 2.0312-9.9375-5.004-9.7706 1.7698-22.076 9.3438-22.031zm-417.09 12.688v10.531l13.156-0.0625-0.031-10.469h-13.125zm419.53 0.875c-4.039 0.0292-4.0123 3.9677-0.2813 8.75 3.3176 3.3668 3.9646 4.9113-0.625 7.8125-5.752 5.331-7.0062 13.354-3.0312 19.469 5.964 9.18 19.736 4.0646 18.156-6.75-1.107-7.5884 4.8548-10.982 14.344-8.125 13.791 4.1537 20.362 19.565 14.938 35.094-1.0225 2.927-3.0568 9.7535-3.0568 9.7535l4.0762 2.47s4.8321-7.7194 6.7205-10.058c15.667-19.257 52.699-9.5013 48.573 14.585-0.635 7.5678-0.6032 8.5893-8.8438 6.2187-5.473-2.8196-10.759 3.0319-10.594 10.344 0.27 6.5872 5.9877 11.87 13.906 10.812 6.279-1.1779 7.8572-0.9627 7.4062 7.5 0.643 5.8851 2.8375 9.7833 6.6875 11.781 9.352 3.8613 14.162-1.4596 6.6875-9.2813-4.529-4.7388-4.2548-12.066-1.4062-18.938 3.405-8.2146 1.6272-26.276-3.5938-36.469-7.522-14.68-28.568-20.831-46.188-13.5-8.055 4.3055-8.9357 5.2996-9.7187-2.25-4.4146-18.724-18.504-32.87-36.063-34.125-6.751-0.48238-13.783-4.1668-18.094-5.0938zm-419.53 19.125v9.7188h13.156v-9.7188zm0 19v10.719h13.125v-10.719zm0 20.906v10.719s7.18-0.1993 13.125 0v-10.719zm428.62 17.187 14.375 21.25 15.906 1.0626 1.875 17.156 24.125 15.031-20.906 13.094-0.1562 16.594-19.938 1.6874-17.625 23.375-15-20.625-15 0.063-3.5313-18.406-26.562-13.469 27.25-15.531-0.75-19.344 18.531-0.125 17.406-21.813zm-428.62 2.5313v11h13.125v-11zm0 20.156v10.875h13.125v-10.875zm420.56 8.0937-20.594 27.406 27.75 22.937 22.062-27.719zm-420.56 10.969v11.906h13.125v-11.906zm422.69 1.4376 14.312 11.062-10.219 12.969-14.219-10.844zm-422.69 20.562v9.9688h13.125v-9.9688zm-390.62 1.2813c-25.301 0.1159-49.234 41.095-54.969 60.5-6.777 24.859-7.7843 69.828-1.3437 71.094 22.68-16.32 33.43-43.978 50.469-64.687 2.645 23.946 2.2246 70.135 2.2246 70.135s-10.082 5.3057-15.518 13.686c-3.9249 6.9712-5.1764 15.297-1.8319 23.054-12.609-4.0943-35.452 0.5309-36.75 23.812 0.821 32.784 36.616 28.165 36.75 27.719-0.76-0.2027-7.0483 34.875 24.719 38.594 11.402 1.3346 31.455-6.9755 25.5-38.875 20.055 3.3088 37.344-7.7334 37.563-27.031 0.255-13.219-9.7888-24.588-27.094-24.656-3.607-0.014-11.219 1.625-11.219 1.625 0.2436-1.9061 6.9293-22.424-16.344-37.312l-3.6563-94.906s8.032 8.7549 11.625 12.062c15.467 14.236 25.562 21.406 43.406 30.812 17.369 9.1565 15.224 6.8989 12.219-10.5-8.206-26.13-25.362-45.876-61.656-70.562-4.6719-3.1777-9.4078-4.584-14.094-4.5625zm2.5 2.0313 5.0938 134.23-7.5312-0.011-6.4688-134.09zm744.62 4.4374c0.6691-0.025 1.3536-0.001 2.0626 0.063 16.372 1.3786 20.578 19.683 13.219 27.812-2.909 3.2141-3.9143 3.9072-2.4063 5.875 7.0276 8.9014 3.1053 22.964-3.8437 25.125-22.092 6.8706-25.442-5.215-25.375-19.437l-34.125-1.2813 0.2187-19.875 37.625 0.75c-2.8368-9.027 2.5973-18.649 12.625-19.031zm-760.44 0.2188c0.142-0.012 0.2822-0.011 0.4062 0 3.536 0.3007-0.1022 9.753-9.9688 24.156-6.668 9.7387-15.945 26.914-18.719 33.844-6.074 15.168-10.165 42.372-6.0937 37.375 3.6734-11.371 4.0304-16.108 7.1874-24.281 4.1576-10.662 23.563-45.706 27.406-49.156 3.287-2.9516 4.1385-1.1378 4.0625 8.7187-0.172 22.202-10.691 45.562-35.781 72.906-4.1826 4.5582-9.7583 9.5328-10.156 9.5313-2.417-0.01-2.3535-5.0355-2.3125-15.594 0.163-41.942 15.732-79.391 39.688-95.5 1.873-1.2596 3.2897-1.9133 4.2813-2zm25.406 1.9375c11.007 3.2219 30.765 20.89 38.906 29.969 9.4305 10.178 22.066 38.355 19.844 42.688-0.738 1.9013-2.3302 1.6028-7.8438-1.5-35.026-19.715-60.105-44.016-53.531-51.875 1.836-2.1957 9.3615 2.3316 19.438 11.687 6.8486 6.0773 13.862 12.239 20.125 18.406 9.8422 9.6911 12.058 11.115 6.125 0.3437-5.3275-9.6727-20.426-25.906-38.688-39.687-7.424-5.6035-9.111-10.12-4.375-10.031zm737.19 5.6563c-0.4675 0.01-0.8915 0.081-1.2187 0.2187-6.8916 2.9018-4.086 11.834-4.75 18.688l-37.875-1.3125-0.2188 5.25 35.531 1.9375c0.6246 5.3582-2.1667 16.922 2.4063 18.875 9.942 4.1365 15.376-8.6788 6.9375-16.375-3.007-2.6698-6.2618-3.8532 2.0938-7.625 5.505-4.7043 6.3622-13.889 1.6562-17.969-1.302-1.1289-3.16-1.7055-4.5625-1.6874zm-479.19 1.5624-1.9062 14.031-21.969 5.5313-0.5625-15zm259.09 4.9688c81.105 21.846 171.26 71.447 229.81 127.47l-11.719 7.6874c-60.835-56.19-141.08-98.846-214.81-120.03zm-139.75 2.1562c133.56-0.368 255.31 51.553 353.56 135.41l-16.062 10.125c-89.62-74.082-188.91-123.49-322.5-129.38-87.316-3.8496-186.96 18.54-285.16 72.562l-7.3125-13.281c95.377-52.005 189.01-75.193 277.47-75.438zm-10.5 20.125 52.531 1.5313-3.25 48.781-47.75-1.5626zm-56.5 3.4688 7.4062 47.062-45.719 8.5313-12.969-47.188zm166.28 6.2188 52.188 13.906-17.219 47.969-45.813-13.063zm-83.594 0.6874c-8.287 0.0001-14.999 6.7158-15 15 0 8.2848 6.713 15 15 15 8.2836 0.0006 14.997-6.7152 15-15 0.0006-8.2842-6.7154-14.999-15-15zm0 5.1876c5.5236 0 10.001 4.3816 10 9.8124 0 5.4314-4.4764 9.8438-10 9.8438-5.526 0-10.002-4.4124-10-9.8438 0.0006-5.4308 4.475-9.813 10-9.8124zm-103.62 0.094c-8.285 0.0001-14.999 6.7157-15 15 0 8.2843 6.715 15 15 15 8.2846 0 15-6.7157 15-15 0.0006-8.2843-6.7154-15-15-15zm0 5.1875c5.5236 0 10.001 4.3817 10 9.8125 0 5.4308-4.4764 9.8442-10 9.8437-5.523 0-10-4.4129-10-9.8437 0.0006-5.4308 4.477-9.8125 10-9.8125zm206.59 6.0312c-8.284 0.0001-14.997 6.7158-15 15 0 8.2848 6.716 15 15 15 8.286 0.0006 15-6.7152 15-15 0-8.2842-6.713-14.999-15-15zm-290.81 1.75 15.469 45.906-44.281 17.938-16.594-45.344zm290.81 3.4376c5.526 0 10.003 4.3816 10 9.8124 0 5.4314-4.474 9.8438-10 9.8438-5.523 0-9.999-4.4124-10-9.8438 0-5.4308 4.478-9.813 10-9.8124zm86.75 11 46.969 24.812-24.281 43.875-43.781-22.812zm-393.25 3.9687c-8.285 0.0001-15 6.7157-15 15s6.715 15 15 15c8.284 0 15-6.7157 15-15s-6.716-15-15-15zm177.44 1.4375 2.1875 46.344-41.594 2.9374-7.5624-46.062zm49.906 2.4375l47.3 6.6-11.156 44.625-42.906-6.9062 6.6563-44.281zm-227.5 1.4c5.523 0 10 4.3817 10 9.8125s-4.477 9.8442-10 9.8437c-5.523 0-10-4.4129-10-9.8437s4.477-9.8125 10-9.8125zm155.31 6c-8.285 0.0001-15 6.7157-15 15s6.715 15 15 15c8.284 0 15-6.7157 15-15s-6.716-15-15-15zm-75.75 1.875 12.281 45.094-45.719 13.094-14.031-43.375zm165.97 0.7188c-8.285-0.0005-14.999 6.7152-15 15 0 8.2842 6.715 14.999 15 15 8.2846 0 15-6.7158 15-15 0.0006-8.2848-6.7154-15-15-15zm-90.219 2.5937c5.523 0 10 4.3817 10 9.8125s-4.477 9.8437-10 9.8438c-5.523-0.0006-10-4.413-10-9.8438s4.477-9.8125 10-9.8125zm90.219 2.5937c5.5236 0.0006 10.001 4.3812 10 9.8126 0 5.4308-4.4764 9.8437-10 9.8437-5.523 0-10-4.4129-10-9.8437 0.0006-5.4314 4.477-9.8126 10-9.8126zm160.44 0.094c-8.2856 0.0001-15 6.7157-15 15-0.0006 8.2843 6.7144 15 15 15 8.284 0 14.999-6.7157 15-15 0-8.2843-6.716-15-15-15zm-81.156 4.375 45.812 15.656-18.281 42.813-43.844-16.688zm81.156 0.8125c5.523 0 10 4.3817 10 9.8125-0.0006 5.4308-4.477 9.8438-10 9.8438-5.5236-0.0006-10.001-4.413-10-9.8438 0-5.4308 4.4764-9.8125 10-9.8125zm-344.62 1.5937c-8.2846 0.0001-14.997 6.7158-15 15-0.0006 8.2848 6.7154 15 15 15 8.286 0.0006 14.999-6.7152 15-15 0-8.2842-6.713-14.999-15-15zm0 5.1876c5.526 0 10.003 4.3816 10 9.8124-0.0006 5.4313-4.474 9.8438-10 9.8438-5.5236 0-9.9996-4.4125-10-9.8438 0-5.4308 4.4774-9.813 10-9.8124zm277.56 8.75c-8.285-0.0005-14.999 6.7152-15 15 0 8.2842 6.715 14.999 15 15 8.2846 0 15-6.7158 15-15 0.0006-8.2848-6.7154-15-15-15zm0 5.1874c5.5236 0.0006 10.001 4.3812 10 9.8126 0 5.4308-4.4764 9.8437-10 9.8437-5.523 0-10-4.4129-10-9.8437 0.0006-5.4314 4.477-9.8126 10-9.8126zm-536.62 5.2188c11.987 0.5062 20.982 11.272 21.526 22.475 0.4136 8.5162-10.448 19.662-10.448 19.662l-12.643-11.703-12.137 11.182c-2.0481 0.6826-11.481-15.349-8.5999-23.643 3.7526-10.802 11.473-18.43 22.302-17.973zm681.12 0 36.281 29.688s-15.926 9.6815-18.875 11.406c0.361-1.2905 0.5307-2.6567 0.5313-4.0626 0-8.2842-6.716-14.999-15-15-8.2856 0.0001-15 6.7158-15 15-0.0006 7.104 4.9627 13.073 11.594 14.625-3.729 2.1413-8.6875 4.9063-8.6875 4.9063l-19.156-16.062zm-57.437 79.344-16.054 6.5857c-98.794-64.891-233.95-100.4-388.44-35.06l-5.3155-12.808c114.7-47.761 259.4-62.633 409.81 41.281zm-8.7813-64.844 38.875 23.844-24.688 37.906-37.969-24.281zm-11.75 73.5-16.312 6.125c-120.59-77.481-249.12-73.351-363.97-26.906l-1.7734-10.883c135.23-58.547 270.95-39.918 382.05 31.664zm80.906-60.781c5.523 0 10 4.3816 10 9.8124-0.0006 5.4314-4.477 9.8438-10 9.8438-5.5236 0-10.001-4.4124-10-9.8438 0-5.4308 4.4764-9.813 10-9.8124zm-701.66 17.771-13.41 13.528 12.242 13.758s-3.8851 3.2857-6.7001 4.8182c-16.047 8.7345-33.604-5.0595-32.766-19.959 1.2222-21.707 27.38-32.054 40.633-12.145zm638.1-10.365c-8.285 0.0001-14.999 6.7157-15 15 0 8.2843 6.715 15 15 15 8.2846 0 15-6.7157 15-15 0.0006-8.2843-6.7154-15-15-15zm-583.82 0.6094c11.936 0.091 21.206 9.2563 22.352 19.797 0.9136 8.4078-3.4591 16.48-12.883 22.195-12.786 7.7548-27.644-4.8004-27.386-5.5732l10.782-10.656-12.965-13.262c-0.3754-0.2502 8.5539-12.588 20.1-12.5zm-37.336 2.5781 22.094 22.031-23.375 21.781-21.656-21.75zm582.66 58.625-12.406 5.6875-16.906-10.188-5 9.5937 9.4062 5.9688-9.7797 3.6664c-112.67-63.299-239.99-44.962-324.62-2.9546 0 0 0.7342-6.5137 0.7782-6.5131l9.2118-4.6987-3.4376-11.656-4.9374 1.4374-0.375-12.906c120.84-54.409 257.95-41.948 358.06 22.562zm38.5-56.625c5.5236 0 10.001 4.3817 10 9.8125 0 5.4308-4.4764 9.8438-10 9.8438-5.523-0.0006-10-4.413-10-9.8438 0.0006-5.4308 4.477-9.8125 10-9.8125zm-621.62 7.875-11.781 11.719 11.719 12.5 11.437-12.094zm368.81 2.5937-15.438 0.6876 0.8126 12.594 15.062-0.375zm10.531 0.063 0.2812 12.594 14-0.062-0.062-12.438-14.219-0.094zm24.844 0.2187-0.6876 12.531 13.906 0.625 1-12.469zm-60 1.5937-15.813 1.7188 1.75 12.656 14.969-1.75zm85.906 0.1876-1.125 12.937 14.281 1.625 1.9376-12.375zm-430.03 0.062 6.875 7.3126-6.8438 6.8124-7.2812-7.125zm317.47 3.8438-15.25 2.4062 1.625 13.031 14.875-2.9375zm138.34 0-2.5312 12.062 14.188 3.4063 2.3125-12.313zm-163.34 5.2812-12.812 3.4063 2.7812 12.688 13.531-3.3125zm187.69 0.5-2.6875 12.25 14.469 3.9376 2.9063-11.75zm-208.84 6.0938-13.406 4.75 3.4688 11.75 13.625-4.5938zm233.75 1.3438-4.4687 11.781 12.531 5.0312 5.5312-10.687zm-255.88 6.9062-12.719 5.2188 5.25 11.656 12.062-5.5zm-262.16 0.3639 12.877 12.855 15.297-13.8c13.349 11.8 13.137 39.405-10.493 44.014-20.638 4.0258-39.512-26.865-17.682-43.068zm541 2.4799-4.9062 10.812 13.844 6.0938 4.7813-10.406zm-394.88 69.375 174.69 296.91-27.625-0.5312-169.06-286.91zm-28.676 11.308 9.6602 15.008c-18.918-15.06-46.721-2.3907-45.547 16.59 0.9253 8.4757 8.093 13.63 8.125 5.4688-0.8599-8.5292 11.228-15.963 20-15.563 16.19 0.211 26.078 21.016 14.906 31.375-7.3494 6.7673-17.29 6.4645-13.938-2.8124 0.5286-3.2005 0.2666-4.3702-1.25-5.75-4.645-4.2378-13.212 1.2816-11.125 7.3437 1.3723 3.9846 1.7746 4.9664-3 8.25-18.521 13.008-5.6157 38.647 16.813 26.969 4.587-1.6525 6.4482-1.8951 8.5312-1.0937 9.334 3.5901 15.693-4.5101 6.8438-8.7187-5.1416-2.4455-5.2716-6.6228-0.3126-9.9376 10.59-7.0741 27.086 3.9812 27.031 18.125-0.04 10.008-13.248 17.407-25.906 14.5-7.524-1.727-8.4262 3.3686-1.5312 8.6563 13.361 10.246 33.369 1.7524 39.344-16.688 1.879-5.8001 1.6067-7.0153 1.6067-7.0153l17.825 29.432s-5.5289-2.616-8.8696-3.6354c-16.781-5.1213-35.598 5.7604-35.656 20.625-0.03 7.0044 4.1155 9.7163 6.4375 4.2188 5.403-12.79 17.155-17.767 29.219-12.375 11.16 4.9865 16.266 16.292 11.906 26.375-4.566 10.558-19.882 13.669-18.156 3.6875 0.8266-4.7566-2.0754-7.6622-7.1874-7.1875-1.9346 0.1796-4.4176 5.7992-3.75 8.5 0.624 2.5274 0.178 3.1395-6.375 8.25-15.571 12.142-3.5943 31.961 15.844 26.219 3.267-0.9654 4.4837-0.8758 7.4063 0.5312 7.031 3.3864 14.413 1.2783 14.437-4.125 0.01-3.7136-1.6634-5.1392-6.0624-5.1562-6.6636-0.026-5.2228-7.5633 2.1562-11.25 18.497-9.2417 37.388 14.094 26.125 32.281-4.839 7.8137-7.8965 8.6199-25.188 6.7188-2.7886-0.3069-4.0483 1.6025-2.3889 3.8715 5.1149 7.252 20.333 9.5483 29.198 5.5348 9.567-4.3314 15.396-15.261 16.07-26.918l19.545 34.129c-15.203-15.893-41.431-9.8155-45.643 12.946-0.02 5.771 5.2384 8.7742 7.0624 4.0313 7.9056-20.544 37.962-14.244 37.875 7.9375-0.01 3.5701-0.7154 5.5913-3 8.7188-5.518 10.639-19.617 13.266-17.062 3.7187 1.136-2.954-1.122-6.1641-5-7.0937-3.8176-0.9154-6.2513 2.2827-6.1563 8.0937 0.07 4.3518 0.1015 5.6797 0.1015 5.6797-7.0315 2.9661-11.519 8.7678-13.082 17.356l-137 0.2c16.272-94.838 12.449-180.48-18.656-261.47-2.6856-7.024-6.5469-17.234-6.5469-17.234l24.148 0.6406c5.8263 5.0508 27.844 3.0904 36.445-4.7188zm23.23 37.243 14.133 25.386c-5.8495-3.3512-11.804-5.5732-20.906-6.3437 4.7501-7.047 5.1289-13.366 6.7733-19.042zm-37.148 26.98c5.1488 0 9.3126 4.164 9.3126 9.3125-0.0002 5.1485-4.1638 9.3125-9.3126 9.3125-5.1485 0-9.3437-4.164-9.3437-9.3125s4.1952-9.3125 9.3437-9.3125zm97.438 75.835 13.61 24.226c-6.621-2.8208-12.214-5.5748-22.563-5.8448 3.7644-4.3994 7.0215-11.783 8.9536-18.381zm-39.25 25.947c4.8815 0.0001 8.8437 3.9622 8.8437 8.8438s-3.9622 8.8125-8.8437 8.8125c-4.8817 0-8.8126-3.9309-8.8126-8.8125 0.0001-4.8816 3.9309-8.8438 8.8126-8.8438zm98.614 75.509 20.095 35.645c-7.9025-4.5261-16.411-10.261-27.087-9.1593 5.0797-10.854 7.8498-16.774 6.9919-26.486zm-26.735 44.471-21.555 0.074c4.3094-18.844 21.735-13.944 21.555-0.074zm20.398-9.0821c7.328 0.3725 13.651 2.8795 17.612 9.2692l-27.123 0.069s0.1895-9.3749 9.5115-9.3382z" transform="matrix(.99999 -.0038796 .0038796 .99999 -924.74 -489.76)"/>
     </g>
    </g>
   </g>
  </g>
 </g>
</svg>
