<svg xmlns:rdf="http://www.w3.org/1999/02/22-rdf-syntax-ns#" xmlns="http://www.w3.org/2000/svg" version="1.1" xmlns:cc="http://creativecommons.org/ns#" xmlns:dc="http://purl.org/dc/elements/1.1/" viewBox="0 0 744.09 1052.4">
 <g transform="translate(-6220.7 3117.1)">
  <rect rx="10.63" ry="10.63" height="311.81" width="223.23" stroke="#000" y="-2746.8" x="6481.2" stroke-width=".99673" fill="#fff"/>
  <g fill="#d40000" transform="matrix(.30106 0 0 .30106 5635.6 -1949)">
   <path d="m3105.3-2458.4c32.952-32.158 54.594-67.22 75.29-100.94 18.15 37.102 44.197 69.561 72.364 100.94-30.137 31.118-53.494 64.393-72.274 99.374-20.818-35.859-42.736-68.33-75.381-99.374z"/>
   <path d="m3105.3-1803.7c32.952-32.158 54.594-67.22 75.29-100.94 18.15 37.102 44.197 69.561 72.365 100.94-30.137 31.118-53.494 64.393-72.274 99.374-20.818-35.859-42.736-68.33-75.381-99.374z"/>
   <path d="m3105.3-2131.4c32.952-32.158 54.594-67.22 75.29-100.94 18.15 37.102 44.197 69.561 72.365 100.94-30.137 31.118-53.494 64.393-72.274 99.374-20.818-35.859-42.736-68.33-75.381-99.374z"/>
   <path d="m3460.6-1821.5c13.499-13.173 22.364-27.536 30.842-41.349 7.435 15.199 18.105 28.495 29.644 41.349-12.346 12.747-21.914 26.378-29.607 40.708-8.5281-14.689-17.506-27.991-30.879-40.708z"/>
   <path d="m2839.5-2440c13.499-13.173 22.364-27.536 30.842-41.349 7.435 15.199 18.105 28.495 29.644 41.349-12.346 12.747-21.914 26.378-29.607 40.708-8.5281-14.689-17.506-27.991-30.879-40.708z"/>
   <path d="m2836.7-2519.9 8.4607-6.1116c7.3538 11.738 15.562 19.474 28.118 18.144 18.845-1.2674 26.649-20.661 22.704-35.285-3.8092-13.103-19.417-19.495-31.815-12.498-2.9236 1.65-6.3052 3.6875-6.3052 3.6875l-4.4137-7.1942 29.109-33.863h-31.59v14.016h-12.122v-25.128h61.746v8.5286s-16.538 16.837-22.013 26.066c13.469 0.4898 24.323 8.8645 28.208 22.116 2.2798 6.97 1.255 22.922-1.7164 29.788-4.9614 11.463-18.548 20.759-30.962 21.296-20.828 1.3757-31.893-12.961-37.408-23.562z"/>
   <path d="m3522-1744.7-8.4607 6.1116c-7.3538-11.738-15.562-19.474-28.118-18.144-18.845 1.2674-26.649 20.661-22.704 35.285 3.8092 13.103 19.417 19.495 31.815 12.498 2.9236-1.65 6.3052-3.375 6.3052-3.375l5.2262 6.7567-29.922 33.988h31.59v-14.016h12.122v25.128h-61.746v-8.5286s16.538-16.837 22.013-26.066c-13.469-0.4898-24.323-8.8645-28.208-22.116-2.2798-6.97-1.255-22.922 1.7164-29.788 4.9614-11.463 18.548-20.759 30.962-21.296 20.828-1.3757 31.893 12.961 37.408 23.562z"/>
  </g>
 </g>
</svg>
