<svg xmlns:rdf="http://www.w3.org/1999/02/22-rdf-syntax-ns#" xmlns="http://www.w3.org/2000/svg" version="1.1" xmlns:cc="http://creativecommons.org/ns#" xmlns:dc="http://purl.org/dc/elements/1.1/" viewBox="0 0 744.09 1052.4">
 <title>Vectorized Playing Cards 1.0</title>
 <g transform="translate(-735.7 -136.72)">
  <g transform="translate(-1694.4 22.067)">
   <rect rx="10.63" ry="10.63" height="311.81" width="223.23" stroke="#000" y="484.93" x="2690.5" stroke-width=".99673" fill="#fff"/>
  </g>
  <g transform="matrix(.15184 0 0 .15184 863.03 565.96)">
   <path d="m5296.8 1126.3 351.79 7.5057c31.159 42.774 93.725 129.99 93.725 129.99l-568.37 7.4753zm-147.22 29.777c15.199-30.474 18.14-59.843 15.248-102.17-2.2848-32.479 18.163-57.777 39.255-48.083 16.313 7.4969 8.7827 38.226-8.0828 31.723-6.4522-2.4882-12.113-0.2299-11.256 14.367 1.5066 35.972 11.147 76.49 2.8581 110.98-5.7782 33.507-52.133 18.07-38.022-6.8131zm-142.43-46.989c-17.909-26.704 14.184-51.726 34.275-39.402 9.5285 4.4293 8.1809 14.071-3.8291 8.9314-16.758-7.1715-34.8 18.204-20.217 28.398 6.7171 4.6952 9.2746 4.0648 4.1667-1.8086-13.59-15.711 21.176-22.655 20.17-12.306-2.3764 12.605-2.6728 17.91-3.8303 20.389-7.0812 11.001-20.688 5.3854-30.735-4.2015zm49.948-112.29c-19.343-24.001 2.8381-42.873 2.5441-42.187 5.7392-6.1806-46.092-102.21-39.541-102.84 65.462-6.9251 131.62-1.6976 197.21 0.33394 0.019 0.005-34.976 62.521-48.918 93.458-5.618 12.466 7.5139 27.137 2.08 36.398-16.886 18.345-6.3867 38.665-16.915 39.579-29.534-3.7706-58.723-8.644-91.473-2.1222-2.4144 0-2.6681-13.701-4.9901-22.623zm283.35-667.22c33.098 167.46-15.699 344.98-127.57 462.09-15.792-15.081-27.899-43.705-43.648-62.378-43.722-13.05-75.177 2.3098-105.83 17.35-27.237-15.602-57.92-24.782-87.823-24.388l-0.9667-25.899c30.26-0.64981 62.216 2.1296 89.163 18.704l42.157-17.008-131.46-135.56 1.7857-23.167 159.52 159.99 20.542 0.7273c-45.147-119.3-5.6516-308.78 184.14-370.46zm222.43 210.06 23.06 109.36s-121.93 130.56-197.31 192.53l-56.802-5.1386s77.594-137.19 63.36-126.7zm458.36 149.99c-54.147 60.273-118.84 98.595-190.7 140.82-28.726-31.901-63.589-66.987-83.722-98.441 62.681-33.299 122.44-59.093 183.81-117.38-3.3621 3.7643-78.297 29.045-78.055 26.135-2.7035 12.44-1.078 20.113-13.269 23.388-14.434-20.044-28.393-36.31-51.152-45.269-9.5474 0.85455-22.224-5.4131-22.222-5.4135 6.3763-1.2996 3.5657-78.208 0.021-79.094 0 0 1.8668-2.2807 18.538-1.947 29.776-2.0343 49.016-37.84 67.492-50.102 57.73-4.721 108.87 0.9338 165.74-0.59485-0.4354 68.456 3.5348 139.43 3.515 207.89zm-366.59-173.38c-1.4515-2.903-16.021-116.33-2.1788-187.47 2.5486-16.685 28.993-22.345 34.062-34.771 8.4094-27.016-4.2253-60.38 2.4409-90.66 6.7854-30.821 21.43-48.158 34.247-71.07 13.882-24.816 33.756-55.781 55.787-74.289 6.4654-6.2894 29.051 13.981 45.926 49.022 49.023 30.71 111.88-8.9192 111.88-8.9192s24.397 19.802 79.566 30.625l-0.9446 21.309c-0.2747 6.1981-62.051-6.5974-75.347-18.964 0 0-46.087 15.339-46.084 18.14 0.012 11.94 121.67 124.08 121.67 124.08l0.6852 27.652c-18.24-25.261-160.94-146.68-160.94-146.68 31.638 184.73-43.931 299.77-200.77 361.99zm-204.14-36.154-2.7377-108.79 103.97 1.2299 4.2763 109.92zm-475.7-117.62c2.7766-3.86-4.0465-202.76-3.6143-202.76 66.168-65.498 130.89-102.11 195.78-141.93 29.341 28.916 54.278 53.312 75.893 88.341l-89.519 54.863c3.3999 13.371-5.4285 18.19 52.281 70.246 0.972-3.5639 19.985-14.16 23.305 1.6917-7.8151 33.46 3.4692 61.906 4.954 79.893-7.8828 10.54-25.497-0.77514-25.497-0.77514-11.402-11.824-56.071 46.552-68.826 53.076-55.646-2.0664-167.87 1.6908-164.75-2.6497zm626.3-354.67c0.7281-0.70972 56.591 0.42803 55.844 2.4225-10.176 27.152-35.442 75.353-58.561 130.97-26.641 47.402-63.596 75.322-95.149 106.39-25.226 24.835-47.712 63.967-64.944 53.812-10.52-33.642-12.95-63.48-24.549-100.75-5.3132-22.084 26.939-36.472 187.36-192.83zm244.5-186.49c20.463 8.6878 77.954 4.1405 87.077 0.23256 11.693 7.8957 4.3924 18.427 2.9154 24.272 12.003 15.123 18.576 20.487 4.9444 44.868-3.1124-0.00047 41.902 100.89 43.11 100.96 0 0-47.572-22.474-64.351-37.654l-32.814 43.435-38.123-49.044c-0.1374 4.4257-73.454 52.851-74.342 50.515-2.3036-2.3036 66.954-76.523 53.214-120.1-3.3114-10.502 4.2685-21.173 9.4471-30.425 3.5544-6.3498-1.2257-18.624 8.9216-27.064zm-38.057-9.04c3.105-3.5485-17.78-94.778 4.8591-131.6 9.5891-13.39 26.933-14.073 34.18-3.113 5.5434 15.245-10.963 36.466-14.275 46.83-10.736 28.877 5.2061 66.969-2.5758 94.257-23.301 59.61-64.574-5.8646-22.188-6.3756zm155.12-40.515c-12.283 0.53412-3.7082-36.008-1.6828-46.474-0.054-2.0729 22.481-7.3072 30.602 7.0622 13.109 21.479-2.65 48.571-28.919 39.412zm-146.47-184.23-115.7 140.09c-116.99-13.408-234.39-21.923-354.01-3.6959l-96.207-133.62z" transform="translate(-3885.2 204.78)" fill="#e2cf00"/>
   <path d="m2140.9-217.94-1070.4 3.3125 11.75 1699.2 1068-6.3125zm-246.28 10.406c11.74 0.003 23.481 0.0316 35.219 0.0625l-128.1 156.97-3.1525 1.0512c8.5407 24.907 20.73 55.96 32.371 79.543 18.54 38.115 65.13 108.16 36.062 164.19-2.8494 4.8019-5.4971 7.1418-9.0625 7.125-4.9393-0.0233-4.8466-2.911-1.9062-8.5312 6.4755-12.379 10.866-41.722 8.2812-57.25-1.6505-9.9112-7.1802-25.188-17.688-48.281-48.702-89.549-63.919-137.28-61.156-137.28-0.6369-0.4044-1.725-0.95439-3.5-1.375l-4.783-1.583c16.876 56.608 44.301 104.2 66.002 148.27 17.802 40.955 19.713 56.845 10.406 86.656-3.6034 11.544-10.122 18.937-16.531 18.906-4.8008-0.0227-4.5259-0.98657-1.25-6.8438 17.056-30.496 13.113-63.78-8.0938-102.5-30.798-63.952-49.278-104.41-60.25-145.44-0.2747-0.01604-5.6197-1.8026-7.5429-2.2607 9.1354 42.705 34.661 91.956 58.418 142.35 19.644 38.81 25.303 67.096 18.219 89.438-2.3204 9.6843-9.7284 24.107-19.094 24.531-3.6612-0.0173-4.24-1.921-0.7812-6.9062 14.557-24.858 17.141-47.781-8.9062-99.969-23.9-47.992-48-101.69-56.2-148.6-0.5202-3.8488-10.931-8.4103-8.6874-2.0312 12.853 55.411 38.463 112.15 65.656 167.47 15.31 34.34 16.895 56.318 5.4062 75.531-6.4231 10.743-8.0586 13.187-12.875 13.29-5.6911 0.12231-5.5896 0.33408-2.4482-6.1982 13.89-28.881 11.609-54.324-6.958-96.061-25.461-57.234-46.905-104.6-56.062-154.97-1.6438-0.46971-10.265-3.8018-9.0313-1.2812 12.733 47.985 29.03 92.52 50.031 137.56 7.3136 15.626 19.172 46.02 23 61.25 7.2592 28.994-9.1108 68.805-30.531 70.812-7.9866 0.74859-6.992-3.2182 1.9063-11.469 15.323-14.208 18.293-36.866 13.094-63.156-3.9053-20.241-10.631-41.961-19.875-64.031-18.694-44.633-39.036-91.333-45.469-132.53 0.2088-3.6907-8.3538-3.7015-5.9375 0.15625 4.6217 28.967 15.663 61.957 27.75 92.594 13.226 33.522 32.908 71.082 39.354 112.22 5.2736 33.661-15.799 65.436-41.369 67.335-30.796 2.2873-36.86-28.096-29.453-42.339 12.083-21.263 47.185-9.1177 36.75 12.625-6.0065 12.516-24.344 9.2291-23.562-4.5-0.212-1.2486 1.7585-5.0143 1.4062-5.2188-0.6369-0.36908-3.326 2.0891-4.1875 3.625-6.2323 11.115 12.489 26.028 25.5 17.094 43.603-23.547 14.157-95.352-4.8437-139.22-18.403-40.869-31.896-77.801-37.75-115.62-1.5909-1.1023-8.7886-2.9234-7.7813-1.625 5.2792 20.191 7.7163 37.221 12.969 54.188 8.2375 26.607 23.011 56.387 35.063 86.219 10.95 29.358 21.945 54.297 16.937 84.906-0.4676 2.8261-1.6273 6.2198-3.5624 8.2812-1.9587 2.048-3.5765 1.7315-4.1563-6.0625-0.1994-1.0617-1.5746-2.4608-1.7813-3.8125 1.0709-11.499 0.289-22.9-2.6874-33.719-2.549-9.0585-7.4056-18.307-17.656-35.906-4.0418-6.5543-14.62-26.59-10.91-12.744 2.1319 7.8314 9.3904 25.234 16.942 37.838 4.6872 7.8239 9.6163 29.186 8.1562 33.312-1.54 4.035-5.1151 4.265-6.7812 2.875-1.4991-1.2504-1.4899-6.9673-1.875-10.5-1.5832-14.513-16.479-39.84-26.813-49.781-7.4217-8.262 17.486 35.125 19.313 46.688 0.7733 4.8975 2.3014 8.8789 0.625 11.281-1.1039 1.5816-3.3418 1.5917-5.5313 1.0312-2.1068-0.53947-2.0171-1.9897-4.25-9.4375-3.8211-12.746-8.5441-19.166-18.344-30.656-3.358-3.9368-5.6005 0.98815-0.25 7.375 7.3997 11.653 12.96 19.101 14.844 34.094-4.7948 6.7913-7.1549 5.4711-17.188-11.719-6.6271-11.355-10.605-14.271-12.344-14.188-4.3965 0.21067-0.2461 5.6352 12.094 25.031 6.3915 10.351 6.5459 16.784-0.7188 16.75-2.4631-0.0116-16.262-15.154-19.719-21.719-2.8676-5.447-6.4258-9.6244-6.4375-2.9688 0 2.6442 8.545 16.576 14.406 23.344 9.2388 10.667 11.886 12.808 13.063 17.531 0.5609 2.2527 1.6782 6.1877 2.4687 8.75 2.3687 7.6767 1.1668 9.869-3.625 5.8125-2.1657-5.687-3.9258-6.2768-9.875-10.656-5.0146-3.6915-11.973-13.254-16.531-20-1.7207-2.5462-3.2029-5.7769-4.9608-8.373-4.4775-8.3421-10.424-9.0648-6.12-0.64931 2.0367 3.9023 5.3356 10.306 8.7996 15.054 5.8051 8.2382 4.6041 12.533-2.2812 12.5-2.9456-0.0139-11.192-10.791-16.344-19.219-3.3601-5.4955-8.6117-9.3828-7.9688-3.9375 0.1601 1.3533 4.2203 11.011 10.313 18.562 6.6175 8.2029 7.4853 12.562 1.0624 12.531-4.3837-0.0207-8.1589-4.1904-13.75-12.688-5.3113-8.0724-8.6245-10.918-10.125-10-1.9037 1.1642 7.6173 17.168 15.438 25.906 7.3968 8.2658 1.9718 12.973-6.5313 5.625-4.6129-3.9866-13.848-15.88-16.438-21.531-4.6315-10.105-7.6151-7.347-4.625 0.65625 3.297 8.8263 8.4397 18.478 14.656 24.75 3.2568 3.2851 9.9731 5.8611 13.25 8.6875 9.2842 8.0071 15.165 15.397 14.406 16.719-26.474 1.4896-48.208-26.67-54.156-43.719-4.2239-11.21-9.0441-12.861-4.4687 2.9688 12.908 39.325 53.146 59.751 80.969 42.125 16.79-10.637 1.9578-38.333-11.781-29.406-3.7329 2.4252-3.902 9.3022 0.8438 5.625 8.9231-6.9142 17.896 10.141 8.1562 15.188-13.69 7.0931-28.878-6.7918-19.562-23.625 9.203-17.285 46.091-7.3904 38.875 20.531-4.3739 12.532-23.525 28.192-39.938 28.5-30.504 0.57321-51.569-22.736-63.312-45.75-1.5037-2.9624-4.2021-8.7814-6.4326-13.53-1.9276-4.1037-3.4543-7.1503-3.6096-7.1194 3.3943 27.947 30.181 62.499 54.167 68.211 39.859 9.3378 50.763-14.34 76.844-38.812 0 0 19.052 2.4699 19.719 2.0625 1.7563-1.0742 37.075-2.6467 38.125-1.6562-142.69 257.84-131.83 563.94-9.125 796.28 8.1135 17.001 9.5301 13.778-3.9062 10.312-13.882-3.6077-26.472 1.9381-37.75-0.6562-23.325-4.749-28.296 11.12-46.219 19.594-22.358 8.4172-17.298 23.906-22.625 38.875-1.6786 2.3188-2.8968 4.2158-1.9797 3.9098 1.4793-0.4936 6.2465-4.8869 6.6047-8.7536 0.9177-9.9076 4.4634-17.743 8.5-21.688 3.8481-3.759 6.5382-5.6563 7.4688-4.0313 0.7264 1.2701 0.1812 5.7026-1.7188 9.2813-5.4221 10.213 1.7697 44.364 2.2186 20.056 0.3562-19.289 12.089-40.802 28.5-49.603 13.14-6.4095 17.211-5.7546 6.5178 4.1107-12.155 12.911-20.417 27.954-20.904 46.677-0.2021 7.7658 2.894 14.24 4 7.2813-0.4673-35.654 35.276-75.361 73.604-55.625 1.9097 1.3733 3.5243 3.961 2.9581 5.4161-37.119-6.2042-69.416 14.006-64.657 61.863 0 0 3.3314-9.3764 5.2001-18.738 5.8491-29.304 39.109-42.127 62.438-34.094 4.3874 1.839 7.8336 8.0133 7.2188 8.8438-28.528-8.9236-59.841 17.948-61.656 47.062-0.5904 9.4686-0.3656 17.585 4.5 0.5 18.422-64.686 75.256-35.367 68.271-30.064-43.987-5.2306-59.909 24.267-58.896 58.376 0.6311 3.1159 2.2373 4.1594 3.5625 7.0625 5.8635 12.852 8.5286 23.867 9 47.188-0.4458 6.0075 4.5351 44.252-0.4876 42.639-15.978-5.8873-28.118-12.841-55.804-0.4322-2.4923 0.1326-3.3077-1.2373-2.4536-3.3902 1.1495-2.8954 5.4787-8.6158 13.026-17.072 17.005-18.066 7.2371-13.224-6.7446-0.6928-9.0295 8.092-7.0653 2.5605 1.4374-25.073 3.4472-11.205 1.3005-12.561-13.536-20.072-15.27-7.7299-25.836-8.9104-12.875-0.8124 5.0825 3.096 10.504 6.3467 16.27 8.6402 6.7599 3.681 5.9881 5.2264 1 21.375-9.6906 31.367-13.058 42.826-12.551 63.922 1.2341 51.313 50.301 46.221 78.233 34.683l1.1614 33.784 105.2 147.66s-367.73-0.379-564.47 2.843c11.237-26.885 130.17-140.76 137.25-161.12 0.6783 0.097-13.185-41.63-20.469-59.781-34.397-85.718-79.612-121.75-53.427-178.07 5.634-11.161 6.6123-14.924 10.896-14.904 5.8092 0.026 7.6704 3.8735 1.1339 14.793-28.113 46.981 31.869 128.04 52.135 179.75 3.2469 8.2836 16.823 47.081 19.208 60.146 0.2281 3.9928 9.7486 5.3535 7.0839 0.6884-7.4703-26.419-16.851-55.27-21.208-65.656-16.016-38.174-32.866-64.221-48.478-101.53-8.7259-23.576-13.367-50.809 0.1652-75.251 4.9269-8.8993 6.3337-13.847 9.5848-14.312 2.7999 0.013 4.4442 0.9611 4.625 3.25 0.1977 2.4993-1.3494 6.5978-5.0312 12.844-23.635 40.094 18.373 104.87 39.188 151.06 13.569 30.113 25.636 61.782 29.906 90.344 0.061 1.9728 2.6754 7.2007 7.8839 3.6348-9.0034-53.354-35.466-105.09-58.646-154.94-19.8-38.941-27.231-72.887-0.7691-104.95 2.3026-2.2136 7.241-1.8473 7.5937 1.4375 0.1873 2.2283-1.5192 6.4532-5.6562 15-23.315 48.584 12.783 88.048 29.719 134.38 16.522 38.73 31.888 71.265 38.062 112.53 4.6732 1.7671 6.986 3.9813 7.4866-1.8637-12.083-58.315-38.136-110.73-60.737-161.23-10.442-21.94-14.136-32.461-14.844-47.156-0.9738-20.209 9.231-45.778 18.384-52.521 2.3729-1.7481 3.855-2.0585 6.0224-0.8857 2.9696 1.6078 2.3729 2.6793-3.5 13.75-11.219 21.148-12.184 44.905-1.7813 70.031 17.966 38.587 33.101 70.258 43.827 98.627 11.733 31.033 18.33 57.977 20.993 82.299 0 0 7.9923 3.5387 6.8037-1.7518-4.9861-34.027-16.262-69.339-28.437-99.216-11.491-28.2-25.89-55.343-37.562-83.302-14.151-33.53-2.431-70.182 26.592-88.49l13.354 0.292c-0.7771-0.3495-30.453 11.395-32.008 53.667-1.4818 40.282 17.659 65.038 31.5 99.156 16.874 41.153 31.973 77.24 35.562 121.22 1.3219 1.5315 8.6317 1.858 8.5089 1.2098-3.5931-29.584-12.258-57.704-24.634-92.272-13.152-36.734-26.233-53.025-38.438-91.594-8.2576-26.095-7.1453-61.44 11.25-77.594 27.528-27.723 65.94-7.9823 56.312 23.75-7.4251 22.335-38.115 17.894-37.949-3.0323-0.039-13.514 16.648-17.167 22.168-6.9677 1.2865 1.9855 2.1466 10.676 2.7188 11 0.5734 0.3241 2.3025-6.8367 2.3125-8.4376 0.052-11.1-15.059-20.448-26.312-14.812-15.409 7.7171-25.42 25.463-24.406 49.219 1.0773 25.267 5.6718 41.613 26.414 81.237 24.166 46.164 32.186 96.155 37.344 129.84 2.2281-0.9323 4.907 0.2623 5.7733 0-3.5221-45.924-18.659-93.094-37.542-132.31-22.872-47.494-29.276-76.555-21.646-97.834 1.1216-3.1287 2.1841-5.4809 3.5625-5.6875 2.5568-0.3822 3.3476 3.6956 5.7188 12.219 0.7273 2.6153-0.191 6.7315-0.7188 9.9063-1.9921 19.482 11.703 59.993 24.438 78 3.7282 5.1332 8.492 4.9592 4.375-4.1563-13.118-23.54-21.107-44.88-22.156-73.5-0.3084-8.4127 9.5192-4.6336 9.7394-0.4151 0.7126 13.668 2.0817 29.769 8.6356 41.228 13.302 22.675 20.706 23.663 7.0938-1.6563-3.0222-5.8756-11.672-30.712-8.1875-39.25 1.9415-1.7401 4.3017-2.0521 5.4687-0.3125 3.8494 14.038 9.1758 27.938 18.594 38.75 4.9394 5.6284 5.7515 3.0862 3.1562-3.9375-4.3358-8.1285-17.904-35.312-11.656-41.438 2.0154-1.6576 0.8327-0.7584 6.3125 8.1562 7.6297 12.413 11.791 17.278 15.5 20.906 4.9328 4.827 6.1297 1.5799 1.0313-6.9063-10.182-16.946-15.976-31.027-12.397-34.572 3.5336-3.5 4.3893-1.8786 12.429 11.76 3.5783 6.0702 8.7588 15.012 10.531 17.125 1.7595 2.096 3.3703 2.6417 3.4063 0.9062-1.8768-16.458-16.068-35.236-21.781-38.5-0.8223-1.5299-0.5312-14.531-0.5312-14.531 21.321 10.939 22.19 23.277 36.312 42.281 1.4519 1.414 3.5254-0.3125 2.9063-2.9375-0.4964-3.5594-8.854-19.368-14.094-26.312-4.1229-5.4529-4.3091-8.5833-0.8125-10.156 5.6492-2.5417 13.535 5.8185 21.938 20.75 3.899 6.9288 9.108 10.947 9.125 7.3124 0.01-2.0018-7.2426-19.867-12.25-25.031-8.3377-8.5991-4.2158-14.613 5.4375-6.6562 4.3825 3.6118 10.319 6.3256 16.438 19.469 3.5726 7.6757 6.641 8.6572 6.6562 2.5313 0.018-6.8797-11.6-23.693-19.406-28.344-6.0486-3.6051-9.4818-7.6277-7.7812-10.312 5.2992-7.7575 26.742 12.032 34.062 30.438 2.1608 5.4326 5.945 8.2038 6.875 5.8125 1.6449-1.2165-2.6978-14.481-7.1562-20.625-7.3605-14.043-24.755-27.606-35.062-25.969-1.9932 0.3165-7.4687-11.188-7.4687-11.188 26.293-4.2271 51.832 27.116 56.375 38.844 8.6225 22.257 13.007 19.645 5.4687 0.125-14.732-38.148-60.507-59.517-85.906-41.062-14.466 10.51-5.8138 35.645 9.0632 31.381 5.9164-2.2072 11.645-8.2083 1.2431-6.2295-11.571 1.1526-15.261-16.386-3.4625-19.902 18.982-5.6566 23.332 24.45 8 31.156-15.908 6.7887-31.74-3.3366-30.25-20.719 2.8172-32.859 43.371-42.359 83.406-15.781 11.259 7.4745 25.114 31.846 29.875 47.281 1.5747 5.1041 6.8768 6.8883 7.5263 6.2446 1.5213-1.5069-11.117-28.631-15.276-35.526-17.433-39.732-80.46-41.696-80.46-39.641 0 0-24.685 15.461-46.611 40.942l-56.332-5.1627c143.52-229.41 154.8-566.7 7.591-805.48 1.8829 1.2104 28.299 8.01 37.406 0.875 6.7182-3.2023 8.6452-4.311 16.062-1.6562 8.3525 2.9895 17.153 0.34431 26.25-7.9375 6.8542-6.2402 6.9903-8.1635 11.406-7.5938 13.069 1.6862 21.745-5.9266 24.437-24.688 1.0578-7.37 1.7835-15.026 0.7188-13.906-0.6181 0.65023-2.1331 7.0266-3.0938 11.031-2.6434 11.023-5.0923 15.061-9.4062 18.656-7.1079 5.9237-11.216 2.6098-8.25-6.375 2.8072-5.7986 5.1439-20.716 1.2812-27.5-0.6746-1.2194-0.8369 3.3982-1.8124 7.0938-7.7597 29.396-15.888 44.32-29.95 47.764-6.5997 1.6165-9.6531 0.61553-7.5185-3.1687 24.808-26.309 23.153-55.464 21.281-52.971-5.2706 16.869-15.069 42.009-31.156 52.344-13.892 8.9237-34.241 9.7751-45.562 2.2812-6.4263-4.2544 3.2842-5.5137 17.833-5.709 24.506-0.32891 47.408-32.897 43.604-60.354-0.895-5.0735-2.2905 0.37245-4.2812 8.7188-9.0398 29.732-24.548 50.604-59.969 44.375-2.7681-0.48683-4.6168-2.303-6.125-3.3438-5.7674-3.9798-3.6423-6.7072 7.8125-5.2188 25.623 3.3296 47.918-20.576 47.781-49.469-0.066-13.863-2.063-13.7-4.2813-3.375-3.1174 14.557-14.499 59.207-55.938 44.625-7.4619-4.0276-11.533-9.1792-8.875-9.9375 24.168 4.8513 46.315-0.4357 54.922-32.032 3.7162-13.642 2.823-26.962-0.9531-38.124-1.2015-7.5814-3.7622-13.361-4.625-21.062-2.3121-20.633-5.6201-43.419-4.625-66 1.9826-1.9642 2.3266-1.5352 9.2812 3.0625 13.657 9.0287 23.989 6.9476 37.875 1.5938 17.867-6.4231 16.246-5.2616-2.4375 15.75-3.8957 4.3816-7.8345 9.7295-8.2813 10.562-4.7572 8.8667 4.1622 2.3567 10.844-6 9.2853-11.613 11.231-14.29 13.062-14.281 0.6194 12.553-3.9263 27.809-6.2813 38.094-3.0867 11.409-3.0472 14.041 4.25 16.969 3.1628 1.2687 9.2653 3.7622 12.656 5.375 15.281 7.2674 13.873 1.3526 1.6875-5.5-16.454-9.2524-16.588-8.7874-11.875-24.156 5.5162-18.024 8.2305-33.63 11.219-51.469 7.3892-44.11-26.037-68.373-70.438-52.969-2.5391 1.2724-5.4772-23.186-5.0624-29.656 0.3896-2.3349-6.7127-1.8239-12.531-8.9375 1.7763-1.5785-65.466-85.449-96.781-136.31 175.58-0.21704 351.96-3.1655 528.06-3.125zm-109.2 157.59c0.4312 0.27356 0.6876 0.5 0.6876 0.5-0.2892-0.34032-0.5227-0.50006-0.6876-0.5zm152.19-153.59h188.31l2.7188 405.62-16.688 0.40625s-31.436-53.844-39.719-79.281c-2.069-6.3538-5.6855-15.098-7.0938-18.531-3.1967-7.7817-5.4341-8.7448-1.1875-13.5 8.5058-9.5225 6.8293-28.782-1.4375-38.062-2.5566-3.0127-3.8797-1.9931-3.75-9.3125 0.1111-6.2942 0.7034-10.317-0.9688-13.562-2.7943-5.4233-4.6864-5.8083-0.6874-11.781 4.1866-6.2544 9.7477-16.405 12.094-24.375 3.7882-12.869 1.1217-15.276 9.5625-12.25 21.189 6.7181 38.932-8.3363 38.38-29.616-0.4648-17.908-17.287-33.873-36.849-28.978-4.5095 1.1283-5.4015 0.74356-12.344-3.5938-1.9897-1.2432-5.0213-3.8687-7.5937-4.8438-3.2217-1.2211-5.8822-1.1163-7.2188-3.4062-2.6254-4.4983-10.809-11.646-20.781-11.188-6.0886 0.28019-13.997-1.9086-16.094-3-3.4719-1.8072-13.228-0.33686-25.625-2.1875-5.5111-0.8227-9.9539 1.312-12.625 1.3438-7.6319 0.0909-4.5193-0.84885-5.9688-6.625-9.5663-30.115-37.508-26.526-50.312-3.875-4.6993 8.8871-8.1023 22.074-9.875 35.688l-75.25-1.125zm-582.38 0.875c28.11 35.609 55.006 75.521 83.344 111.88 34.872 44.031 36.024 49.093 26.656 93.406-5.2379 25.045-7.4819 30.83-18.094 28.938-9.9622-1.7769-18.392 6.0262-19.75 15.906-2.5499 18.548 15.401 29.966 33.438 20.688 9.5101-4.8922 9.8255-5.4209 6.6563 10.75-4.5407 23.17-13.643 43.121-19.5 42.469-15.119-31.96-51.904-9.2204-39.69 24.006-3.8236 5.8003 1.201 13.152 3.1232 19.227 0 0 0.079 0.72025-20.933 7.6416-103.17 30.415-230.95 109.81-300.72 184.34l-4.7-557.73zm592 76.094c4.3273-0.10996 8.498 1.2658 11.937 4.3438 8.9955 8.049 6.8823 19.294-5.5624 40.469-13.055 29.5-9.4911 52.742-6.5 83.719-0.085 17.988-6.1851 35.08-15.906 42.469-15.752 11.974-35.172-4.0618-27-20.312 4.183-8.0737 13.068-3.366 15.156-11 0.747-4.5662 0.6643-11.752 1.1562-15.156-1.8763-13.581-5.7664-55-5.7812-69.375 0.1657-12.386 4.2401-27.938 9.875-39.594 5.5045-9.7154 14.363-15.353 22.625-15.562zm24.807 48.134c-3.5706 2.9635-9.5267 3.0271-10.223-0.67678 0.018-3.8777 3.0606-16.248 5.1662-17.613 12.901-3.0054 8.7916 15.09 5.0571 18.29zm19.287-19.29c10.658-0.41608 17.685 26.757 8.4375 42.656-1.7591 0.32904-14.686 0.24547-14.75 0.5-0.2169-2.8438 0.6291-8.5105 1.5938-13.938 0.8253-4.6439 1.3074-8.1692-0.094-13.156-3.4979-12.448-5.7761-14.787 4.8125-16.062zm20.312 0.375c0.3876-0.01087 0.809-0.0021 1.25 0 10.825 0.05116 16.988 20.89 13.594 43.656-0.4875 3.2694-0.7682 6.6996-1.9688 7.4688-4.5239-1.2221-17.088 3.2434-17.308 3.208-1.185-1.2036-0.7033-7.679 0.9019-13.521 2.9682-10.801 3.7964-17.99 0.3124-29.156-2.5015-9.655-2.5945-11.493 3.2188-11.656zm26.969 6c11.895 1.9924 12.668 34.834 7.7812 45.5-1.1659 1.5737-5.6513 1.1938-7.25 1.7812-10.112 2.8879-7.861 4.3918-6.6875-11.656 0.8062-11.01 0.9982-19.564-0.6563-28.656-0.8046-3.989-1.1281-6.7672 1.7813-7.0312 1.6877-0.33807 3.4872-0.2816 5.0313 0.0625zm-59.4 12.851c4.7348 6.4716 0.9252 21.449-2.6885 27.01-4.1272 6.136-5.7827 6.6446-3.5303 9.3339 0.9537 1.1384 2.9434 6.9389 1.7188 9.375-2.2675 4.5088 3.553 5.3179 8.8438 8.0625 8.5789 4.4769 12.742 12.729 19.147 27.75 2.2309 5.233 6.8113 3.5834 4.591-2.0501-1.9015-4.8248-2.6417-11.927-3.9571-16.669-1.3709-4.8674 0.1314-7.3043 5.7643-5.8759 8.4675 2.1471 7.2982 0.13594 10.392-0.99908 6.7943-3.7511 11.354 1.559 7.25 4.5-2.3561 1.6886-7.3794 2.7128-12.943 4.2384-4.7212 1.2944-3.625 5.8325 1.125 5.8125 4.3845-0.01845 16.958-3.5411 25.162-6.0196 23.506-7.1014 24.296-10.878 22.094 2.4688-2.8995 17.654-12.551 30.895-28.5 35.375-13.884 3.8996-45.938 3.1514-60.219-1.4062-13.561-6.1333-14.46-10.42-18.562-22.344-5.614-16.318-8.9206-43.943-2.4687-60 5.6807-13.556 5.1106-12.133 10.562-11.45 4.8472 1.6889 11.366-0.18917 12.813-3.1562 0.7309-1.4139 2.5771-4.0012 3.4062-3.9562zm90.031 9.7812c1.3394 7.2602 1.463 14.724-1.0624 20.344-1.4615 2.6358-9.6945 2.4942-12.875 2.5312-1.8829 0.43971-1.7383-24.533 0.2812-27.25 4.788-7.1718 10.975-1.4079 13.656 4.375zm-238.53-4.3125 23.281 0.28125v5.6562l-27.469-0.1875zm81.469 0.96875 0.031 7.3438-35.062 0.0625v46l39.219 0.125 0.2188 9.5625-52.5-0.1875 0.1562-62.875 47.938-0.03125zm178.22-1.4688c35.945 7.8914 19.908 47.595 6.4375 50-16.795 2.9983-31.031 1.1079-26.375-13.656 4.6707-10.005 1.43-22.468 2.75-31.562 3.2406-2.9986 11.7-5.9859 17.188-4.7812zm-271 13.938 34.594 0.34375v7.5938l-39.5-0.094zm76.844 7c5.523 0 10 4.4772 10 10s-4.477 10-10 10c-5.5227 0-10-4.4772-10-10s4.4773-10 10-10zm97.594 3.9688c6.4354 0.70348 6.9872 10.544 4.3687 13.421-3.3727 3.3408-9.6688 1.9154-11.588-3.2027-1.7311-4.6194 2.1426-10.419 7.2188-10.219zm-184.09 4.2812 44.25 0.125v6.1562l-44.687 0.375-1.1876-3.9688zm249.09 2.6562c6.1358-0.14544 9.8968 5.0144 6.0625 9.4062-5.7779 6.4122-17.562-3.4004-6.0625-9.4062zm-471.52 13.447c-9.9001 8.355-1.9677 16.569 11.188 8.6562 28.296-17.021 70.034-3.5305 97.242 10.646 5.3298 2.7294 6.0612-3.6335 0.8126-8.0312-25.129-22.121-78.702-34.806-109.24-11.271zm428.78-11.63c6.9103 0.03266 6.8121 8.6422 2.375 11.719-4.4366 1.9239-5.208 1.3862-8.1554 0.23928-4.0413-1.5726-1.0235-11.923 5.7804-11.958zm24.48 0.13036c8.1913 0.40426 7.2808 16.881-5.0937 10.938-4.4843-4.8183-1.5756-10.969 5.0937-10.938zm-228.71 8.4902 43 0.375v7l-40.219-0.40625zm-277.9 16.47c11.751 9.321 8.1073 9.889-11.375 3.0312-12.73-2.8372-25.403-1.0262-33.375 2.125-9.4303 3.7276-11.614 2.6521-7.5312-3.6562 10.968-12.304 41.193-9.8197 52.281-1.5zm56.5 15.438c-1.1825 2.9079-5.2051-2.328-10.656-1.3125-7.7781 1.449-5.5288 1.8148 2.6874 11.156 8.2226 9.3479 10.908 11.559 10.406 15.156-0.7381 5.299 0.7518 8.2102 6.0313 7.625 2.5382-0.28135 5.5515 2.6554 9.4374 6.1875 13.452 12.225 20.252 18.3 24.625 20.188 17.816 7.6876 9.7929-0.98573-1.5937-8.8438-18.981-13.099-25.579-21.829-12.094-17.156 14.329 4.9649 37.123 2.1487 48.344-4.6161 5.5255-3.3314 9.0222-8.4378 16.812-5.9464 10.941 3.4997 15.129-2.9489 12.094-6.5625-4.9647-3.1843-16.304-6.9834-27.063-14.219-23.033-11.683-47.245-11.338-63.375-1.9375-9.5078 5.5413-12.818 1.646-3.5-3.8438 37.388-20.151 66.969-0.85044 90.906 13.625 4.147 2.5183 7.0512 2.3134 7.0625 0.53125-0.6335-5.8487-11.284-9.4398-15.594-12.062-33.347-20.293-68.396-26.764-94.531 2.0312zm227.03-17.844 37.375 0.03125v7.375l-34.625-0.15625zm-304.09 9.4062c10.351-0.048963 32.873 9.2412 32.5 16.938-0.4328 2.9234-6.0724 0.3026-10.969-2.6875-9.4692-5.7824-24.005-7.3311-37.688-4.7812-10.505 1.9577-13.847 3.6917-15.344 2.4375-3.6319-8.1548 21.891-11.861 31.5-11.906zm404.12 5.5 0.062 13.219c-20.29 1.4798-24.464 24.02-11.448 36.573 10.673 10.294 28.306 6.2342 37.17-8.3545 1.5495-2.5952 1.7341-4.1613 2.6839-2.875 0.5951 0.8056 1.1082 3.2619 1.5938 5.6562 1.4056 6.9371-0.5901 8.7149-5.1875 14.656-7.4292 9.6033-8.4402 21.708-3.7813 30.719 1.2826 2.4811 3.9636 6.0221 3.5 7.6562 2.5981-0.07924-23.036 71.654-60.483 107.8-6.2682 4.1669-10.812-0.73186-7.5793-7.4571 30.503-69.705-27.856-134.46-50.5-196.75l93.969-0.84375zm-271.1 12.031 5.4 0.469c-4.3 32.113-35.5 26.943-36.7 0.781l4.5-0.15625c6.0733 24.335 26.912 14.37 26.844-1.0938zm-176.03 0.65625s2.2488 3.586 2.25 5.5938c0 7.4728-0.1211 18.284-0.3125 21.562-1.804 30.901-41.014 36.628-38.031 10.188 2.3343-11.226 16.514-12.467 20-2.3125 5.0894 12.775 5.9968-3.076 6.0626-8.0312 4.1534-7.7855 7.1962-17.237 10.031-27zm188.94 2.1875c1.607 0.04113 4.4883 1.4446 6.75 3.875 2.5798 2.7719 1.6182 4.1519-4.4063 7.25-6.5193 3.3532-9.4716 3.064-7.125-3.7188 1.4575-4.2115 2.7152-7.4591 4.7813-7.4062zm293.31 1.625c0.8863 0.03812 3.1553 1.2077 2.625 4.5625-0.886 5.6052-5.733 8.7908-7 7.4688 0.8087-2.9568 1.7812-10.861 4.375-12.031zm-340.1 10.843c-0.7696 2.268-2.1093 1.2824-5.5312-1.625-3.7739-3.206-3.577-5.2551 0.3119-7.5625 5.5863-3.3669 5.9289 7.0966 5.2193 9.1875zm-118.72-8.375c6.5419 20.676 19.88 18.048 25.844 1l5.7188-0.09375c-1.2597 26.621-34.959 26.148-35.25 0.40625zm-11.812 2.5625c1.9943-0.31481 0.5624 6.5938 0.5624 6.5938s-5.5332-2.855-2.2812-5.875c0.4065-0.3775 1.4335-0.67378 1.7188-0.71875zm49.5 1.75c0.6832-0.04219 1.9764 0.48043 3.375 1.4062 3.276 2.1689 2.7118 3.443-1.0313 6.5625-5.7619 4.8019-8.3615 2.1343-5.25-4.3125 1.1586-2.3999 2.0274-3.602 2.9063-3.6562zm430.41 4.5c2.4328-0.15069 5.8534 0.95188 13.094 2.875 19.943 5.2971 46.634 5.1035 69.344-1.1562 7.1726-1.977 12.497 10.605 8.625 19.75-1.71 4.04-1.4081 4.5424 3.8125 9.9688 7.4054 7.6994 8.5936 20.105 2.9688 31.406-4.0937 8.2252-3.8215 7.489 1.0312 21.531 2.2201 6.4252 5.0819 12.98 5.5938 14.75 6.1322 20.694 21.26 45.14 30.5 65.594 9.2158 14.379-16.531 0.15625-16.531 0.15625s6.9188 9.2743 16.125 16.219c8.9251 6.7784 26.466 2.1909 34.5 10.438 1.8789 2.5943-1.8266 57.478-3.7187 59-79.3-3.7-211.5-0.79-211.5-0.79l24.781 38.625c38.983 15.574 76.257 11.675 111.91-10.75-0.8798 3.2261 43.375 24.865 79.719 27.219l0.2187 26c-26.965-3.0224-54.29-3.6457-79.344-19.406 0 0-23.027 9.6287-46.094 16.844l129.19 133.63 0.057 22.335s-55.15-51.473-111.91-109.5l1.2187 285.34 111.78 2.1875c-3.513 74.263-2.0955 121.48-1.3438 206.53-52.821 54.192-125.5 108.41-192.66 140.97-31.69-30.559-57.872-63.665-80.781-99.062-0.4845-0.74876 2.3121-2.1773 1.8294-2.9268-0.7006-1.0882-4.6706-1.4992-5.3919-2.5732-13.968-20.797-46.42-78.46-41.281-79.812 9.9308 0.68727 55.96-5.0078 65.125-32.594 0.075-1.75-0.9985-6.6683 0.25-12.438 3.2342-14.957 4.8945-37.658-0.5938-52.094-9.8917-26.017 19.867-17.679 20.875-15.938l-0.031-98.281c-38.721 31.045-77.794 61.597-129.56 74.375-32.197-162.3 18.863-364.15 164.44-501.03l-7.9822-0.68198c-149.57 154.75-188.79 324.93-163.27 504.15 0 0 0.9465 5.6027 1.0941 7.4952 0.3475 4.4592-0.7206 6.1598-4.6879 9.3798-3.7801 2.4838-7.2166 5.156-6.875 8.2188 0.6417 5.754-4.8911 5.9404-12.125 5.9062-3.333-2.9185-7.8184 0.76108-10.5 2.0938-3.7512 0.5559-5.6182-14.761-10.406-3.5312-1.8256 7.0885-5.2851 7.6187-13.281 4.0938-5.0252-1.4672-5.138 1.026-0.3125 6.8438 6.6717 7.1759 12.311 17.907 11.219 21.125-2.4497 7.2171-1.3858 14.487 8.8124 18.625-0.5804 0.0484-6.1569 22.008 9.6563 21.375 5.0311 0.0501 17.781 2.625 17.781 2.625 0.8277 4.1968-0.5198 6.5809-2.5 8.4375l-11-5.5-2.875 13.094-14.656-1.0312 35.656 44.031 4.1562-34.344 41.688 5.2812c6.6925 17.364 48.808 113.95 129.31 185.81 0 0-44.006 19.151-56.344 25.156l-7.6562-27.375-6.9062 9.9375-12.313-3.1562-1.4374 11.25-10.969 3.5312 19.125 14.438-49.156 14.946c-140.6-226.57-204.1-541.18-29.3-873.89l44.188 0.5625-8.625 14.75 12.562-2 3.5499 10.747 9.2207-4.3526 9.2784 11.624 10.553-31.05s31.306 0.70807 35.211 0.3125c3.0629-0.34608 66.169-53.291 64.812-55.312-0.9778-1.4576-68.723 48.053-71 46.156 0 0-6.7999 1.6192-1.5-4.7188 9.5135-11.377 16.221-20.029 25.875-36.375 15.95-21.706 23.117-48.188 26.875-66.125 0.061-1.2591 0.4072-4.1408-0.6562-6.25-6.0839-12.066-4.7401-19.949 6.1874-34.188 3.8254-4.984 4.0592-6.2193 2.9688-9.2812-2.4629-6.9128-0.097-12.826 4.9375-17.469 2.0004-1.8448 3.2952-2.7266 5.1875-2.8438zm-372.33 48.188c27.731 11.388 5.4608 36.611-15.135 14.624-10.793-11.522-19.317-10.789-25.187-2.375-2.6468 3.7938 1.2035 10.458 4.625 8.3438 3.1741-1.9614 6.4376-4.2893 11.062-0.03125 35.072 32.292 60.256-12.912 30.031-24.156-3.7387-1.721-9.0527 2.0932-5.3964 3.5947zm-114.23-1.0947c0.2619-0.01377 0.5677 0.12432 0.9687 0.375 1.3137 0.82044 1.4103 12.231 0.094 17.031-4.3804 24.314-21.716 80.811-57.281 53.156-14.122-10.981-1.2757-38.556 15.625-29.188 13.198 7.3158 4.2903 24.771-10 14.75-6.9357-4.8638-4.7363 5.1667 1.125 8.0312 9.9323 5.1959 27.913-3.7025 36.344-19.562 3.3624-6.3245 6.5157-17.499 10.062-33.594 1.7833-8.0942 1.9285-10.94 3.0625-11zm3 42.094c2.9294 17.578-10.453 48.363-29.5 52.906-14.581 3.4779-32.607-6.0213-31.312-14.812 0.3757-2.5535 1.4171 0.8184 14.625 3 18.448 3.047 30.19-6.9091 40.812-29.844 3.3534-7.2388 4.7873-11.088 5.375-11.25zm45.906 8.4062c-0.01 1.985-0.954 7.2194-1.7813 10.688-1.9654 8.2392-3.199 11.364 5.8125 7.2812 5.9565-2.7461 14.669-5.4698 23.688-0.46875 9.9447 5.5144 19.44 4.493 31.156-0.4688 10.174-3.3855 15.133-3.422 20.812-0.1562 10.369 5.9617 6.8075 2.1559 5.4688-12.875-0.9251-10.582-3.812-9.1895-7.5312-5.1875-2.4414 2.6268-7.3766 3.2032-12.875 0.25-6.5514-3.5188-15.67-1.8501-18.75 0.6563-3.0698 2.4979-7.5135 2.8413-13.531-1.2188-3.9861-2.6893-6.2081-1.2817-11.094 0.90625-8.0484 3.6044-11.134 1.6587-15.5-1.7188-3.9683-2.8962-5.8286-1.9844-5.875 2.3124zm-39.938 12.625c1.0499-0.01 1.1667 4.049 0.4376 12.219-3.3541 30.145-26.961 46.934-54.75 32.344-12.171-6.9449-10.519-11.846 1.4687-7.5 19.109 6.9271 38.406-2.7584 47.844-27.531 2.4196-6.351 4.0738-9.5225 5-9.5312zm67.813 21.5c13.737 5.6828 28.976 3.8778 32.851-1.159 4.3491-5.6533-2.3275-4.7233-5.8201-3.8723-12.026 2.8782-20.286 1.8279-25.156-0.34375-14.243-5.4988-13.343 0.46275-1.875 5.375zm-143.4 16.9c17.812 21.803 20.157 26.058 35.5 50.844 112.17 190.39 148.09 431.02 74.344 649.47-20.236 60.278-48.779 121.71-80.781 171.06l-38.406 0.4062 13.188-15.031-17.875 1.3125-1.0938-9.9375-13.562 4.375-6.5313-15-12.281 34.344-71.188 0.1874c166.73-162.02 199.57-358.37 168.47-516 0 0 13.936-8.7147 15.875-13.812 0.4708-1.2374 1.5094-6.4997 2.4688-7.2812 6.1964-4.0538 10.317-7.9926 13.375-7.2188 1.7589 0.44503 2.6626 1.2571 3.9375 3.125 5.8742 8.6065 7.1403 9.9511 10.344 1.2812 2.3029-6.2206 1.3128-8.4725 8.875-7.2812 4.4263 2.3504 10.318 2.2847 9.7813 1.4062-0.3995-0.6526-6.6778-8.0274-9.6563-12.219-7.0368-9.9036-9.0548-11.693-8.4062-16.031 0.9879-6.6086-4.275-13.74-7.5625-15.531 0.9482-17.804-5.8897-19.582-25.25-23.562-0.099-3.072 0.4243-5.5655 1.7813-8.3125l11.375 9.0625 4.125-16.812 15.437 0.84375-44.75-43.312c0.2242 12.218 0.802 24.572-0.3124 36.344-20.979-1.1446-41.675-7.9077-41.99-6.625-30.9-72.59-77.9-133.92-127.4-181.78l49.5-23.781 14.031 26.75 3.4374-15.156 12.281 2.1562 2.0625-9.7188 13.562-1.9062-14.969-14.219zm294.78 31.281c1.8917 2.3822 3.4091 2.5488 5.9376 4.7188l-5.0626 3.5938c0.2392-3.4005-0.059-5.1465-0.875-8.3125zm-329.34 8.9375c-4.1981 0-7.625 3.4269-7.625 7.625s3.4269 7.5938 7.625 7.5938 7.5937-3.3956 7.5937-7.5938c0-4.1981-3.3956-7.625-7.5937-7.625zm41.301 1.208c-4.2108 0-7.625 3.4138-7.625 7.625s3.4142 7.625 7.625 7.625c4.2114 0 7.625-3.4138 7.625-7.625s-3.4136-7.625-7.625-7.625zm-133.05 5.5732c24.512 20.371 47.043 46.915 74.375 88.438l-0.5625 5.5938 8.3438 3.0938s45.463 59.843 43.062 86.438c-15.61 3.2594-27.686-2.5047-55.594 23.594l-17.938-3.9062-18.875 4.5938s0.243 5.916 4.9375 7.9062c2.0404 0.86505 5.4203-7.4101 7.625-7.1562 9.1715 1.0562 18.417 1.2068 16.719 4.0938-1.9244 0.82479-6.8533 60.276 2.7188 72.938 5.3397 12.889 1.5108 12.784-3.2812 15.156-5.2051 3.4048-21.594-3.7812-21.594-3.7812l3.7812 94.406c43.244-49.331 134.58-82.229 128.09-78.656 45.844 242.13-63.142 403.66-177.22 522.06l59.781 0.3437s-51.542 82.672-55.375 105.53c2.9269 7.5948 11.035 23.332-2.6563 34.375-4.633 5.0797-5.125 28.125-5.125 28.125-31.438 1.0833-58.69-9.8324-94.937 2.875-3.7484 1.2616-4.5679-19.735-4.75-23.531-11.137-10.421-12.901-31.619-3.2813-42.625 3.5674-4.0551 2.053-1.9029-0.9375-15.625-4.774-21.894-20.674-51.918-32.781-71.187-3.967-6.3145-7.9416-13.689-8.9063-15.969-8.6524-10.26-31.392-5.5178-34.156-8.2188-2.5155-2.1085-4.1433-58.088-1.5937-59.437 89.598 7.106 229.81-1.0312 229.81-1.0312l-37.9-52.47c-46.343-18.066-110.03 12.782-106.96 14.411 0.1527 0.181-50.898-27.839-86.312-23.856l1.1625-27.453c31.456-0.12545 60.48 5.7327 85.814 20.677l43-16.04-131.9-138.41 1.5313-22.812s33.7 36.079 70.344 74.625c31.434 33.065 43.188 38.625 43.188 38.625l0.094-287.06-113.44-0.28125-3.0312-58.656-2.9375-5.125-1.3437-42.094 3.1562-4.2812-1.0938-18-1.0624-2.5625-1.4376-43 2.4376-3.625 0.375-27.062c54.9-53.66 196.4-143.92 196.4-143.92zm96.906 8.1562 13.219 57.938 8.875-11 13.625 4.2812 0.9375-13.344 12.406-4.3125zm450.79 9.6348c-4.2111 0-7.625 3.4138-7.625 7.625s3.4139 7.625 7.625 7.625 7.625-3.4138 7.625-7.625-3.4139-7.625-7.625-7.625zm-35.688 4.7714c-4.2112 0-7.625 3.4138-7.625 7.625s3.4138 7.625 7.625 7.625 7.625-3.4138 7.625-7.625-3.4138-7.625-7.625-7.625zm-437.1 6.75c-4.2111 0-7.625 3.4138-7.625 7.625s3.4139 7.625 7.625 7.625 7.625-3.4138 7.625-7.625-3.4139-7.625-7.625-7.625zm464.47 4.5938-53.062 49.906 14.875-0.625 2.6633 14.562 13.313-6.0947 10.773 9.9393zm22.582 16.771c-4.2112 0-7.625 3.4138-7.625 7.625s3.4138 7.625 7.625 7.625 7.625-3.4138 7.625-7.625-3.4138-7.625-7.625-7.625zm-421.99 9.8232c-4.2108 0-7.625 3.4138-7.625 7.625s3.4142 7.625 7.625 7.625c4.2114 0 7.625-3.4138 7.625-7.625s-3.4136-7.625-7.625-7.625zm33 6.375c-4.2108 0-7.625 3.4138-7.625 7.625s3.4142 7.625 7.625 7.625c4.2114 0 7.625-3.4138 7.625-7.625s-3.4136-7.625-7.625-7.625zm-29.937 11.344c1.459 20.39 3.8412 44.571 4.375 65l10.062-9.9062 11.625 4.7188 4.125-12.531 12.656-0.625zm326.72 17.009c-4.2108 0-7.625 3.4138-7.625 7.625s3.4142 7.625 7.625 7.625c4.2114 0 7.625-3.4138 7.625-7.625s-3.4136-7.625-7.625-7.625zm-348.59 1.3349c-4.2111 0-7.625 3.4138-7.625 7.625s3.4139 7.625 7.625 7.625 7.625-3.4138 7.625-7.625-3.4139-7.625-7.625-7.625zm378.82 1.8526c-4.2113 0-7.625 3.4138-7.625 7.625s4.0306 7.625 7.625 7.625c3.5945 0 7.625-3.4138 7.625-7.625s-3.4141-7.625-7.625-7.625zm-4.5206 16.469-43.987 45.241 14.406 1.3438 4.5294 12.842 9.2206-7.8107 11.188 8.1875zm24.157 9.6982c-4.2114 0-7.625 3.4138-7.625 7.625s3.4136 7.625 7.625 7.625c4.2108 0 7.625-3.4138 7.625-7.625s-3.4142-7.625-7.625-7.625zm-346.83 14.105c-4.2111 0-7.625 3.4138-7.625 7.625s3.4139 7.625 7.625 7.625 7.625-4.0305 7.625-7.625-3.4139-7.625-7.625-7.625zm-186.84 4.6562-14.312 10.969 3.5313-0.53125s8.6562 10.074 8.6562 10.781c0 0.70711 5.3125-0.1875 5.3125-0.1875zm222.91 6.6562c-4.2108 0-7.625 3.4138-7.625 7.625s3.4142 7.625 7.625 7.625c4.2114 0 7.625-3.4138 7.625-7.625s-3.4136-7.625-7.625-7.625zm-54.9 10.9c-4.2108 0-7.625 3.4138-7.625 7.625s3.4142 7.625 7.625 7.625c4.2114 0 7.625-3.4138 7.625-7.625s-3.4136-7.625-7.625-7.625zm315 15.363c-4.2111 0-7.625 3.4138-7.625 7.625s3.4139 7.625 7.625 7.625c4.2113 0 7.625-3.4138 7.625-7.625s-3.4137-7.625-7.625-7.625zm-30.094 11.188c-4.2108 0-7.625 3.4138-7.625 7.625s3.4142 7.625 7.625 7.625c4.2114 0 7.625-3.4138 7.625-7.625s-3.4136-7.625-7.625-7.625zm307.19 1.8857 15.844 17.219v251.94l-15.469 0.3125zm-616.78 1.7812c12.908 0.0164 27.296 1.8772 31.875 9.7188 7.125 8.7984-8.0281 5.3939-20.781 7.3125-11.782 1.4392-4.9475 3.8425 11.688 4.8125 22.93 1.3536 31.937 1.9522 35.352 7.2384 1.9368 4.923 0.5186 8.2437 0.9295 13.543l-26.1-1.22c-13.502 0.0172-21.432-0.23963-25.438 0.78125-3.1902 0.81342-2.2745 3.3723-1.1875 4.4688 0.5684 0.57398 10.929 0.71337 23.031 1.0312 32.576 0.85567 39.781 1.9553 42.094 12.438 1.7451 9.6097-6.0908 8.1481-39.562 4.5-14.893-1.2151-22.909 2.2869-25.062 3.3438-3.6704 1.8007 10.638 3.574 15.312 2.8125 2.9235-0.46023 24.407 1.8638 32.312 3.3438 6.6503 1.0066 0.7949 0.82453-2.5625 4.875-2.223 3.3537-1.5201 7.2046-5 9.0938-4.2701 2.2577-12.729 2.215-27.906 2.2188-17.354 0.004-25.446 4.2144-1.625 5.25 15.386 0.66893 16.255 0.40311 17.563 4.8438 3.4758 10.953-3.9317 12.88-19.625 15.375-7.5 1.2871-18.626 0.56648-27.031-0.0312-33.197-2.3614-44.701-10.275-49.188-24.906-16.742-54.584 3.9231-87.911 52.281-90.594 2.6848-0.14242 5.5834-0.25378 8.5626-0.25005zm335.54 2.4357-37.488 54.53 14.447-5.6222 6.875 14.781 11.562-8.25 11.551 7.1222zm-280.48 6.6268c1.9434 2.375 1.0897 4.1545-2.125 5.9062-2.7126 1.4784-7.3496 0.38427-10.406-0.9375-4.0314-1.7433-4.4376-8.9429-1.125-9.7188 4.7621-0.95206 10.674 1.264 13.656 4.75zm-271.5-2.79l-20.5 19.625 0.625 0.75 27-10.625zm575.38 8.375c-4.2108 0-7.625 3.4138-7.625 7.625s3.4142 7.625 7.625 7.625c4.2114 0 7.625-3.4138 7.625-7.625s-3.4136-7.625-7.625-7.625zm279.1 6.59s19.097 18.863 26.938 26.781l-7.0937-0.0312 0.1874 14.875 22.594 0.25 12.406 12.156-34.5-0.15625v15.188l42.719 0.0312-0.2188-6.5 16.875 15.281 2 168.94-81.406-0.25c-0.3047-83.184-0.07-163.38-0.5-246.56zm-558.47 18.312c-1.1704 3.6531-3.7864 3.6605-8.25 1.8438-6.607-2.6892-5.6663-9.9785-0.6562-10.75 9.4498-1.0763 11.196 3.278 8.9062 8.9062zm25.625 3.1875c-4.2111 0-7.625 3.4138-7.625 7.625s3.4139 7.625 7.625 7.625c4.2114 0 7.625-3.4138 7.625-7.625s-3.4136-7.625-7.625-7.625zm-26.844 5.8438c2.9789 0.18427 5.9373 1.7143 7.625 3.375 4.1695 4.2089 2.6943 8.1361-1.9687 10.562-5.2303 2.7213-8.9122-0.98783-10.438-7.1875-1.0283-4.1817 1.4155-6.6135 4.7813-6.75zm239.36 19.997c-4.2286 0-7.6562 3.4278-7.6562 7.6562s3.4276 7.6562 7.6562 7.6562c4.2282 0 7.6562-3.4278 7.6562-7.6562s-3.428-7.6562-7.6562-7.6562zm-251.99 9.284c6.57 0.22221 8.5515 6.9331 5.125 10.531-4.922 4.8763-12.57 2.7876-13.656-1.875-0.3451-5.2452 3.9275-8.6562 8.5313-8.6562zm224.67 3.0928c-4.2109 0-7.625 3.4138-7.625 7.625s3.4141 7.625 7.625 7.625c4.2113 0 7.625-3.4138 7.625-7.625s-3.4137-7.625-7.625-7.625zm27.083 5.0616-34.124 57.252 13.812-5.4688 8.375 11.031 8.625-7.5312 13.031 6.375zm-267.78 9.5643c6.1044 0.0289 7.8134 4.8224 3.375 9.2188-3.0135 2.9855-6.4244 3.0784-9.9062 0.3125-5.2765-4.1909-1.23-9.568 6.5312-9.5312zm291.69 0.70711c-4.2109 0-7.625 3.4138-7.625 7.625s3.4141 7.625 7.625 7.625c4.2113 0 7.625-3.4138 7.625-7.625s-3.4137-7.625-7.625-7.625zm-248.44 6.0116c-4.2108 0-7.3124 3.4138-7.3124 7.625s3.4136 7.625 7.625 7.625c4.2111 0 7.625-3.4138 7.625-7.625s-3.7259-7.625-7.9376-7.625zm565.34 1.6875v16.188l43 0.0312v-16.188zm-564.78 14.375l-16.5 60.17 13.781-7.8438 8.5938 8.7812 8-9.8438 14.375 3.75zm29.281 6.5312c-4.2113 0-7.625 3.4138-7.625 7.625s3.4137 7.625 7.625 7.625c4.2109 0 7.625-3.4138 7.625-7.625s-3.4141-7.625-7.625-7.625zm-53.688 3.0625c-4.2109 0-7.625 3.4138-7.625 7.625s3.4141 7.625 7.625 7.625c4.2113 0 7.625-3.4138 7.625-7.625s-3.4137-7.625-7.625-7.625zm589.16 4.75 0.031 14.531h43l-0.031-14.438zm-353.85 18.998c-4.2109 0-7.625 3.4138-7.625 7.625s3.4141 7.625 7.625 7.625c4.2113 0 7.625-3.4138 7.625-7.625s-3.4137-7.625-7.625-7.625zm353.89 8.1268v15.656h43v-15.656zm-886.62 1.9062 15.125 0.28125 0.25 272.91-14.75-15.594zm-6.3125 0.53125-0.75 249.44-28.656-30.125 7.625-0.0937v-17l-24.812-0.1875-10.594-10.312 35.375 0.0312v-16.688l-41.969-0.15625v10.094l-20.625-22 0.3438-162.88zm540.18 7.6213-22.957 59.347 14.438-8.2188 7.4687 7.3438 7.7187-6.9688 13.125 6.4062zm-603.86 2.8474-0.2188 15.969h42.375v-15.969zm629.86 3.2169c-4.2109 0-7.625 3.4138-7.625 7.625s3.4141 7.625 7.625 7.625c4.2113 0 7.625-3.4138 7.625-7.625s-3.4137-7.625-7.625-7.625zm-51.896 0.85355c-4.2109 0-7.625 3.4138-7.625 7.625s3.4141 7.625 7.625 7.625c4.2113 0 7.625-3.4138 7.625-7.625s-3.4137-7.625-7.625-7.625zm-179.44 2.8358c-4.2108 0-7.625 3.4138-7.625 7.625s3.4142 7.625 7.625 7.625c4.2114 0 7.625-3.4138 7.625-7.625s-3.4136-7.625-7.625-7.625zm558.09 6.1562v16.781h43v-16.781zm-559.03 9.4688-6.375 9.8438-14.594-4.9688 19.906 60.219 24.969-62.812-14.344 8.1875zm-397.59 4.375v15.938h42.156v-15.938zm956.62 14.281v16.625h42.969l0.031-16.625h-43zm-956.62 13.906v15.969h42.156v-15.969zm603.31 3c-4.2282 0-7.6563 3.4278-7.6563 7.6562s3.4281 7.6562 7.6563 7.6562c4.2286 0 7.6563-3.4278 7.6563-7.6562s-3.4277-7.6562-7.6563-7.6562zm-229.56 7.9688c-4.2286 0-7.6562 3.4278-7.6562 7.6562s3.4276 7.6562 7.6562 7.6562c4.2282 0 7.6562-3.4278 7.6562-7.6562s-3.428-7.6562-7.6562-7.6562zm48.938 1.4375c-4.2282 0-7.6563 3.4278-7.6563 7.6562s3.4281 7.6562 7.6563 7.6562c4.2286 0 7.6563-3.4278 7.6563-7.6562s-3.4277-7.6562-7.6563-7.6562zm533.94 1.0625v15h42.969l0.031-15h-43zm-353.38 7-9.125 9.5938-13.094-3.7188 29.688 55.375 15-59.562-13.094 8.3438zm-603.25 5.625v18.125h42.156v-18.125zm397.9 8.22c-4.2286 0-7.6562 3.4278-7.6562 7.6562s3.4276 7.6562 7.6562 7.6562c4.2283 0 7.6562-3.4278 7.6562-7.6562s-3.428-7.6562-7.6562-7.6562zm-0.5 15.781c-3.2634 2.3149-4.6871 6.3756-8.0938 8.4688l-13.937-5.9375 8.375 75.406 38.687-71.25-17.687 2.9688zm-397.38 2.4688v18.844h42.156v-18.844zm633.17 8.7393c-4.2286 0-7.6563 3.4278-7.6563 7.6562s3.4277 7.6562 7.6563 7.6562c4.2282 0 7.6563-3.4278 7.6563-7.6562s-3.4281-7.6562-7.6563-7.6562zm-49.5 0.875c-4.2286 0-7.6563 3.4278-7.6563 7.6562s3.4277 7.6562 7.6563 7.6562c4.2282 0 7.6563-3.4278 7.6563-7.6562s-3.4281-7.6562-7.6563-7.6562zm-583.67 17.729v18.875h42.156v-18.875zm611.28 4.208c-4.2286 0-7.6562 3.4278-7.6562 7.6562s3.4276 7.6562 7.6562 7.6562c4.2282 0 7.6562-3.4278 7.6562-7.6562s-3.428-7.6562-7.6562-7.6562zm108.08 0.60447c40.998 1.3079 47 14.5 47.242 60.029 0.193 36.34-10.632 50.544-37.09 57.552-9.637 2.5523-45.686 0.18812-55.899-3.084-0.1702-3.1162-5.2664-10.335-6.4155-15.889 2.5998-0.74084 10.832 0.40918 26.426 1.8915 12.648 1.2022 15.902-0.82522 11.906-3.3125-23.791-5.6125-39.986-4.0849-62.844-8.4688-0.3235-6.8326-5.8447-14.793-5.8447-14.793 1.2412-0.49648 35.232 3.1639 53.166 2.5972 7.8983-0.32678 3.1418-4.0361-0.047-4.7194-20.915-2.9933-34.499-2.5138-56.619-5.3036 0.6054-5.6558-2.2764-10.8-5.8438-15.125 0 0 11.19-0.10188 34.25 0.25 12.139 0.18523 22.702 0.69095 28.009 0.50903 8.9123-0.012 8.0999-4.17 0.3733-4.7365-9.4218-1.0498-46.507-1.2725-46.507-1.2725 2.7587-1.2781 6.3609-17.885 4.9375-18.062 0 0 9.611 0.1971 15.719-0.0312 29.719-1.1112 34.848-0.642 35.406-1.75 3.9061-3.5691-6.6397-4.9657-17.625-4.9375-4.7357 0.0122-11.645 1.0469-11.594-1.5312 0.047-2.3692-0.066-7.2314-2.4786-12.235 18.23-7.016 34.997-8.1002 51.372-7.5779zm-353.5 9.34c-4.2286 0-7.6562 3.4278-7.6562 7.6562s3.4276 7.6562 7.6562 7.6562c4.2283 0 7.6562-3.4278 7.6562-7.6562s-3.428-7.6562-7.6562-7.6562zm292.47 1.5938c5.0548 0.0239 6.6473 9.1152 1.9062 10.531-7.2786 2.174-11.257 0.4632-11-3.8438 0.1457-2.4405 5.8193-6.703 9.0938-6.6875zm-242.5 7.91c-4.2286 0-7.6562 3.4278-7.6562 7.6562s3.4276 7.6562 7.6562 7.6562c4.2283 0 7.6562-3.4278 7.6562-7.6562s-3.428-7.6562-7.6562-7.6562zm218.03 8.5938c17.328-0.15491 8.3583 23.405-4.9687 14.906-6.608-4.2141-1.9586-14.855 4.9687-14.906zm-274 18.844c-0.3547-0.0326-0.5449 0.32206-0.5 1.1875l4 71.625 41.688-66.906-16.563 6.1562-7.125-10.812-8.9374 7.0312c-3.6815 2.8961-10.646-8.105-12.563-8.2812zm257.94 7.3321c7.7742 1.0803 12.958 8.8646 7.5624 12.605-12.153 5.3234-18.654-12.083-7.5624-12.605zm-18.668 15.72c-4.2287 0-7.6563 3.4278-7.6563 7.6562s3.4276 7.6562 7.6563 7.6562c4.2281 0 7.6562-3.4278 7.6562-7.6562s-3.4281-7.6562-7.6562-7.6562zm29.449 6.4795c6.6196-0.0989 9.7347 9.5093 3.1875 12.531-1.3966 0.64478-5.5384 1.1045-7.375-0.25-7.7312-5.7022-3.7244-11.677 4.1875-12.281zm-286.67 11.812c-4.2286 0-7.6562 3.4278-7.6562 7.6562s3.4276 7.6562 7.6562 7.6562c4.2282 0 7.6562-3.4278 7.6562-7.6562s-3.428-7.6562-7.6562-7.6562zm585 9.61l-28.375 9.5312v13.418c12.387-3.941 19.466-14.004 28.378-22.95zm-265.91 6.4777c4.9202 2.0654 6.259 8.7307 2.0258 10.971-3.335 1.7647-12.368 1.4838-14.578-1.4214-5.7283-9.1882 6.5916-11.795 12.552-9.5492zm-267.5 2.64c-4.2286 0-7.6562 3.4278-7.6562 7.6562s3.4276 7.6562 7.6562 7.6562c4.2282 0 7.6562-3.4278 7.6562-7.6562s-3.428-7.6562-7.6562-7.6562zm-31.365 13.229c-3.7277 0-6.75 3.0221-6.75 6.75s3.0223 6.75 6.75 6.75c3.728 0 6.75-3.0221 6.75-6.75s-3.022-6.75-6.75-6.75zm318.26 11.386c-4.2286 0-7.6563 3.4278-7.6563 7.6562s3.4277 7.6562 7.6563 7.6562c4.2282 0 7.6563-3.4278 7.6563-7.6562s-3.4281-7.6562-7.6563-7.6562zm-342.93 0.41697-0.375 67.656 45.125-55.375-15.656 3.4062-6.6875-13.719-9.6562 6.2812zm286.43 15.583c-4.2287 0-7.6563 3.4278-7.6563 7.6562s3.4276 7.6562 7.6563 7.6562c4.2281 0 7.6562-3.4278 7.6562-7.6562s-3.4281-7.6562-7.6562-7.6562zm225.8 0.26l-7.4063 12.625 21-11.656zm-195.26 8.9893c-4.2286 0-7.6562 3.4278-7.6562 7.6562s3.4276 7.6562 7.6562 7.6562c4.2282 0 7.6562-3.4278 7.6562-7.6562s-3.428-7.6562-7.6562-7.6562zm25.793 8.2607-9.1562 13.062-12.063-3.875-3.5624 12.438-14.469-0.53125 47.031 40.938zm-366.57 5.2286c-4.2286 0-7.6562 3.4278-7.6562 7.6562s3.4276 7.6562 7.6562 7.6562c4.2282 0 7.6562-3.4278 7.6562-7.6562s-3.428-7.6562-7.6562-7.6562zm705.23 10.99 3.8126 561-267.41 0.5624-110.09-150.33c-2.2686-24.489-0.9499-49.631 9.3592-82.496 10.765 7.4572 34.347 3.3864 33.547-25.517-0.5237-18.929-29.701-28.612-44.24-14.373 0.7516-18.294 8.1794-45.787 18.875-53.898 7.3515 6.6739 8.9729 16.552 25.582 13.791 11.802-1.9614 21.143-15.152 16.032-30.518-1.3095-3.8977-2.0149-8.6403-2-11.812 0.015-3.1723 0.3062-8.8107-0.3125-11.969-0.8167-4.1688-1.125-8.6875-1.125-8.6875 142.46-44.708 244.33-116.24 317.97-185.75zm-651.63 9.6348c-4.2286 0-7.6562 3.4278-7.6562 7.6562s3.4276 7.6562 7.6562 7.6562c4.2282 0 7.6562-3.4278 7.6562-7.6562s-3.428-7.6562-7.6562-7.6562zm-36.104 7.4786c-4.2286 0-7.6562 3.4278-7.6562 7.6562s3.4276 7.6562 7.6562 7.6562c4.2282 0 7.6562-3.4278 7.6562-7.6562s-3.428-7.6562-7.6562-7.6562zm378.85 3.6875c-4.2286 0-7.6562 3.4278-7.6562 7.6562s3.4276 7.6562 7.6562 7.6562c4.2282 0 7.6562-3.4278 7.6562-7.6562s-3.428-7.6562-7.6562-7.6562zm-406.31 8.1679-11.938 71.281 52.125-53.281-14.156-0.3125-2.8125-12.156-13.25 4.2812zm354.41 15.207c-4.2289 0-7.6563 3.4278-7.6563 7.6562s3.4272 7.6562 7.6563 7.6562c4.2279 0 7.6562-3.4278 7.6562-7.6562s-3.4283-7.6562-7.6562-7.6562zm33.781 8.3125c-4.2286 0-7.6562 3.4278-7.6562 7.6562s3.4276 7.6562 7.6562 7.6562c4.2282 0 7.6562-3.4278 7.6562-7.6562s-3.428-7.6562-7.6562-7.6562zm-420.5 9.29c-4.2286 0-7.6562 3.4278-7.6562 7.6562s3.4276 7.6562 7.6562 7.6562c4.2282 0 7.6562-3.4278 7.6562-7.6562s-3.428-7.6562-7.6562-7.6562zm451.12 5.7812-12.469 9.4688-11.47-7.0116-2.6865 15.137-9.7812 5.125 41.031 28.75zm30.321 20.385c-4.2286 0-7.6563 3.4279-7.6563 7.6564 0 4.2287 3.4277 7.6562 7.6563 7.6562 4.2282 0 7.6563-3.428 7.6563-7.6562 0-4.2284-3.4281-7.6564-7.6563-7.6564zm-433 2.58c-4.2286 0-7.6562 3.4281-7.6562 7.6562 0 4.2288 3.4276 7.6563 7.6562 7.6563 4.2282 0 7.6562-3.4278 7.6562-7.6563 0-4.2281-3.428-7.6562-7.6562-7.6562zm-34 10c-4.2286 0-7.6562 3.428-7.6562 7.6562 0 4.2288 3.4276 7.6563 7.6562 7.6563 4.2282 0 7.6562-3.4275 7.6562-7.6563 0-4.2282-3.428-7.6562-7.6562-7.6562zm447.33 20.239c-4.2286 0-7.6562 3.4284-7.6562 7.6563 0 4.229 3.4276 7.6562 7.6562 7.6562 4.2282 0 7.6562-3.4275 7.6562-7.6562 0-4.2276-3.428-7.6563-7.6562-7.6563zm-32.094 6.8535c-4.2284 0-7.6562 3.4284-7.6562 7.6563 0 4.229 3.4281 7.6562 7.6562 7.6562 4.2285 0 7.6563-3.4275 7.6563-7.6562 0-4.2276-3.4278-7.6563-7.6563-7.6563zm-296.41 10.898c0.048 0 0.096 0.034 0.125 0.062 0.8646 0.9249 3.5214 7.8894 1.1562 11.438-1.2185-0.5761-6.7212-5.6966-5.3124-7.4375 0.6481-0.8007 3.3189-4.068 4.0312-4.0625zm-173.7 12s7.4094 0.3843 9.0312 1.0938c0 1.8892-1.7808 6.0244-3.7812 10.656-9.9964 23.135-11.528 49.07-1.375 74.062 15.928 33.926 60.903 114.19 57.562 121.53l-99.375 0.4062 0.4298-15.113c27.922-1.0956 32.315-18.169 25.348-32.284-4.8252-9.7757-18.354-15.37-30.722-10.238-17.859 7.4108-18.959 16.235-25.337 29.916l-2.8427-3.6114c5.3665-7.1283 7.1587-13.975 6.7167-21.784-0.4336-7.6617-0.6606-5.5434 2.017-9.7483 15.551-16.709 5.3688-38.461 5.3688-38.461-1.8559-13.362 46.54-98.602 56.959-106.43zm-227.25 2.1875c28.262 22.489 52.726 98.238 51.25 99.406-1.3145-1.0641-22.773 24.333 0.3437 48 0 0-1.4121 14.223 3.0313 21.531-10.208 21.182-12.009 22.783-12.875 40.188-0.1932-0.067-1.773-0.2054-11.25-0.25-46.831-0.2213-49.014 59.325-2.2188 62.594 6.4076 0.4484 8.6081-1.0037 12.469 2.8126 3.9183 4.8601 7.4334 9.7446 14.125 7.2187 1.5894 0.01 4.1602 1.5027 6.8437 4 4.5007 6.0867 11.027 10.419 20.344 8.75 3.3038 0.3198 6.6812 1.27 10.25 2.5625 4.0977 3.2323 11.215 5.6791 16.781 3.25 1.6562-0.7228 4.8417-0.9642 7.4375 0.2188 6.7638 3.0815 13.652 1.1531 16.188-0.7813 6.2793-3.2571 7.6722 1.968 7.375 6.7813-3.2029 11.023 3.8363 21.355 14.5 25.406 22.484 6.9486 33.82-6.8804 38.656-34.312 1.1969-6.0109 2.25-13.156 2.25-13.156l75.281 1.9688-108.09 125.28-184 2.25-0.9-413.9c8.0892-0.4765 14.188 0.1892 22.281 0.1875zm677 22.3c13.728 5.2925 14.825 14.99 1.1562 10.781-22.209-6.8384-46.104 6.7319-51.094 26.125-0.9202 3.577-1.9031 6.2844-2.4687 6.9687-3.1057 3.7586-2.9562 0.3298-2.0313-10.437 1.7952-20.898 16.573-36.033 35.844-36.656 6.313 0.01 13.118 1.3209 18.594 3.2187zm-6.8125 14.781c5.7424 0 11.822 1.6823 16.363 5.6303 5.1501 5.6504 3.6152 9.3983-0.3384 9.2036-18.602-7.7661-42.255 1.6353-51.52 25.119-5.6856 14.411-6.7098 6.6868-4.1937-4.4687 4.6601-20.196 20.026-35.119 39.688-35.484zm-129.38 5.5625c-8.1158 0.033-15.824 1.6331-19.75 5.3438-7.4555 7.0433-1.2527 7.1569 12.25 2.4687 6.5665-2.2799 19.203-1.2307 27.281 1.5625 6.7722 2.3418 9.1607 3.3293 8.7812 1.2188-0.3534-6.3361-15.035-10.649-28.562-10.594zm151.65 23.573c3.4254 7.8333 1.2085 21.638-10.75 23.036-14.096 1.6476-21.383-21.988 4.3632-17.854-3.3345-9.4518-14.887-6.837-20.58-4.4429-11.619 5.0743-19.535 16.494-26.656 37.469-2.1116 6.2187-3.6585 9.4697-4.4688 8.8438-1.3454-1.0408-1.9809-10.707 1.125-22.344 5.6002-20.982 19.256-33.658 33.719-34.062 9.3685-1.434 20.281 2.5684 23.248 9.3546zm-201.71-9.1046c-1.2522 0.2835 0.9483 4.6888 4.375 11.531 1.8966 3.7877 3.1875 8.6916 3.1875 9.6562-0.018 3.7174 2.8399 4.6368 7.0313 2.25 4.8415-2.7554 5.6155-4.8351 12.469-1.7812 6.453 3.394 12.823 5.534 18.719 2.0938 3.1961-1.8661 5.313-1.7868 11.5-0.1563 7.3845 1.946 8.3615 2.2444 13.875-0.062 7.0411-2.9455 15.41-0.9278 17.187 1.0526 1.6933 1.8871 0.7077-0.7256 4.5366-9.5999 1.7745-4.1128 4.3193-9.1129 3.6206-10.515-0.9454-1.8977-7.359 0.1968-14.344 2.0313-3.776 0.99-7.3835 0.6981-14.625-1.3438-15.278-4.3081-24.9-3.0711-34.469 1.4688-5.3451 2.5353-18.747-0.9653-32.281-6.4688-0.3251-0.1323-0.6029-0.197-0.7812-0.1562zm30.054 40.906c-6.891-0.1028-13.14 4.2314-16 10.188-3.3212 8.2669 2.33 23.187 10.938 24.469 7.6558 1.1403 7.3657-3.5415 3.5132-4.805-5.8362-1.914-12.706-10.272-8.2655-17.532 3.0527-4.9916 12.278-4.962 18.694 1.1919 12.925 12.397 27.731 13.216 30.536 2.4571 0.8493-4.3007-2.4251-10.03-7.4777-8.4678-3.9067 1.2083-12.94 1.5728-20.5-3.5625-3.9186-2.6617-7.8271-3.8836-11.438-3.9375zm136.47 39.375c32.988-1.9774 18.8 43.078-0.2399 31.511-6.7997-4.1309-3.7848-19.31 14.292-19.03-17.733-13.809-29.815 3.0072-25.48 21.876-3.9806 6.1569-5.0856 17.892-7.6938 24.533-4.0138 7.5851-7.1654-12.276-3.1143-31.468 3.9212-18.577 10.556-26.722 22.236-27.422zm-186.59 1.5625c-6.8105 0.079 0.1923 7.4102 1.25 8.2813 20.548 16.125 30.59 26.092 14.062 20.781-26.851-6.3909-33.771 1.2027-54.219 10.219-3.7556 1.8016-4.8184 0.6825-9.3437-0.6563-17.966-5.3148-16.651 5.9561 2.125 16.125 28.348 15.353 51.754 18.819 73.781 7.3125 14.159-7.3964 14.882-2.5536 1.7187 5.625-22.539 13.141-46.262 11.146-82.688-11.531-11.767-7.3263-13.412-2.4265-1.375 5.2812 27.507 16.611 64.539 31.674 94.781 7.1562 5.9499-5.2871 7.1444-8.0326 11.719-5.75 12.09 6.0346 8.1158-4.4755-0.125-14.375-2.9132-3.498-5.0651-6.3264-4.875-8.7187 0.6825-8.5905-4.0677-8.5566-8.4062-8.3437-5.1857 0.2536-4.6116-1.4842-10.969-8.4688-9.2828-10.199-20.617-21.115-27.438-22.938zm-274.53 45.688c-11.417 0.9028-14.036 1.4167-11.25 24.812 0.5248 4.4031 2.484 17.578 3.0313 22.531 6.7702 61.268 1.288 88.373-15.781 95.875-6.1393 2.7009-12.183 1.7098-16.687-0.094-10.806-4.3207-15.254-17.441-7.4063-33.062 2.1142-4.2074 4.6657-10.716 5.6875-14.469 1.0207-3.7538 3.3255-11.994 5.0938-18.313 4.299-15.36 6.6283-38.736 4.0937-61.062-1.7201-15.16-1.3424-16.431 2.4375-26.656 8.2925-15.11 13.651-22.845 31.114-23.034 19.529 2.049 24.996 31.6-0.3331 33.472zm419.78-1.3438-5.3437 0.25c-6.4346-21.418-19.874-14.486-22.111 0.5465l-4.5366-0.047c0.7811-28.596 36.554-20.844 31.991-0.7495zm-501.78-15.991c36.465 3.6083 43.111 12.668 45.985 56.71 0.2626 21.314-1.145 34.181-4.4168 39.034-5.4621 2.6219-10.689-2.2846-18.474 2.6531-4.2772 2.6155-3.4603 2.8856-5.3036 0.046-1.7314-2.6703 0.2955-13.917 3.0919-22.895 2.6666-8.5605-1.9045-13.543-13.976-24.527-3.2698-2.9756-6.1318-7.1035-9.0625-13-6.2799-16.852-9.4692-9.4357-4.2383 5.0937 2.5868 6.2639 3.1906 9.3541-4.6679 6.6563-4.6252-1.5973-8.6623 0.2897-12.228 2.1857-10.008 2.5454-18.632-2.9227-9.951-6.209 5.2815-1.9993 14.754-4.8979 17.686-4.8839 2.1264 0.01 3.1563-0.4724 3.1563-1.4688 0.02-4.2163-19.286-3.7557-34.007 1.3135-18.081 8.3217-19.119 6.8406-17.45-6.1054 4.2325-32.834 34.795-36.842 63.856-34.604zm356.62 2.8661c9.3233-0.4176 17.885 10.271 16.188 19.344l-4.4376-0.2812c-2.0849-17.075-18.232-17.807-22.531 1.3124l-6.4062 0.1563c4.0726-14.756 10.809-20.245 17.187-20.531zm108.42 0.3438c3.6824 2.1806 1.1273 8.0914-2.7974 9.2795-1.4822 0.3685-6.1785-2.9016-5.0499-4.8938 2.1154-2.4024 5.3268-3.6606 7.8473-4.3857zm41.792 2.8956c2.5715 0 5.8899 1.3068 6.3419 4.7606 0.1454 5.0482-3.6938 4.006-4.9666 3.5531-2.5456-2.3619-3.5085-8.1261-1.3753-8.3137zm-127.83 4.0419c6.8323 0.8039 9.312 9.3921 1.5626 9.9375-3.4605 0.7132-3.6223-7.8769-1.5626-9.9375zm-41.594 0.9375c0.8172 0.01-0.4485 7.0575-2.1563 8.0937-3.3781 2.0518-7.69-0.1873-7.5312-2.3125 0.3798-5.0827 6.5402-5.8136 9.6875-5.7812zm119.28 17.125c13.019 4.9316 29.95 9.7181 45.875 4.1562 5.8098-2.1927 10.459-4.8036 10.446-2.333-0.012 2.5816-4.6142 6.4982-12.937 8.8321-17.149 4.8053-29.564 2.9469-41.344-5.8964-3.3289-2.4999-4.4885-4.7971-2.0401-4.7589zm-5.3759 7.3544c21.12 12.322 40.186 13.547 57.35 4.5644 6.9487-2.4103 7.174-0.2022 7.1528 4.2552-30.923 27.174-69.573-1.0352-64.503-8.8196zm-518.44 18.771c-5.2369 10.56-8.0502 36.579-16.6 44.29-58.355-3.3532-20.821-80.318 16.6-44.29zm361.62-8.625c-3.3012 1.7328-0.382 10.015 4.8126 12.25 44.631 19.205 67.522 21.49 92.906 12.656 10.516-3.6597 16.262-12.261 16.781-16.437 0.6185-4.9704-6.1693-5.4548-18.062-0.1876-36.19 14.19-58.895 3.125-88.117-7.8691-2.7094-1.0193-5.4688-1.3735-8.3205-0.4121zm-170.91 0.5938-0.1562 65.062-42.5-0.75 0.5-9.625 31.812 0.9376-0.5-46.469-36.906-0.3438-0.062-8.625 47.812-0.1874zm9.875 0.1562 42.406 0.062 2.125 6.625h-44.531v-6.6875zm-171.09 20.66c-2.7875 2.4971-7.6544 3.0523-9.6562 1.0312-4.4897-4.5323 0.045-12.864 7.2194-12.809s7.7844 6.9835 2.4368 11.778zm19.537-10.578c6.4144 0.03 8.5333 6.0108 3.6562 10.844-3.3039 3.0076-4.9944 3.204-7.9687 1-3.7472-3.2924-1.7904-11.63 4.3125-11.844zm-41.848 1.6098c1.6866-0.062 3.163 0.1055 4.25 1.7812 3.9005 7.9777-8.893 13.499-11.563 7.5626-1.9674-4.8154 3.0019-9.1863 7.3126-9.3438zm239.81 0.8706 2.4688 8.375-48.875 0.2187v-8.375zm-174.95 2.4098c7.287 0.8728 6.1645 8.2054 2.7813 11.469-5.8094 5.375-11.45 3.6329-9.9687-3.5938 0.926-4.52 3.8535-7.7872 7.1874-7.875zm-39.303 23.996c-2.5712 9.1613 2.9152 27.697 1.2778 29.638-3.5639 4.223-9.2971 2.0556-11.839 0.6131-8.828-5.6694-9.3861-38.919-0.8438-40.906 5.4902 2.7539 9.1797-2.1729 11.689-2.8907 2.5097-0.7177 0.8299 3.8107-0.2841 13.546zm129.19-13.655c4.814 0 8.7187 3.9049 8.7187 8.7187 0 4.8145-3.9047 8.7188-8.7187 8.7188-4.8146 0-8.7188-3.9041-8.7188-8.7188 0-4.8141 3.9042-8.7187 8.7188-8.7187zm38.656 1.125h50c2.9939 4.1675 2.6877 6.9855 1.8438 9.875l-51.844 0.062v-9.9375zm-146.83 1.1339c2.2828-0.026 3.4231 4.8599 1.8974 10.441-2.7543 10.075-2.6089 23.792-0.7197 29.738 1.2702 4.1069 2.522 6.9244 1.7812 8.0938-2.587 4.0868-10.508 1.2953-13.875-4.0938-8.2106-15.228-6.9025-43.641 2.9062-41.438 3.6862 1.8481 5.7958-1.0446 8.0099-2.7411zm-44.072 3.8348c-2.418 3.8551-0.6938 25.496-0.9375 27.281-0.3076 2.2535-6.4927 1.0898-9.9374-0.4687-8.4874-3.9801-6.1806-14.088-4.5313-22.25 1.8518-6.41 5.9348-6.8887 10.97-7.472 2.7827-0.3133 6.451-0.072 4.436 2.9094zm68.011 1.1911c2.6988-0.096 3.0752 1.8935 2.4581 9.9027-0.4827 6.2727-0.7153 11.618 0.3081 17.531 2.1767 12.569 2.4426 15.978-0.7144 18.438-3.7491 2.9201-8.8053 2.0372-12.719-1.4063-8.024-6.3598-8.5548-37.552-2.25-40.25 5.8596 1.4592 9.5493-3.1731 12.917-4.2152zm172.68 9.4339-7.1874 9.875h-42.625l0.031-9.8437 49.781-0.031zm-152 13.212c6.6517 0.073 5.5526 11.838 1.9741 19.22-3.0364 4.4605-5.2577 4.9126-9.8134 0.7285-5.1747-4.7529 0.9712-19.982 7.8393-19.948zm139.56 3.2875-6 5.5-31.25 0.031v-5.4687l37.25-0.063z" fill="#131f67"/>
   <path d="m6058 1369.8v-19.5h19.934l42.169-64.697-45.432-100.55h-16.672v-21.25h64.25v21.25h-20.664l31.756 78.524 23.135-30.434v-48.09h-16.977v-21.25h57.5v21.25h-20v165.25h20v19.5h-57.5v-19.5h16.25v-76.434l-53.801 76.434h20.301v19.5zm-280.94-151.5c-47.232-17.04-66.497-75.926-39.705-134.08 35.89-77.9 89.449-127.93 125.12-201.42-0.4198 0 69.995 103.44 98.121 141.81 60.328 87.074 57.292 158.73-1.1359 187-41.968 20.305-84.99-3.0195-89.942-46.921-0.7727-6.8497-1.2298-7.7583-4.4186-7.7733-3.5115-0.017-4.1666 2.4267-5.0417 12.566-3.3712 39.059-45.737 62.258-83 48.815zm290.58-151.67c18.296-43.054 39.596-66.105 61.935-111.76 18.013 35.312 51.324 73.441 62.515 109.13 8.3934 27.58 1.8694 50.02-16.138 56.712-20.924 7.7759-36.613-1.0185-40.779-20.638-1.6694-7.8619-5.638-7.0841-5.8538-1.1535-0.7003 19.245-22.868 27.655-40.608 22.567-10.19-2.9226-28.469-23.729-21.071-54.852zm-989.66-175.67-51.816-40.629c61.627-1.348 123.23 0.0769 184.85 1.1284l-61.54 43.847c-12.596-13.768-20.038-32.259-37.92-41.182-13.311 5.4958-22.416 24.448-33.574 36.836zm454.48-14.152c-1.0496-0.16566-1.9006-0.25039-2.5255-0.64199-1.4173-0.88814-2.3319-2.8727-3.3697-9.4007-15.379-71.728-90.977-66.648-90.476-64.542-0.5657-2.8286 93.96-88.176 149.52-155.14 16.792 51.173 67.7 168.09 65.58 167.66 0 0-14.729 0.12122-52.918-0.82779-34.759 15.693-58.939 30.974-57.803 53.102-0.194 7.7906-2.0729 11.032-4.6694 10.362-0.3671-0.0837-1.8712-0.34305-3.3424-0.57521zm169.74-230.87c49.174-0.76967 58.45-24.789 64.052-27.685 32.301-5.3107 52.26 15.711 66.414 38.208 18.074 10.881 15.815 0.83354 19.561-16.119l45.007-13.19-0.05 14.338c-13.895 7.4823-34.518 26.654-34.518 26.654l-13.697-0.80682-7.8538 10.466c-31.269 16.914-61.924 37.066-94.9 50.138 0 0-39.499-51.079-44.015-82.002zm-612.7 4.4982-0.5091-283.58c20.342-1.4346 57.791-1.2497 57.791-1.2497 15.657-27.637 37.011-40.63 59.02-56.684 3.0869 34.959 4.2683 68.345 3.5618 103.32-58.277 71.129-90.648 158.68-54.711 289.52l-21.564-2.3918zm322.03 15.894c16.595-59.151 29.485-119.17 34.827-181.13l110.95-1.6456 2.2141 37.992zm377.78-129.13-2.0613-106.1c80.966-96.73 85.758-181.09 55.729-287.74 26.744 6.1548 40.515 27.003 66 55.744l0.017 276.68c-17.713 2.6373-61.615 5.2186-61.615 5.2186-1.3294 12.962-38.43 43.96-58.07 56.206zm-342.8-167.17-5-46.78 144.2-137.7c-11.899 59.666-26.295 120.93-30.492 184.45zm-239.2-146.13c-10.29 6.747-48.218-32.664-54.423-59.161 9.5097-12.85 92.98-53.741 92.98-53.741s48.781 62.611 46.787 88.723c-21.665 5.7596-40.457 7.4007-56.908 25.063-9.4096 0.83814-12.715-9.7466-28.436-0.8848zm-65.836-52.941c11.61 1.867 4.1633 17.532 2.3827 29.004l-61.344 18.183c21.09-17.992 36.044-33.306 58.961-47.186zm199.7-138.44c12.61-0.38015 25.757 4.8184 35.477 0.90079 3.6371-1.4146 10.902-3.6084 18.862-2.1028 18.339 5.6694 24.769-14.53 36.457-14.617 15.126 0.04034 23.517-10.546 23.617-31.735 0.043-9.1656 0.8104-10.197 2.5349-11.11 5.1565-2.7284 10.668 1.0971 11.356 6.1293 10.847 39.031 38.24 74.129 81.439 71.335-34.398 35.058-139.03 142.83-139.03 142.83-18.85-57.418-43.885-110.86-70.713-161.63zm445.12-33.635 63.022-45.738 37.722 45.909 32.615-43.705c19.173 13.729 62.761 44.34 62.761 44.34s-130.71 1.9302-196.12-0.80573zm-657.2-23.346c13.258 9.3809-126.29-159.98-142.39-219.85-12.065-35.282-2.986-78.405 23.289-96.884 44.505-31.3 96.711-18.792 106.61 33.899 2.8093 14.947 7.4761 13.169 9.1188 0.0419 5.9466-67.125 88.372-72.025 120.09-25.208 21.711 32.049 21.871 83.008-9.5593 134.04-7.597 16.209-107.83 169.32-107.16 173.96zm-266.4-64.547c-18.697-36.469-46.467-73.226-61.178-107.27-11.042-27.842-1.6924-56.672 18.888-62.003 20.283-5.2541 35.001 3.1098 38.85 22.077 1.3033 6.4231 3.8603 6.9009 5.1245 0.95749 7.6295-35.869 58.214-28.115 61.696 9.4569 2.2181 23.936-4.0214 39.748-33.558 85.044-7.1377 14.699-26.433 35.966-29.822 51.738zm9.8534-230.33h21.059l-30.947-75.929-23.667 32.066 0.1435 43.863h16.617v22.627h-58.513v-22.627h19.269v-163.34l-19.269 0.0396v-19.75h59.397v20.418h-16.407l-0.3535 79.623 51.851-80.291h-18.296v-19.75h63.187v19.75h-16.668l-42.688 65.627 41.777 97.675h18.562l0.086 22.627h-64.963z" transform="translate(-3885.2 204.78)" fill="#d40000"/>
   <path d="m1936.8-211-579.38 3.7188 112.59 150.38c119.62-24.351 223.74-8.5292 331.81 10.344zm-14.812 7.625-38.562 47.906c-10.667-9.6468-34.484-6.1644-31.115 14.943-29.554-15.364-35.818 26.819-10.729 25.088-3.1476 8.2829-28.48 10.468-35.625-4.5625-26.012 14.576-33.957 0.43628-40.844-8.75 33.054 22.44 49.138-23.683 12.75-26.281 14.295-28.916-36.691-42.037-33.688-4.4062-33.629-7.6226-25.917 39.698-1.2187 30-16.041 24.119-42.362 7.9164-47.688 3.2188-13.53 10.149-39.116 10.472-46.281-5.75 37.426 7.5258 33.328-41.755 0.094-30.406 17.716-37.849-41.225-32.755-26.906-1.75-33.53-1.2791-26.108 40.068 3.3437 33.031-26.168 24.661-45.767 1.6796-49.906 1.1875-15.49 17.09-42.699 7.7261-46.438-2.375 26.692 10.543 35.442-34.297 1.792-31.604 8.6213-28.886-39.796-32.389-29.111 0.42009-26.677-6.0422-28.13 36.678 1.757 30.027 1.8511 11.698-21.662 22.902-36.125 11.594-10.61 5.8079-22.223 14.848-36.031 1.4688 21.032-3.3869 24.489-38.931-9.4688-31.25 1.6174-21.82-10.91-23.008-26.388-17.47l-24.8-33.593zm-399.69 53.594c-1.8418 4.0644-4.9539 6.8359-4.2254 9.9318 0.5984 2.543 3.2074 6.0693 6.8504 10.849 28.989 37.783 87.758 36.518 105.44-2.4375 3.6041-7.2346 2.8691-8.8782-1.4688-15.031-5.2388-7.4313 0.678-15.355 7.0938-14.688 9.5775 0.99588 11.234 9.3432 6.625 15.281-10.002 12.593 17.472 41.084 44.906 45.562 35.165 5.7402 68.511-18.992 63.869-41.153-0.2664-1.272-0.9139-2.4569-1.1815-3.7843-3.7415-18.557 25.686-9.6668 15.094 2.1562-3.9789 4.2758-6.1283 5.5497-5.5937 10.25 8.5446 39.27 56.293 43.387 79.031 31.281-29.339 47.851-75.82 10.972-84-22.469-41.199 59.478-90.696 47.12-118.28-5.1562 3.2608 3.2608-54.341 93.704-119.72 0.96875-27.675 74.638-78.14 24.185-74.688 21.125 23.185 12.915 65.284 8.2377 69.344-31.688 0.5577-4.93-3.1815-5.2327-5.3437-9.125-10.961-19.732 24.405-19.872 16.25-1.875zm-108.94 4.9062c5.2423 0.48995 6.1212 2.671 5.25 8zm449.59 14.031-7.5938 9.5312c-1.8087-4.6627-1.8594-8.9431 7.5938-9.5312zm82.594 3.1562c-18.022 0.76295-31.942 25.665-31.031 58.875 0.4422 16.104 3.274 56.52 4.375 62.531 1.5391 8.4032-0.1351 19.798-3.0937 21-7.7997 3.1704-10.737 5.2129-12.844 8.9375-5.4748 9.6789-0.9459 20.603 10.594 25.5 8.241 3.4968 18.682-1.3309 25.75-11.875 3.9258-5.8562 4.8487-8.4617 8.3125-23.188 1.5942-6.7787 1.4506-18.024-0.375-28.344-4.1506-23.461-1.0663-52.682 7-66.406 14.464-24.61 14.196-40.728-0.75-45.812-2.7115-0.92245-5.362-1.3277-7.9375-1.2188zm-0.9375 3.75c20.975 0.0763 20.409 21.001 8.7812 27.438-4.5093 2.015-10.02 2.4881-15.531-1.125-6.1913-3.578-5.3487 0.504 1.0625 5.1562 7.5281 5.4624 10.737 5.1257 6.6875 17.938-3.7706 11.931-5.7498 37.723-3.6875 52.375 5.6432 40.089 0.8727 60.075-16 67.031-8.3157 3.4286-17.292-1.4041-19.6-8.0838-3.6124-10.454 2.8193-19.427 18.698-16.916 0 0 1.1215-3.3308-3.0041-38.125-5.7393-48.404-3.4805-82.192 5.4063-94 4.7471-6.3075 10.879-11.71 17.188-11.688zm142.28 49.906c-4.9021 0.04079-10.18 1.3723-15.562 4.4062 0 0-0.5807 21.765-1.2188 25.062-3.5645 18.413-2.5205 20.605 6.0625 23.219 20.82 6.3385 37.917-7.4708 37.156-29.125-0.4274-12.171-11.731-23.685-26.438-23.562zm2.8126 2.9062c11.38-0.34253 21.712 12.961 20.594 25.5-0.599 15.005-14.948 23.184-27.812 20.562-3.8067-0.57596-7.7444-1.2974-8.9688-4.1562-2.5774-3.9747 1.5691-5.4159 10.219-5.375 9.4727 0.04477 11.23-1.2548 14.375-6.5625 6.2286-10.514-1.7414-23.844-11.906-21.344-3.4671 0.85274-3.9741 2.4223 0.094 3.5625 12.456 5.6142 7.8195 13.448 3.5 16.625-5.1376 3.7782-13.638-1.4006-15.094-4.5312l0.875-20.312s4.1152-3.8546 14.125-3.9688zm-128.4 94.128s-4.7448 2.2667-7.0312 4.375c-5.0335 4.6427-6.0879 11.681-3.625 18.594 1.0904 3.0619 0.9189 3.5785-2.9062 8.5625-10.897 14.197-12.3 21.291-6.7188 34.094 2.5344 5.8138 2.5521 5.813 0.1562 13.5-10.274 32.971-30.548 70.339-52.187 96.219-3.3462 4.0016-4.6876 8.0938-4.6876 8.0938s5.0656-0.25836 7.875-1.6562c22.361-11.126 45.981-32.679 67.938-46.812-34.724 28.169-71.719 53.375-71.719 53.375l47.25 2.5312c-11.864 12.165-219.05 187.72-164.03 502.59 64.676-16.085 94.771-42.766 129.25-73.625 0.3231 25.373 0.8761 93.656 1.0937 93.656 0.6577-1.1232-29.929-11.52-22.656 13.656 4.3262 13.812 6.5156 48.768-1.1562 68.5-0.3246 0.83497 3.2981 2.1598 2.9375 2.9375-0.4139 0.89287-4.9063 0.90625-4.9063 0.90625-11.744 21.902-41.989 26.702-56.896 26.041-5.4999-0.52035-3.2774 7.0169-2.5524 9.7411 2.7722 11.279 15.768 35.431 40.043 74.218l6.375 0.84375-3.6875 3.4062c2.8608 5.2206 10.522 15.041 10.522 15.041l0.3331 3.3308s13.318 18.535 20.461 27.238c0.4881 0.59458 1.6024-0.81329 2.093-0.22341 3.9626 4.7643 8.7201 10.103 12.752 14.855 0.3115 0.36722-0.6238 1.725-0.3056 2.0718 7.5906 8.2721 22.511 24.994 22.511 24.994l2.9664-0.713 11.73 13.219c97.339-44.262 199.06-142.18 198-141.97l0.8349-210.74-115.25-0.34375-0.4911-279.17 115.12 113.81-0.75-32.656c-26.113-24.828-131.06-130.72-131.06-130.72 15.276-2.1269 30.073-7.0912 44.406-14.875 25.032 13.772 51.8 22.047 82.469 17.969l-0.125-30.969c-34.818-0.0616-56.413-11.601-72.031-25.531l-21.5-0.71875c-39.715 30.201-67.795 16.187-98 10.25l-20.875-30.062 213.84-1.0938-1.5313-72.969-32.469 0.71875-21.094-15.594 24.469 10.344s-0.3857-4.0182-5.2813-11.656c-13.181-21.538-29.909-53.232-39.938-80.875-4.8525-14.042-4.8444-13.462-0.75-21.688 5.6248-11.302 4.4056-24.988-3-32.688-5.2194-5.4264-5.0538-6.585-3.3438-10.625 6.9415-16.01-9.8065-21.903-9.875-20.875-35.815 13.805-83.864-0.41441-83-0.84375zm83.313 5.8125c7.1505-0.06198 7.9315 3.0787 7.9062 8.4062-0.6082 9.7637-13.32 13.299-19.062 14.656-27.478 6.2927-75.383 2.5666-78.5-10.25-2.2907-9.42 3.582-14.641 23.094-9.9688 31.361 6.7382 50.767-0.50939 66.563-2.8438zm-88.7 27.188c2.8516-0.01975 6.2722 2.8828 7.25 7.625 0.8349 4.0486-3.3792 15.971-6.9062 18.719-8.7304 6.8007-16.616-3.7756-10.781-15.281 3.3638-6.6336 6.7717-11.037 10.437-11.062zm93.75 1.3438c1.3052 0.03294 3.6401 0.30206 5.1563 1.375 6.9186 4.8946 7.562 21.834 1.0937 24.281-6.5916 2.4938-12.707-4.3774-12.656-15.156 0.031-6.6031 2.4907-10.599 6.4062-10.5zm-21.969 3.5c1.408-0.07058 2.902 0.22958 4.4375 0.9375 5.7653 2.6599 8.5619 20.425 2.8438 26.094-4.4334 4.395-13.967 4.1553-16.75-4.9688-3.3257-10.905 1.8666-21.681 9.4687-22.062zm-48.719 0.5c8.4393 0.05715 10.359 18.831 2.0937 26.562-6.9114 6.4648-17.465 0.10034-14.156-12.719 1.654-6.4083 5.449-13.395 12.063-13.844zm24 3c12.355 2.1093 11.31 32.364-4.875 29.344-9.2162-6.4289-8.9671-28.893 4.875-29.344zm-54.031 32.406 17.469 1.625s-22.612 48.929-43.281 67.625c-7.7313 7.8349-12.186 8.1668-6.3125-0.1875 12.96-16.011 32.125-69.062 32.125-69.062zm104.72 0.3125c10.201 27.202 20.672 54.812 34.594 82.625-21.158-20.395-39.904-51.753-57.188-81.188zm-82.125 2.625 11.563 0.125c3.8487 17.618 10.511 28.849 18.344 38.5 6.7755-11.448 11.058-24.029 15.219-37.438l9.1876-0.125c3.5171 2.0964-10.811 55.2-24.844 61.656-14.863-12.067-27.392-44.689-29.469-62.719zm-4.875 12.562c-0.9702 1.2692 17.959 46.754 33.969 61.344 15.092-14.644 24.72-33.94 31.188-56.938l49.656 69.688-48.406-33.125c-9.6703 16.058-19.932 31.376-32.25 44.125-13.286-14.369-24.785-31.416-36.844-47.625-18.68 13.839-31.781 28.621-56.031 41.531 0.1083 0.5413 47.515-51.131 58.719-79zm-4.6562 49.531 33.781 41.281-89.937-1.2812zm73.156 0.65625 56.75 39.062-84.562 0.875zm-452.16 19.219s0.4761 2.478 1.0312 3.9688c10.07 41.087 37.856 75.245 79.656 71.188l-137.41 137.34s-22.688-76.987-68.656-155.91c0 0 8.3879 1.7255 14.938 3 6.1405 0.93663 10.804 0.64412 15.406-0.5625 3.5156-0.51864 6.2043-2.8205 9.3437-3.5 5.2968-1.1103 11.949 0.79753 15.469 2.0312 9.441 1.7857 15.868-3.4971 27.688-13.938 3.1455-2.7787 4.3511-2.1045 8.3124-2.0938 14.81 0.0395 24.258-12.668 22.594-32.375l-0.75-8.75-1.875 9.8438c-3.5345 18.556-6.0046 26.557-24.375 27.344-4.4485 0.1904-6.1231 3.1811-13.156 9.2188-9.8498 8.4555-16.803 9.1816-23.781 5.875-7.1193-3.3733-7.7818-1.3898-14.5 1.8125-7.6941 3.6675-18.899 3.2371-29 0.34375-14.099-4.0389-12.375-2.6875-12.375-2.6875 81.654 145.33 110.34 284.72 108.53 408.53-2.5762 176.42-64.294 318.81-118.44 404.66 0 0 9.2917-0.9434 17.563-2.1562 3.9902-1.1087 7.0594-0.041 11 1.3437 3.6795 1.2934 6.4583 1.2292 10.062 0.8125 2.8172-0.3215 9.696 0.052 14.125 0.6875 10.048 1.4411 10.715 0.125 21.656-10.5 31.053-30.16 29.032-29.042 51.531-28.312 33.756 1.0952 60.751 23.361 72 59.469 1.4216 4.5632 3.284 10.969 3.5367 10.969l-2.193-9.5625c-9.8817-48.41-51.28-66.116-85.844-65.469l145.88-146.25c-0.7448 0.13847 33.811 111.28 63.906 160.81 0.049 0.341-9.1296-3.9534-25.911-1.7769-9.1232 1.1834-19.332-0.022-25.064-1.0008-7.3769-0.1839-11.869 1.9892-21.056 9.5589-3.8169 3.2682-7.2546 6.8481-14.719 10-17.742 7.4917-24.814 15.238-24.906 34.688-0.017 3.536-0.5557 8.06-0.5 9.8125 0.015 0.4647-0.022 1.2982 0.094 1.2996 0.2983 0 0.7138-0.7276 1.0625-1.2371 0.8855-1.2938 2.6737-4.8166 4.0509-12.963 2.4576-14.545 5.5193-19.634 19.294-26.08 4.134-1.9365 12.838-7.2041 16.702-10.286 12.695-10.123 16.926-12.437 27.236-10.041 5.8663 1.3677 10.848 2.0717 18.717 1.1188 9.3575-1.1322 9.906-1.612 19.917 0.9688 6.7922 1.7505 15.196 3.4499 15.196 3.4499-141.38-283.91-136.72-547.1 2.8251-814.14 0 0-41.306 0.48825-43.062 1.5625-0.6668 0.40739-5.6865-0.0438-11.156-1.0312-11.241-2.0293-8.7798-0.66718-35.313 26-32.798 32.966-85.263 6.6704-101.06-48.656-0.8264-2.8933-1.5367-4.6371-2.7813-6.6875-0.3966-0.65338-1.4375-1.75-1.4375-1.75zm133.66 32.468c6.0745 0.64354 10.599 2.2459 9.8437 7.9331l-194.72 190.66-3.0312-12.281zm41.058 1.1572c-2.3979 4.7335-8.8985 10.661-11.75 15.125l10.594 13.188-5.875 10.625-16.281-13.688-31 30.594 25.844 29-24.469 24.688-8.1562-9.2188 12.938-13.531-20.094-18.812-35.406 34.406 28.844 29.312-21.156 20.281-8.4375-8 11.094-12.25-18.812-19.438-32.969 33.625 26.094 29.031-20.156 20-8.9375-9.0625 9.6875-10.094-18.656-19.531-33.594 33.125 27.25 29.562-20.031 17.906-7.0624-7.4688 9.6874-10.406-18.312-19.594-20.844 18.906-3.4688-12.969 206.19-204.81zm11.875 3.0312-8.6876 17.438-6.7187-7.375 8.75-9zm-486.31 1.125c-5.3447 1.303-128.11 69.687-198 144.75l-0.2187 27.969-2.5937 3.3438 1.25 43.281 1.75 2.3125 0.5937 17.656-2.7813 4.6562-0.031 48.469 3.7188 0.625 0.5937 59.312 114.81 0.3125-0.125 283.38s-67.419-74.103-115.97-117.84l0.1876 33.125 128.44 132.69c-8.8341 1.2409-20.327 3.376-37.656 12.938-41.673-26.027-89.844-18.062-89.844-18.062l0.1876 33.75c30.63-2.9564 58.276 1.2314 90.469 22.906 26.505-17.965 58.445-28.893 106.06-14.625 10.479 16.594 20.957 33.713 31.436 44.842l-227.4 1.6893 0.2813 68.344c10.089 0.2031 35.312 0 35.312 0 12.792 25.059 37.931 59.267 48.37 102.31-14.33 17.21-13.185 31.062 0.7537 48.394-0.1225 7.8167-2.4773 16.453 6.3094 25.161 28.931-14.145 61.599-7.8671 85.911-0.644 8.2373 2.4474 11.352-6.9367 11.063-18.747-0.7325-6.7607-0.6964-9.6541 4.4991-14.158 12.371-10.725 4.6893-32.758 2.7509-33.248-0.7165-19.318 61.207-116.11 61.247-114.33l-12.339 4.467-52.939 0.2401c139.24-134.25 197.43-287.39 185.25-460.31-2.7176-43.57-9.5-63.531-9.5-63.531-49.043 21.79-89.348 37.634-128.5 79.562l-2.5938-90.125c2.1787 4.268 16.712 8.204 23.219 2.75 4.4541-2.9137 4.9017-6.0302 0.7812-16.969-5.9812-15.878-7.3985-49.931-2.9374-61.5 0.521-1.351 0.966-4.944 1.3437-8.4688 0.5089-4.7438-0.5332-5.0161-0.9687-4.9375 1.1404-0.27751 5.9256 0.69263 6.5 0.1875 16.728-14.716 34.673-23.914 56.687-24.875l0.5626-10.75c-16.326-41.226-30.152-57.39-44.938-80.438 0 0-4.1931-1.3907-6.8437-0.84375l3.4063-3.5938c-20.746-32.916-50.266-62.872-77.406-91.312 0.078-0.0995 0.016-0.13618-0.1563-0.0937zm-0.9062 5.5938 14.719 13.594c-70.24 33.759-139.54 83.223-207.78 150.31l0.9375-24.656c77.132-72.535 135.32-107.38 192.12-139.25zm451.09 24.656 8.8437 8.8125-12.25 14.219 7.9687 8.125-4.4374 10.844-20.375-21.156zm-438.5 1.125c4.6253 0 8.375 3.7496 8.375 8.375s-3.7497 8.375-8.375 8.375c-4.625 0-8.375-3.7496-8.375-8.375s3.75-8.375 8.375-8.375zm601.06 11.562c143.18 159.36 69.66 390.96-121.47 446.59l-2.125-13.094c192.7-64.95 237.9-282.24 112.8-418.85zm-576.25 1.0625 9.125 10.562c-81.628 38.966-161.25 97.378-238.22 181.66l-0.75-21.281c72.286-75.978 149.56-130.95 229.84-170.94zm-52.656 3.25c4.6253 0 8.375 3.7496 8.375 8.375s-3.7497 8.375-8.375 8.375c-4.6254 0-8.375-3.7496-8.375-8.375s3.7496-8.375 8.375-8.375zm-25.5 15.75c4.6254 0 8.375 3.7496 8.375 8.375s-3.7496 8.375-8.375 8.375c-4.6253 0-8.375-3.7496-8.375-8.375s3.7497-8.375 8.375-8.375zm84.906 5.5c4.625 0 8.375 3.7496 8.375 8.375s-3.75 8.375-8.375 8.375c-4.6253 0-8.375-3.7496-8.375-8.375s3.7497-8.375 8.375-8.375zm363.72 5.7812 8.375 8.8438-13.281 13.312 18.906 19.75 18.188-17.5-9.125 26.062-160.34 160.25-3.3438-16.812 12.625-12.688-19.344-19.312-3.4062-12.875 19.031-17.812 7.9688 8.1875-11.125 12.844 17.906 17.625 32.531-29.938-26.844-29.469 22.156-21.438 7.6562 7.4688-10.594 10.906 18.656 20.219 33.375-31.969-27.406-28.969 22.031-21.719 8.3437 7.9688-11.094 13.312 18.969 18.344 32.688-32.281-26.875-28.25zm-473.62 5.625c4.6254 0 8.375 3.7496 8.375 8.375s-3.7496 8.375-8.375 8.375c-4.6253 0-8.375-3.7496-8.375-8.375s3.7497-8.375 8.375-8.375zm132.06 1.625 6.375 10.594c-97.177 49.089-164.39 98.264-263.84 211.25v-14.219c76.779-94.267 156.61-155.04 257.47-207.62zm-48.812 1.25c4.6254 0 8.375 3.7496 8.375 8.375s-3.7496 8.375-8.375 8.375c-4.6253 0-8.375-3.7496-8.375-8.375s3.7497-8.375 8.375-8.375zm751.91 3.2188c17.142 15.253 53.144 30.457 76.344 28.844l0.625 18.344c-40.468 3.8416-75.812-22.062-75.812-22.062-31.17 19-62.895 21.399-95.969 13.156l-12.719-27.25c49.049 22.736 95.05 1.0399 107.53-11.031zm-193.66 4.9688c1.7986 3.3174 7.8438 7.1562 7.8438 7.1562 37.753-9.8272 49.512 29.084 31.906 51.312l5.0312 16.312c6.736 1.2215 12.646 3.5859 17.438 6.9062 9.1853 6.3662 14.24 17.396 13.094 28.969 1.281 12.54-17.482 24.216-18.5 23.344l-0.25 17.938c5.2791 4.397 11.638 8.6523 15.688 14.875 9.0243 15.144 5.4435 30.404-8.4688 40-8.2838 5.5947-17.266 6.3322-17.625 5.75l-8.7187 20.375c7.6768 4.3324 9.829 11.702 11.031 16.969 2.6066 11.419-5.4091 26.291-15.469 31.781-12.701 6.9314-30.015 0.77277-30 0.78125l-12.375 12.375c3.1851 10.721 4.0604 17.116 2.375 23.406-4.1703 15.565-20.487 21.668-33.594 20.5-10.292-0.91749-18.031-8.4375-18.031-8.4375l-13.719 5.25c0.3848 0 0.2033 17.372-6.7187 22.688-2.178 2.2523-9.9063 7.25-9.9063 7.25l-1.8124-11.969c5.4353-3.914 8.8147-13.4 7.7187-20.344l29.625-14.5c0 1.0727 8.1109 8.9327 13.656 10.062 11.373 2.3172 23.257-6.5578 23.281-17 0.014-6.0914-3.5008-10.239-4.5-15.156l25.156-26.031c10.41 3.5778 17.718 4.1868 22.375 1.5 8.7927-5.0729 11.162-15.545 9.4688-21.844-2.002-7.4471-8.6435-12.264-9.0938-12.969l14.031-35.469c6.5395-0.0341 10.587-1.06 15.688-4.375 10.402-6.8307 9.0581-20.104 4.625-26.406-5.3941-7.668-13.23-9.0898-13.844-8.9062l1.0313-36.844c0 0.29978 14.193-6.8174 15.719-15.031 2.249-12.098-2.8528-19.795-17.719-23.219-8.2457-1.8992-7.8125-0.3125-7.8125-0.3125l-11.8-33.35c18.622-11.354 12.719-29.411 3.2812-35.469-9.952-6.3885-24-0.46875-24-0.46875s-6.4002-6.351-11.25-11.469zm-498.31 6.75c12.235 16.453 32.952 49.412 44.531 78.906 0.505 1.2868 0.25 7.8125 0.25 7.8125-33.038 2.873-44.386 15.824-56.125 24.938-9.1043-4.6735-12.941-10.149-29.406 0.15625-0.053 0.48548-41.978-25.358-50-60.438 29.972-18.47 58.53-36.052 90.75-51.375zm-167.72 0.21875c4.6253 0 8.375 3.7496 8.375 8.375s-3.7497 8.375-8.375 8.375c-4.6254 0-8.375-3.7496-8.375-8.375s3.7496-8.375 8.375-8.375zm79.406 1.6562c4.6254 0 8.375 3.7496 8.375 8.375s-3.7496 8.375-8.375 8.375c-4.625 0-8.375-3.7496-8.375-8.375s3.75-8.375 8.375-8.375zm573.12 10.281c14.44 18.999 36.199 54.929 41.375 86.75 7.2794 44.754 2.432 91.703-18.094 124.53-37.235 70.126-101.8 85.059-101.84 87.5l-0.6563-14.375c0.6065 3.2345 49.35-17.302 82.531-63.656 20.483-31.414 32.116-76.31 28.156-111.34-2.4635-50.488-38.294-97.048-38.594-97.219zm-678.66 6.8438c4.6253 0 8.375 3.7496 8.375 8.375s-3.7497 8.375-8.375 8.375c-4.6254 0-8.375-3.7496-8.375-8.375s3.7496-8.375 8.375-8.375zm79.312 0.125c4.6254 0 8.375 3.7496 8.375 8.375s-3.7496 8.375-8.375 8.375c-4.625 0-8.375-3.7496-8.375-8.375s3.75-8.375 8.375-8.375zm715.06 14.125c18.587 2.0141 41.313 35.707 62 54.938l0.2187 274.69-61.781 1.25c-8.0452 19.327-26.708 38.425-56.437 57.281l-0.031-102.94c101.38-108.61 73.798-227.48 56.031-285.22zm-817.12 3.125c4.6253 0 8.375 3.7496 8.375 8.375s-3.7497 8.375-8.375 8.375c-4.6254 0-8.375-3.7496-8.375-8.375s3.7496-8.375 8.375-8.375zm76.344 1.5c4.6254 0 8.375 3.7496 8.375 8.375s-3.7496 8.375-8.375 8.375c-4.625 0-8.375-3.7496-8.375-8.375s3.75-8.375 8.375-8.375zm784.34 0.65625 126.31 127.34-0.4376 18.688-142.34-144.62zm-738 11.98l3.3438 16c-4.0816-6.4122-4.2358-8.7844-11.313-9.9062zm-68.375 4.6562c4.6254 0 8.375 3.7496 8.375 8.375s-3.7496 8.375-8.375 8.375c-4.6253 0-8.375-3.7496-8.375-8.375s3.7497-8.375 8.375-8.375zm-75.656 2.3438c4.6253 0 8.375 3.7496 8.375 8.375s-3.7497 8.375-8.375 8.375c-4.6254 0-8.375-3.7496-8.375-8.375s3.7496-8.375 8.375-8.375zm710.66 0 24.938 17.656-8.125 31.844-25.531-22.938zm-576.28 2.5938 4.4374 2.625-5.1562 21.781-57.406 20.719c18.458-15.759 37.434-32.94 58.125-45.125zm9.4062 10.125c4.0823 16.143 12.933 40.016 23.787 60.234-7.3672 3.8081-33.856 18.795-33.787 25.766 3.7377 12.63 31.719 24.219 31.719 24.219-10.613 17.194-20.681 37.46-28.938 60.781-4.7802-8.1413-5.3332-40.243 4.9688-53.594-10.161-4.0046-24.06-13.159-34.625-22.625 6.8138-24.108 35.853-38.506 37.125-38.688-0.5089 1.2136-8.576-50.359-0.25-56.094zm-93.188 4.0625c4.6253 0 8.375 3.7496 8.375 8.375s-3.7497 8.375-8.375 8.375c-4.6254 0-8.375-3.7496-8.375-8.375s3.7496-8.375 8.375-8.375zm639.38 0.6875c37.264 69.422 15.102 129.72-44.344 172.94l1.375-16.375c41.014-29.755 67.576-88.331 37.625-144.19zm-710.12 2c4.6254 0 8.375 3.7496 8.375 8.375s-3.7496 8.375-8.375 8.375c-4.625 0-8.375-3.7496-8.375-8.375s3.75-8.375 8.375-8.375zm596.09 0.4375c-27.348 101.93-26.667 148.65-29.844 176.28l-106.2 0.9-4.1-36.75zm-424.09 2.8125s23.026 21.372 43.688 40.031l-2.4688 4.875-20.094 2.6875c-15.373-30.275-21.125-47.594-21.125-47.594zm-19.062 11.188 0.1562 0.0312 1.2813 15.188c-6.8989-0.25825-81.553 30.927-138.91 80.719 8.5487-15.058 22.966-29.499 36.906-41.812 29.655-29.109 100.56-54.125 100.56-54.125zm-106.12 3.4688c4.6254 0 8.375 3.7496 8.375 8.375s-3.7496 8.375-8.375 8.375c-4.6253 0-8.375-3.7496-8.375-8.375s3.7497-8.375 8.375-8.375zm47 9.5312 4.25 4.375-19.812 10.25zm138.12 4.4688c0.2704-0.0104 0.5617-0.004 0.8438 0.0312 3.0659 0.38561 4.3389 1.8393 6.0937 3.3125-3.8778-0.80538-7.6844-1.2586-11.312-1.0625 0.9141-1.0922 2.4821-2.2082 4.375-2.2812zm-75.812 3.1562 1.8125 11.344c-42.955 24.42-94.055 47.5-168.41 117.79v-23.382c46.664-43.228 101.09-79.48 166.59-105.75zm57.781 1.0625c2.6801 0.65706 5.0646 0.69396 7.5 0.0937 0 0-1.5591 3.0856-3.4063 3.1562-1.9505 0.0746-4.0937-3.25-4.0937-3.25zm18.219 0.65625c5.3985-0.33452 9.0876 4.6072 8 10.969-4.1484 21.561-3.9859 43.397 0.4687 58.656 3.4723 11.894 4.35 16.075 1.4688 18.062-25.321 17.463-39.205-61.264-18.062-83.594 2.8663-2.6954 5.6712-3.9417 8.125-4.0938zm-206.78 2.75c4.6254 0 8.375 3.7496 8.375 8.375s-3.7496 8.375-8.375 8.375c-4.6253 0-8.375-3.7496-8.375-8.375s3.7497-8.375 8.375-8.375zm727.72 1.9375 15.75 26.406-21.938 24.562-13.344-28.531zm-542 14.344-0.8178 9.1187c-11.31 3.4323-21.169 8.3037-29.651 15.506-1.6397 1.4055 26.203 13.967 29.125 11.062l-0.062 9.7188c-0.388 3.1939-46.037-11.305-49.125-22.125 5.1758-7.1963 34.059-23.93 50.531-23.281zm-207.75 4.8438c4.6254 0 8.375 3.7496 8.375 8.375s-3.7496 8.375-8.375 8.375c-4.625 0-8.375-3.7496-8.375-8.375s3.75-8.375 8.375-8.375zm124.51 9.617c-3.2396 6.1543-8.0379 14.331-8.9581 23.269-31.319 18.992-63.438 36.73-102.52 80.302l-21.062-0.125-0.4688-5.5312c42.712-40.717 88.963-75.848 133.01-97.914zm80.68 2.633 0.2187 11.469c-7.2824 0.0917-11.26-2.2831-16.687-5.0312 4.5747-2.8878 8.1157-5.7536 16.469-6.4375zm235.66 1.2188 5.875 6.1562-3.6563 3.4375zm-317.31 23.844 11.594 7.2188c-29.851 15.575-61.278 38.591-88.469 68.656h-22.969c29.007-31.441 60.254-59.647 99.844-75.875zm618.5 8.2812 2.3126 31.188-29.125 15.969 0.5624-32.906zm-553.88 0.125 20.031 2.1875 2.0625 8.4688c-16.806 10.688-31.407 23.223-45.406 36.25 5.3613-16.735 13.729-33.347 23.312-46.906zm-48.031 3.3438 8.5938 3.9688-3.4063 14.656c-24.54 10.908-44.093 25.642-65.031 45.5h-23.562c20.635-22.114 54.947-49.947 83.406-64.125zm74.531 13.781c0.071-0.008 0.1-0.008 0.094 0.0312l3.125 96.125c-86.521 101.29-81.822 199.24-56.594 288.06l-16.5-0.75c-19.1-23.82-44.6-48.09-44.6-48.09l-0.063-279.62 59.656 0.21875c14.068-32.546 52.758-55.707 54.969-55.969zm-70.437 13.5 0.7187 12.812c-12.336 7.32-22.809 15.378-31.812 24.031h-22.406c15.49-14.414 30.864-28.926 53.5-36.844zm203.41 6.2812 3.2812 15.125c-200.82 72.64-237.11 283.82-118.59 428.78l-8.0625 9c-136-146.13-76.3-384.85 123.5-452.89zm-201.81 15.125s1.0958 11.586 1.4375 15.438h-22.5c5.0615-5.9319 9.5543-12.084 21.062-15.438zm565.12 4.8438-12.938 30.156-34.531 0.53125 15.687-30.156zm-218.59 20.656h31.469v30.062h-31.469zm-136.1 2.98l0.5313 13.219c-13.98 7.1157-10.453 18.429-13.969 18.25-8.5924 2.1742-31.25 14.188-31.25 14.188-8.0409-7.2845-18.871-5.4502-23.906-1.9062-6.9845 4.5704-8.5239 15.211-6.5313 24.219l-24.031 28.094c-11.607-4.9596-22.924-4.65-28.562 3.0938-6.3604 8.7353-3.9511 19.572 6.5625 31.719l-13.094 33.594c-1.5077-2.0104-23.42 4.4217-23.719 17.438-0.316 13.775 18.119 22.76 18.094 23.812l-0.875 37.062c-0.8301-1.7819-18.811 5.5574-16.375 23.312 2.2439 16.352 24.505 14.358 24.969 15.719l12.094 35.469c-0.8116-1.0821-16.391 14.169-6.8438 28.594 7.9575 12.023 31.069 4.245 30.875 3.4688l6.4062 9.0312-7.0937 7.6875s-3.0648-3.6718-4.7813-3.3438c-13.454 2.5714-28.479-0.51236-35.687-11.25-9.8133-15.15 1.1408-38.821 4.625-38.625l-8.3126-20.438c-15.146-0.29907-27.972-13.823-28.656-25.156-1.4318-23.729 18.05-33.656 18.094-33.5l0.5624-22.125c-1.1909 1.3233-19.244-11.486-18.812-26.188 0.3148-10.745 9.3643-23.384 20.5-28.469 3.2244-1.5157 8.25-3.9062 8.25-3.9062l7.5312-18.125s-10.665-15.405-7.9062-30.938c5.1309-23.517 35.782-21.904 40.625-19.625l14.219-17.812c-7.0013-16.253 5.0936-35.114 20.906-38.188 7.0288-1.1273 26.719 3.5312 26.719 3.5312l18.4-9.39c-0.3121-9.9562 10.552-16.438 20.625-22.5zm103.59 32.906h26.969v30.062h-26.969zm71.844 0h30.406v30.062h-30.406zm-173.25 7.5312-0.3438 11.5c-174.1 84.416-102.9 259.2-78.062 279.53l-5.5937 12.344c-30.55-18.578-109.31-220.26 84-303.38zm134 30.438h32.719l0.2813 30.906h-32.719zm-141.56 15.031-10.375 28.156-31.969 2.6875 11.812-28.094zm653.25 20.594 21.875 0.125c-40.897 47.832-85.032 80.431-128.59 98.281 0 0-0.1512-4.2592 1.1875-7.625 1.0613-2.6684-0.6562-9.4062-0.6562-9.4062 48.424-23.847 81.686-51.548 106.19-81.375zm-112.1 0.4062c-5.6251 6.765-12.052 12.728-20.029 17.142l-3.1553-17.423c6.6893-0.0781 23.184 0.28125 23.184 0.28125zm38.504-0.375c2.2121 5.5672-57.411 37.761-57.623 35.018l0.1545-10.705 32.175-23.875zm12.875 0h0.125l16.781 0.0937c-15.159 23.908-95.324 67.316-91.991 61.207l3.2337-17.485c25.84-11.366 49.295-26.82 71.851-43.815zm28.281 0 22.082 0.0937c-33.22 42.186-66.921 57.585-99.248 75.736-1.9428-0.28265-1.0661-1.0122-7.1176-0.83393l-11.058-8.6232c2.0669 1.8946 74.295-40.449 95.341-66.373zm-617.84 1.5-0.75 12.75c-46.474 39.965-65.115 91.036-40.938 150.31l-5.75 12.656c-26.004-63.251-18.327-124.71 47.438-175.72zm211.62 2 2.4688 34.406-144.28 140.44c21.963-78.46 28.04-125.82 33.938-174.66zm462.03 8.0938 0.063 19.094c-56.883 62.659-114.21 90.738-163.75 102.09l-1.125-7.3438 22.937-14.125c73.908-32.193 106.28-64.607 141.88-99.719zm-172.64 0.51256c1.001 13.799-11.287 39.85-25.331 54.55l-24.062-0.0625-2.6562-10.438c19.947-10.757 38.425-25.32 52.05-44.05zm7.2626 4.1124c8.8372 14.221-4.422 51.02-4.9687 49.562-1.0597 2.5373 75.593 18.74-3.1563 56.656 1.7149 11.14 9.0972 34.928 3.4063 49.625-1.7753-5.629-15.477-43.794-26.062-53.562 24.584-7.0052 42.289-22.045 40.375-27-3.9986-7.0503-15.009-15.714-33.531-22.062 15.766-21.881 20.456-38.308 23.937-53.219zm-562.97 6.9688 2.4687 29-28 16.844-2.1562-31.844zm487.12 26.938c2.1859 0.0282 4.2425 0.59376 5.25 1.6875 13.831 5.5976 14.832 73.07 2.2813 79.938-9.1213 5.7329-15.538-3.485-15.219-5.125 6.0482-31.044 2.2674-50.235-0.25-71.938 0.2672-3.1557 4.2944-4.6096 7.9375-4.5625zm241.22 1v24c-81.315 84.285-168.93 150.72-258.38 188.03l-8-13.85c108.63-50.232 199.47-121.9 266.53-198.19zm-14.281 2.1875c-37.664 52.425-83.549 86.652-146.41 102.19l-1.1876-14.875c78.285-17.784 149.63-87.312 147.59-87.312zm-1025 8.5c49.054 50.143 99.313 99.845 149.25 151.31l-19.844 1.0312-130-134.88zm583.94 2.5 1.75 12.375-14.281 15.656 22.563 24.25 1.1562 5.7188-19.375 20.25-8.75-8.6562 10.719-12.031-18.188-19.125-33.719 32.438 27.781 30.156-20.969 19.938-8.25-8.5312 10.719-12.375-18.625-19.656-34.375 34.188 26 28.719-17.344 19.188-8.2188-8.6562 8.9063-10.219-18.844-19.406-33.031 31.812 27.188 30.062-22.094 22-8.5624-8.3125 12.406-13.5-20.375-19.406-16.344 15.438s6.1658-15.317 7.0626-17.906c1.3168-3.8056 6.7288-6.8175 41.094-40.719 41.015-40.825 83.077-79.082 124-123.69zm235.25 8.25c11.988 0.20139 32.382 3.0916 42.281 8.3125 18.369 9.688 12.593 17.313 0.6562 23-14.267 6.7976-25.974 10.122-42.094 10.594l0.4688-7.9062c9.36-2.2633 19.071-4.5482 27.344-9.125 5.6903-3.1482 7.1562-5.6875 7.1562-5.6875s-5.5456-5.639-14.375-8.8438c-6.4619-2.3455-15.696-2.328-20.719-3.1562zm-536.5 10.438 15.094 22.625-17.875 29.969l-16.9-25.85zm304.47 2.4375c0.5332 4.2635 5.925 20.837 3.0938 17.625l-10.031-11.281zm232.97 2.2188c8.3454 0.70353 17.124 0.95226 23.219 3.9062-7.0674 5.4809-15.078 6.7066-23.063 8.0625zm209.6 11.3c5.0398 0 9.125 4.0854 9.125 9.125s-4.0852 9.125-9.125 9.125c-5.0396 0-9.125-4.0854-9.125-9.125s4.0854-9.125 9.125-9.125zm-470.94 15.812 7.7812 7.5312-10.062 11.719 18.25 19.219 22.594-21.156 3 13.438-211.69 208.28-11.75-0.8438 13.469-15.906-15.312-15.656 6.2812-11.25 18.063 16.062 33.094-31.656-26.812-28.219 22.938-23.531 8.6563 7.4688-13.156 14.25 19.156 19.562 34.625-34.062-27.094-29.469 21.625-20.625 7.9375 7.5312-10.062 10.656 19.75 20.562 29.188-30.375-26.562-29.25 23.594-22.969 7.25 7.25-10.875 12.125 19.844 20.531 31.844-32.719-26.219-28.438zm449.75 5.4375c5.0396 0 9.125 4.0854 9.125 9.125s-4.0854 9.125-9.125 9.125c-5.0398 0-9.125-4.0854-9.125-9.125s4.0852-9.125 9.125-9.125zm-172.06 0.40625c14.375 16.882 23.026 35.664 24.75 55.875-11.484-17.428-26.1-32.884-45.25-46.312l3.2813-8.4688zm203 1.3741v20.376c-64.13 72.654-141.98 127.42-221.91 165.53l-13.594-16.531c94.532-42.202 162.94-94.61 235.5-169.38zm-94.344 14.22-26 20.188-0.031-8.75 26.031-11.438zm-134 1.5c22.129 10.806 40.69 29.065 51.75 56.125-30.231 18.97-63.39 34.331-95 49.625-15.175-24.441-30.45-47.339-42.433-78.803 48.748-0.36153 62.122-26.992 62.464-27.197 11.748 4.4423 14.209 4.971 23.219 0.25zm175.16 3.9688c4.5435 0.0883 9.0914 3.5658 9.25 8.7812 0 5.0396-4.0854 9.125-9.125 9.125-5.0397 0-9.125-4.0854-9.125-9.125 0.9854-6.2956 4.9908-8.8592 9-8.7812zm-67.469 6 0.062 8.8125c-12.444 10.907-36.625 28.562-36.625 28.562l-10-0.53125 3.25-25c15.143-3.0505 29.816-7.4759 43.312-11.844zm-636.78 1.0312 23.875 19.625-7.3126 30.438-23.5-17.844zm320.62 5.75 2.2187 8.8125-196.16 193.91-11.156-1.8126zm361.88 7.5c5.0396 0 9.125 4.0854 9.125 9.125s-4.0854 9.125-9.125 9.125c-5.0397 0-9.125-4.0854-9.125-9.125s4.0853-9.125 9.125-9.125zm72.437-0.0625c1.0731 0 2.3438-0.0774 2.3438 0.9375v16.781c-0.9562 0.34016-1.9895 0.53125-3.0625 0.53125-5.0396 0-8.4063-4.0854-8.4063-9.125s4.0854-9.125 9.125-9.125zm-22.136 20.343c5.0396 0 9.125 4.0854 9.125 9.125s-4.0854 9.125-9.125 9.125c-5.0398 0-9.125-4.0854-9.125-9.125s4.0852-9.125 9.125-9.125zm-76.677 0.0947c5.0396 0 9.125 4.0854 9.125 9.125s-4.0854 9.125-9.125 9.125c-5.0397 0-9.125-4.0854-9.125-9.125s4.0853-9.125 9.125-9.125zm-65.969 2.8125 9.375 0.3125-17.438 10.375c3.2015-4.0057 6.191-7.0743 8.0625-10.688zm167.25 4.2687 0.125 18.763c-44.869 44.848-101.53 91.375-188.16 136.22l-11.042-11.178c70.8-33.63 137-80.83 199.2-143.74zm-127.41 10.231c5.0396 0 9.125 4.0854 9.125 9.125s-4.0854 9.125-9.125 9.125c-5.0397 0-9.125-4.0854-9.125-9.125s4.0853-9.125 9.125-9.125zm81.125 0.6875c5.0395 0 9.125 4.0854 9.125 9.125s-4.0854 9.125-9.125 9.125c-5.0397 0-9.125-4.0854-9.125-9.125s4.0853-9.125 9.125-9.125zm-908.75 36.625c30.958-17.968 55.845-20.075 91.312-14.656l10.7 20.91c-34.536-6.1206-70.919-5.5743-102.03 18.437-32.24-20.371-56.734-26.25-83.209-22.938l-0.4786-22.038c34.505-4.8212 65.471 7.0021 83.813 20.29zm802.47-19.875c5.0397 0 9.125 4.0854 9.125 9.125s-4.0853 9.125-9.125 9.125c-5.0396 0-9.125-4.0854-9.125-9.125s4.0854-9.125 9.125-9.125zm83.437 3.75c5.0396 0 9.125 4.0854 9.125 9.125s-4.0854 9.125-9.125 9.125c-5.0397 0-9.125-4.0854-9.125-9.125s4.0853-9.125 9.125-9.125zm-110.8 13.63c5.0397 0 9.125 4.0854 9.125 9.125s-4.0853 9.125-9.125 9.125c-5.0396 0-9.125-4.0854-9.125-9.125s4.0854-9.125 9.125-9.125zm85.072 5.291c5.0396 0 9.125 4.0854 9.125 9.125s-4.0854 9.125-9.125 9.125c-5.0397 0-9.125-4.0854-9.125-9.125s4.0853-9.125 9.125-9.125zm-113.2 10.83c5.1086 0 9.25 4.1414 9.25 9.25s-4.1414 9.25-9.25 9.25-9.25-4.1414-9.25-9.25 4.1414-9.25 9.25-9.25zm88.812 7.6553c5.0397 0 9.125 4.0854 9.125 9.125s-4.0853 9.125-9.125 9.125c-5.0396 0-9.125-4.0854-9.125-9.125s4.0854-9.125 9.125-9.125zm-115.84 6.3134c5.0396 0 9.125 4.0854 9.125 9.125s-4.0854 9.125-9.125 9.125c-5.0397 0-9.125-4.0854-9.125-9.125s4.0853-9.125 9.125-9.125zm-403.41 8.25 22.688 20.781-23.469 23.562-8.5937-8.25 13.062-13.656-8.8438-11.906zm494.07 2.0196c5.0397 0 9.125 4.0854 9.125 9.125s-4.0853 9.125-9.125 9.125c-5.0396 0-9.125-4.0854-9.125-9.125s4.0854-9.125 9.125-9.125zm-26.271 15.448c5.0397 0 9.125 4.0854 9.125 9.125s-4.0853 9.125-9.125 9.125c-5.0396 0-9.125-4.0854-9.125-9.125s4.0854-9.125 9.125-9.125zm-28.552 15.5c5.0397 0 9.125 4.0856 9.125 9.1249 0 5.0396-4.0853 9.125-9.125 9.125-5.0396 0-9.125-4.0854-9.125-9.125 0-5.0393 4.0854-9.1249 9.125-9.1249zm-469.28 25.813 7.4063 6.0312-11.625 14-8.875-0.125zm-143.34 37.75c-25.863 12.798-38.152 20.901-56.188 36.594l-25.844-35.844zm-175.97 0.25 68.875 0.9688-22.906 32.406c-15.105-15.921-30.418-26.734-45.969-33.375zm82.031 3.5312c7.4651 2.3753 26.996 30.211 36.188 45.406 19.587-15.577 38.768-32.983 59.688-42.344-24.875 26.268-46.713 53.442-62.25 79.719-4.4083-11.847-16.67-45.762-32.188-60.5-24.483 22.853-34.156 50.438-34.156 50.438-13.17-22.434-29.031-44.915-47.375-65.938-3.0381-4.0967 22.326 11.665 47.438 36.094 7.0689-17.812 25.994-42.174 32.656-42.875zm-82.719 17.5c11.826 9.3935 43.99 50.653 47.688 75.469l-15.406 0.9688c-8.1914-25.485-21.954-50.953-32.281-76.438zm171.28 4.2188c-11.648 23.885-26.096 48.284-36.469 74.719l-15.219-0.6563c16.671-36.43 22.742-43.095 51.688-74.062zm-87.3 10.8c0.1458-0.015 0.2812 0.021 0.375 0.094 14.463 19.74 21.288 38.929 25.594 62.281l-11.188-0.4375s-7.8047-23.441-13.156-31.719c-3.4668-5.0584-6.2436-4.4125-8.6874-0.2188-5.5211 9.9092-7.5881 19.837-10.688 30.625l-12.875-0.9375c-2.3807-17.696 26.108-59.233 30.625-59.688zm-2.0312 68.031c5.2327 0.072 10.702 5.7367 10.655 15.697 0.4085 4.6679-3.2241 15.022-7.1553 15.553-7.2963 3.8645-15.922-8.1625-13.752-18.188 1.8509-8.5496 5.634-13.117 10.252-13.062zm-25.336 1.8849c10.34 0.9179 12.564 24.103 8.375 28.844-4.8119 4.7693-17.533 1.3853-18.738-6.875-4.1512-10.518 3.4173-21.863 10.363-21.969zm50.961-0.1349c11.257 1.5779 8.4233 27.03 2.6027 30.77-9.055 4.7889-15.951-3.2156-12.896-15.178 2.4616-9.6375 6.1297-15.367 10.293-15.592zm26.031 4.2188c12.896 1.4408 5.4446 23.852-0.1884 28.415-8.1799 6.3723-16.08-3.1563-12.155-14.54 3.0427-8.8228 8.0986-13.939 12.344-13.875zm-104.08 0.6875c9.379 1.4993 14.816 22.727 9.2304 28.79-2.9132 3.4764-11.396-1.5959-15.271-7.4152-4.6502-6.9841-0.2921-21.405 6.0402-21.375zm99.854 46.23c1.1154 11.145-7.2912 11.141-31.519 5.708-12.235-2.744-33.917-1.0106-45 1-18.649 3.3832-21.286 2.0906-21.25-5.5 0.042-8.8067 10.494-13.806 34.686-14.553 17.31-0.5341 60.397-0.703 63.083 13.345zm37.669-6.542c-28.85 2.7144-36.523 38.865-33.344 52.219 2.5335 22.323 1.4554 45.703-2.8438 61.062-3.0797 11.034-5.8186 22.785-10.781 32.781-7.5899 15.107-5.6324 26.322 5.625 32.344 9.2417 4.9457 20.621 3.2547 27.75-4.4062 12.889-13.85 14.427-43.245 6.5312-109.94-2.7862-23.535-1.2919-28.228 10.125-26.906 23.965-0.1856 23.006-37.12-3.0624-37.156zm-3.4688 30.375c-6.4522-2.4922-10.825 3.3671-9.9688 17.969 0.2245 6.4791 1.3678 13.762 2.1876 19.562 9.3294 63.989 5.8387 106.86-13.813 108.97-17.108 2.7435-28.691-9.8484-20.344-22.875 4.7275-7.3769 8.8019-8.3738 18-4.5 12.644 7.8401 9.4736-3.578-1.9063-12-7.3006-5.164-7.8553-5.1641-3.9374-21.312 5.2838-21.783 7.0634-37.32 5.125-64.875-2.7275-19.487 3.7845-45.342 28.595-46.865 25.088-0.7555 17.519 34.869-3.9387 25.928zm-177.09 84.281c8.165 3.9412 16.107 3.2692 23.875 0.063 3.0312-13.6 3.2151-24.922 12.372-43.422-15.253-15.262-40.92-9.265-48.147 6.7331s-0.497 30.642 11.9 36.626zm24.469-47.228c9.2442 1.9653 7.8574 11.675-0.8438 8.5089-20.738-9.7655-37.649 19.624-20.906 30.688 8.5409 4.7775 12.314 2.0354 3.8438-4.5312-3.4718-3.9928-2.5962-5.6187-0.5-9.625 4.3485-8.0763 20.146-6.769 19.031-0.9063-3.5976 18.614-5.971 23.987-11.562 24.031-32.206 1.6589-38.271-58.627 10.938-48.165zm273.59 33.478s-95.944 108.47-142.16 164.03l579.22-2.6875-110.22-152.06c-94.553 21.826-205.65 15.523-326.84-9.2813zm-2.875 34.656c14.468 0.1573 30.926 10.667 45.156 45.688 0.7707 0.3303 63.702-95.564 118.19 3.7188 8.8934-22.286 60.214-80.421 119.53-5.8126 21.072-49.93 69.663-33.042 74.219-15.625-1.0225-3.749-46.303-14.499-65.906 18.594-3.6253 7.0103-3.8083 13.654 0.3438 17.594 9.7914 9.2862-0.8696 22.596-12.022 15.026-4.3498-2.948-4.9011-9.1443-1.5679-13.609 9.8459-7.3399-10.324-30.171-26.91-38.386-22.762-11.275-54.509-6.2998-69.771 9.8794-8.2096 8.7018-13.225 16.515-14.428 22.76-0.6347 2.9007-0.2462 4.4149 1.4767 6.3515 6.6215 7.9897 2.2545 18.921-6.7054 17.595-11.734-1.7375-10.165-12.712-2.3178-18.707 2.4067-1.1822 1.495-2.5945 0.77-4.6416-21.427-60.335-101.28-48.84-109.91-7.0621-0.3136 1.5179-1.0031 3.1092-0.6538 4.6694 0.8947 3.9962 3.2331 7.3665 2.3351 10.51-3.6651 12.831-19.716 9.1485-20.442-1.4795-0.3304-4.8344 4.8896-6.2909 7.4421-10.704 1.5307-2.7654 2.233-6.1512 0.7662-9.2238-21.642-45.335-58.785-35.846-77.216-25.604-0.3877 0.2155 16.48-21.761 37.625-21.531zm-24 26.281c7.9122-0.2829 15.116 3.6087 21.844 11.406 22.678-11.992 38.804 8.7724 36.125 10.781-32.117-20.844-42.54 27.724-10.897 25.885-13.91 28.76 35.759 41.086 30.183 4.325 30.649 10.698 35.706-31.386 4.6582-30.753 10.033-17.366 36.074-12.589 47.088-1.7071 12.951-15.812 44.749-0.7342 47.906 12.781-35.662-18.269-39.257 37.57-4.7188 25.688-10.227 35.54 44.682 30.483 29.5-0.156 34.201 11.243 29.544-39.865-4.0624-29.5-2.0379-2.6493 26.57-32.198 47.375-4.4376 2.8146-4.8895 35.29-20.904 53.062 4.25-38.507-13.023-31.215 38.807-3.625 28.5-7.3802 34.338 42.405 28.765 29.688-0.5 38.577 9.7544 21.495-49.012-5.6161-27.313 4.422-23.62 36.844-13.829 36.491-10.187 0-0.017 17.221-18.619 36.5-5-30.125 2.5342-19.876 43.16 8.5897 31.595-0.3065 13.788 11.155 22.926 26.66 18.249l24.344 34.031-555.25 3.5 44.354-52.87c14.838 12.263 30.216 6.4653 32.112-12.763 32.29 19.801 40.678-27.238 10.378-29.273 6.1542-4.1911 11.898-6.338 17.313-6.5312zm-31.031 15.281c1.9196 1.3554-0.6885 7.8952-4.9375 6zm432.94 13.656c1.6504 2.3615 2.822 3.8859 4.4688 6.25 0.7943 2.1087-8.6557-1.1186-4.4688-6.25z"/>
  </g>
 </g>
</svg>
