<svg xmlns:rdf="http://www.w3.org/1999/02/22-rdf-syntax-ns#" xmlns="http://www.w3.org/2000/svg" version="1.1" xmlns:cc="http://creativecommons.org/ns#" xmlns:dc="http://purl.org/dc/elements/1.1/" viewBox="0 0 744.09 1052.4">
 <title>Vectorized Playing Cards 1.0</title>
 <g>
  <g transform="translate(-735.7 -1384.1)">
   <rect rx="10.63" ry="10.63" height="311.81" width="223.23" stroke="#000" y="1754.4" x="996.13" stroke-width=".99673" fill="#fff"/>
   <g transform="matrix(.15359 .0017052 -.0017052 .15359 1013.5 1809.4)">
    <path d="m78.178-191.2 1064.6-11.82 20.835 1701.5-1067.4 9.0102s-12.368-1110.3-17.984-1698.7zm774.93 1680.8c-40.432-71.082-104.39-186.89-106.25-187.8-23.036 12.535-258.91 46.629-372.88 17.415-38.214 58.526-75.734 116.48-108.93 174.44zm-365.18-209.8c-5.941 0.1983-12.53 3.8764-11.342 0.7258 0.68694-1.8215 2.1621-20.181 2.8223-26.749 1.7448-2.9384 4.3329 4.6848 4.1263 11.792-0.1186 4.0787 1.818 1.1459 15.279 1.699 14.56 0.5982 26.513 3.1795 31.462 4.1869 17.251 3.5115 50.515 0.4837 64.667-9.9989 7.6611-5.6745 10.65 0.3284 2.7545 6.415-35.654 27.486-64.276 17.474-95.563 13.282-4.6629-0.6247-9.3846-1.5143-14.206-1.3533zm15.003-25.87c-2.2517-1.4218-3.7225-1.5559-6.5683-0.1966-10.977 5.2433-8.173-2.1344-0.30592-9.6207 3.5929-3.4191 3.4691-5.1397 0.67266-8.6597-1.4156-1.7819-3.7472-1.9776-3.2229-4.6783 2.2584-11.635 18.458-29.377 36.695-37.426 7.5862-3.3484 8.8317 0.2072-0.74453 5.9453-14.727 8.8245-19.439 16.267-11.088 13.167 16.191-6.0102 31.066-2.0601 51.98 8.0228 5.9749 2.8807 8.7029 3.4265 13.753 2.8341 3.7015-3.1217 7.0887 0.5452 9.4261 2.454 1.4672 1.1462 1.7846 1.7005 3.4365 1.2955 11.807-2.8948 4.7967 4.6821-11.251 16.595-28.748 20.676-60.249 30.625-82.782 10.267zm44.635 4.5108c11.802-3.6767 26.163-11.246 34.934-19.071 10.661-9.5112 4.5884-8.0154-7.7168-1.9585-17.81 8.7664-30.319 11.382-50.466 11.145-16.864-0.1978-16.342-0.8809-16.933 1.2128-2.0749 7.3507 21.21 14.582 40.183 8.671zm-33.03-28.254c0.92696-3.1663 1.6159-7.3803 0.74008-8.7379-1.5864-2.4589-4.9184-0.5923-9.1208 4.8036-2.604 3.3435-2.2358 3.7888 0.37481 6.3743 1.3083 0.8605 2.3113 1.5029 3.0987 1.9423 3.6148 1.485 4.1569-1.8381 4.9072-4.3823zm7.4182 4.2434c4.992-17.59 16.603-17.378 25.071-0.6919l5.8413-0.033c-12.37-32.51-35.434-15.721-36.032 0.5261 2.7475 0.8725 5.1194 0.1983 5.1194 0.1983zm43.336-3.4347c5.4467-3.0959 4.6197-5.1522-2.402-8.6516-4.9894-2.4867-7.6217-2.9709-8.5049-1.3205 0.1078 3.6166 0.31235 8.7895 2.451 11.634 2.2011 1.2957 5.1972-0.039 8.4558-1.6618zm-77.381-49.08c-1.0222-1.6362-0.87868-4.6513 2.9143-6.4466 23.389-11.071 6.0054-33.694-11.953-16.382-5.7036 4.7547-14.24 7.0284-20.881 4.3083-6.2482-2.6213-6.4476-10.168 1.7936-11.871 2.7045-0.5586 9.6435-2.1029 12.19-3.901 31.366-17.117 48.528 19.153 26.276 31.535-4.5722 2.7187-9.4374 4.2626-10.34 2.7568zm-88.759-32.122c-12.87-5.6179-14.846-25.604-2.9317-33.528 7.5819-5.2705 15.377-6.7709 36.533 3.3328 14.944 7.1369 23.364-0.82 23.074 7.6815-0.17592 5.1689-0.42869 10.383-9.0553 11.723-14.022 2.1792-23.82-16.636-41.84-14.652-13.001 1.4316-11.181 16.872-1.7414 19.909 12.579 4.0468 5.0351 9.0928-4.0388 5.5339zm235.49 0.2915c-2.34 1.1212-3.4992-3.9726-2.513-6.7085 6.2346-15.14 11.988-27.187 17.632-41.371 4.5031-11.301 7.5539-16.171 9.6312-16.181 2.1213-0.01 3.1239 1.6249-0.3503 8.5906-5.2104 14.031-24.359 56.865-24.4 55.67zm-105.18-2.7367c-5.7085-3.9431-4.8192-9.8954 1.6768-5.4674 8.3478 5.6904 21.81-5.043 18.93-14.998-3.4804-12.03-19.662-14.774-33.062-3.8161-21.139 17.288-44.531 18.413-44.678 5.0865-0.006-3.8116-0.5503-4.6707 8.3179-5.3637 10.312-0.8057 21.899-5.6288 27.645-9.1941 25.772-15.99 53.495-5.4562 48.07 20.805-2.442 12.386-17.629 18.541-26.901 12.948zm-95.565-37.609c-2.1055-0.04-5.9326 2.1086-7.0446 1.3025-2.1776-1.5785-1.9166-6.2285-3.7482-11.186-3.2506-8.7986-0.1467-6.0717 5.428-3.7463 7.5668 2.8086 14.7 2.1708 21.03-0.09 6.5288-2.3322 15.135-1.9115 28.921-0.2804 11.089 1.3121 17.305 0.8256 27.325-2.1387 10.87-3.5138 7.9964-2.2619 6.2514 4.4405-1.1349 4.3961-2.5624 10.291-3.9328 11.719-7.5871-4.1121-13.295-2.4228-18.22 0.4858-8.1043 3.6515-13.871 4.3305-20.561 2.4207-6.3125-3.4767-10.033-3.1435-15.039-0.026-8.6366 4.2731-12.566-2.5892-20.41-2.9006zm162.46-20.168c1.4985-2.6829 3.6781-6.3777 5.7194-10.518 16.483-33.431 17.531-42.689 5.5113-53.757-16.153-14.874-29.704-8.1932-44.686 22.031-3.6367 7.3368-5.7992 12.844-7.2762 15.112-1.7023 2.6143-3.7471 0.6364-4.7559-0.3628-1.9095-1.8912 14.732-33.985 21.317-41.023 17.233-18.419 49.793-4.1987 48.006 20.615-0.90006 12.498-3.2144 19.366-14.456 42.386-2.7825 5.6978-5.1992 10.527-6.6799 12.856-5.353 3.6479-4.2119-4.5971-2.6994-7.339zm-158.86 0.4408c2.53-11.87 40.683-17.774 50.927-2.3587 1.0007 1.5059 0.4243 1.4509-3.912 0.3204-19.501-6.1623-23.351-5.7709-41.885 1.7431-2.7871 1.1029-4.773 1.5665-5.1298 0.2952zm145.78-3.8675c-0.005-1.1122 1.3604-5.5041 3.4716-9.7647 12.465-25.154 15.911-31.227 11.972-35.862-7.6736-9.0307-17.757-0.9963-26.814 25.228-3.3855 9.8026-5.7895 7.7463-7.5104 6.2243-3.2968-2.9157 10.816-33.468 17.733-38.076 15.685-10.154 28.247 1.2571 21.493 21.745-5.3439 9.2761-9.6845 23.504-14.688 31.02-2.377 3.3726-5.6436 2.4184-5.6577-0.5145zm-57.593-39.993c-0.78246-1.2526 0.68998-2.9654 6.0335-14.675 7.3456-16.097 9.6135-22.061 6.4548-31.169-5.6294-16.233-26.213-19.998-38.572-9.1673-4.044 3.4951-6.7597 8.3031-8.636 12.613-4.3982 9.9805-8.0136 22.865-10.655 25.589-2.3091 2.365-5.5635 2.8764-5.3956-1.2058 2.8694-8.6789 4.1958-15.398 11.068-28.148 17.063-37.931 67.65-21.017 56.296 18.838-4.2245 14.469-9.1481 25.447-12.092 29.027-1.6376 1.9915-4.4105 0.3078-4.5015-1.7018zm-11.772-6.8021c-0.006-1.2413 1.8439-4.8017 3.7958-9.7548 8.2896-21.035 8.2748-27.454-4.1505-27.585-7.4184 1.0315-8.4885 4.0692-14.828 20.663-2.0592 5.3897-3.1845 9.2249-4.4253 10.876-1.3317 1.7722-3.8783 0.7579-4.9303-0.2841-2.6937-2.668 8.6359-29.891 14.727-35.067 14.002-12.381 32.511 4.7735 24.104 20.451-3.9007 10.939-7.2838 18.368-9.6059 21.762-2.0537 3.0021-4.6692 2.6111-4.6869-1.0618zm-303.67-240.7-42.98-2.46c8.1153 45.574 9.06 95.83 1.7699 131.56-6.2329 30.546-6.0586 52.994-3.8041 79.392 2.6232 30.715 16.004 56.635 19.661 89.229 2.6499 23.616-2.3381 48.35-6.7773 71.908-7.4184 39.369-5.7536 43.454-4.0856 89.536 1.5465 42.726-2.4793 41.238-4.9726 38.769-0.37766-0.3739-0.80675-7.9275-0.85013-16.916-0.0436-8.9887-0.84591-30.965-1.5306-46.219-1.3677-30.473 1.742-57.451 4.0885-68.565 4.7758-22.62 10.167-45.799 6.4116-70.733-7.4182-31.442-17.731-62.809-21.563-93.152-4.7255-37.414 5.451-75.118 8.6514-102.36 3.0901-26.307-0.99761-71.712-8.1285-90.549-1.2617-6.2782-7.0063-14.42-7.0063-14.42-6.4853-0.84788-12.996-1.6861-22.075-1.5282 1.4958 180.41 4.0013 360.88 6.148 541.3l40.453 36.525 40.711-39.375zm5.188 206.91s61.487 34.323 129.24 67.972c-6.8518-39.284 13.428-45.444 32.479-50.223-5.4204-75.977 64.755-61.158 76.214 4.7798l6.8975-0.049c11.764-33.069 23.507-55.931 51.063-61.662 21.355-4.4415 42.615 8.8122 48.319 40.52-0.96771-2.2228 70.5-42.786 73.414 41.204 32.431-20.535 55.927-3.3676 65.63 22.143 13.556-21.06 48.055-22.363 59.072-24.005 3.7929-4.4529 10.544-7.045 22.864-7.1039 10.555-0.6532 24.657-8.6794 32.064 0.8258 11.123 1.6201 19.561-0.4702 29.131 6.72 7.6168 5.6279 16.181 18.27 28.655 9.3493 23.842-11.755 50.723-17.233 72.002-31.323 0 0-5.764-7.2215-4.0944-6.1917 0.61148 0.3772 3.3177 3.7871 7.357 5.347 1.4462 0.5585 14.529-7.4386 14.529-7.4386-90.42-101.39-166.08-300.4-119.64-485.81 1.3086-3.1618-4.0945-4.3115-6.7572-5.3971 0.79915-1.4269 13.924 0.3306 8.4916 12.146-5.2111 35.483-11.133 73.937-12.219 103.32 0.017 3.5792 0.37609 6.7752 0.37609 6.7752 201.2 89.662 178.86 288.95 128.21 358.8l8.2252 10.657c3.6137 2.3516 156.51-88.662 151.4-92.271l28.959-14.751-9.0521-390.2-115.26-7.4849s1.1918-3.291 2.6389-4.1571c0.7892-23.835-1.7427-59.05-0.9232-88.558-0.4867-84.293 0.046-112.97-1.0766-115.28-35.78-22.882-89.122-56.33-133.88-72.34 1.835 0.49955-0.3379 34.935-1.672 36.913-41.558 13.706-22.012 30.418-37.224 48.769-10.228 11.44-34.439 13.865-46.289 0.40819-14.132-13.309-21.031-44.125-21.031-44.125-21.8 23.722-16.956 52.035-46.381 63.041-47.226 23.97-63.082-45.948-60.302-44.354-18.006 17.659-68.908 32.424-75.243-41.232-22.723 21.29-48.574 11.133-59.779-14.629-14.008 0.64867-29.602 11.752-43.722 17.815-13.098 5.9443-29.898 9.5368-42.401 9.4171-15.612 2.0546-28.488 2.1263-42.623-1.8924-6.5933 2.2113-21.588-4.0188-26.295-13.129-7.1358-8.1601-13.283-8.5725-19.963-7.0111-22.68 12.212-47.11 15.371-73.9 28.189-1.6689 1.181 2.4027 3.3254 1.0368 2.9108-0.57549-0.1747-14.073 6.7875-14.073 6.7875 138.39 176.97 147.82 357.08 120.64 485.12-1.0721 4.4383-1.6556 7.6591 1.3316 11.109-4.3346-0.69345-4.3908 0.56722-5.2295-2.183l12.994-107.36c0.27351-12.953 1.9119-12.014-9.5739-16.716-10.623-4.3493-20.668-8.5418-29.452-13.785-33.534-24.158-71.464-53.932-90.202-91.4-53.171-80.387-36.998-177.19 1.306-254.17l-9.8513-9.958c-113.73 58.25-180.56 120.47-180.56 120.47l4.743 382.94 117.64 12.18zm-59.53-255.08c-3.8128-4.1029-13.415-4.7235-17.379-1.528-0.91394 0.78487-2.8403 4.8672-3.425 4.7248-5.3394-1.3005-9.0348-2.3607-9.7926-6.8227l5.5548-8.5604c4.3963-6.775 10.818-9.2327 21.651-11.88 3.8455-0.93987 9.6538-1.825 11.7-2.7162 8.1227-3.601 10.881-11.231 2.6522-7.7343-6.0193 1.717-14.461 1.2646-15.642-4.2165-0.97043-4.5037-4.8528-6.23-9.1552-5.6525-7.9384 1.9922-15.164 6.2105-22.165 10.452-3.105 1.9092-8.984 6.2215-8.984 6.2215-0.91847 1.4689-4.4851-9.1334-1.3051-12.278 3.9982 0.43682 7.4345 0.43637 11.311-1.1508 9.671-3.96 18.971-8.7122 28.733-12.551 6.2165-2.5084 6.7914-2.3084 5.0974-6.7001-0.82897-1.6166-1.6083-7.0117-0.56437-9.8519 1.1094-3.0182 0.96507-4.5286-0.98784-5.7927-4.4435-2.8762-14.993-0.0337-29.793 7.2437-4.5066 2.2203-7.4846 3.1224-10.324 5.456 1.7957-4.7072 0.71011-5.5595 0.60738-10.466 6.0831 0.69093 11.523-1.7702 16.344-4.3669 3.977-2.1264 8.4397-4.2311 19.417-5.7509 2.9981-0.41509 1.5108-11.337-1.9444-14.469-3.2669-2.9613-10.065-2.9504-18.259-0.43822-7.3262 1.7603-16.438 3.5606-21.402 11.467-6.3059 6.0742 0.0442-9.9539 11.593-16.45 5.094-0.1651 16.303-2.6891 18.941-3.3003 4.4732-1.0364 5.0753-11.517-1.4919-15.931-4.1194-3.4987 14.786-3.801 14.433-2.7161-0.23399 0.61875-0.3596 5.097 1.0985 6.2224 8.1695 2.3476 8.1702 8.9752 8.9154 11.758 9.5205 15.172 14.016 5.5377 20.394 0.20347-0.98702 33.282 10.744 36.937 12.313 39.026-15.725 29.985-3.6075 30.583 11.521 37.272 0 0-5.6963 2.374-9.5067 2.1829-5.9942-0.30058-17.381 6.8946-22.348 11.115-2.7398 2.328-2.8458 0.413-13.908 0.21598-10.421-0.18562-11.178 0.59664-15.905 2.7437-9.3272 4.2359-9.2352 8.1376-0.0947 6.4998 9.7351-1.7498 19.356 4.0404 20.568 12.055 0.79004 1.51 0.12864 4.2007-0.0258 4.1134-2.036-0.35816-6.6206 0.45494-6.5615-0.51283 0.0591-0.96776-0.0531-4.6041-1.879-7.1378zm13.786-40.472c2.6265-1.7096 3.0278-6.5013 0.70421-8.4108-2.1146-1.7378-11.006-0.6979-13.497 1.5786-5.6369 4.5189 4.8388 11.856 12.793 6.8321zm5.4777-20.09c3.244-2.5772 3.5764-8.689 0.70162-12.204-4.8745-5.9606-17.4-2.2211-17.996 5.373-0.63497 8.0862 10.51 12.221 17.294 6.8314zm-4.3941-27.43c0.51789-6.6409-6.1274-10.769-12.162-7.5558-7.5163 4.0027-2.8339 12.211 6.6285 11.62 5.2419-0.32731 5.2419-0.32731 5.5334-4.0646zm-22.427-26.673c-3.5118 1.7627-3.6439 5.8996-0.27211 8.5257 13.343 7.1415 9.0885-12.334 0.27211-8.5257zm926.68 29.371c-6.0593-21.293-21.874 0.0601-21.893 0.35567-0.8124-21.881 3.2408-31.668-13.327-38.962 16.266-25.132 12.778-28.534-4.8693-37.912 1.6181 0.12141 23.233-4.9538 26.805-17.318 0.8296 0.56721 34.106 8.3366 38.045-9.7394-9.9618 4.6535-29.65 5.5504-30.089-13.836 1.8571-0.57801 6.5362 0.3257 6.1528 0.94847-2.4818 12.464 20.306 15.287 23.918 5.4241 0 0 7.6992 5.0142 11.07 5.7642 0.3766 0.24593-10.18 15.171-19.935 17.513-17.565 6.0062-23.627 7.6407-23.61 11.129 0.01 1.3549 2.8953 1.5385 8.1444 2.5474 10.956 0.62921 10.752 2.9736 12.229 6.5688 1.3057 3.1796 2.5484 3.8051 6.1954 3.4408 12.459-4.2757 18.689-6.5179 27.307-15.291 1.0574-0.21693 2.394 9.0948 3.0717 9.4069 0.086-1.4881-8.8359 1.2074-22.493 9.3676-11.147 6.6603-15.528 7.6587-16.935 9.4396-1.0433 1.321 1.7272 5.4138 2.0646 9.8877 0.2837 3.7617-2.2394 5.6159-0.3561 6.7701 2.1753 1.3332 5.518 1.0483 9.9013-0.13831 9.6734-2.4356 16.77-6.311 25.427-11.772-1.8145 3.5115 1.3893 12.334 1.3893 12.334s-4.3365-2.9657-7.8601-1.3632c-6.7899 3.0553-17.775 7.2418-20.746 7.9728-2.8773 0.70783-4.1246 1.0956-5.2416 2.06-1.3743 1.1866-1.1113 4.0029-1.0913 8.1411 0.014 2.9045-0.7895 5.5926 1.0533 6.4489 4.0881 1.2609 12.303 0.75642 20.642-2.2445 3.5501-1.591 11.078-5.7775 11.078-5.7775l-2.2356 12.273c-3.2165-3.5282-12.302-0.80234-18.378 1.6602-3.0682 0.99842-3.9683 2.9357-4.7202 5.6174-1.312 4.587 1.6394 7.702 5.0181 9.1663 2.2503 0.97523 5.6935 0.5271 5.6935 0.5271-15.742 6.167-12.572 8.3404-21.848 3.8977-4.0372-4.2553-7.995-8.7497-9.5771-14.309zm16.548-0.17883c-2.6564-2.9886-7.2446-4.6676-9.8907-3.4467-2.3562 1.2795-1.4754 3.8907-0.6969 5.8841 2.0633 5.522 15.935 3.5783 10.588-2.4374zm-9.3962-15.164c3.6527-4.8793-0.4978-11.341-7.3451-11.308-4.7603 0.0229-7.2643 3.0029-7.1724 6.7108 0.1742 7.0236 11.467 8.6712 14.518 4.5968zm-7.813-18.35c6.8443-1.9366 8.8777-8.5862 4.0788-13.339-3.4113-3.3786-14.009-3.6859-16.806-0.56533-7.1437 7.9707 1.0632 17.204 12.727 13.904zm5.4403-24.31c4.0082-2.0974 4.7487-5.5269 1.1431-9.3766-6.5273-5.407-17.764-1.0082-14.029 6.9396 1.8292 3.8928 8.001 4.9932 12.886 2.437zm-828.31-174.87c6.039-2.2645 10.365-6.9984 16.707-10.664 4.2787-2.3882 2.9866-2.0014-2.5576-5.1469-4.3553-1.9349-13.135-10.593-13.923-8.4958-1.926 3.7539-1.4185 24.15-0.22642 24.307zm155.68 211.97c0.20371-4.166 0.63665-10.444 0.46941-15.041 0.72439-8.7744-0.83059-6.1958-5.5628-3.2794-3.5001 2.3033-9.1157 5.8057-11.321 6.9315-8.6937 4.4384-7.6453 4.6544 4.7263 10.414 10.382 4.4917 11.539 4.0279 11.688 0.97479zm-12.23-20.38c8.2961-5.3344 11.039-8.0673 11.378-13.957-0.0325-6.7682-0.85146-9.2207-6.7584-4.4694-20.155 16.212-41.433-14.921-23.013-32.553 3.7561-3.5954 8.5148-9.2102 8.5416-10.622 0.19204-10.11-11.124-0.16928-20.307 13.812-10.196 12.732-16.461 28.594-7.2227 43.653 7.378 11.013 23.551 13.029 37.382 4.1353zm-46.42-19.9c-0.42178-4.9434 0.91503-10.486 1.5447-12.138 2.216-5.8148 2.1126-6.5336-8.1941-1.5994-4.1159 1.4038-9.0364 2.5598-10.935 2.569-8.4622 0.0409-6.3206 2.6674 5.9186 12.599 12.301 9.9817 12.717 10.892 11.665-1.4307zm28.281-48.772c1.2585-3.0601-1.4411-4.2014-4.0038-3.5988-0.20132 0.0473-4.6037 3.392-9.771 7.5355-15.665 12.562-27.239 14.137-35.183 4.788-8.0554-9.48-4.8586-20.865 12.764-34.054 7.7751-5.8193 9.6517-6.2288 5.8544-8.6908-2.8887-1.8728-3.0584-1.5804-14.242 6.1384-22.537 15.556-29.221 26.082-26.775 41.286 0.53486 6.2493 3.8638 9.4888 7.0759 11.887 21.862 18.857 51.604-7.8069 64.28-25.291zm23.018 8.7803-1.6015-21.057c-23.308-19.557-45.575-53.157-53.456-81.101-7.99-24.84-2.4199-76.906-1.2184-73.057l-12.735-23.381c-10.579 25.08-14.898 63.196-2.657 101.85 10.391 32.809 30.905 72.458 71.668 96.75zm-97.372-11.196c7.1801-14.102 7.4236-12.59-6.748-12.554-16.174 0.0414-14.389-1.9399-5.1212 11.709 7.4424 10.961 6.2214 11.937 11.869 0.84492zm9.5021-19.323c9.2828-3.0799 7.1637-2.3727 19.439-10.515 14.089-9.345 14.627-14.376 0.45865-7.1379-18.191 9.2932-34.281 7.1476-40.374-4.6497-5.4305-10.515 5.5141-23.822 23.719-29.183 6.2206-1.8318 9.4921-3.3571 9.479-6.0779-0.04-8.2928-31.005 3.1155-43.675 15.779-24.459 24.445-2.5022 52.884 30.954 41.784zm-40.395-37.189c0.82014-1.2702 3.0071-4.3168 5.0239-7.4722 8.644-10.227 1.3159-7.1179-6.489-9.8004-4.1234-1.4649-8.3505-2.9171-10.756-2.5267-4.6437 0.75353 1.6728 9.6259 3.2331 15.38 4.3277 12.807 3.8424 12.418 8.9882 4.4191zm32.843-23.531c15.658-1.6998 17.24-3.2257 17.224-6.4592-0.0159-3.2066-1.9454-2.5715-9.8018-1.3965-20.804 3.1116-34.661-2.0131-37.762-13.036-3.202-11.382 10.791-22.344 29.605-21.915 10.191 0.23263 16.935-3.3475 10.694-6.6489-3.2492-1.7188-31.3-1.0287-37.625 0.88099-18.583 5.6113-26.065 16.016-24.205 30.286 2.7744 17.616 12.51 22.566 36.092 21.052 4.5186-0.29023 10.26-2.1638 15.779-2.7629zm11.49-57.608c-0.0137-2.7527-4.4931-3.1038-19.308-5.1251-19.733-2.6924-28.736-20.741-16.982-31.791 4.4556-4.1888 15.162-6.0838 21.15-5.0665 13.014 2.2114 20.985 4.7819 21.06 0.3937-0.0184-3.913-3.7901-4.1514-28.228-9.0067-36.921-7.3455-56.744 28.871-27.097 46.147 11.263 6.5628 49.431 9.942 49.405 4.4493zm8.5614-51.599c-0.006-1.3787-1.2145-2.4253-4.0169-3.4807-4.072-1.5335-6.7991-1.7948-16.007-7.8255-12.249-8.0222-16.116-23.888-8.1037-32.843 7.7853-8.3632-6.4942-17.975-17.683-8.5114-11.625 9.8325-10.469 25.054 3.1762 36.962 12.564 10.965 42.666 22.175 42.635 15.699zm-59.708-1.4889c12.737-6.1209 21.971-2.7824 12.082-10.925-5.5566-5.0116-10.41-19.381-14.097-7.1064-2.845 7.323-4.8523 20.206-4.9169 21.472 0.86802 0.8597 0.65719-0.62975 6.9325-3.4413zm452.52-36.06c-14.623-3.4531-24.772-20.197-21.24-36.439 1.9956-9.1764 10.411-30.844 12.097-32.205 6.3805-5.1506 5.5712 1.6174-0.20272 13.422-5.2521 12.043-9.3422 21.725-7.5964 28.837 2.4849 10.123 6.6951 17.824 17.326 20.281 7.4727 1.7276 14.461-1.4414 19.182-4.8394 6.2424-4.4926 12.066-15.904 19.002-31.693 2.2226-4.4427 5.123-18.047 9.0024-9.8087 1.873 4.2654-12.984 32.938-18.574 40.225-7.034 9.1674-19.031 14.632-28.995 12.218zm87.806-10.513c7.1788 6.6946 19.223 9.969 27.033 7.454 19.16-6.9594 27.697-25.143 20.093-54.138-3.8666-16.258-7.1324-26.36-10.344-28.34-1.561-0.96242-3.2357 0.88229-4.7174 3.1676-1.3222 2.0395 0.7649 4.862 3.0322 12.509 9.5498 32.208 7.3084 46.845-3.8404 53.145-16.175 9.1398-30.233-1.0231-35.212-24.023-0.79631-3.5539-3.1061-10.793-3.1061-10.793-1.282-3.1914-11.354-2.3699-7.5704 8.3212 1.195 8.2885 9.1014 28.008 14.631 32.698zm81.568-85.541c-0.38078-11.365-24.95-60.423-26.527-55.17 0 0 0.0236 11.53 1.016 16.055 0.37459 1.7078 1.6381 3.2808 2.6861 5.0933 21.286 36.816 18.353 62.961 0.31586 68.881-6.1354 2.8536-7.4453 5.6108-4.6566 8.4533 5.6457 5.975 19.504-6.1188 22.179-10.484 6.7407-9.7984 5.5916-27.524 4.9875-32.83zm-349.67-4.5041c7.7711-8.8312 24.689-39.2 29.834-55.093 15.841-47.304 32.443-101.7 36.639-151.85 0.45632-6.3273 0.68114-15.952 0.98744-16.778-1.3023-1.3688-9.4085-0.55255-12.118 0.86222-1.2867 1.7064-0.37215 5.448-0.7829 10.342-6.6973 56.405-19.647 107.87-39.116 160.32-8.5182 22.788-16.494 37.816-26.883 53.714-1.8134 2.7753-4.1284 5.6389-5.034 7.2506-2.6279 3.8669-0.63566 6.3523 2.44 4.6953 5.4594-3.1556 10.132-9.1508 14.032-13.468zm-26.674 14.002c24.717-34.661 42.099-76.133 55.424-125 8.4135-31.629 15.771-63.619 20.034-96.184 0.87214-6.9503 1.5862-11.605 0.20252-13.666-3.3977-0.87066-9.7173-0.23688-11.891 1.4726-1.3204 2.037-0.37952 6.0734-1.5173 15.445-2.9422 24.233-7.4804 48.58-15.241 80.476-20.639 70.634-39.885 110.26-65.359 145.03-2.0572 2.9238-3.8975 4.8298-3.6967 6.0581 0.29451 1.8017 2.801 1.6264 6.8829-0.9753 5.3228-4.2616 11.422-7.9975 15.161-12.656zm-38.03 18.696c12.199-7.0754 33.482-37.504 48.396-70.187 16.71-38.574 30.571-82.089 39.544-119.74 3.8916-16.5 9.2297-57.657 8.3715-60.353-1.0193-3.2024-12.988-0.39334-11.298 1.8071 0 0-11.188 66.187-23.611 102.74-23.063 67.859-43.148 113.95-65.066 136.24-2.8733 2.9226-8.5309 8.6402-8.5309 8.6402s0.14688 2.5209 2.0014 2.8851c4.4294 0.76423 7.3592-0.54315 10.193-2.0336zm-18.821-2.4851c27.532-15.747 59.179-88.219 84.661-179.06 4.3596-15.541 12.066-67.497 12.066-67.497s-11.034 0.53147-13.139 2.8673c-2.1066 3.1577-1.6746 11.133-4.5562 30.118-11.275 57.404-28.661 109.84-55.089 161.78-11.425 23.008-30.59 44.77-42.772 51.042-6.8112 3.5069-8.7724 7.31-3.7552 7.5268 8.45 0.2075 9.221 1.9609 15.32-1.392zm388.58 802.25c-20.775 0.1572-38.202 20.224-53.647 45.374-32.875 51.543-54.405 137.31-59.372 182.82l12.591-2.5144c-1.8836 0.8883 22.243-121.23 60.482-173.82 20.62-33.146 19.731-33.634 31.477-36.784 14.852-3.9823 26.979 11.953 19.695 21.715-2.6376 3.3056-5.5983 0.9321-4.8222-3.7462 2.4762-14.928-19.359-17.551-25.287-2.8455-6.8189 16.916 11.976 31.728 30.104 24.904 16.201-5.908 22.762-28.656 11.158-45.277-5.934-5.5995-14.479-10.534-22.379-9.817zm-109.4-0.9c-24.532 31.426-36.5 63.573-51.29 107.44-14.778 43.836-25.268 86.668-29.476 135.73l13.402-1.8726c-0.84211-31.502 32.122-181.9 80.156-238.64 2.6771-3.588 4.8264-6.5679 4.6135-7.3918-2.7838-7.5549-14.219 1.7089-17.406 4.7268zm54.832-12.241c-31.949 26.701-57.067 84.534-73.461 137.92-17.721 57.707-25.373 110.49-23.994 110.48l12.79-2.0205c-0.99096-3.3281 33.704-206.36 101.85-244.01 5.9118-3.0224 7.1256-6.0182 2.0992-7.2539-7.7282-0.9938-13.908 1.6034-19.285 4.8842zm36.101-0.2672c-70.301 10.025-113.92 225.92-115.25 243.82-0.0207 0.2762-0.23874 1.6678-0.23874 1.6678l13.984-3.0364s0.11276-0.6896 0.16917-1.0335c9.0428-55.138 18.02-93.825 39.41-143.81 16.696-37.053 39.767-84.446 74.973-89.409 2.8602-0.4031 5.5886 0.713 4.5487-2.6025-2.2062-5.2581-12.752-5.8136-17.593-5.5989zm-420.34-63.19c-25.373 6.806-25.863 37.237-8.4843 75.921 1.3128 2.9223 1.1006 4.5296 2.4101 5.6471 2.9251 2.4963 5.159-1.0553 5.4557-3.3857 0.45041-3.5386-1.1159-8.2767-3.8842-15.154-10.783-26.79-8.4422-42.319 1.8677-49.292 26.464-13.975 33.938 14.034 38.105 26.913 1.0209 3.139 1.4068 7.4624 3.1459 7.6803 5.3181 0.6666 7.8287-1.2406 7.75-1.2397 0 0-7.3188-24.114-11.718-33.154-7.119-14.629-23.695-17.521-34.648-13.936zm-184.29 30.77 3.2963 320.65-48.202 46.191c-21.104-17.648-48.875-45.346-48.875-45.346l-5.154-542.07-15.686-1.0787c-1.2495 232.94 4.1068 469.27 6.5151 702.63l144.04-0.5384 117.14-187.12s1.4832-2.2297 1.9463-3.4029c1.4231-3.6054 1.1942-8.9511 0.25715-28.701-0.38103-8.0261 0.45365-14.202-0.75264-16.072-1.2216-1.8932-3.751-0.5022-6.1121 0.5873-2.4049 1.1098-3.8481 0.7416-2.5785-2.1171 0.71999-1.6214 3.0673-5.1881 5.0906-8.5865 6.5715-11.038 8.1688-14.568 5.7723-26.7-0.58894-2.9815-3.3648-5.4809-5.7948-8.9771-20.39-29.336-29.047-73.06-19.442-105.26 3.0168-14.222 1.8427-17.083-5.1378-28.062zm626.66-351.79c-13.169-6.5681-12.914-6.4218-12.853 6.2829 0.17674 9.5005 0.38349 11.796 3.9386 10.476 5.1364-2.6774 11.422-5.1502 16.163-7.2228 9.0631-3.2206-2.5355-7.0898-7.249-9.5362zm52.209 32.449c-10.253-7.9862-6.4904-7.0974-9.1647 11.197-1.6154 11.05-3.854 11.36 7.5348 7.5848 6.4641-2.313 19.819-1.0487 13.752-8.5862 0.0399 0.13358-10.109-8.5285-12.122-10.195zm-405.24 284.87c-15.485 9.5915-30.903 55.411-30.903 55.411-54.409 7.087-76.622 60.846-78.562 105.49-1.5319 35.241-3.4667 76.392 0.13183 79.956 35.545-16.437 49.511 1.9226 52.84-3.1061 1.5221-2.1956-8.0255-9.3153-19.99-15.664-2.7783-1.4742-7.0874-4.135-8.7226-5.4579-4.3782-3.542 8.6528-0.5989 16.927 4.8934 10.556 7.0067 12.301 5.5024 7.522-15.258-5.1948-22.568-6.0338-25.332 11.277-34.492 6.9268-3.6656 10.853-6.7562 15.779-12.394 3.9411-4.5117 4.9505-5.6121 3.5532 0.9703-2.4204 11.402-12.492 16.473-21.562 21.192-4.5117 2.373-6.3365 7.0694-6.3171 11.081 0.0193 4.0938 4.973 26.151 7.2308 33.189 2.0944 6.6903 2.9114 13.409 4.5475 20.234 4.2891 17.713 4.5903 21.192 2.6658 34.103-1.1288 7.5721-1.6964 11.886-1.2248 16.448 0.42878 4.1461 1.067 9.7855 1.067 9.7855 0.0213-0.1969-9.8368-9.8717-31.076-1.2474-15.312 6.2175-27.533 0.049-36.201-4.3301-1.9056 7.0143-1.3725 14.605-1.0438 22.628 88.873 15.215 164.6 12.2 228.3 4.8234 1.4429-18.856 8.8198-78.838 25.108-133.03 6.7776-22.551 14.463-46.332 23.249-62.24 5.991-10.848 12.146-18.182 14.336-19.46 0.6819-0.4234 0.74343-0.6443 0.72201-0.9345-0.017-0.6012 0.00077-1.1079-0.0363-1.6861-0.26252-3.4986-1.1698-8.912-4.2117-11.281-7.4251-5.7828-19.085 1.8992-22.8 15.022-3.2962 7.8729-18.357 41.942-19.465 41.383-0.91545-0.5597-3.0571-0.581-2.3111-3.2065 5.7575-13.805 13.715-28.42 18.15-40.804 6.1183-17.827 19.748-27.354 30.137-16.27 3.5608 3.7991 5.0133 7.3219 6.6399 8.5241 1.2276 0.9073 2.8591 0.2589 3.8501-1.2696 3.8053-5.8692-5.3123-18.992-14.967-21.542-13.935-3.6804-24.176 6.5587-39.567 39.563-8.8866 19.056-10.461 23.834-11.917 22.391-0.31691 0.1322-2.7328 0.1553-1.9005-3.5267 1.7886-7.9127 13.606-30.98 22.188-45.625 12.703-21.677 36.714-23.689 47.027-5.1118 1.573 2.5303 1.6875 5.8606 3.4286 8.1141 3.146 3.9716 8.2391 3.119 9.4303-3.4732-1.4246-4.3397-10.047-19.976-15.945-22.652-13.618-9.1303-30-7.1273-43.665 5.3389-3.1 2.8279-6.3021 8.5407-15.251 27.209-13.155 29.921-13.513 30.041-17.25 25.284 5.2602-14.543 19.266-38.23 24.864-52.742 1.0729-2.165 1.2685-4.4803 1.1592-6.7024-0.44986-10.495 1.0584-29.07-21.311-42.008-19.064-9.9929-43.965 1.0187-52.261 21.197-6.3545 15.455-11.004 26.076-14.269 28.292-4.5873 3.1138-3.7717-1.1617-3.3309-2.7165 6.412-13.993 15.494-28.162 16.801-42.188 0.53583-37.918-38.075-51.504-62.87-32.096zm-206.42-708.16c29.854-14.275 50.324-21.519 80.802-30.869 4.1113-1.8555 4.7645-2.2782 0.28326-10.905-19.8-38.117 33.022-69.262 51.506-31.837 2.4644 4.9898 3.0545 7.7578 5.4017 5.3319 4.3759-5.8721 9.5662-14.197 14.949-23.692 19.98-31.72 28.79-67.75 39.28-99.574 4.29-18.677 10.35-38.22 11.91-58.217-41.13-69.746-69.97-136.97-113.5-198.99l-282.42 2.9319 5.2041 564.28c78.24-66.73 131.74-91.15 186.59-118.46zm317.67-24.26c3.3859-3.6541 6.2829-9.6871 18.286-35.012 2.1416-4.5186 5.5637-11.526 6.9532-14.785 1.7773-5.9481 8.6366-9.7316 5.393 0.91959-0.73815 2.2995-2.0194 5.4039-4.0585 9.5357-4.004 7.386-7.7845 16.42-10.627 22.325-15.355 31.633-14.406 49.955 3.2926 63.41 13.246 12.38 40.787 13.488 55.212-6.8977 2.1571-3.2818 4.0664-7.4942 4.6829-9.0383 6.1944-15.514 10.806-23.288 11.994-24.83 6.4252-8.3394 7.5834 1.8924-1.9775 17.77-10.956 18.193-10.932 37.78-1.1356 51.452 14.52 20.264 41.677 20.543 58.536 3.9693h-0.0004c8.7444-10.476 15.638-23.756 21.119-40.695 1.2148-3.7545 2.4826-6.5471 3.3785-8.7501 1.3812-3.3962 3.4104-4.6771 8.6904-5.7486 36.196-7.3458 66.225-44.897 70.095-85.576 0.50725-5.5025 1.9627-15.244 2.4697-21.021 1.0112-11.527 0.3707-71.168-0.80197-74.714-0.63251-1.9118-1.7266-2.916-4.0873-2.8626-1.8123 0.04093-4.3709 0.70516-8.0401 2.0604-11.911 4.3994-17.465 5.5422-29 1.5636-3.8107-1.3144-6.4419-1.7479-7.9979-1.5962-5.0632 0.49362 1.7525 7.6862 16.618 15.55 6.3698 3.3696 11.424 7.9496 6.2896 7.6637-1.4924-0.0831-19.429-9.0946-21.908-10.576-8.179-4.8885-5.9898 1.3565-1.6215 17.803 5.8663 22.086 2.6978 28.341-14.706 37.212-3.2448 1.654-7.5364 5.0777-9.715 7.2774-9.1208 13.799-6.8392 3.6823-2.2457-3.665 7.8863-8.4394 2.9601-11.233-13.337-5.264-18.589 6.8087-27.078 2.0829-32.413-8.2287-6.0327-11.66 4.9046-26.865 14.17-26.672 2.9993 0.0622 2.4719 1.1475-1.9131 4.2107-5.2986 3.7014-7.7878 7.2421-8.2739 13.469-0.99098 12.693 8.1462 17.977 20.736 9.3308 5.9447-4.0826 10.629-6.9089 15.154-7.9886 4.484-1.0699 11.254 0.52424 11.271 4.1171 0.007 1.4805-0.15711 5.1176 0.17067 5.9196 1.234 4.0009 7.5962-1.7533 10.37-3.8019 9.4735-7.2438 9.1466-8.6475 6.4089-20.195-4.4446-16.154-6.7634-30.945-11.011-47.324-2.2677-8.5803-2.7439-18.299-1.5186-27.083 0.61425-4.403 2.2248-13.456 2.503-19.645 0.27825-6.1889-0.20521-15.022 0.0233-15.023 9.5658 7.1491 13.437 8.3746 22.654 4.7592 14.259-6.0255 23.313-5.5161 35.445 0.11978 4.4893 2.0854 8.5742 3.545 8.5742 3.545l0.34158-18.605s-11.196-2.1761-31.873-4.6579c-62.241-7.4708-189.8-7.778-194.46-0.22477-1.1859 1.9201-2.2428 15.219-5.4253 33.73-7.0947 38.468-15.098 76.817-25.961 114.4-2.2285 7.6568-4.4035 10.755-3.2214 10.97 0.48666 0.0883 2.7598-2.893 3.8191-4.1423 5.9694-7.0402 1.5212 9.5716-7.3852 29.62-0.80418 1.8101-1.4596 3.7898-1.4567 4.3994 0.005 1.2043-5.5726 15.17-9.4342 23.62-2.3997 5.2505-4.4189 6.8473-4.435 3.5073 2.6448-11.524 9.8131-26.47 10.756-36.722-6.3207 9.3436-15.506 24.758-22.483 33.97-1.278 2.4749 0.11454 3.2202 1.2879 6.2487 4.381 11.308 14.695 12.21 20.537 1.8615 3.2573-5.7703 13.331-27.483 16.815-36.978 3.5834-9.765 6.1195-14.922 7.3414-15.57 2.4548-1.3026 2.9908 4.2203-1.284 13.467-12.972 28.059-18.488 43.767-24.928 49.609-4.9965 4.5332-13.731 4.3451-18.671-3.5705-8.3741-13.42-15.344-8.8684-7.6437 4.9031 7.9543 14.227 25.782 15.368 34.941 2.372 3.0238-4.2902 17.171-32.021 21.589-43.282 2.4666-6.2873 5.1213-11.191 6.0224-11.549 4.8331-1.9204-0.54716 12.432-14.164 41.198-4.393 11.098-11.516 22.772-21.294 26.469-23.794 5.486-27.16-7.0855-35.618-21.36-4.0729-3.5284-7.6618 2.2266-6.0482 8.5269 2.6177 10.22 7.3433 14.179 14.629 19.241 15.204 9.4365 36.121 2.5942 43.606-8.4387zm107.08 58.683c-2.2164-4.7614-1.9593-9.6233-0.90482-14.167 2.3876-10.242 6.4168-20.199 11.159-28.877 7.7926-3.7895 1.9722 11.009 1.0168 13.208-9.2301 19.79-10.038 27.417-1.1963 29.59 7.5759 1.8626 11.586-2.8006 18.532-20.529 3.5645-9.0984 4.9842-13.126 6.2764-13.661 2.738-1.1352 4.0738-0.0407 3.9425 2.7242-4.5949 11.641-8.155 23.867-15.803 33.576-7.5212 6.4366-18.956 6.5977-23.022-1.8626zm-71.024-14.339c-3.2956-0.6045-8.9782-4.7837-12.934-8.3232-13.484-12.065-11.468-28.975 4.7308-60.903 1.2583-2.4801 5.9657-12.132 7.4778-15.302 2.7078-5.6764 5.459-3.4956 5.4771 0.24022 0.005 1.0503-4.0335 9.8618-8.1186 18.044-17.881 35.907-17.093 50.463 0.76313 58.761 17.427 8.0981 25.14 3.2408 38.661-24.166 7.7697-20.55 11.709-20.932 11.356-13.151 0.0138 2.9019-9.446 22.626-15.589 31.813-8.9081 13.322-16.721 15.758-31.825 12.987zm1.1212-17.243c-6.8516-4.1324-9.7444-14.57-5.8166-23.183 3.5798-7.1071 12.652-34.296 17.041-35.87 7.0797-0.32074 3.3661 5.6478-5.2247 22.401-10.135 22.18-9.6968 28.075-1.6474 31.364 7.45 3.0438 10.896-3.4021 21.546-29.331 1.6724-4.0715 4.0226-8.3064 5.4384-7.4408 1.7368-0.15065 4.7711 1.1243-0.84852 12.882-1.3331 2.8114-3.5842 8.7019-6.0815 14.193-7.299 16.05-15.736 20.214-24.406 14.985zm122.33-48.2c-3.0122-1.5035-17.11-6.8581-15.078-11.447 0.25082-0.43202 1.0709-0.10446 1.4892 0.16877 12.947 8.458 28.956 10.465 45.494-1.6596 2.7773-2.4997 4.891-0.85355 3.3602 2.2643-4.9389 10.06-27.361 14.586-35.265 10.674zm-41.445-14.047c0.37726-0.96433 1.5019-3.8359 2.4847-7.6907 1.4772-5.794 1.0695-10.044 2.4433-9.3223 5.8584 3.0783 16.272 3.0381 21.334-0.12564 5.5497-3.4685 16.874-4.6354 21.035-1.9973 5.9446 3.769 8.9291 1.9524 13.03-1.3138 4.6288-3.6864 4.7299-2.1338 13.195 0.69487 6.251 2.0888 8.7146 3.539 11.355 3.0304 1.0123-0.19498 3.046-2.5258 3.7031-2.4154 2.031 0.34128 2.3218 6.0793 4.2602 12.612 1.7151 5.779 0.7897 7.1876-4.4515 3.7715-3.8957-2.5392-15.03-3.634-26.554 0.0351-8.5388 2.7187-10.522 1.6848-16.82 0.6933-15.697-2.471-27.026-4.3883-38.626 2.4932-6.1965 3.6759-8.4404 5.5741-6.388-0.46478zm-39.29-28.201c-7.7621-15.125 9.4772-35.459 24.905-28.518 5.1156 2.3014 9.7417 11.183 2.1655 7.1689-34.988-6.6498-25.7 44.309 11.488 16.924 24.732-16.794 42.332-19.544 43.976-3.5791-0.63041 5.8783-5.8629 4.9988-9.8154 5.5796-10.311 1.5528-14.111 3.2717-26.017 8.5242-18.142 5.9323-35.883 10.81-46.702-6.0997zm136.67 5.5125c-8.5419-2.0908-15.978-5.3667-24.877-6.876-8.8146-1.4329-12.835-5.9749-11.313-12.164 1.581-6.4305 10.383-7.2045 23.709 0.71884 14.776 8.7853 25.442 10.835 30.773 7.402 10.785-6.945 4.8035-17.987-5.5909-20.714-7.8044-2.0764-2.1145-5.1598 6.2774-2.7623 13.551 4.9586 14.107 29.309 0.28614 34.519-4.6233 1.7428-12.81 1.3756-19.264-0.12385zm-119.8-79.29c9.844-6.2268 19.356-11.8 22.725-15.49 1.7671-1.936 6.6694-8.4236 2.8301-6.4173-20.077 12.35-43.655 2.539-60.749-5.5686-8.2067-3.7235-6.1802-2.0568-12.445-1.57-4.2488 0.33021-7.6532 1.2591-8.4479-1.7667-0.35083-1.3358-2.7234-0.74875-4.2468-0.88202-6.2883-0.55012-2.411-8.8979 10.684-18.198 15.443-10.967 28.942-18.164 42.388-21.221 13.966-3.1745 28.259-1.6255 38.843 8.325 4.066 3.8226 3.7396 6.4061 7.3896 3.9897 8.3287-5.5138 8.4818 1.6796 1.4788 8.4147-4.8094 4.6256-3.0183 5.8475 2.9738 10.132 2.8605 2.0455 0.5568 4.0483-0.99402 7.0898-0.58105 1.8551-0.0854 3.8788-0.35607 5.2832-1.2539 6.5141-30.633 29.816-41.319 33.858-7.3646 1.4562-3.5571-4.1406-0.75478-5.9799zm20.11-42.438-4.9201 0.12061c-5.4106 17.137-15.686 23.072-24.517 2.6942l-3.9155 0.43798c0.0176 17.342 30.013 27.9 33.353-3.2528zm-32.179 16.373c-2.0686-3.3777-4.4376-11.156-6.5624-11.245-5.7799-0.17958-13.754 0.94775-11.82 4.4996 3.046 5.6263 20.781 10.661 18.383 6.7457zm39.562-3.4846c5.2911-3.2614 6.4006-5.4824 2.8871-8.9621-4.5378-4.4942-6.8538-2.1485-8.1818 5.1235-1.1414 6.25-0.25498 7.2593 5.2947 3.8386zm-72.34-11.203c35.497-16.514 49.004-18.747 63.544-14.919 3.3671 0.88638 6.3623 2.7272 8.2377 2.5945 6.9354-0.49091 2.4224-8.2048-10.086-12.513-14.285-4.9207-23.284-2.5117-50.476 12.028-15.922 8.5135-28.795 20.986-11.22 12.81zm103.18-20.711c-0.51758-0.96002-2.7497-7.3475-3.3886-9.6819-0.63896-2.3344-1.2204-4.7439-1.8867-4.7484-16.524 2.8244-31.112-0.10298-35.034-0.9913-25.102-5.6854-49.278-4.2074-67.256 3.0543-4.3915 1.7738-9.8286 4.6271-10.349 5.1231-1.4138 1.3481-3.5391-0.14341-3.5471-1.8074-0.01-1.9526 10.976-10.833 17.924-14.366 21.131-10.745 43.533-12.792 68.228-6.4491 16.107 5.9608 26.436 4.8529 36.639 0.25697 5.0085-2.2561 1.4988 3.2261-0.0137 10.464-1.0478 5.0142 0.21085 9.2814 0.45023 12.105 0.7055 6.8222-0.0344 10.253-1.7659 7.0412zm388.91 1437.4-6.2-565.38c-93.096 70.173-269.82 144.25-269.82 144.25 22.859 45.231-25.957 84.694-54.716 38.827-28.707 32.908-67.484 147.48-68.482 185.39 0 0 78.819 133.94 117.29 200.06zm-519.06-180.43c2.2652-28.416 7.8086-76.608 26.121-132.82 7.6815-23.581 16.962-50.648 30.23-74.928 5.308-8.4953 5.6466-11.762-0.0773-8.6636-3.6021 1.9502-19.94 20.759-22.14 25.487-24.786 53.74-35.817 118.1-44.559 167.24-1.9832 11.046-2.4526 24.758-2.4526 24.758zm18.54-2.5367c5.2732-69.027 29.654-162.41 67.163-223.52 3.5246-5.8225 7.8921-10.888 7.7006-12.888-0.56423-5.8948-15.15 4.4655-26.365 22-12.45 25.35-24.913 52.383-34.344 82.266-13.313 42.182-22.94 81.12-26.275 133.86zm36.63-6.1656c3.3862-39.78 15.337-76.374 25.288-113.01 12.169-44.799 28.71-77.854 48.082-107.67 6.2132-9.5623 13.57-18.53 20.558-27.66 0.89156-1.097 1.7787-3.0645 1.5635-3.8813-4.5604-0.7436-8.1663 0.7058-11.663 2.7119-4.8838 2.802-11.719 9.8102-15.698 14.995-27.663 36.039-42.299 77.916-55.842 120.21-13.006 40.62-22.266 79.648-23.756 116.32zm-252.36-27.662c5.6385-0.5032 9.2862 0.5185 10.907-0.9976 1.609-1.5047 1.0348-5.5009 1.4896-10.621 0.97264-10.948-0.15533-10.336-6.9215-3.1946-11.203 11.824-31.831 16.563-44.21 9.6276-6.2459-3.4997-10.588-5.9226-11.14-2.9491-0.64388 3.4678 0.32848 6.1056 3.0029 7.9254 14.976 6.6168 29.069 1.7979 46.871 0.2091zm-13.413-8.2287c7.8189-2.6888 15.751-6.96 20.166-13.395 4.2144-6.142 4.133-7.0116 0.90505-5.8167-15.865 8.0056-26.301 12.103-40.581 10.098-19.338-2.7161-20.111-0.2491-7.2622 7.5847 8.4072 5.1259 15.336 5.203 26.772 1.5297zm-28.613-24.122c2.967-2.233 3.6314-11.205 1.2167-11.689-2.4439-0.4893-5.9478 4-6.7789 7.6323-0.922 4.8183 2.6625 6.0085 5.5622 4.0563zm29.883-0.7175 5.1269-0.5198c-2.8735-22.45-27.335-23.151-31.562 2.6008l3.8798 0.5327c4.8206-20.545 19.611-20.146 22.555-2.6137zm16.081-3.8005c7.4347-4.2455 4.7906-9.3746-5.3211-11.235-6.6407-1.48-6.2139 3.922-2.6996 11.214 1.7462 3.6232 2.9318 2.9267 8.0207 0.02zm-57.889-26.912c-0.0935-2.5032-1.1661-6.5323-2.3838-8.9536-8.8146-17.529-13.806-38.297-13.115-64.184 0.49529-18.557 0.6637-24.295-3.1991-24.276-5.3672 2.6512-8.172 37.198-0.98416 65.858 5.0714 20.222 20.192 45.222 19.682 31.555zm-0.52181-28.087c-0.63301-9.6846 1.2619-31.427 0.14454-36.154-1.4688-6.2137-5.2266-11.797-7.3298-13.272-3.2634-2.289-4.0231 2.1774-2.7736 13.808 2.9315 27.287 7.5574 47.922 9.9589 35.619zm2.1746-49.754c2.0888-3.8536 1.2114-7.909-3.583-16.993-18.883-35.777-21.554-60.342-2.3459-69.491 2.1506-1.0243 3.511-1.2297 4.942-2.042 6.0516-3.4356 3.665-9.5224-5.4119-6.8977-25.075 7.2509-29.774 30.799-8.0886 74.04 11.041 21.574 12.749 24.59 14.487 21.383zm4.3525-20.455c0.31271-1.514 0.90001-7.4007 1.1366-8.605 0.2378-1.211-2.3344-4.6442-5.1346-11.554-7.3109-18.039-7.543-25.555 0.13419-30.892 2.4921-1.4942 5.0777-1.5958 5.4482-3.29 0.57664-2.6363 0.48403-6.9567-1.1113-8.1912-11.092 0.2016-16.146 6.7126-18.021 12.877-2.823 9.7457 0.3903 23.94 9.2961 41.474 4.2815 5.4507 6.6007 15.479 8.2518 8.181zm8.2204-23.538c5.7995-12.014 0.00012-27.434-8.106-22.062-5.2584 3.4842-5.4871 7.1105-2.127 17.022 4.0925 12.072 6.4442 12.889 10.233 5.0403zm20.45-32.196c2.3491-2.3718 0.20365-5.7172-4.3321-18.868-3.885-11.264-2.2509-19.009 4.8856-21.321 10.244-2.6402 14.063 14.076 16.302 21.119 1.1757 5.4413 4.7868 6.9071 7.933 3.0787 0.88145-1.0726 1.1278-1.9582-0.45699-7.8927-6.9181-25.905-15.681-34.075-29.569-27.448-12.876 6.1437-11.028 19.544-1.3329 47.658 1.2971 3.7612 2.1653 6.5532 3.0753 6.9354 0.74481 0.3129 2.1918-1.9454 3.4947-3.2609zm11.366-8.9515c3.0328-3.0622 2.8675-1.6918-0.76352-12.493-4.1395-12.314-6.2726-14.868-10.527-10.572-2.613 2.6385-1.2471 5.4926 1.8809 15.573 3.6339 11.711 4.5776 12.371 9.4099 7.492zm536.06-48.272c20.269-14.278 11.567-39.406-15.421-48.459-3.1861-1.0688-6.6949-2.3639-7.7974-2.8779-12.417-5.7886-22.047-7.515-22.025-2.8796 0.0131 2.7214 3.7376 4.0551 15.643 9.6781 17.612 8.3179 21.678 18.107 13.17 30.604-6.1321 9.0065 5.6545 19.112 16.429 13.935zm18.192-30.899c1.6938-7.2313 4.2609-13.446 5.4769-17.662 1.6587-6.5971-0.55659-5.0434-4.9116-3.9686-11.196 5.9496-19.286 2.8747-13.727 10.824 6.1905 10.59 11.299 18.76 13.161 10.807zm-1.6765-25.193c13.937-8.5353 16.805-30.402 3.633-40.661-3.1505-2.4537-8.5863-5.6745-15.154-7.5923-13.331-3.8928-32.528-5.5151-39.535-3.313-1.4894 1.7928-1.5214 4.5848 0.002 5.3806 1.966 0.70342 5.5078 1.143 10.622 1.6038 19.547 1.7615 29.243 7.4504 28.461 21.28-0.80558 14.249-12.162 19.849-32.822 15.577-11.11-2.2973-16.259-1.0719-11.782 1.4651 5.3172 3.0136 16.739 6.9224 27.966 8.9966 9.6008 1.573 20.534 2.0949 28.609-2.7372zm-67.382-2.8462c15.4-35.517 22.689-128.31-68.294-194.33l3.1909 18.51c53.684 45.865 67.11 104.88 56.699 159.27zm79.862-64.257c-5.6074 3.7152-10.29 7.5592-17.508 10.868-4.3191 1.9872-4.4252 2.4616 1.5101 5.6056 2.8712 1.5209 7.6026 4.3225 9.4231 6.2379 3.1595 3.3242 6.8556 4.5706 8.2206 3.3348-0.20474-5.2584 1.407-22.67-1.646-26.046zm-26.632 6.9967c18.213-5.9596 27.896-14.837 25.65-29.483-3.2949-21.485-21.397-25.834-55.112-17.048-16.218 4.2263-17.586 11.856-2.193 7.7592 19.437-5.1727 34.821 2.1479 32.909 16.397-1.0723 12.287-10.891 19.545-28.269 19.739-9.1772 0.10233-12.004 0.94941-10.725 4.2344 0.86727 2.2276 30.235 0.85894 37.741-1.5971zm-30.745-50.786c29.765-10.54 43.481-26.564 36.459-44.269-8.2687-20.847-34.349-20.768-60.333-0.99099-12.14 9.0696-10.229 12.356 1.5803 7.6774 15.297-7.2114 25.175-8.4085 31.532-2.8809 11.482 9.9839 4.007 27.702-13.163 34.217-8.313 3.5528-10.974 5.4923-10.962 7.9905 0.0191 3.954 1.5323 2.984 14.886-1.7447zm50.398-0.88737c0.70182-6.2033-6.5596-27.614-9.5385-22.634-0.7892 1.3192-3.5116 7.4178-7.0029 10.607-10.176 9.2948-8.2726 5.7965 1.9665 8.4916 5.6907 1.4979 13.75 5.3918 14.575 3.5355zm-79.534-45.042c30.014-17.787 41.265-42.823 25.428-59.204-14.238-14.728-37.467-5.8043-58.834 21.496-9.7958 12.516-2.3505 10.875 10.911-1.0735 15.447-13.918 35.363-7.5039 35.446 9.6559 0.0354 7.328-10.229 19.769-20.002 25.606-3.0344 1.8123-3.4492 4.5445-2.3496 6.3047 1.1877 1.9011 3.6229 0.63999 9.4007-2.7841zm52.748-18.793c-1.6282-4.6722-13.218-24.679-15.65-23.963-2.5211 5.1912-2.6337 11.986-5.6648 17.493-4.1184 8.2777-3.5986 6.981 9.8145 6.7903 9.9847-0.14218 11.208 1.238 11.501-0.31966zm-89-21.71c25.085-26.535 26.986-57.3 3.1282-64.111-13.212-3.7718-34.165 5.953-34.117 15.755 0.0297 6.1027 1.1876 7.1978 6.5002 4.948 22.333-8.5648 40.347 12.732 20.02 37.666-4.9328 7.2097-5.5841 9.012-4.1072 10.475 1.7282 1.7116 3.1116 1.0482 8.576-4.7322zm270.85-227.53-7.7254-695.82-148.52 1.6489l-115.96 185 0.33 45.467c0.0111 1.5706 2.7078 2.5166 4.4212 0.5219 6.6458-5.2407 4.119 0.21232-3.46 11.998-7.6625 11.915-5.17 21.636 3.4945 34.171 18.364 26.567 28.328 75.6 20.928 101.66-2.7938 9.8399-3.3962 13.808-1.4414 19.275 2.2348 6.2494 3.605 9.5866 9.9194 13.56 5.4956 3.7276 50.554 20.67 123.34 66.194l-3.983-326.9 45.054-44.017 48.616 45.347 7.6772 539.69c0.081 5.706 11.294 8.1808 17.273 2.2013zm-32.052-540.27-40.695-36.949-39.409 37.283c1.7441 175.8 6.9678 536.6 6.9678 536.6l39.603 2.3964s2.8144-8.2629-1.127-29.501c-5.9141-31.868-5.9997-70.868 2.2726-130.28 5.1632-36.451-0.7161-67.942-9.5264-101.07-7.5732-22.057-8.0618-42.541-6.9515-62.363 2.4645-31.61 10.919-55.552 11.482-101 0.3209-25.906-1.2013-51.252-0.6066-83.21 0.3441-4.2862 2.1632-3.7783 2.5338 0.63584 1.5319 28.901 2.9631 56.355 3.5386 84.588-0.4611 36.729-9.0477 74.617-9.6632 108.24-0.4852 23.293-0.7727 31.351 9.404 59.59 15.994 44.383 6.5537 112.94 6.3854 114.16-6.0797 43.924-10.246 100.07 12.398 141.79l21.512 1.6745zm-273.4 334.71c11.825-5.5757 14.069-15.214 7.4134-38.292-1.1879-4.1193-2.544-9.0162-3.0136-10.882-1.4342-5.6988-4.0179-6.297-7.405-1.7144-2.0231 2.7372-0.12221 3.3475 3.1742 16.041 4.9823 19.186 2.2824 25.579-4.8928 25.614-6.3599 0.0307-11.37-5.1404-13.326-17.603-0.66781-4.2556-1.6064-7.1518-2.6569-8.8458-1.761-2.8396-3.837-2.301-5.4809 0.87596-2.1272 4.1112 2.1416 20.9 7.6558 29 5.9736 8.1631 10.045 9.8072 18.531 5.8057zm-3.4281-17.239c2.477-4.7668-0.78602-16.393-2.5093-24.011-1.5562-4.2446-3.2836-5.2656-6.1034-4.5434-4.2006 1.0759-3.945 5.6671-2.3363 13.213 3.2759 15.367 4.9774 17.293 10.949 15.341zm35.817-28.189c13.509-7.8785 14.661-21.22 5.2575-45.36-3.8555-9.8975-8.5979-16.841-11.171-16.888-0.93827 6.3333-1.8343 9.7132-0.67857 12.182 1.0877 2.2916 2.9119 5.7967 4.2204 8.7316 7.9339 17.795 5.966 28.125-1.444 33.796-6.9169 5.2939-2.4555 9.6306 3.8152 7.5394zm-445.12-4.378c31.817-7.1552 60.012-58.569 77.621-104.33 15.993-46.089 32.975-96.721 35.286-138.81 0 0-12.055 0.6895-13.508 3.191-1.3382 2.4623-1.878 7.747-3.0749 15.275-7.886 38.787-14.167 68.245-28.268 104.78-9.7886 25.358-20.459 54.056-47.302 92.744-8.8402 10.827-19.015 17.591-31.872 19.523-3.2728 0.49164-8.7989-0.0581-10.178 0.9355-2.4242 1.7472-0.17683 5.6228 6.1418 7.1252 5.6632 1.3466 11.387 0.36367 15.154-0.42107zm439.35-10.853c4.809-5.2122 5.2203-11.345-0.38076-24.24-1.5695-3.6131-2.2939-5.6641-4.1047-5.1386-3.8339 1.1124-8.2121 11.241-5.4617 19.74 3.585 11.078 5.6402 14.306 9.9472 9.6381zm-450.63-3.114c9.3291-1.3459 21.081-8.8804 29.5-20.583 17.319-23.11 29.155-49.312 37.922-69.681 7.0188-16.41 19.629-51.806 23.019-64.612 7.2004-27.202 11.113-44.746 14.316-64.197 0.29433-1.7876 0.55947-4.6423 0.0184-5.5588-3.7115-0.96651-11.815-0.27485-14.278 2.2391-4.1322 31.186-14.194 62.537-21.514 88.583-12.341 44.307-48.134 115.36-68.037 118.92-10.704 1.9114-23.094-7.2445-21.224-16.8 1.1478-5.8671 1.9284-8.1062 4.7914-9.6043 6.9243-2.5144 11.022 2.1553 3.4298 5.3186-8.7498 7.753 7.2846 19.282 16.958 10.997 16.403-14.049-8.2171-40.334-27.991-27.909-21.908 13.766-15.98 37.121-1.9857 48.096 7.0567 5.5342 15.167 6.2332 25.076 4.7949zm155.85-33.44c13.474-14.091 23.508-32.252 30.703-54.899 15.572-50.852 28.303-109.09 32.647-154.65 0 0-11.654-1.0674-14.217 1.4136-1.8095 1.7515-0.0424 3.3791-4.6249 36.69-7.7732 48.569-19.361 96.851-36.433 138.72-6.9977 16.932-9.0127 19.021-13.989 27.829-6.944 12.441-4.2864 15.56 5.914 4.8926zm301.17-109c-1.269-0.6383-1.157-0.21195-1.6895 0.16383-1.8439 1.3012-0.55784 7.7633 3.7703 17.709 11.308 17.749 12.991 52.421 12.412 65.465-0.17889 3.9174-0.55954 6.166 0.67121 9.6346 1.2182 3.3997 3.33 7.344 6.5863 0.65691 3.3682-25.723 0.20041-52.577-9.9186-74.239-3.5706-7.7047-7.061-15.232-11.831-19.391zm9.3955 75.637c1.8694-6.9295-2.0307-34.294-6.5976-43.873-1.8411-3.8616-5.0943-4.1263-4.6555 0.28062 0.14032 9.4937-0.68701 27.563 0.39742 32.898 4.9774 11.109 8.8372 18.176 10.856 10.694zm-26.384-110.42-5.244 0.0641c0.37959 17.919-15.511 23.077-21.631 1.6201l-4.7083 1.1418c6.6132 30.306 34.819 16.064 31.583-2.8259zm-31.728 13.864c-2.8129-7.9225-1.7178-10.841-8.5908-7.1888-5.2507 2.7901-8.3832 5.7336-0.90808 9.219 6.6471 2.7193 11.278 2.9814 9.4989-2.0302zm39.89-5.023c2.1398-4.4355 1.8353-8.4124-1.4637-8.3965-2.5456 0.01232-3.2304 2.0423-3.905 6.3304-1.2048 7.6582 2.008 9.0322 5.3687 2.0661zm2.4431-29.808c2.0136-0.66298 1.4082-3.4954 0.82457-7.0978-8.7741-11.877-30.113-7.974-37.765-5.5088-8.8364 2.9649-11.07 1.9217-17.137-0.76656-4.9976-0.86824-5.6859 0.34766-6.8716 2.7348-1.0443 2.1024-1.1904 6.0785-1.4602 13.005-0.22794 5.8525 0.0118 8.5679 2.0335 6.7177 7.8356-7.1712 16.898-16.122 30.261-16.821 16.194-0.84718 30.127 8.0001 30.115 7.737zm-58.67 16.861c0.0119 2.413 2.0604 0.88578 7.2972-2.4708 19.058-11.573 30.19-10.089 46.676-4.8553 3.671 1.1654 5.8921-2.6746 1.8916-5.878-19.69-15.763-43.6-5.31-55.86 13.204zm68.703-74.374 102.17-172.74-579.86 6.014l100.48 181.08c80.09-19.414 211.98-44.534 377.21-14.349z" fill="#131f67"/>
    <path d="m367.41 1334c12.08-18.403 73.262 13.467 76.622 26.324 35.682-28.651 79.368-31.194 114.94 3.7788 35.73-39.82 74.475-37.554 115.01-15.171-4.5991-8.8538 50.963-48.806 85.275-24.191l93.86 162.42-589.65 8.4396c34.253-52.519 64.419-115.13 103.95-161.61zm-267.03-849.62c-3.3-8.8123-17.245-99.464 15.548-102.09 53.322 22.863 121.98 106 153.93 156.92 39.595 63.096 80.511 208.74 58.742 202.6-3.1442-0.88674 67.738 68.318 72.648 75.103 8.0666 11.148-115.73 221.98-136.65 214.7-6.3234-2.2014-48.602-26.736-48.602-26.736l0.4277-69.893s64.561-130.66 67.736-174.12c1.1997-16.422-45.91-43.981-48.114-49.627-5.4895-14.064-5.44-66.548-32.962-89.159-15.13-8.9518-29.29-5.8835-44.523-3.7774-62.002-9.6152-31.09-113.97-58.183-133.92zm1035.5 35.152 0.6577 25.774c-40.647 9.3092-113.04-24.305-134.23 31.376 3.3689 59.848 17.121 86.55 26.713 104.53 7.2421 16.164 56.586-2.9171 74.22 13.271 50.751 60.901 39.844 142.86 41.103 216.59l-21.604 11.182c-151.11-86.62-269.42-359.59-286.26-437.49-1.58-50.12 135.38-212.75 135.38-212.75 0.31109-0.35347 50.886 29.934 50.886 29.934 1.219 0.47198 1.2815 211.43 1.2782 210.45 39.694 1.5947 78.194 5.0297 111.85 7.1381zm-307.09-189.4c-75.794 110.98-100.02 275.87-93.793 390.62 11.886 171.3 136.07 322.76 128.04 337.29-1.4024-0.9878-4.6181 0.7511-5.8612-0.327-28.488-24.708-48.146-20.106-62.576-20.173-27.581-0.1282-35.113 8.1575-50.916 9.8971-40.358 4.4428-37.067 5.4275-71.48-7.066-43.639-34.686-101.86-61.009-148.11-74.679-36.916 3.7275-93.069 21.763-114.53 7.9007 145.2-274.45 121.06-448.85-35.57-733.08 12.765 3.5987 14.875 15.424 24.432 18.24 31.678 11.801 75.09 6.7105 101.01-4.9125 28.14-13.016 55.048 5.2863 54.68 4.6754 56.125 38.589 123.79 63.14 159.06 80.233 10.425 5.221 23.431-3.3478 34.85-5.7855 23.398-4.9947 43.38-15.222 60.943-9.5578 5.6335 1.8169 14.031 4.0243 19.825 6.7254zm-350-353.16c-7.7-13.919-86.51-159.5-86.51-159.5l574.16-2.9245-84.565 142.23c-8.0441 7.7589-48.268 29.583-90.075-18.358-0.69763 6.9631-60.686 50.646-113.24-0.57176-30.965 28.693-62.686 45.469-115.67 14.145-1.0705 8.9108-41.673 49.281-84.101 24.976z" fill="#e2cf00"/>
    <path d="m556.99 1360.9c-56.204-51.395-113.59-3.8015-112.23-0.8458-22.263-22.079-43.996-40.121-72.919-30.82 0 0-0.0833-7.8319 0.13231-8.0124 86.699 14.845 219.27 17.47 373.82-16.603l8.1363 16.509c-41.709-14.274-62.899 5.8423-81.053 29.256-67.14-40.782-83.003-4.1743-115.88 10.516zm123.02-606.38 39.346-1.2046c8.6811 114.22 106.24 288.07 108.54 288.04-6.7623-9.1591-69.807-1.1773-69.328-0.017-35.736-92.098-74.874-184.07-78.557-286.82zm-226.51 273.71s-13.023-32.626-20.757-46.561c40.533-70.924 73.615-144.23 90.1-225.53l28.144-0.0624c-7.0949 112.06-94.935 283.1-97.487 272.15zm506.09-20.613c60.743-112.39 48.259-273.27-128.57-360.29 0 0 3.2729-118.06 16.346-118.48 2.9612 0.88154 79.581-1.8679 79.581-1.8679 19.532-49.437 51.184-109.31 95.886-150l2.5946 131.9c-33.377 3.6623-53.637 14.537-63.469 40.75l-46.183 10.809c4.8728 132.48 56.16 254.36 205.45 362.68-35.046 30.764-155.31 93.766-154.85 92.679zm-742.85-75.04-0.21-137.38c22.401-5.0958 40.171 1.2098 58.264-39.191 0 0 31.275 14.405 41.673 19.727-28.503 52.294-52.993 108.11-99.728 156.84zm292.09-246.47 0.75096-69.753 66.315 1.1732c-5.3654 23.709-6.8616 47.375 0.91896 70.939zm151.23-2.5241c4.2738-22.87 7.2519-45.854-2.4066-69.961l71.797 0.42434-0.92055 69.473zm-138.02-134.86c-13.46-136.65-109.02-290.42-110.3-287.11 11.075 1.6456 30.605 6.9015 41.267 1.7131 12.997 2.0074 24.217 0.4157 24.818-0.78878 0.81183-4.793 89.436 197.63 78.882 285.49-1.3412 2.9816-31.824 3.519-34.67 0.6999zm165.93-0.64292c9.4279-63.3 34.294-179.18 95.01-273.59 7.2047 16.565 13.285 33.613 23.089 49.061-45.812 68.18-73.645 145.84-90.178 224.98zm-429.62-29.3c-28.89-57.26-147.44-146.59-141.33-137.5 48.18-44.11 102.14-72.38 156-100.93 0 0 9.7306 9.023 8.2966 11.337-32.72 52.797-47.633 164.05-14.682 227.36 31.74 67.655 87.154 107.24 143.54 138.18-3.8637 42.565-5.6409 73.317-15.641 115.7 0 0-35.419-18.106-64.41-29.693-5.48-80.24-22.91-151.87-71.77-224.46zm305.06-567.63c41.709 24.769 78.786 21.698 114.38-12.939 45.614 40.432 94.238 20.825 114.67 2.1428 19.335 21.279 44.349 32.926 80.655 25.421l-8.8026 18.996c2.0428-10.065-251.24-23.644-373.31 11.962 0 0-7.3169-14.178-6.5218-14.308 10.651-0.76359 46.268 11.967 78.932-31.275z" fill="#d40000"/>
    <path d="m1001.2 153.38v19.25l18.5-1v166.16l-20 0.0937v19.75h55.5v-19.75h-14.5v-47.781l24.219-31.5 31.781 79.281h-20v19.75h60.75v-19.75h-16.844l-42.406-101.53 43.406-64.719h13.594v-18.25h-58.5v18.25h18.375l-54.375 79.344v-79.344h14.5v-18.25zm462.56 103.89 102.31 190.39s2.9974-0.55036 4.5-0.84375c141.81-27.688 254.12-31.476 374.75-10.281l107.24-177.25c-195.17-2.219-588.8-2.0168-588.8-2.0168zm11.405 8.1097 568.94 0.625-32 52.438c-19.166-5.9062-29.847 2.8726-32.531 21.219 0 0-2.3692-1.0202-6.8125-1.5-28.039-3.028-31.578 33.887-5.4063 38.344 6.6829 1.1379 7.8126-0.1875 7.8126-0.1875-23.347 19.596-36.608 6.3753-47.594-0.0937-0.2972 2.288-20.925 17.772-40.375-0.75 27.855 2.7794 32.191-25.109 18.875-35.719-2.786-2.7361-5.625-4.875-5.625-4.875 6.5545-5.7043 7.9826-13.288 3.7812-21.969-8.4472-17.457-34.922-16.438-38.969 2.625-1.5747 7.4174-1.625 8.7188-1.625 8.7188-21.38 1.3946-25.723 21.56-18.375 32.75 4.1767 6.361 13.362 7.7411 21.844 7.3125-11.432 16.181-37.597 10.673-49.25-2.6562-18.519 21.743-39.624 19.096-50.156 7.4375 7.1548-0.0769 12.088-0.18049 18.656-6.25 11.233-10.379 5.7141-28.786-10.156-33.938-3.0789-0.99943-5.2977-1.2046-5.4688-1.2188 0.1129-0.15758 0.4121-1.1761 1.0938-6.7188 3.9482-32.101-44.182-28.93-39.531 2.6562 0.5389 3.6605 1.5312 5.625 1.5312 5.625s-5.1063-0.28501-8.0312 1.0625c-26.728 12.313-8.3128 46.223 12.344 37.5 1.9601-0.8277 7.2893-3.4438 8.0625-3.4062-25.585 31.697-47.061 9.2289-52.719 5.7812-17.278 25.611-47.288 8.1382-47.906 6.3438 1.8689 0.5187 7.4957-0.64114 12.844-3.375 16.91-8.807 12.126-31.471-1.0626-36.406-4.0404-1.4089-8.92-1.557-14.406-1.125 0 0 0.4169-5.7065-0.125-7.7188-8.3125-30.865-46.729-15.455-37.281 10.625 0.8286 2.2876 3.0624 4.5938 3.0624 4.5938s-5.2081 3.1616-7.5312 5.25c-18.34 16.487 0.3235 43.686 21.75 32.375 2.7659-1.4601 5.4464-4.5274 6.2188-4.3438-10.08 18.404-25.375 24.83-47.188 9.5938-13.453 21.312-35.405 12.459-41.594 1.7812 20.508 1.8771 33.83-37.41-5.5937-38.688-3.0658-10.668-2.9127-26.924-27.906-24.125zm-133.12 22.906c-21.403 56.741-81.82 108.09-116.81 172-39.532 64.688-27.118 130.85 26.688 142.28 28.205 5.9948 64.998-21.122 68.281-50.312 0.6706-5.9634 2.8683-9.1099 6.875-8.625 3.1283 0.37861 2.8372 8.0727 1.6562 17.312-4.3199 30.35-20.77 78.515-42.062 100.72l99 0.0625c-3.9778-2.2474-40.94-48.427-37.344-104.44 0.063-10.016 0.059-13.34 4.5-13.312 3.5636 0.0224 3.6019 1.672 4.6562 11.5 6.6712 62.175 83.974 68.92 108.25 9.4688 12.254-30.005-0.5867-83.4-32.906-129.06-24.546-40.177-66.313-86.893-90.781-147.59zm43.625 373.44c0.2152 0.12166 0.3635 0.1414 0.375 0zm367.34-328.94c4.5154 0 8.1554 3.6721 8.1563 8.1875 0 4.5154-3.6409 8.1875-8.1563 8.1875s-8.1875-3.6721-8.1875-8.1875 3.6721-8.1875 8.1875-8.1875zm127.12 0.96875c4.7839 0 8.6555 3.9036 8.6563 8.6875 0 4.7839-3.8724 8.6562-8.6563 8.6562s-8.6555-3.8723-8.6563-8.6562c0-4.7839 3.8724-8.6875 8.6563-8.6875zm-249.1 9.46c4.6131 0 8.3428 3.7307 8.3438 8.3438 0 4.6131-3.7307 8.375-8.3438 8.375s-8.375-3.7619-8.375-8.375 3.7619-8.3438 8.375-8.3438zm356.97 10.281-7.25 12.875c-7.9971-7.009-2.4836-16.2 7.25-12.875zm-456.5 17.75-7.2071-13.312c12.904 0.87075 9.0998 10.109 7.2071 13.312zm220.5-7.25c48.826 55.632 92.615 39.176 121.25 2.1875 12.281 31.526 39.651 53.324 86.75 32.125-2.849 5.0412-10 13.938-10 13.938-41.624 11.212-62.283-8.3762-78.344-27.031-42.346 35.154-82.222 26.632-115.12-4.375-28.084 35.355-73.561 42.953-115.66 14.094-19.244 28.401-46.85 39.87-81.562 25.656 0 0-7.3647-11.577-8-12.312 5.0272 4.2197 68.957 30.756 84.562-33.062 22.2 37.77 95.2 39.77 116.1-11.22zm4.9062 22.875c54.923 51.357 112.56 6.9473 114.03 3.8125 0.8624 2.8551 32.21 40.284 77.406 26.219l-7.3 12.59c-85.046-14.388-163.27-23.631-342.44 2.7188 0 0 28.596-8.4688 43.062-31.281 8.0517 5.2296 70.204 39.921 115.28-14.062zm-694.38 14.562c-4.9987 12.105-13.168 24.623-20 35.812-32.141 49.867-33.971 54.651-36.531 72.25-7.1511 34.451 33.529 48.392 46.5 24.875 5.8117-9.9374 9.4714-3.4688 6.875 5.9375-1.656 16.524-18.476 35.671-18.531 35.312l49.3 0.37s-21.139-21.531-20.812-38.812c0.028-7.8994 4.2335-8.1285 9.375-1.0312 14.709 20.303 42.131 3.9723 42.312-24.906 0.1111-17.693-5.2575-27.617-37.281-75.25-6.981-10.424-14.675-23.548-21.188-34.562zm501.88 28s23.907 2.805 25.781 3.2812c2.098 1.6278-20.129 7.7296-20.219 7.2812zm48.469 245.03c-1.4473 0.0479-3.2528 1.6744-6.25 4.625-6.4846 6.3837-7.958 7.2219-14.25 8.125-4.7447 0.68103-14.766 6.4474-20.844 12-1.6429 1.5013-4.7804 2.754-8.5312 3.4062-3.2592 0.56677-7.7448 1.3386-9.9688 1.7188-2.2225 0.38014-4.6385 1.0833-5.375 1.5312-3.1913 1.9448-8.3893 2.2423-14.219 0.84375-5.622-1.3488-6.5232-1.3135-12.719 0.59375-9.0269 2.7785-14.934 2.7836-19.375 0-4.4404-2.782-11.495-3.8204-15.969-2.375-6.6175 2.138-23.756-8.1221-23.719-14.188 0.01-1.3763-9.7398-8.6721-12.187-8.6875-8.6869-1.2876-85.014 28.847-84.625 30.594 93.723 115.76 172.62 292.12 113.19 507.94l-10.5-5.0313c8.8227-39.23 12.317-78.71 15.031-118.81-175.92-75.948-191.06-252.56-122.78-364.06l-11.594-12.344c-41.4 22.03-83.4 34.57-185.7 120.36l0.2812 138.88c0.2516 125.55 0.1876 247.88 0.1876 247.88 37.01 4.098 77.769 7.4461 117.97 10.906 0 0-0.5165 124.16-1.4375 172.72-0.7788 41.074 0.75 38.5 0.75 38.5l133.12 70.188c-9.3564-36.971 13.734-51.653 33.062-50.118-8.5445-35.642 12.662-51.958 36.875-47.382 16.354 3.0907 22.079 12.108 31.438 41.906 1.5207 4.842 3.6124 11.321 3.6124 11.321l9.3312-0.3443c11.677-25.08 19.48-56.992 46.959-61.13 35.962-5.4154 49.356 19.294 49.339 44 34.847-30.705 76.587-6.9394 73.874 38.931 17.533-11.27 47.241-21.459 65.958 22.002 7.0376-1.4818 10.622-9.3236 20.52-11.779 3.701-0.7732 12.094-5.2813 12.094-5.2813l0.1036-1.5056s7.7793-2.6923 18.209-4.4007c8.9498 3.3402 6.3393 3.2244 11.161-2.723 5.3716-2.7521 14.085-4.5678 20.807-3.9644 7.046 0.6314 10.182 1.14 14.312-0.6563 6.4314-2.8102 12.441-3.5249 16.25 0.7187 2.7354 3.0475 6.6925 1.5769 10.938 1.4063 8.4948-0.3414 19.812 3.1485 23.344 10.781 5.205 5.3067 16.594 10.687 16.594 10.687l9.2188-2.125 1.0625-3.4062 75.406-28.781c-153.76-168.36-149.75-391.72-113.53-504.78l13.906 6.6875c-7.376 33.508-15.746 67.922-14.656 117.88 138.46 61.736 207.35 221.31 123.41 360.59l8.875 11.469c34.922-14.658 122.77-63.978 153.12-90.781l6.4687 0.5313s18.41-11.921 26.531-18.281l1.0937-369.62-6.4375 1.6875-1.1562-21.594-114.16-9.0625c1.4513-1.0851 2.5448-1.5264 2.875-3.6875l-0.6563-204.62c-4.2397-6.4843-99.852-62.491-135.41-75.594-1.4237-0.009-0.4443 2.3969 0.062 8.25 1.7465 20.072-11.805 37.936-27.5 37.969-5.6497 0.0118-6.6257 2.4125-6.3437 13.938 0.3994 16.389-5.5242 27.398-22.781 33.625-20.458 7.3817-34.304-3.3212-45.688-45.406-2.9896-11.053-8.8368-8.2884-14.438 6.8125-2.7801 7.4957-11.781 25.689-17.156 35.281-4.1412 7.3701-10.691 10.642-19.594 14.562-6.9413 3.4331-21.965 2.838-30.625-1.5625-15.697-7.9764-21.788-17.552-26.312-41.281-0.5912-3.1005-2.6294-2.8335-7.7188 1-27.717 20.883-66.695-0.70617-66.469-36.812 0.066-10.6-0.3671-11.022-6.5937-5.9375-18.796 15.348-44.337 7.5639-54.563-16.625-2.3933-5.6626-3.6704-8.1866-5.5312-8.125zm-159.31 12.812c1.9586-0.0861 8.0625 8.0312 8.0625 8.0312 5.6287 6.225 13.192 9.3762 21.062 14 0.7323-1.0985 91.769 121.08 107.25 289.53l42.344 0.21875c-7.8961-163.68-53.039-242.36-73.75-292.84l15.188-4.8125c34.056 65.25 75.566 197.68 74.187 313.62h-69.937c-9.8729-116.13-55.031-229.35-118.19-315.25-4.3963-6.5981-7.8401-11.2-6.5624-12.375 0.091-0.0834 0.2131-0.11926 0.3437-0.125zm-26.781 17.281 7.0938 22.25s0.8519-5.192 3.0312-7.1562c13.818-12.453 27.042 3.9406 20.813 26.188-1.4225 6.8492-4.1876 20.344-4.1876 20.344s-13.885-7.1213-20.875-9.4062c-19.271-8.1855-25.691-24.324-10.969-26.156 2.4652-0.30682 7.5313-0.53125 7.5313-0.53125-6.1218-4.8096-19.625-15.812-19.625-15.812zm64.688 2.5c5.8207 3.3031 20.842 6.8676 29.469 3.625 6.9723-2.6207 12.279-1.1824 19.531-0.5625 4.1582 0.35551 12.437-1.4688 12.437-1.4688 41.404 87.103 69.883 190.45 74.625 284.97l-32.562 0.1875c-12.3-100.4-51.2-202.4-100.5-278.06-2.1821-3.2968-5.0834-8.5644-3.0312-8.6875zm136.03 1.5c12.607 0.15131 25.798 12.719 32.969 33.281 3.9923 11.451 5.5521 10.758 10.906 8.9062 13.755-4.7116 28.4 10.389 9.9688 12.906-18.093 2.9895-7.7679 38.383-9.3126 41.5-7.3316 1.2814-21.109-28.8-20.75-37.75 0.8811-21.938-19.726-40.281-32.531-31.062-6.068 4.3682-5.4078 7.4487-7.2812 5.875-5.7635-4.84-6.9307-18.186-0.1876-25.75 4.8736-5.4655 10.488-7.975 16.219-7.9062zm374.56 7.5625s0.7128 28.85-0.375 35.219c-2.1486 19.231-27.269 21.253-28.25 5.875-4.1039 6.1447-6.9249 13.788-8.5625 20.656l-17.812-12.25c6.7636-4.8556 13.215-9.1171 18.219-15.125-13.207 1.0006-20.587-10.429-11.75-20.156 9.8119-11.142 36.955-12.344 48.531-14.219zm-654.94 9.125 7.875 8.875c-70.188 124.41-45.441 283.44 123.97 367-1.1209 38.17-6.01 76.774-15.125 112.59l-62.5-30.313c0.4206-140.66-79.225-274.76-206.38-362.91 46.137-37.07 97.178-69.632 152.16-95.25zm511.75 1.0625c2.9802 16.424 18.533 46.172 19.656 44.469-0.1628-0.97652-64.722 82.691-92.781 222.62l-23.969 0.0937c15.713-93.242 47.069-181.23 97.094-267.19zm198.97 3.9062 12.75 7.7188c-66.9 56.01-110.95 127.02-143.31 203.59l-16.906-8c50.169-111.08 99.739-160.41 147.47-203.31zm17.844 12.406c3.4997 0.22304 7.6535 4.6547 14.094 8.1875 6.297 3.4535 4.7293 5.2894-7.125 14.375-14.019 10.746-15.339 10.27-15.219-5.0625 0.08-10.171 2.649-16.953 7.5625-17.469 0.2279-0.0239 0.4542-0.0462 0.6875-0.0312zm-15.406 15.812c0.7366-0.0391 1.3323 0.2039 1.7188 0.8125 1.0249 4.057 0.9198 13.356-0.7188 22.531-1.3249 6.0406-19.304 21.217-25.719 27.219-2.5699 1.6881-3.7466 1.0711-4.2187-1.9375 0.2026-4.764 0.6638-11.107 0.75-17.562 0.025-1.9878-0.3923-4.0708 1.4062-5.5938 8.8112-10.4 21.635-25.195 26.781-25.469zm33.406 4.9375c0.1084 0.004 0.177 0.0187 0.25 0.0625 1.659 0.99606 1.3873 21.844 0.2187 23.219-5.2161 1.3482-19.243-0.86146-22.844-2.7812-0.7871-2.4218 19.013-20.637 22.375-20.5zm-626.66 6.75 4.875 20.438s1.3967-2.7408 1.75-3.2812c9.6874-14.815 21.473-6.1298 21.281 14.438-0.063 6.4962-5.9687 32.469-5.9687 32.469s-36.361-17.463-39.219-25.125c-2.8121-7.5386 1.1816-14.172 7.875-14.781 2.5024-0.2858 5.1277-0.4905 8 0l-15.7-15.97zm416.31 2.7188 16.5 6.0938c-34.41 55.972-69.918 111.26-95.781 237.34h-69.156c9.6716-77.055 29.273-152.81 64.25-226.53 0 0 13.582-4.1715 21.25-6.6562 0-0.00002-57.159 130.79-63.812 214.88l33.4 0.7c17.825-81.94 51.191-166.87 93.344-225.84zm-130.94 2.0312c9.2924-0.34609 16.147 6.1886 15.625 17.781-0.1166 10.602-1.0881 12.143-8.5937 7.9062-9.8517-5.5615-17.644-5.6829-26.469 0.625-4.8578 3.4722-9.625 6.3438-9.625 6.3438s4.2575-18.416 10.781-24.219c6.2486-5.5578 12.706-8.2298 18.281-8.4375zm-35.469 27.25c-0.6708 6.2314-2.5081 9.0881-4.1563 14.406 0 0 5.4113-2.1055 8-3.3125 12.289-5.7299 25.096 4.8818 24.906 17.312 0.5523 8.2925-8.4578 18.226-19.188 18.312-3.7434 0.0301-7.7058-1.1485-11.531-4 2.7755 15.192 3.3277 22.219-7.7813 29.844-9.295 6.1859-28.881-0.88544-27.781-17.875l0.6876-10.469-9.4063 1.2188c-26.272 1.0761-26.732-31.262-5.5313-36.344 8.4664-2.0022 17.656 4.9375 17.656 4.9375-4.0268-7.9284-4.1085-21.573 1.3125-27.875 13.342-15.51 34.454-1.4096 32.812 13.844zm229.41-20.188c1.4358 12.103 6.2433 25.299 4.875 36.594-2.0469 14.436-14.32 22.986-23.969 13.625-1.1905-1.155-3.3438-3.5625-3.3438-3.5625-4.3475 5.5083-7.0624 21.094-7.0624 21.094l-17.031-10.5s11.827-8.3011 15.094-13.031c0.9105-1.3164 1.3438-3.8125 1.3438-3.8125-9.4778 2.9627-17.521-6.7292-14.938-15.281 5.132-14.008 30.62-19.2 45.031-25.125zm119.03 8.75c6.3752-0.19861 16.244 1.6088 24.031 2.4375 5.9963 1.0451 2.6706 4.4246-10.75 17.5-12.326 12.01-11.938 10.879-21.437 10.719-22.184-0.37432-26.071 0.12461-13.156-13.812 6.7673-7.3029 12.676-13.899 17.531-16.344 1.0299-0.29726 2.31-0.45417 3.7812-0.5zm-40 2.5312c0.2817 0.0126 0.5078 0.11689 0.7188 0.3125 1.4685 1.3706 0.9734 7.6259 0.8124 16.875-0.1699 9.8436-0.063 9.8487-4.1874 15-5.2501 6.5793-9.6129 13.293-15.094 19.625-4.7462 5.1504-4.5981 4.5991-7.4375-7.7812-2.7538-12.007-1.2193-15.746 14.25-33.156 5.2344-6.7167 8.9658-10.964 10.938-10.875zm69.281 6.8438 0.1876 24.344c-45.8 44.78-76.9 95.12-98.1 150.61l-15.938-6.3438c27.612-70.894 68.943-126.18 113.78-168.59zm-396.81 14.719c-7.567 0-13.688 6.1211-13.688 13.688 0.0005 7.5664 6.1206 13.719 13.688 13.719 7.5664 0 13.719-6.1523 13.719-13.719 0-7.5664-6.1523-13.688-13.719-13.688zm-0.094 4.3125c5.2233 0 9.4684 4.2455 9.4688 9.4688 0 5.2233-4.2455 9.4688-9.4688 9.4688s-9.4375-4.2455-9.4375-9.4688 4.2142-9.4688 9.4375-9.4688zm-508.56 5.7812c142.79 91.61 206.82 233.62 206.53 355.62l-8.0626-3.625c-8.3-172.4-102-278.41-203.3-346.99zm845.38 1.3125c3.2325 0.0121 7.6309 0.51384 14 1.25 11.821 0.63057 13.27 1.3772 5.125 10.719-2.2306 2.5582-6.5113 7.9089-9.5313 11.938-3.0185 4.0286-6.6936 8.2328-8.375 8.8125-2.4847 0.85735-23.235-0.12216-29.156-0.9375-1.9399-0.26714 0.6072-2.2469 10.719-16.688 7.7493-11.069 8.5719-14.733 15.906-15.062 0.4167-0.0187 0.8507-0.0331 1.3125-0.0312zm59.469 4.6875s2.8338 78.577 0.7813 128.69c-32.573-1.2046-51.704 11.159-59.656 34.562l-34.219-16.938c25.108-64.485 58.684-109.36 93.094-146.31zm-100.81 1.8125c1.8497 0.0275 2.9079 3.8572 3.4374 11.406 2.1541 13.507 1.9181 15.08-3.7187 23.75-2.8064 4.3168-6.6566 10.412-8.5313 13.562-3.2678 5.4966-5.5911 7.1331-6.4062 4.4688-4.4582-14.573-5.8648-23.592-4.2812-26.531 2.601-4.8314 14.753-22.099 16.469-24.344 1.19-1.5571 2.189-2.325 3.0313-2.3125zm-814.53 1.4688c114.78 71.065 198.75 192.43 202.22 339.06 0 0-24.461-11.48-39.562-19.875l-0.7813-14.25 7.9687-0.25 2.5626 16.062 17.531-0.5624-4.6562-40.094-27.438 2.5938-5.5312-22.719 8.3125-1.7812 4.5937 14.656 17.844-4.7188-9.5-35.719-27.562 7.5313-8.8125-24.125 9.1562-3.2813 7.4063 14.438 16.781-5.8438-15.844-35.812-25.344 11.969-12.875-23.375 9.9063-5.2813 7.9687 13.906 15.688-8.125-19.406-32.938-24.062 13.438-12.094-18.125 7.4688-5.2188 8.25 9.5312 13.781-9.75-21.125-28.406-23.031 18.031-17.031-19.719 7.8437-6.6562 11.719 10.5 13.094-11.438-25.094-27.375-21.937 20-16.344-14.188 8-8.8438 10.188 7.7812 10.844-12.844-27.312-22.5-20.469 20.25-19.625-12.969v-9.6562c6.3721 2.4592 13.116 5.322 19.156 8.5312l10.156-15.375-29.312-19.781zm319.66 6.0625 4.3437 25.062c4.1204-6.8156 7.4003-11.509 16.312-8.875 10.704 4.3611 10.852 20.48 1.7812 45.156-1.6802 4.5718-3.75 8.5312-3.75 8.5312s-4.6921-1.9467-7.8124-4.0938c-6.55-4.477-17.581-9.5474-23.219-18.438-5.9043-9.3097-6.0336-22.332 4.8125-21.219 2.155 0.0135 6.4063 1.0312 6.4063 1.0312l-16.281-20.75zm-325.97 7.4688 19.875 12.812-4.125 7.5-15.75-7.0938zm498.28 5.9062c5.758 8.0508-14.506 31.773 12 41.25 0 0 0.651 5.4601-4.875 8.7812-12.967 9.4294-31.591-7.7846-25.812-25.5 3.6953-11.331 14.375-24.466 18.687-24.531zm55 0.75s7.9922 5.8391 9.5938 7.375c14.756 14.151 14.898 34.439 1.5312 41.531-8.8929 4.7189-18.947 0.91694-22.437-5.9375-1.6165-3.1717 1.0424-6.49 4.4374-6.4688 6.367 0.0399 11.227-12.158 9.3438-25-0.7464-5.089-2.4688-11.5-2.4688-11.5zm174.12 4.7188s1.7572 17.343 4.2813 25.031c7.7499 21.56-2.1498 34.689-16.625 27.469-2.0674-1.0312-5.7187-5.7188-5.7187-5.7188l-1.4376 24.781-20.594-6c4.455-7.1614 10.866-12.253 15.656-20.312 0 0-3.0829-0.10804-5.7813-0.125-12.301 0.4239-16.837-13.212-3.9375-24.438 9.6096-8.2882 34.156-20.688 34.156-20.688zm107.66 5.75c2.492-0.0176 5.5993 0.18353 9.875 0.1875 13.062 0.0122 16.416-1.7581 10.656 6.375-2.2465 3.1703-7.7216 11.996-9.3438 15-3.2928 6.0986-3.9521 8.0174-9.4375 9.2188-7.9437 1.5733-16.95 0.48585-26.031 0.90625-1.9724-0.0968 2.0827-6.862 4.3438-11.062 5.5435-10.298 8.9261-17.367 13.688-19.531 1.8709-0.85036 3.758-1.0761 6.25-1.0938zm-40.375 7.9688c1.5794-0.0836 2.7477 2.7453 4.25 8.5938 3.5057 13.647 4.411 13.988-1.25 25.188-2.8563 5.6511-7.7178 15.226-9.7187 19.188-5.133 10.161-5.4229 10.063-8.6563 0.96875-6.2034-17.446-6.7416-15.651 3.5-35.25 6.3965-12.241 9.5667-18.565 11.875-18.688zm-753.19 4.7812 18.469 14.812-5.25 5.0938-10.219-7.5312-15.094 16.156 24.813 22.625 21-20.688 18 18.812-5.5 4.6562-10.563-10.188-15.812 13.5 23.594 27.875 23.781-18.125 14.906 19.531-6.0938 3.8125-9.7187-9.4375-15.469 10.719 19.25 27.125 24.25-13.906 13.781 22.656-7.6562 3.6875-7.8126-12.438-17.406 10.031 16.438 31.719 26.188-10.938 10.531 24.219-8 3.25-6.7187-14.563-17.625 6.9688 11.812 33.312 26.562-7.625 6.4375 24.75-8.1875 2.2813-4.0313-13.719-16.906 4.0625 7.0625 33.438 27.031-1.7188 3.2187 27.031-8.4063 0.375-2.0937-16.125-17.219 0.2187c0.092 5.684 0.75 17.281 0.75 17.281l-10.406-4.8125c-15.461-102.79-70.6-188.45-152.75-248.09l-0.4375-12.281 20 12.688s18.34-16.337 21.5-20.5zm789.03 23.969c5.7316-0.0444 3.1973 4.4004-3.7812 17.688-7.7857 14.824-9.1696 15.131-23.75 18.688-17.733 4.3254-17.216 5.2922-7.625-15.156 3.6981-7.8848 6.3951-14.785 9.7812-17.406 4.4446-3.4391 13.055-2.1203 22.406-3.5312 1.1662-0.17596 2.1502-0.27491 2.9687-0.28125zm-829.56 4.375c85.314 55.038 139.24 168.88 145.94 237.91 0 0-2.3089-1.5483-6.9687-3.6875-6.4671-2.9687-8.055-4.9107-9.9375-14.312-16.899-84.401-64.542-156.03-128.66-206.59zm769.3 14.1c3.6101-0.75138 10.184 25.159 8.2187 30.594-1.4119 3.9074-14.103-5.3173-18.719-7.2812-2.308-0.98198 8.0597-22.805 10.5-23.312zm-411.41 1.1875-0.4062 26.875s3.2377-3.845 4.9062-5.0625c6.3457-4.6291 16.04 1.7861 16.406 9.7188 0.508 11.001-1.1544 15.467-9.9687 30.75-2.7286 4.7283-6.8438 10.75-6.8438 10.75s-10.406-7.4182-21.781-18.75c-12.295-12.247-9.947-28.602 0.8124-28.656 3.22-0.0265 6.0897 1.0701 8.9063 1.9688-2.3-7.91-11-23.28-11-23.28zm333.47 20.125s5.5695 7.3335 11.969 26.625c6.1098 18.422-3.2958 32.289-16.063 25.344-2.2876-1.2446-4.6874-3.9375-4.6874-3.9375-0.8947 8.9302 0.6938 24.996 0.9062 25.125l-20.594-3.5938s11.312-17.963 12.125-22.406c0 0-1.2773 1.0029-6.9374 1-20.692-0.0106-16.4-24.625 7.5-38.281 3.5883-2.0502 15.781-9.875 15.781-9.875zm118.62 0.3125c4.4768-0.19997 2.3628 4.134-2.5938 14.25-5.4795 11.187-4.1073 10.217-15.687 4.3125-16.195-7.9114-15.238-9.147 5.2812-14.688 6.4866-2.398 10.655-3.7702 13-3.875zm-293.69 3.2812c16.219 0.0981 28.181 16.1 25.781 38.844-4.1205 39.045-1.7524 36.636 2.5 40.531 7.7453 7.0989-2.7402 11.36-11.969 4.5938-6.425-4.7103-8.5178-9.3616-8.2188-30.906 0.345-24.764-0.991-31.069-9.8437-28.906-5.525 1.35-7.2662 6.0482-6.6563 22.75 0.8574 23.439-0.6924 29.342-9.5937 36.844-9.597 7.4277-19.953 0.8052-11.188-4.0937 4.0091-4.5086 4.763-10.242 3.2188-24.406-1.6905-12.065-8.7278-55.46 25.969-55.25zm400.97 19.688c2.0397-0.0386 4.0885-0.0151 6.1563 0.0625 31.208 1.1711 110.12 7.5938 110.12 7.5938l0.6875 23.312c-3.5245 2.1689-62.422-6.812-105.75-6-10.129 0.18983-17.3 4.6626-24.625 0.90625 7.0333 2.9162 6.3877 38.083-24.594 29.562-26.272-9.4467-13.47-44.972 20.125-53.937 5.7768-0.783 11.758-1.384 17.875-1.5zm-173.66 15.625 67.438 33.25c9.4402 126.6 53.145 260.36 202 361.75-24.115 17.254-84.608 59.633-153.75 88.656l-5.6563-6.0625c82.092-139.6 20.072-293.27-123.69-362.81 0.3879-38.748 5.2557-76.976 13.656-114.78zm237.22 21.219c12.933-0.5043 16.297 0.9801 17.406 6.8437 1.0473 5.5373 5.1577 6.8388 10.031 5.0625 11.868-4.3256 19.112 16.724 9.2812 26.062-6.1052 5.7991-5.0355 8.0311-0.031 8.0626 12.394 0.078 12.031 16.301-0.5624 25.5-5.2271 3.8165-5.1552 5.5497 0.3124 8.25 9.1593 4.5204 7.3145 13.456-4.3124 20.812-6.3259 4.0026-6.5334 4.9848-1.3126 6.4063 13.153 3.5808-0.2688 22.324-14.656 19-5.9026-1.3638-11.52-0.089-17.156 3.5937-15.413 6.4196-17.992 7.6934-34.625 5.625-14.608-2.6801-21.136-7.4883-24.906-20.312-8.5687-26.077-17.808-54.965-17.906-83.438-1.2905-17.48 28.008-33.284 41.885-33.968 11.303-1.7022 24.268 2.3865 36.552 2.4991zm-922.41 0.4375c15.498 0 28.062 12.564 28.062 28.062s-12.564 28.062-28.062 28.062-28.062-12.564-28.062-28.062 12.564-28.062 28.062-28.062zm311.88 8.25-2.5313 24.531s4.1235-3.2203 5.0938-4.0312c7.2998-6.1005 18.838 0.7215 16.219 10.219-0.853 8.3699-15.304 33.25-21.063 38.469 0 0-23.178-25.25-25.656-30.188-5.5087-10.975 2.0175-22.415 12.031-17.562 1.4276 0.6911 5.5626 3.75 5.5626 3.75l-7.4-23.2zm-310 1.9688c-9.9181 0.3363-19.334 6.4258-18.062 14.531 0.8469 3.4632 6.1325-1.5351 11.344-4.8125 3.9909-2.5105 8.7956-2.9063 13.344-0.9375 4.0325 1.4368 5.7601 5.1516 8.0937 8.0312 1.9827 2.4253 4.149 4.4118 5.375 3.2188 1.0421-1.2859 0.62-2.8978 0.3438-4.3438-2.1379-11.05-11.278-15.963-20.438-15.687zm755.72 3.8124 10.031 5.125c13.501 178.92 103.97 284.1 199.03 346.75l-7.5626 4.5626c-116.66-74.735-197.65-208.63-201.5-356.44zm15.188 7.3438s25.187 12.891 38.375 18.844l0.5 16.187-8.8126 0.3126-3-15.219-18.312 1.3125 5.7187 37.438 29.531-3.625 4.125 22.625-10 2.0938-5.125-13.906-16.938 4.125 10.969 36.375 26.625-8.5937 8.3438 23.781-8.9376 3.25-5.7187-13.938-17.531 6.125 13.563 35.5 27.719-8.9063 11.188 22.219-8.4062 3.7188-8.0313-13.781-16.625 8.5 19.5 33.156 25.031-13.125 11.687 17.719-9.1874 6.1563-8.3438-10.844-13.469 8.875 21.563 29.438 21.562-16.156 16.125 18.594-7.125 6.3125-11-11.156-13.031 11.625 25.688 28.188 22.312-19.375 15.844 14.75-4.6876 4.9374-10.656-6.6562-14.125 15 26.969 23.469 21.406-23.469 18.156 13.375v9.875l-16.219-8.2188-10.875 16.375 27.094 20.5-0.1874 8.0626c-154.67-92.275-195.37-235.39-203.25-341.84zm-316.66 1.7812c6.6866-0.2013 13.744 6.0855 25.406 19.594 32.593 37.756 23.891 96.164-18.719 126.62-6.2088 4.4384-8.7029 4.0441-16.281-2.4688-43.706-37.552-46.228-87.768-7.3126-131.88 6.7268-7.6221 11.706-11.717 16.906-11.875zm156.22 5.1876c8.0383 12.321 18.184 24.998 19.344 39.969-0.5769 14.796-10.551 17.522-20.875 8.9063-1.3075 7.7703 3.125 22.906 3.125 22.906l-18.688-2s7.3301-12.805 7.625-20.812c-12.974 9.0374-22.887-2.7477-21.125-12.25 3.7103-16.164 16.995-27.066 30.594-36.719zm-155.6 9.8c-1.5315 0.1222-3.1245 1.1697-5.5625 3.125-11.384 9.1302-20.327 20.488-24.969 32.281-9.7989 24.891-3.404 52.949 18.687 74.719 11.223 11.058 15.172 10.301 32.375-12.562 14.411-19.151 17.406-43.887 8.5313-65.375-4.3303-10.485-12.18-20.707-21.594-28.125-3.6172-2.8491-5.4997-4.2197-7.4688-4.0625zm359.5 4.5938 14.5 7.125c18.497 122.01 78.463 196.45 145.66 247.78l-0.125 11.312-18.031-13.969-21.594 22.594-17.5-14.344 6.5626-6.375 9.9687 6.3437 12.75-14.281-25.094-22.375-21.875 18.969-18.219-18.75 5.5312-4.625 12.594 11 14.094-12.5-24.375-27.344-21.813 16.531-15.219-20.188 6.625-3.9375 7.9687 10.938 16.813-10.469-17.781-27.344-25.344 13-12.969-23.375 7.375-3.5313 8.4062 13.125 15.781-7.5937-15.875-32.25-25.906 8.5625-9.5312-25.375 7.4062-2.7188 6.5313 15 17.531-5.625-11.906-34.719-26.781 7.5625-6.625-25.531 8.2813-1.7813 4.3437 13.781 18.406-3.6876-6.75-33.062-27.406 3.4687c-0.9096-5.6172-4.9525-20.749-4.875-26.469l8.4376-0.6876 2.6562 14.563 18.438-0.625zm-358.53 2.6562c10.049 1.3779 22.319 20.723 25.094 27.75 5.2934 13.893 5.7389 29.991 0.9063 42.469-3.9543 10.205-15.776 28.304-23.281 33.406-6.0586 3.2803-11.131 0.8483-19.781-10.906-17.093-23.232-20.399-51.172-6.9062-70.313 10.305-14.618 17.948-22.419 23.969-22.406zm377.97 6.0312 7.2813 3.4376c8.942 70.703 50.843 167.73 133.31 225.78v8.875c-64.137-46.033-123.02-125.43-140.59-238.09zm-379.25 4.8143c-28.72 21.648-24.125 55.538-2.3708 78.37 23.436-15.51 31.725-57.4 2.3708-78.37zm-438.28 1.4357c16.201-0.3745 26.472 5.2707 31.406 16.5 7.6633 17.442 8.7063 20.754 10.281 29.906 0.8992 5.2307 2.2893 13.125 3.0624 17.531 8.4113 47.4 2.2213 65.262-26.562 72.656-8.5882 2.2059-20.568 2.9201-28.938 0.9062-2.1971-0.5283-10.239-0.5766-16.562-0.7812-12.55-0.4061-16.386-1.7338-22.688-6.8438-2.2717-1.8426-4.4572-3.3165-7.1874-3.75-14.361-2.2748-18.649-15.43-7.75-25.156 6.2068-5.5398 6.8252-6.2732 6.25-7.2188-0.3257-0.5319-2.9748-0.9815-5.9063-1-14.476-0.091-14.329-14.983 0.25-25.625 6.9293-5.0575 10.051-9.8236 5.4687-8.6562-13.201 3.1138-17.859-16.181-4.0607-22.165 7.3461-4.1079 12.62-7.5438 5.5295-7.9287-5.9503 0.515-10.795-3.8762-8.9741-9.0552 2.2057-6.2736 14.288-11.986 21.255-9.851 5.4447 1.6681 10.753 3.196 14.156 0.75 8.2583-5.9354 11.954-8.6108 19.062-9.5625 4.1215-0.5518 8.4402-0.6704 11.906-0.6563zm481.47 3.625 66.562 1.2813-1.9687 65.281-62.688-1.1876s13.743-29.164-1.9062-65.375zm-149.16 1.5 63.75 0.7813c-10.503 24.602-6.5824 49.882-2.7188 64.125l-62.406-0.9687zm106.47 0.095c17.128 9.9797 21.842 46.323-1.9525 65.005-22.647-23.273-18.11-51.606 1.9525-65.005zm-157.3 28.4l17.094 1.5938-6.0938 24.469s2.7529-2.9041 3.6563-3.1875c21.958-10.312 23.535 13.056 1.1875 34.156-4.9405 4.6508-12.875 11.031-12.875 11.031s-6.2177-9.4047-11.156-17.906c-5.6137-8.5493-9.4292-17.704-8.4688-22.562 1.3937-7.0524 9.8753-11.714 15.281-7.4063 2.6632 2.1209 5.75 5.3437 5.75 5.3437zm305.19 17.938s7.1697 7.3538 11.531 12.125c15.093 16.511 17.685 31.96 10.031 36.656-6.5714 3.0078-10.648 0.9458-15.937-3.3438 1.0981 10.235 9.2276 25.343 9.0312 25.375l-22.531 3.625s5.5613-20.505 5.0937-28.25c0 0-4.6281 3.5571-6.6875 4.4375-14.709 5.3709-22-11.341-9.9062-28 10.145-13.976 19.375-22.625 19.375-22.625zm307.78 30.938c15.119 0 27.375 12.256 27.375 27.375s-12.256 27.375-27.375 27.375-27.375-12.256-27.375-27.375 12.256-27.375 27.375-27.375zm13.5 12.531c-1.1804 0.2661-2.1451 2.9815-2.2812 8.9688-1.3631 12.281-11.579 17.223-22.75 11.531-4.5159-2.2995-8.3604-5.7099-8.375-3.0937-0.01 1.401 3.6154 8.7209 6.1874 11.219 9.4682 8.5143 32.527 6.4958 32-13.344-0.2472-9.3385-2.8138-15.722-4.7812-15.281zm-497.03 10.281c2.9724-0.2016 6.7412 1.0295 9.1562 3.5313 7.4841 5.1121 8.9027 11.641 9.375 36.281 0.4168 21.735-0.028 22.266 3.5625 24.906 8.7802 6.4573 14.073-3.385 11.562-25.406-2.4168-21.202 5.2215-36.612 18.031-36.531 6.3031 0.039 7.4747 3.7413 2.6876 8.4687-5.052 4.9875-6.2719 11.082-4.6876 23.344 4.0612 31.419 0.5506 46.841-12.656 53.219-13.774 6.6514-31.489-0.9887-34.594-18.375-1.9903-11.599-1.9726-25.35-0.5937-38.312 0.247-13.628-0.063-15.185-4.8125-23-3.3599-5.2455-0.8539-7.8658 2.9688-8.125zm-346.38 10.188c7.6145-0.017 15.523 4.3978 20.25 14.156 11.405 23.549-13.303 42.92-35.969 44.438-39.345 0.5861-86.104-5.0879-125.59-10.344l0.625-22.25c36.24 2.0941 77.102 5.0359 121.12 7.0938-5.0136-20.688 6.8706-33.066 19.563-33.094zm206.94 4.5625 21.906 4.8437-13.938 22.781c4.1348-1.7906 6.9924-3.0393 11.125-1.5313 8.9235 3.2196 9.0442 14.527 2.5 25.094-5.1732 7.6732-19.729 16.84-29.656 22.469-5.5788-11.977-17.904-32.949-13-44.406 2.6028-6.0833 9.8149-9.0422 16.531-5.7187 2.2223 1.33 6.4688 3.5 6.4688 3.5zm51.781 0.625 66.75 0.7813c-9.7024 67.488-28.685 157.61-66.094 231.06l-15.719 4.0626c32.989-72.99 54.933-141.44 65.188-217.97h-33.375c-19.199 82.133-47.603 158.25-91.281 224.38l-19.406-6.3125c46.668-73.99 83.652-156.57 93.938-236zm152.25 1.1875h74.406c13.687 137.41 60.114 231.2 129.22 323.97 0 0-4.3628 0.9773-6.9375-0.125-7.165-8.9406-13.73-14.408-24.469-17.156-58.076-83.615-97.043-200.51-106.44-289.94h-44.25c5.0371 112.32 36.154 204.41 77.562 293.59l-22.469 4.125c-33.254-79.818-69.71-149.28-76.625-314.47zm115.78 16.969c6.122 4.7359 12.738 9.3902 18.969 13.906 16.754 11.755 16.534 33.977 0.25 33.875-1.7289-0.011-5.75-0.25-5.75-0.25s6.6522 14.567 10.844 21.938c-6.7865 1.8099-20.969 4.4687-20.969 4.4687s2.0296-14.304 1.625-26.156c0 0-2.7209 3.0377-4.9687 4.0938-10.806 4.5142-19.943-4.9143-18.594-16.063 1.8214-15.044 18.594-35.812 18.594-35.812zm-497.09 2.6874 36.625 18.188c-24.959 56.812-53.539 110-94.875 150.44l1.0625-131.28c22.564-0.6562 45.711-0.8609 57.188-37.344zm250.44 2.0626h22.531c-9.9978 104.81-79.249 246.59-92.25 263.69l-4.2813 3.2188c0.2583-0.1395-8.8685-32.14-19.25-43.656 39.07-52.699 80.005-153.96 93.25-223.25zm158.44 0h34.031c10.601 83.515 36.418 173.73 101.84 283.31 0 0-6.5577 0.6591-11.625-2.375-11.15-6.9121-18.898 2.2409-25.559 1.8823-10.418-0.5608-12.132-1.1815-22.878 1.3677-53.989-113.87-69.309-203.51-75.812-284.19zm-367.59 18.75 12.156 5.7187c-26.138 60.456-49.55 108.49-111.47 167.47l-0.2188-17.562c43.499-42.128 72.809-97.653 99.531-155.62zm17.688 8.4374c5.7548 2.1661 12.286 5.7264 17.719 8.6563 1.8184 0.7275 1.3285 2.3563 1.3437 4.0625-2.2991 5.7421-12.443 8.2606-16.281 9.375-4.6338 1.3196-9.2051 2.2436-10.031 2.4375-5.2979 1.2428-3.621-4.0649 2.125-15.688 2.5869-5.2341 3.6063-8.7266 5.125-8.8438zm24.281 12.813c3.6394-0.224 18.332 7.8947 21.469 10.812 1.1141 3.4437-2.0474 8.872-6.6876 18.906-7.1328 15.429-8.5526 15.772-10.687 3.0937-0.3692-2.1832-2.4956-9.3966-3.7813-14.187-2.9814-11.111-3.2626-17.501-0.3125-18.625zm26.594 12.469s8.5372 4.1491 11.312 5.9687c-38.128 114.19-139.67 208.58-139.12 206.41l-15.844-9.3125c67.574-61.055 117.1-133.15 143.66-203.06zm-40.313 1.625c3.6885 0.076 0.4766 4.6129-4.5 15.594-4.7209 10.754-6.2698 14.569-10.687 16.281-6.333 2.2927-15.428 2.3649-23.5 3.7813-3.4541 0.5979-2.0057-2.0412 3.3124-12.844 6.2411-12.675 6.5895-15.306 16.375-17.938 5.6561-0.8823 13.269-4.9207 19-4.875zm13.375 22.688c3.9311 14.142 3.8481 16.932 1.2188 21.844-4.9322 9.2115-11.38 19.962-13.156 22.875-4.4428 7.2792-5.7061 5.7643-8.3438-11.938-1.6364-10.981-3.0701-15.917-1.8576-20.696 2.217-5.4072 8.828-18.158 12.566-25.618 5.3517-15.913 8.2188 12.125 9.5724 13.534zm70.188-12.344 20 6.5626-15.688 18.937s6.5809-1.1847 7.3438-0.875c15.738 1.0452 13.125 16.689 0.9375 26.156-5.047 4.6235-29.938 15.938-29.938 15.938-2.666-13.999-8.158-22.943-6.8438-37.312 0.9236-7.7377 1.6133-14.719 11.094-14.938 4.9871-0.2669 7.0084 4.8349 10.25 8.9375zm362.56 16.969s12.048 6.2161 23.219 14.812c14.568 11.211 17.061 24.389 2.5 29.469-1.6829 0.5886-6.4688 0.3438-6.4688 0.3438 4.0104 6.981 13.531 17.375 13.531 17.375-4.7712 3.3385-11.504 5.9529-18.969 8.2812 0 0-1.8504-17.383-3.625-24.094 0 0-1.9263 3.796-4.3126 5.2813-14.029 8.7288-25.039-7.7217-17.5-28.531 4.579-12.636 11.625-22.938 11.625-22.938zm-154.22 2.9062c35.029-0.8521 14.509 56.515-3 52.813-0.2976-0.5208 14.457-33.934-5.4063-39.25-9.113-2.4394-1.2576-13.678 8.4063-13.563zm-57.438 4.0626c10.884-0.066 18.803 7.6086 8.4062 12.437-16.363 7.6015-6.6207 25.808-6.25 36.125 0.2274 6.3088-14.574-5.5001-17.719-18.312-4.0653-16.566-2.1843-28.831 15.562-30.25zm-259.09 6.0312c2.4154-0.01 4.2313 0.1837 4.8438 0.6562 1.0231 2.7053-3.8664 11.166-11 22-3.7957 5.7663-5.4248 7.3861-7.75 8.75-5.5174 3.1013-13.264 2.2951-19.719 2.75-9.6251 0.1218-7.9327-0.07 2.7188-16.656 4.7586-7.41 7.7635-13.471 10.594-15.406 0.568-0.3635 13.07-2.0712 20.312-2.0938zm12.625 11.969c0 20.748 7.0497 27.548 1.875 34.094-6.3279 10.194-14.409 21.348-17.344 24.875-4.9441 5.941-4.3931 4.818-5.6875-10.719-0.9385-11.266-1.9635-18.797-0.5-22.313 4.2325-10.168 9.2632-15.033 14.5-25.844 4.1049-8.7118 7.1562-7.2573 7.1562-0.094zm276.5 10.406c10.176 0.1384 16.458 10.951 16 20.875l-0.4374 9.5c13.146-5.0415 29.464-0.1406 30.187 12.75 1.2265 21.86-14.878 19.326-28.5 18.406 1.3744 0.5158 3.3824 19.762-4.7187 27.125-12.716 14.233-36.426-0.31-30.469-21.187 1.2374-4.3374 1.5-7.0626 1.5-7.0626s-8.5041 3.0656-11.5 2.9376c-25.794-1.1031-23.819-37.571 2.0937-33.281 5.2935 0.8763 8.875 2.1563 8.875 2.1563s-0.5628-2.3037-1.4375-5.5626c-3.7686-14.037 4.1472-26.85 18.406-26.656zm515.97 6.5 13.906 8v15.5l-19.781-14.625zm-833.59 10.375c5.4806-0.053 9.7859 0.3752 8.9376 1.6875-0.017 2.7658-12.002 19.444-19.094 27.062-6.0457 6.494-6.9015 5.5686-21.688 4.8438-5.8011-0.2858-9.5928-0.3294-9.4375-1.875 6.8133-8.9317 16.199-20.43 22.688-30.031 2.5491-0.7782 11.549-1.6187 18.594-1.6875zm13.531 7.2812c1.0231-0.015 1.3368 2.2036 1.3125 7.0313-0.018 3.6452 0.5019 14.92 1.0312 19.812 0.9639 8.8945 0.9662 8.8819-2.8437 14.188-4.6456 4.9884-9.385 12.342-15.375 18.062-8.9974 9.9679-8.0714 10.536-7.9375-10.781 0.1045-16.654-1.1493-16.652 2.2188-20.563 1.8516-2.1499 7.5731-9.1471 11.344-14.625 5.7248-8.3146 8.7547-13.101 10.25-13.125zm85.75 2.9376 18.5 9.875-18.531 18.781s4.6345-0.02 6.1876 0.2812c11.904 2.312 11.012 14.926-0.9688 24.344-7.3571 4.6469-32.625 13.844-32.625 13.844-0.867-10.61-3.1115-20.367-2.6875-31.75 0.1793-5.2512 0.6593-10.96 4.6875-15.5 2.7849-3.081 7.4403-4.8744 13.969-0.6563 3.4286 3.0488 5.2187 6.5 5.2187 6.5zm218.31 6.4062c-7.2487 0-13.125 5.8763-13.125 13.125s5.8763 13.125 13.125 13.125 13.125-5.8763 13.125-13.125-5.8763-13.125-13.125-13.125zm206.81 3.0938s24.219 9.0986 35.125 19.094c10.187 8.4957 5.3947 22.492-4.7187 22.781-0.7349 0-5.0313-0.625-5.0313-0.625 3.4274 5.211 14.906 18 14.906 18l-18.719 7.5937s-2.9963-14.409-5.3125-22.5c-6.5238 15.064-22.621 5.2643-23.688-4.125-2.5964-13.759 3.2533-27.198 7.4375-40.219zm-206.8 1c5.0396 0 9.125 4.0854 9.125 9.125s-4.0854 9.125-9.125 9.125-9.125-4.0854-9.125-9.125 4.0854-9.125 9.125-9.125zm-357.38 18.656c6.5254-0.061 14.666 0.2412 18.312 0.4688 2.7773 2.1309-3.0302 8.7537-14.25 20.531-8.9966 9.4452-10.323 8.1322-21.219 8.2188-18.282 0.1454-18.738 0.2672-10.344-9.2812 9.1952-10.461 14.56-17.196 18.812-19.375 1.4281-0.3713 4.7723-0.5246 8.6875-0.5626zm22.281 9.1876c1.9342-0.386 1.4074 4.5489 1.0938 15.719l-0.5312 18.938-14.219 13.688c-16.458 14.727-14.492 15.649-14.375 1.875 0.093-10.947-0.024-18.642 2.3438-23.5 7.186-8.6604 14.672-16.327 22.844-24.594 1.2883-1.2731 2.1995-1.9969 2.8437-2.125zm361.47 4.7187c3.9591-0.3299 14.063 16.954 16.594 31.438 5.777 33.075 25.588 48.75 39.531 35.469 5.6705-7.8071 6.3074 0.7126 6.0312 4.7812-2.9256 41.9-50.408 24.459-55.812-17.156-16.665 10.815-32.214-11.032-22.281-10.688 23.49-7.4662 17.07-29.034 15.938-43.844zm-55 0.3125c2.3254 14.494-23.803 39.316-38.5 21.906-7.4777-8.8579-0.6636-27.125 8.8438-15.875 10.51 7.7772 20.698-1.2458 29.656-6.0312zm-359 19.875c5.3722-0.115 13.141 0.9028 16.531 0.4375 4.7948 0.4844 1.3679 2.795-9 12.25-8.9294 8.1444-11.479 11.769-12.5 8.2187-0.4968-5.505-0.281-12.05-0.25-19.812 0.8215-0.7642 2.7769-1.0415 5.2188-1.0938zm121.81 9.625 15.938 11.625-15.812 14.562c14.179-0.7008 15.442 12.593 10.062 20-3.4849 5.1946-16.93 10.665-30.375 12.844-8.092 1.3126-14.688 2.2813-14.688 2.2813s-0.3041-6.2352-0.5313-16.594c-0.4618-21.186 0.9804-29.526 9.125-33.656 5.8308-2.9562 15.701 1.684 18.125 7.0937 0.8017 1.7875 2.9063 4.9063 2.9063 4.9063zm-102.56 1.1562c0.063-0.013 0.104 0.0009 0.125 0.031 0.9 1.2135-2.3438 35.688-2.3438 35.688l-23.094-13s23.373-22.309 25.312-22.719zm611.19 4.0626c16.449 7.7486 28.777 6.2421 39.844 15.844 9.636 5.0434 6.7792 18.932-0.25 22.031-3.1829 0.9704-8.4374 0.4374-8.4374 0.4374 5.8176 7.1811 18.562 16.25 18.562 16.25l-20.25 8.4688s-2.7683-13.655-5.3437-21.094c-3.6846 11.068-16.168 10.797-23.281 5.5938-5.0384-3.8586-7.1206-16.79-4.7187-28 0.6339-2.9587 3.875-19.531 3.875-19.531zm74 112.34c20.897 29.401 32.534 54.13 35.781 91.031 1.9204 22.753 1.2647 27.002-4.125 26.969-3.4673-0.022-4.9591-1.735-4.9376-5.625 0.3654-61.784-75.737-76.31-104.06-22.938-16.606 31.289-8.4174 72.762 27.281 129.25 32.842 53.487 75.141 94.143 99.219 151.69 23.858-57.143 71.726-105.23 105.94-160.31 49.416-70.825 32.281-145.49-28.687-153.34-27.978-3.6026-58.635 24.432-62.188 53.438-0.7919 6.4677-2.1638 8.3725-5.7187 7.8437-4.7557-0.7074-2.9767-13.484-0.9063-30.531 5.644-32.59 17.155-59.774 35.813-87.469zm295.22 81.656c0.5498-0.1386 15.505 20.702 17.625 28.5 1.7299 6.3573 3.0608 12.93 1.9688 15.687-1.3132 3.3178-4.4331 0.7799-8.3125-4.375-10.665-14.168-31.636-9.6412-40.188 8.7813-6.1627 13.276-2.7357 30.378 8.7188 49.781 13.694 25.31 47.181 70.823 48.187 74.969 0.8964-3.5667 22.227-42.22 39.406-67.844 9.0612-15.467 15.836-28.562 16.25-49-2.0897-25.448-32.537-35.934-46.125-16.188-4.3946 6.3877-7.0107 8.3334-8.4687 3.125-0.9856-3.5144 2.0957-11.105 3.7187-19.219 1.3554-6.7761 14.525-24.379 14.844-24.219zm-477.3 126.8c-199.68 47.319-361.88 18.058-377.97 12.469l-12.719 18.969c-1.5511 3.2252-2.5021 12.856-11.125 15.469l-12.938 19.313 2.5313 2.6874-11.469 10 2.7812 3.3438-8.3438 12.125-3.2812-0.3438-19.312 29.344 2.9375 3.2812-44.344 69.406 599.91 0.1875c-34.869-65.774-72.176-130.27-106.66-196.25zm-3.625 8.5312 3.5626 9.9063c-9.9205-1.2205-21.504-1.8194-33.281-2.3437 10.35-2.1363 20.717-4.7521 29.719-7.5626zm-34.844 8.625c-19.082 8.7552-30.512 19.276-39.281 30.375-10.916-8.478-24.802-14.485-41.375-18.25zm-337.12 4.8126 8.5 0.9687s-2.8482 2.2105-4.875 1.75c-1.5537-0.353-3.625-2.7187-3.625-2.7187zm382.16 4.9377 5.4062 10.688c-12.994-6.8882-68.574-22.657-84.344 32.594-16.594-22.433-85.018-54.954-119.72 14.188-9.8693-18.731-67.319-72.626-119.72-3.9375-20.648-42.689-37.905-46.267-75.813-40.438 26.94-25.889 64.846 1.059 80.906 23.094 45.209-37.493 83.009-26.225 116.03 4.2812 42.612-46.397 85.108-35.219 115-11.938 21.001-30.898 41.515-40.217 82.25-28.531zm-349.03 0.2813c26.865 3.6257 53.729 5.2726 80.594 6.5937-15.549 5.7053-31.492 10.62-44.156 22.094-9.5914-13.394-22.925-21.175-36.438-28.688zm193.81 4.2813c-14.662 6.905-30.462 17.284-43.125 28.187-13.67-11.132-27.737-20.754-43.062-25.594 28.115 1.3819 59.266 0.1434 86.188-2.5937zm654.03 15.031c-0.023 0.1062-0.02 0.157 0 0.1875 0.03-0.037 0.016-0.093 0-0.1875zm-482.03 6.9057s-5.4177 0.913-7.1562 1.375c-23.722 6.304-18.556 39.722 5.8437 39.719 2.3193-0.0003 8.0937-0.9062 8.0937-0.9062-0.4612 22.628 6.413 28.149 29.531 26.875l39.188 70.062-579.69-2.5 36.812-58.875c18.513 2.1706 30.154-8.1274 26.031-23.844 0 0 11.402 3.4799 14.594 3.5 20.956 0.1319 26.373-32.025 6.2812-37.594-2.2345-0.6196-7.845-1.2381-8.5312-1.4376 9.1877-22.949 34.427-9.4029 41.656 0.125 16.272-13.378 34.259-7.3894 41.969 9.9376 0 0-3.0343-1.6926-3.9688-2.375-19.057-13.94-36.785 14.934-18.125 28.25 1.8361 1.3102 5.7188 2.4374 5.7188 2.4374s-2.2681 1.8527-4.3438 5.3438c-9.6872 16.293 5.9111 36.137 24.75 31.031 14.461-5.6615 14.669-16.536 14.656-28.5 0 0 4.9961 0.3843 9.4687 0.4376 17.354 0.207 22.327-22.019 11.706-32.353-5.7377-5.5828-13.242-5.1468-16.956-5.8656 20.006-19.643 33.569-6.0863 47.688 2.9688 2.1355-0.051 24.502-26.912 51.094-0.5313-12.905-3.3802-26.122 4.9882-26.299 18.424 0.2556 8.6449 6.4373 16.288 19.806 16.898-1.4392 4.3394-2.398 7.5822-2.4758 11.802-0.26 14.108 10.702 22.884 24.625 20.719 11.634-1.4863 20.237-14.788 16.094-25.844-1.8696-4.9891-4.4375-6.8125-4.4375-6.8125 31.333 3.9206 30.785-35.767 6.4258-38.174-5.7761-0.5708-10.226 1.934-16.051 7.2683 14.328-29.296 40.531-23.419 50.344-11.438 13.46-9.7788 32.018-23.133 54.219 0.6563-3.6582-0.7721-8.8126-0.9528-13.283 0.2337-17.573 4.664-17.651 27.011-3.7177 33.811 3.9192 1.9128 8.7291 3.0245 13.907 2.8305-4.6354 18.779 16.216 32.193 30.974 23.2 10.575-6.4438 13.343-21.659 1.9011-35.543 19.259-0.8622 21.157-24.864 10.031-33.281-8.7228-6.5991-18.992-3.4632-26.438 5.25-2.3944-6.891 16.643-30.851 43.531-13.594 14.242-11.94 28.37-15.614 44.531-3.6876zm8.4062 18.75 7.5313 13.688c-5.017 0.4975-12.192-4.873-7.5313-13.688zm-97.187 13.906c4.7116 0 8.5312 3.8196 8.5312 8.5313 0 4.7116-3.8196 8.5312-8.5312 8.5312-4.7117 0-8.5313-3.8196-8.5313-8.5312 0-4.7117 3.8196-8.5313 8.5313-8.5313zm-351.84 0.5c1.1367 4.5792 1.635 9.1479-6.6875 10.031zm852.22 3.9687v19.094h15.625l44.125 101.62-42.344 65.969h-17.406v16.969h60.625v-16.969h-17.719l53.875-82.25v82.25h-15.469v16.969h54.813v-16.969h-20v-167.59h20v-19.094h-54.813v19.094h15.469c0.3764 16.438 0.4718 30.588 0 47.031-7.7022 10.277-15.693 22.825-24.156 32.5l-34.063-79.531h22.063v-19.094zm-754.22 4.2813c4.3147 0 7.8125 3.4978 7.8125 7.8125s-3.4978 7.8125-7.8125 7.8125-7.8125-3.4978-7.8125-7.8125 3.4978-7.8125 7.8125-7.8125zm130.03 2.4375c4.5738 0 8.2813 3.7076 8.2813 8.2812 0 4.5738-3.7075 8.2813-8.2813 8.2813-4.5736 0-8.2812-3.7075-8.2812-8.2813 0-4.5736 3.7076-8.2812 8.2812-8.2812z" transform="matrix(.99994 -.011102 .011102 .99994 -1082.8 -427.97)"/>
   </g>
  </g>
 </g>
</svg>
