<svg xmlns:rdf="http://www.w3.org/1999/02/22-rdf-syntax-ns#" xmlns="http://www.w3.org/2000/svg" version="1.1" xmlns:cc="http://creativecommons.org/ns#" xmlns:dc="http://purl.org/dc/elements/1.1/" viewBox="0 0 744.09 1052.4">
 <g transform="translate(380.17 -760.44)">
  <g transform="translate(-1317.7 540.77)">
   <g transform="translate(-5060 3025)">
    <rect rx="10.63" ry="10.63" height="311.81" width="223.23" stroke="#000" y="-2435" x="6257.9" stroke-width=".99673" fill="#fff"/>
   </g>
  </g>
  <g transform="translate(-.75193 .0000019438)">
   <path d="m2971.7-1386.8c0.5319-14.533 5.8816-19.991 16.421-27.6-8.4057-5.9629-11.95-14.736-11.234-22.212 1.7322-18.092 15.976-27.144 31.505-26.75 15.529 0.3942 28.913 12.501 29.957 25.649 0.9079 11.437-2.5591 16.948-10.82 22.969 9.8084 8.1096 16.078 13.452 15.84 27.769-0.2379 14.316-12.641 31.355-34.26 31.878-21.62 0.5231-37.94-17.169-37.408-31.703zm60.362 0.048c0.9274-13.16-10.922-22.04-24.292-22.178-13.028-0.1345-24.683 10.784-24.685 22.599 0 12.692 15.158 19.586 24.948 19.623 11.899 0.044 23.23-8.7095 24.029-20.044zm-4.2782-47.078c0.2587-11.086-10.154-19.031-20.888-18.711-9.5508 0.2844-19.667 7.4427-19.672 16.71-0.01 11.592 11.5 17.38 21.314 17.598 8.9033 0.1981 19.051-7.2235 19.246-15.597z" transform="matrix(.30106 0 0 .30106 -1007.6 1585.8)"/>
   <path d="m3667.7-600.56c-0.5319 14.533-5.8816 19.991-16.421 27.6 8.4057 5.9629 11.95 14.736 11.234 22.212-1.7322 18.092-15.976 27.144-31.505 26.75-15.529-0.3942-28.913-12.501-29.957-25.649-0.9079-11.437 2.5591-16.948 10.82-22.969-9.8084-8.1096-16.078-13.452-15.84-27.769 0.2379-14.316 12.641-31.355 34.26-31.878 21.62-0.5231 37.94 17.169 37.408 31.703zm-60.362-0.048c-0.9274 13.16 10.922 22.04 24.292 22.178 13.028 0.1345 24.683-10.784 24.685-22.599 0-12.692-15.158-19.586-24.948-19.623-11.899-0.044-23.23 8.7095-24.029 20.044zm4.2782 47.078c-0.2587 11.086 10.154 19.031 20.888 18.711 9.5508-0.2844 19.667-7.4427 19.672-16.71 0.01-11.592-11.5-17.38-21.314-17.598-8.9033-0.1981-19.051 7.2235-19.246 15.597z" transform="matrix(.30106 0 0 .30106 -1007.6 1585.8)"/>
   <path d="m1354.8 674.91c2.879-5.7755 4.9759-11.701 5.3481-18.037 0.3416-2.3317-1.0746-2.3708-1.2881-0.7286-4.0764 15.593-25.763 11.37-25.017-3.2965 0.605-11.895 12.42-14.454 18.582-10.564 2.4336 1.4328 2.2961 0.5746 0.9679-0.9118-9.1548-10.211-3.6101-23.362 8.7612-23.602 13.38 0.79343 16.851 14.87 8.6442 23.148-1.0206 0.9946-3.2835 4.1913 0.123 1.9563 8.2868-5.888 19.787 0.4428 19.553 9.5207-0.4327 16.739-20.839 17.987-25.203 4.0058-0.4198-1.5502-1.6291-2.3286-1.295 0.3043 0.6049 4.7666 1.8565 11.953 5.4374 18.206z" transform="translate(-1317.7 540.77)"/>
   <path d="m1354.8 775.15c2.879-5.7755 4.9759-11.701 5.3481-18.037 0.3416-2.3317-1.0746-2.3708-1.2881-0.7286-4.0764 15.593-25.763 11.37-25.017-3.2965 0.605-11.895 12.42-14.454 18.582-10.564 2.4336 1.4328 2.2961 0.5746 0.9679-0.9118-9.1548-10.211-3.6101-23.362 8.7612-23.602 13.38 0.79343 16.851 14.87 8.6442 23.148-1.0206 0.9946-3.2835 4.1913 0.123 1.9563 8.2868-5.888 19.787 0.4428 19.553 9.5207-0.4327 16.739-20.839 17.987-25.203 4.0058-0.4198-1.5502-1.6291-2.3286-1.295 0.3043 0.6049 4.7666 1.8565 11.953 5.4374 18.206z" transform="translate(-1317.7 540.77)"/>
   <path d="m1251.2 775.15c2.879-5.7755 4.9759-11.701 5.3481-18.037 0.3416-2.3317-1.0746-2.3708-1.2881-0.7286-4.0764 15.593-25.763 11.37-25.017-3.2965 0.605-11.895 12.42-14.454 18.582-10.564 2.4336 1.4328 2.2961 0.5746 0.9679-0.9118-9.1548-10.211-3.6101-23.362 8.7612-23.602 13.38 0.79343 16.851 14.87 8.6442 23.148-1.0206 0.9946-3.2835 4.1913 0.123 1.9563 8.2868-5.888 19.787 0.4428 19.553 9.5207-0.4327 16.739-20.839 17.987-25.203 4.0058-0.4198-1.5502-1.6291-2.3286-1.295 0.3043 0.6049 4.7666 1.8565 11.953 5.4374 18.206z" transform="translate(-1317.7 540.77)"/>
   <path d="m1301.4 725.03c2.879-5.7755 4.9759-11.701 5.3481-18.037 0.3416-2.3317-1.0746-2.3708-1.2881-0.7286-4.0764 15.593-25.763 11.37-25.017-3.2965 0.605-11.895 12.42-14.454 18.582-10.564 2.4336 1.4328 2.2961 0.5746 0.9679-0.9118-9.1548-10.211-3.6101-23.362 8.7612-23.602 13.38 0.79343 16.851 14.87 8.6442 23.148-1.0206 0.9946-3.2835 4.1913 0.123 1.9563 8.2868-5.888 19.787 0.4428 19.553 9.5207-0.4327 16.739-20.839 17.987-25.203 4.0058-0.4198-1.5502-1.6291-2.3286-1.295 0.3043 0.6049 4.7666 1.8565 11.953 5.4374 18.206z" transform="translate(-1317.7 540.77)"/>
   <path d="m1251.2 674.91c2.879-5.7755 4.9759-11.701 5.3481-18.037 0.3416-2.3317-1.0746-2.3708-1.2881-0.7286-4.0764 15.593-25.763 11.37-25.017-3.2965 0.605-11.895 12.42-14.454 18.582-10.564 2.4336 1.4328 2.2961 0.5746 0.9679-0.9118-9.1548-10.211-3.6101-23.362 8.7612-23.602 13.38 0.79343 16.851 14.87 8.6442 23.148-1.0206 0.9946-3.2835 4.1913 0.123 1.9563 8.2868-5.888 19.787 0.4428 19.553 9.5207-0.4327 16.739-20.839 17.987-25.203 4.0058-0.4198-1.5502-1.6291-2.3286-1.295 0.3043 0.6049 4.7666 1.8565 11.953 5.4374 18.206z" transform="translate(-1317.7 540.77)"/>
   <path d="m1369.5 816.61c-2.879 5.7755-4.9759 11.701-5.3481 18.037-0.3416 2.3317 1.0746 2.3708 1.2881 0.7286 4.0764-15.593 25.763-11.37 25.017 3.2965-0.605 11.895-12.42 14.454-18.582 10.564-2.4336-1.4328-2.2961-0.5746-0.9679 0.9118 9.1548 10.211 3.6101 23.362-8.7612 23.602-13.38-0.7934-16.851-14.87-8.6442-23.148 1.0206-0.9946 3.2835-4.1913-0.123-1.9563-8.2868 5.888-19.787-0.4428-19.553-9.5207 0.4327-16.739 20.839-17.987 25.203-4.0058 0.4198 1.5502 1.6291 2.3286 1.295-0.3043-0.6049-4.7666-1.8565-11.953-5.4374-18.206z" transform="translate(-1317.7 540.77)"/>
   <path d="m1316.1 767.31c-2.879 5.7755-4.9759 11.701-5.3481 18.037-0.3416 2.3317 1.0746 2.3708 1.2881 0.7286 4.0764-15.593 25.763-11.37 25.017 3.2965-0.605 11.895-12.42 14.454-18.582 10.564-2.4336-1.4328-2.2961-0.5746-0.9679 0.9118 9.1548 10.211 3.6101 23.362-8.7612 23.602-13.38-0.7934-16.851-14.87-8.6442-23.148 1.0206-0.9946 3.2835-4.1913-0.123-1.9563-8.2868 5.888-19.787-0.4428-19.553-9.5207 0.4327-16.739 20.839-17.987 25.203-4.0058 0.4198 1.5502 1.6291 2.3286 1.295-0.3043-0.6049-4.7666-1.8565-11.953-5.4374-18.206z" transform="translate(-1317.7 540.77)"/>
   <path d="m1265.9 816.61c-2.879 5.7755-4.9759 11.701-5.3481 18.037-0.3416 2.3317 1.0746 2.3708 1.2881 0.7286 4.0764-15.593 25.763-11.37 25.017 3.2965-0.605 11.895-12.42 14.454-18.582 10.564-2.4336-1.4328-2.2961-0.5746-0.9679 0.9118 9.1548 10.211 3.6101 23.362-8.7612 23.602-13.38-0.7934-16.851-14.87-8.6442-23.148 1.0206-0.9946 3.2835-4.1913-0.123-1.9563-8.2868 5.888-19.787-0.4428-19.553-9.5207 0.4327-16.739 20.839-17.987 25.203-4.0058 0.4198 1.5502 1.6291 2.3286 1.295-0.3043-0.6049-4.7666-1.8565-11.953-5.4374-18.206z" transform="translate(-1317.7 540.77)"/>
   <path d="m1212.2 667.29c1.1921-2.4451 2.3522-4.7208 2.9843-7.4009 0.4192-2.5276-0.4383-1.5885-0.9252 0.0682-0.7212 2.2974-2.7226 3.3438-4.58 3.3689-3.3711 0.0455-5.0527-2.6042-4.9479-5.4539-0.3681-2.9986 2.671-5.1202 4.9617-4.9567 1.7223 0.1229 3.224 1.052 4.1329 1.7751 0.5963 0.3153 1.234 0.45461 0.3449-0.35848-1.6776-1.8329-3.0766-2.9642-3.046-5.7108 0.029-2.5787 2.2335-5.2681 5.1554-5.1838 3.6515 0.10546 5.312 2.8901 5.3033 5.4805-0.01 1.8883-0.9536 3.6263-2.4114 4.7027-0.9442 0.76609-0.6794 1.3398 0.3977 0.61483 1.0349-0.89201 2.2671-1.2826 3.5448-1.31 3.4905-0.0547 4.855 2.9615 4.6551 5.7642-0.1874 2.6257-2.4228 5.3284-5.369 5.0223-2.6307-0.3015-4.013-2.5099-4.8051-4.7769-0.2623-0.69509-0.676-0.88281-0.6645 0.15307 0.6077 5.0574 2.4916 8.2044 2.5053 8.2016z" transform="translate(-1317.7 540.77)"/>
   <path d="m90.785 1369.1c-1.1921 2.4451-2.3522 4.7208-2.9843 7.4009-0.4192 2.5275 0.4383 1.5885 0.9252-0.068 0.7212-2.2974 2.7226-3.3438 4.58-3.3689 3.3711-0.045 5.0527 2.6042 4.9479 5.4539 0.3681 2.9986-2.671 5.1202-4.9617 4.9567-1.7223-0.1229-3.224-1.052-4.1329-1.7751-0.5963-0.3153-1.234-0.4546-0.3449 0.3585 1.6776 1.8329 3.0766 2.9641 3.046 5.7108-0.029 2.5787-2.2335 5.2681-5.1554 5.1838-3.6515-0.1055-5.312-2.8901-5.3033-5.4806 0.01-1.8883 0.9536-3.6263 2.4114-4.7026 0.9442-0.7661 0.6794-1.3398-0.3977-0.6149-1.0349 0.892-2.2671 1.2826-3.5448 1.31-3.4905 0.055-4.855-2.9615-4.6551-5.7642 0.1874-2.6257 2.4228-5.3284 5.369-5.0223 2.6307 0.3015 4.013 2.5099 4.8051 4.7769 0.2623 0.6951 0.676 0.8828 0.6645-0.1531-0.6077-5.0574-2.4916-8.2044-2.5053-8.2016z"/>
  </g>
 </g>
</svg>
