<svg xmlns:rdf="http://www.w3.org/1999/02/22-rdf-syntax-ns#" xmlns="http://www.w3.org/2000/svg" version="1.1" xmlns:cc="http://creativecommons.org/ns#" xmlns:dc="http://purl.org/dc/elements/1.1/" viewBox="0 0 744.09 1052.4">
 <g transform="translate(-936.54 92.135)">
  <g transform="translate(-5061 3025)">
   <rect rx="10.63" ry="10.63" height="311.81" width="223.23" stroke="#000" y="-2746.8" x="6257.9" stroke-width=".99673" fill="#fff"/>
   <g transform="matrix(.30106 0 0 .30106 5679.9 -1949.8)">
    <path d="m1947.7-2492.4 0.5475-6.7053c1.6921-20.723 6.2259-27.723 31.96-49.343 12.488-10.492 16.588-15.669 17.165-21.677 1.6305-14.15-11.131-18.57-19.448-18.647-10.769-0.099-22.951 6.3494-17.143 21.304l-12.079 3.547c-2.4391-13.951 0.056-27.044 11.378-32.858 15.101-7.5722 34.478-4.6012 44.255 7.33 6.5707 8.0186 8.0644 19.086 4.5432 27.754-10.299 22.16-45.244 31.908-48.132 57.528h38.634v-14.266h11.379v26.264z"/>
    <path d="m2634-1766.5-0.5475 6.7053c-1.6921 20.723-6.2259 27.723-31.96 49.343-12.488 10.492-16.588 15.669-17.165 21.677-1.6305 14.15 11.131 18.57 19.448 18.647 10.769 0.099 22.951-6.3494 17.143-21.304l12.079-3.547c2.4391 13.951-0.056 27.044-11.378 32.858-15.101 7.5722-34.478 4.6012-44.255-7.33-6.5707-8.0186-8.0644-19.086-4.5432-27.754 10.299-22.16 45.244-31.908 48.132-57.528h-38.634v14.266h-11.379v-26.264z"/>
   </g>
  </g>
  <path d="m1307.5 346.3c0.015-2.0257-1.5868-2.0644-1.5686-0.58579-0.1343 7.4286-6.4165 11.086-10.981 10.219-7.0361-1.3376-9.2818-8.3221-9.2147-12.435 0.2072-12.696 12.988-22.058 24.52-38.335 8.4501 14.691 22.397 26.23 23.223 37.586 1.0977 15.098-18.009 20.73-20.737 3.1327-0.176-1.243-1.6397-1.8011-1.5261-0.065 0.4145 4.8226-0.1749 6.8314 5.2657 18.719h-14.222c3.1497-5.5549 5.0254-12.375 5.2398-18.236z"/>
  <path d="m1307.6 522.24c0.015 2.0257-1.5868 2.0644-1.5686 0.58579-0.1343-7.4286-6.4165-11.086-10.981-10.219-7.0361 1.3376-9.2818 8.3221-9.2147 12.435 0.2072 12.696 12.988 22.058 24.52 38.335 8.4501-14.691 22.397-26.23 23.223-37.586 1.0977-15.098-18.009-20.73-20.737-3.1327-0.176 1.243-1.6397 1.8011-1.5261 0.065 0.4145-4.8226-0.1749-6.8314 5.2657-18.719h-14.222c3.1497 5.5549 5.0254 12.375 5.2398 18.236z"/>
  <path d="m1215.4 347.43c0.01-0.87153-0.8953-0.46463-1.0178-0.1903-1.1632 1.9856-2.8648 2.4477-4.5479 1.7318-1.6673-0.70915-2.6042-2.2803-2.4539-4.5222 0.3102-3.4378 3.0354-7.1996 4.355-9.3262 1.252-1.9299 2.6279-4.2222 4.0767-7.1541 1.6972 3.3632 2.5586 4.3206 4.4051 7.3915 1.626 2.7044 3.8925 5.353 4.0675 8.6224 0 2.4849-1.046 4.8318-3.3994 5.2594-1.3314 0.2419-2.5787-0.44156-3.5038-2.0369-0.2818-0.40656-0.8487-0.19466-0.8392 0.3619 0.1651 2.0933 0.9553 3.9832 2.8294 6.2116h-6.887c1.4101-1.576 2.8487-3.7037 2.9153-6.349z"/>
  <path d="m1403.2 520.59c0.01 0.87153-0.8953 0.46462-1.0178 0.1903-1.1632-1.9856-2.8648-2.4477-4.5479-1.7318-1.6673 0.70915-2.6042 2.2803-2.4539 4.5222 0.3102 3.4378 3.0354 7.1996 4.355 9.3262 1.252 1.9299 2.6279 4.2222 4.0767 7.1541 1.6972-3.3632 2.5586-4.3206 4.4051-7.3915 1.626-2.7044 3.8925-5.353 4.0675-8.6224 0-2.4849-1.046-4.8318-3.3994-5.2594-1.3314-0.24189-2.5787 0.44156-3.5038 2.0369-0.2818 0.40655-0.8487 0.19465-0.8392-0.36191 0.1651-2.0933 0.9553-3.9832 2.8294-6.2116h-6.887c1.4101 1.576 2.8487 3.7037 2.9153 6.349z"/>
 </g>
</svg>
