<svg xmlns:rdf="http://www.w3.org/1999/02/22-rdf-syntax-ns#" xmlns="http://www.w3.org/2000/svg" version="1.1" xmlns:cc="http://creativecommons.org/ns#" xmlns:dc="http://purl.org/dc/elements/1.1/" viewBox="0 0 744.09 1052.4">
 <g transform="translate(-1760.1 -113.66)">
  <g transform="translate(-4683.9 2918.9)">
   <rect rx="10.63" ry="10.63" height="311.81" width="223.23" stroke="#000" y="-2435" x="6704.4" stroke-width=".99673" fill="#fff"/>
   <g fill="#d40000" transform="matrix(.30106 0 0 .30106 5267.6 -1982.7)">
    <path d="m4797.9-1351.7v-104.65h10.333v104.65z"/>
    <path d="m4838.8-1456.4c-9.9454 0-17.941 8.9238-17.941 20.004v64.644c0 11.08 7.9954 20.004 17.941 20.004h5.7965c9.9453 0 17.956-8.9239 17.956-20.004v-64.644c0-11.08-8.0112-20.004-17.956-20.004h-5.7965zm2.9927 9.8918c5.8743 0 10.601 4.4408 10.601 9.9706v65.51c0 5.5298-4.7264 9.9864-10.601 9.9864-5.8742 0-10.601-4.4566-10.601-9.9864v-65.51c0-5.5298 4.7264-9.9706 10.601-9.9706z"/>
    <g transform="matrix(-.50404 0 0 -.50404 7403.6 312.08)">
     <path d="m3799.2 1843.8v-207.62h20.5v207.62z"/>
     <path d="m3880.5 1636.1c-19.731 0-35.594 17.704-35.594 39.688v128.25c0 21.983 15.863 39.688 35.594 39.688h11.5c19.731 0 35.625-17.704 35.625-39.688v-128.25c0-21.983-15.894-39.688-35.625-39.688h-11.5zm5.9375 19.625c11.654 0 21.031 8.8104 21.031 19.781v129.97c0 10.971-9.3771 19.812-21.031 19.812s-21.031-8.8417-21.031-19.812v-129.97c0-10.971 9.3771-19.781 21.031-19.781z"/>
    </g>
   </g>
  </g>
  <path d="m2029 544.08c-1.583-3.4723-1.7567-9.4054 2.9711-10.208 3.5621-0.45844 5.0117 1.1983 5.2999 3.7419 0.1422 0.74302 0.5617 0.7885 0.6948-0.0583 0.2044-2.6094 2.7872-4.1326 4.8064-3.75 5.5266 0.9454 5.2039 7.0284 3.3985 11.156-2.7309 5.4795-5.6006 8.9376-8.245 14.452-3.0382-5.741-6.5073-10.405-8.9257-15.333z" fill="#d40000"/>
  <path d="m2063.5 512.26c7.144-0.4744 10.868 5.6274 11.595 10.436 0.4334 0.76389 0.6707 0.54864 0.8369-0.0423 0.3493-6.1741 5.8749-11.22 10.993-10.53 8.328 0.10829 13.39 9.3754 11.966 17.219-1.7385 9.5816-6.8997 15.351-10.808 21.293-4.4213 6.1524-10.373 15.04-12.29 19.317 0 0-6.0483-9.2045-13.917-20.03-5.2618-7.2385-9.4731-15.082-9.8651-21.835-0.4479-7.7155 2.7193-14.632 11.489-15.828z" fill="#d40000"/>
  <path d="m2119.7 544.93c7.144-0.4744 10.868 5.6274 11.595 10.436 0.4334 0.76389 0.6707 0.54864 0.8369-0.0423 0.3493-6.1741 5.8749-11.22 10.993-10.53 8.328 0.10829 13.39 9.3754 11.966 17.219-1.7385 9.5816-6.8997 15.351-10.808 21.293-4.4213 6.1524-10.373 15.04-12.29 19.317 0 0-6.0483-9.2045-13.917-20.03-5.2618-7.2385-9.4731-15.082-9.8651-21.835-0.4479-7.7155 2.7193-14.632 11.489-15.828z" fill="#d40000"/>
  <path d="m2175.1 512.26c7.144-0.4744 10.868 5.6274 11.595 10.436 0.4334 0.76389 0.6707 0.54864 0.8369-0.0423 0.3493-6.1741 5.8749-11.22 10.993-10.53 8.328 0.10829 13.39 9.3754 11.966 17.219-1.7385 9.5816-6.8997 15.351-10.808 21.293-4.4213 6.1524-10.373 15.04-12.29 19.317 0 0-6.0483-9.2045-13.917-20.03-5.2618-7.2385-9.4731-15.082-9.8651-21.835-0.4479-7.7155 2.7193-14.632 11.489-15.828z" fill="#d40000"/>
  <path d="m2175.1 577.59c7.144-0.4744 10.868 5.6274 11.595 10.436 0.4334 0.76389 0.6707 0.54864 0.8369-0.0423 0.3493-6.1741 5.8749-11.22 10.993-10.53 8.328 0.10829 13.39 9.3754 11.966 17.219-1.7385 9.5816-6.8997 15.351-10.808 21.293-4.4213 6.1524-10.373 15.04-12.29 19.317 0 0-6.0483-9.2045-13.917-20.03-5.2618-7.2385-9.4731-15.082-9.8651-21.835-0.4479-7.7155 2.7193-14.632 11.489-15.828z" fill="#d40000"/>
  <path d="m2063.5 577.59c7.144-0.4744 10.868 5.6274 11.595 10.436 0.4334 0.76389 0.6707 0.54864 0.8369-0.0423 0.3493-6.1741 5.8749-11.22 10.993-10.53 8.328 0.10829 13.39 9.3754 11.966 17.219-1.7385 9.5816-6.8997 15.351-10.808 21.293-4.4213 6.1524-10.373 15.04-12.29 19.317 0 0-6.0483-9.2045-13.917-20.03-5.2618-7.2385-9.4731-15.082-9.8651-21.835-0.4479-7.7155 2.7193-14.632 11.489-15.828z" fill="#d40000"/>
  <path d="m2175.1 701.98c7.144 0.4744 10.868-5.6274 11.595-10.436 0.4334-0.76389 0.6707-0.54864 0.8369 0.0423 0.3493 6.1741 5.8749 11.22 10.993 10.53 8.328-0.10829 13.39-9.3754 11.966-17.219-1.7385-9.5816-6.8997-15.351-10.808-21.293-4.4213-6.1524-10.373-15.04-12.29-19.317 0 0-6.0483 9.2045-13.917 20.03-5.2618 7.2385-9.4731 15.082-9.8651 21.835-0.4479 7.7155 2.7193 14.632 11.489 15.828z" fill="#d40000"/>
  <path d="m2175.1 767.09c7.144 0.4744 10.868-5.6274 11.595-10.436 0.4334-0.76389 0.6707-0.54864 0.8369 0.0423 0.3493 6.1741 5.8749 11.22 10.993 10.53 8.328-0.10829 13.39-9.3754 11.966-17.219-1.7385-9.5816-6.8997-15.351-10.808-21.293-4.4213-6.1524-10.373-15.04-12.29-19.317 0 0-6.0483 9.2045-13.917 20.03-5.2618 7.2385-9.4731 15.082-9.8651 21.835-0.4479 7.7155 2.7193 14.632 11.489 15.828z" fill="#d40000"/>
  <path d="m2119.3 734.53c7.144 0.4744 10.868-5.6274 11.595-10.436 0.4334-0.76389 0.6707-0.54864 0.8369 0.0423 0.3493 6.1741 5.8749 11.22 10.993 10.53 8.328-0.10829 13.39-9.3754 11.966-17.219-1.7385-9.5816-6.8997-15.351-10.808-21.293-4.4213-6.1524-10.373-15.04-12.29-19.317 0 0-6.0483 9.2045-13.917 20.03-5.2618 7.2385-9.4731 15.082-9.8651 21.835-0.4479 7.7155 2.7193 14.632 11.489 15.828z" fill="#d40000"/>
  <path d="m2063.5 701.98c7.144 0.4744 10.868-5.6274 11.595-10.436 0.4334-0.76389 0.6707-0.54864 0.8369 0.0423 0.3493 6.1741 5.8749 11.22 10.993 10.53 8.328-0.10829 13.39-9.3754 11.966-17.219-1.7385-9.5816-6.8997-15.351-10.808-21.293-4.4213-6.1524-10.373-15.04-12.29-19.317 0 0-6.0483 9.2045-13.917 20.03-5.2618 7.2385-9.4731 15.082-9.8651 21.835-0.4479 7.7155 2.7193 14.632 11.489 15.828z" fill="#d40000"/>
  <path d="m2063.5 767.09c7.144 0.4744 10.868-5.6274 11.595-10.436 0.4334-0.76389 0.6707-0.54864 0.8369 0.0423 0.3493 6.1741 5.8749 11.22 10.993 10.53 8.328-0.10829 13.39-9.3754 11.966-17.219-1.7385-9.5816-6.8997-15.351-10.808-21.293-4.4213-6.1524-10.373-15.04-12.29-19.317 0 0-6.0483 9.2045-13.917 20.03-5.2618 7.2385-9.4731 15.082-9.8651 21.835-0.4479 7.7155 2.7193 14.632 11.489 15.828z" fill="#d40000"/>
  <path d="m2217.8 734.93c-1.583 3.4723-1.7567 9.4054 2.9711 10.208 3.5621 0.45844 5.0117-1.1983 5.2999-3.7419 0.1422-0.74302 0.5617-0.7885 0.6948 0.0583 0.2044 2.6094 2.7872 4.1326 4.8064 3.75 5.5266-0.9454 5.2039-7.0284 3.3985-11.156-2.7309-5.4795-5.6006-8.9376-8.245-14.452-3.0382 5.741-6.5073 10.405-8.9257 15.333z" fill="#d40000"/>
 </g>
</svg>
