<svg xmlns:rdf="http://www.w3.org/1999/02/22-rdf-syntax-ns#" xmlns="http://www.w3.org/2000/svg" version="1.1" xmlns:cc="http://creativecommons.org/ns#" xmlns:dc="http://purl.org/dc/elements/1.1/" viewBox="0 0 744.09 1052.4">
 <g transform="translate(-6444 2805.3)">
  <rect rx="10.63" ry="10.63" height="311.81" width="223.23" stroke="#000" y="-2435" x="6704.4" stroke-width=".99673" fill="#fff"/>
  <g fill="#d40000" transform="matrix(.30106 0 0 .30106 5267.6 -1982.7)">
   <path d="m4881.6-1312c32.952-32.158 54.594-67.22 75.29-100.94 18.15 37.102 44.197 69.561 72.364 100.94-30.137 31.118-53.494 64.393-72.274 99.374-20.818-35.859-42.736-68.33-75.381-99.374z"/>
   <path d="m4881.6-1095c32.952-32.158 54.594-67.22 75.29-100.94 18.15 37.102 44.197 69.561 72.364 100.94-30.137 31.118-53.494 64.393-72.274 99.374-20.818-35.859-42.736-68.33-75.381-99.374z"/>
   <path d="m4881.6-872.79c32.952-32.158 54.594-67.22 75.29-100.94 18.15 37.102 44.197 69.561 72.364 100.94-30.137 31.118-53.494 64.393-72.274 99.374-20.818-35.859-42.736-68.33-75.381-99.374z"/>
   <path d="m4881.6-656.54c32.952-32.158 54.594-67.22 75.29-100.94 18.15 37.102 44.197 69.561 72.364 100.94-30.137 31.118-53.494 64.393-72.274 99.374-20.818-35.859-42.736-68.33-75.381-99.374z"/>
   <path d="m5068.3-1197.9c32.952-32.158 54.594-67.22 75.29-100.94 18.15 37.102 44.197 69.561 72.364 100.94-30.137 31.118-53.494 64.393-72.274 99.374-20.818-35.859-42.736-68.33-75.381-99.374z"/>
   <path d="m5066.7-771.56c32.952-32.158 54.594-67.22 75.29-100.94 18.15 37.102 44.197 69.561 72.364 100.94-30.137 31.118-53.494 64.393-72.274 99.374-20.818-35.859-42.736-68.33-75.381-99.374z"/>
   <path d="m5252.1-1312c32.952-32.158 54.594-67.22 75.29-100.94 18.15 37.102 44.197 69.561 72.364 100.94-30.137 31.118-53.494 64.393-72.274 99.374-20.818-35.859-42.736-68.33-75.381-99.374z"/>
   <path d="m5252.1-1095c32.952-32.158 54.594-67.22 75.29-100.94 18.15 37.102 44.197 69.561 72.364 100.94-30.137 31.118-53.494 64.393-72.274 99.374-20.818-35.859-42.736-68.33-75.381-99.374z"/>
   <path d="m5252.1-872.79c32.952-32.158 54.594-67.22 75.29-100.94 18.15 37.102 44.197 69.561 72.364 100.94-30.137 31.118-53.494 64.393-72.274 99.374-20.818-35.859-42.736-68.33-75.381-99.374z"/>
   <path d="m5252.1-656.54c32.952-32.158 54.594-67.22 75.29-100.94 18.15 37.102 44.197 69.561 72.364 100.94-30.137 31.118-53.494 64.393-72.274 99.374-20.818-35.859-42.736-68.33-75.381-99.374z"/>
   <path d="m5426.6-676.62c13.499-13.173 22.364-27.536 30.842-41.349 7.435 15.199 18.105 28.495 29.644 41.349-12.346 12.747-21.914 26.378-29.607 40.708-8.5281-14.689-17.506-27.991-30.879-40.708z"/>
   <path d="m4799.4-1294c13.499-13.173 22.364-27.536 30.842-41.349 7.435 15.199 18.105 28.495 29.644 41.349-12.346 12.747-21.914 26.378-29.607 40.708-8.5281-14.689-17.506-27.991-30.879-40.708z"/>
   <path d="m4797.9-1351.7v-104.65h10.333v104.65z"/>
   <path d="m4838.8-1456.4c-9.9454 0-17.941 8.9238-17.941 20.004v64.644c0 11.08 7.9954 20.004 17.941 20.004h5.7965c9.9453 0 17.956-8.9239 17.956-20.004v-64.644c0-11.08-8.0112-20.004-17.956-20.004h-5.7965zm2.9927 9.8918c5.8743 0 10.601 4.4408 10.601 9.9706v65.51c0 5.5298-4.7264 9.9864-10.601 9.9864-5.8742 0-10.601-4.4566-10.601-9.9864v-65.51c0-5.5298 4.7264-9.9706 10.601-9.9706z"/>
   <g transform="matrix(-.50404 0 0 -.50404 7403.6 312.08)">
    <path d="m3799.2 1843.8v-207.62h20.5v207.62z"/>
    <path d="m3880.5 1636.1c-19.731 0-35.594 17.704-35.594 39.688v128.25c0 21.983 15.863 39.688 35.594 39.688h11.5c19.731 0 35.625-17.704 35.625-39.688v-128.25c0-21.983-15.894-39.688-35.625-39.688h-11.5zm5.9375 19.625c11.654 0 21.031 8.8104 21.031 19.781v129.97c0 10.971-9.3771 19.812-21.031 19.812s-21.031-8.8417-21.031-19.812v-129.97c0-10.971 9.3771-19.781 21.031-19.781z"/>
   </g>
  </g>
 </g>
</svg>
