<svg xmlns:rdf="http://www.w3.org/1999/02/22-rdf-syntax-ns#" xmlns="http://www.w3.org/2000/svg" version="1.1" xmlns:cc="http://creativecommons.org/ns#" xmlns:dc="http://purl.org/dc/elements/1.1/" viewBox="0 0 744.09 1052.4">
 <title>Vectorized Playing Cards 1.0</title>
 <g transform="translate(-289.24 -1384.1)">
  <g transform="translate(-1318 1164.4)">
   <rect rx="10.63" ry="10.63" height="311.81" width="223.23" stroke="#000" y="589.95" x="1867.7" stroke-width=".99673" fill="#fff"/>
  </g>
  <g transform="matrix(.15646 .0025859 -.0025859 .15646 828.42 1874.1)">
   <path d="m1327.1 110.53-0.25 1699.1 1052.1 2.2812 0.625-1700.2zm334.16 9.9375 476.69 1.75s-54.612 70.653-65.906 102.81c-8.7747 11.257-12.748 9.2152-27.219 6.2812-38.749-10.131-104.04-9.9414-136.47-10.531-61.226-2.7316-116.22 16.248-177.53 19.344-21.184-35.421-51.902-79.887-69.563-119.66zm-320.97 3.0938 306.56 0.90625 71.875 131.16c2.6055 3.6474 0.121 11.172-1.4375 15.406-8.8699 24.975-16.711 39.45-34.656 69.219-16.997 28.195-23.095 54.017-17.062 71.375 0.9056 2.1326 1.6876 5.3685 1.375 8.0938-0.9933 8.656-8.2617 18.674-18.156 25.531-6.7227 1.079-20.693 1.9395-28.781 9.9375-6.9319 6.8547-12.612 16.885-11.719 35.219 0.4163 6.5568 1.25 10.719 1.25 10.719-91.408 38.032-156.92 82.586-154.75 84.219-0.8599-0.39584-80.349-36.977-113.44-46.031zm814.66 2.3125 210.16 0.1875 1.25 599.69-80.656-52.281c6.6151-4.6069 10.702-7.3401 17.656-12.062 1.2369-0.37381 3.5744-0.41126 5.0938-0.75 14.047-3.1319 23.843-13.64 18.969-24.531-3.3088-7.3935 1.2103-6.9434 5.2813-12.969 4.5828-6.7828 3.6307-12.824 0.7187-18.531-1.4453-2.8322-0.6495-3.9535 1.7813-9.1875 6.434-7.9807 1.783-21.481-6.5313-25.844-0.8703-1.2848 0.9104-3.2707 1.3125-5.125 2.345-10.814-1.9605-20.307-11.312-22.719-4.814-1.2414-6.417-2.0779-4.7187-6.375 3.0137-7.6259-0.9574-10.461-7.2188-12.938-10.534-4.1667-7.5528-4.8332 5.4688-10.688 26.653-11.983 32.928-47.609 14.594-79.938-2.331-4.1101-8.5591-13.756-12.781-20.219-4.9342-7.5533-9.7187-14.062-9.7187-14.062l35.281-49.188s-24.564-29.097-33.313-45.188c2.0617-7.9425 26.653-32.882 29.844-57.094 5.0025-37.963-23.826-62.258-51.094-59.406-18.916 1.9784-42.187 14.076-40.437 49.219 0.5433 10.916 4.8051 22.19 12.531 35.844 5.3994 10.215 12.394 21.027 19.094 31.406l-35.5 48.531 35.875 45.438s-0.4718 0.73139-1.25 1.9688c-3.5708 5.6774-13.945 22.392-18.438 32.188-13.231 26.16-17.917 54.88 9.25 75.125 4.7515 2.9183 8.4149 5.3997 10.438 7.4062 2.6659 2.6447 1.0039 4.6546-3.2813 5.6562-5.0458 1.0644-10.186 0.99305-15.5 3.0938-17.036 6.2152-34.106 16.244-46.25 26.062-6.8158 5.5109-17.802 22.956-24.5 37.125-7.2794 15.399-9.3125 18.812-9.3125 18.812l-124.78-79.875s-3.1687-2.5026-4.0313-3.4688c-2.3238-2.6027-1.4881-4.1127 0.125-7 1.3661-2.4452 1.4167-9.6346 0.8125-15.094-0.1701-10.469-0.092-10.51 5.9375-20.125 2.1244-3.388 3.0052-6.7728 1.7813-12-1.9556-5.8724-2.1417-4.0014 1.5937-8.0312 1.4567-1.7935 3.2147-2.6806 3.5-4.625 0.3819-2.6026 0.1416-7.1444 0.1875-15.625 0.092-16.995-0.1379-15.594 9.4062-23.062 11.854-9.2758 16.274-13.649 18.156-17.844 2.6991-6.0134 0-10.551-6.6563-22.562-3.042-5.4867-7.7523-12.894-10.031-17.031-4.2599-7.4376-10.413-17.232-13.344-26.594-4.4376-7.1893-3.7623-19.65 0.3438-26.969 5.1544-9.1875 6.5888-14.74 6.4062-33.312-0.1691-17.214-1.4169-15.612 2.9688-21.375 32.784-43.392 84.844-124.06 84.844-124.06zm133.56 63.469c0.7019-0.001 1.4194 0.029 2.125 0.0625 10.322 0.49048 20.576 3.8082 30.094 13.031 12.948 12.982 12.067 31.687 7.8125 51.156-1.9605 5.654-3.4212 11.404-7.4063 17.312-2.2174 3.288-4.0294 6.3382-4.0312 6.75 0 0.41176-3.1916 5.5453-7.0938 11.438-3.8122 5.7563-8.1874 13.781-8.1874 13.781s6.0983 10.938 16.906 24.625c8.1566 12.12 13.443 22.682 14.062 22.062 0 0-2.0676 5.2403-4.9063 8.9688-8.5747 11.263-24.369 34.762-25 37.219-0.1518 0.59125-1.7807 1.1942-1.75 1.7812 0.114 2.1815 3.2476 4.768 7.9688 11.25 28.5 39.129 32.53 72.162 11.125 91.562-10.65 9.653-21.162 12.68-32.438 11.469-20.66-2.2195-39.73-19.85-37.5-45.562 1.0068-11.812 0.392-15.333 7.3437-29.062 3.1391-7.7298 10.246-20.976 14.969-27.656 4.13-4.7949 8.5312-11.625 8.5312-11.625s-10.138-15.616-28.781-37.562c-3.3603-4.013-5.4375-9.4375-5.4375-9.4375l31.938-47.312s-3.7097-9.18-9.9375-18.469c-12.771-19.048-21.007-39.299-20.93-50.696 0.1923-28.404 18.766-45.043 40.524-45.085zm79.5 675.91c-18.86 10.032-37.219 44.285-1.3359 20.398l0.8984 19.695c-18.664 26.489-55.158 7.0704-45.876-20.358-25.199 3.2655-29.127-22.313-27.848-34.481-33.142-7.2209-21.693-42.318-21.693-42.318-19.149-16.007-22.507-32.773-6.9958-50.447-15.683-9.7539-20.102-16-37.338-23.084 13.214 117.53 76.647 178.57 143.41 232.97 0 0 1.4783 37.848-6.1562 30.875-95.326-71.225-156.61-152.67-167.15-284.42-0.8087 2.0685-45.196-34.362-52.538-32.427-15.384 213.33 154.46 353.56 225.09 381.2 0 0 1.0007 29.723-0.2118 29.828-107.05-46.694-226.07-183.74-249-346.78l-63.156 97.812-23.656-10.125 102.12-160.91-69.062-43.281-112.44 178.16s-2.9849 14.855 5.1549 14.625c157.83 16.887 392.55 206.51 313.91 515.12-6.8218-2.6979-17.68-7.9803-18.219-7.75 12.334-26.595 46.749-198.89-56.781-338.06-47.433-63.763-120.99-131.62-239.03-151.66 9.7546 20.128 5.5 65.781 5.5 65.781l27.5 5.5625c-9.2801-9.8092-17.039-17.891-20.719-28.531-5.1504-16.576 2.3979-26.393 20.75-16.531 7.2873 4.0892 9.1226 3.9306 16.219-1.3438 14.778-10.984 31.642 0.32639 27.75 18.594-0.5749 2.6987 0.1398 4.3998 7.1563 5.0312 15.896 1.5812 31.912 9.4595 42.281 21.812 5.0819 6.5138 6.2332 5.5476 10.75 1.625 11.092-9.6325 29.47 3.7157 26.187 18.625-1.8763 8.5236-0.8436 10.564 3.0938 12.219 21.678 9.1124 27.001 14.862 33.75 33.844 2.4724 6.9538 4.5023 9.24 5.7812 8.8438 0.8953-0.27745 4.4584-1.469 7.5938-2.6562 16.185-6.1286 25.658 13.441 14.188 28.781-2.3504 3.1432-0.6102 6.161 3.5625 8.4375 13.47 7.3486 22.626 24.904 24.219 43.312 0.6059 7.0034 1.342 7.012 8.3437 6.7188 17.92-0.7507 26.451 23.444 11.875 32.344-5.0772 3.0998-4.1316 7.1028-0.1875 11.781 10.448 12.393 12.889 21.347 11.969 35.469-1.2254 18.802-0.027 18.435 5.9687 20.719 17.414 6.6328 14.165 34.456-2.9096 34.363 12.297 28.649-3.8953 63.584-3.3671 64.23 32.809 18.461 3.1829 38.074-6.3483 34.626 0 0-4.8609 12.871 0.6563 19.5-28.779 38.079-66.46 44.4-108.19 63.312l-1.3124-134.06c17.356 13.972 34.557 27.009 51.75 40 0 0 4.3587-1.3077 0.3903-4.9756-7.6472-7.0681-26.884-19.508-32.265-24.462-11.616-8.813-54.18-49.514-61.75-59.156-3.3912-6.4253-8.51-2.7067-8.375-2.3212 5.0909 8.7934 8.8848 19.046 15.478 28.183 14.238 19.733 28.054 41.664 26.616 63.357-0.035 12.147-4.8612 24.684-7.5625 30.781-2.0013 8.3298-15.281-1.4203-11.938-8.4374 5.9035-19.229 10.793-34.982-10.312-65.875-10.292-15.065-23.625-42.406-23.625-42.406l-8.5312 2.0625 0.3124 174.91c-7.156 0.2942-25.301 4.9974-21.562 5.125 56.55-11.298 73.851 69.615 19.25 72.25-10.372 0.368-21.093 18.222-22.188 27.906 0.4684 23.493 3.9112 48.275-13.281 70.844-4.519 5.9323-6.6007 15.348-10.781 22.75-20.991 37.168-30.359 58.47-28.219 68.063 0.5506 2.4674 1.0625 5.7187 1.0625 5.7187-66.854 16.707-116.99 20.992-184.34 22.562-0.6586-1.0538 22.611-66.504 39.594-100.06 12.552-24.802 19.021-41.755 15.5-46.875-53.41 2.6782-43.168-75.63 7.9375-72.875 0 0 12.819-45.115 27.156-65.469 13.585-7.5628 40.924 2.7376 56.25-7.4063 36.108-11.073 59.75 31.625 59.75 31.625l9.7188-40.625-319.31-1.531s-32.902 12.325-49.719 5.375c-10.747-4.4412-23.084-17.036-23.094-17.031 0 0 122.01-195.98 139.94-224.25 1.4568-2.298-3.1782-7.2363-3.1875-7.2812-0.6718-6.4192-142.04 213.94-141.47 223.66 0 0-3.7601 5.3425-10.562 0.625-79.957-55.171-271.03-173.78-271.03-173.78l-0.25-87.875c66.4-41.8 60.4-59-1.1-13.3-0.8586 0.7252-1.3125-33-1.3125-33 46.881-41.888 7.8944-28.772-1.3616-14.257 0.2226-10.443-2.201-24.623 4.4866-30.868 20.484-18.885 44.63-1.5479 45.843 26.371 26.725 5.2389 23.411 28.722 30.298 38.161 27.245 15.382 12.898 38.722 19.659 46.656 28.7 18.098 8.6819 47.191 2.6066 46.531 3.6184 2.4339 39.285 26.343 42.344 25.469-3.0952-125.36-141.13-245.03-144.97-238.75l2.9374-27.031s172.51 110.35 171 287.41l55 32.688c-4.8871-181.67-86.012-304.28-224.72-382.28l-2.9-34.24c116.44 54.196 224.42 163.88 249.56 343.66l64.469-100.06 22.719 11-103.51 166.08 64.635 42.51c50.138-66.01 91.952-146.96 117.44-185.47-0.6714-3.5205-2.0625-8.5626-2.0625-8.5626-246.5-40.6-385.4-271.58-319.2-512.91l17.125 7.5312c-51.392 178.73 32.418 435.99 300.47 488.59-0.5335-19.006-3.875-65.75-3.875-65.75s-35.222-10.59-30.038-6.3438c8.6276 7.3737 28.013 39.168 19.82 50.469-5.8893 0.8251-15.747-2.4732-26.531-10.375-4.0682-2.9808-4.1819-2.3458-8.75 2.5312-12.67 13.526-31.08 5.7767-31.25-12.812-0.072-7.8514-0.3644-9.5134-11.5-9.5937-16.888-0.1213-24.471-3.0189-34.594-16.563-7.1806-9.6068-6.5206-9.6503-14.969-6.75-16.188 7.7037-29.108-8.475-24.031-21.812 2.5022-6.2487-0.1609-8.2492-7.5312-9.4688-14.337-2.3723-30.551-20.365-33.531-35.062-0.609-3.0033-2.1102-3.7614-10.562-3.4688-16.58 0.57399-25.758-9.4813-19.219-23.562 3.5365-7.6152 4.5306-10.689-2.0937-15.844-8.1225-6.3205-12.706-10.713-16.312-18.375-2.86-6.0771-3.2839-9.9669-5.25-22.906-0.6839-4.5011-2.1795-5.2328-8.0625-6-17.145-2.2361-23.905-19.779-11.312-31.156 3.8442-3.473 3.8303-3.3893-2-10.938-11.216-14.521-15.419-33.476-10.531-46.094 1.3233-3.4164 0.031-7.5979-3.9688-8.5938-15.634-3.8931-15.902-21.23-0.9375-30.969 4.3451-2.8276 4.5667-4.7013 1.2813-10.406-5.7552-9.9932-5.4677-36.164 0.094-48.688 3.5955-8.0966 3.5721-8.2838-2-11.844-11.881-7.5905-8.4847-28.468 5.5625-31.906 6.8229-1.67 7.2746-2.5591 5.4375-10.844-3.2742-14.765-3.8379-18.603 4.875-24.438 23.963-15.563 85.344-45.312 85.344-45.312l20.281-9.6562s2.0257 123.88 0.7187 138.53c-0.7903 6.3077 4.876 10.126 11.469 16.688 13.628 13.397 21.096 29.597 39.281 40.844 0 0 11.335-6.3023 18.344-10.812l0.6875-176.53c1.4351-4.0068 2.4402-4.4483 7.0937-5 3.8716-0.74615 13.59-1.8293 16.844-2.7812 7.8302-2.2911 9.0633-5.4523-1.2188-4.4062-3.0981 0.3152-7.7458 1.6344-12.937 2.6875-32.139 9.6436-55.91-40.404-31.438-65.625 4.6975-4.2077 22.246-11.529 30.219-12.031 2.3045 0.0184 9.1603-8.4254 13.844-16.219 4.7073-7.8331 6.661-13.655 3.9687-21.5-5.6683-16.516-0.2621-41.875 16.689-69.562 18.353-26.132 32.531-55.296 39.968-86.344 65.04-7.8419 120.21-24.015 179-20.438 2.2962 19.87-64.273 137.01-50.375 143.88 52.375 12.543 34.496 74.652-5.3126 72.594-5.9633-0.0323-6.5476 0.49578-10.344 13.688-7.2274 19.259-11.894 33.954-19.656 51.875-0.025 4.6082-3.2507 4.1556-25.031 4-19.908-2.9476-33.644 7.9023-48.125 8.5312-18.462 0.84189-34.215-8.0088-40.625-22.688-2.8562-6.541-5.5096-2.2397-5.5938 13.281-0.067 12.349-0.5624 19.562-0.5624 19.562s76.318 0.22462 163.28 0.375c175.79 0.30399 158.28 2.9983 172.22-3.9688 8.1429-4.071 13.51-8.4815 27.594 0.71875 22.563 14.74 21.824 12.728 15.25 22.219-44.185 65.523-141.84 223.19-141.84 223.19l6.8437 6.6875s98.628-155.85 143.56-228.88c2.0403-2.3713 11.438 0.625 11.438 0.625l269.06 175c-2.2682 26.445 0.375 85.715 0.375 85.715-75.629 40.16-52.522 60.622-0.4534 11.982zm-456.59-629.69s78.049 0.63244 117.19 6.9062c34.273 5.4938 32.51 4.4849 32.375 29.375-0.096 17.676-0.1219 17.274-4.6562 25.75-8.3587 15.624-6.9361 31.025 6.2812 52.594 12.83 20.937 22.222 36.396 22.219 39.375-0.01 4.6213-0.7909 10.264-11.906 18.031-13.116 9.1653-15.618 15.569-15.438 24.875 0.1461 7.5341-1.2798 9.9931-5.7812 9.9688-1.8045-0.01-8.1817 2.9561-15.031 6.1875-12.05 5.6847-12.07 5.6847-23.313 5.5938-5.6374-0.0456-8.3678-2.1751-9.9374-1.5625-3.0263 1.4122-5.7764 11.546-5.6876 14.5 0.3202 1.0453 1.9324 0.41675 5.25-0.71875 18.644-6.381 46.378-3.5134 47.156-0.71875 3.7591 3.4056 3.7661 8.6679-1.9063 14.125-3.6796 5.781-5.3496 8.7685-3.8124 17.719 2.0881 12.158 0.5291 16.983-5.6876 21.188-18.959 12.822-44.273 14.437-84.75 6.6562-42.657-8.2002-71.83-24.468-96.094-53.594-10.839-13.011-13.516-17.57-8.1563-18.469 6.6125-1.0229 13.933-2.3917 20.719-5.3125 29.977-12.903 29.448-67.804-10.938-73.531-16.476-0.58392 34.019-78.265 51.906-138.94zm38.508 37.821c-14.499 8.1174-22.073 18.021-22.102 23.398-0.012 2.2029 0.4816 1.8031 7.4062-2.75 20.1-13.216 73.042-32.303 91.938-21.281 13.624 8.1789 18.912 5.5136 11.022-5.4862-18.515-25.815-68.452-4.675-88.265 6.1199zm51.773 8.6475c-2.1413 0.0179-4.3783 0.26396-6.5938 0.71875-13.977 3.1202-29.353 14.637-42.094 24.781-6.2841 5.0036-15.173 14.909-16.562 17.5-3.1443 5.8653 3.7981 12.33 13.25 7.1562 5.4977-3.0092 5.9856-2.3292 11.281-1.5938 12.201 3.678 26.113 9.3708 47.625 7.5625 2.0014 0.45898 1.8545 0.9294 1.1563 2.8125-1.2761 3.4419-8.8966 10.015-18.844 17.375-5.1292 3.7951-9.6162 6.905-9.9688 7.4688-1.5832 2.5308 5.27 2.7289 12.781-1.5312 10.657-6.0446 22.933-19.413 30.438-30.156 0.7149-1.0235 1.7056-1.8653 2.0312-2.9688 0.7336-2.486-3.754-1.459-6.1562-2.125-1.0345-0.28678-0.8222-2.8926-1.0938-4.0938-0.7124-3.1506 0.5206-8.3636 1.0938-12.844 0.4635-3.623 4.3517-6.4992 6.9062-9.1562 11.237-11.689 10.358-16.986-4.75-8-2.5446 1.5135-4.5562 2.4256-7.0312 2.625-22.299 0.70177-35.19-0.16218-53.781 15.5-8.2679 6.6616-13.236 7.3123-5.875 0.21875 11.22-9.0878 25.287-22.019 40.844-25.438 9.3887-2.3381 18.326 4.8532 22.438 3 0.028-5.14-7.8146-8.89-17.094-8.8125zm-3.2329 32.307c2.5544 1.6824 5.0628 10.407 4.8267 13.349-0.2744 3.4179-6.1557 2.0011-6.9688 0.375l-3.1875-9.6875c-1.3888-3.2709 2.836-5.1261 5.3296-4.0367zm-11.361 1.9742c2.7297 2.6932 3.3575 8.5301 4.9063 13.344-0.9882 3.4724-22.94-1.2188-25.694-5.1025 3.2904-4.2781 14.604-9.3986 20.787-8.2413zm38.5 62.562c-1.6515-0.10933-3.8351 0.69388-5.8124 2.7188-9.8813 10.119-6.6983 27.357 5.1874 32.938 5.7953 2.7208 14.563 0.71963 27.469-3.25 6.15-1.8917 10.601-2.7562 11.75-2.75 5.0439 0.0274 7.7885-7.7912 4.25-11.375-4.0896-4.1419-13.785-3.5318-24.219 4.5312-5.2774 4.0782-9.049 6.0543-13.312 6-10.434-0.13287-15.508-10.875-4.8438-22.156 3.5502-3.7556 2.2838-6.474-0.4688-6.6562zm-73.137 74.172c12.308 9.9309 35.677 4.7248 51.387-5.6717 14.038-9.2901 19.86-12.034 31.125-10.094 13.805 2.3775 13.292-3.0504 7.3126-9.875-6.7794-7.7378-23.523-5.349-37.531 3.9375-31.06 20.591-42.292 24.034-51.306 12.894-9.6835-11.967 1.8439-27.325 13.243-18.944 9.3508 6.3653 9.2118 1.5779 5.3484-2.7869-22.528-18.986-38.786 15.043-19.578 30.54zm-109.18 9.7658c15.673 19.876 30.68 36.293 53.219 48.406l0.25 3.75-72.875-0.15625c5.0882-8.8893 19.554-51.408 19.406-52zm-246.75 51.781c-1.5431 29.959 3.8307 47.556 21.375 68.5 18.648 22.261 17.262 56.962 5.267 78.4-5.3083 9.4871-16.107-2.1786-11.017-8.2442 7.2376-9.1049 7.6713-31.33 4.25-45.219-7.6798-22.957-25.099-34.202-32.156-58.469-2.3757-10.356-1.625-28.969-1.625-28.969zm22.812 2.5312c1.2759-0.20086 3.3072 1.1179 6.3126 3.7188 10.308 8.9211 8.5512 34.459-3.25 50.844-3.6146 4.97-6.6088 3.5517-10.063-1.0625-4.6636-4.609-3.049-5.067 0.875-13.156 4.092-8.4355 5.4026-17.935 4.5626-29.031-0.5657-7.4724-0.3023-11.019 1.5624-11.312zm668.47 8.75c9.0958-0.13632 20.466 1.7935 21.5 5.0938 0.9846 4.015-1.1741 7.2317-6.25 9.375-13.312 5.6208-30.906-2.2431-26.469-11.844 1.1092-1.7158 5.7613-2.5432 11.219-2.625zm-23.062 2.1875c2.6149-0.0589 4.6437 0.5845 6.25 1.3125 4.3624 2.2482-2.4915 17.611 19.219 17.312 5.1903 0.76376 9.0247-0.42908 8.3126 1.9062-1.0796 3.5404-10.393 8.8493-20.5 10.344-30.251 4.4728-28.933 2.9638-27.563 24.344 0.8945 13.956-0.013 18.661-1.9062 27.125-3.283 14.674-4.5826 28.852-2.375 24.188 2.9509-6.2353 10.484-25.928 10.438-37.125-0.069-16.514 5.8275-19.781 8.1875-7.8125 1.0096 7.9223-2.5364 12.392 2.7812 20.469 3.0166 4.5388 4.3933 4.4618 2.375 11.5-1.7804 6.209-0.5433 8.0352 1.625 11.188 2.1834 3.1741 4.3808 3.9034 2.5313 8.3438-3.9882 9.5751 2.2671 18.64 11.344 19.406 4.1947 0.3543 5.3555 2.182 4.0938 3.7812-2.2196 2.7617-6.6401 4.0743-10.312 4.875l-96.094-61.406s7.1285-14.3 9.25-18.125c13.805-30.269 24.754-44.059 65.125-59.906 2.7906-1.1998 5.1849-1.6729 7.2187-1.7188zm51.062 19.875c2.6496-0.0997 4.6126 1.288 6.8438 4.1562 5.8978 7.5823 0.7501 17.059-13.75 25.219-12.395 7.0507-16.002 7.892-18.688-3.1875-0.6211-1.9994-2.2698-4.4549-3.3437-5.4375-2.8697-2.6255-2.2168-4.812 1.4375-6.75 1.7488-0.92745 7.3214-3.2102 11.781-6.1562 7.7489-5.1186 12.312-7.7155 15.719-7.8438zm-40.906 22c3.0338 0.0477 6.1637 0.78176 8.4687 2.2812 3.8428 2.4998 3.8799 8.7793 0 11.281-7.7157 3.1482-19.902-1.0697-18.875-8.1562 0.5223-3.6035 5.3499-5.4858 10.406-5.4062zm49.437 7.75c2.737-0.0729 4.7929 1.2072 6.5 3.8438 4.5256 6.9893-0.7895 14.005-16.031 21.469-10.03 4.9113-22.846 7.0438-22 4.1562 0.681-2.3245-2.9026-13.794-4.5-15.625-0.613-1.9423 0.1857-0.19342 12.844-4.1875 4.5856-1.4469 10.125-3.8321 12.687-5.4375 4.3521-2.727 7.7631-4.1459 10.5-4.2188zm-720.9 18.12c-7.0507 16.946-8.1665 24.431-4.8125 42.25 2.7919 14.832 6.0291 22.271 21.25 44.188 11.585 16.68 15.292 23.17 12.5 28.438-1.968 2.8385-6.3914 5.4866-9.1417 2.7587-5.6592-7.3995-9.0576-16.39-14.577-24.634-21.272-31.201-22.749-39.141-25.469-63.781-1.243-11.259 5.2295-35.23 10.763-38.813 6.1966-2.4273 11.401 5.7006 9.4873 9.594zm491.5-7.81c-0.502 0.0633-1.0346 0.34581-1.5625 0.875-2.8889 2.8962-11.162 16.369-10.875 18.406 0.6296 4.4687 4.2859 1.5481 13.875-12.531 2.3031-3.3815 0.7378-7.0244-1.4375-6.75zm183.09 7.6562c8.5129 0.25692 11.531 7.8909 7.7187 11.875-5.5607 5.8108-15.563 1.4239-15.562-6.7188 0-3.451 1.6064-5.2312 7.8438-5.1562zm47.219 10.875c4.8806 0.20892 5.5273 5.0603 2.9375 12.094-3.2391 6.5305-7.1421 7.635-18.844 11.281-14.014 4.3666-16.301 3.7298-18.406-9.1562-0.809-4.951-0.4117-3.8518 12.5-7.2812 5.5409-1.4717 12.014-4.0983 15.469-5.5312 2.607-1.0579 4.7168-1.4759 6.3437-1.4062zm-827.6 5.7764 3.4419 26.03 5.5947-19.494zm782.07 8.7548c6.8952 0.0278 10.593 6.2001 7.0938 9.9062-1.9499 2.0651-6.9153 2.1086-9.3125 0.90625-5.4752-4.0005-4.4853-10.84 2.2187-10.812zm-210.62 13.594 13.438 8.2812-109.16 172.34-13.156-0.28125-1.25-2.75zm247.69 1.6562c8.0588-0.11396 8.7548 7.4842-1 14.469-4.0003 2.5646-8.4874 3.1895-11.969 3.3438-4.8527 0.21507-8.1239-1.047-8.5-4.4062-2.1063-8.2283-3.3073-10.272 4.1875-9.7812 1.495 0.0978 5.5723-0.13817 8.8437-1.5312 3.347-1.4252 6.1811-2.0618 8.4376-2.0938zm-33.375 7.5312c5.5717 0.0302 9.1152 6.0721 5.375 9.0312-4.6204 3.6556-10.374 1.3997-10.344-4.125 0.019-3.5304 0.98-4.9279 4.9688-4.9062zm-785.44 12.188-29.696 26.305c10.888 12.88 20.02 25.742 29.445 39.249zm600.5 1.6875c12.888-0.5177 17.112 5.7176 11 9.9062-8.3049 5.5508-15.419 5.2851-24.844 4-12.468-2.3173-2.5426-12.301 11.125-13.719 0.9355-0.097 1.8595-0.15299 2.7187-0.1875zm-13.687 18.75c2.603-0.0697 6.4409 0.66181 11.406 2.3438 8.432 2.8563 18.932 11.694 18.438 16.594-0.8013 7.9319-15.73 3.8371-27.75-7.5312-7.5302-7.1216-7.8204-11.253-2.0937-11.406zm-11.406 0.125c7.3086 0.69174 14.603 25.426 8.9375 33.031-5.553 7.4544-15.341-8.5882-13.562-21.188 0.704-4.9872 1.9597-11.572 3.9063-11.812 0.2353-0.0291 0.4829-0.0536 0.7187-0.0312zm-477.31 5.4375c4.1173 0.98379 9.3896 6.678 8.25 11-0.8303 1.7362-2.5613 1.2316-4.4375 0.78125-3.3845-1.4315-5.9972-6.1458-5.3437-10.062 0.3181-1.0586 0.7703-1.6572 1.5312-1.7188zm553.88 4.25 21.469 14.562l-21.6 0.84zm-89.1 29.46c16.471 0.0893 19.954 5.4178 7.6563 11.906-5.112 2.6972-17.56 3.204-24 0.96875-10.221-3.5474 2.0437-12.953 16.344-12.875zm133.25 11.094 1.125 14.938-41.344 3.625-2.125-15.562zm-142.94 7.4375c2.8635-0.18097 7.4295 1.1437 13.406 4.2188 11.249 5.7876 17.651 15.495 11.844 18.562-5.2611 2.779-14.632-0.51744-21.25-7.4688-8.7601-9.2011-9.4668-14.967-4-15.312zm-14.063 0.0312c7.5111 0.45047 14.011 21.037 9.0626 31.219-2.7073 5.5706-6.1383 4.353-11.063-4.8125-4.7613-8.8623-5.0195-24.51 0.4688-26.219 0.5066-0.15777 1.0305-0.21753 1.5312-0.1875zm-537.74 5.8119-18.072 36.344 32.745 28.585zm699.83 28.001 2.9062 14.375-39.687 9.7812-3.875-15.656zm-173.31 2.8125c4.8411 0.0856 9.3883 1.2346 12 3.5312 3.6212 3.1844 2.8304 4.6132-5.7187 8.0938-15.224 6.198-33.978 2.4472-23.094-6.8125 3.8438-3.2702 10.588-4.9225 16.812-4.8125zm257.81-0.84224c-15.156 10.161-0.5609 15.749 10.273 8.0686-0.8107-2.6172-7.0935-8.0274-10.273-8.0686zm-268.94 20.373c10.841 0.35476 32.113 15.226 27.562 22.344-2.4711 3.8984-16.693 0.57138-22.344-4.8438-7.4263-7.1164-11.354-16.633-7.25-17.375 0.6192-0.11198 1.3086-0.14865 2.0313-0.125zm-13.688 0.6875c5.5946-1.0425 14.539 25.034 7.7812 31.719-2.5264 2.4991-3.2284 2.3505-7.4687-1.4062-8.4703-7.5045-7.0155-21.333-1.9375-29.062 0.4858-0.73949 1.0463-1.1422 1.625-1.25zm333.14 13.742c-1.4775-2.7604-3.3164-4.04-5.3435-5.559-52.694 20.248-39.185 39.538 5.3435 5.559zm-124.86 1.7892 5.25 14.562-39.969 15.844-5.875-15.938zm-683.5 27.57l-13.531 35.625c14.712 0.0861 27.978 7.0346 41.406 13.219zm696.94 10.469 8.4687 14.312-37.594 20.344-7.5-15.094zm-873.38 27.875 15.406 10.875-22.625 28.125-2.0626-3.9688 0.25-23.344zm893.91 8.8438 9.0937 13.125-36.188 25.156-8.875-14.281zm-855.09 16.875 16.625 12.812-26.281 31.719-15.906-12.156zm182.94 7.8438-0.7813 38.156 39.125 1.5zm452.21 17.197 44.471 25.608-6.6983-39.085c-11.618 2.2629-26.524 9.8332-37.773 13.477zm244.25-8.0098 10.375 12.906-33.437 28.094-10.719-13.438zm-845.47 11.312 15.5 14.406-27.312 29.5-14.344-13.531zm874.03 20.938 12.031 12.219-30.469 31.688-12.031-12.219zm-838.81 15.531 12 14-31.187 24.781-11.563-14.062zm179.72 3.2812 8.75 37.375c-0.6362-2.7174 38.827-11.147 43.969-8.3124zm459.42 3.1599 37.241 39.325 4.1874-37.88zm230.33 6.1838 13.469 10.531-25 35.625-15.25-11.969zm-842.62 23.75 11.094 16.031-32.688 19.469-9.2812-14.156zm877.91 3.7812 2.0626 2.0626-0.031 25.437-10.375 15.25-14.156-8.3437zm-210.7 28.572 32.948 59.899 9.2908-44.67c-12.183-0.1808-31.468-7.9845-42.238-15.229zm-641.14 7.9909 7.8437 17.281-34.531 15.75-7.875-17.188zm18.656 41.25 6.3124 17.344-36.719 12.188-5.8125-16.719zm-164.16 31.41 11.437 8.0145c59.569-31.311 41.004-40.56-11.437-8.0145zm336.69-19.91c2.2502-0.2342 4.8452 2.8778 6.9375 9.75 3.163 10.388 1.4844 23.269-5.5625 23.094-4.746-0.5756-6.5125-12.753-6.5312-16.281-0.055-10.422 2.263-16.261 5.1562-16.562zm32.656 6.2187 14.188 1.5313-0.063 4-113 179.41-13.687-8.6875zm-60.844 4.1563c4.5032 0.04 11.095 3.1438 16.938 9.3437 3.417 3.7035 7.0783 8.9624 7.9688 14.344-0.1008 1.7747-3.129 1.1021-6.0626 0.6876-7.5023-1.0604-18.543-6.2556-22.062-12.656-4.3244-7.8642-1.885-11.764 3.2187-11.719zm519.49 6.3869 15.068 73.475c4.6659-18.391 14.524-28.995 21.822-43.437-19.203-8.843-27.088-19.323-36.89-30.038zm-649.24 14.863 3.5313 19-38.063 8.8124-3.9374-18.437zm141.97 6.5937c0.5392-0.01 1.0764 0 1.5938 0.062 13.919 1.5573 15.89 4.6518 6.5312 10.938-5.672 3.8095-21.03 4.3447-23.562 0.2813-2.6997-4.3318 7.3496-11.202 15.437-11.281zm-276.19 11.156 11.812 6.9062c20.236-14.625-1.8634-17.555-11.812-6.9062zm256.16 6.4062c4.2544 0.052 6.8151 7.6477 8.3125 14.625 1.4498 6.7551 1.9494 12.855-0.6563 16.25-3.1895 4.1555-6.3113 4.8915-8.8437 0.7812-7.4237-12.049-7.1844-31.759 1.1875-31.656zm-31.375 11.031c1.986-0.07 4.4895 0.4306 7.4062 1.5313 9.8765 3.7271 22.969 18.849 17.438 20.938-8.1671 3.0833-26.018-5.8782-29.375-14.938-1.692-4.5658 0.1619-7.378 4.5312-7.5313zm-81.438 12.188 0.9063 18.781-40.031 1.625-1.1875-18.688zm98.062 15.812c3.9432-0.1128 7.8837 0.4074 11.062 1.7813 5.7311 2.477 1.5572 6.9637-8.2813 10.375-6.495 2.252-15.754 2.8323-19 0.25-7.5936-5.9882 4.3891-12.068 16.219-12.406zm-309.56 2.1876c27.419 16.652 83.938 53.75 83.938 53.75-2.683 0.53-5.5395 2.6318-8.1875 4.6874-2.0435 1.6808-4.2581 3.2414-6.1875 4.0313-3.0378 1.2437-5.8337 1.4162-8.375 1.9687-17.673 3.8428-26.33 13.844-20.812 26.281 2.1671 4.8854 2.7309 4.0996-1.0313 8.2187-10.54 10.056-9.2523 13.066-5.5 25.938 0.05 1.8202-12.547 17.288-1.4062 28.937 6.1622 5.3707 6.4556 2.0088 4.2188 14.219-0.7801 7.3417 1.2234 13.367 11.906 15.469 5.9401 2.725 5.8554 1.7759 3.75 6.8124-1.4405 7.2269 0.6222 10.216 5.6875 12.844 4.6015 2.8784 6.4709 3.6609 3.2187 6.1875-35.583 18.219-46.527 49.919-12.969 96.625 3.9557 5.5055 13.912 21.044 13.912 21.044-11.313 16.793-22.112 30.621-33.65 45.618l33.584 46.971c-5.4436 8.5252-18.156 25.858-25.971 42.96-11.739 25.688-3.988 61.697 29.781 72.469 14.479 4.6183 33.6 0.872 45.65-13.125 9.7764-11.355 15.105-33.914 6.1811-57.406-11.283-26.322-24.816-39.231-29.194-46.719l35.956-45.138s-24.774-35.639-34.656-48.581c67.429-82.539 12.348-105.62 1.7813-112.69-1.6408-1.098-1.25-6.375-1.25-6.375 60.562-6.9394 81.246-40.22 99.062-82.344 36.127 23.267 87.854 54.556 124.09 79.031 3.4927 3.2411 5.7841 5.2449 5.25 7.0313-0.4363 1.459-1.8377 8.1565-1.9063 15.031 1.685 10.948 0.8815 15.902-3.5313 20.094-4.1529 3.9449-3.3226 5.7371-2.6562 10 1.1576 7.4054 2.2795 8.1453-1.0312 11.875-4.08 4.5963-5.4458 6.7486-4.6876 17.906 0.4503 6.6253 1.2939 11.59-0.4374 15.5-2.2537 5.089-8.4285 7.6666-16.531 14.031-14.18 11.138-12.267 14.541 7.3125 54.969 16.685 34.451 18.591 42.328 12.188 54.562-5.3283 10.179-7.3338 18.046-6.6875 32.75 0.1649 3.75 0.4844 7.8036 0.4688 9.7813-0.039 4.7571 0.024 4.2125-2.7188 7.1875-2.1354 2.3166-5.6835 6.8993-7.875 10.188-23.282 34.924-84.531 123.78-84.531 123.78l-205.97-0.3438zm288.84 16.25c2.4134-0.1731 5.3263 4.1468 8.625 12.875 1.905 5.0403 1.7039 13.791-1.375 17.156-6.1316 6.702-14.574-9.0015-11.906-21.438 1.2045-5.6157 2.7792-8.4592 4.6562-8.5937zm579.26-9.4397c0.033 31.822-0.6508 73.122-11.607 103.57l12.425 5.6286c-4.0076-31.259 0.9631-56.923 29.638-70.446-13.048-8.8574-23.017-23.819-30.456-38.752zm-610.14 20.065c0.9951-0.026 2.146 0.2211 3.4063 0.625 4.6481 1.2764 10.308 3.991 13.75 7.5 5.8905 6.0048 11.972 13.222 10.438 13.906-9.7405 4.2747-34.458-8.7861-31.219-19 0.7114-2.163 1.9666-2.9879 3.625-3.0312zm-43.312 1.3437 0.25 15.594-23.938-15.312zm546.66 7.5c3.8762 0.3395 9.8687 5.413 8.9375 8.9375-1.667 3.8152-3.7132 3.4604-6.3838-0.5454-3.3327-4.9991-4.6853-8.1208-2.5537-8.3921zm-485.03 19.281c5.8124-0.1572 10.828 1.1264 11.375 4.1562-0.016 2.8656-4.4317 6.5734-9.875 8.25-13.609 4.1915-23.814 1.4871-20.094-5.1875 2.3331-4.4178 11.121-7.0168 18.594-7.2187zm474 17.686c-5.7537 10.314-6.4645 43.294 3.6874 56.752 15.772 17.418 30.336 40.098 28.656 70.281l-15.156 6.7813c0.8373-24.822-0.153-40.96-19.531-62.375-23.077-25.078-17.65-68.532-9.6865-81.311 6.8387-12.614 16.682 5.2467 12.03 9.8714zm-664-13.717c4.8475-0.2856 10.774 2.5798 21.5 9.6563 27.43 19.417 42.301 26.909 69.5 46.125 3.9771 3.7251 3.7811 3.1911 3.0937 6.125-10.399 39.796-40.595 71.371-85.344 77.156-5.1764 0.6692-2.5061-2.5732-5.625-8.8125-3.2114-6.4241-9.1376-9.2206-15.719-9.2813-18.478-0.1707-2.6793-10.536 19.875-13.5 7.4559-1.1458 16.439-2.1571 21.188-6.6562 1.0304 0.486-3.9169-31.126 1.1563-42.25 2.5877-10.005 0.1397-14.842-2.6563-8.6875-1.755 3.8627-4.2115 14.008-5.5313 24.406-1.1143 8.7798-2.9638 9.9816-5.0312 5.7187-0.9439-1.9462-0.9244-6.5525 0.5625-10.188 1.6811-8.2771-8.7575-14.517-6.6563-22.094 2.7967-6.3282-0.1086-13.308-3.625-15.625-1.914-4.1033-1.6888-7.0693-1.4374-9.9374 0.5881-6.7108-3.8786-13.161-10.938-15.969-3.1196-1.5764-2.1875-3.2841 1.0626-4.9062 1.5168-0.7572 3.0091-1.1861 4.625-1.2813zm-22.438 11.344c1.7767-0.03 3.5408 0.163 5.2188 0.5938 3.6329 2.2116 6.5536 14.787 2.5 15.281-1.4935 0.1821-6.1614 0.7488-9.7812 1.8126-12.267 3.605-18.083 3.121-17.844-3.9376 0.2437-7.1972 10.312-13.586 19.906-13.75zm16.313 1.2813c4.8294 0.026 8.7254 5.6823 5.6874 8.6875-3.1423 3.1085-9.1805 0.8377-9.1562-3.6562 0.013-2.4228 1.1104-5.0441 3.4688-5.0313zm3.2812 19.594c1.3837-0.053 2.9173 0.2396 4.5625 1 4.4893 2.0749 7.0764 9.7982 4.2187 12.625-2.1724 2.149-8.3913 1.3933-11.719-1.4374-5.9448-5.0576-3.0587-11.955 2.9375-12.188zm-15.219 1.125c2.7795 0.059 4.7803 0.9534 5.3126 2.875 0.4572 1.6526-0.3089 3.1776 0.4374 5.5313 1.1745 3.7041 3.522 6.544 1.4688 8.0313-9.4088-0.5634-28.942 11.248-34.594 10.687-4.7067-0.6304-5.2388-4.9667-1.1562-12 4.7182-8.1284 20.193-15.3 28.531-15.125zm5.6876 22.844c2.0495-0.1299 2.3944 1.0037 1.5624 4-0.5911 2.1294-0.1019 7.2001 1.3438 10.469 1.5508 3.5063 4.3666 5.5956 2.9062 6.9687-2.4094 0.6931-10.49 2.3091-17.281 4.8437-8.7651 4.8511-33.382 19.461-27.188-3.9062 1.974-7.8058 11.032-13.223 26.844-18.75 5.9977-2.0963 9.763-3.4951 11.813-3.625zm12.906 0.2812c3.8044-0.2768 8.1487 1.5543 10.094 6.2813 5.7091 11.367-10.67 12.994-15.906 3.5313-3.1016-5.6055 0.9211-9.4566 5.8125-9.8126zm3.125 26.469c8.5113 0.046 15.115 10.599 8.9375 14.594-4.5791 2.753-10.255 2.2349-15.5 0.9374-7.8827-3.4632-4.2451-15.592 6.5625-15.531zm814.88 0.2188c32.381 16.952 76.419 32.58 119.12 44.187l-1.4375 420.06-290.53 0.1874-79.937-138.78s-2.6516-4.5128-3.5-6.5c-1.614-3.78-1.0343-6.8602 0.062-10.781 2.6479-9.4667 10.668-28.022 18.063-41.188 19.307-35.446 46.731-74.321 31.875-108.38-1.6987-3.8936 15.341-25.013 15.341-25.013 26.245 2.1443 47.944-14.966 40.175-55.357 54.785-22.399 99.92-40.608 150.76-78.442zm-829.97 2.0624c0.7423-0.028-1.4909 9.1915 3.1563 14.844 2.8975 4.4519 2.4275 4.3066-7.4063 8.1875-3.6765 1.9929-7.3634 5.0243-9.4374 6.875-14.079 12.562-28.012-3.8656-14.406-17.062 10.985-9.8723 22.47-12.03 27.906-12.719 0.079-0.088 0.138-0.1231 0.1874-0.125zm669.4 8.6817c4.7227 0.8393 10.842 7.1249 8.8807 10.551-6.6606 11.159-6.9624 17.16-7.557 28.705-0.6639 12.888 1.5398 14.787-3.375 12.562-3.2032-1.497-9.1895-4.0678-10.531-7.3437-3.0942-7.5545 4.8211-45.854 12.582-44.475zm-673.99 32.35c5.2304-0.091 10.719 1.6171 13.812 5.5937 2.5777 3.314 2.8448 6.1459 0.2812 7.5-6.0941 3.2191-26.266 1.5442-27.281-2.5937-1.5658-6.385 5.543-10.367 13.188-10.5zm305.3 8c24.643 0.1003 53.396 5.3409 75.656 15.062 31.596 11.917 59.431 42.29 65.719 55.281 1.9104 3.9471-1.9974 3.9479-5.375 4.3124-37.633 6.2171-50.162 52.523-18.406 74.656 9.9575 6.224 18 5.5625 18 5.5625 8.0587-0.6868-35.795 83.452-53.25 135.88-54.01-2.212-94.822 6.109-147.62-12.062-5.6784-9.4263-4.326-30.247-0.1876-41 3.7923-9.7624 8.7878-17.296 6.375-28.531-4.2021-19.568-22.033-45.057-28-61.219-5.2367-12.335-4.8997-16.936 4.2188-24 10.746-8.3253 13.394-10.072 16.344-14.281 2.7477-3.9202 1.577-4.8222 1.625-13.656 0.058-10.716-0.1979-9.051 8.6562-10.625 3.0877-0.5489 10.372-2.8793 15.938-5.8125 11.545-6.0846 19.594-5.8675 26.375-2.0937 2.9489 0.795 2.6688-2.2624 3.9063-6.3126 0.5394-1.7657 1.7883-4.6545 1.6874-5.5312-0.2086-1.8123-4.1088-1.2891-8.4062-0.6875-17.227 2.4117-30.801 2.9435-37.781 0.3437-6.0529-2.2542-6.0692-6.3309-2.5313-13.094 3.155-6.0292 5.3816-5.9321 4.0937-18.5-1.6171-15.781 0.5758-19.103 7.9376-24.281 9.1843-6.4603 25.864-9.4842 45.031-9.4062zm89.062 13.906h80.094c-7.8608 12.68-16.605 32.238-21.562 50.781-0.7246 1.4449-1.5802 2.8653-3.4376 1-10.803-15.471-23.101-32.014-55.094-51.781zm-66.406 56.406c-9.5722 0.273-21.546 4.8752-36.594 13.5-10.226 5.8615-18.579 9.5014-29.438 7.5-6.2057-1.1438-7.0023-0.2597-7.8125 1.75-3.6531 9.0615 9.902 18.781 23.594 12.406 3.9788-1.6661 34.503-17.491 36.188-18.844 1.8336-1.4722 14.474-5.1973 17.812-5.1562 10.098 0.1252 16.327 8.0642 15.094 17.219-1.6481 12.232-18.991 12.846-20.125 1.9687-0.8731-8.375-4.3659-4.655-4.6875-0.5312-0.019 3.5156 2.6352 11.535 5.5313 13.344 14.653 9.1512 33.973-8.6602 24.719-27-5.6635-11.224-13.433-16.466-24.281-16.156zm-65.726 42.631c-9.9378 1.8916-16.403 5.7598-27.118 6.6502-8.8403 1.9523-8.1848 8.991-2.6563 12.656 4.2444 2.8138 9.5952 1.1133 25.063-8.7188 15.192-9.6572 28.216 10.46 16.062 20.762-7.6502 6.4851-2.3976 8.1892 2.8403 4.2812 13.457-10.04 5.7356-39.424-14.191-35.631zm47.038 51.775c-1.1645-0.082-3.0038 0.3399-5.4688 1.4687-11.385 5.2137-20.14 10.708-25.594 18.031-0.9339 1.5899-0.4247 4.2751-0.875 6.375-0.3543 1.6526-1.6704 3.7516-1.4374 4.875 0.2027 0.9774 3.4191 2.0215 3.9062 2.9374 1.9803 3.7235 0.7046 13.205-0.4375 20.063-0.5471 3.2848-5.4242 4.2992-7.375 6.2812-6.4159 6.5186-4.8035 8.513 2.0313 5.9688 4.774-1.7772 2.7493-5.0719 14.562-2.7813 15.303 2.9673 27.43-1.1885 39.469-7.875 13.369-7.4259 18.208-11.544 18.75-10.656 0.8924 1.4615 0.1884 2.2337-9.3438 10.156-23.893 19.859-41.66 24.471-55.062 17.031-4.0142-2.729-7.2249-3.8416-4.1876 2 0.3896 0.6379 3.6372 3.1633 5.9063 4.1874 13.768 6.2146 31.032 0.9576 53-16.406 4.8228-3.8121 9.0811-8.0839 14.656-12.75 18.228-15.256 13.434-22.239-7.1563-14.812-6.4912 2.3413-8.3191-0.1848-17.094-3.5937-11.787-4.5792-15.656-5.0107-29.219-5.25-11.807-0.2083-13.573 0.8967-13.562-1.0938 0.014-2.5282 7.9501-11.456 16.875-15.344 8.7077-3.7934 11.15-8.5677 7.6563-8.8124zm21.719 37.656c2.1991 2.2231-0.9534 3.6437-9.4687 7.6875-4.8229 2.2902-9.255 4.1695-9.875 4.1563-0.757 1.3731-8.7896-16.739-6.5938-17.625 0.9387-0.3789 20.606 1.2863 25.938 5.7812zm-30.906-1.9061c1.9735 4.1071 3.4786 8.4045 4.2501 12.375 0.1782 1.2193 1.0486 2.9838-0.875 2.9687-1.513 0.2186-4.0081 0.3469-4.9062-1.0625-1.9261-3.0225-4.064-13.315-3.3438-15.312 1.4785-2.0038 4.0806-0.6001 4.8749 1.0314zm70.063 32.562c-0.7132 0.01-2.0511 0.5381-4.1563 1.7813-33.886 20.01-74.527 30.435-100.66 20.562-8.8142-3.3303-10.424-2.1558-7.2187 3.875 2.2244 4.1845 6.6344 9.0919 13.344 10.938 21.349 5.8727 55.732-2.6774 82.188-20.031 10.768-7.0634 19.59-17.147 16.5-17.125zm199.44 53.625s59.887 123.44 71.531 129.25l-487.25-0.875 82.094-117.34c0.725 6.5246 198.02 33.621 333.62-11.031z" transform="matrix(.99986 -.016525 .016525 .99986 -2934.9 -683.43)" fill="#131f67"/>
   <path d="m-1336.7 1087.2 76.752-117.49c116.73 20.196 221.22 6.7781 335.56-15.58l78.502 127.55zm609.79-443.21-1.6444-68.972 24.177 8.5373c-8.8698-31.947 11.635-65.821 30.787-67.469-62.039-45.215-11.956-95.498-13.027-96.538-67.595-33.483-34.844-87.147-39.571-91.833-82.008-19.823-51.194-85.172-57.257-78.378-47.301 15.08-74.139-24.325-75.477-56.705-40.75 23.996-104.86-7.9885-85.552-45.437 0 0 21.961 9.9834 25.776 7.8316 33.181-24.974 31.13 10.117 38.237 17.615 24.989-4.0434 40.093 14.886 46.488 24.097 36.95-0.57372 35.285-9.4102 36.197 26.42 27.954 6.6091 27.094 21.681 43.564 41.98 35.099-0.19436 29.383 11.325 21.761 30.881 25.63 19.722 27.94 35.454 32.413 53.699 27.763 9.5484 32.783 13.537 15.155 37.1 24.958 36.113 13.587 57.453 17.321 59.385 30.729 21.409 15.684 29.592 2.5607 38.225 5.0881 29.039 8.8466 33.257-1.3706 63.076 35.317 24.196-4.9468 36.039-7.0148 35.558l0.30687 24.546zm-848.29-165.88l-2.118-85.461 299.08 186.33-36.421 59.31zm395.2 119.3 67.52-147.61-27.772-159.32 200.55 1.0682c23.382 50.863 37.695 94.202 96.848 178.05l-60.701 20.023 3.8189 102.63zm170.81-41.35c-2.1143-4.2028-3.3-7.077-2.9502-8.9749 0.7101-2.4502 2.5732-2.3696 4.986-1.0976 8.5899 3.9968 17.168 7.4228 23.317-0.51214 3.0767-4.1481 2.1599-9.9739-0.56574-13.302-4.9703-9.7066-19.972-2.3733-25.05-1.9391-4.7203 0.18314-6.6057-3.7574-2.8184-9.4739 2.2731-2.5007 3.676-5.2381 4.0034-8.4437 2.2828-22.429-35.739-13.836-22.144 7.6519 6.1505 7.9439 2.7212 12.834-6.2036 7.8964-9.8192-5.433-23.261 0.007-22.618 11.766 0.4866 8.9076 11.774 14.232 21.106 8.6981 2.1547-1.2777 3.8265-2.6519 5.3578-3.3484 4.344-1.9758 7.5169-0.45877 6.1436 4.4964-3.814 6.2253-8.2675 15.156-4.3208 20.91 3.9885 8.4302 17.248 7.419 21.712 2.0606 3.0735-3.6896 3.8566-9.6191 0.045-16.388zm455.09-456.55-299.68-187.27l9.9825-16.416c13.155-7.6259 18.47-16.94 17.806-29.782l7.7607-17.881 262.97 162.67zm-464.65-57.299 32.932 154.64-206.95 6.3678c-12.233-51.903-85.277-168.63-85.054-166.57l52.951-136.56 274.68-4.8663zm-78.632-56.482c5.163-4.8898 4.6889-12.218-1.2288-20.374-5.7324-7.9008-3.3316-13.707 5.7292-8.4428 5.0285 3.2526 12.928 3.8175 18.233 2.0326 6.7264-2.4169 9.4466-7.8678 8.3343-14.67-1.3456-8.2292-10.53-10.342-20.242-6.5791-2.8113 0.64159-4.4957 2.9765-6.9129 4.1151-5.2268 2.406-7.4297-3.8954-2.7458-12.183 5.1927-9.1881-0.514-18.857-10.351-19.554-10.514-0.74543-16.568 11.299-12.18 17.778 6.299 9.3016 1.9569 15.923-6.962 9.78-12.835-8.84-29.202 2.9052-22.12 16.251 3.436 6.4751 14.36 8.0061 24.052 3.7084 8.1031-3.593 10.595 0.34628 5.7873 8.7882-9.8795 17.348 7.0632 32.176 20.606 19.35zm-302.85-147.37-0.8236 82.71c-31.276-18.428-26.68-18.74-27.817-18.436 9.521 24.699-0.607 55.584-26.625 71.106 48.071 43.627 23.013 75.266 15.589 96.48 61.053 34.116 31.374 95.288 31.566 92.143 59.631-0.64884 59.288 51.505 61.366 73.231 73.651-5.8478 64.74 53.222 74.546 58.129 35.473-16.587 77.307-11.791 89.171 36.063 7.6177 27.135-19.099 1.3053-30.529 2.6425-40.33 26.051-33.13-12.808-35.513-18.162-33.697 3.7602-38.504-12.258-53.478-23.428-36.336 7.6174-33.533-4.4226-31.751-26.6-28.694-5.32-35.204-23.066-46.891-40.343-39.461 1.925-23.818-26.227-23.758-31.712-4.8646-4.2101-27.906-26.146-29.443-51.669-40.72-10.785-15.61-31.655-14.262-38.695-15.646-18.852-19.909-32.877-15.174-57.028-36.261-16.233-6.4684-32.453-4.0783-42.059-12.25-31.163-3.8579-40.69 0.4924-57.731-23.605-26.764-9.7423-25.487 6.9294-42.236 2.096-3.0053-4.0485-16.541-3.8527-24.57zm202.84-309.84-66.808-115.08 463.48-7.6599s-49.285 70.732-68.262 106.22c-115.89-16.334-223.91-5.8875-328.41 16.52z" fill="#d40000"/>
   <path d="m-1496.5 1014.4c-40.802-8.563-48.552-59.547-11.09-102.67 3.0287-3.4865 5.0428-8.8398 5.0428-8.8398s-6.9784-11.06-25.194-35.424c-3.3897-4.5339-8.3354-11.805-8.3354-11.805 9.5149-14.231 19.564-26.05 30.227-41.485 1.4308-2.0842 4.1031-4.4347 3.6921-6.3268-0.5851-2.6929-4.5911-5.3246-9.4427-12.224-28.195-40.093-31.496-56.117-17.924-80.462 12.76-22.888 44.095-26.024 63.522-6.3579 20.995 21.254 20.364 40.892-5.786 81.276-5.7398 8.8643-9.8563 16.847-9.8563 16.847s-0.198 2.7842 9.7131 15.156c13.75 17.163 23.879 31.917 23.879 31.917s-5.9995 7.9194-11.685 14.828c-15.237 18.514-22.02 31.216-22.02 31.216s1.1172 3.6242 3.4823 6.2163c43.393 47.558 40.952 103.04-7.1376 108.55-2.472 0.2832-8.4971 0.014-11.086-0.4128zm332.43-621.57c-1.1471-1.8108-149.24 246.96-149.24 246.96l17.554 10.854 141.8-230.04c2.2247 1.6297 4.4057 3.5826 4.0059 6.3571 0 0-116.67 197.36-136.12 228.92-0.5228 0.84806 30.037 18.275 31.052 18.309 44.222-22.71 230.51-6.7592 353.86-16.365 0.49319 0.37068-1.1796 43.411-1.1796 43.411s-28.695-32.104-34.388-32.208c-28.089-0.51566-57.42 11.931-78.592 10.937-13.439 4.3571-28.045 53.84-30.873 66.233-24.623-2.448-47.936 23.656-41.861 47.512 8.4739 26.475 22.244 24.242 37.185 24.432-0.8886 30.146-52.762 110.42-52.338 149.54 56.168-5.3757 117.01-7.4072 174.73-25.861 0 0 20.755-63.027 47.568-104.79 8.8072-15.949 12.767-39.744 8.8402-54.631-2.6001-16.334 4.3885-20.587 10.5-32.152 3.7181-7.2266 17.9-7.1647 19.701-7.7189 36.725-11.298 22.752-58.8 6.9122-67.026-19.763-10.264-47.18 6.5992-58.177-14.695-11.637-22.534-8.7669-69.582-8.7669-69.582l-278.58 5.9351s76.248-150.89 74.23-151.95c-21.72-11.461-57.556-51.952-57.824-52.376zm-184.09 139.24c1.0515-15.15-0.5913-261.02-234.9-379.39l0.7015-32.337c1.3989-1.6877 212.87 91.242 253.01 341.05l63.084-102.57 23.979 8.9561c-34.323 53.482-102.22 183.03-105.87 164.29zm-142.52-86.225c9.1009-28.542-6.3474-13.226-20.678-14.151-9.8706-5.1615-19.588-11.878-28.772-17.707 67.286-37.091 26.891-34.684-12.24-8.7731-10.345-5.3926-23.512-17.355-24.312-16.311 75.785-50.545 47.036-51.061-1.3942-14.577 1.1355-33.486 0.1506-20.909 0.6216-32.167 41.05-45.466 2.529-20.495-0.3291-19.912-11.024-44.504 38.332-35.965 43.401-2.2648 8.7649 6.2958 25.92 13.985 31.393 41.609 23.878 14.656 21.604 27.16 20.806 45.203 9.3921 8.9775 33.564 27.852 6.0361 46.108zm-91.479-202.39 1.162-24.739c3.0392-10.128 184.29 114.72 174.09 279.17 2.0944-1.1875-20.015-11.14-26.402-16.676-1.9018-120.86-146.18-243.8-148.85-237.75zm1029.8 121.66c-120.44-52.809-236.11-182.22-244.89-352.87l-65.643 114.2-24.133-9.7518c2.2688 1.8152 51.855-93.982 103.44-160.48 18.417 215.2 104.56 313.98 233.75 384.64zm-627.28-68.433c-116.06-12.462-286.13-167.39-239.61-381.98 6.7385-21.826 120.43 96.596 120.43 96.59 0.6136-5.4652 103.05 153.64 100.77 185.09 84.613 22.602 248.62-2.8662 248.62-2.8662 137.19 28.27 282.54 173.37 234.41 383.8 0 0-36.724-23.259-67.552-50.52-93.719-87.648-124.2-160.44-158.22-240.73-118.28-8.7442-228.66 14.275-238.85 10.609zm624.15-188.39c2.1942 10.614 1.2505 32.691 1.647 32.64-30.228 34.031-33.411 34.693 4.996 23.283-4.2507 32.223-27.924 37.895-42.223 27.188-5.2697-3.9454-5.6845-26.097-5.6845-26.097-23.5-5.4766-31.65-12.384-28.748-37.612-27.008-2.7724-26.163-15.913-24.401-43.342-24.769-13.401-19.019-35.479-4.6551-45.103l12.278 8.1627c-3.8353 3.5474-1.5791 25.339 19.666 8.7478 0 0 17.438 14.001 25.798 19.406-61.576 41.05-23.994 31.628 13.908 4.7063 7.2747 4.7876 17.228 12.65 22.4 16.029-49.907 37.054-65.979 67.612 5.0196 11.992zm5.2707 136.03-1.5805 28.885c-124.05-73.19-158.95-171.79-169.83-277.25 0 0 16.694 11.874 24.321 16.791 13.217 136.06 139.49 225.98 147.16 231.54zm-679.13-346.37 294.71-2.987-75.683 150.77 42.058 48.056s99.731-161.24 149.82-245.66l-17.982-10.352-143.1 233.34-5.943-6.3768 141.03-233.12c-8.7781-5.5485-25.369-14.402-25.369-14.402s-250.89 8.178-359.97 9.5398c3.2891-15.118 3.6101-41.816 3.6101-41.816 16.464 22.833 34.045 43.174 71.173 19.856 0 0 44.384 0.76522 45.98-1.374 5.2775-8.8697 14.443-36.634 25.14-67.996 42.744-3.5694 38.139-24.192 42.893-31.056-4.2814-60.765-37.846-27.452-35.276-49.609 8.9879-39.558 56.787-129.56 50.435-137.28-12.856-8.2282-138.48 18.678-175.09 23.802-3.4181-1.2512-20.351 57.585-38.827 82.925-20.098 27.565-26.94 56.884-15.994 84.247-10.375 30.453-31.256 27.694-47.853 36.543-18.639 20.878-12.888 52.277 5.4053 64.157 12.74 8.2735 32.071 7.5118 51.515-8.8208zm582.09-221.11-35.245-45.743 32.619-49.263c-13.537-20.703-35.823-52.358-32.341-77.799 7.6837-50.459 75.674-44.199 82.377 3.8389 3.5817 22.287-12.246 49.955-28.397 73.545 11.241 19.722 15.994 22.891 32.241 45.442-9.1575 16.802-31.576 49.758-31.576 49.758 14.714 23.854 35.071 50.075 34.034 74.605-1.1661 21.068-23.743 42.773-45.22 38.644-66.779-12.837-30.787-84.625-8.4933-113.03z" fill="#e2cf00"/>
   <path d="m1241.5 17.375v22.25h22s0.5218 21.452 0.7188 67c0.191 44.204 1.0959 66.137-1.75 78.719-7.7399 29.032-50.552 29.171-59.063 8.3125-4.9558-12.147-3.6136-21.574-3.875-33.781h-23.656s0.1214 6.1458 0.1562 13.656c0.1299 32.663 11.148 48.238 36.906 54.406 26.487 7.0182 57.418-3.6764 68.438-25.906 6.5711-12.665 5.8129-13.502 5.9688-90.062 0.1038-51.1 0.9062-72.344 0.9062-72.344h20.25v-22.25zm416.31 101.78c18.3 34.33 70.2 126.96 70.2 126.96 123.44-25.602 227.25-32.118 336.34-8.2188l77.937-118.19zm16.094 6.9688h22.313l43.781 90.094 75.531-15.094-12.875-74.812 21.375 0.125 10.813 71.938 110.97-2.8125 14.375-69.438 20.469 0.25-14.687 70.562 87.875 11.844 43-82.656h29.531l-65.4 102.07c-116.3-22.667-231.83-15.052-328.53 8.75zm42.094 0h65.156l15.625 60.812c-7.9997 4.1776-37.878 11.319-47.875 10.312-11.939-20.911-24.272-51.151-32.906-71.125zm125.66 0h99.156l-8.4687 51.781-83.156 2.6562zm157.19 0h76.406l-30.156 62.875-57.625-7.8438zm-488.47 15.75c-15.333 32.992-36.928 65.179-55.031 88.969-53.655 70.142-65.18 90.107-75.781 131.41-16.598 64.646 40.619 116.88 90.25 81.75 11.691-8.275 24.636-31.089 24.688-40.938 0.038-7.0846 4.8835-10.909 8.8125-6.9375 0.7909 0.80007 0.9911 3.9713 0.75 8.5-2.7491 29.293-14.5 76.924-37.25 106.81h90.906c-27.514-36.487-36.718-73.259-36.219-107.84 0.072-14.863 8.8665-13.401 10.844 1.8125 9.6974 74.612 105.92 60.603 110.41-14.031 2.6423-39.025-21.993-80.606-54.094-126.69-26.19-37.596-58.046-78.192-78.281-122.81zm779.38 47.188c-4.468-0.0242-8.5894 0.36343-12.375 1.1562-19.82 4.1513-30.206 19.382-30.375 44.25-0.075 11.397 8.3229 31.546 21.094 50.594 6.2276 9.2888 10.375 17.844 10.375 17.844l-33.25 48.875 35.375 46.219s-5.5095 6.4633-8.7813 11.094c-16.224 22.949-23.726 44.402-22.688 62 1.1215 19.007 12.204 33.513 32.969 40.469 11.395 3.8175 27.64-0.85015 38.562-10.75 8.8136-7.9886 13.25-18.371 13.438-30.562 0.2676-17.416-8.1425-38.514-24.906-61.531-4.5513-6.2485-6.7813-11.156-6.7813-11.156s23.461-33.407 32.313-48.688l-32.063-46.062c25.495-38.309 30.633-46.799 31.344-70.344-1.1546-23.332-18.082-43.264-44.25-43.406zm-3.1875 2.8125c1.1005-0.0183 2.2118 0.009 3.3125 0.0937 29.114 2.2433 44.488 23.882 40.625 51.656-3.9529 26.487-27.827 51.167-31.656 59.688 11.482 18.66 33.125 45.188 33.125 45.188-9.185 16.698-32.906 49.062-32.906 49.062s1.3676 2.6768 2.875 4.8125c24.768 35.096 31.579 51.683 29.875 72.719-1.3456 16.594-14.442 31.399-30.781 34.406-25.88 4.7628-47.112-13.604-49.719-38.406-1.5929-21.71 12.402-42.815 23.281-59.281 4.6091-6.8985 8.5624-13.5 8.5624-13.5l-35.25-46.281s2.5256-3.9778 4.1563-6.3438c6.1979-8.995 14.214-20.133 18.312-25.469 7.4143-9.6501 11.812-16.312 11.812-16.312s-5.2525-8.4564-10.125-16.156c-19.331-30.537-24.724-46.188-21.75-63.062 3.6562-20.758 19.742-32.538 36.25-32.812zm2.625 15.656c-10.758 0.2858-21.033 8.2194-25.125 19.688-5.911 21.508 16.723 54.07 27.031 62.812 19.305-22.197 31.6-47.099 24.469-64.531-4.6929-10.542-15.619-18.255-26.375-17.969zm2.6563 6.9688c19.496 0.40273 26.791 23.548 11.75 49.875-5.1942 8.9856-12.844 18.375-12.844 18.375s-7.1442-8.9019-11.438-15.625c-17.425-27.275-12.932-48.571 8.4687-52.375 1.4053-0.181 2.7628-0.27685 4.0626-0.25zm-387.97 12.031c-51.032 0.27005-119.22 8.7701-179.16 22.375-5.2029 32.148-21.34 64.392-38.938 90-16.95 27.687-23.073 51.796-17.406 68.312 5.3069 15.464-9.1791 38.549-25.094 40-19.778 1.8034-32.368 15.576-32.125 35.188-0.5623 31.422 21.122 50.685 50.563 40 2.9582-0.37036 4.9374 1.5625 4.9374 1.5625l-1.7187 179.84c-16.568 2.6016-27.631 6.2069-41.719 13.688l-5.9376-6.375c-3.2651-3.5054-7.392-7.9947-9.1874-10-1.7956-2.0053-5.0495-4.8016-7.2188-6.1875-2.1675-1.3859-5.1105-4.3779-6.5312-6.6562-3.4709-5.5649-18.208-19.725-26.25-25.219-1.37-0.93575-4.8428-3.882-7.7188-6.5312l-5.25-4.8125v-59.74c0.017-32.843-0.3188-60.066-0.75-60.5-0.4311-0.43431-7.1589 2.4344-14.969 6.375-26.825 11.74-52.456 27.933-72.125 41.062-8.7129 5.8342-9.5849 9.0785-6.3125 23.844 1.8371 8.2847 1.3837 9.1738-5.4375 10.844-14.047 3.4382-18.442 25.816-6.5625 33.406 5.5722 3.5599 5.5955 3.7472 2 11.844-5.5597 12.523-5.3488 36.476 0.4062 46.469 3.2855 5.7049 3.064 7.5474-1.2812 10.375-14.963 9.7383-13.947 30.576 1.6875 34.469 3.9976 0.9959 5.042 2.7086 3.7187 6.125-4.8874 12.618-0.4349 31.792 10.781 46.312 5.8285 7.5481 5.8129 7.4645 1.9687 10.938-12.593 11.377-5.7694 31.764 11.375 34 5.883 0.7672 5.9116 0.78015 6.5938 5.2812 1.9661 12.938 2.8588 16.548 5.7188 22.625 3.6059 7.6607 7.9401 12.836 16.062 19.156 6.6243 5.1548 6.6303 5.2284 3.0938 12.844-6.5375 14.08 3.8579 28.043 20.438 27.469 8.4505-0.2927 8.4553-0.3158 9.0625 2.6875 2.9802 14.698 20.445 31.94 34.781 34.312 7.3704 1.2196 8.5317 2.9718 6.0313 9.2188-4.0267 10.055-1.4193 16.536 8.75 21.75 6.8178 3.4979 8.8098 3.6257 16.281 1.0626 8.448-2.9004 8.538-2.8569 15.719 6.75 10.121 13.542 16.832 16.943 33.719 17.062 11.136 0.08 11.554 0.3674 11.625 8.2188 0.1696 18.589 19.831 26.339 32.5 12.812 4.5681-4.877 4.557-4.8557 8.625-1.875 17.821 13.057 33.627 16.432 32.156 4.2187-3.4431-28.59-24.125-46.031-24.125-46.031l25.844 6.75c1.1347 30.186 2.211 66.584 8.5 91.75l-115.19 183.47s-6.9856-4.2696-14.344-9.3438c-10.829-7.469-24.088-16.254-32.219-21.344-4.162-2.6078-9.474-5.7878-13.656-9.3124-4.01-3.3412 2.4765-7.7498 3.8438-11.281 26.524-47.357 68.034-104.29 98.25-159.62l-29.25-11.312c-22.376 35.231-38.856 63.582-59.688 96.062-20.748-152.22-126.98-285.85-255.5-342.12l0.4376 39.844c134.92 69.019 231.22 211.46 228.66 379.47-0.5278 0.6318-11.296-5.8151-25.844-15.5-7.6722-5.1077-23.112-15.203-25.031-16.188 6.2421-186.06-178.28-296.07-178.59-290.88 0 0-1.1602 24.043-1.6874 35.188 78.628 52.682 140.4 148.52 146.66 233.81 0.07 0.6977-36.906-23.062-36.906-23.062 22.006-10.955 15.946-39.342 0.094-47.031-4.9597-2.2262-5.2523-3.302-2.7813-10 5.07-13.746-4.2282-34.435-17.031-37.906-5.6125-1.5224-6.5404-2.9943-6.8125-10.875-0.5007-14.412-8.4722-23.836-22.844-27-3.9674-0.8734-4.003-0.9087-4.2188-5.875-1.2109-27.918-28.516-39.29-49-20.406-2.2888 2.1109-4.6875 6.125-4.6875 6.125l-0.1563 30.281c6.9942-3.8489 17.61-17.006 21.969-16.469 4.815 0.5623 2.4805 3.8016-8.3438 13.156-7.0224 6.0691-13.844 12.469-13.844 12.469l0.4375 39.875c11.666-7.5743 23.348-16.137 34.281-23.75 9.4229-6.5719 14.247-8.7101 15.406-6.8126 1.3005 2.1328-0.8021 4.9198-6.1563 8.125-14.363 9.5681-31.076 20.796-43.156 30.25l-0.031 27.469 2.3124 3.4062 0.6876 24.063-2.1563 0.5312 0.031 30.312 283.78 181.28 144.41-227.81 2.375 2.4063-144.44 226.84s5.9401 5.1094 11.562 8.0626c5.733 3.2097 12.899 7.4873 19.031 11.562 2.8902 4.7365 7.9504 8.9085 13.375 8.3126 4.9718-5.427 26.666-11.168 28.751-13.671 80.793-1.1887 312.72 0.3895 312.72 0.3895l1.3126 37.094c-10.423-35.969-44.044-43.389-70.469-27.281l-43.406 0.062c-0.3349 0-25.686 46.198-29.406 70.312-18.242-2.4799-42.52 15.299-43.75 33.344-2.955 25.675 13.914 44.395 35.969 40.75 0.4011 0.1602-3.4612 25.44-15.937 45.187-16.55 34.858-25.084 54.358-35.188 84.094-6.8396 18.687-4.505 22.004-3.3437 22.469 64.755-0.9363 124.33-7.2075 185.78-27.031 0 0-1.137-4.3782-1.6876-6.8437-2.2199-9.9496 6.1437-30.315 29.781-72.375 18.254-32.486 23.483-44.885 25.312-60.219 0.9272-7.7617 0.7574-9.7711-1.9375-24.25-0.1698-1.3472-1.2233-3.2937-0.9375-4.75 1.9139-9.7505 16.752-26.884 17.094-26.469 0 0 5.385-1 7.5312-1.1874 33.479-2.3495 43.851-47.851 15.594-68.375-13.769-8.4365-21.877-9.0742-36.469-5.25l-0.25-176.47 20.35 0.7648 22.369-11.046c35.937 30.69 59.377 62.06 98.062 85.687l-0.625 1.5626-28.75-19.719 0.063 115.62c33.279-17.324 64.303-33.298 94.219-57.531l-6.0313-5.2188 0.25-16.531c28.113 2.2174 30.818-33.572 7.7188-37.844 0 0 0.5319-2.8827 2.75-7.4375 7.088-14.543 7.9712-28.251 2.8125-43.375-3.1496-9.2308-3.0128-11.55 0.7187-11.531 17.075 0.093 15.508-30.211-1.9062-36.844-5.9944-2.2838-5.569-0.3852-4.3438-19.188 0.9203-14.122-2.5226-23.7-12.969-36.094-3.9441-4.6765-3.6081-6.9314 1.4687-10.031 14.576-8.8998 4.0137-34.592-13.906-33.844-6.9999 0.2933-6.9879 0.2847-7.5938-6.7187-1.5925-18.409-11.876-35.964-25.344-43.312-4.1728-2.2765-4.7861-4.1399-2.4375-7.2812 11.471-15.34 0.7456-36.314-15.438-30.188-3.1354 1.1873-6.4487 2.3788-7.3437 2.6562-1.279 0.3963-2.3106-1.3916-4.7813-8.3438-6.7304-18.93-12.704-24.866-34.125-33.875-4.2124-1.7718-4.4621-3.019-2.5625-11.656 3.2823-14.909-17.252-28.787-28.344-19.156-4.5165 3.9226-4.6681 3.8888-9.75-2.625-10.131-11.656-26.614-19.778-41.281-21.312-7.0148-0.6315-8.0732-1.178-7.5-3.875 3.8921-18.267-13.878-30.17-28.656-19.188-7.0962 5.2743-8.9315 5.433-16.219 1.3438-15.315-8.5949-22.029-8.9172-23.625-1.1562-0.4923 6.4643 0.9347 14.115 2.5 18.875 3.7277 12.833 8.5548 17.595 19.125 26.625 0 0-17.54-4.8644-21.969-5.75 0.436-0.4591-1.2752-60.899-12.781-95.125l112.16-178.5 64.25 42.375-102.75 162.53 29.906 12.156s39.938-66.347 60.844-98.875c13.688 161.56 138.58 303.22 251.72 345.25-0.3824 0.1912 0.3632-23.229 0.8438-34.562-119.36-52.556-232.9-199.42-225.75-375.69l47.937 30.688c13.916 141.28 75.455 224.06 178.03 294.06v-43.281c-70.641-52.281-129.34-120.57-144.91-229.84 0 0 23.952 15.132 34.688 22.312 0 0-3.029 1.729-4.5938 3.0312-12.816 10.668-8.9631 32.55 7.9375 44.938 2.744 2.0125 2.7707 2.017 0.1875 8.9062-5.1253 13.672 2.7767 30.196 16.125 33.656 7.658 1.9848 7.6115 1.8906 7.75 10.656 0.2721 17.021 7.1301 24.865 25.312 28.938 2.4851 0.5551 2.5724 0.8127 2.5313 8.4375-0.102 18.814 17.974 31.468 33.719 23.594 4.9291-2.4661 20.438-15.438 20.438-15.438v-30.281s-7.0215 5.7426-12.094 10.469c-8.8815 8.2756-11.682 9.3022-11.656 4.25 0.02-3.6649 4.1067-8.4719 12.625-14.812 4.4187-3.2883 11.125-10.312 11.125-10.312v-35.281s-3.9632-6.2837-3.7188-13.812c0.1331-4.095 1.2813-10.312 1.2813-10.312l4.25 0.0937-0.062-40.844-5.1562-4.0312 0.2187-27.062-280.6-181.79-146.1 232.44-3.7-4.28 146.3-230.97-38.8-24.84-23.5 11.56s-162.41-2.5616-320.81-0.53125c0 0-0.3777-4.3701-0.3125-16.719 0.084-15.521 0.8002-17.697 3.6562-11.156 6.4097 14.679 22.319 23.529 40.781 22.688 10.427-0.47555 11.877-0.90107 23.469-7.1562 4.3089-2.3252 5.0922-2.3952 25.406-2.25 21.779 0.15566 25.694-0.6418 25.719-5.25 7.583-17.248 15.048-37.262 19.375-52.312 2.0845-7.2936 3.013-10.511 4.7188-12 1.3235-1.1543 2.3662-0.89405 5.5312-1.0938 13.936-0.89673 17.811-1.7962 27.844-11.594 20.121-20.217 8.5822-61.342-20.562-61.5-7.7181-0.0419-2.438-20.583 13.875-53.906 16.876-34.477 19.243-39.765 27.969-62.875 5.7038-15.106 8.428-25.936 9.125-32.531-1.6094-0.008-3.26-0.009-4.9062 0zm-1.5312 9.9688c4.0356 3.3866-6.0484 28.286-24.219 65.969-14.998 31.108-21.709 46.665-24.906 57.938-0.922 3.2504-2.2389 7.9357-2.9376 10.406-0.9831 3.4768-2.2743 5.1927-5.7187 7.6562-2.4488 1.7505-5.8608 4.3287-7.5937 5.7188-4.914 3.9412-6.0796 2.6893-4.875-5.25 2.2351-14.733 8.0745-30.626 21.562-58.281 10.689-22.009 21.146-45.598 29.281-69.656 1.8277-5.6181 2.6786-11.325 5.7187-13.406 4.3688-2.4516 8.9952-1.9674 13.688-1.0938zm-21.875 1.4375c2.781 1.9246-10.41 36.025-33.25 83.375-28.499 59.08-30.011 100.47-4.375 110.59 20.211 7.983 40.565-14.287 28.094-30.531-5.9967-7.8101-18.924-8.469-23.406-0.375-2.4455 4.4159 0.9485 9.5066 5.2813 3.3125 6.3034-9.0137 18.927 1.3926 15.875 12.062-2.0913 7.3179-12.338 13.205-18.688 11.938-28-5.5891-22.726-45.077 6.3125-47.25 27.787-2.079 40.424 35.236 20.25 56.594-6.3984 6.9155-13.891 10.361-26.938 10.344-18.089-0.0242-34.993-14.964-33.281-28.812 2.3913-12.677 2.7556-22.92-1.5313-32.906-1.3776-3.2077-3.0605-6.3969-2.9687-10.438 0.2555-11.228 9.5021-28.659 30.125-71.719 7.3894-15.429 16.457-42.175 20.937-59.062 1.5811-4.9389 0.8016-6.3261 2.6578-7.0096 4.6124-1.0154 11.198-2.4024 14.905-0.11545zm-23.844 0.59375c4.2313 0.18298-5.5091 31.25-17.781 57.719-9.3189 20.266-22.036 46.3-31.5 70.375-3.029 5.1048-5.0495 5.5016-11.25 2.1875-6.8317-3.6514-4.8106-9.4606 11.312-41.531 12.157-24.356 23.839-51.91 32.031-79.656 0.7401-3.332 1.8631-6.2148 4.625-7.8125 4.2079-1.8386 8.3094-1.4679 12.562-1.2812zm-22.688 3.5c2.2569 2.9835-12.52 44.866-35.375 92.094-4.8823 10.027-8.1844 19.193-13.094 29.438-2.3591 2.3735-11.449 3.5788-16 4.5-4.6924-0.62544-0.2437-9.4301 13.125-36.469 10.898-22.041 13.994-28.278 19.719-41.688 4.171-9.8183 10.245-26.686 15.938-42.438 0.4577-1.2711 0.8979-4.0977 2.125-4.75 4.2425-1.7911 9.4102-2.5188 13.562-0.6875zm-22.312 2.625c0.3705 1.0076-0.4722 3.0864-0.7812 4.6875-3.5943 16.854-11.811 32.546-17.813 48.656-0.7177 2.1961-7.2973 15.912-14.625 30.469-7.3275 14.557-14.049 28.458-14.937 30.906-0.8889 2.4486-3.3242 8.9496-5.4063 14.438-13.153 28.215 0.9909 50.453 18.41 52.008 27.168 2.2484 29.734-35.84 10.564-39.504-7.2299-1.215-15.177 2.7504-15.222 11.064-0.5075 4.3486 4.8385 9.3922 4.7616 3.1504-0.2852-11.349 15.572-10.827 17.526-1.1871 3.8062 18.786-17.54 27.967-30.258 13.219-5.2386-6.0749-5.1927-13.004-4.2188-19.219 2.6391-16.811 22.014-28.971 39.969-16.281 24.567 17.362 16.088 55.753-15.656 62-10.851 2.8263-24.532-0.78899-33.094-9.5938-5.4523-5.6067-9.0348-13.87-10.406-24.125-0.7644-5.7079-1.0646-12.427-0.1875-18.719 2.5716-19.711 16.95-48.497 29.562-72.875 9.7344-20.227 17.383-46.943 26.25-68.438 2.5019-1.8317 15.939-3.5259 15.562-0.65625zm-23.969 2.6875c1.445 0.44639-5.9758 23.799-16.562 49.031-11.65 25.594-26.77 54.877-35.344 80.062-2.6989 6.1797-4.6657 5.9954-12.344-1.1562-4.0525-3.7748-1.7715-9.4005 12.438-38.406 21.859-44.621 29.971-63.656 33.25-74.281 1.5407-4.9938 2.7792-11.12 6.0624-13.062 4.1992-1.9852 8.3311-3.4446 12.5-2.1875zm-21.844 5.5938c-2.3126 7.5124-9.8878 29.776-22.844 56.156-8.1286 16.652-16.067 35.097-24.094 52.281-4.4799 10.604-4.6095 10.593-12.25 12.188-12.878 2.6877-12.88 2.5448-1.5-20.531 3.382-6.8568 9.8829-19.451 14.469-27.969 8.4512-15.697 21.511-46.261 26.25-61.5 1.2686-4.0805 3.0342-7.9105 5.0937-10 1.3231-0.70439 11.464-3.7321 14.875-0.625zm-28.156 2.8125c2.3021-0.0833 4.3719 0.32948 5.3438 1.5938 0.573 5.2406-13.582 38.752-22.281 54.281-2.6565 4.7615-5.2922 10.933-8.2813 16.438-11.084 17.635-24.408 51.528-27.844 65.594-5.4577 22.346 20.085 39.241 33.331 22.994 8.4069-9.8346-0.3426-27.528-12.456-22.588-4.231 1.7256-2.5033 3.6148 3.2746 4.0997 9.5388 0.80043 10.261 15.507 0.1531 18.738-11.234 3.4396-19.513-6.3057-19.471-16.283 0.086-20.461 22.469-27.979 36.479-16.801 13.977 11.639 16.202 39.305-4.9667 50.028-20.637 10.452-46.051-3.7162-51.156-28.5-3.896-18.915 0.326-36.247 18.531-65.406 10.462-16.785 26.714-45.76 35.031-71.188 1.6306-4.3097 3.0683-7.879 4.5624-9.6875 1.3878-1.6057 5.9134-3.1736 9.75-3.3125zm-497.34 5.125s-8.2315 15.784-19.594 34.719c-13.862 23.417-34.275 46.536-37.281 72.719-0.808 7.4562 0.427 14.939 1.9375 19.531 6.3358 19.266 33.929 22.173 43.562 5.9375 2.8922-4.8773 3.8686-5.7793 6.6875-4.25 1.21 0.65601 1.7183 2.5504 1.6562 5.2188-2.3954 17.287-9.0572 26.789-18.625 39.781h46.031c-9.691-10.669-17.913-25.386-18.906-40.281-0.2977-6.1014 3.4262-6.615 9 0.0625 17.956 24.817 46.183-3.0644 43.875-26.219-2.5684-25.768-29.514-59.095-36.937-72.188-11.225-16.611-21.406-35.031-21.406-35.031zm1050.6 54.406-27.719 35.25c7.9961 11.553 27 34.281 27 34.281l26.2-33.94zm0.25 19.719 11.469 14.875-13.125 15.5-12.312-14.469zm1.0313 76.625s-33.51 36.722-25.813 63.969c6.8788 24.274 43.391 30.174 52.281-5.3438 0.6254-2.8281 0.1321-6.6522-0.25-11.406-0.7615-14.465-26.219-47.219-26.219-47.219zm0 7.25s9.6223 13.953 16.406 26.312c7.5919 11.757 9.585 44.615-17.375 43.594-14.613 1.5068-28.561-17.756-16.938-41.312 3.1633-7.1741 17.906-28.594 17.906-28.594zm-553.12 5.9062c1.8631-0.28978 3.7334 3.7325 4.9062 6.6562 1.5971 3.9754-2.9658 15.427-7.7812 21.125-0.9163 0.9585-7.0724 1.4874-16.219 6.1562-0.025-4.2874 2.5926-13.683 4.3125-17.844 6.2362-6.1644 11.53-13.506 14-15.688 0.2618-0.23274 0.5151-0.36485 0.7813-0.40625zm-66.781 2.0625c4.1164 4.6624 8.1645 8.7079 8 11.594-0.2432 4.2225-5.2106 9.4436-8.9687 13.156-4.7164 4.6592-14.125 1.8881-14.094-4.1562 0.012-2.234 13.447-20.603 15.062-20.594zm141.84 6.0625c3.9805 2.1326 8.0109 9.396 8.5313 12.688-5.8338 31.404-27.416 69.784-26.688 68.344 0 0-13.23 2.3577-18.844-0.5 14.539-20.179 24.27-45.853 30.875-66.875 2.8337-9.0667 4.1241-13.63 6.125-13.656zm-12.25 4.4062c2.2241-0.12831 3.0839 1.6681 1.2188 6.5312-8.5424 34.727-27.749 71.23-42.844 77.875-19.825 8.7275-39.534 1.4809-48-13.438-9.1639-16.148-7.5358-41.638 23-47.219 17.961-1.8419 36.367 12.32 26.781 35.094-10.668 16.894-39.342 7.4778-30.938-14.312 6.3513-7.9849 19.655-1.059 15.312 7.9688-2.2037 4.5797-0.073 7.3943 3.1875 4.2188 10.457-10.18-6.7433-27.649-18.344-18.906-18.92 14.26 4.444 45.605 26.469 32.156 6.7126-4.0985 18.85-27.091 23.406-43.844 1.9612-7.2107 3.7292-14.059 8.375-18.438 4.4199-4.1654 9.5156-7.5225 12.375-7.6875zm-50.156 1.375c1.0801 0.0419 2.3513 0.57923 4.0938 1.4375 2.2074 1.0874 4.7998 3.0702 4.5 5.625-0.3472 2.9573-2.0337 9.3823-5.4376 12.5-2.0503-0.70226-7.7065-2.9622-11.562-4-2.4214-0.6517 0.8016-5.8656 2.2812-8.75 2.3868-4.6474 3.7034-6.5969 5.6562-6.7812 0.1465-0.0138 0.3145-0.0372 0.4688-0.0312zm-62.406 1.1875c2.8499-0.0531 7.3647 3.1062 10.344 3.5312 0.5734 4.3112-4.9129 13.54-13.844 24.438-7.3258 8.9385-7.2891 8.9545-12.156-0.875-3.1706-6.4008-3.2547-6.2245 5.7813-17.469 4.8569-6.0442 7.1993-8.812 9.3124-9.5625 0.1741-0.0339 0.3726-0.059 0.5626-0.0625zm28.344 3.1562c0.1342 2.3046-1.0417 7.3877-2.0313 10.344-10.128 30.255-33.791 60.229-53.312 67.594-25.48 8.3274-48.813-5.0944-49.406-36.031 0.6462-36.453 44.046-46.557 57.156-13.312 5.9193 15.01-10.211 37.576-24.156 33.812-14.072-3.7976-19.947-25.758-8.3437-31.188 7.6036-3.5579 15.47 2.4068 13.812 10.469-0.5748 2.7962-0.4163 3.181 1.2188 2.875 7.2308-1.3519 3.4146-15.877-5.125-19.5-16.135-6.8455-28.326 14.888-17.438 31.094 13.034 19.401 33.536 15.682 45.344-8.25 2.01-4.0737 5.8366-9.9203 8.4688-12.969 7.1509-8.2762 9.4284-11.53 15.75-22.469 3.4832-6.0255 5.3488-9.8356 7.125-11.812 2.8308-0.19214 4.77 0.59282 10.938-0.65625zm57.156 1.5938c3.0573 0.0237 5.412 2.011 5.3437 6.25-0.059 3.5458-5.1319 18.488-7.5 22.062-0.9098 1.3722-3.0293 6.175-3.3437 5.125-2.9787-9.9428-8.3054-13.016-9.0626-15.625-0.8879-3.0594 1.8017-5.9952 3-8.75 2.5475-5.8556 7.6315-9.093 11.563-9.0625zm53.875 4.7188c3.6952-0.0307 8.9223 1.6644 10 4.4062 3.3733 5.9186-19.448 61.021-20.281 61.188l-17.031-0.75c10.228-21.971 19.272-43.745 25.844-64.719 0.449-0.0766 0.9408-0.12062 1.4688-0.125zm228.5 87.219 21.656 12.875-142.75 226.84-20.75-15.875zm-356.16 4.6875c133.33 0.49662 316.97 0.25 316.97 0.25l-7.75 14.719s-200.57-1.9565-309.22-1.75zm-180 9.2812-0.2813 74.562s-1.0013-0.43702-13.719-8.9062c-15.261-10.162-32.014-20.633-37.406-23.375-7.9477-4.0412-6.9084-5.9917 8.375-15.719 15.009-9.0301 43.031-26.562 43.031-26.562zm570.91 7.4062 13.406 8.4688-150 238.75-8.3438-16.375zm-390.88 3.3125h20.875v23.594h-20.875zm47.812 0h25.344v23.594h-25.344zm55.375 0.25h26.063v23.594h-26.063zm54.344 0.0937h26.344v23.594h-26.344zm54.75 0.15625h26v23.594h-26zm54.781 0.5h26.594v16.625l-4.0312 6.9688h-22.563zm143.5 7.67 254.4 164.59-0.1 22.72-264.9-171.16zm-16.688 19.25 2.1875 1.5625-10.781 16.5l-2.2-1.25zm-393 2.4375h285.56l-8.5938 14.469-276.97-0.40625zm-234.4 7.37c1.9234-0.12316 5.6695 1.5714 11.5 4.8438 14.043 7.8791 22.879 24.499 16.812 30.5-5.3968 5.3385-18.036-6.0991-25.875-22.438-4.1-8.66-5.2-12.73-2.4-12.91zm505.28 14.25-92.125 147.25c-20.827-28.542-44.172-53.202-95.156-36.5-26.579-20.552-54.682-23.723-84.594-6.2812l0.3-103.97zm-474.25 0.0625 7.1876 6.2188c-2.1213 4.0552-3.0969 9.9234-4.4688 15.156-0.1083-7.1754-0.7335-14.317-2.7188-21.375zm584.03 1.5312 283.84 186.75v17.312l-293.75-189.25zm-621.69 4.25c3.6725-0.0704 7.2628 1.4984 9.9688 4.75 4.2936 5.1595 2.5246 14.616-3.5 18.656-11.997 8.0445-26.394-7.526-16.875-18.25 2.9829-3.3606 6.7355-5.0859 10.406-5.1562zm47 2.2188 15.5 12.406c-26.905 153.43 49.956 308.33 215.5 354.75l1.875 19.656c0.3122 0.9369-70.331-20.981-101.19-44.062-42.186-28.538-77.828-68.725-102.41-115.47-16.767-30.141-25.966-63.332-31.906-90.156-7.0253-46.02-6.826-91.575 2.625-137.12zm-17.594 20.812c5.941 0.24312 6.5849 4.5244 1.8126 12.75-6.137 10.577-15.336 17.94-30.25 24.219-8.215 3.4587-10.359 1.8879-9.4063-6.875 1.4304-13.176 10.597-22.82 26.469-27.906 3.8101-1.0574 7.6628-2.21 11.375-2.1875zm45.625 1.6562c2.4256 2.0536 3.1863 2.6995 6.1563 5.2188-5.0856 1.7428-8.75 6.5424-8.75 12.219 0 7.1452 5.7925 12.938 12.938 12.938 6.4039 0 11.684-4.6406 12.719-10.75 2.3174 1.9854 4.4908 3.8413 6.1874 5.3125-2.985 7.5268-10.322 12.844-18.906 12.844-11.228 0-20.344-9.1162-20.344-20.344 0-7.4429 4.0286-13.9 10-17.438zm10.344 10.188c0.7055 0 1.3866 0.1245 2.0312 0.3125 1.623 1.3806 2.9303 2.5053 4.5 3.8438 0.4507 0.94439 0.7188 1.9779 0.7188 3.0938 0 4.0029-3.2471 7.25-7.25 7.25-4.0028 0-7.25-3.2471-7.25-7.25s3.2472-7.25 7.25-7.25zm-48.844 4.6875c-1.6845 19.787-1.1558 40.476-0.5312 61.188-3.8197-16.413-12.342-28.694-26.531-37.094 9.7977-6.77 20.048-15.004 27.062-24.094zm74.594 15.531 13.781 11.906c-11.85 162.42 130.49 224.06 134.31 221.34l6 18.375c-98.288-33.451-166.23-135.04-154.09-251.62zm792.84 389.39-0.7188 20.455c-111.53-43.279-238.65-202.95-237.03-355.94-28.636 43.903-44.73 73.203-69.313 112.75l-19.568-9.3161c32.185-47.942 62.775-99.221 95.049-146.32 3.6722-5.319 6.6864-7.7578 6.8523 3.8718-0.022 52.639 16.306 269.2 224.73 374.5zm-906.8-376.72c3.5863-0.2292 8.718 1.5078 15.187 5.8438 10.203 6.8379 21.644 27.973 17.688 32.688-3.5586 4.2409-18.682-0.8047-26.188-8.75-14.875-15.745-15.853-29.196-6.6874-29.781zm86.969 2.125c11.226 0 20.344 9.0849 20.344 20.312 0 11.228-9.1178 20.344-20.344 20.344-11.228 0-20.344-9.1162-20.344-20.344s9.116-20.312 20.344-20.312zm45.531 1.9375 13.281 15.562c2.596 136.32 110.19 178.35 109.19 178.69l3.25 14.656c-5.9978 0.8404-133.12-57.032-125.72-208.91zm-45.531 5.4375c-7.1452 0-12.938 5.7923-12.938 12.938 0 7.1452 5.7923 12.938 12.938 12.938 7.1433 0 12.938-5.7923 12.938-12.938 0-7.1452-5.7942-12.938-12.938-12.938zm0 5.6875c4.0011 0 7.25 3.2471 7.25 7.25s-3.2489 7.25-7.25 7.25c-4.0029 0-7.25-3.2471-7.25-7.25s3.2471-7.25 7.25-7.25zm68.75 12.344c1.6343 0.009 9.3125 11.156 9.3125 11.156s-8.429 2.9562-12.062-0.71875c-3.6102-3.6496-1.664-10.461 2.75-10.438zm589.16 5.0312 19.937 13.625c9.3085 91.967 61.99 175.86 141.44 234.06l-0.5 22.781c-96.767-65.386-150.49-154.22-160.88-270.47zm-747 1.5625c0.3247-0.0196 0.6532-0.005 0.9687 0 12.197 0.20458 17.363 18.942 4.3125 24.312-8.205 3.3769-17.128-1.5-18-9.8438-0.6123-5.8747 3.7544-12.164 9.6875-13.906 1.049-0.30849 2.0566-0.50368 3.0313-0.5625zm166.38 12.281c3.1971 0.01 6.6728 1.8452 9.9687 5.5625 8.7443 9.8626 8.6626 12.726-0.5625 16.469-12.974 5.2636-23.76-2.0498-19.438-13.188 2.2687-5.8498 5.9205-8.8504 10.031-8.8438zm-133 0.47c1.0539-0.022 2.0349 0.11675 2.9375 0.46875 9.5661 3.7294-11.168 41.713-24.875 45.562-8.7083 2.4465-10.532-0.95265-7.6875-14.281 3.1641-14.816 19.439-31.539 29.625-31.75zm61 0.875c11.228 0 20.344 9.0849 20.344 20.312 0 11.228-9.1161 20.344-20.344 20.344-11.226 0-20.344-9.1162-20.344-20.344s9.1178-20.312 20.344-20.312zm0 7.375c-7.1435 0-12.938 5.7923-12.938 12.938 0 7.1452 5.794 12.938 12.938 12.938 7.1451 0 12.938-5.7923 12.938-12.938 0-7.1452-5.7924-12.938-12.938-12.938zm-50.844 1.0938c1.8067 18.811 4.8641 36.214 13.219 59.375-7.8349-12.527-19.008-18.749-29.719-25.844 7.5087-11.177 16.198-22.354 16.5-33.531zm50.844 4.5938c4.0029 0 7.25 3.2471 7.25 7.25s-3.2471 7.25-7.25 7.25c-4.0012 0-7.25-3.2471-7.25-7.25s3.2488-7.25 7.25-7.25zm115.12 2.2188c21.213-0.45599 36.214 17.013 35.281 33.75 0.6207 19.437 1.3208 31.886-0.2812 56.031l-17.219-31.531c-0.2443-8.9365 1.2778-15.702 0.5938-24.594-1.953-23.912-25.388-20.592-26.5-18.219l-7.4062-12.031c5.4384-2.2417 10.636-3.301 15.531-3.4062zm74.719 2.4062c19.876-0.022 31.392 11.173 32 31.094 1.1628 38.14-0.875 125.22-0.875 125.22l-43 0.0312-23.469-58.188s-0.9316-5.5966-0.75-9.6562c1.4939-18.661 0.559-39.43 1.1875-56.281 2.4769-17.866 17.158-32.199 34.906-32.219zm-99.5 6.0312c2.7655-0.035 5.3309 0.80785 7.2812 2.7812 9.9773 10.086 9.9189 16.699-0.1875 21.25-13.368 6.0183-20.315 4.878-24.875-4.0625-4.4723-8.7646 7.9039-19.844 17.781-19.969zm626.88 2.75 10.906 7.0312s-2.2924 3.5868-3.5312 5.7188c-6.1924 10.654 4.3307 16.903 18.906 11.25 2.6311-1.0207 4.875-2.4688 4.875-2.4688l9 6.125s-6.4881 3.5054-13.562 6.9688c-18.19 8.9011-31.266 5.124-35.656-10.281-1.7427-6.115 0-13.772 3.4063-18.25 1.7421-2.2903 5.6563-6.0938 5.6563-6.0938zm-461.25 1.2812c16.643-0.56706 32.838 12.435 36.687 29.906 1.5953 8.1826-0.4687 116.38-0.4687 116.38l-66.031-0.0312 1.1563-113.5c-0.4358-7.1766 0.0001-14.279 3.8437-19.375 7.258-9.0382 16.095-13.078 24.813-13.375zm-68.563 4.9688c-13.338 0.61382-20.911 22.217-7.1874 32.406 5.7316 4.2556 5.8506 5.0559 2.7812 19.438-3.5 16.407 0.1239 38.885 8.3125 51.531 6.2799 10.474 4.9971 5.1198 1.7813-4.2188-4.1327-17.51-2.1075-30.374 8-50.719 9.032-17.138 17.782-43.491-10.938-48.25-0.9356-0.15506-1.8608-0.22842-2.75-0.1875zm548 4.9375 5.9688 4.0312s-0.8937 0.7447-2.1875 2c-2.387 2.3127-7.136 2.6806-8.5937 0.90625-2.4136-2.9407 4.8124-6.9375 4.8124-6.9375zm-475.69 8.375c-14.334-0.48132-23.773 26.106-5.4376 32.531 4.1656 2.69 4.8652 6.2124 2.2813 11.188-3.4733 6.6827-6.9476 22.559-6.4063 29.188 0.7775 9.5157 3.2088 21.938 5.125 26.25 4.812 11.881 3.8482 7.1356 2.5938-6.5938-0.4828-15.341 2.6094-26.405 11.531-41.062 10.599-17.577 25.194-46.163-8.2812-51.375-0.4718-0.0735-0.944-0.10947-1.4062-0.125zm-246.62 0.0937c11.227 0 20.344 9.0849 20.344 20.312 0 11.228-9.1163 20.344-20.344 20.344s-20.344-9.1162-20.344-20.344 9.1162-20.312 20.344-20.312zm94.281 2.0625c3.5091-0.034 6.1492 2.2988 9.3438 7.0625 8.782 13.096 7.773 15.778-9.1563 25.094-17.939 9.8682-29.938-14.95-12.781-26.438 5.1885-3.4723 8.8633-5.3991 11.875-5.6875 0.242-0.023 0.4865-0.0294 0.7188-0.0312zm-186.19 0.96875c18.922 0.1951 48.48 27.207 34.062 31.125-2.0595 0.5605-4.6502 0.942-5.75 0.875-23.77-1.4508-51.006-32.232-28.312-32zm91.906 4.3438c-7.1452 0-12.938 5.7923-12.938 12.938 0 7.1452 5.7924 12.938 12.938 12.938 7.1449 0 12.937-5.7923 12.937-12.938 0-7.1452-5.7925-12.938-12.937-12.938zm749.38 3.8125 9.4374 6.4062s-5.7695 2.6534-12.562 6.2812c-18.455 9.8558-23.813 17.088-17.438 23.531 2.2764 2.3013 4.9692 3.3012 9.8126 1.4688 12.792-4.9675 24.724-13.716 36.656-20.625l7.0938 4.875c-0.1629-0.3258-28.212 19.944-43.531 28.469-24.048 12.347-37.785-12.895-24.406-29.75 10.321-10.263 21.379-13.628 34.938-20.656zm-749.38 1.875c4.0026 0 7.25 3.2471 7.25 7.25s-3.2474 7.25-7.25 7.25c-4.0029 0-7.25-3.2471-7.25-7.25s3.2471-7.25 7.25-7.25zm764.12 6.7812 5.1562 3.4688s-0.5568 0.2609-16.312 9.3125c-17.144 9.849-17.895 10.02-18.844 8.4688-0.8416-0.4673 0.3286-4.4906 5.5937-8.0312 9.2249-6.2037 25.543-13.744 24.406-13.219zm-446.03 0.5c11.678-0.22576 23.578 5.3199 30.375 17.188 3.4635 9.0138 3.7601 17.38 3.7187 26.844l-0.2812 63.531h-66.5s-3.0858-43.304 0-79.344c3.0188-18.106 17.672-27.928 32.688-28.219zm-206.5 9.42c4.2243-0.3093 7.3334 3.8348 11.344 12.812 3.9737 8.8916 0.986 13.919-11.5 19.312-1.5776 0.6821-3.3759 1.1844-4 1.125-12.625-1.2046-17.789-15.758-8.7188-24.594 5.6238-5.4767 9.5896-8.4156 12.875-8.6562zm675.88 6.5 5.7813 3.5938s-2.9617 2.6808-24.438 18.344c-17.343 12.65-19.841 16.088-16.219 23.188 2.9236 5.7295 9.2668 4.9844 18.031-1.75 12.155-9.3407 31.281-25.156 31.281-25.156l0.625 10.812c-12.589 10.115-27.781 27.37-39.875 33.938-23.337 11.496-40.08-20.072-18.75-35.625 18.3-13.4 43.5-27.34 43.5-27.34zm-466.81 0.0312c-17.384-0.1443-23.848 25.657-5.1563 31.125 5.3794 2.8818 4.9312 4.3682 1.3437 17.219-2.1719 7.7804-2.8722 17.372-1.6874 23.469 1.3981 7.7723 3.1223 7.5911 2.4062-0.75 0.025-4.5623 4.7194-16.737 9.4062-24.375 17.335-24.163 12.789-46.456-6.3124-46.688zm-405 0.3125c11.467 0.078 17.886 16.051 7.9374 22.938-7.047 4.8794-21.792-1.0746-21.75-8.7812 0.036-6.569 5.2073-12.824 11.469-13.938 0.8061-0.1434 1.5793-0.22415 2.3438-0.21875zm33 1.3438c3.6111-0.01 5.6856 5.2794 5.6562 15.75-0.04 15.017-5.374 28.102-14.562 35.75-13.303 11.071-16.275-19.105-3.8437-39.062 5.1781-8.313 9.5636-12.432 12.75-12.438zm851 3.9688c3.2758-0.051 2.7646 2.4552-1.0313 5.0938-2.9468 2.0473-7.95 6.1494-23.438 19.219-2.8109 2.3716-6.842 5.4683-8.9375 6.875-5.1587 3.4582-9.5305 2.5581-7.0313-1.4375 2.4609-3.9322 37.491-29.703 40.438-29.75zm-779.31 0.6875c11.228 0 20.344 9.0864 20.344 20.312 0 11.228-9.1162 20.344-20.344 20.344-11.227 0-20.344-9.1162-20.344-20.344 0-11.226 9.1163-20.312 20.344-20.312zm0 7.375c-7.145 0-12.937 5.7938-12.937 12.938 0 7.1452 5.7924 12.938 12.937 12.938 7.1451 0 12.938-5.7923 12.938-12.938 0-7.1437-5.7925-12.938-12.938-12.938zm-243.28 0.375c137.59 69.563 223.36 199.71 244.53 347.97l66.844-106.03 18.062 6.8126-97.406 158.75-4.2187-1.3126c-0.4063-155.09-77.705-301.8-228.12-382.31zm243.28 5.3125c4.0028 0 7.25 3.2486 7.25 7.25 0 4.0029-3.2472 7.25-7.25 7.25-4.0027 0-7.25-3.2471-7.25-7.25 0-4.0014 3.2473-7.25 7.25-7.25zm-56.781 0.8438c6.0153 13.305 13.34 27.264 24.656 43.219-11.475-10.778-24.015-10.312-36.437-11.938zm163.59 2.875c2.136-0.104 4.2667 0.79665 5.9374 3.0938 5.6267 7.7338 6.6659 14.908 2.75 18.781-5.3622 5.3046-13.896 3.2084-17.75-4.3438-4.0092-7.8556 2.654-17.219 9.0626-17.531zm674.75 10.75 0.2187 12.031s-2.5652 3.086-5.2813 5.625c-7.669 7.174-18.157 18.613-18.906 21.531-2.4344 9.4883 6.9461 12.97 16.188 6 3.1886-2.4062 7.7813-6.0625 7.7813-6.0625v14.812c-7.8022 6.6302-15.575 13.148-26.219 11-6.2052-1.8927-11.648-6.771-12.781-13-4.4436-18.662 13.632-29.078 27.656-41.562 4.5235-4.0299 11.344-10.375 11.344-10.375zm-752.91 10.5c0.3452-0.017 0.6804 0 1.0313 0 11.227 0 20.344 9.0849 20.344 20.312 0 11.228-9.1163 20.344-20.344 20.344s-20.344-9.1162-20.344-20.344c0-10.877 8.5702-19.769 19.312-20.312zm408.5 4.5625c11.087-0.044 16.956 14.887 8.0313 23.344-3.5079 3.3245-11.424 5.6848-15.906 2.5625-12.36-8.6101-3.2598-25.339 7.875-25.906zm-22.125 11.844c6.416 6.8044 11.277 26.575 7.5 30.312-8.3631 8.6309-32.659-20.08-31.208-38.841 2.5807-11.253 21.335 6.0117 23.708 8.5285zm-297.3-10.77c4.6449 0.025 5.5191 4.1946 4.4688 6.6562-1 2.3434-4.6375 2.532-7.5313 1.3438-4.9177-2.0181-2.6143-8.0308 3.0625-8zm-88.031 1.75c-7.1452 0-12.938 5.7923-12.938 12.938 0 7.1452 5.7924 12.938 12.938 12.938 7.1449 0 12.937-5.7923 12.937-12.938 0-7.1452-5.7925-12.938-12.937-12.938zm-96.844 5.6875c24.536 0.03 50.418 19.355 27.906 23.188-16.711 2.8453-27.55-0.45845-40.562-12.344-6.6147-6.0396-4.2586-9.2482 7.7812-10.594 1.6091-0.1798 3.241-0.252 4.875-0.25zm96.844 0c4.0026 0 7.25 3.2471 7.25 7.25s-3.2474 7.25-7.25 7.25c-4.0029 0-7.25-3.2471-7.25-7.25s3.2471-7.25 7.25-7.25zm33.969 18.406c0.3453-0.018 0.7129 0 1.0625 0 11.228 0 20.344 9.0862 20.344 20.312 0 11.228-9.1161 20.344-20.344 20.344-11.226 0-20.344-9.1162-20.344-20.344 0-10.876 8.539-19.77 19.281-20.312zm399.78 1.0312c5.8042-0.097 10.899 0.9932 13.844 3.6875 3.6 3.2952-1.8091 9.6206-12.844 15-12.892 6.285-35.379 5.411-35.344-1.375 0.049-9.0255 19.51-17.064 34.344-17.312zm-489.75 5.3438c11.277 0.059 14.328 35.028 4.5312 51.781-5.0813 8.6928-11.925 2.8828-16.812-14.281-4.0094-14.076 3.6827-37.547 12.281-37.5zm91.031 1c-7.1439 0-12.938 5.7936-12.938 12.938 0 7.1452 5.7936 12.938 12.938 12.938 7.1451 0 12.938-5.7923 12.938-12.938 0-7.1439-5.7924-12.938-12.938-12.938zm421.5 2.28c0.9579 0.016 2.1743 0.49395 3.7813 1.2812 12.31 6.0454 21.26 34.261 14.844 46.844-6.7555 13.248-21.945-12.253-21.812-36.625 0.043-7.9706 0.5633-11.18 2.7812-11.469 0.1262-0.015 0.2696-0.0344 0.4062-0.0312zm-544.53 1.8125c0.261-0.011 0.5237-0.01 0.7812 0 11.132 0.2736 19.225 15.662 8.75 23.562-4.5854 3.4585-11.64 4.0038-15.969 1.25-8.5324-5.4256-8.0687-18.634 0.8125-23.25 1.8994-0.987 3.7998-1.4882 5.625-1.5625zm123 1.5938c4.0029 0 7.25 3.2484 7.25 7.25 0 4.0029-3.2471 7.25-7.25 7.25-4.0016 0-7.25-3.2471-7.25-7.25 0-4.0016 3.2484-7.25 7.25-7.25zm-76 2.4375c6.0939 9.0655 30.772 32.996 34.188 35.062-10.904-3.5283-22.126-2.0322-33.344-0.53125 1.2642-8.2837 2.6001-21.875-0.8438-34.531zm396.59 2.0625c167.28 39.156 269.4 216.66 229.03 383.19 0 0-14.085-7.8627-16.312-11.625 5.9167-28.815 9.5619-74.45 2.1563-120.34-12.562-77.844-75.661-192.07-213.91-231.25-1.5284-5.0343-0.9687-19.969-0.9687-19.969zm90.141 1.2197c1.8922 11.387 3.7146 22.862 6.5196 33.108-11.784-8.4657-25.134-15.742-38.8-21.62 9.7603-2.0524 18.674-3.7801 32.28-11.488zm48.234 3.6553c6.6569-0.1721 13.43 4.5742 13.281 12.781-0.063 3.6121-3.9171 10.1-6.9062 11.625-11.118 5.6731-22.527-5.1313-17.625-16.688 2.1987-5.1835 6.6951-7.5998 11.25-7.7188zm-420.28 4.4062c11.226 0 20.344 9.0849 20.344 20.312 0 11.228-9.1173 20.344-20.344 20.344-11.228 0-20.344-9.1162-20.344-20.344s9.116-20.312 20.344-20.312zm0 7.375c-7.1452 0-12.938 5.7923-12.938 12.938 0 7.1452 5.7923 12.938 12.938 12.938 7.1439 0 12.938-5.7923 12.938-12.938 0-7.1452-5.7936-12.938-12.938-12.938zm-346.1 1.94c83.119 49.058 157.68 153.39 163.22 271.38l-20.1-13.2c-8.6671-79.468-49.351-165.94-143.75-236.81 0 0 0.2429-7.631 0.6562-21.406zm460.28 0h107.44v23.156l32.219-16.594v51.219l-32.219-19.5v22.344h-107.44v-23.5l-32.906 15.906 0.375-50.969 32.531 18.281zm-114.12 3.75c4.0016 0 7.25 3.2471 7.25 7.25s-3.2484 7.25-7.25 7.25c-4.003 0-7.25-3.2471-7.25-7.25s3.247-7.25 7.25-7.25zm42.25 4.0625c0.1321-0.01 0.2733 0 0.4063 0l1.2812 7.375c-0.2099-0.01-0.4122-0.0312-0.625-0.0312-7.1449 0-12.938 5.7922-12.938 12.938 0 7.1449 5.7926 12.938 12.938 12.938 1.7271 0 3.369-0.3237 4.875-0.9375l1.25 7.4062c-1.9377 0.6138-3.985 0.9375-6.125 0.9375-11.227 0-20.344-9.1164-20.344-20.344 0-10.877 8.539-19.738 19.281-20.281zm242.6 2.57c0.3555-0.0145 0.7062 0 1.0625 0 11.227 0 20.344 9.0849 20.344 20.312 0 9.6421-6.74 17.69-15.75 19.781l-1.2187-7.3125c5.5025-1.488 9.5625-6.4952 9.5625-12.469 0-7.1452-5.7927-12.938-12.938-12.938-0.2908 0-0.5894 0.0132-0.875 0.0312l-1.25-7.3125c0.3467-0.036 0.707-0.0793 1.0625-0.0937zm142.66 6.875c25.087 0.136 35.5 14.539 14.938 20.656-9.5251 2.8346-21.993 1.3311-34.313-4.125-10.271-4.5468 3.873-16.615 19.375-16.531zm-524.41 1.375c6.0698-0.022 11.944 0.91225 16.281 2.9688 10.485 4.9697 10.247 8.3444-0.9687 14.812-15.638 9.0197-52.47-0.1107-41.344-10.25 5.2299-4.7641 15.917-7.4954 26.031-7.5312zm140.12 2.2188c0.5562 0 1.1049 0.0691 1.625 0.1875l2.25 13.188c-1.1221 0.7128-2.4474 1.125-3.875 1.125-4.0026 0-7.25-3.2474-7.25-7.25 0-4.003 3.2474-7.25 7.25-7.25zm242.75 2.5938c3.973 0.035 7.1875 3.2688 7.1875 7.25 0 3.1572-2.0263 5.8181-4.8437 6.8125zm44.25 5.1875c11.228 0 20.344 9.0849 20.344 20.312 0 11.228-9.1161 20.344-20.344 20.344-11.226 0-20.344-9.1162-20.344-20.344s9.1172-20.312 20.344-20.312zm-396.03 5.125c1.2055-0.067 2.5723 0.4931 4.0312 1.6875 12.19 9.9685 18.266 31.062 13.469 46.75-4.577 14.966-23.582-11.613-23.469-32.812 0.053-9.7772 2.3516-15.425 5.9688-15.625zm526.72 1.7812c1.6798 0.014 3.4613 1.293 5.2187 4.2188 7.5724 12.605 7.2279 38.642-0.625 46.75-4.4554 4.6004-6.1104 3.7311-10.75-5.6562-7.9287-16.046-1.9456-45.376 6.1563-45.313zm-130.7 0.46c-7.1441 0-12.938 5.7923-12.938 12.938 0 7.1452 5.7934 12.938 12.938 12.938 7.1452 0 12.938-5.7923 12.938-12.938 0-7.1452-5.7923-12.938-12.938-12.938zm-379.88 3.4688c15.359 9.6944 31.08 18.541 47.438 25.906-15.306-3.62-26.616 1.5205-38.281 8.4375 2.2378-12.797-2.1231-23.202-9.1562-34.344zm461.56 2.7384c11.45 1.6166 22.784 3.4922 36.063 0.99464-2.4531 11.256-3.3128 22.724-2.2311 34.451-9.8778-12.784-20.894-24.78-33.832-35.446zm-81.686-0.51961c4.0029 0 7.25 3.2471 7.25 7.25s-3.2471 7.25-7.25 7.25c-4.0018 0-7.25-3.2471-7.25-7.25s3.2482-7.25 7.25-7.25zm-419.44 5c2.2624 0.043 4.6632 0.68255 7.1563 1.9062 9.4117 4.6177 9.6891 16.033 0.5312 22-11.513 7.5006-26.525-5.6634-19.344-16.969 2.7579-4.3415 6.4548-6.6748 10.688-6.9062 0.3173-0.018 0.6452-0.0382 0.9687-0.0312zm460.25 8.5c11.227 0 20.344 9.0849 20.344 20.312 0 11.228-9.117 20.344-20.344 20.344-11.228 0-20.344-9.1162-20.344-20.344s9.116-20.312 20.344-20.312zm119 3.4062c1.9584-0.038 4.0016 0.40515 6.0313 1.4688 7.2331 3.7904 8.7499 13.392 3 19-6.3681 6.2107-15.058 5.1402-19.344-2.375-4.8883-8.5754 1.8187-17.932 10.312-18.094zm-196.22 3c100.1 34.1 167.2 145.5 151 252.7l-12.5-11.8c9.5194-60.772-23.858-176.89-135.38-224.56zm77.219 0.96875c-7.1452 0-12.938 5.7923-12.938 12.938 0 7.1452 5.7923 12.938 12.938 12.938 7.1442 0 12.938-5.7923 12.938-12.938 0-7.1452-5.7933-12.938-12.938-12.938zm0 5.6875c4.0019 0 7.25 3.2471 7.25 7.25s-3.2481 7.25-7.25 7.25c-4.0029 0-7.25-3.2471-7.25-7.25s3.2471-7.25 7.25-7.25zm-380.72 1.2812c5.1086 0.45 13.729-0.47055 15.75 4.3438 2.2746 6.0921-10.216 16.621-26.063 18.688-6.4518 0.3837-20.274 2.024-23.187-2.625-2.7319-5.8004 15.92-20.229 33.5-20.406zm-317.88 3.5626c13.535-0.5967 28.792 17.511 15.094 32.281-10.964 11.347-33.406 26.812-33.406 26.812v-9.9375s21.985-16.082 22.344-23.312c0.046-8.4027-6.873-13.143-14.594-8.0937-1.5272 0.997-7.5624 5.9062-7.5624 5.9062l0.5-16.656c4.0914-4.4808 11.315-6.722 17.625-7zm345.78 4.25c10.035 0.3831 33.302 36.253 27.375 43.594-4.6945 5.8162-23.591-7.0775-30.688-20.938-3.8099-7.4391-2.6649-20.699 1.9375-22.438 0.4246-0.1603 0.8832-0.2377 1.375-0.2187zm154.75 4.3437s1.034 83.464-3.6562 91.344c-18.808 34.044-59.411 16.327-62.875-9.1874-2.4953-15.387-1-82-1-82zm5.9375 0h64.875s-0.2903 117.48-2.9063 124.22c-2.1288 5.4854-11.551 14.945-17.469 17.531-19.054 8.3248-39.425-3.4839-44.469-25.781-3.6373-16.078-0.031-115.97-0.031-115.97zm70.312 0h43.062s1.4781 6.2283 3.1875 11.344c2.9855 8.9285 13.141 34.53 14.312 36.094 5.2594 7.0214 5.5182 83.817 0.3125 92.562-18.994 28.479-50.603 20.192-62.156-11.344-2.8959-10.106 1.2812-128.66 1.2812-128.66zm50.219 2.9063c77.232 36.684 136.34 114.47 128.94 214.28l-14.187-14.156c5.1747-68.89-47.266-155-108.47-180.59zm106.34 2.3437c11.227 0 20.344 9.0849 20.344 20.312 0 11.228-9.1169 20.344-20.344 20.344-11.228 0-20.344-9.1162-20.344-20.344s9.116-20.312 20.344-20.312zm76.2 2.1c7.5548 0.1106 16.786 2.7192 23.688 8.4062 8.2491 6.8011 9.3978 12.183 3 14.156-12.363 3.812-27.21 0.122-36.531-9.0625-8.6594-8.5325-1.196-13.662 9.8438-13.5zm-76.188 5.3125c-7.1452 0-12.938 5.7923-12.938 12.938 0 7.1452 5.7923 12.938 12.938 12.938 7.1443 0 12.938-5.7923 12.938-12.938 0-7.1452-5.7932-12.938-12.938-12.938zm-406.9 1.6c10.835 0.059 15.807 15.311 7.5 23.031-3.4061 3.1649-12.705 3.8446-16.75 1.2187-11.127-7.2238-4.608-24.325 9.25-24.25zm143.22 3.875c-3.5851 10.313-9.3527 21.948-14.125 29.906-12.789 21.324-11.127 35.622 2.375 42.844 19.825 10.604 34.227-17.863 14.687-29.031-6.8547-3.9158-6.8537-3.9638-4.375-14.531 3.0929-13.185 3.6342-28.911 1.4376-29.188zm263.7 0.2c4.002 0 7.25 3.2471 7.25 7.25s-3.248 7.25-7.25 7.25c-4.0029 0-7.25-3.2471-7.25-7.25s3.2471-7.25 7.25-7.25zm-194.19 4.1875c-0.9064-0.06-0.2126 5.2443-0.2812 14.656-0.1112 15.194-1.3817 19.816-11.094 40.187-12.401 26.017-10.749 43.797 4.625 49.563 11.941 4.4757 23.551-4.6562 23.625-18.594 0.036-6.6359-2.9253-11.842-7.4688-13.188-4.1126-0.2624-8.6636-2.1834-8.3437-4.1563 2.5184-15.536 15.98-44.799-1.0625-68.469zm256.56 2.0937c10.04 6.3159 20.366 12.307 35.312 13.063-6.3682 15.267-5.7199 26.423-6.7812 38.594-6.391-16.393-16.264-34.529-28.531-51.656zm-766 2.375c0.8064-0.01 1.6119 0.044 2.4063 0.1563 9.5975 1.4926 17.706 13.783 15.125 22.938-2.2532 7.9911-2.9544 9.3398-33.844 29.969-17.141 11.447-18.938 11.937-18.938 11.937l-9.1875-6.1874s7.7777-5.1898 20.094-13.469c23.702-15.933 27.188-19.726 24.75-26.844-2.6503-7.7355-11.515-6.109-25.531 4.6876-20.746 15.977-22.906 17.031-22.906 17.031v-9.5312s9.0948-7.2362 13.031-10.625c9.6187-6.8356 22.904-19.938 35-20.063zm613.78 4.1563c2.3297-0.024 4.121 2.1472 3.3124 4.2187-0.3871 0.9932-1.752 1.6349-3.5624 1.625-3.721-0.018-3.9191-5.3058-0.2188-5.8124 0.1594-0.022 0.3135-0.03 0.4688-0.031zm208.28 11.087c4.3842 15.041-5.0483 40.11-10.824 43.317-6.1514 6.0868-10.001 0.2786-11.333-15.467 0.034-12.774 14.66-52.694 22.156-27.85zm-246.97-8.431c1.8841 21.664 2.5652 39.656-7.5935 57.25-13.173 22.814-9.7548 42.374 4.3437 46.687 14.042 4.2983 26.454-5.7497 23.969-19.406-0.7592-4.1811-6.4998-11.01-10-11.906-4.3187-1.1093-4.832-3.7883-2.375-12.375 4.7639-16.64 3.1628-37.712-4.0312-52.938-0.6619-2.2733-3.3007-7.3936-4.3126-7.3124zm47.25 7.2187c11.844 0.064 17.432 15.464 8.5626 23.594-4.9408 4.5294-8.0831 2.4743-13.25-8.625-4.7938-10.295-3.315-15.012 4.6874-14.969zm110.31 3.1563c11.227 0 20.344 9.0858 20.344 20.312 0 11.228-9.1163 20.344-20.344 20.344s-20.344-9.1162-20.344-20.344c0-11.227 9.1162-20.312 20.344-20.312zm0 7.375c-7.1452 0-12.938 5.7932-12.938 12.937 0 7.1452 5.7924 12.938 12.938 12.938 7.1449 0 12.937-5.7924 12.937-12.938 0-7.1442-5.7925-12.937-12.937-12.937zm0 5.6874c4.0026 0 7.25 3.2481 7.25 7.25 0 4.0029-3.2474 7.25-7.25 7.25-4.0029 0-7.25-3.2471-7.25-7.25 0-4.0019 3.2471-7.25 7.25-7.25zm-87.281 5.3438c1.6602-0.069 3.2777 0.2104 4.7813 0.9375 10.716 5.1818 9.5444 20.018-2.2813 28.875-7.4848 5.6052-10.648 3.6637-17.625-10.812-3.7861-7.8529 6.1506-18.625 15.125-19zm-621.12 1.6875c1.0923 0.029 2.1129 0.2008 3.0937 0.4687 11.048 3.0394 18.044 15.928 15.281 25.719-6.0927 15.098-26.717 20.181-42.375 26.5l-8.125-5.9375s11.479-6.5212 22.625-11.656c10.437-4.8073 12.123-6.7191 11.344-12.781-1.5227-11.841-7.2437-11.414-33.187 2.5625-10.555 5.6864-18.313 10.719-18.313 10.719l-5.75-4.7187c8.5856-5.6545 13.742-8.7809 23.125-15.188 15.666-10.726 24.604-15.34 31.156-15.656 0.3776-0.019 0.7609-0.041 1.125-0.031zm825.17 8.7696c3.7781 11.48-3.9231 21.544-15.528 17.034-6.2986-2.4478-10.765-10.5-6.8555-17.96 5.218-8.1839 19.852-6.7681 22.384 0.9259zm-232.85-3.9883 18.281 32.844s0.2399 9.1385 0.4063 14.219c0.6986 21.324 5.2622 28.38 17.75 26.313 0.8929-0.1478 5.3437-1.4376 5.3437-1.4376l7.9376 13.375s-8.5832 3.7509-10.813 4.2188c-14.705 3.086-35.056-7.957-38.219-22.719-3.0622-14.284-0.6875-66.812-0.6875-66.812zm-598.88 13.5c5.5184 0.4033 3.1735 4.6193 0.625 6-10.738 5.4683-20.884 11.416-32.094 17.875l-7.5-4.6563s5.7871-3.2317 9.7813-5.6875c12.284-7.5522 24.794-13.354 29.188-13.531zm734.69 4.2187c11.227 0 20.344 9.0849 20.344 20.312 0 11.228-9.1167 20.344-20.344 20.344-11.228 0-20.344-9.1162-20.344-20.344s9.116-20.312 20.344-20.312zm-86.062 2.7813c4.6804-0.135 8.5865 1.8764 11.125 6.0937 5.4312 9.017-0.3228 20.033-13.5 25.906-7.3602 3.2795-8.5885 2.6013-16.438-9.0313-5.3068-7.8632-5.2735-9.2734 0.5937-14.281 6.5766-5.6111 12.916-8.5364 18.219-8.6874zm-713.8 1.6 291.3 188.7l-8.3125 14.125-282.47-184.91zm865.69 2.4375c17.702 0.3388 40.811 20.84 32.625 28.938-0.869 0.8596-2.5524 1.508-3.75 1.4375-25.274-1.4915-53.173-30.84-28.875-30.375zm-65.656 0.375c-7.1452 0-12.938 5.7923-12.938 12.938 0 7.1452 5.7923 12.938 12.938 12.938 7.1445 0 12.938-5.7923 12.938-12.938 0-7.1452-5.793-12.938-12.938-12.938zm-389.09 3.5937 7.7187 20.063-145 230.84-14.25-9.1563zm389.09 2.0938c4.0022 0 7.25 3.2471 7.25 7.25s-3.2478 7.25-7.25 7.25c-4.0029 0-7.25-3.2471-7.25-7.25s3.2471-7.25 7.25-7.25zm53.25 2.4062c7.1 13.202 18.926 21.292 32.375 26.969-12.698 10.479-19.09 24.07-18.594 38.281-3.219-21.333-6.007-42.551-13.781-65.25zm-766.53 6.9688c3.1074 0.023 5.9125 0.6716 8.125 2.1875 27.174 18.617 2.2205 37.037-0.094 35.594l-9.25-5.8437c3.1811-5.2734 10.402-12.425-1.2187-19.094-6.5934-2.8747-13.94 0.5795-20.344 5.0312l-9.7188-6.6562s19.035-11.318 32.5-11.219zm640.81 10.531c1.0229-0.032 2.0251 0.03 3 0.2188 15.338 2.9636 14.275 19.24-1.75 26.781-9.1173 4.2916-10.729 3.4189-18.688-10.25-3.7366-6.4157 7.5476-16.425 17.438-16.75zm-645.8 6c1.6326 0.043 3.7208 1.4726 3.9688 2.8125 0.7889 4.272-7.125 8.5625-7.125 8.5625l-9.0938-6.0312c3.8836-2.1423 7.9475-5.0416 12.25-5.3438zm817.16 3.9062c2.2215-0.1721 3.8475 0.875 4.5 3.5313 3.1071 12.644-10.94 36.098-23.906 39.906-7.5702 2.222-9.7611-1.3373-7.2812-11.813 3.4844-14.717 18.754-31.003 26.687-31.625zm-469.94 0.9688 23.594 17.125-141.56 223.75-24.5-14.562zm385.22 1.8125c11.227 0 20.344 9.0849 20.344 20.312 0 11.228-9.1166 20.344-20.344 20.344-11.228 0-20.344-9.1162-20.344-20.344s9.116-20.312 20.344-20.312zm0 7.375c-7.1452 0-12.938 5.7923-12.938 12.938 0 7.1452 5.7923 12.938 12.938 12.938 7.1446 0 12.938-5.7923 12.938-12.938 0-7.1452-5.7929-12.938-12.938-12.938zm0 5.6875c4.0023 0 7.25 3.2471 7.25 7.25s-3.2477 7.25-7.25 7.25c-4.0029 0-7.25-3.2471-7.25-7.25s3.2471-7.25 7.25-7.25zm-325.28 0.75c15.356 17.32 32.62 56.052 92.875 37.781 20.527 16.726 48.876 26.246 83.813 7.6876l0.25 104.38-267.53 0.2812zm-488.62 2.6562 263.47 173.41-8.25 14.562-255.47-163.28zm739.66 0.1563c0.2496 0 0.4676 0.016 0.6563 0.062 13.468 3.2955 14.986 16.757 2.4687 21.906-6.6998 2.7569-8.0724 2.0722-14.469-7.3437-2.5515-3.7559-3.9926-6.87-3.625-7.8125 0.8981-2.3038 11.198-6.8598 14.969-6.8125zm169.06 14.25c4.7098 0.032 9.3956 2.5252 11.594 7.4375 3.2991 7.3727 1.3939 13.561-5.4063 17.656-11.259 6.7811-23.844-5.6703-18-17.812 2.347-4.8813 7.1045-7.3135 11.812-7.2813zm-164.97 14.156c6.2126 0.032 11.427 5.9625 8.4063 9.5624-2.0047 2.389-4.5797 1.7028-7.875-2.0937-3.87-4.4562-4.096-7.4881-0.5313-7.4687zm75.531 2.5937c11.227 0 20.344 9.0849 20.344 20.312 0 11.228-9.1165 20.344-20.344 20.344s-20.344-9.1162-20.344-20.344 9.116-20.312 20.344-20.312zm57.312 1.125c15.333 0.083 36.577 25.696 32.969 39.75-1.1772 4.5848-9.7771 2.1093-20-5.75-13.811-10.618-22.753-34.053-12.969-34zm-57.312 6.25c-7.1452 0-12.938 5.7923-12.938 12.938 0 7.1452 5.7923 12.938 12.938 12.938 7.1447 0 12.938-5.7923 12.938-12.938 0-7.1452-5.7928-12.938-12.938-12.938zm49.281 2.625c4.2345 12.401 8.5698 25.315 27.687 34.281-29.668 13.821-35.326 37.096-30.875 66.937l-6.9374-4.25c6.3566-26.736 11.17-57.189 10.125-96.969zm-49.281 3.0625c4.0024 0 7.25 3.2471 7.25 7.25s-3.2476 7.25-7.25 7.25c-4.0029 0-7.25-3.2471-7.25-7.25s3.2471-7.25 7.25-7.25zm-3.7813 32.656c11.228 0 20.344 9.0849 20.344 20.313 0 7.0965-3.6405 13.359-9.1562 17l-6.5626-4.9063c4.8566-1.8634 8.3126-6.5819 8.3126-12.094 0-7.1453-5.7925-12.938-12.938-12.938-6.8045 0-12.359 5.2651-12.875 11.938l-6.5937-4.9376c2.5476-8.3192 10.312-14.375 19.469-14.375zm92.563 2.5938c9.6791 0.053-5.3701 26.899-19.188 34.219-10.521 5.5715-20.152 6.0072-20.125 0.9062 0.072-13.347 24.53-35.205 39.313-35.125zm-92.563 10.469c4.0028 0 7.25 3.247 7.25 7.25 0 4.0022-3.2472 7.25-7.25 7.25-3.9758-0.434-7.2046-3.5596-7.25-7.25 0-4.003 3.2473-7.25 7.25-7.25zm89.438 24.469c4.7654 0.07 9.4906 2.1318 11.5 6.1563 2.5978 5.2014 1.6059 9.8517-3.1563 14.562-11.699 11.573-27.617-0.3106-19.969-14.906 2.0773-3.9645 6.8594-5.8824 11.625-5.8125zm-37.406 10.906c16.295 0.5073 28.628 20.782 25.688 32.25-2.5847 3.038-20.533-10.576-22.469-11.969-2.2935-4.0622-2.4301-10.634-3.2187-20.281zm-22.219 12.562 51.062 30.688-50.937 32.719zm-454.69 15.188 274.28 1 0.031 11.531-281.81 0.1562 7.5-12.687zm-11.187 18.031h18.437v22.469h-25.312v-12.406zm263.56 0.5312h22.188v22.469h-22.188zm-217.72 0.1563h25.25v22.469h-25.25zm52.531 0.1875h27.281v22.469h-27.281zm55.812 0h26.25v22.469h-26.25zm56.063 0.375h25v22.469h-25zm-228.38 27.688 304.22 0.7187v13.469l-312.91-0.7188zm259.56 28.375c30.973-0.3425 49.021 34.227 24.813 58.5-22.254 22.313-59.377-6.1835-40.844-31.281 10.349-14.012 35.789-2.7206 29.438 12.219-4.1812 9.8321-17.889 5.2478-17.469-5.4062 0.023-4.2803-3.1364-1.3538-3.5 3.1874-0.4615 5.7639 5.4551 12.141 12.344 12.156 17.975 0.041 20.667-23.783 3.3437-32.531-15.476-7.8137-31.771 2.1559-35.531 21.938-0.409 2.1591-2.9587 7.559-4.9062 11.375-5.7229 11.49-7.5715 18.126-10.438 31.25-1.3178 1.6391-5.3323 4.26-8.125 5.6562-8.8289 4.414-8.4621 2.5527-5.1562-11.812 9.5195-41.373 25.078-68.021 44.094-73.438 4.139-1.179 8.1339-1.7704 11.937-1.8125zm91.594 2.1563c19.123-0.4113 33.525 15.345 36.038 27.512 10.988 37.031-38.171 59.711-55.305 26.161-9.5732-19.178 10.256-42.059 28.424-33.142 14.873 7.2998 13.913 29.987-1.2812 29.906-8.2491 0.3881-13.271-7.0247-8.7188-12.969 2.3609-2.3427 5.1902-0.5118 6.375-4.4375 0.4966-1.6452-1.84-2.9555-7.4687-1.8125-9.3263 1.8933-8.3784 20.693 2.4375 24.438 16.112 5.5766 29.888-11.414 22.219-28.219-9.2218-20.203-34.178-20.29-45.594 0.8438-1.6574 3.0716-4.2543 7.4609-5.6875 9.4062-17.028 23.106-18.368 26.565-23.438 39.438-0.5032 1.2827-1.3978 2.2361-2.9375 2.0624-4.6917 0-9.2923 1.0173-12.438 2.25-2.1221-0.5622 0.7012-8.6657 0.9062-9.2812 11.601-35.814 41.393-71.285 66.469-72.156zm-148.19 10.062c-4.0377 7.0344-16.182 29.889-24.594 63.656-2.2175-1.3793-8.1852-3.8672-12.5-5.375-1.634-0.571-0.3054-2.4584-0.4063-5.3125 3.0637-15.232 12.904-41.85 23.75-55.406 2.304-1.6925 17.104-2.2259 13.75 2.4374zm17.344 6.75c-10.388 13.263-21.236 48.503-23.5 66.688-0.342 2.7462-0.8391 5.789-1.125 6.75-1.6186 5.4381-11.798-6.2413-11.75-13.469 0.082-12.277 13.688-49.681 23.406-63.969 3.3866-4.9797 3.792-5.8041 11.032-6.0627 11.63-0.2911 6.5189 4.2128 1.9371 10.063zm-507.97-8.75c-2.5654 0.062-5.1165 0.3971-7.625 1-15.045 3.7301-32.977 19.676-34.719 36.594-0.8253 0.5096-2.8764 12.343-1.5626 18.344 4.9722 22.705 18.22 38.106 34.438 60.625 0 0-20.367 31.575-34.344 46.156l33.062 47.844c-9.1453 18.056-25.042 31.718-29.031 54-6.2364 29.337 9.126 57.927 41.813 60.562 24.39 0.7327 40.378-15.748 43.406-40.719 1.2337-16.597-5.5958-37.415-30.156-70.312-1.2162-1.6291-3.5938-5-3.5938-5s2.7599-3.2372 4.2188-5.4062c8.633-11.685 31.156-40.25 31.156-40.25l-33.7-48.2s1.4595-3.1996 4.0624-6.75c27.469-37.465 32.586-56.512 27.719-75.125-1.9166-7.3357-6.4779-12.977-12.656-19.25-9.9874-10.139-21.417-14.985-32.531-14.719zm-0.7813 4.5938c10.735-0.1558 21.807 4.1434 30.781 13.531 20.639 21.598 18.812 39.866-8 79.813-5.8855 8.7663-11.656 18.406-11.656 18.406l33.844 46.75s-5.4851 8.2062-11.188 14.906c-15.473 18.18-24.125 31.25-24.125 31.25 5.8613 9.001 15.391 18.62 21.375 29.438 7.2279 12.254 11.532 24.471 12.812 35.656 2.6975 23.522-12.593 48.58-38.75 49.188-25.385 0.1766-44.711-20.977-44.156-47.531 0.247-11.84 5.1396-22.778 11.094-33.437 6.085-10.847 20.344-31.938 20.344-31.938l-32.75-47.75 34.688-46.312s-25.228-30.889-32.969-53.156c-6.2896-25.286 5.4965-39.702 7.0625-41.906 7.6872-10.822 19.428-16.73 31.594-16.906zm730.19 2.625c19.481 22.2 30.011 53.958 34.531 81.25 1.8259 11.206 2.1551 30.332 0.5625 32.406-3.065 3.9913-9.9993 1.8378-9.5625-2.9687 3.5117-38.489-37.916-66.056-73.781-49.375-27.662 12.865-42.444 42.772-35.531 79.969 13.036 70.148 71.877 121.55 111.69 191.91 14.095 23.831 17.436 37.246 17.344 36.781 0 0 5.2174-13.923 17.062-33.719 28.378-52.106 66.903-85.716 95.563-137.84 13.451-24.47 22.006-48.671 23.437-70.531 0.2711-50.874-49.392-89.223-88.187-62.5-15.357 9.4364-28.332 27.665-30.375 42.688-0.8728 6.4162-2.0005 8.3281-4.875 8.3125-6.6207-0.036-6.7115-2.5429-1.375-32.719 8.0929-29.976 17.765-58.411 35.344-83.656zm-751.65 64.461c5.0325 13.118 13.227 22.883 22.5 32.204 8.5961-10.048 18.19-23.266 23.453-35.876 25.348-60.731-72.558-65.682-45.953 3.672zm22.129 26.234c-12.423-14.451-21.198-26.466-22.044-45.527-1.3649-37.756 47.986-33.516 45.534 0.2394-2.7476 18.378-12.401 30-23.49 45.287zm611.68-59.35c0.9502 5.3151 6.1315 14.315 5.6875 16.437-2.4009 5.5747-5.9041 8.3515-10.781 17.531-1.0239 1.9567-0.5464 2.3595-3.2812 1.875-2.5706-0.3634-7.0891-1.7778-9.5-2.4687-1.3773-0.3998-2.9636-1.1509-2.3125-2.9063 4.6817-10.764 9.9254-23.597 20.188-30.469zm-81.812 16.25-5.8063 15.056c-0.5514 1.6218-0.6093 1.8868-2.3126 1.5312-3.308-0.4183-6.2068-0.6765-9.5061-0.4311-7.1998-0.8831 6.3606-27.793 8.4001-31.869 2.9455 0.4965 7.3004 11.989 9.2249 15.713zm5.4687 3.4687c0.122-0.016 0.2507-0.01 0.375 0 2.9564 0.382 7.3553 1.9783 10.625 3.4063 1.8014 0.7431 1.8577 0.7929 1.0626 3.0312-1.6648 3.316-3.7089 12.873-5.9063 16.213-0.067 0.4865-10.261-6.057-13.163-7.319-0.1128-1.8167 3.226-14.822 7.0065-15.332zm86.469 1.7813c3.3705 0.1168 7.5329 3.1822 9.8125 4.9374 1.0702 2.1179 0.094 4.2442-3.6563 10.719-3.3181 5.7264-6.7828 11.91-7.625 11.25-2.5198-1.9754-7.1907-4.5362-9.5-7.7188-1.7215-2.3726 1.5536-8.4326 3.7813-11.75 3.5137-5.235 5.2049-7.124 7.1875-7.4374zm-55-0.7629c3.1201 0.6986-1.8245 16.758-2.7502 18.763-2.9482 4.4124-7.5363 10.222-11.188 12.562-1.8643 1.1954-7.5985-2.2322-7.4687-6.25 0.092-2.8529 5.553-17.244 7.3688-21.063 0.2662-0.5592 10.543-3.9511 14.038-4.0125zm-127.22 6.1379c0.6989-0.022 1.3971-0.01 2.0938 0.031 12.251-0.3566 24.847 5.6865 32.781 19.188 3.752 6.3847 3.7995 6.6604 2.9376 12.625-2.0264 14.02-1.3221 23.44 2.375 32.031 4.2107 9.7835 3.5778 13.142-6.7188 34.906-10.334 21.912-22.874 48.601-32.406 73.344-4.2282 10.601-8.106 22.607-10.531 32.437-1.5949 6.1815-9.1387 4.3232-16.656 4.0313-3.8192 0.8355 5.5138-24.883 19.344-55.625 11.071-24.606 26.13-52.324 32.138-79.862 4.8973-22.448 3.3295-31.678 0.6436-41.106-10.366-27.431-46.431-20.708-46.344 4.5624 0.7739 16.369 19.713 25.144 26.656 9.0938 1.157-7.378-2.484-3.084-5.5313 0.5-6.5333 7.6794-17.73-0.8587-15.969-12.188 2.3138-14.88 21.524-19.772 30.812-8 10.173 12.892 7.9405 26.183-6.75 36.156-15.133 11.116-28.914 4.796-36.469-6.75-16.136-25.928 5.9303-54.702 27.594-55.375zm74.844 10.875c15.022 0.3085 31.331 12.899 33.97 22.866 1.4138 6.7631-0.7611 14.726 1.655 21.258 2.0119 5.2366 3.946 8.253 2.5 12.906-12.363 39.784-41.548 82.214-55.969 129.31-1.6639 3.2797-3.186 3.6904-6.9062 4.75-5.7634 1.6421-8.0166 1.4712-8.625-1.5313-0.58-2.8689 1.3518-8.3041 4.7188-18.5 4.0336-12.213 12.953-33.134 18.187-42.969 12.194-22.908 18.988-38.58 27.844-58.156 1.6556-3.6567 2.1211-5.8266 4.7188-11.094 11.161-22.63-1.4472-44.937-24.563-45.062-18.313-0.099-26.502 28.584-10.469 36.969 15.682 8.1997 27.382-13.342 13.438-20.969-3.3651-1.8414-4.2289-0.083-1.5312 3.1562 6.2083 7.4602 0.6372 17.492-8 13.5-13.375-6.1799-6.485-28.972 9.125-27.656 24.099 2.0305 27.234 37.086 2.6562 45.969-33.79 12.211-51.516-42.19-19.719-60.5 5.2751-3.0379 11.149-4.3513 16.969-4.25zm71.188 1.0937c8.8921-0.2229 18.233 2.9442 25.906 10.312 18.898 18.148 13.863 46.151-18.063 100.31-10.456 18.152-20.655 39.949-26.219 55.875-1.3825 3.9699-2.5439 5.9837-5.6875 7.719-5.5366 3.0551-11.812 3.4333-12.625 1.281-2.0762-5.5041 13.743-39.718 41.906-93.469 7.4035-14.324 16.756-30.954 16.281-48-1.8571-13.535-13.113-23.271-28.188-18.844-10.144 2.9798-14.29 17.289-6.8125 24.5 3.121 3.0117 6.9611 4.5913 9.4375 4.3438 4.6733 0.1503 9.9839-4.4698 0.9375-4.9688-9.5652-0.052-12.828-12.074-4.75-17.5 11.611-7.7992 24.938 1.393 24 16.562-1.9405 30.504-46.478 25.952-47.656-5.4687-0.7292-19.441 14.552-32.231 31.531-32.656zm441.53 13.188c11.039 7.8161 18.983 22.08 20.844 35.719 0.5886 4.2178 1.1339 8.5066-0.6875 9.4687-2.2341 1.181-3.8055-0.5556-8.4062-6.625-10.719-14.14-31.924-8.1126-39.031 11.281-6.7693 18.465 0.2342 39.21 28.688 80.469 10.23 15.263 19.224 27.918 27.688 42.875 5.9972-14.884 16.163-30.898 24.844-44.125 32.507-49.227 38.462-74.804 20.781-91.281-11.364-10.347-29.35-10.668-35.438 2.5626-4.1436 5.4433-6.6064 8.0703-8.3438 4.7812-0.7574-1.4341-0.6726-5.7856-0.1874-9 3.0844-15.631 8.1789-25.871 19.437-36.125zm-567.38 35.656c6.7311-0.5167-4.8519 35.749-25.094 76.438-11.044 22.533-19.41 46.747-28 70.312-2.3296 3.1523-16.277 3.73-16.25 0.4688 24.75-79.296 42.232-92.95 50.688-123.16 1.4774-5.2171 2.5488-12.757 2.75-13.406 6.2526-1.7969 11.525-9.2872 15.906-10.656zm-458.12 5.3438-26.219 34.188 25.594 36.312 26.594-34.719zm567.75 10.562c-0.022 4.0963-7.8791 23.808-13.75 35.656-25.682 51.829-32.065 65.807-36.5 79.625-0.8005 2.4923-2.0984 4.1439-3.7188 4.75-3.1963 1.1941-12.1 2.9053-12.844 1.6874 5.4302-30.294 47.001-99.211 55.063-129.41 3.2357-0.1436 11.48 4.7685 11.75 7.6875zm20.562-3.1563c1.7373-0.1268 2.4358 0.5857 1.9376 2.9063-0.8065 3.7553-5.288 12.597-13.094 27.938-21.634 42.52-32.978 67.71-36.594 80.656-0.8467 3.0331-1.3669 5.4143-2.8145 6.186-2.9745 1.5856-13.376 5.7787-13.873 1.2516 3.2505-19.219 15.914-31.726 48.656-111.88 1.5311-2.6332 2.8713-3.9195 4.3125-4.1563 4.026-0.6615 7.5156-2.5764 11.469-2.9063zm-88.752 13.164c-0.8238 4.9459-6.4973 15.315-15.873 34.461-15.598 31.856-25.695 55.593-31.812 76.656-0.9936 3.4207-2.3561 7.0156-3.6876 7.9375-2.5334 1.7542-13.906 1.2188-13.906 1.2188-1.7242-8.7096 11.996-41.189 27.281-75.344 8.3132-18.576 17.951-37.089 24.418-53.754 4.4322 0.6606 12.969 4.9144 13.58 8.8242zm23.147-8.2064c4.6271-0.046 1.0353 7.7315-10.052 29.637-8.991 17.773-23.332 42.701-32.594 71.344-2.4181 6.31-5.2604 14.149-6.3124 17.437-1.3585 4.2482-2.6267 6.3459-4.375 7.2188-3.3406 1.6678-11.423 1.5728-12.844-0.1562-2.2565-2.7513 9.7135-34.99 21.375-59.75 10.294-20.809 17.543-37.515 26.438-56.75 2.434-3.8215 2.5384-4.0851 5.0109-4.5792 5.142-0.4099 10.465-3.851 13.353-4.4012zm-522.27 4.1366 13.5 18.062-15.844 19.719-13.188-19.187zm-2.0312 77.906s-5.7344 6.6053-11.625 17.063c-17.248 28.716-17.72 49.913 2.625 62.5 8.5856 4.3726 19.778 3.4147 26.844-2.75 23.042-20.103 5.9136-47.712-8.9688-66.438-3.9486-5.4981-8.875-10.375-8.875-10.375zm0.8438 7.3438c8.6383 10.193 14.962 17.845 20.719 30.656 6.6218 17.208 2.3765 30.738-10.438 37.094-20.252 10.046-38.673-12.514-29.062-36.594 7.1213-17.845 18.781-31.156 18.781-31.156zm567.09 34c1.898 3.62-192.75 48.645-336.34 10l-87.375 126.44 504.44-0.875zm-7.375 8.9688s46.889 81.161 69.906 120.91h-32.344l-46.094-98.688c-24.658 6.8744-48.967 11.845-73.625 14.969l16.406 83.719h-24.219l-13.688-80c-35.333 2.7258-71.315 3.7631-108.06 2.7188l-15.844 77.281h-25.344l16.25-76.75c-27.893-3.7633-55.659-7.3105-84-11.969l-47.5 88.2h-35.781l74.594-111.34c111.36 22.346 214.05 17.089 329.38-9.5624zm503.88 18.594c-22.036 0.074-45.302 11.912-51.906 37.312-2.3201 8.0682-2.3258 8.087-2.4062 79.969-0.064 59.426-0.5625 73.75-0.5625 73.75h-20.312v23.737h66.125v-23.737h-21.938s-0.308-73.926-0.3125-120.53c-0.9073-12.084 0.1942-22.722 3.4062-30.125 11.695-26.95 52.854-21.049 57.813 1.9375 2.9559 13.704 1.2988 17.293 1.5 29.125h22.906s0.6091-20.801-1.625-32.938c-3.014-27.089-26.378-39.141-50.562-38.469-0.7077-0.022-1.4142-0.034-2.125-0.031zm-521.5 24.969 36.562 77.344h-69.25l-12.75-69zm-296.47 5.625 60.531 7.8438-15.625 63.875h-81.75zm197.62 9.5313 8.3124 62.188h-104.31l11.594-60.969z" transform="matrix(.99986 -.016525 .016525 .99986 -2934.9 -683.43)"/>
  </g>
 </g>
</svg>
