<svg xmlns:rdf="http://www.w3.org/1999/02/22-rdf-syntax-ns#" xmlns="http://www.w3.org/2000/svg" version="1.1" xmlns:cc="http://creativecommons.org/ns#" xmlns:dc="http://purl.org/dc/elements/1.1/" viewBox="0 0 744.09 1052.4">
 <g transform="translate(-1160.8 -219.68)">
  <g transform="translate(-5060 3025)">
   <rect rx="10.63" ry="10.63" height="311.81" width="223.23" stroke="#000" y="-2435" x="6481.2" stroke-width=".99673" fill="#fff"/>
   <g transform="matrix(.30106 0 0 .30106 5727.1 -1950.5)"></g>
  </g>
  <g transform="translate(-.049261 .000015106)">
   <g>
    <path d="m3799.8-1365.6 10.053-3.1289c3.7922 9.9493 11.459 12.884 19.569 12.253 14.556-1.1319 19.386-17.101 20.478-31.221-5.6714 5.8929-14.197 8.8873-21.456 8.5952-23.192-1.2267-29.128-19.446-29.344-38.535-0.6442-16.097 6.137-27.754 17.765-33.094 6.1521-2.7117 20.244-2.7121 26.438 0.4937 14.223 7.3614 19.487 20.091 18.532 50.458 0.015 24.991-5.396 54.099-32.676 54.723-15.77 2.1396-27.743-9.8975-29.359-20.544zm39.484-27.382c4.7326-2.9414 7.4036-5.7004 9.5251-9.8386 1.7414-3.3968 2.3306-5.159 1.8343-12.192-1.2788-18.12-10.959-28.392-24.994-26.351-7.8275 1.1381-12.101 5.442-14.557 13.445-4.5359 14.778 1.214 32.078 11.986 36.062 4.8586 1.7971 12.338 1.2775 16.205-1.1258z" transform="matrix(.30106 0 0 .30106 285.5 1040.4)"/>
    <path d="m4484.2-591.31-10.053 3.1289c-3.7922-9.9493-11.459-12.884-19.569-12.253-14.556 1.1319-19.386 17.101-20.478 31.221 5.6714-5.893 14.197-8.8874 21.456-8.5953 23.192 1.2267 29.128 19.446 29.344 38.535 0.6442 16.097-6.137 27.754-17.765 33.094-6.1521 2.7117-20.244 2.7121-26.438-0.4937-14.223-7.3614-19.487-20.091-18.532-50.458-0.015-24.991 5.396-54.1 32.676-54.723 15.77-2.1396 27.743 9.8975 29.359 20.544zm-39.484 27.382c-4.7326 2.9414-7.4036 5.7004-9.5251 9.8386-1.7414 3.3968-2.3306 5.159-1.8343 12.192 1.2788 18.12 10.959 28.392 24.994 26.351 7.8275-1.1381 12.101-5.442 14.557-13.445 4.5359-14.778-1.214-32.078-11.986-36.062-4.8586-1.7971-12.338-1.2775-16.205 1.1258z" transform="matrix(.30106 0 0 .30106 285.5 1040.4)"/>
    <path d="m1576.3 741.27c2.879-5.7755 4.9759-11.701 5.3481-18.037 0.3416-2.3317-1.0746-2.3708-1.2881-0.7286-4.0764 15.593-25.763 11.37-25.017-3.2965 0.605-11.895 12.42-14.454 18.582-10.564 2.4336 1.4328 2.2961 0.5746 0.9679-0.9118-9.1548-10.211-3.6101-23.362 8.7612-23.602 13.38 0.79343 16.851 14.87 8.6442 23.148-1.0206 0.9946-3.2835 4.1913 0.123 1.9563 8.2868-5.888 19.787 0.4428 19.553 9.5207-0.4327 16.739-20.839 17.987-25.203 4.0058-0.4198-1.5502-1.6291-2.3286-1.295 0.3043 0.6049 4.7666 1.8565 11.953 5.4374 18.206z"/>
    <path d="m1525.5 768.43c2.879-5.7755 4.9759-11.701 5.3481-18.037 0.3416-2.3317-1.0746-2.3708-1.2881-0.7286-4.0764 15.593-25.763 11.37-25.017-3.2965 0.605-11.895 12.42-14.454 18.582-10.564 2.4336 1.4328 2.2961 0.5746 0.9679-0.9118-9.1548-10.211-3.6101-23.362 8.7612-23.602 13.38 0.79343 16.851 14.87 8.6442 23.148-1.0206 0.9946-3.2835 4.1913 0.123 1.9563 8.2868-5.888 19.787 0.4428 19.553 9.5207-0.4327 16.739-20.839 17.987-25.203 4.0058-0.4198-1.5502-1.6291-2.3286-1.295 0.3043 0.6049 4.7666 1.8565 11.953 5.4374 18.206z"/>
    <path d="m1474.8 741.27c2.879-5.7755 4.9759-11.701 5.3481-18.037 0.3416-2.3317-1.0746-2.3708-1.2881-0.7286-4.0764 15.593-25.763 11.37-25.017-3.2965 0.605-11.895 12.42-14.454 18.582-10.564 2.4336 1.4328 2.2961 0.5746 0.9679-0.9118-9.1548-10.211-3.6101-23.362 8.7612-23.602 13.38 0.79343 16.851 14.87 8.6442 23.148-1.0206 0.9946-3.2835 4.1913 0.123 1.9563 8.2868-5.888 19.787 0.4428 19.553 9.5207-0.4327 16.739-20.839 17.987-25.203 4.0058-0.4198-1.5502-1.6291-2.3286-1.295 0.3043 0.6049 4.7666 1.8565 11.953 5.4374 18.206z"/>
    <path d="m1576.3 675.94c2.879-5.7755 4.9759-11.701 5.3481-18.037 0.3416-2.3317-1.0746-2.3708-1.2881-0.7286-4.0764 15.593-25.763 11.37-25.017-3.2965 0.605-11.895 12.42-14.454 18.582-10.564 2.4336 1.4328 2.2961 0.5746 0.9679-0.9118-9.1548-10.211-3.6101-23.362 8.7612-23.602 13.38 0.79343 16.851 14.87 8.6442 23.148-1.0206 0.9946-3.2835 4.1913 0.123 1.9563 8.2868-5.888 19.787 0.4428 19.553 9.5207-0.4327 16.739-20.839 17.987-25.203 4.0058-0.4198-1.5502-1.6291-2.3286-1.295 0.3043 0.6049 4.7666 1.8565 11.953 5.4374 18.206z"/>
    <path d="m1474.8 675.94c2.879-5.7755 4.9759-11.701 5.3481-18.037 0.3416-2.3317-1.0746-2.3708-1.2881-0.7286-4.0764 15.593-25.763 11.37-25.017-3.2965 0.605-11.895 12.42-14.454 18.582-10.564 2.4336 1.4328 2.2961 0.5746 0.9679-0.9118-9.1548-10.211-3.6101-23.362 8.7612-23.602 13.38 0.79343 16.851 14.87 8.6442 23.148-1.0206 0.9946-3.2835 4.1913 0.123 1.9563 8.2868-5.888 19.787 0.4428 19.553 9.5207-0.4327 16.739-20.839 17.987-25.203 4.0058-0.4198-1.5502-1.6291-2.3286-1.295 0.3043 0.6049 4.7666 1.8565 11.953 5.4374 18.206z"/>
    <path d="m1489.5 816.14c-2.879 5.7755-4.9759 11.701-5.3481 18.037-0.3416 2.3317 1.0746 2.3708 1.2881 0.7286 4.0764-15.593 25.763-11.37 25.017 3.2965-0.605 11.895-12.42 14.454-18.582 10.564-2.4336-1.4328-2.2961-0.5746-0.9679 0.9118 9.1548 10.211 3.6101 23.362-8.7612 23.602-13.38-0.7934-16.851-14.87-8.6442-23.148 1.0206-0.9946 3.2835-4.1913-0.123-1.9563-8.2868 5.888-19.787-0.4428-19.553-9.5207 0.4327-16.739 20.839-17.987 25.203-4.0058 0.4198 1.5502 1.6291 2.3286 1.295-0.3043-0.6049-4.7666-1.8565-11.953-5.4374-18.206z"/>
    <path d="m1591 816.14c-2.879 5.7755-4.9759 11.701-5.3481 18.037-0.3416 2.3317 1.0746 2.3708 1.2881 0.7286 4.0764-15.593 25.763-11.37 25.017 3.2965-0.605 11.895-12.42 14.454-18.582 10.564-2.4336-1.4328-2.2961-0.5746-0.9679 0.9118 9.1548 10.211 3.6101 23.362-8.7612 23.602-13.38-0.7934-16.851-14.87-8.6442-23.148 1.0206-0.9946 3.2835-4.1913-0.123-1.9563-8.2868 5.888-19.787-0.4428-19.553-9.5207 0.4327-16.739 20.839-17.987 25.203-4.0058 0.4198 1.5502 1.6291 2.3286 1.295-0.3043-0.6049-4.7666-1.8565-11.953-5.4374-18.206z"/>
    <path d="m1591 751.03c-2.879 5.7755-4.9759 11.701-5.3481 18.037-0.3416 2.3317 1.0746 2.3708 1.2881 0.7286 4.0764-15.593 25.763-11.37 25.017 3.2965-0.605 11.895-12.42 14.454-18.582 10.564-2.4336-1.4328-2.2961-0.5746-0.9679 0.9118 9.1548 10.211 3.6101 23.362-8.7612 23.602-13.38-0.7934-16.851-14.87-8.6442-23.148 1.0206-0.9946 3.2835-4.1913-0.123-1.9563-8.2868 5.888-19.787-0.4428-19.553-9.5207 0.4327-16.739 20.839-17.987 25.203-4.0058 0.4198 1.5502 1.6291 2.3286 1.295-0.3043-0.6049-4.7666-1.8565-11.953-5.4374-18.206z"/>
    <path d="m1489.5 751.03c-2.879 5.7755-4.9759 11.701-5.3481 18.037-0.3416 2.3317 1.0746 2.3708 1.2881 0.7286 4.0764-15.593 25.763-11.37 25.017 3.2965-0.605 11.895-12.42 14.454-18.582 10.564-2.4336-1.4328-2.2961-0.5746-0.9679 0.9118 9.1548 10.211 3.6101 23.362-8.7612 23.602-13.38-0.7934-16.851-14.87-8.6442-23.148 1.0206-0.9946 3.2835-4.1913-0.123-1.9563-8.2868 5.888-19.787-0.4428-19.553-9.5207 0.4327-16.739 20.839-17.987 25.203-4.0058 0.4198 1.5502 1.6291 2.3286 1.295-0.3043-0.6049-4.7666-1.8565-11.953-5.4374-18.206z"/>
    <path d="m1434.4 662.7c1.1921-2.4451 2.3522-4.7208 2.9843-7.4009 0.4192-2.5276-0.4383-1.5885-0.9252 0.0682-0.7212 2.2974-2.7226 3.3438-4.58 3.3689-3.3711 0.0455-5.0527-2.6042-4.9479-5.4539-0.3681-2.9986 2.671-5.1202 4.9617-4.9567 1.7223 0.1229 3.224 1.052 4.1329 1.7751 0.5963 0.3153 1.234 0.45461 0.3449-0.35848-1.6776-1.8329-3.0766-2.9642-3.046-5.7108 0.029-2.5787 2.2335-5.2681 5.1554-5.1838 3.6515 0.10546 5.312 2.8901 5.3033 5.4805-0.01 1.8883-0.9536 3.6263-2.4114 4.7027-0.9442 0.76609-0.6794 1.3398 0.3977 0.61483 1.0349-0.89201 2.2671-1.2826 3.5448-1.31 3.4905-0.0547 4.855 2.9615 4.6551 5.7642-0.1874 2.6257-2.4228 5.3284-5.369 5.0223-2.6307-0.3015-4.013-2.5099-4.8051-4.7769-0.2623-0.69509-0.676-0.88281-0.6645 0.15307 0.6077 5.0574 2.4916 8.2044 2.5053 8.2016z"/>
    <path d="m1631.3 827.38c-1.1921 2.4451-2.3522 4.7208-2.9843 7.4009-0.4192 2.5276 0.4383 1.5885 0.9252-0.0682 0.7212-2.2974 2.7226-3.3438 4.58-3.3689 3.3711-0.0455 5.0527 2.6042 4.9479 5.4539 0.3681 2.9986-2.671 5.1202-4.9617 4.9567-1.7223-0.1229-3.224-1.052-4.1329-1.7751-0.5963-0.3153-1.234-0.45461-0.3449 0.35848 1.6776 1.8329 3.0766 2.9642 3.046 5.7108-0.029 2.5787-2.2335 5.2681-5.1554 5.1838-3.6515-0.10546-5.312-2.8901-5.3033-5.4805 0.01-1.8883 0.9536-3.6263 2.4114-4.7027 0.9442-0.76609 0.6794-1.3398-0.3977-0.61483-1.0349 0.89201-2.2671 1.2826-3.5448 1.31-3.4905 0.0547-4.855-2.9615-4.6551-5.7642 0.1874-2.6257 2.4228-5.3284 5.369-5.0223 2.6307 0.3015 4.013 2.5099 4.8051 4.7769 0.2623 0.69509 0.676 0.88281 0.6645-0.15307-0.6077-5.0574-2.4916-8.2044-2.5053-8.2016z"/>
   </g>
  </g>
 </g>
</svg>
