<svg xmlns:rdf="http://www.w3.org/1999/02/22-rdf-syntax-ns#" xmlns="http://www.w3.org/2000/svg" version="1.1" xmlns:cc="http://creativecommons.org/ns#" xmlns:dc="http://purl.org/dc/elements/1.1/" viewBox="0 0 744.09 1052.4">
 <title>Vectorized Playing Cards 1.0</title>
 <g transform="translate(-735.7 -760.44)">
  <g transform="translate(-1318.2 540.77)">
   <rect rx="10.63" ry="10.63" height="311.81" width="223.23" stroke="#000" y="589.95" x="2314.3" stroke-width=".99673" fill="#fff"/>
  </g>
  <g transform="matrix(.15087 -.0031150 .0031153 .15083 965.02 1197.8)">
   <g transform="translate(346.1 401.33)">
    <path d="m4797.5-237.31-533.75 2.5938 67.781 128.41c138.72-12.477 260.29-1.3815 386.94 2.75zm-364.53 451.47c-0.5561 0.74768-22.206 6.3382-20 11.25 56.524 121 81.769 219.46 105.38 343.81 11.932-9.6831 31.233-9.2933 31.233-9.2933-9.5215-46.18 48.703-51.939 49.083-3.6253 11.177 2.592 22.672 2.6308 32.762 13.919 4.534-135.9 53.307-276.5 116.29-373.93-71.779 28.403-177.09 99.196-177.09 99.196s-87.637-36.191-137.65-81.329zm436.28 14.469c-95.528 90.664-132.91 342.34-126.06 345.81-123.14-4.1075-160.45 131.6-53.719 204.78-4.2182 14.193-14.642 25.742-22.719 38.281 11.008 6.3022 23.027 7.6484 35.031 8.9688 9.1143 10.796 18.073 23.255 27.969 24.281 10.738-6.7635 18.369-16.661 27.312-25.219 11.158-2.8378 22.225-5.9788 32.813-10.812-9.3785-13.081-20.496-26.308-20.781-38.562 92.803-65.404 80.067-154.35-3.5937-199.88 24.923-149.78 61.276-245.46 103.47-313.5zm-657.91 115.72c-12.136 5.9198-18.756 18.414-27.562 28.219-12.09 0.55006-23.733 4.6794-35.25 9.8125 0 0 27.682 38.225 25.969 40.281-89.76 58.768-89.026 144.67-2.8438 201.25 14.6 122.25-89.315 315.72-94.562 310.09l-0.1875 40c72.311-79.977 113.23-225.27 120.41-344.59 147.69-9.8291 152.92-152.47 51.25-206.12-7.8163-7.165 25.563-40.312 25.563-40.312-8.4741-8.3412-22.649-9.2875-35.063-10.312-7.8315-9.3548-14.66-18.682-27.719-28.312zm624.66 98.719c20.886 46.433 97.17-10.144 110.41 14.562 10.744 14.012 34.145 15.448 32.875-8.1562-4.3956-23.377-19.792-28.559-80.875-18.375-23.172 3.8634-32.672 6.1508-32.531-4.4062-16.029-19.343-29.777 6.9682-29.875 16.375zm70.851 67.759c-17.126-0.0156-20.038 66.924-19.789 87.022-49.584 78.276 101.71 69.378 36.284-15.894 2.2795-11.143-8.3407-29.31-8.0483-37.344-5.3616-0.68213-7.7163-30.907-8.4464-33.784zm-872.26 40.241c-26.832 0.67662-56.332 25.304-13.312 60.719 2.8701 0.9846-1.4456 8.452 0.031 19.938 12.126 26.156 8.8464 64.886 17.875 58.938 10.438-6.8768 19.157-35.772 16.906-76.125-0.1476-2.6469-3.6549-5.4504-3-8.3125 24.146-39.823 3.732-55.717-18.5-55.156zm274.56 75c-6.8906 130.74-38.935 259.02-111.54 370.27 62.5-29.121 123.16-66.695 181.85-98.859l137.17 84.876c7.944-3.4465 13.444-5.1426 18.709-10.345-63.21-92.421-82.773-225.44-110.31-345.78-10.48 7.4261-30.188 11.156-30.188 11.156-1.4086 41.739-45.202 55.266-54.147 0.82967zm-331.06 102c-14.631 0.92618-25.634 37.137 15.812 42.5 29.249 4.1354 66.703-10.26 85.281-3.5938 21.601 34.445 40.993-16.259 12.125-24.531-31.011-8.8863-94.17 14.295-101.16-5.4062-3.5911-6.7271-7.9658-9.2281-12.062-8.9688zm248.78 566.31-82.75 146.12 529.06-3.1875l-69.3-139.4c1.1823-1.5461-231.07 27.606-377.16-3.5625z" transform="matrix(.99957 .020643 -.020645 .99979 -3870.1 -482.78)" fill="#e2cf00"/>
    <path d="m4351.6-95.113 8.2961 20.623c113.84-12.087 232.92-24.585 351.5 7.4068 0 0 9.0062-18.826 8.8915-20.198-110.49-29.816-358.59-26.1-368.69-7.832zm110.8 289.54 107.12 71.506s52.314-35.831 74.611-50.989l-13.112-19.872c-47.194 100.13-126.42 19.25-155.87-28.616 0 0-8.4552 18.252-12.741 27.971zm289.94 38.054c7.495-0.0504 11.606 2.8968 15.262 10.578 4.1276 8.6722 5.7819 6.5735 3.2036-4.2047-4.0653-16.995 14.08-27.753 30.859-16.202 12.116 8.3412 11.295 28.085-2.1282 31.551-10.841 2.7986-11.163 5.6265-1.6703 5.3028 17.031-0.58087 21.226 22.185 8.9548 33.111-14.108 12.561-31.725 3.2571-33.113-12.774-0.6775-4.5367-1.6351-4.4874-3.1681-1.9458-4.4037 7.3233-4.9398 16.921-4.2298 25.626l-24.917-15.961c9.0162-4.3002 14.511-6.8975 21.08-13.524 0.8577-0.86426 1.5028-1.4967 1.5005-1.8797 0-0.68348-2.8026 0.1913-7.9343 0.65083-15.214 1.3624-26.761-8.6531-23.437-22.906 2.8275-12.127 9.205-17.34 19.738-17.421zm-116.6 392.91c27.804-30.887 62.06-50.473 109.22-46.98 7.903-131 55.06-246.9 129.39-350.86l-79.401-49.313-32.418 18.918c-78.875 108.48-128.37 246.86-126.8 428.23zm-595.9-315.02s-54.811 39.819-80.287 59.065l-4.0312 361.47 6.9688 2.5c0.4876 0.77823-0.5335-5.3686 2.7187-8.125 2.6587-2.2533 6.8608-4.7933 9.3437-5.6562 7.0073-2.435 7.3839-7.0767 0.9376-11.188-5.0009-3.189-6.8519-8.0339-6.1563-16.031 0.4909-5.6436 0.2693-6.8798-2.0313-10.75-2.8589-4.8098-3.0182-10.844-0.4374-17.062 1.1985-2.8884 1.0988-3.6717-0.9063-7.625-2.5532-5.0338-2.7882-10.421-0.75-16.188 0.7792-2.2048 1.3899-7.0414 1.375-10.781-0.056-14.4 11.971-23.777 33.969-26.469 8.5992-1.0522 8.8673-1.4024 5.0313-8.6562-21.643-40.926 28.614-61.358 32.256-54.804zm683.78 30.096c20.293 0 36.75 16.425 36.75 36.719 0 20.293-16.457 36.75-36.75 36.75s-36.75-16.457-36.75-36.75c-0.0001-20.293 16.457-36.719 36.75-36.719zm0.25 6.5625c-16.249 0-29.406 13.158-29.406 29.406 0 16.249 13.158 29.438 29.406 29.438s29.438-13.189 29.437-29.438c0-16.249-13.189-29.406-29.437-29.406zm0.625 9.3438c11.018 0 19.969 8.9191 19.969 19.938 0 11.018-8.9505 19.969-19.969 19.969s-19.938-8.9504-19.938-19.969c0-11.018 8.9192-19.938 19.938-19.938zm-729.53 4.5c1.4946-0.005 3.0825 0.24543 4.6875 0.78125 9.1132 3.0424 12.195 11.15 7.125 18.719-3.9821 5.9448-3.5426 6.4657 3.3125 4.0312 5.3915-1.9147 8.1137-1.2465 12.281 3 12.496 12.733-6.6821 33.555-18.906 20.594-6.0543-6.4192-6.6664-4.563-2.5625 6.375 1.3284 3.5404 3.5291 9.0446 3.5291 9.0446l-18.191-0.52843s2.9319-7.2117 4.2865-10.61c3.2679-8.1978 3.3896-9.4019-3.25-4.3125-14.973 11.477-31.466-8.7725-17.656-21.656 2.8088-2.6205 7.2582-2.6761 13.406-0.15625 4.4791 1.8358 5.0413 0.6129 1.7188-3.6875-7.2273-9.354-0.2434-21.56 10.219-21.594zm376.6 37.868c-8.1014 48.332-2.6317 116.4-3.3171 152.72 19.671 4.045 19.697 17.485 22.485 34.23 9.6365-3.2034 30.395 11.265 33.283 10.06 2.897-49.114-20.586-192.15-52.451-197.01zm326.6 53.3c27.971 2.6517 22.292 24.2 13.822 32.964-4.0165 4.4999-3.3153 6.5587 1.0625 4 11.931-6.9733 21.242-1.6761 24.875 10.688 6.2071 21.121-21.698 38.834-33.75 19.781-4.0831-6.4553-6.6626-5.046-5.7364 1.66 0.5362 6.4577 6.6441 19.909 6.6441 19.909l-27.442-2.861s8.5973-13.843 10.126-17.581c3.173-7.7582 1.5877-9.8619-4.3733-3.6575-17.411 15.474-40.929-5.003-29.531-25.688 5.6191-10.198 15.754-13.376 26.531-5.0312 7.2707 4.9004 8.8863 2.8454 2.4063-3.0625-12.11-11.041-1.1034-32.682 15.366-31.12zm-703.3 6.96c0.3138-0.0106 0.6188-0.0108 0.9374 0 2.3529 0.0795 4.8104 0.76841 7.25 2.1875 6.7711 3.9385 8.5325 11.538 4.1563 18.062-2.5167 3.7546-1.8356 6.1536 1.0625 3.7188 3.8802-3.2599 12.307-0.93301 15.531 4.2812 8.2807 13.392-8.5269 30.514-18.937 19.312-4.5953-4.9446-6.3782-5.1677-5.8835-1.957 1.4326 6.0331 5.2405 16.347 5.2405 16.347l-19.034 0.0536s4.2648-10.725 5.2566-16.185c0.7633-4.3196-0.973-3.7154-5.5795 1.3352-4.4801 4.9118-8.4966 5.3686-14.063 1.5625-13.734-9.3921-2.2845-32.826 12.063-24.688 4.9422 2.8037 5.6629 1.2349 1.8437-3.9688-6.8205-9.2931 0.4279-19.733 10.156-20.062zm988.06 5.9205c-31.265 31.379-21.331 12.704-7.4019 37.172-0.1805 15.998 8.9737 28.653 1.2088 53.792-2.4445 4.8972-2.6875 7.2424-1.4598 12.223-2.6641 27.856-24.999 27.175-46.784 31.187 3.6044-0.18461 33.593 57.195-23.966 60.816l-2.7068 231.46 91.116-65.153 4.854-361.28zm-678.27 112.37c-25.799 16.101-62.302 56.739-107.33 47.141-7.561 144.32-56.577 255.43-125.57 350.52 23.139 14.138 48.59 31.073 72.305 42.035 20.332-10.116 31.728-14.29 51.77-30.3 83.091-124.36 110.86-261.22 108.83-409.4zm211.83 29.493c3.4851 74.228 14.532 144.63 52.293 201.54l4.8996-157.57c-13.7-3.4916-24.833-12.54-28.479-37.797zm-279.45 39.701 25.771 0.98293s-6.0182 11.569-8.6446 18.046c-3.1908 7.9166-1.7548 9.5597 4.203 4.1118 7.7549-7.0913 19.959-7.5829 26.281-1.0625 16.788 17.314-1.4329 44.868-21.406 32.375-8.5513-5.3488-10.02-3.6181-3.2813 3.875 13.137 12.549-1.0278 30.139-16.59 29.991-11.252-0.2091-18.412-9.311-19.152-19.234-0.3411-6.2408 2.881-12.451 8.3361-15.413 5.6879-3.0884 1.6768-5.2083-4.5-2-20.167 10.475-33.156-17.369-17.828-32.883 8.8386-8.946 18.04-7.967 26.766 0.82097 6.0921 6.136 8.3131 5.6304 6.6729-1.5465-1.6394-8.0752-6.627-18.063-6.627-18.063zm695.55 31.81 18.469 0.28988c-1.883 4.5436-4.297 9.1688-5.8372 13.665-1.6598 4.8974-0.5058 5.5424 4.456 0.85449 12.855-8.3626 26.311 0.38579 23.353 13.885-2.0405 9.3137-9.9292 13.782-18.906 9.5938-7.9152-3.6928-5.3808-2.1225-0.9297 3.3935 5.2949 6.5616 3.8153 14.108-3.3828 19.013-12.734 8.6775-29.162-6.2858-20.637-19.013 5.0272-7.5692 2.7612-6.7733-1.7696-3.1429-6.7913 4.8182-16.847-2.2876-16.906-11.938-0.5739-13.888 13.547-21.494 23.281-11.531 4.6462 4.0283 5.8246 3.5616 3.7838-2.2292-1.8856-4.2124-2.4487-8.7024-4.9748-12.841zm-0.4765 100.94 19.361 0.0606s-0.2921 1.4764-3.355 7.035c-3.5998 6.5331-3.1636 13.351 0.5625 8.7812 6.2876-7.7109 19.371-5.3473 23.531 4.25 4.8465 11.182-5.0924 23.312-15.156 18.5-6.5413-3.128-7.003-2.481-2.7187 3.9062 4.1683 6.2144 2.1705 13.747-4.8126 18.062-13.72 8.4795-29.767-9.0784-18.281-20 3.0749-2.9238 2.1431-4.3822-1.5625-2.4375-15.126 7.9382-25.9-12.501-12.75-24.188 5.5991-4.9761 9.8181-4.5663 18.812 1.8438 2.7994 1.9951 3.3722-0.0106 1.4062-5-3.3497-8.5017-5.0374-10.814-5.0374-10.814zm-718.77 1.7054c21.549 0 39 17.451 39 39s-17.451 39.031-39 39.031-39.031-17.482-39.031-39.031 17.482-39 39.031-39zm0.3437 6.9688c-17.703 0-32.062 14.329-32.062 32.031 0 17.703 14.36 32.062 32.062 32.062 17.703 0 32.063-14.36 32.063-32.062 0-17.703-14.36-32.031-32.063-32.031zm0.1876 12.312c10.898 0 19.719 8.821 19.719 19.719s-8.821 19.75-19.719 19.75-19.75-8.8522-19.75-19.75 8.8522-19.719 19.75-19.719zm-50.411 93.806 22.361 11.336s-10.775 8.5101-15.078 12.913c-5.5007 5.6724-5.1641 8.3711 2.1903 5.7261 14.024-5.0437 27.878 3.0148 27.93 17.495 0.069 19.325-22.919 28.293-33.68 13.505-3.1991-4.3968-7.0684-6.2626-5.5937-2.6875 3.589 8.7009 1.1597 19.556-5.375 23.938-5.2311 3.5074-14.725 4.4222-19.469 1.875-16.315-8.7605-16.894-27.715-1.0626-34.969 7.9588-3.6468 8.2716-7.1684 0.4688-5.3438-16.247 3.7993-25.402-15.93-13.531-29.219 12.6-14.105 32.76-10.857 34.687 10.312 0.3428 3.7662 2.9454 1.083 4.1739-4.6604 1.4377-4.2598 1.9775-20.221 1.9775-20.221zm209.46 34.826s-83.149 45.727-80.666 47.744c0.4825 0.29405 17.91 25.588 17.91 25.588 42.26-92.11 139.13-13.914 154.14 33.645 3.3739 2.1468 3.9633 1.5557 7.6398 3.2685 0.3977-3.3356 7.6711-36.112 7.6711-36.112zm-137.2 338.92c-4.2067 5.1122-18.243 19.575-16.509 20.153 120.82 27.811 245.84 27.555 373.27 15.593l-9.2679-30.701c-126.1 30.19-347.49-5.045-347.49-5.045z" transform="matrix(.99977 .0061224 -.0061273 .99998 -3879.5 -418.48)" fill="#d40000"/>
    <path d="m3951.8-256.57-17.312 1703.9 1063.6 11.687 18.344-1702.2zm323.29 16.838 530.5 5.5377c-25.811 64.232-98.948 165.25-95.559 165.54-110.08-19.836-223.69-30.687-351.29-5.3648zm-311.24-0.36514 297.69 3.9375 95.625 177.41s5.606 11.065 1.995 22.506c-3.9408 12.484-7.2528 18.003-10.728 24.355 0.3919-3.6465-28.186-7.6839-26.146 16.862 1.3807 16.614 22.244 26.303 38.066 13.621 2.5019-0.17237 2.4485 2.1456 1.8437 6.1875-1.5813 9.4847-12.113 39.503-19.066 41.404-34.827-29.412-48.17 23.184-24.558 34.052 13.669 6.2915 34.901 1.5642 45.03-14.831 7.7482-12.542 6.8796-10.464 9.0408 4.9249 0.8036 5.7226 1.9603 12.359 2.5624 15.344 1.8831 9.3352-0.159 11.111-15.884 15.106-12.676 4.7266-25.491 7.252-38.531 9.875-23.813 3.5507-36.216 21.294-37.125 43.094-0.1964 4.7123-0.063 6.8949-1.0938 8.2812-101.06 36.686-208.64 88.512-322 178.03zm668.84 427.66c-3.7173-6.2119-15.419-38.715-18.562-52.25-7.7744-65.517-8.3032-143.16-16.74-204.17l12.259 1.5547s4.3618 17.692 8.6372 65.377c2.1194 23.639 3.9766 72.742 5.7013 95.33 2.6149 33.562 16.982 87.377 26.167 101.04 14.98 22.286 45.943 8.4611 36.037-17.887-5.1393-13.67-25.838-11.769-23.177 2.3781 0.015 2.5162 1.9893-1.7704 5.0516-4.378 8.9797-3.2525 18.895 6.1876 13.489 17.303-6.7191 14.194-25.891 7.3935-32.021-10.709-7.3223-21.625 18.634-37.38 37.685-23.98 21.223 14.928 20.731 51.983 3.2968 63.427-29.208 10.174-48.655-11.281-57.826-33.041zm71.435 28.301c-1.1607-0.70745 0.082-2.9419 1.5965-8.2695 5.6633-19.919 2.5068-35.574-10.219-50.469-7.09-8.2986-9.7808-9.7778-5.9835-11.209 8.0489-3.033 25.544 10.063 30.221 22.757 4.6159 12.465 5.6291 25.301-1.3267 39.216-4.7399 2.938-12.131 8.862-14.288 7.9735zm22.087-13c0.016-2.3396 1.696-9.6964 2.1108-13.301 1.6038-13.933-4.7165-28.194-16.101-39.438-9.5542-9.4358-10.429-10.406-1.2574-10.427 23.655-0.0544 38.183 38.398 26.995 57.076-2.8539 2.9438-11.51 8.9279-11.748 6.0896zm20.212-12.649c7.4369-32.494-23.773-54.677-24.423-53.669 1.6793-7.2813 14.138-2.9004 18.362 0.004 15.782 10.932 24.54 39.033 14.526 54.788-1.0917 1.9357-2.4151 3.0374-4.1496 4.0646-3.3189 2.0166-5.282 3.6498-5.9304 2.1923-0.4911-1.104 1.4064-5.8217 1.6151-7.3788zm-275.8-109.77c3.3415-3.1847 4.3287-3.2632 10.625-0.78125 19.728 7.7766 35.776-6.2238 31.312-21.25-1.6163-5.4415-8.9639-11.428-13.531-11.969-7.4625-0.88332-7.6702 3.0602 0.3437 6.1875 9.8439 3.8414 10.692 14.358 1.9063 18.969-10.333 6.7618-26.841-11.022-39.156-9.7188-5.9031 1.6708-9.7446 7.1121-6.4838 13.875 2.5526 4.7465 11.354 7.7265 14.984 4.6875zm-21.971-2.4617c-6.8323-3.293-9.4534-3.271-8.0289-10.757 0.9377-4.9278 8.4646-38.072 12-50.875 10.587-38.339 1.4747-59.809-26.804-68.824-19.164-6.1096-35.78-3.3963-55.543 6.7488l-3.3708-10.933c82.532-20.314 222.78-13.506 222.27-12.68 2.6084 11.106 3.503 22.188 4.4246 33.27 0 0-26.102-13.278-39.755-17.769-21.035-6.7825-54.531-0.16576-60.625 11.875-3.4552 6.8272-1.7759 11.438 12.531 4 23.416-12.173 70.73-1.9508 87.261 11.557 3.8087 3.112 3.6043 3.7769 3.6263 7.3617 0.033 5.4655 0.3498 5.7908-7.1995 1.6126-39.581-20.966-73.692-19.096-85.837 7.4976-2.6952-0.85703-13.01-2.787-13.01-2.787l10.864 16.578 1.8613 17.215s17.996 10.327 27.935 14.734c9.7816 4.3138 4.1812-0.20762-7.7789-8.7909-8.7807-6.3016-1.696-8.1765 4.1209-5.7288 11.996 2.9353 29.544 6.6968 50.099-5.938 6.3843-3.9244 20.813-0.23003 21.014 1.592 0 0 1.7101 15.055 3.1685 46.44 0.6898 14.846 2.2342 34.249 3.1563 42.219 2.7854 24.076 3.666 25.456-8.8126 13.75-4.1867-3.9278-11.162-10.444-11.25-10.062-1.7117 7.4285 16.753 20.789 21.031 25.344 6.4933 6.9126 11.53 24.441 8.875 25.438-1.6813 0.63112-19.184-14.656-32.938-28.375-5.1524-5.1396-12.837-12.041-13.062-11.812-2.912 1.8793 8.6109 15.269 19.438 25.312 12.634 11.72 14.099 12.774 9.7706 14.45-7.9926 3.0943-15.086-1.0015-34.146-17.231-1.8554-1.5798-9.0849-6.8676-9.4375-6.5-1.7935 2.3219 15.76 19.43 19.781 20.938 7.468 2.8003 9.5248 10.083 3.5624 12.844-3.9796 1.8424-18.591-6.4429-30.25-16.844-2.0888-1.8636-7.917-5.0693-8.3124-4.6562-2.3638 1.4709 10.672 13.077 23.156 20.844 12.222 7.6038 14.17 9.4657 10.938 15.594-3.0204 6.3148-29.869-8.799-43.188-24.156-2.8338-3.2678-5.089-4.6904-4.5312-3.5938 5.6578 16.427 24.889 28.417 39.255 33.29 2.5642 0.88112 6.2838 1.9754 7.947 3.3365 4.0628 3.325 3.1044 6.7096-1.3776 8.5589-15.455 4.0949-39.456-14.898-56.535-34.679-1.9995-0.86117-0.836 1.7123-0.3187 2.5651 14.146 23.321 41.623 41.308 58.371 38.269 9.7923-1.7771 17.594 1.2764 17.623 4.5529 0.024 2.6855-5.4212 6.886-15.933 7.4816-23.781 1.3475-60.519-25.182-81.75-58.594-0.6616-1.0414-1.4581-1.4331-1.5197-0.80802-0.6911 7.0072 12.558 24.409 22.77 34.402 30.339 29.688 59.277 39.993 82.202 23.849 12.934-9.7268 25.612-31.218 6.6629-38.737-10.035-3.9815-16.618 9.8156-7.9307 5.9773 11.359-1.2005 13.845 4.8506 12.287 10.482-3.029 9.6653-12.67 11.068-20.43 6.8741-13.504-7.569-10.247-32.792 7.4372-36.95 15.934-3.6033 29.592 10.058 31.227 22.852 2.539 19.874-20.148 41.012-38.169 46.09-61.47 17.321-108.04-68.416-108.29-70.344-2.985-5.953-6.6331-9.1351-9.0625-2.2812-2.6508 9.9382-16.889 38.988-24.276 38.704 2.4498-10.286 12.388-27.49 10.258-42.719-4.2669 12.418-13.267 38.918-29.951 52.858-4.3268 3.8277-16.93 8.2285-8.1563-1.6562 10.628-14.491 24.549-34.314 22-53.156-2.8261 4.1843-4.4874 14.858-7.75 21.875-8.1685 17.567-25.757 38.299-37.219 41.531-8.4637 2.3868-7.6347-0.4465 1.125-9.4062 9.3911-9.6058 26.184-37.967 25.281-50.312-0.3871-5.4515-17.673 46.849-48.938 60.781-8.4304 2.9446-13.141-0.98442-13.141-0.98442 12.311-6.851 46.514-39.602 43.879-77.414 0 0-1.8791 5.5652-4.6553 13.913-11.956 35.879-36.866 59.22-56.039 60.905-15.306 1.3446-25.887-4.9749-22.057-7.6433 19.814 0.43361 36.198-6.1793 49.201-25.308 13.216-19.442 18.493-50.913 11.142-84.409-6.6294-30.208-7.7884-57.302-9.8348-86.277 21.603 7.7303 43.375 12.982 64.636 5.0282-2.2457 8.5924-5.7907 9.6122-11.462 16.041-4.1154 4.7003-2.7494 5.8524 13.207-5.0718 4.6431-3.1788 6.3383-5.756 7.1563-4.875 1.3266 1.429-0.8985 10.277-5.75 27.906-7.2548 26.362-5.4982 28.285 19.781 38.625 4.7163 1.9292 6.4614 3.7761 8.0938 5.7812 0.7637 0.93831 4.827 8.5112 5.2187 8.7812 0.9195 0.63388 0.7959-7.6492 0.3125-9.75-1.2838-5.579-4.2275-9.7952-6.8316-11.478-4.9231-4.6682-12.116-5.1777-16.702-7.3582zm474.96 352.14 0.6527-27.473 26.42 19.325-0.4586 9.0644zm-45.707 5.3094 6.4009-508.23s20.686-13.316 31.024-19.91c6.1051 20.242 5.4352 63.447 2.756 82.652-4.1914 12.472-6.7901 68.211-2.654 96.651 3.297 22.671 2.0867 60.071-1.5937 77.926-1.438 6.9762-0.8825 39.777 1.1899 70.144 1.5837 23.209 0.7248 44.274-2.25 56.295-2.3444 9.4733-2.0735 43.547 0.2523 56.649 3.4217 19.276 3.158 81.036 1.4513 84.367-4.4723 4.9178-38.908 5.1177-36.577 3.4522zm48.313-531.25s20.435 13.929 30.289 20.887l-0.1804 21.897-29.537-19.901zm-308.53 30.906 12.749 0.97882c4.7001 26.537 6.4653 56.652 8.0523 86.842-0.028 46.513 5.0009 95.644 15.454 127.95l-9.5268 9.7011c-15.439-37.071-15.853-95.202-18.845-134.59-0.9185-44.259-7.5223-90.597-7.8837-90.886zm310.56-0.12741 27.479 19.186-0.058 23.818-27.691-18.953zm-292.17 2.1425 11.189 1.3811c2.9529 31.469 7.8701 52.866 9.3565 87.508 1.9226 44.805 9.1502 81.677 13.466 116.72l-8.4328 2.6672c-5.6573 2.5072-14.374-38.952-17.303-122.78-0.8866-25.369-4.7658-53.947-8.2761-85.494zm16.936 1.4274 13.35 2.5926c4.7633 79.62 13.032 154.45 22.204 197.4l-11.651 0.60022c-13.6-61.396-13.5-132.19-23.9-200.6zm19.293 3.1002 12.269 2.3114c12.155 182.1 21.318 179.89 24.069 187.08l-13.392 5.2072c-13.7-52.491-15.6-126.22-23.1-194.61zm53.251 179.46c-2.1918 6.0962-7.171 5.4537-12.623 6.0041-5.8507-16.804-9.1214-36.781-11.393-56.326-4.9895-42.933-6.431-83.143-11.665-125.52l14.65 1.7154c-0.4805 0.31613 8.2461 149.3 21.031 174.12zm-313.5-164.46c19.327 1.2148 35.244 10.128 36.605 22.854 0.3061 2.8627-1.9404 1.4413-4.5299-0.60358-16.448-12.988-35.319-17.235-58.294-9.3447-5.0066 1.7196-9.1233 4.4845-11.344 4.0625-1.9812-1.306-2.5549-4.4138-0.9888-6.9472 5.4602-8.8325 28.987-10.623 38.551-10.022zm-45.217 24.86c0.1228 20.039-4.9116 31.013-15.49 35.489-12.767 5.4025-28.862-6.7979-20.763-20.067 6.1233-10.032 16.352-6.8332 18.155 3.8267l16.64-35.657s1.4867 11.39 1.457 16.408zm588.81 5.3382-0.4758 20.644-29.455-20.311 2.2731-19.822zm-527.62-10.354c14.57 6.0159 19.846 13.184 20.344 16.344-0.8803 2.3363-2.3213 0.71182-12.938-5.2188-16.332-10.345-37.786-12.305-56.844 0.25-4.7169 0.86124-5.1621-1.8134-0.375-6.8125 14.542-11.052 34.407-10.923 49.813-4.5625zm111.34-2.25c12.899-0.21951 28.265 3.2802 41.188 10 5.715 2.9718 10.855 4.8475 14.559 8.2218 2.9781 1.608 3.1137 8.4213 0.9098 8.9032-1.9656 0.24698-5.1531-1.3283-9.9063-4.75-30.641-20.534-52.934-18.385-71-6.2812-1.0017 0.66849-4.0867 1.328-5.3007 1.2188-3.4062-0.30667-3.5622-1.7053-2.1116-3.5324 8.4135-9.234 20.855-13.566 31.662-13.78zm386.33 20.072 29.505 21.262-0.3129 20.481-31.373-22.494zm-538.19 0.50751 4.3502 0.1887c9.7883 24.73 22.698 12.244 28.128 2.4774l5.2878 0.93968c-8.7748 32.806-42.292 15.088-37.766-3.6058zm-7.457 3.1703c4.9176 0.66395 4.6629 6.2353 6.1467 10.314 3.316 9.1158-9.646 1.2544-11.854-0.98627-3.7368-4.0481 1.7278-8.9754 5.7068-9.328zm147.55 1.1843c12.566 19.738 20.147 8.2713 27.596-0.13668l3.4753 1.166c-1.1229 14.023-24.971 28.644-35.764-0.75338zm39.6 2.7844c1.377 0.041513 4.1225 1.0674 6.6453 2.1303 6.987 2.9439 6.5868 5.021-1.2477 8.3697-12.529 5.3552-16.867 6.0096-13.027-1.7565 2.1978-3.546 3.6865-8.2636 7.6292-8.7435zm-48.874 2.2723c3.0992 2.3477 5.1204 4.9248 5.4214 9.073 0.2122 2.9241-9.4581-0.58181-9.3731-5.2342 0.352-2.9529 1.987-5.3272 3.9517-3.8388zm-86.143-0.13761c6.352 2.4584 5.5425 5.4897 1.0541 8.1842-8.0539 4.3365-11.461 3.4104-6.1942-3.5153 2.4296-3.1948 2.9655-4.6334 5.1401-4.6689zm491.23 17.442 31.952 23.159-0.5889 20.828-31.935-22.451c-1.3706-8.948 0.1315-14.93 0.5713-21.535zm-558.4 24.142c1.5296 0.06099 2.0613 5.1291 2.3126 12.531 0.4175 12.307-12.352 29.253-25.094 34.969-15.346 6.8838-31.522-3.3165-28.576-18.042 2.7154-13.572 22.058-13.854 22.607-1.2703-1.9282 3.2798 0.6663 6.0866 1.75 5.8125 4.9921-1.2625 16.872-11.641 21.813-23.375 1.9253-4.5727 3.1232-9.29 4.4687-10.344 0.2612-0.20454 0.5003-0.28996 0.7187-0.28125zm557.06 4.25 31.919 24.004-0.1573 20.701-31.671-22.47c-1.1298-9.2425-0.4847-15.815-0.09-22.235zm-391.89 27.094c-2.4977 4.0607-0.6037 11.429 4.4858 5.2502 13.07-14.773 31.413 4.2181 21.281 15.969-9.1957 10.665-20.267 7.027-43.625-2.2812-17.016-6.7808-19.745-4.5944-24.031 0.0625-3.5293 3.8342-1.8744 11.684 2.625 11.656 13.82 3.3481 25.784 6.5877 40.094 9.7812 30.248 6.6638 49.318-32.144 21.813-46.906-6.5794-3.5311-20.367 0.73321-22.642 6.4686zm-133.96 2.5558c-11.983 10.434-2.6858 38.452 14.695 41.194 3.6395 0.57427 9.0862 0.50257 15.293-1.191 12.239-3.3392 25.769-10.353 26.38-14.544 2.7776-19.045-25.88-2.347-29.674-0.13966-9.0368 5.3074-18.507 4.4655-23.188-2.0625-10.549-14.712 8.9821-31.134 20.438-13.156 2.8907 4.5367 1.9614-3.0915-1.1875-8.3125-4.4456-7.371-16.209-7.068-22.757-1.7881zm527.53 1.6505 30.011 21.867-0.4615 19.928-29.091-21.621zm1.8471 29.21 28.415 21.069 0.1902 20.721-29.848-20.273c0.6982-7.4485 0.9421-14.456 1.2425-21.518zm-161.16 9.5602c25.238 0.7815 38.942 38.288 25.403 53.614-4.028 4.5598-7.2066 5.75-8.9753 4.0032-0.3805-0.37628 0.3142-4.539 0.6401-9.25 1.0394-15.023-2.0076-25.362-12.842-36.942-8.1265-8.6862-11.207-11.383-4.2262-11.426zm-310.8 1.43c-4.7935 1.6297-9.8872 5.0002-13.781 4.0938-3.8458-0.89521-5.7196 0.98725-7.2741 3.9906-5.9475 11.489-4.2134 15.258 7.3365 8.8532 5.4812-3.0395 7.3668-1.8938 21.875 1.0625 10.368 2.1126 17.442 2.0214 26.625-0.21875 11.415-2.7847 18.198-2.9163 23.906 0.3125 5.7083 3.2288 9.5829 7.6211 9.7813 4.0938-0.5804-4.1404-4.0325-14.759-4.8126-18.281-0.3753-1.6946-3.2263-0.24898-5.9062-0.0937-9.4367 0.54678-20.558-8.0956-27.906-3.7188-5.8806 3.5029-6.665 4.4323-14.594-0.375-5.9042-3.5798-10.062-1.4827-15.25 0.2812zm304.05 7.0098c16.887 14.524 21.083 27.253 19.273 37.621-0.9581 7.5471-1.642 15.889-9.1169 20.332-1.3745 0.63198-3.4185 1.0058-5.3119 1.2563 6.0591-21.389-0.4356-40.717-24.305-61.584 7.0814-3.3782 14.235-2.1114 19.46 2.3744zm-385.58-5.6348c0.7588 0.009 1.5928 0.14573 2.4374 0.4375 2.953 1.02 3.3077 8.7885 0.9376 11.188-2.3703 2.399-4.2268 0.36515-6.8438-5.8438-1.9614-3.389 0.1798-5.8191 3.4688-5.7812zm-15.875 5.8125c6.2426-0.0382 8.5265 5.712 9.5312 10.281 0.8563 3.8944-0.4627 15.462-3.7188 11.375-0.7599-2.4653-4.0359-10.435-6.7187-12.531-5.9755-4.6693-5.3109-9.0869 0.9063-9.125zm-17.656 5.5c0.9126-0.0125 2.0821 0.11636 3.5 0.375 9.7201 1.773 16.957 17.39 14.562 26.156-5.2941 9.3895-7.1101 2.9807-8.6875-5.625-1.2789-3.5769-5.1894-9.2103-7.5937-12.125-4.9902-6.0492-5.7361-8.7271-1.7813-8.7812zm585.95 4.0021 29.363 21.694-0.2844 22.761-30.75-21.321c0.8078-7.9549 1.2729-15.577 1.6713-23.134zm-605.29 0.43544c14.533 0.2388 26.693 17.311 21.875 33.531-5.9268 16.902-34.161 12.868-29.219-4 1.4216-4.8517 6.6725-8.3403 11.594-5.2188 7.1076 4.5085 6.423-2.6709 1.9062-5.2812-6.9712-4.0288-16.669-1.792-18.938 6.125-7.9085 27.6 27.573 37.562 47.375 9.2188 7.2375-10.359 15.11-21.443 19.438-26.156 3.8882-4.2345 4.6984-3.772 4 1.75-2.8444 25.709-21.263 57.624-54.906 55.375-32.676-3.5829-42.401-38.441-17.375-59.75 4.2049-3.5804 8.6032-5.3123 12.844-5.5625 0.4733-0.0279 0.9374-0.0389 1.4063-0.0312zm173.36 3.9213c-12.058 5.6244-22.94 7.6604-34.652 2.3584-8.6573-3.9192-8.5807 0.20084-4.843 3.6363 10.811 9.4773 30.779 5.5495 39.383 0.42783 2.7919-1.6619 3.7751-6.5784 0.1116-6.4225zm460.95 47.856-0.2069 20.701-32.801-22.67c-0.4509-4.9598 0.2139-12.479 1.4159-20.237zm-32.031 6.4502 31.241 21.225 0.534 20.528-30.37-19.446zm1.7845 28.804 29.824 21.273 0.1097 22.401-29.564-20.071zm-735.06 12.875-19.25 55.438 12.062 0.90625 7.9376 14.812 8.5937-14.938 12.719-0.78125zm735.87 18.122 28.749 20.373 0.14 20.69-29.866-21.29zm-1.5475 25.306 29.458 21.932 0.2726 21.981-33.413-22.966zm-666.22 2.7597-19.125 59.375 10.312-1.25 9.4062 16.094 9.9376-14.188 9.2187 0.65625zm-137.5 2.4375-18.25 59.031 11.656 0.125 9.625 15.094 8.8437-14.312 13.219-0.15625zm799.44 22.528 34.582 25.014-0.05 23.336-33.536-23.173zm33.733 55.918 0.092 20.44-29.093-21.347-2.859-22.737zm-623.71-5.5393-22.219 59.938 14.312 0.34375 8.4688 14.594 7.1562-14.438 11.5 0.28125zm596.5 14.671 27 19.085-0.514 20.978-26.589-18.375zm-520.41 236.28-15.321-15.157c-0.1745-1.2215 12.813-7.2817 20.698-3.1917 10.41 5.4001 15.523 24.353 3.6376 34.119-9.4575 7.7712-23.624 0.98707-23.891 0.0529zm-13.471-24.826c0.6092-23.062-11.453-29.159-21.432-33.978 0 0 0.4433-146.19 0.7255-150.56 0 0.63804-2.3459-15.867-2.625-16.844l-0.0003 0.00005c0 0.0109-2.4026-0.67767-2.4016-0.65247 0.2069 14.827-1.03 166.72-1.2804 167.7-18.834 1.8967-24.27 14.547-26.219 31.611-14.654-1.3128-24.324 7.3782-24.639 8.8385-5.3089-7.5176-1.1131-18.417-5.2768-26.241-13.657 45.262 11.226 72.823 33.324 70.609 2.9067 43.69 50.858 52.278 49.993-0.67871 58.2-2.5684 39.275-56.313-0.1673-49.81zm-270.6-187.48l-21.906 58.719 14.781-1.4688 5.2187 10.969c23.94-20.485 35.407 11.848 23.781-15.906zm798.77 116.65c2.7186-0.16139 6.2572 2.3382 6.923 5.6862 0.3714 9.9726-12.992 7.5396-13.325 1.2408-0.2363-4.473 3.8483-6.7754 6.4017-6.927zm7.81 64.931c5.8437-4.6544 14.999-1.8444 15.043 5.2985 0.039 6.3314-7.2476 8.3104-12.875 4.6729-4.3626-2.7449-4.5691-7.7541-2.1677-9.9714zm0.5605 17.574c31.624 2.869 55.49-18.289 45.625-33.87 8.6574-10.564 1.809-16.805 4.2251-22.9 6.8201-6.7925 1.4142-21.69-0.2688-21.769-1.09-19.902-6.8274-22.534-15.271-33.252-2.5381-3.1078 6.1093-5.9855 9.4912-11.216-8.7965 3.2336-17.295-3.3809-17.226-4.8591l-3.6581-4.6772c-58.667 1.8805-111.37 5.206-110.54 84.723-8.9236 33.615 4.93 63.873 45.982 55.184 9.0744-7.8716 3.3418-19.555 2.325-25.143-3.2725-15.385 0.9067-25.29 2.1371-32.457 3.8056-22.168 20.387-42.555 21.652-7.704 2.9182-4.33 1.5799-4.9955 6.3176-6.7405 11.296-3.887 11.114 7.4667 8.7464 12.014-1.5134 2.3331-3.7388 2.1016-6.0222 1.8049-3.2631-0.43923-7.5137-1.7113-7.5672-2.9107-0.9324 3.6023 5.7921 10.427 5.0298 13.809-0.9497 3.2074-1.5203 2.9376 1.4928 0.84857 14.249-9.8794 22.75 12.784 2.3824 9.9128 9.9749 5.512-5.1303 21.008 5.1426 29.203zm-19.112-121.61c11.127-0.40446 13.79-0.46457 13.19 5.361 1.9508 10.796 4.5777 15.826 18.63 14.902 14.171-1.6352 18.672-2.4547 4.3099 5.8872-7.2339 3.063-9.5791 3.6448-18.089 2.7545-8.5792-0.89749-7.91-1.7523-12.857 1.1072-2.7647 1.5981-5.7863 3.548-8.0224 3.9196-3.3104 0.55004-9.1492 1.7375-9.1492 1.7375-3.5486 16.668-8.7041 25.012-15.745 32.855-9.9621 10.993-14.961 12.868-2.9336 12.209 4.4387 0.34003 2.1722-1.9187 3.8509 16.13 0.5879 6.3215 1.6625 13.657 2.5611 16.126 3.0046 8.2556 3.3637 12.345-8.5218 12.755-29.676 1.8125-36.178-27.138-32.018-41.821 0.3756-2.3142 1.8383-9.9681 2.2187-16.054 0.2079-3.325-0.4233-6.1519-0.2901-9.5536 1.0756-27.479 7.6987-34.628 32.362-52.143 7.4394-5.2833 20.671-6.1987 30.504-6.1722zm26.018 1.8597c13.689-0.0838 26.813 6.6821 20.156 10.852-4.3024 2.695-19.68 1.3265-23.911-1.7761-5.4595-4.004-3.3157-9.0326 3.7544-9.0759zm-610.6 14.48l-5.5625 9.5312-6.3125 44.656 0.875 9.0938 10.985 14.837 9.0774-15.087 13.932 0.44474zm639.91 4.8328c8.8365 1.9029 9.0693 9.9976 6.745 14.944-5.1119 10.878-38.347 15.693-38.347 15.698-0.1983-4.7059 0.5232-9.2278-2.8483-14.568 0 0 22.164-5.4559 26.896-9.6461 3.1601-2.7982 5.1018-6.3707 7.5536-6.4278zm6.1963 25.006c3.2114 0.0903 4.887 2.4395 5.6875 7.1875 0.3759 2.5437-0.6129 4.6952-2.7188 7.4375-8.5541 9.0232-32.303 15.013-40.813 12.564-0.5916-0.80156 1.0036-10.413 1.6844-14.688 11.373 0.50873 30.679-9.3041 36.16-12.501zm-338.08 51.418c-11.068-16.469-36.182-14.443-33.508-13.263 0.3816-13.963-1.7293-33.178-22.896-35.526-21.354-1.9286-32.75 26.111-24.811 38.166-13.115-5.6682-33.102 7.7726-33.121 9.0621-1.6855 0.0308-17.388 39.768 28.338 42.49 3.8912 18.924 10.893 28.152 25.406 36.125l-1.875 153.97 5.0646 7.0631 2.8005-161.34c23.432-0.69672 26.709-27.45 25.062-33.653 10.394 0.60442 19.872-1.3498 27.916-7.3014l2.3557 26.34s5.628-9.1985 4.489-14.138c-7.9931-151.36 49.082-314.14 122.44-419.12 3.9039-4.3949 5.1517-9.6923 7.054-9.704 17.649-9.1803 28.804-15.369 28.804-15.369 28.678 14.296 79.756 48.541 79.756 48.541l-2.2918 215.48c-0.7696-2.1312 96.245-9.4117 94.752-6.815 0 0-8.4416-3.4451-8.4889-9.1157l4.8012-504.25-41.986-28.3s-35.181 22.266-45.042 29.905l-3.2454 296.86-74.441-45.069s1.3541-10.481 1.5138-13.887c-0.6121-40.523-20.306-54.404-58.344-42.938-5.0973 1.5366-8.6458 2.8958-11.099 0.78545-15.265-46.833-20.658-169.4-20.637-169.4l109.48-179.46 181.28 1.6351-6.9131 691.64 1.2938 362.6-93.495 66.03 2.022-232.24s-13.164-6.5282-16.627-7.0061c-1.3021-0.11958-3.0288 2.7728-0.6935 4.3093 3.368 2.216 11.69 5.3741 11.69 5.3741l-1.3792 230.19s-36.317 23.684-52.548 33.534c-12.097 7.2759-50.293 25.821-72.913 36.491-8.7767 4.1399-17.626 7.4347-18.448 8.0874-30.786 12.7-58.506 21.505-84.202 34.703-17.702 6.9429-16.806-0.1-20.469-5.9062-36.191-36.84-83.566-39.675-122.22-23.469-5.9841 2.12-13.384 3.9329-18.406 7.3125-1.4539 1.0405-3.9745 2.195-5.625 2.5625-3.3788 0.75237-7.0872 2.1908-10.219 4.5938-5.584 4.2848-9.3639 11.352-12.625 18.375-2.0184 4.3463-8.1849 24.672-9.0521 30.712-0.1453 1.012 1.9507 0.8165 2.0211 0.9173 0.2615 0.3745 6.264-24.634 8.5685-29.349 4.9222-10.07 11.029-16.05 14.231-16.96 1.457-0.22511 2.6911 2.0511 0.6667 5.5932-4.0237 7.0399-7.4298 22.085-8.4798 28.875-0.9413 6.2664-1.1844 11.305-0.016 11.539 0.2046 0.2021 6.0331-18.924 8.6292-25.67 6.7675-17.583 10.981-24.848 17.308-28.527 6.4878-3.7735 8.0079-3.2081 6.6793 0.88366-9.842 18.522-13.993 32.577-16.156 52.426-0.3439 3.9586 1.6587 4.1021 3.3395-2.4397 5.5451-20.79 13.145-48.907 30.269-57.086 7.3023-3.1736 10.522-2.9689 9.7106-0.63916-20.614 25.272-26.086 53.591-25.981 62.759 0.035 3.0596 1.2817 2.4697 3.9743-4.113 7.2224-25.098 17.696-46.383 29.91-56.721 4.7269-4.0007 10.395-5.0397 15.136-5.558 14.321-1.5656 14.731 3.7394 2.1831 10.804-14.292 8.0463-31.121 37.835-33.268 60.353-0.743 7.7926 2.0045 8.6785 4.1071-1.6964 9.0567-44.687 47.906-73.753 78.5-59.585 13.765 6.3747 16.152 14.99 4.1474 11-24.302-8.0772-51.66 8.8275-63.188 32.804-10.422 21.676-10.375 33.142-3.6938 62.47 4.4527 27.064 13.396 61.694 9.8959 88.086-3.4313 5.0909-13.927-2.3151-26.424-4.0377-7.5312-1.5227-16.751-2.0144-24.68 0.8882-6.9118 2.5303-10.82 3.1302-12.04-0.5853-0.3934-1.1989 5.404-6.9336 7.9947-10.116 4.1412-5.0859 1.8217-5.9406-3.9909-0.4374-2.8455 2.6939-8.969 9.0037-10.626 9.3139-3.6312 0.6796-3.7188-3.403-0.6459-13.747 10.837-40.178 8.1031-40.902-9.3617-49.326-17.328-6.8887-11.767-10.154-19.388-16.866-5.5 4.169 6.7575 23.842 20.884 28.308 11.556 3.6531 10.055 9.5669 4.7411 25.455-5.4799 22.266-14.706 51.711-9.905 71.626 10.087 41.842 52.427 41.608 85.093 25.23l3.8004 10.684c-27.57 10.699-172.18 18.085-220.79 11.783-3.5713-13.21-3.8976-16.6-5.197-32.109 0 0 29.88 14.017 44.86 16.59 18.7 3.2128 47.567 3.7704 55.209-13.382 2.3366-5.0263 0.075-9.3386-6.4362-6.5008-11.967 5.2158-32.348 8.9081-48.75 7.6563-13.769-1.0509-33.334-6.8685-41.751-12.106-4.0003-2.4892-7.3376-7.2912-4.0888-13.215 2.8107-0.5804 6.45 2.5685 8.6139 3.7193 24.684 12.907 38.287 15.542 54.575 10.966 12.355-3.4717 29.122-16.501 25.084-20.325-4.1764 1.3846-18.129 12.759-27.67 15.146-19.64 4.9128-40.384-3.3493-60.516-16.806-6.1936-5.5329-3.2715-9.4573 4.3471-4.9962 30.22 15.765 42.767 26.114 72.209 5.0326 6.5776-4.7298 10.198-4.0592 13.978-1.0823 14.928 13.765 14.991 6.1587 4.1161-8.074-2.4707-3.2335-4.6864-7.743-6.125-12.531-1.0633-3.5395-1.2618-7.07-3.2455-9.4172-3.3788-3.9981-9.5362-6.0037-16.563-9.2172-10.147-4.6403-13.57-2.525-6.0888 1.2565 13.103 6.623 19.429 13.612 3.0924 9.6566-14.778-6.8688-39.669-3.5054-53.862 6.0423-11.11 5.2182-16.054 10.906-18.481-1.2993-5.0872-25.475 0.7302-59.852-5.9388-104.28-1.2714-8.469-2.8968-13.851-1.1119-14.981 2.291-1.4504 7.8731 4.1012 14.752 14.06 3.1349 4.5387 9.368 13.277 9.357 11.478 0.3784-9.3815-13.962-27.204-25.91-34.318-6.5633-3.9078-10.804-21.592-3.2876-17.605 5.8039 2.9303 35.83 30.108 41.483 39.721 2.626 4.4659 4.9404 1.6751 2.1698-3.5714-1.6628-3.1483-8.6814-12.427-15.527-19.308-12.146-12.209-13.585-11.667-11.183-14.098 4.7523-4.8098 14.684 1.6215 32.31 18.043 4.4984 5.8494 10.481 11.159 9.7779 8.2754 1.8925-4.475-15.711-23.957-26.244-29.262-1.9655-1.2705-2.2166-2.585-1.9975-4.9713 1.1404-9.0649 21.475 4.5663 38.286 20.381 6.2965 5.9236 1.1655-5.123-6.1166-12.685-5.724-5.9434-14.984-13.366-21.298-15.958-6.2701-2.6927-6.584-8.1965-1.6034-10.433 17.088-0.473 34.463 17.233 44.773 31.104 2.8457 3.8102 5.4636 6.7522 2.5499-0.424-9.4212-21.621-29.489-34.016-43.476-36.673-11.362-2.1582-10.962-12.435-0.2736-11.116 11.758 1.4506 30.889 12.359 46.996 29.045 4.6862 4.8546 12.53 15.833 10.974 9.4342-0.011-1.7366-4.9345-8.6098-10.634-15.248-13.18-13.474-28.555-25.438-44.988-29.173-7.674-2.291-30.61 1.7881-30.69-2.1803-0.018-2.9288 2.4593-4.6484 9.7788-6.9662 28.407-8.9956 69.434 15.892 91.527 53.557 1.5811 2.6956 4.6303 3.8755 4.8259 3.2768-10.48-30.67-44.03-58.821-70.967-63.953-18.326-3.2129-36.912 1.2038-45.897 13.453-10.11 13.783-6.5032 32.469 8.3959 31.192 7.8171-0.6081 7.2606-5.0462 7.1179-5.1917-0.5225-0.5325-5.093 1.5332-7.8903 0.9417-10.145-2.145-8.8131-20.527 6.0536-18.496 17.096 2.336 19.121 29.377-0.099 34.778-17.74 4.9845-24.094-3.1756-28.788-12.815-6.8743-14.119 1.051-36.605 13.654-45.087 35.277-23.744 79.151-2.778 103.76 21.633 12.176 12.077 20.993 26.354 26.439 41.688 1.4045 3.5664 4.0328 3.3947 3.1478-0.4197-33.798-90.054-138.41-101.25-154.97-32.781 0 0-0.5726 2.0906-10.438-12.375-15.99-23.448-40.304-28.974-70.57-13.586-30.514 10.959-40.855 18.073-62.055 28.649-3.0834 1.0415-22.733 14.18-25.812 11.344-29.515-20.195-55.404-27.31-69.344-42 0.5252-2.6525-1.4062-42.844-1.4062-42.844l3.2102-173.13c0.2357-1.6863-15.793 0.91744-42.47 4.7051-70.982 13.099-64.25-24.032-73.577-26.786-4.9333-1.0615-4.5988 1.0646-4.007-132.44 0.172-38.777 0.3926-106.95 0.4688-151.5 0.076-44.551 0.4668-81.659 0.875-82.438 0.4082-0.77869 4.4344-4.1329 9.0625-7.3125 17.423-11.97 27.216-19.224 65.375-47.469 8.6414-6.3962 10.812-7.4688 10.812-7.4688 3.1677 80.264-1.942 164.43-0.8125 233.41l3.1875 0.0625 2.125-231.53c-6.4853-1.8015 150.16-90.433 235.7-118.68 1.6038-0.52959 5.5594 1.3012 5.5594 1.3012 47.984 60.579 176.79 44.321 188.21-28.417 20.653 44.741 112.97 132.44 157.23 28.989 0 0 15.059 30.12 28.325 32.286 29.821 4.4 33.203-0.26658 99.431-31.207-76.85 112.98-120.07 233.16-127.5 379.36zm-39.554-29.023c1.5713 5.0616 2.0342 11.582 0.5473 16.703-1.9781 3.9898-4.8378 3.8927-4.8378 3.8927l-14.382-12.658-14.438 13.001s-8.5882-8.9073-3.6252-21.012c9.3569-16.875 30.175-13.502 36.735 0.0731zm376.3 3.4571c9.3314-0.45355 4.358 10.202-9.5402 17.268-8.7218 4.4339-15.917 5.6186-19 3.9239-1.6292-5.061-0.1211-9.6325 0.9716-11.66 5.9287-2.9342 22.172-8.0018 27.569-9.5319zm-602.15 11.464c10.354-0.10157 19.218 7.4026 19.361 20.467 0.058 5.3232-2.75 10.559-2.75 10.559l-17.109-12.998-13.418 13.894c-2.2644 0.7548-10.21-9.4562-4.4874-20.358 4.1606-7.9252 11.319-11.495 18.404-11.565zm249.99 9.628c14.453 6.8071 16.682 27.184 2.4176 34.815-6.779 3.6266-17.391 5.548-22.234-2.0587l14.526-15.383-16.216-14.049c-0.6322-0.65087 12.686-7.4794 21.506-3.325zm349.3-0.27535c2.5068 0.0322 3.1309 1.0011 3.817 3.3527 1.9468 6.6729-3.3386 13.283-12.326 15.268-8.306 1.8342-7.5315 2.8134-11.344-4.6384-2.9873-5.839-3.8113-5.607 1.0224-7.3705 5.837-1.8019 12.084-3.911 18.83-6.6116zm-413.94 3.9684s-10.477 10.34-15.057 14.661l15.302 16.433c0.7202 1.9806-18.071 10.159-27.708-2.7305-6.2565-8.3683-2.4369-24.056 6.693-29.326 9.3262-5.3831 22.513-0.60679 20.77 0.96266zm22.279-1.5086c9.1719 0 16.594 7.4219 16.594 16.594 0 9.1719-7.4218 16.625-16.594 16.625-9.1719 0-16.625-7.4531-16.625-16.625s7.4531-16.594 16.625-16.594zm-227.41 24.647-15.122 15.377 15.856 17.764s-12.776 1.8972-17.291 0.98415c-21.87-4.4224-19.351-30.107-2.2917-36.661 7.1944-2.4068 12.504-1.489 18.849 2.536zm-292.46 1.0497s2.451 33.076 4.9662 44.397c-1.951 12.85-10.404 21.493-14.344 34.656-2.0817 5.8528-9.7033 13.65-11.031 5.3438-5.2681-10.315 0.093-22.895-4.2812-30.25-2.1678-6.8337-1.4333-10.754-2.8438-17.906-3.2195-5.8425-5.8364-8.6191-5.3124-13.875-0.5488-23.366-6.4499-18.821-16.844-17.062-8.5832 2.692-20.137 3.6602-26.969 8.5625-14.831 10.12-6.928 16.165-12.687 31.688 0.7737 6.8507 2.4082 9.3396 1.125 15.219-6.0676 27.796 4.4171 25.635 4.0937 26.062-4.4469 6.3436 0.7186 20.832 2.8125 20.125 12.71 3.3129 7.9538 12.56 12.031 17.562 4.0943 4.8389 3.8422 7.2466 21.313 7.9375 31.537 2.9255 81.775-1.0383 93.178-39.373 7.5509-54.18 18.131-101.85-45.207-93.087zm313.97-0.75954c8.8566 0 16.031 7.1747 16.031 16.031 0 8.8565-7.1747 16.031-16.031 16.031-8.8564 0-16.031-7.1747-16.031-16.031 0-8.8565 7.1748-16.031 16.031-16.031zm-300.19 4.0625c5.9689 0.0145 12.984 1.3713 18.687 7 12.22 12.058 12.6 22.836 6.4376 68.469-1.736 12.855-6.4266 23.555-12.5 28.156-12.201 9.2438-27.064 15.745-39.281 18.562-6.444 1.4863-12.03 1.4404-16.375 1.3438-4.6913-0.1044-7.397-2.3123-7.6875-6.25 1.1868-10.629-9.6668-11.823-15.969-11.312-11.228 0.28215-12.391 1.4457-5.3124-3.875 8.0789-6.0724 26.494-5.894 29.937-2.2188 7.285-7.0846 14.789-7.8148 23.969-8.75-1.3288-2.0135-4.4975-10.036-2.25-15.125 4.8683-8.2754 13.068-22.882 21.531-28.281 8.45-10.722 1.3355-5.9231-3.8124-5.8125-2.9411 0.0632-2.677-0.90128-3.125-2.875-1.9247-8.4785-4.6438-24.314-4.5313-33.719 0.054-4.5325 4.3122-5.327 10.281-5.3125zm-53 10.938c3.1985 2.9276 3.0998 6.9478-0.3487 9.8921-3.9438 3.3671-11.648 1.3656-11.745-5.0796 0.6104-6.4936 8.2171-8.2199 12.094-4.8125zm559.16 31.01c-13.465 0.47532-24.334-14.079-19.052-28.349 2.8331-3.8429 4.0226-3.268 4.0226-3.268l15.119 13.905 14.917-15.156c11.894 14.78 1.2531 32.014-15.006 32.868zm-575.56-30.644c-1.1634 4.1812 0.2252 8.386 0.3773 10.429-2.6935 1.8601-14.099 5.0146-20.233 7.9232-4.253 1.3929-7.26-2.6279-6.6211-6.2491 1.7016-6.738 11.713-11.01 18.969-13 2.2368-0.51415 5.9145-0.66521 7.5081 0.89729zm2.2106 19.384c4.1022-0.43443 2.7699 8.4682 1.1657 13.007-1.5741 3.2386-6.0843 3.0372-10.143 3.2148-7.1721 0.31384-16.32 8.4464-20.179 7.0593-1.2754-0.61342-2.145-4.0248-2.25-6.1875 1.0141-11.897 20.86-15.977 31.406-17.094zm21.469 12.719c-1.3972 1.9751-5.803 2.8759-9.4688 1.8125-5.9928-1.7382-6.7923-10.391-1.4687-13.281 9.3721-2.9499 14.85 5.8818 10.938 11.469zm594.9-11.04l-8.3438 12.312-12.406-0.40625 19.156 61.812 9.625-23.906c1.4083-11.036 3.033-22.045 4.3438-33.094zm-264.02 1.3532 15.678 13.172 13.809-13.713c9.7952 22.714-2.0207 32.875-14.426 32.422-13.686-0.49986-28.093-13.684-15.062-31.88zm-348.64 18.272c5.041-0.88232 2.6924 12.673 1.986 13.053-3.2252 1.1375-17.089 2.7452-22.986 7.5721-12.551 9.5416-17.761 3.5322-11.844-8.0312 5.5412-6.6932 25.635-12.569 32.844-12.594zm15.781 0.875c5.5401-0.43691 9.3269 5.7372 5.8663 11.517-4.6452 4.1936-12.642 0.95325-12.522-5.0795 0.026-3.7917 3.197-6.2884 6.6562-6.4375zm-8.6562 34.344c0.7124 3.1818-0.3829 2.1849-6.2188 3.8125-3.2155 0.8967-8.2822 2.9614-13.562 5.5312-7.7443 3.7689-9.9319 5.8257-12.656 5.3438-2.1615-0.50514-4.6475-1.4784-5.2859-3.6851-2.5503-8.8167 4.7293-17.661 21.474-23.565 3.4823-1.2278 9.6909-2.1707 11.815-2.3748 5.6534 0.0982-0.5153 8.6903 4.4347 14.937zm10-13.06c8.0521-0.00034 9.4063 10.708 3.355 12.499-14.155 3.441-12.728-12.646-3.355-12.499zm-10.5 39.219c2.2341 2.2065 2.5019 5.7746-0.062 7.5938-4.6839 2.2273-22.515 0.0135-22.562-5-0.02-3.3082 5.9677-4.3404 11.518-4.3681 5.5505-0.0277 9.3196 0.01 11.106 1.7744zm806.22 17.188-15 19.469 19.031 49.719 18.906-59.594-14.25 5.4062zm-833.31 38.696c1.1948 152.29-4.4485 501.14-4.4485 501.14l42.9 30.081 46.096-32.118c1.1274-109.81 1.7866-185.56 2.8286-287.23l66.313 37.687s2.0087 2.9877 1.5 16.719c-5.1697 37.87 31.159 63.031 55.719 48.406 9.4494-3.8098 10.224-4.4997 12.17-1.5051 5.3548 8.2418 11.016 43.279 11.723 65.59 1.0663 33.617 8.9123 102.24 11.037 102.73l-111.48 182.77-169.62-1.6393 8.0197-685.62c8.6609 10.511 12.583 17.378 27.24 22.995zm631.53-5.5088-8.3437 12.344-9.8438-0.15625 16.344 63.969 21.812-62-11.5-1.5938zm-552.16 500.19s-21.392 14.886-28.219 19.155c-3.5741 1.2815-5.2996 1.5047-6.0937-1.9063-0.9762-4.1921 0.8045-12.076 2.4687-25.125 1.5388-12.066 1.541-12.746-0.2187-30-1.8381-18.021-2.0776-18.778-0.031-42.5 2.2821-26.458 3.022-52.172 1.1563-68.125-1.7739-15.166-1.2443-49.689 0.5624-68.937 2.2122-23.566 1.9034-44.275-0.9374-61.438-5.0651-30.599-5.8231-41.122 0.25-64 2.2725-8.5614 3.4069-13.116 3.1689-27.51-0.2648-16.004-0.487-21.232-5.7002-56.74-3.001-20.441-3.2129-23.245 0.3437-55.469 0.7177-6.5022 0.993-10.855 3.5044-12.885 2.9323-2.3706 33.156-3.6894 33.156-3.6894zm-72.25-494 32.896 0.12051c-2.6883 10.261-3.3714 18.09-3.7396 25.536l-28.938-19.625zm0.2907 13.168 28.647 19.301c-0.083 7.968-0.7887 15.556 0.2535 23.535l-29.035-19.879zm-0.3821 29.959 30.649 21.608c1.0875 8.259 3.4866 16.628 4.3468 24.05l-34.748-24.255zm1000.8 22.875-7.2066 607.9-308.13-3.0936-94.935-189.05s1.2446-17.244 3.7876-26.016c3.074-10.604 3.8872-12.912 7.9896-13.356 10.88 5.836 23.208-1.5362 27.068-9.7903 4.754-10.164-4.3467-25.784-18.61-29.347-6.2899-1.5934-13.226 1.1434-20.274 6.3595-4.0985 3.3215-5.0061 3.6883-5.7707 0.7369-1.7224-6.648 4.4207-24.564 15.158-39.863 5.9724-8.5097 7.5898-10.956 9.4344-7.6597 7.4602 13.333 23.912 10.833 30.247 3.4542 7.6659-8.9299 6.391-29.563-10.598-35.273-33.24-11.171-49.057 22.116-48.638 22.039l-6.5656-40.278c40.345-9.2658 63.601-12.41 76.546-24.412 10.188-9.4458 15.218-25.964 14.192-40.732 0 0 112.34-43.74 165.01-71.147 90.691-47.192 171.3-110.48 171.3-110.48zm-170.11 1.9354-8.4687 14.406-11.719-0.15625 22.812 61.688l19.1-63.78-11.3 0.84zm-829.7 5.5625 35.11 24.969c0.66 7.9502 1.5758 15.036 0.3818 24.017l-36.976-25.236zm692.1 2.54l-9 11.594-10.156-1.2188 19.062 61.031c6.3206-17.468 12.187-41.225 18.438-58.719l-9.4376 0.3125zm-693.12 28.688 36.343 24.839c0.032 7.5076 0.2841 14.584-2.4057 19.849l-34.3-22.73zm761.28 14.562-9.1562 17-11.844-1.7812 20.375 58.531 24.031-57.344-14.375 0.5625zm-761.62 13.75 31.478 23.826c0.4521 0.34221-1.9324 10.633-1.5097 16.486l-30-19.094zm0.4376 28.906 29.375 20.812c-0.046 7.7278 0.3759 15.002 1.5 21.594l-31.906-21.375zm-0.9376 29.438 33.946 24.914 1.5293 19.649-36.006-23.376zm282.25 12.281c32.74 12.75 62.696 75.792 60.571 156.82-1.475 56.251 14.357 136.8 14.054 135.87 0 0-9.5654 1.1399-12.237-1.0179-11.798-41.489-15.296-85.201-16.73-121.23-1.1697-30.046-2.4689-59.535-4.2711-66.443-5.0585-24.291-10.508-52.623-25.716-71.251-11.857-14.051-25.569-16.667-34.011-1.2038-6.9148 12.666 6.9468 33.993 18.813 27.143 2.866-1.5562 4.6034-4.2371 0.875-4.2143-12.236 1.6326-20.192-15.375-12.348-23.312 13.813-13.978 37.162 17.952 25.866 35.174-4.9736 7.4468-17.715 8.589-27.857 5.6696-22.484-11.276-27.775-38.161-19.94-55.712 5.9752-13.384 18.779-21.244 32.931-16.288zm-39.937 7.4688c2.6726 0.16321 0.7786 5.0689-1.8041 12.726-6.0927 18.355 4.4156 47.159 19.46 53.086 4.4948 3.1552 4.2325 4.3238 1.1786 5.9821-9.9571 5.4064-27.638-11.497-32.101-30.106-3.2286-13.464-2.1548-29.282 4.3911-35.908 3.5793-3.6228 6.408-5.514 8.3124-5.75 0.1984-0.0246 0.3844-0.0421 0.5626-0.0312zm-243.06 7.3438 36.281 24.469c1.5951 7.4952 0.731 15.445-0.5313 23.469l-36.293-26.079zm221.03 2.9062c2.7178-0.0458 1.6391 4.49 0.7623 12.786-2.0308 19.212 3.7291 33.286 17.148 45.098 5.6607 4.9822 7.2098 6.5411 4.7054 9.0759-3.5552 3.5982-13.524-1.4377-21.279-9.7603-14.199-15.237-18.564-43.676-7.1805-53.793 2.4984-2.2205 4.4201-3.3823 5.8437-3.4062zm407.35 9.2544c15.66-0.381 28.784 5.881 29.96 25.027 1.7216 28.032-24.594 42.965-42.562 26.625-16.079-16.377 0.8227-41.402 19.561-29.29 9.4203 6.1352-2.1248 19.641-9.7141 12.462-3.4229-3.2378-4.9747-1.2789-2.5625 2.4375 7.2823 11.22 22.074 2.1919 21.167-7.6098-1.7836-19.272-25.432-19.367-34.446-11.962-12.334 10.134-23.287 25.162-31.454 36.11-6.696 9.5042-8.099 9.2277-6.9586-2.6174 3.0141-31.303 32.578-50.589 57.009-51.183zm-426.32-0.067c2.4939-0.054 1.4524 3.5062 1.5088 12.723 0.6618 23.67 10.421 38.543 22.95 46.969 4.1702 4.7428-1.3032 7.9824-9.2471 5.6022-18.091-5.8606-36.077-45.168-20.431-61.732 2.1956-2.3243 3.9123-3.5339 5.2188-3.5624zm-17.781 7.5c2.52-0.1233 1.022 5.0833 1.1161 14.955 0.1981 20.777 6.4797 30.845 21.741 43.746 4.9728 4.2035 5.6057 3.7487 3.5849 6.009-5.3783 6.0153-23.174-2.8694-30.634-15.42-8.8784-14.936-9.8905-37.288-1.308-45.603 2.4002-2.3252 4.18-3.6229 5.5-3.6874zm-17.719 9.75c2.0851 0.041 0.8671 3.7763 1.058 12.75 0.463 21.76 5.2735 32.596 18.929 42.857 8.5798 6.4471 10.714 4.5827 8.0267 7.0446-4.7082 4.3129-17.359 0.3657-26.772-7.8169-14.111-12.266-17.688-42.068-5.9286-52.085 2.0971-1.7864 3.5953-2.7714 4.6876-2.75zm-166.38 0.6562 34.844 24.906-1.2943 20.583-34.674-24.208zm614.84 47.562c-14.289-3.1426-19.558-13.562-17.646-25.252 0.6389-3.9065 2.9595-6.1113 5.3405-0.9617 1.9903 8.1512 7.2445 19.488 14.62 21.781 2.97 0.9236 0.418 5.0332-2.3147 4.4322zm-307.79-28.794c15.569 40.907 14.635 85.352 16.705 127.39 2.751 55.872 12.08 93.61 15.214 99.993 0 0-15.782-0.048-16.548-2.3444 0 0-13.815-74.242-11.04-110.82 0.7563-40.963-6.6959-77.088-11.335-93.34-4.9421-14.413-5.3034-4.9441 7.0035-20.879zm-307.69 11.419 33.538 22.625c-0.5885 7.5681-0.7672 15.142-0.7812 22.719l-32.851-23.969zm455.35 4.7187c0.01 1.2326 4.8621 2.3409 12.525 0.6065 8.5059-1.9252 16.947-1.4401 23.432 0.4431 6.8981 2.0022 7.6919-0.2194 1.4688-3.044-3.0345-1.3772-7.8488-4.4812-15.127-4.4573-7.2781 0.024-22.315 3.7674-22.299 6.4517zm137.17 1.1377c0.8037 1.5309 3.3317 4.9845 5.5938 7.6876 4.2832 5.1181 5.5087 5.1699 3.4967 7.2063-4.6338 4.6901-14.124-2.344-15.025-11.151-0.801-6.434 2.4616-10.444 5.9344-3.7428zm-303.22-2.674c15.484 22.766 17.05 75.655 16.829 113.23-0.1992 33.838 10.348 95.994 11.276 95.741-3.2854 1.872-7.6588 1.1359-11.75-0.5102-3.989-5.3565-6.2659-20.242-10.404-60.519-1.0676-10.391-2.9773-43.426-3.1295-70.004-0.1342-23.448-12.492-74.369-12.492-74.369s5.1367-3.5412 9.6707-3.5689zm-17.685 5.3801c13.947 32.368 15.827 64.336 15.913 103.09 0.081 36.662 7.5984 79.719 10.403 98.712-4.8734 0.434-10.014 0.764-12.022-1.4563-1.2722-1.7959-2.2602-4.5945-2.8452-8.1937-6.0963-31.796-7.1618-66.287-8.6199-95.469-2.1628-45.224-2.7252-56.416-8.8048-79.034-3.4484-12.828-4.727-12.58-1.9503-14.998 2.1123-1.8391 6.1094-2.7187 7.9266-2.6562zm161.94 9.75c0.1799 14.972 2.1941 8.9019 7.5127 6.5938 3.9854-0.281 7.2046 1.942 14.564 4.7652 9.3712 3.5951 8.5044 4.7433 15.173 1.5912 4.1133-1.9441 7.3797-2.5888 9.3101-0.9737 7.651 6.401 17.695 3.0049 23.39-2.0077 4.421-2.2266 9.1936-0.9085 12.903-0.5135 5.3506 0.5699 4.0048-2.8654 4.7635-9.6242 0.6737-6.0015-1.6133-6.5615-7.8591-4.625-6.3913 1.9814-12.711 2.1866-18.208 0.4213-14.056-4.5143-24.43-1.8654-31.446-0.8666-16.568 2.3585-17.426 0.678-21.139-1.7443-2.7697-1.8069-7.3346-5.1293-8.9309-5.0548-1.5963 0.074-1.1462 5.5006-0.033 12.038zm146.75-4.7457c1.5841-0.781 2.2775 1.367 4.4256 4.2503 3.5917 4.8208 4.627 7.0826 1.5529 7.4822-8.1352 1.0572-10.142 0.1791-9.7831-4.8618 0.2859-4.0194 1.193-5.5832 3.8046-6.8707zm-325.8 2.3c11.743 12.179 13.788 79.572 14.933 94.091 3.155 78.629 10.449 90.024 6.5313 95.865-4.5096-0.1411-6.1074 1.5059-8.9951-2.4801-9.7819-28.928-8.7604-58.496-9.9744-88.544-1.7537-39.799-5.3892-61.395-10.698-81.182-3.5296-13.157-3.4814-13.373 3.2813-16.875 1.1997-0.6212 3.8505-0.9277 4.9215-0.875zm-16.191 9.2353c4.0569 9.6054 11.86 53.101 12.46 90.564 0.477 29.746 6.7349 87.984 8.0452 88.32-4.3411 0.3311-9.5323-0.625-11.591-3.9401-12.167-57.501-7.2179-113-21.409-170.85 0.9355-2.7805 5.7563-7.3194 12.494-4.0919zm-238.26 3.6085 34.75 25.687 0.4376 21.5-35.469-25.949zm521.98 4.8699c-19.937 7.4063-25.161 13.645-22.122 19.239 2.5593 4.7114 10.471 3.1854 31.718-5.3201 15.88-6.3569 20.79-3.41 23.85 6.5777-0.3698 14.68-14.635 16.182-22.642 14.046-3.4531-0.1816-2.9439 0.1449 0.6702 4.7984 16.156 13.061 36.57-11.722 26.81-27.766-7.609-14.638-21.079-18.969-38.283-11.575zm-124.54 4.1504c-16.543 12.6-11.036 35.811 2.5271 39.479 3.7609 1.9794 9.4205 1.1538 11.656-0.2813 2.0621-1.3235 2.076-3.5256-2.0937-4.2813-12.608-2.2848-19.651-11.658-13.406-20.969 6.0605-9.0354 17.017-7.1243 38 2.2813 18.142 8.1315 26.181 5.8183 28.469-3.5938 1.0102-4.156-0.091-8.0818-8.844-8.5336-24.346-1.2567-40.282-16.308-56.308-4.102zm218.43 38.584c-0.9894-6.6724-11.91-0.0008-19.253 11.69-7.2227 11.5-7.9788 13.149-9.2398 1.0804-1.8801-17.996 16.971-31.778 28.611-32.059 14.032-1.4116 23.121 6.5575 23.348 15.592 0.4468 17.785-20.77 17.654-23.467 3.6962zm-617.06-19.574 36.819 26.075s1.0573 13.707 0.15 21.05l-37-24.438zm446.41 15.062c-16.332 10.733-7.1179 30.888 4.1624 33.305 11.892 2.5481 12.851-5.7629 1.0313-8.3908-6.3029-2.5815-7.8377-8.6392-5.2985-13.263 5.7893-9.1688 16.158-3.0292 22.199-0.057 13.403 6.6168 20.362 9.066 24.687 4.6876 7.6876-7.7808 1.1375-21.942-8.9374-17.125-2.719 1.2997-4.7678 2.5411-10.488 1.0347-8.6875-1.9509-19.117-4.0482-27.356-0.1911zm-446.53 15.303 36.219 25.572-1.4375 22.125-33.98-25.694zm0.3124 30.447 34.051 25.018c-0.6441 9.3492-0.4628 13.077-0.1758 19.044l-34.469-22.969zm608.38 13.554c27.554 3.0974 17.948 34.656-1.192 25.821-5.0828-3.9389-6.6337-3.6497-12.544 10.17-7.5594 17.676-9.3201 16.204-8.0186-4.326 1.027-20.104 10.439-31.673 21.755-31.665zm-217.45 1.6671c0.6512 0.026 1.177 0.1417 1.5 0.4063 1.8329 2.1181-3.8819 10.31-8.6962 15.095-3.531 2.2437-11.938-4.0757-9.8313-7.0662 2.4527-2.9055 12.573-8.0488 17.028-8.4349zm36.578 16.856-4.9399 0.6353c-7.207-16.696-22.734-13.12-27.734 2.2124l-6.789-0.8719c7.1436-18.785 31.81-30.013 39.463-1.9758zm138.86 5.8059-8.3507 0.3788c-7.2255-18.107-17.789-20.95-27.033-3.3009l-6.4376-1.961c11.452-22.563 30.079-24.116 41.821 4.8831zm-41.422-21.134c4.2735-0.1962 3.6928 1.7627-0.8397 7.7734-3.9403 5.2257-4.8916 6.0413-8.7321 3.1027-6.2989-4.8197 4.3685-10.601 9.5718-10.876zm39.534 1.1044c0.8155 0.061 1.7658 0.1544 2.8438 0.4374 8.5707 2.2512 12.459 6.3821 8.1638 11.549-2.6768 3.2207-5.2574 4.4614-6.9573 2.2538-5.6642-9.6532-8.8084-14.596-4.0503-14.24zm-130.03 3.7774c0.8486 3.5749-2.0089 6.0647-5.1085 3.0568-1.2626-1.2252-2.3451-3.302-2.1647-4.8138 1.9956-1.8239 6.677-0.2178 7.2732 1.757zm-435.2 5.9188 35.007 25.919c1.0318 8.9664 1.1721 15.766 1.0289 21.877l-36.067-24.659zm515.54 15.187c20.174 14.257 44.07 14.417 59.194 2.3721 3.3806-2.6918 6.2972-2.7673 6.3135-0.1324-2.2699 9.756-28.438 21.93-48.63 14.522-11.093-4.0698-20.197-8.0755-27.362-18.596-4.2503-6.8452 4.6341-2.34 10.484 1.8349zm-8.7233 6.6785c29.41 26.123 53.192 19.332 71.324 6.6378 2.6587-0.6234 2.6682 1.7618 3.1939 6.206 0.6736 5.6937-4.0858 8.4313-17.045 12.107-25.054 7.1069-54.204-1.4982-59.232-18.304-0.5689-3.2984-1.7727-7.5878 1.7588-6.6474zm-507.38 8.0224 35.509 25.123-1.4157 18.784-34.594-24.125zm0.1562 28.812 33.523 23.439-0.3355 15.561l-32.7-24.1zm245.81 10.875c143.97 34.775 246.56 20.743 347.28 4.4997l86.469 175.84-536.36-7.071c35.85-56.219 65.891-117.82 102.61-173.27z" transform="matrix(.99977 .0061224 -.0061273 .99998 -3879.5 -418.48)" fill="#131f67"/>
    <path d="m3780.4-345.31v19.031h19.469v165.56h-19.469v20.5h56.562v-20.5h-15v-46.969l22.719-31.469 34.063 78.438h-21.75v20.5h61.687v-20.5h-14.75l-45.156-100.84 42.906-65.031 15.906 0.3125v-19.031h-61.25v19.031h17.656l-52.031 79.844v-79.844h15.438v-19.031zm475.5 102.22 26.73 49.966 0.058 2.3504 14.775 28.855 2.2284 1.4297 3.3326 6.2859 0.3709 3.0566 8.2498 13.194-0.053 2.8332 34.996 65.092c28.864-10.775 265.96-30.175 353.75 1.5625l12.786-21.67 3.0594-0.02129 22.548-39.554-0.3591-3.3273 7.588-8.6514 1.1018-3.9404 24.88-38.935 0.088-6.2766 31.12-51.875zm536.84 7.4688s-16.23 31.201-24.594 43.812c-6.7681-5.3382-26.39-1.7139-25.219 18.969-31.987-12.116-39.7 26.037-14.969 34.625-12.691 11.08-24.82-1.4517-34.442-9.9496-9.4118 2.3314-28.952 9.2466-40.017-11.103 0 0 4.6252 2.497 9.2406 5.2093 26.164 7.9537 28.273-27.346 8.8124-33.125-2.4503-0.64422-7.0624-0.90625-7.0624-0.90625 6.5415-27.145-35.455-36.622-36.25-4 0 0-4.9929-0.8155-8.7813-0.125-22.263 4.0578-17.162 36.884 5.5937 35.312 3.1358-0.21655 5.9376 0.34375 5.9376 0.34375-0.371 5.2573-27.911 15.303-47.75-2.7812-9.4088 7.1658-24.302 16.148-43.719-1.7188 12.77-0.5195 25.015-4.153 24.875-18.625-0.091-9.4227-8.565-17.833-20.781-18.281-0.6929-10.528-8.5332-20.573-18.719-21.344-12.431 0.72545-18.788 10.754-18.875 21.344-10.571 1.0918-20.461 10.408-18.188 21.094 3.101 14.578 14.334 16.372 27.156 13.594-15.596 25.068-40.988 11.992-48.813 4-9.3227 8.6964-25.576 20.472-45.594 4.375 10.669-1.8253 22.533-8.0829 20.531-22.969-1.5777-11.731-14.747-15.214-20.469-14.594-0.013-7.7512-5.868-20.54-19.688-19.219-15.079 1.4415-14.178 20.506-14 20.656-12.453-1.0265-21.489 13.619-17.938 22.969 4.3222 11.378 13.372 14.915 30 11.844-19.401 18.204-31.723 11.138-42.312 7.3125-9.373 9.8221-21.888 12.99-34.719 4.2812 28.7 1.3677 24.135-49.365-9.9063-30.969-2.9429-9.5169-7.329-21.234-25.156-18.5l-20.312-39.219zm-657.19 32.438c-1.4736 0.0174-2.9589 0.091-4.4687 0.1875-54.978 3.514-75.276 41.725-72.688 75.562 1.7466 22.836 14.207 42.331 32.312 52.906 7.7665 5.9161 9.3965 8.136 8.0313 10.906-1.611 3.2688-3.7866 2.9544-8.1876-1.0938-62.894-60.168-151.46 10.514-112.28 88.531 31.154 62.039 118.57 47.682 137.31-22.125 1.4899-5.5489 3.8887-7.959 6.4687-6.4375 1.832 1.0804 0.3817 8.2741-1.0937 19.219 0.1058 39.519-41.022 101.71-43.344 103.81l107.84-0.0937c-24.737-33.777-39.249-66.908-42.25-115.12-0.3009-14.59 5.1619-11.482 9.7813 5.0625 21.076 75.483 117.07 74.778 138.84 1.25 20.313-68.603-56.079-125.93-106.72-79.75-7.2815 6.6408-12.213 7.8732-12.313 3.0312-0.045-2.0613 6.7575-9.6965 13-14.562 12.635-9.8488 23.169-28.287 23.281-46.969 0.2266-37.749-27.85-74.839-73.531-74.312zm-57.937 321.47h-0.125c-0.019 0.0802 0.043 0.0744 0.125 0zm447.6-303.91c1.388-0.0578 2.8637 0.23037 4.3125 0.96875 4.4887 2.2838 5.3299 6.2693 2.5937 12.156-0.9619 2.0678-2.3508 4.4399-2.125 6.625 31.604 58.279 101.29 32.233 107.84 5.1562 0.4159-1.7172-0.3817-3.5969-1.2812-5.4375-2.6785-4.4545-2.3247-8.1029 1.1562-11.156 7.4156-6.5046 18.054 1.1725 13.75 9.9375-1.1362 2.3125-2.332 4.8454-1.4688 7.9375 17.891 40.617 53.512 43.668 83.406 27.594-13.771 24.653-67.148 39.768-89.562-19.594-35.774 48.361-92.546 47.448-118.31-7.1562-23.174 55.852-93.085 57.174-118.53 10.781-23.162 53.073-76.879 41.032-92.094 7.8125 49.9 36.109 82.779-1.5856 88.688-17.656 0 0-1.1593-1.8764-2.75-3.4375-6.3848-6.2659-6.2095-13.637 0.4062-16.562 8.4751-3.7477 16.413 4.3884 12.063 12.375-1.2186 2.2371-2.3 2.7276-1.5 4.6562 15.53 36.19 92.008 46.705 107.5-4.0625 0.5249-2.9006 0.2251-5.5814-1.0938-7.7812-3.635-6.0634 0.9855-12.906 7-13.156zm-223.25 20.5c12.063 0.68482 8.6982 11.056 6.2812 11.844zm447.94 6.4688c0.082 0.1949-7.4375 13.438-7.4375 13.438-3.9821-6.3579-2.9485-14.274 7.4375-13.438zm-40.7 66.9s-7.7028 17.037-10.25 18.469c-142.89-36.6-342.25-4.7762-347.16-1.25l-8.7812-16.531c125.28-25.029 250.2-19.683 366.19-0.6875zm-864.56-5.7812c-4.4245 0.05336-9.0909 1.0648-13.906 3.25-24.845 11.275-26.975 39.771-4.6563 62.281 3.5559 3.5864 6.4883 6.9916 6.5 7.5625 0.053 2.5395-2.4735 2.0788-8.5624-1.5938-34.143-20.585-67.471 4.1202-53.594 39.75 11.208 28.777 55.48 24.412 62.344-6.1562 0.9133-4.0781 3.8619-6.5792 5.1562-4.375 1.1041 1.8803-2.144 17.446-5.4375 26.094-4.3247 11.356-6.8934 17.301-9.5 21.938-3.1767 5.6499-3.3943 7.5058-0.9375 8.0938 3.5358 0.84623 42.238-0.21616 42.219-1.1562-0.01-0.51946-1.6348-4.2996-3.625-8.4375-7.778-16.171-13.708-44.161-10.031-47.344 2.0705-1.7914 2.7588-0.87763 5.5625 7.4062 13.849 40.954 65.329 31.074 64.344-12.344-0.6705-29.537-27.696-42.509-52.063-25-5.542 3.9824-7.1818 4.2034-7.6874 1.125-0.2043-1.2288 0.7608-2.6451 2.7187-3.9688 30.855-20.86 12.128-67.498-18.844-67.125zm623.19 258.97c-13.794 53.208-47.192 58.622-87.531 65.094-49.963 8.0157-82.523-10.187-97.75-38 0 0-71.456 27-97.531 42.688 54.216 24.838 125.84 79.834 166.56 142.28 14.506 19.041 13.774 14.733 13.75 56.5-0.057 90.575 0.1563 124.25 0.1563 124.25 22.369 3.3513 23.594 18.733 22.375 36.01 17.954-7.9282 35.23 1.7736 35.153 18.716-0.1409 31.14-30.738 22.68-37.093 19.248 9.9514 27.447-1.7295 38.812-13.654 40.16-14.701 1.662-31.564-5.4056-26.648-36.82-16.026 6.2263-36.319-5.0872-39.134-24.001l-0.7813-32.031c39.638-74.577-10.121-135.22-56.844-155.16 0 0 13.218-27.328 30.312-35 1.7389-0.52441-10.365-18.275-30.719-14.406-9.3672 0.19345-7.1875 0.12923-16-11.312-17.42-22.618-25.621-24.168-42.594 0.0312-7.4711 10.652-9.257 10.943-18.094 11.125-9.7355 0.201-24.675 7.192-27.875 13.438-0.7328 1.4287 3.0847 2.8879 8.1562 8.8125 7.2971 8.5245 18.557 20.234 16.781 32.156-38.476 15.653-102.3 84.339-35.187 172.28l-48.531 0.625-2.3125-313.06-33.75 18.781 1.5 245.22-9.625-3.1875c0.7393-78.218-0.4405-156.38-2.9062-234.56l-89 64.844 3.9687 367.69 9.4687 2c7.0234 50.099 106.27 15.06 112.06 19.406l1.1874 204.31-4.3437 10.125 78.969 43.156 72.438-37.562s9.7769-1.7589 13.437-3.6875c30.036-15.826 52.421-12.276 68.75 10.938 10.074 14.321 11.781 16.438 11.781 16.438 6.106-41.318 42.745-56.546 78.281-45.75 26.138 7.941 61.852 33.985 72.781 65.781 0 0 1.9651 4.7849 3.9062 6.9375l1.5 0.6563c-0.093-0.8285-1.7252-4.7914-2.3437-6.7188-36.653-84.174-139.94-97.084-155.88-28.313l-14.625-20.5 76.906-47.156 105.09 69.156s-4.9396 24.311-5.5 34.813l1.8125 0.8438c0.5125-1.3252 1.2589-6.3699 1.7188-9.5313 1.669-11.483 4.7135-21.128 8.8437-28.5 2.4879-4.4421 5.3692-8.0573 8.5937-10.75 6.2766-3.6454 12.098-3.2718 18.469-9.25l-15.344-11.469-0.3437-36.812 30.844 43.188c9.6979-2.2432 47.471-13.514 69.875-1.0312 2.5297 0.78285 35.387-8.5834 55.844 37.25l98.5-40.906s6.2798-3.5362 6.3438-4.4688c-98.218-36.242-197.39-164.56-187.84-166.62 0 0-0.2905-13.167 0.4688-45.469 0.7951-36.006 0.3622-72.762 0.9687-108.89-33.426-10.671-25.116-37.61-25.116-37.61-20.092 4.4075-23.296 0.5056-28.384-3.0312l-3.4687-34.094c12.049-10.251 19.278-11.206 34.187-7.9375 0 0-7.2287-14.813-0.6562-27 5.5343-9.6396 20.268-15.724 32.031-8.9375 15.206 10.359 10.358 32.062 8.1876 35.094 15.804-7.0786 35.125 0.81041 39.875 16.438 2.3667-46.211 6.3833-97.944 15.656-138.25 17.099-72.747 45.092-148.93 80.156-208.84 5.7355-10.008 13.059-20.035 18.969-29.406 5.485-8.346 8.0938-13.75 8.0938-13.75s-7.4994 4.1297-15.438 6.3438c-11.415 3.0954-20.01 6.0418-21.312 7.3438-8.3496 7.0279-19.304 12.236-28.25 16.125-31.547 12.276-52.754-6.032-65.852-33.993-7.2909 35.512-39.836 65.559-87.833 46.887-27.118-14.392-35.644-23.594-61.003-61.143-2.1297-3.8383-7.625-8.25-7.625-8.25zm1.0454 5.8039c17.946 35.479 44.812 60.617 70.926 70.665 46.626 15.284 77.384-14.566 86.056-41.991l8.9982 15.236-70.597 50.121-106.53-67.72c1.7815-1.6324 11.308-25.493 11.144-26.311zm320.58 2.4461-31.625 18.625s-21.006 33.893-28.062 46.656c-36.895 65.159-64.589 136.05-79.031 206.38-5.8352 25.753-12.03 72.792-14.094 95.406-3.2927 36.075-3.1359 50.887-2.1876 83.969l2.4688 2.6875s-3.8762 6.8007-6.6562 12.531c-7.5526 15.573-9.3978 24.381-8.9376 42.438 1.0529 41.55 26.313 81.323 62 97.531 2.0109 0.91329 4.6876 2.0938 4.6876 2.0938s-6.117 16.54-17.219 28.188c-7.4057 7.7685-8.9931 8.1482-6.375 11.969 3.6412 5.3166 15.397 9.9332 30 9.7188 5.1682-0.0758 5.1362-0.0892 14.688 10.312 18.646 20.307 24.252 19.89 41.219-3.125 5.0435-6.8413 7.9139-8.4801 15.281-8.6562 10.838-0.25859 30.618-9.005 30.531-13.094-13.344-5.9086-28.802-36.366-26.344-36.688 72.965-38.606 88.426-118.63 35.135-177.47l50.896-0.8125 1.875 319.22c9.9656-6.6147 32.5-20.844 32.5-20.844l-0.7452-248.4c3.4999 0.6638 7.0658 3.1708 13.87 4.2779l2 234.88s6.6202-2.685 12.375-6.4375c28.441-18.734 84.125-62.062 84.125-62.062l-2-362.01h-7.4375l1.1875 361.78-86.406 63.094-0.5626-224.84s6.8259-1.0183 9.375-1.375c25.29-3.5385 37.004-35.786 20.219-56.844-5.9582-7.4746-1.7307-6.9455 10.938-9.375 22.467-1.9801 34.908-18.961 28.375-31.062-2.8026-5.191 0.8455-4.6304 3.2187-9.5625 1.5565-3.879 1.2641-8.6896 0.5938-12.5-0.88-5.0006 1.1708-7.2144 2.4375-10.406 1.9841-4.9998 0.059-10.648-3.25-15.344-3.4925-4.9556-2.529-10.275-2.5625-13.562-0.1518-7.3513-2.811-8.401-10.594-15.5-5.888-5.3707-1.1622-6.542 7.5-11 13.629-7.0138 14.567-31.835-3.5624-42.406-9.691-5.6509-27.32-5.19-65.531 0.84375-14.487 2.2874-31.5 3.8125-31.5 3.8125s-0.1274-141.52-1.125-214.47zm0 5s77.582 45.385 76.969 46.656c-26.055 35.685-123.24 177.87-123.94 349.81-71.264-8.9428-100.44 46.774-103.91 46.562-9.3656-210.46 76.05-361.03 119.81-424.94zm-48.937 27.688-0.25 5.1562-15.375 22.969-0.4063-22.969zm-23.75 8 0.5624 37-31.5 24.062-1.8437-38.594zm-291.97 8.4688 16.188 11.188l-0.6 36.71-24.4-44.34zm443.12 12.375 0.125 26.562c-62.106 87.602-94.694 187.66-104.66 314.38l-15.125-0.5c4.002-126 46.423-240.97 119.66-340.44zm-420.62 2.7188 38.312 25.031-1.6563 41.875-34.781-22.312-3.25-8.5625zm231.94 1.7812-0.1563 38.938-29.594 21.969-1.375-38.656zm-358.7 10.19c4.3898 0.053 7.8966 3.2499 8.7188 9.3125 3.2493 25.879 22.941 18.41 27.625 26.188 1.7716 2.6536-2.4276 4.9592-15.906 3.875-24.712-1.8484-42.726-21.836-30.094-35 3.2466-2.9829 6.6527-4.4112 9.6562-4.375zm170.78 16.688 32.719 20.844-0.094 43-32.062-19.562zm149.28 0.125 2.5313 38.031-35.813 23.812l-1.3-37.78zm68.156 0.15625-20.563 43.781-119.97 86.312-99.562-64.469-18.469-42.25 116.16 75.781zm-323.53 17.375c31.88-0.3908 56.346 33.446 64.719 63.094 6.0878 19.604 7.0136 26.659 7.6563 57.781 0.6572 31.703 1.6518 37.177 7.5937 41.656 3.6608 2.7585 4.725 2.0139 5.1876-3.5938 1.0328-12.457 15.925-4.781 16.187 8.3438 0.2888 14.578-15.76 19.262-27.625 8.0625-6.3183-5.9628-6.3997-5.9056-8.375 5.8125-1.316 7.8494-10.464 56.99 12.906 69.219 4.4002 0.41646 5.4544-3.1121 2.1875-7.2188-6.558-8.2377 6.5409-17.744 17.219-12.5 12.905 6.3391 11.598 27.138-2.1876 34.531-15.769 8.459-36.161-1.1545-45.687-21.531-6.9909-14.958-6.9604-35.697 0.125-66.5 3.2655-14.197 4.7023-23.237 5.4374-34.125 0.2414-3.5744 0.6649-7.4665 0.9376-8.6562 0.7605-3.3184-0.8768-3.4754-6.5313-0.625-15.43 7.7786-32.26 2.2502-36.406-11.969-4.9573-17 13.991-34.564 25.688-23.812 4.4403 4.0808 3.9014 8.134-1.4063 10.75-9.1984 4.5316-6.0568 16.453 3.7187 14.094 32.229-9.6449 2.7626-100.08-33.531-106.34-23.996-4.14-42.834 23.193-25.469 37.812 6.8031 5.7276 13.707 2.6541 12.219-5.4375-2.072-11.287 12.922-10.067 18.469 1.5 9.0233 18.824-14.273 34.144-36.031 23.719-39.05-23.188-12.355-73.351 23-74.062zm144.53 7.1875 32.156 21.594 0.2812 41.969-31.937-18.938zm70.844 3.625 0.1563 38.531-31.031 22.562v-41zm83.594 25.25-15.875 44.219-100.16 68.5-82.625-51.812-14.219-40.906 97.344 63.062zm-650.03 3.2188-0.031 223.84c-32.454 1.3813-51.085 33.481-26.781 63.812 0 0-4.2353 0.57094-9.1875 1.25-21.954 3.0108-36.661 14.647-33.75 28.75 0.8915 4.3207-0.011 8.6856-1.25 10.844-1.9542 5.7959-1.4376 10.223 1.1875 15.219 2.0609 3.9238 1.7182 5.5008 0.5625 8.4062-2.4902 6.2555-1.895 11.076 1.0312 15.844 3.6154 3.5374 2.6114 6.3934 2.125 12.062-0.5793 8.0066 0.8596 11.228 5.9063 14.344 6.5055 4.0168 8.9298 10.604 1.5313 10.062-3.6722-0.26867-16.594 12.188-16.594 12.188l-1.219-359.22zm175.9 28.7c5.8077-0.0148 11.788 7.2809 20.375 19.594 5.1907 8.8187 5.281 7.6224 17.156 7.1562 12.129 0.88353 19.516 4.0865 22.688 7.75 1.1982 1.387-1.983 1.7486-9.6563 9.5312-7.9551 8.0709-9.0591 11.28-14.344 20.312-1.9031 3.2568-6.0556 3.5642-8 0.59375-1.571-2.4035 2.4529-10.221 10-19.438 10.647-10.276 8.4101-11.312-7.0625-9.6875-10.869 1.1413-12.03 0.59843-16.156-6-12.306-24.464-18.843-23.638-30.625 0.75-3.2139 6.825-1.9365 6.3865-15.875 5.3125-10.976-0.84557-13.692 1.9235-7.5 7.6875 9.67 7.9379 13.437 26.665 12.906 26.438l-7.4688 0.6875s-2.282-4.2172-3.2812-6.875c-2.0245-5.3801-7.4671-13.464-13.375-19.844-8.368-9.0395-3.7711-13.984 14.906-16 10.409-1.1233 10.647-1.267 15.438-8.2812 8.4372-12.356 14.067-19.673 19.875-19.688zm454.31 22.281-10.781 38.188-85.438 59.906-69.5-46.375-9.2187-35.906 79.844 50.562zm-294.56 30.25s24.696 48.108 33.656 79.281c7.7945 27.119 18.632 105.64 15.781 110.47-6.0705-8.3307-26.134-6.4517-26.406-6.375 1.6987-9.1983-5.7348-27.737-22.844-31.406zm281.09 17.594-8.5313 37.594-72.75 52.594-60.031-41-7.875-36.344 66.438 44.375zm-422.9 2.1l9.4375 3.2812 1.7813 67.906 72.8 12.09 1.6562 11.625-84.281-13.594c-0.8836-28.959-1.375-81.312-1.375-81.312zm-36.938 2.0312 2.0313 78.969c-0.7872-0.26241-60.673 8.2728-83.594 14.281l1.3438-10.812s41.629-9.0534 71.781-12.531c0-22.082-0.1734-45.308-0.2188-67.812zm677.12 14.531s9.904 0.92081 31.094-2.8125c54.628-9.5576 69.423-5.6846 76.406 11.156 7.6301 26.113-21 26.745-26.101 10.168-3.2456-10.744-14.978-8.391-54.149 0.89416-33.501 7.941-54.728 1.5837-54.32-17.394 0.4196-19.513 22.648-21.238 27.07-2.0121zm-449-14.28c6.7549-0.0981 12.339 5.3076 12.438 12.062 0.098 6.7549-5.3076 12.308-12.062 12.406-6.7549 0.0981-12.308-5.2763-12.406-12.031-0.099-6.7549 5.2763-12.339 12.031-12.438zm-177.47 2.1562 8.625 2.5938s1.2714 51.511 1.5313 51.594c18.561 4.0911 57.531 11.406 57.531 11.406l2.0624 10.188c-16.312-3.8292-68.312-12.344-68.312-12.344-1.6225-22.339-1.4376-63.438-1.4376-63.438zm-62.969 0.96875s0.033 41.105-0.6563 63.188c0.2902-0.19338-44.127 7.0718-66.687 11.75l1.75-8.25c17.84-4.0279 37.258-8.0682 56.906-12.188-0.3896-16.168-0.375-51.625-0.375-51.625zm31.719 8.8438c5.4237-0.0788 9.9213 4.2951 10 9.7188 0.079 5.4237-4.2951 9.8587-9.7187 9.9375s-9.8587-4.2326-9.9375-9.6562c-0.079-5.4237 4.2326-9.9212 9.6562-10zm739.12 25.656c6.0435 8.9531 11.109 8.6859 17.063 7.8125-1.4998 0.4412-8.5273 4.5964-8.125 5.9688 0.2011 0.6862-2.9651 12.004 1.8437 12.469 18.128 1.7501 8.9547 20.575 11.125 23.469 4.9011 5.5851 8.4863 9.1284 5.125 16.094-2.9812 6.1827-7.2633 5.9871-3.9375 11.281 7.2234 10.858-2.7558 13.109-1.875 20.5 0.6071 4.4621 2.1772 10.559 0.5312 14.031-4.9623 10.466-22.488 16.434-41.969 17.25-2.7758 0.12422-0.67-4.4117-1.9687-7.2812-4.8162-3.045-2.1798-8.1746-0.5626-11.531 1.5978-4.4565 1.6117-4.46-1.375-6.7188-8.3134-5.1657-7.8859-7.5476-7.2187-11.281 1.8219-11.036 0.1079-12.116-3.2187-13.75-4.2625-2.0934-3.6793-6.7488-1.7813-12.719 1.3099-4.127 0.3826-5.1606-1.625-8.9062-1.1815-2.2018-1.5334-3.3987-1.5625-4.8125 0.5989-5.6992-4.5079-5.6792-11.656-0.0937-6.0616 10.445-8.1424 24.152-11.938 32.812-2.9363 6.6519-3.4018 13.602 0.094 28.938 6.7098 23.441 1.7271 27.349-24.656 22.344-19.841-4.8799-25.702-26.052-20.188-51.969 0.8923-4.192 0.6476-8.2458 0.25-11.531-2.159-17.841 2.4528-34.978 14.906-46.688 20.786-19.545 31.063-22.522 74.031-19.781 16.816 1.1893 18.094 2.25 18.094 2.25s0.073-8.0918 0.5937-8.1562zm-309.47 5.375-5 36.344-40.344 28.469c-18.995-14.998-33.664-10.002-47.031 6.0625-10.589-5.3686-31.75-20-31.75-20l-5.4063-41.219 58.656 40.688zm-428.78 8.625c5.4225-0.0788 9.8588 4.2638 9.9376 9.6875 0.079 5.4237-4.2339 9.89-9.6563 9.9688-5.4237 0.0788-9.9212-4.2326-10-9.6562-0.079-5.4237 4.295-9.9212 9.7187-10zm422.03 37.219-2.2187 35-14.344 10.781-14.438-1.4688-3.4063-21.688zm-422.28 0.28125c5.4237-0.0788 9.9213 4.2951 10 9.7188 0.079 5.4237-4.2951 9.8587-9.7187 9.9375s-9.8587-4.2326-9.9375-9.6562c-0.079-5.4237 4.2326-9.9212 9.6562-10zm39.563 1.0938c5.4222-0.0788 9.8587 4.2326 9.9374 9.6562 0.079 5.4236-4.234 9.89-9.6562 9.9688-5.4237 0.0788-9.8886-4.2639-9.9688-9.6875-0.079-5.4237 4.2638-9.8587 9.6876-9.9375zm-78.656 1.875c5.4236-0.0788 9.89 4.2638 9.9687 9.6875 0.079 5.4237-4.2326 9.89-9.6562 9.9688s-9.9212-4.2638-10-9.6875c-0.08-5.4236 4.2639-9.89 9.6875-9.9688zm730.59 1.5938c2.7677-0.22349 6.8659 3.8812 4.875 10.031-2.6672 7.0188-0.7935 9.4052 3.6563 15.094 3.765 4.813 3.0998 5.4809 2.5313 8.5625-0.8659 20.206 12.151 11.473 6.5 26.156-1.2299 3.195 0.4 7.7573 0.9687 11.531-1.2714-3.4558-25.217-3.1395-27.25 0.375-3.4073-0.50817-7.7234-23.002-4.2813-25.969 0.4429-0.009 2.9369 3.8572 4.2188 6.0312 3.2162 5.4546 3.908 5.2554 2.9062-1.0625-3.9773-25.076-1.5953-50.596 5.875-50.75zm-612.28 1.75c5.4236-0.0788 9.89 4.2638 9.9688 9.6875 0.079 5.4237-4.2639 9.8587-9.6876 9.9375-5.4236 0.0788-9.8587-4.2326-9.9374-9.6562-0.079-5.4237 4.2326-9.89 9.6562-9.9688zm-158.9 1.82c5.4237-0.0788 9.8578 4.2639 9.9375 9.6875 0.079 5.4237-4.2325 9.8587-9.6563 9.9375-5.4227 0.0788-9.9212-4.2326-10-9.6562-0.079-5.4237 4.2961-9.89 9.7188-9.9688zm385.25 2.8438 29.438 19.094c0.487 6.0193-0.2905 14.637 1.6875 17.562-19.212-1.7909-28.937 9.1557-28.938 9.1562zm-302 15.78c32.228 0.23451 63.443 5.3723 92.438 14.75l-2.2813 10.375c-58.002-14.928-122.83-15.715-184.78 0.6875l-4.8125-10.906c31.214-9.7187 62.543-14.479 93-14.875 2.1574-0.0281 4.2889-0.0469 6.4375-0.0312zm-182.19 14.094c8.4464-0.14657 17.078 3.0001 23.156 9.8125 11.42 12.794 5.9243 36.521-10.219 44.062-24.156 11.286-49.32-12.847-39.062-37.719 4.2592-10.327 15.265-15.968 26.125-16.156zm597.84 3.0312-0.375 10.406-7.3437-6.125zm-153.72 0.46875c10.65-0.15467 19.408 8.3812 19.562 19.031 0.1547 10.65-8.3498 19.408-19 19.562-10.649 0.15466-19.408-8.3499-19.562-19-0.1547-10.65 8.3506-19.439 19-19.594zm-443.59 0.625c-2.5952 0.0368-6.9143 1.097-8.875 2.9062-5.1404 4.7434 0.023 4.8778 6.8124 6.125 12.057 2.2149 15.378 12.597 14.281 23.812-0.997 10.193 2.4276 10.034 5.1875 6.25 11.236-15.403 1.6441-37.849-17.406-39.094zm559.59 5.125c-0.2469 0.12932-0.5313 0.3125-0.5313 0.3125 0.1352 0.11413 0.3192-0.0301 0.5313-0.3125zm-381.06 6.0625c14.429-0.29796 15.942 23.429 3.1875 49.938-3.8347 7.9697-5.7918 6.9777-10-5.0625-10.373-29.678-8.1196-44.567 6.8125-44.875zm33.375 0.6875c2.7825-0.14068 5.4794 0.92126 7.6875 3.4375 7.7574 8.8428 1.791 23.156-18.875 45.188-5.024 5.3558-7.6247 7.3994-9.4687 7.4375-5.1737 0.10684-5.1513-0.75275 0.7187-19.875 2.5887-8.4328 5.1481-17.691 5.6875-20.562 1.723-9.188 8.1287-15.316 14.25-15.625zm-52.219 21.219c1.4101 6.5723 3.8822 15.706 5.4688 20.312 1.5842 4.6067 2.6355 8.9891 2.375 9.7188-1.2745 3.5371-10.485-1.2717-17.062-8.9062-13.244-15.376-18.524-28.75-15.786-35.931 4.0158-5.7504 14.29-8.3032 19.025-3.2745 4.8873 5.1905 5.6151 16.315 5.9803 18.08zm91.281-15.312c13.961 8.2333-2.1227 27.03-33.406 42.625-13.385 6.6727-12.429 3.6672-2.2812-9.5 3.8838-5.0394 9.085-13.24 11.625-18.25 5.6153-11.075 11.237-22.155 24.062-14.875zm-139.38 0.0625c4.4324-0.0362 8.9674 4.7047 17.375 16.875 3.747 5.4238 9.8288 13.137 13.531 17.156 3.7 4.0195 6.6138 8.0168 6.4687 8.875-1.4426 8.5329-44.993-18.499-48.125-29.875-1.0764-6.9377 4.3827-13.142 10.75-13.031zm623.31 24.75c7.8535 16.151 8.5297 26.192 2.0312 29.844-9.2313 5.1886-21.104-2.7238-21.344-14.219-0.08-3.8618-4.0516-17.338-7.6875-26.094-2.9939-7.2052-3.4024-11.652-0.9408-12.009 9.6271 1.5408 23.876 14.889 27.941 22.477zm-52.125-12.25c-3.0393 9.2326-6.2564 23.646-6.2188 27.844 0.014 1.6501-0.9891 5.0281-2.1874 7.5-7.9755 16.419-26.845 3.0284-19.906-14.125 6.259-15.465 22.186-31.564 28.461-32.097 4.293-0.36469 0.2826 9.5251-0.1486 10.878zm12.712-8.8632c3.146-0.31038 5.785 6.566 9.8508 18.144 5.4921 15.64 5.263 27.839-0.6563 33.031-12.687 11.131-26.001-5.0299-20.875-25.344 4.0987-16.235 8.1149-25.48 11.68-25.832zm-425.7 2.87c15.794 232.46-103.37 411.3-111.86 416.18l-40.548 22.172-71.129-38.745c73.706-101.06 117.76-216.9 121.1-351.42 68.185 6.62 103.26-47.945 102.44-48.188zm390.76 0.73818c4.9739-1.3636 1.5029 2.9806-3.431 10.095-5.265 7.5915-12.1 28.231-17.52 31.538-12.16 5.8452-25.919-5.2937-18.542-14.973 6.7927-8.9128 26.754-23.167 39.492-26.659zm72.337 1.5743c1.9089-0.008 5.4741 1.2506 10.656 3.7812 25.318 12.364 37.804 28.672 26.97 36.472-7.6073 5.477-15.741 1.2284-23.345-13.191-2.5805-4.8978-7.2958-12.167-10.438-16.188-5.6977-7.2856-7.0232-10.862-3.8437-10.875zm142.34 8.2812c16.271-0.2363 29.639 12.729 29.875 29 0.2363 16.271-12.761 29.67-29.031 29.906-16.271 0.23631-29.638-12.792-29.875-29.062-0.2363-16.271 12.76-29.607 29.031-29.844zm-8.9645 7.6477c-19.146 8.4815-13.379 38.541 3.1208 42.884 6.9684 1.9501 15.447-0.94985 11.952-4.3017-21.798-6.8404-21.938-22.909-13.157-34.669 1.411-1.8896-0.4814-4.5484-1.9159-3.9129zm-797.51 41.346c-0.7442 16.989 2.9353 36.689-5.181 55.131-12.297 28.344-51.803 41.296-72.906 38.781-4.3956-1.8054-9.5169-3.5162-13.851-1.6773-2.6221 1.1124-5.8559 0.97037-8.653-0.33105-2.698-1.2553-5.2876 0.38914-7.902-0.55414-3.0585-2.0663-8.0557-6.7585-7.4688-10.25 0.9546-4.9234 0.5744-8.5716-5.1875-10.188-7.9844-2.2382-9.5997-6.5506-7.25-19.188 0.5077-2.7303 1.1198-3.9665-0.6563-5.1562-5.8806-3.9413-8.1123-11.229-4.25-18.906 2.5182-4.4227 4.4654-7.5472-0.062-11.062-1.7887-4.0452-1.4754-5.5834 2.375-10.75 4.1031-4.904 4.8187-5.4653 2.1874-9.6562-5.9131-9.4195 0.7872-16.37 8.75-20.25 10.669-4.3762 19.991-6.6343 31.25-7.9375 4.1881 0.23566 4.0101 3.9192 6.5313 7.4688 3.7077 5.7658-1.5199 14.106 1.5 17.062 4.362 2.0128 6.3447 6.0326 6 9.4688-0.152 8.0043 0.3317 10.743 2.5 14.094 2.4013 3.711 3.3052 10.527 1.0625 15.161-1.9965 4.1244-1.7789 3.8449 0.8438 6.277 2.5957 2.4071 3.8742 14.475 2.9519 14.244l10.95-1.0028c-1.1427 1.2185 4.118-22.565 16.599-40.952-0.688-14.405-6.176-27.651-5.6883-46.674 27.051-9.6852 46.587 13.312 45.556 36.847zm420.16-32.369c3.9057 3.0663 23.291 8.462 24 7.8438-0.6073 9.2832 5.0435 27.318 25.25 33.344 0.2431 25.875 0.031 145.34 0.031 145.34-28.146-47.162-45.591-108.04-49.281-186.53zm-470.81 4.2188s1.0725 3.4423 2.0625 10.094c1.7281 13.59-0.1362 15.446-3.75 6.1562-4.2318-10.878-4.4512-2.4028 0.3125 22.5 1.1531 6.0311 1.1093 7.4314-0.375 11.5-0.928 2.5503-2.5834 8.4779-3.875 13.125-3.8066 13.671-6.031 17.6-9.9375 6.7188-1.9918-5.5478-3.659-6.4126-2.237-10.756 1.7778-5.4381 1.3496-9.5138-2.2318-14.806-0.5852-0.86455-1.8713-2.846-2.0937-8.4688 1.1005-12.624-4.5187-12.743-5.6239-16.007 0.1881-4.9386-2.1186-16.909 1.2802-16.587 2.7986 0.26515 12.925 0.54521 17.719-1.2188 2.124-0.78156 8.75-2.25 8.75-2.25zm419.56 1.5625c10.453-0.15181 19.036 8.2034 19.188 18.656 0.1518 10.453-8.2034 19.036-18.656 19.188-10.453 0.15181-19.067-8.1721-19.219-18.625-0.1518-10.453 8.2346-19.067 18.688-19.219zm-292.25 11.531 14.344 2.7188c3.1962 1.0654 0.8663 198.83-113.94 341.56l-1-33.062c54.628-79.062 93.965-176.02 100.59-311.22zm243.22 4.1562 2.625 47.25c-8.0762-6.868-28.589-19.725-28.438-20l0.094-17.469c0.019 0.0364 17.63 1.3507 25.719-9.7812zm-110.56 0.65625c3.4592 1.456 6.4752 4.8028 9.4376 7.2188l-9.375 6.3125zm328.62 2.375c61.931 18.369 122.92 17.838 183.22 4.4062l4.125 11.562c-65.428 17.736-130.45 16.712-195.06-3.9062zm-299.94 8.8438 3.3124 20.375-34.949 22.622 1.6993-30.934l18.2-11.83zm309.41 16.969c5.6458-0.082 10.293 4.4457 10.375 10.094 0.082 5.6481-4.4479 10.293-10.094 10.375-5.6481 0.082-10.262-4.4457-10.344-10.094-0.082-5.6481 4.4144-10.293 10.062-10.375zm159.1 0.83c5.6481-0.082 10.293 4.4457 10.375 10.094 0.083 5.6481-4.4456 10.293-10.094 10.375-5.6481 0.082-10.262-4.4457-10.344-10.094-0.083-5.6481 4.4144-10.293 10.062-10.375zm-298.03 31.789c4.5804 16.144 3.5824 52.623-2.3126 77.367-1.7696 7.4302-2.8437 33.805-2.8437 33.805-1.0937 1.3804 35.079-29.935 46.71 11.132 3.999 14.12-12.253 27.506-23.132 23.588-2.1185-0.76303-1.479-7.7554 0.5464-11.869 6.0337-12.28-11.168-18.664-20.969-7.7812-22.644 25.147 0.6548 88.815 36.156 95 29.472 5.1341 53.103-24.204 33.438-41.688-8.601-7.6456-22.36 2.8932-16.062 12.625 6.7275 10.398-5.6604 14.545-15.031 4.9062-16.34-16.806 2.0056-42.103 26.687-36.25 39.456 8.9711 31.338 70.652-10.031 74.125-31.635 2.6556-52.934-11.125-66.312-35.562-12.567-23.482-13.501-42.197-7.75-83.375 3.4156-24.447 0.6056-45.047-6.1875-44.906-3.7259 0.0769-6.63 1.8726-7.2188 6.25-1.2045 8.9555-2.2328 10.628-7.8437 7.375-7.1248-4.1304-11.084-17.435 0.5625-26.438 11.94-9.2291 27.413 5.1738 26.781 7.6562 0.288-0.45682 1.4905-2.7972 3.0938-13.281 5.2167-34.111-6.3716-70.149-20.688-64.375-3.1416 1.2672-2.7644 2.6883 1.3437 5 9.5374 5.3637 1.1327 19.109-10.844 17.719-16.96-1.9687-20.815-25.629-5.875-36.094 23.533-12.687 42.705 7.1779 47.781 25.07zm-115.8-28.41s30.087 18.35 31.688 23.062c1.0248 3.0216 2.25 29.344 2.25 29.344l-52.219-32.688-74.863 46.281c1.2248-10.159 6.6132-36.312 6.6132-36.312l39.813-25.188c0.1973 1.5167 27.539 19.564 46.719-4.5zm373.84 1.75c5.6482-0.082 10.293 4.4457 10.375 10.094 0.082 5.6481-4.4143 10.293-10.062 10.375-5.6462 0.082-10.293-4.4144-10.375-10.062-0.082-5.6481 4.4163-10.324 10.062-10.406zm-79.687 0.15625c5.6459-0.082 10.322 4.4145 10.406 10.062 0.082 5.6481-4.4791 10.324-10.125 10.406-5.6481 0.082-10.262-4.4457-10.344-10.094-0.082-5.6481 4.4144-10.293 10.063-10.375zm40.062 2.3125c5.6482-0.082 10.324 4.4457 10.406 10.094 0.082 5.6481-4.4456 10.293-10.094 10.375-5.6482 0.082-10.291-4.4457-10.375-10.094-0.082-5.6481 4.4143-10.293 10.062-10.375zm-100.31 14.5c27.111 5.6417 54.29 11.44 80.281 14.281l1.0625 79.781-7.5937-0.4375-1.1-71.28c-25.108-1.7968-48.79-7.186-71.031-12.938zm201.59 2.5938-1.4063 9.375s-46.907 8.1188-71.406 11.281c-0.3906 16.06-0.3438 69.719-0.3438 69.719l-9.375 1.7188-0.031-81.219c27.816-3.0239 55.597-6.1506 82.562-10.875zm-453.88 4.5 55.219 36.5 6.5 38.688-64.375-42.781s-58.355 39.279-80.187 53.844l6.6562-36.469zm254.91 7.2188c22.23 4.7037 44.458 9.5924 66.687 11.5l0.9376 64.188-10.219-2.7188-0.8125-52.094c-17.361-1.5034-35.192-4.8669-53.125-8.6562zm196.66 1.9062-1.875 8.7188s-35.58 5.3635-53.938 8.6562c-1.6251 0.373-1.0313 56.5-1.0313 56.5l-8.7812 1.3438-1.0312-65.531zm-99.656 7.1875c5.6481-0.082 10.26 4.4457 10.344 10.094 0.082 5.6481-4.4144 10.293-10.062 10.375-5.6481 0.082-10.291-4.4145-10.375-10.062-0.082-5.6481 4.4456-10.324 10.094-10.406zm-352.75 23.156 65.281 44.062s7.568 22.948 9.1875 35.656l-75.125-48.5-94 62.312 10.875-38.5zm-395.69 1.3438c3.8725 0.0521 7.7372 2.6424 9.75 8.5938 2.834 8.3764 8.1202 10.851 22.031 10.594 27.312-1.457 55.94-14.29 81.719-4.6562 12.529 4.6155 16.991 23.095 6.5 27.906-11.387 5.2225-16.24 1.9415-20.187-7-3.6478-3.8009-8.1807-3.2057-32.656 1-10.797 1.7513-23.484 3.3244-34.156 4.1875-27.286 2.205-42.353-6.3916-45.75-22.625-2.1703-10.38 6.2969-18.087 12.75-18zm747.88 14.906c5.6482-0.082 10.291 4.4145 10.375 10.062 0.082 5.6481-4.4456 10.324-10.094 10.406-5.6481 0.082-10.293-4.4457-10.375-10.094-0.082-5.6481 4.4456-10.293 10.094-10.375zm-200 12.469c7.3461-0.10669 13.393 5.7784 13.5 13.125 0.1072 7.3466-5.7789 13.393-13.125 13.5-7.3466 0.1067-13.362-5.7784-13.469-13.125-0.1067-7.3466 5.7471-13.393 13.094-13.5zm-152.09 9.3125s53.723 35.891 78.594 52.469l13.75 39.5-91.5-59.5-111.96 72.841 13.43-40.623zm387.88 12.344c4.8745 13.125 13.713 23.125 23.062 33.281 0 0-5.2066 9.8652-23.781 9.2812-10.147-0.31896-10.69 1.2742-14.156 8.1562-5.6909 8.7202-10.322 14.418-14 17.25-6.5049 5.0086-18.699-2.4742-28.75-17.688-3.6624-5.5434-5.1791-6.8529-16.219-6.625-16.951 0.34999-23.086-4.3509-14.281-11.969 7.6775-9.3533 13.194-19.637 20.062-29.469l7.625 0.875c0.3233 1.1315-5.9275 20.015-14.719 27.688-4.4615 5.0375 1.7846 6.864 12.688 4.5625 6.9155-2.0825 8.6885-1.2656 13.812 9.3125 10.673 20.178 16.22 19.204 28.875-1.25 4.4198-9.1302 4.2521-10.036 16.406-7.4062 13.048 1.3135 16.985-0.32461 11.625-4.875-10.835-9.1944-16.812-30.875-16.812-30.875zm-387.5 27.02s97.158 63.635 96.906 62.25l19.469 45.875-114.03-75.844-139.31 90.594 20.844-45.406zm3.75 41.781 33.875 22.281-0.094 40.094-34.594-23.25zm-8.6874 1.1562 0.625 39.562-30.375 18.094-1.6876-37.125zm-38.531 25.5-0.2813 1.5312 0.7188 0.375 0.25 0.0312 1.0938 35.656-34.938 24.219 0.125-40.281zm89.469 0.4375 31.844 21.25 1.3125 42.438-34.562-22.625zm39.313 25.906 31.937 22.188 1.125 42.375l-32.5-21.98zm-169.03 0.15625-0.1563 39.156-31.781 22.188-1.5-40zm336.12 50.531c-6.3069 6.5739-8.6346 5.759-14.031-5.0938-5.6023-11.261-14.007-16.525-26.187-16.312-15.366 0.26756-5.3196-9.8077 10.969-11 28.162-1.2403 42.456 17.655 29.25 32.406zm-376.72-22.969 0.8437 39.281-31.625 16.438-0.9687-18.625l16.4-28.47zm-40.781 52.5 1.0937 7.1562-5.8437 2.25zm545.4 98.37c-0.083-0.01-0.118 0.022-0.125 0.125h0.375c-0.096-0.064-0.1906-0.1179-0.25-0.125zm0.25 0.125c4.0832 2.6917 40.461 55.435 43 112.44 1.4113 15.096-5.1191 17.977-8.375 3.625-5.2968-23.362-19.97-43.792-39.031-54.406-96.284-35.678-137.4 85.151-73.938 134 22.594 16.352 66.155 14.495 81.469-8.0937 4.7607-7.0221 9.5785-6.3427 10.188-1.9063 0.3017 2.2068-0.8062 3.7241-6.6875 9-23.802 21.354-38.023 51.577-30.469 73.688 10.028 29.351 37.428 49.67 69.031 54.312 33.914 4.9823 69.174-18.89 79.562-49.906 9.5249-28.439 1.1439-52.426-25.25-76.375-12.411-11.259-13.038-12.164-10.469-14.844 2.501-2.6057 4.1334-1.9649 10.281 3.9688 18.968 18.317 54.329 28.179 77.625 17.406 37.299-17.232 53.341-75.324 27.812-113.34-15.438-30.919-57.532-42.432-92.719-25.344-18.741 9.1013-35.241 30.368-40.156 51.687-2.2065 9.5833-7.7141 11.315-8.5312 2.6876 2.5901-34.689 7.4666-57.395 45.531-118.5zm320.44 59.531s13.872 28.64 15.938 43.719c1.5195 11.091 1.7474 15.593-1.2812 15.656-0.9645 0.024-3.3629-5.3408-4.2813-9.5312-7.4418-34.348-57.329-33.81-64.562 0.5312-7.3511 34.898 24.223 59.624 51.781 37.906 11.334-7.7905 11.882-4.2122 0.6563 7.1563-21.608 21.624-12.088 51.876 15.094 59.937 36.957 10.961 59.702-34.09 28.344-62.719-4.0058-4.1286-7.6358-8.2192-7.6562-9.0937-0.045-2.2002 2.6872-2.3818 4.8437-0.094 17.985 18.876 54.223 13.046 59.781-11.156 10.423-45.386-48.179-64.775-64.313-24.219-3.9438 10.114-3.3427 11.51-5.375 9.5625-1.1361-1.0908-0.8155-5.2862 0.4376-10.969 2.5346-11.495 18.937-46.344 18.937-46.344zm-485.4 125.2c-133.09 28.474-260.68 18.414-352.25 1.4688l-41.844 71.5-2.875-0.125-10.781 18.5 1.1563 2.125s-34.766 66.713-49.406 87.75c171-1.7 546.4-2.5 546.4-2.5l-22.875-46 1.25-1.25-22.594-48.031-7.3437-8.3126s-4.4855-8.6805-7.8437-18c-3.0889-8.5777-16.344-32.062-16.344-32.062l-1.875 0.1562zm-347.44 10.062c1.764 1.3992 170.47 33.192 345.34 0.5313l9.5625 16c-153.05 35.221-374.49 1.5774-365.75-1.6876zm2.9062 31.469c15.427-0.551 31.058 7.7374 41.594 21.563 3.3527 4.3994 8.8437 17.375 8.8437 17.375s7.3829-12.224 14.625-18.344c10.952-9.2545 25.16-16.982 45.719-16.25 18.925 0.6741 39.762 10.92 58.563 40.531 4.7454-17.086 66.933-75.142 118.16-2.75 5.8583-19.236 33.271-57.658 77.656-30.812 3.0307 6.4883 6.1563 13.625 6.1563 13.625-26.196-18.345-69.383-6.04-79.594 22.594-0.9156 3.4872 0.2433 5.3009 1.5937 8.6875 13.499 19.294-21.625 18.831-11.219 3.2188 1.9463-3.5491 2.1059-6.4707-1-11.125-8.237-12.343-33.027-27.706-51.219-27.313-21.008 0.4567-44.286 14.397-52.062 27.063-2.8692 4.6731-3.5216 9.3524-1 13.437 1.8312 4.1191 1.2044 7.5669-1.875 10.094-7.2358 5.9362-16.324-0.9107-12.844-9.6875 2.2899-3.8671 1.937-8.6072-2.75-15.188-9.4138-13.217-31.382-27.145-50.5-26.75-27.362 0.6319-55.001 20.337-53.25 36.562 0.7695 7.1318-1.1808 9.79-7 8.9687-7.0773-0.9985-7.8801-7.6813-2.875-13.125 0.7419-1.7439 1.9407-5.9722-0.3438-9.0624-28.892-39.074-72.152-27.685-82.062-18.938 9.6294-16.509 23.075-23.889 36.688-24.375zm-25.719 27.125c10.842 0.089 22.519 8.2862 26.219 14.688 2.6794-2.774 27.205-14.472 39.125 2.25-31.22-2.3513-31.603 30.778-8.5312 33.969-10.521 31.962 36.645 33.893 33.656 3.875 35.24 5.2081 30.893-39.465-2.2812-34.75 17.379-12.656 29.207-8.5701 50.094 5.9375 7.0214-9.1415 35.654-17.686 42.688-1.7188-32.82-2.0246-27.229 35.982-2.7188 36.313-7.2823 26.339 40.935 36.028 33.5-3.3126 30.605 2.1454 26.173-39.2-3.1562-35.781 2.1733-7.5229 31.94-10.775 45.094 3.5938 12.086-11.033 25.43-18.588 49.531-2.8126-32.862-5.4772-33.271 37.184-2.75 34.625-2.8483 28.252 40.303 28.728 33.094-3.9062 32.853-8.8667 14.788-44.028-9.3438-34.344 10.742-12.769 28.982-6.7475 36.219-4.1562 22.361-25.593 41.844-4.1875 41.844-4.1875-38.916-4.064-30.452 51.401 7.4687 31.281-0.038 11.412 4.8614 21.292 20.344 22.906l18.406 38.094-521.59 3.4374 28.779-50.616c2.9087 0.9158 19.541 2.4281 23.12-17.072 34.276 10.873 36.575-29.035 10.969-35.344 3.1027-2.1417 6.6046-2.9983 10.219-2.9688zm807.53 4.7188v19.344h15.281l43.531 97.687-41.688 68.219h-16.062v17.312h60.812v-17.312h-20.25l55.75-80.438v80.438h-16.75v17.312h55.531v-16.875h-18.25v-166.34h18.25v-19.344h-55.531v19.344h16.75v49.125l-23.688 30.5-35.5-79.625h23.688v-19.344zm-827.88 9.7188c3.4082 5.4754 0.5541 9.0421-5.3125 9.1874 0 0 3.8157-5.5427 5.3125-9.1874zm429.09 7.0624 3.375 7.0938c-3.6519-1.4799-4.1011-3.0452-3.3752-7.0938z" transform="matrix(.99957 .020643 -.020645 .99979 -3870.1 -482.78)"/>
   </g>
  </g>
 </g>
</svg>
