<svg xmlns:rdf="http://www.w3.org/1999/02/22-rdf-syntax-ns#" xmlns="http://www.w3.org/2000/svg" version="1.1" xmlns:cc="http://creativecommons.org/ns#" xmlns:dc="http://purl.org/dc/elements/1.1/" viewBox="0 0 744.09 1052.4">
 <g transform="translate(-6890.4 3117.1)">
  <rect rx="10.63" ry="10.63" height="311.81" width="223.23" stroke="#000" y="-2746.8" x="7150.8" stroke-width=".99673" fill="#fff"/>
  <g fill="#d40000" transform="matrix(.30106 0 0 .30106 6829.3 -2295.3)">
   <path d="m1180.2-1309.3c32.952-32.158 54.594-67.22 75.29-100.94 18.15 37.102 44.197 69.561 72.364 100.94-30.137 31.118-53.494 64.393-72.274 99.374-20.818-35.859-42.736-68.33-75.381-99.374z"/>
   <path d="m1180.2-980.84c32.952-32.158 54.594-67.22 75.29-100.94 18.15 37.102 44.197 69.561 72.364 100.94-30.137 31.118-53.494 64.393-72.274 99.374-20.818-35.859-42.736-68.33-75.381-99.374z"/>
   <path d="m1180.2-653.33c32.952-32.158 54.594-67.22 75.29-100.94 18.15 37.102 44.197 69.561 72.364 100.94-30.137 31.118-53.494 64.393-72.274 99.374-20.818-35.859-42.736-68.33-75.381-99.374z"/>
   <path d="m1550.7-1309.3c32.952-32.158 54.594-67.22 75.29-100.94 18.15 37.102 44.197 69.561 72.364 100.94-30.137 31.118-53.494 64.393-72.274 99.374-20.818-35.859-42.736-68.33-75.381-99.374z"/>
   <path d="m1550.7-980.84c32.952-32.158 54.594-67.22 75.29-100.94 18.15 37.102 44.197 69.561 72.364 100.94-30.137 31.118-53.494 64.393-72.274 99.374-20.818-35.859-42.736-68.33-75.381-99.374z"/>
   <path d="m1550.7-653.33c32.952-32.158 54.594-67.22 75.29-100.94 18.15 37.102 44.197 69.561 72.364 100.94-30.137 31.118-53.494 64.393-72.274 99.374-20.818-35.859-42.736-68.33-75.381-99.374z"/>
   <path d="m1722.6-676.62c13.499-13.173 22.364-27.536 30.842-41.349 7.435 15.199 18.105 28.495 29.644 41.349-12.346 12.747-21.914 26.378-29.607 40.708-8.5281-14.689-17.506-27.991-30.879-40.708z"/>
   <path d="m1095.4-1294c13.499-13.173 22.364-27.536 30.842-41.349 7.435 15.199 18.105 28.495 29.644 41.349-12.346 12.747-21.914 26.378-29.607 40.708-8.5281-14.689-17.506-27.991-30.879-40.708z"/>
   <path d="m1095.5-1380.2c-1.3564-9.1251-1.3347-32.702-0.2195-39.668 3.4183-21.353 11.732-31.119 25.651-34.32 13.514-3.1079 32.515 0.3517 36.684 18.209l-11.315 0.209c-6.111-12.068-21.575-8.8426-30.278-3.5944-6.9526 4.1923-10.093 21.656-8.7492 22.73-0.01 0 13.144-9.5567 23.503-8.8518 22.149 2.2646 31.281 21.112 30.509 38.925-0.6999 21.423-7.6228 38.538-31.094 39.681-22.315-0.842-32.55-12.788-34.691-33.32zm55.04-5.6632c0.1233-14.865-6.7551-25.984-19.762-27.212-13.007-1.2276-26.119 11.233-25.211 26.382 0.9112 15.202 6.9042 28.007 22.674 27.936 16.96-0.076 22.211-16.529 22.299-27.106z"/>
   <path d="m1782.2-583.67c1.3564 9.1251 1.3347 32.702 0.2195 39.668-3.4183 21.353-11.732 31.119-25.651 34.32-13.514 3.1079-32.515-0.3517-36.684-18.209l11.315-0.209c6.111 12.068 21.575 8.8426 30.278 3.5944 6.9526-4.1923 10.093-21.656 8.7492-22.73 0.01 0-13.144 9.5567-23.503 8.8518-22.149-2.2646-31.281-21.112-30.509-38.925 0.6999-21.423 7.6228-38.538 31.094-39.681 22.315 0.842 32.55 12.788 34.691 33.32zm-55.04 5.6632c-0.1233 14.865 6.7551 25.984 19.762 27.212 13.007 1.2276 26.119-11.233 25.211-26.382-0.9112-15.202-6.9042-28.007-22.674-27.936-16.96 0.076-22.211 16.529-22.299 27.106z"/>
  </g>
 </g>
</svg>
