<svg xmlns:rdf="http://www.w3.org/1999/02/22-rdf-syntax-ns#" xmlns="http://www.w3.org/2000/svg" version="1.1" xmlns:cc="http://creativecommons.org/ns#" xmlns:dc="http://purl.org/dc/elements/1.1/" viewBox="0 0 744.09 1052.4">
 <title>Vectorized Playing Cards 1.0</title>
 <g transform="translate(-289.24 -136.72)">
  <g transform="translate(-1694.1 23.063)">
   <rect rx="10.63" ry="10.63" height="311.81" width="223.23" stroke="#000" y="483.94" x="2243.7" stroke-width=".99673" fill="#fff"/>
  </g>
  <g transform="matrix(.15516 0 0 .15516 604.95 621.12)">
   <g transform="matrix(.99998 .0059011 -.0059011 .99998 1.5989 -2.1391)">
    <path d="m2152.5-307.07-74.281 48.419-1.0313 56.469c-44.05-21.138-63.197-55.755-70.131-96.311-12.461 15.716-9.9879 95.059-9.9879 95.059-11.32 5.8743-15.46 13.544-22.693 20.44 7.1076 11.733 27.219 31.705 27.219 31.705-0.1414-0.3535-9.2208 82.613 1.7618 85.916 10.042-35.359 23.405-66.213 72.613-98.559 0 0 0.745 131.72-2.4063 258.97-20.819-14.329-64.839-40.071-93.281-66.406 36.879-47.559-0.7201-109.55-55.75-68.375-35.668-19.304-41.145-110.49-49.969-158.25-1.6966-9.5813-9.9994-37.672-9.9994-37.672s-117.53-32.505-168-29.859c42.389 110.46 34.162 245.07-153.44 270.28-89.886 41.104-193.73 86.924-294.66 172.52-18.594 127.45-84.331 190.2-130.75 224.92 0.3336 51.649-0.3448 102.78 1.7808 154.91-0.045 0.31636 42.368-27.841 49.031-22.656 35.44 230.35 165.23 276.02 152.25 282.41-2.0916 1.0286-42.531 42.594-42.531 42.594l-158.5-104.33c-5.4292 159.27-2.2827 321.68 0 481.22 27.968-15.809 79.375-53.625 79.375-53.625l0.7812-54.188c-0.2376-5.1489 72.035 45.14 72.209 105.05 5.6272 3.8273 17.957-86.207 6.7286-95.953l29.625-30.563-31.906-30.719s8.0977-50.984-8.4393-80.354c-10.716 67.233-66.529 88.198-66.529 88.198s-1.0866-245.75-2.5313-245.97l99.563 63.031c-7.4111 1.5258-26.372 36.766-6.5938 65.312 12.048 17.389 55.353 16.235 58.688-3.7812 61.23 57.058 37.658 125.27 64.438 206.22l173.75 31.875c-71.607-132.85 6.0962-284.23 146.72-273.41 26.341-10.973 50.187-26.812 50.187-26.812s-17.485-28.577-39.562-55.094l-300.97-4.9688 140.3-263.05-92.276-2.9694s74.991-159.04 58.789-171.86c-5.6891-4.4992-3.3125-55.781-3.3125-55.781l82.423 3.0639c3.3-36.76-39.9-176.64-100.7-268.11l338.28 3.0312-190.44 265.59 102.28 2.9375-61.031 125.38 9.7813 97.781-90.75 2.9375c15.645 135.56 116.35 278.39 151.75 322.5 58.523-13.872 167.79-97.496 235.6-149.49 8.7879-90.971 40.111-168.41 122-226.18l0.2502-149.76s-46.739 30.173-46.727 28.088c0.1905-32.415-16.708-99.888-47.875-160.03-33.444-64.537-88.346-122.99-100.98-126.65 29.041-43.937 41.433-47.874 41.018-48.57l158.2 101.43zm-797.3 319.32s-30.764 11.709-57.5 11.344c-47.906 2.4693-84.444 6.3327-103.88 45.625-3.9477 11.961 4.7027 16.369 11.062 19.5 36.114-44.836 132.08 14.388 150.31-76.469zm-212.6 205.75c0 6.332 7.078 16.681 10.625 5.9375 3.0774-7.6665 3.7022-20.098 0.25-27.75-9.6194-5.4158-10.759 15.611-10.875 21.812zm518.78 216.94-46.781 0.21875-0.2813 54.906 47.656 2.25zm459.53 273.34c-1.0272 5.4553-6.0733 29.984 5.3438 25.719 13.472-10.372 2.0021-58.06-5.3438-25.719zm-44.037 137.84c-5.5246-8.0505-22.615 11.961-36.639 12.712-62.328 3.3348-108.25-5.0039-116.01 60.2 35.945-22.947 86.307-12.486 118.75-19.906 23.454-7.7839 50.36-29.022 33.901-53.006z" transform="matrix(.99998 -.0059011 .0059011 .99998 -1273.4 -185.64)" fill="#e2cf00"/>
    <path d="m-154.19 1118.7c-10.369-571.63-10.352-1135.9-11.729-1701.2l1055.2-0.31303c-0.44747 564.18 2.1765 1130.1 13.035 1699.8zm38.62-1100.1c0.80902-16.362-5.9578-23.096-11.726-11.81-1.3635 2.6679-5.7261 31.12 5.0369 32.004 7.067 0.57997 6.3418-13.172 6.689-20.193zm-16.96 19.293c-0.0862-3.8588-2.4781-5.5243 2.5865-39.163-10.075-3.8177-18.876-20.084-11.615-30.442 2.8318-4.04 1.9938-4.9225 0.80647-8.2952-2.9339-8.3339-1.4493-15.152 6.2735-20.523 4.9359-3.4332 5.1467-4.3391 3.533-8.8095-4.1581-11.519-0.3901-22.811 10.63-26.715 7.633-2.7039 6.1561-3.0754 6.9326-7.9316 1.7376-10.866 7.6992-17.469 18.599-16.435 10.135 0.96135 10.802 0.96263 11.643-3.9915 2.3249-13.707 18.835-28.757 40.445-39.049 10.729-5.1093 28.548-8.7906 62.727-8.8997 19.575-0.45584 43.968-3.2138 57.591-15.327 2.2464-2.1226 5.3521-7.6836 6.4506-6.9365 2.5625 1.7428 2.0218 15.379-2.9056 27.838-14.359 36.307-34.027 46.404-89.786 46.404-16.629-0.69388-41.107 1.6998-51.426 12.334-3.0717 3.2941-5.1161 6.4001-3.9462 8.076 23.119 3.1394 46.9 13.423 60.972 58.922 41.728-29.948 108.23-75.822 190.78-117.42-10.265-54.413 36.921-63.094 63.478-52.411 0 0 0.65253-3.5558-0.39655-7.6725-1.023-4.0141-2.5218-9.246-7.4498-15.985-1.2448-2.4565-8.7106-7.0961-7.2666-10.808 2.3652-6.0798 1.2863-7.7406-3.8226-13.297-3.3148-3.6054-1.1736-11.375-0.39249-14.507 1.0096-5.8426 4.8022-14.189 1.3885-17.309-5.2757-4.8219-23.192-12.935-32.435-19.411-10.218-7.3402-10.455-13.998 4.3126-38.415 6.7075-14.187 13.035-29.418 18.388-39.614 8.101-15.418 8.8877-25.555 3.8713-34.338-6.5522-11.472-5.5573-25.129-5.4058-24.779 0 0-61.705-86.702-87.117-120.78l-286.28 0.75602 1.0464 654.52 50.757-47.37-13.476-15.753c-1.8371 9.2029-0.0677 18.186-11.403 18.775-3.8618 0.14998-7.444-1.4406-8.0767-5.2424zm175.27 871.67c1.479-25.889-11.162-68.185-29.993-97.425 0.93697 22.283 2.6996 49.528-1.6464 71.345zm452.15 64.873c-2.2589-0.7129-21.054-1.75-32.861-2.3069-39.14-1.8463-64.656-20.462-81.767-46.32-4.2067-6.3568-2.4781-6.0806 6.8089 1.0881 26.095 20.142 50.485 32.135 71.816 28.966 30.243-4.4932 46.634 6.5036 42.517 19.458-0.71927 2.2662-0.97582 0.86231-6.5135-0.88549zm-102.84-57.12c-6.0883-5.2163-6.552-7.5706 0.66346-2.8302 22.055 14.489 48.719 38.204 81.414 24.029 6.772-4.3999 0.52171-3.787-10.849-2.5096-17.382 1.9528-38.624-6.7546-64.8-24.598-12.781-8.713-7.2184-16.163 7.1541-9.3641 4.4388 2.0999 8.9349 3.6382 11.795 3.8042 14.051-9.4499 43.707-9.5174 43.015-9.4597 3.3616-2.9228-7.7451-7.4799-24.271-13.609-10.732-3.9806-13.332-5.6266-5.3622-5.9837 6.9611-0.31197 17.94 3.0944 25.874 8.1641 13.237 8.3959 19.905 13.053 23.843 13.581 6.4709 0.47156 13.077 1.3643 2.0041 6.5777-5.0312 2.3688-4.5824 2.9652-3.9691 8.6252 0.95863 8.8469 1.4876 8.7448 5.6019 13.724 6.9322 7.5493 10.017 21.661 0.13995 12.877-2.1227-0.9672-2.3297 0.91399-8.1018 3.2836-33.914 9.7864-59.308-5.0241-84.152-26.31zm62.716 2.1547c1.8787-2.505 4.6898-8.8957 5.0646-10.675-0.67927-4.1253-4.3421-2.8106-6.1853-0.47544-3.1474 3.9101-7.55 9.6603-3.8906 11.591 1.7302 0.9165 3.4204 1.6809 5.0114-0.4404zm-11.615-2.6118 7.4718-13.502c-1.8719-0.86013-27.416 4.5724-23.385 8.2186 3.5688 3.2282 15.913 5.283 15.913 5.283zm28.529-45.326c-11.685-6.1601-15.161-19.574-6.5102-28.543 7.271-7.538 19.679-6.974 34.571 2.0726 5.2419 3.1843 8.4572 4.7964 12.024 3.4588 5.9726-2.2397 8.2809 1.1028 7.816 5.797-1.0232 10.332-17.088 12.954-27.303 1.2302-13.505-15.499-28.021-4.5439-23.678 6.6951 2.2111 5.7226 6.4401 6.5911 11.305 8.716 0 1.1264-4.8261 2.3652-8.2246 0.57365zm-53.519-69.094c19.271-5.316 48.086 14.926 63.629 12.054 6.7375-1.4798 5.8435 8.2372-1.1398 11.8-8.163 4.1644-19.816 1.4631-44.578-11.264-20.4-10.863-36.745 7.4414-23.074 20.944 2.9317 2.7298 7.192 4.3579 12.401 4.0828 6.8719-0.36292 8.9048 1.5024 0.0543 3.8329-5.0881 1.3398-14.576-0.67108-19.188-5.2841-11.015-11.017-8.4448-32.347 11.896-36.165zm-408.8-57.21c-0.70836-22.936 11.473-35.752 11.783-35.849l-87.09-58.332 2.6779 235.02c42.818-27.53 56.722-62 58.926-106.41 85.413 94.54 59.613 210.39 7.0048 276.58-2.4172-40.3-14.734-87.88-63.876-112.01l0.19654 48.099-80.966 58.131 0.80482 53.136 191.29-0.5314 91.717-135.63c-17.1-61.18-14.89-112.17-26.37-140.14-8.63-22.99-24.942-52.67-35.337-47.99-35.087 28.11-69.908-4.24-70.771-34.08zm73.155 26.692c30.174 21.459 38.4 56.765 44.745 88.154 0.20777 0.26628 16.401 106.43 16.903 107.86 2.0488 5.8177 1.4131 11.635-3.7136 16.093-27.52 38.217-81.278 120.16-81.278 120.16l531.65-0.012c-28.61-41.094-51.003-81.755-78.148-115.52 1.1222-1.8157-2.2514-24.966-6.7874-32.431-4.6719-7.6884-5.7609-11.727-2.6684-18.803 7.6704-17.43 15.536-36.326 22.631-52.323 13.572-30.648 15.146-30.914-3.696-40.728-22.337-12.832-26.331-17.023-21.749-31.848 1.6699-5.3952 1.873-7.5478-5.0291-8.9155-3.1952-0.6331-10.972-2.444-16.192-3.858-15.055-4.6495-10.687-1.733-16.16 2.1883-4.1755 2.0906-7.8242-5.8234-12.787-15.172-5.7038-10.744-7.1338-10.99 2.2316-5.4957 17.347 10.177 48.006 6.0006 37.127-5.8348-5.3067-5.773-10.21-8.7215-9.7326-21.864 0.47372-13.044 0.65333-16.867-8.2126-18.628-17.736-3.5229-36.984-1.894-53.451 2.3197-50.104 12.821-90.105 56.586-105.18 89.021-3.4022 5.6594 4.4921 5.3227 7.8962 5.323 16.438-1.5616 28.259 24.574 17.568 36.387-4.9469 5.2702-9.9286 2.0823-4.6579-4.7585 5.9899-11.304-3.1274-26.147-16.347-22.276-16.637 4.8716-16.981 26.419-18.957 41.443-5.4233 43.289 16.894 100.98 22.338 112.75 0 0 1.1854 1.75 0.78353 1.75-0.40186 0-3.028 2.4553-4.1575 1.1873-3.8806-4.3566-13.828-39.684-19.259-64.935-10.645-69.856 7.0617-134.25 65.021-171.11 51.311-37.479 77.311-29.628 106.56-31.517 9.9667-3.6546 23.798-9.188 34.266-14.396 51.367-28.456 92.982-52.7 136.63-76.802 42.364-23.392 70.672-56.598 109.41-77.471 1.7621-0.9495 3.5742-3.1438 5.3818-4.0463 48.085-42.282 95.605-83.802 124.26-112.71 3.474-3.5352 6.3366-8.2987 6.3366-8.2987l-6.3167-242.31s-4.8845-4.0086-4.8845-7.8655c0-8.4099-3.1105-6.7847-20.324 5.4784-21.638 15.415-23.121 14.658-23.121 14.658-12.15-111.07-72.92-220.04-146.18-283.54l2.9707-4.1109s24.472 15.951 36.687 23.538l-0.0915-15.503-29.458-18.208s-2.6241-2.1071 0.20873-6.0058c1.558-2.1443 5.5827-0.58543 5.5827-0.58543l23.622 17.201-0.0835-14.157-19.084-12.006 6.0438-7.7073 10.222 6.5481c-4.3855-11.177 1.7249-10.819 8.0406-3.43 2.6276 3.3854 6.0181 7.7269 7.4688 11.844 0.55387 1.5719 2.2008 5.4258 2.2008 5.4258l16.746 12.305s-0.67606-6.0395-0.0939-7.8974c2.7588-8.805 23.052 19.44 20.527 20.119l17.146 12.207c4.0063-6.1895 19.292 6.0012 19.953 12.049 1.3578 2.6257 59.081 39.277 59.081 39.277l0.50726-20.436 6.1506-8.1047 0.005-472.04-76.066 49.261-0.50002 57.149c-36.136-11.453-67.688-63.517-72.452-96.08-2.3565-1.2674-12.416 64.352-6.7213 93.013-9.4953 7.1559-25.455 23.844-25.327 23.928l29.112 31.478s-5.4936 48.498-4.0032 72.567c1.2409 11.418 1.4756 12.576 4.8928 12.576 2.7707 0 5.2441-3.01 5.2441-5.6244 6.6261-28.867 28.676-73.98 67.2-89.528 2.5541-0.0928 1.3103 257.16 1.3103 257.16l-96.211-64.805c-4.7991-4.0719 6.2349-3.8753 12.839-25.687 17.033-56.252-43.319-75.737-66.391-43.088-3.828 0-19.935-19.664-22.376-27.904-17.933-35.605-21.566-76.059-25.2-108.5-2.1647-14.75-7.7259-38.918-12.301-53.46-2.4438-7.7672-2.7208-13.384 2.4131-20.661 23.548-32.196 46.329-66.019 66.131-98.998 18.11-24.086 14.541-25.275 14.541-25.275l-533.04 1.4222 85.874 111.75 8.6492 3.3086c-14.733 1.9875-9.646 14.848-3.8398 28.678 7.1355 16.997 6.3791 20.522-11.269 55.731-25.873 51.618-27.308 47.108-1.0998 62.882 16.188 10.228 19.132 12.467 16.844 26.501-2.2879 14.034-2.9739 9.7014 10.348 10.768 7.1235 0.57016 12.805 1.8232 16.019 3.2557 3.6507 1.6272 6.3734 3.9094 11.049 2.3464 7.8704-2.6312 8.074-0.72575 8.423 5.0518 0.14874 2.4622 3.9013 7.5182 5.0661 9.4029 3.0665 4.9617 1.6502 5.799-3.9354 2.3267-17.203-10.694-45.833-5.9126-35.22 5.7604 4.3696 4.8057 8.8322 20.86 9.2528 28.85 0.75238 14.291 10.068 19.306 29.552 16.247 37.442-3.009 121.62-50.005 140.99-102.34-43.171 14.987-34.595-38.156-19.168-36.572 0 0-4.0894 9.4373-4.1906 14.811-0.35744 18.99 15.555 20.365 26.43 6.8542 4.7237-7.0903 10.353-33.367 7.3327-62.969-3.6576-35.852-18.432-75.893-21.122-85.836 62.735 147.3 6.3076 212.57-80.371 255.46-33.213 14.099-37.78 14.041-57.394 15.072-13.421 1.164-25.491 7.909-38.351 12.219-74.17 35.939-165.32 80.746-246.69 147.27-58.415 43.812-104.79 83.157-150.82 133.63l1.3462 260.55c13.922-2.2482 36.457-15.949 49.805-23.837 15.916 97.223 66.627 209.62 149.92 276.53-0.04516-0.0296-1.9347 3.6881-1.9798 3.6585-11.839-7.8-23.682-15.53-35.158-21.47l-0.5244 12.4 28.009 19.02c0.75624 2.9731-4.7389 7.1665-4.7389 7.1665l-23.121-15.78-0.1024 12.63 17.893 11.26c4.8466 4.7958-5.793 7.3739-5.793 7.3739l-10.603-7.5922s0.79215 6.1301 0.47724 7.218c-2.7026 9.3374-18.075-11.16-20.891-21.41l-15.058-8.8014c2.1652 6.0646-3.203 6.9458-7.4621 5.4499-11.308-5.6504-10.74-15.259-13.124-20.938l-20.043-12.547c-3.3225 19.045-23.776-7.6294-20.607-14.063l-25.714-17.28c1.4153 0.52123-9.7486 2.8984-13.546 0.45107-4.3729-2.8181-5.9711-14.42-5.9711-14.42l-15.409-9.4151 0.0982 16.64 158.58 109.33-2.251 4.2963-165.4-111.74 9.5604 489.13 79.988-56.033c-1.6491-18.297 1.6336-34.666-0.0054-55.516 41.42 25.439 55.411 42.83 73.927 96.662 11.598-30.773 9.3532-60.224 3.9037-87.45 10.5-8.6949 20.722-17.142 25.947-30.192-10.005-13.6-19.734-17.37-30.26-29.99-0.9111-15.44 7.865-61.52-4.3643-76.63 0 0-21.794 66.99-69.47 87.373-1.8683-70.589-1.2678-248.08-1.2678-248.08s49.321 33.612 74.451 47.237c11.809 6.2151 20.037 10.109 20.217 14.579 0.09177 2.2747-4.618 5.2042-6.6747 8.4189-1.2772 1.9962-6.6037 21.125-4.4 36.046 1.0266 11.001 6.2546 17.932 11.255 23.177 15.855 16.634 44.674 8.5748 56.023-4.3988zm94.333-125.49 187.38-265.4c23.05 97.122 61.522 185.96 111.5 266.41zm91.786-278.34s13.033-26.213 18.995-40.113l-23.142 0.13656 13.752-15.606 34.453-0.20331-18.2 39.383 14.624-0.0863 19.989-39.393 53.685-0.31681-18.545 39.385 12.366-0.073 19.854-39.393 49.916-0.29457-17.324 39.378 11.695-0.069 10.137-19.88 2.7165 36.055-49.587 0.29262 19.365-40.115-15.981 0.0943-21.908 40.13-46.452 0.27412 19.908-40.118-17.656 0.10419-21.892 40.13zm152.16-141.64 19.779-42.433-15.848 0.0935-21.913 41.562-49.511 0.29218 19.242-41.072-12.336 0.11304c-8.2861 12.963-21.475 39.277-21.475 39.277l-52.508 0.30986s14.687-27.912 20.463-41.553l-12.952 0.0764-10.446 16.874c-3.7504-6.2529-1.4019-22.94-2.0658-30.012l49.493-0.29207-19.644 40.728 15.791-0.0932 21.439-40.739 52.262-0.30836-21.049 40.737 12.375-0.073 20.873-38.51 53.172-0.31378-18.408 38.495 16.419-0.0969-7.1436 16.725zm-49.354-73.446-10.01 1.944c-13.48-109.58-74.82-221.01-100.78-267.02l301.96 2.4624zm350.79-635.23s-28.576 37.192-30.134 99.32l27.296-22.064c-2.1124-63.018 2.8379-77.256 2.8379-77.256zm-29.798 103.98c-0.18741 46.22 12.106 75.615 27.566 98.592 0.0859-29.772 2.9011-59.927 4.6239-67.836zm-742.3 888.69-98.033-66.672 0.087 14.739 116.51 78.136zm-17.806-35.99c-26.235-12.97-80.364-53.3-80.364-53.3l0.0794 13.447 86.146 59.766c1.6935 1.6499 3.9563 1.2144 4.7377-0.64504-3.4097-5.6788-7.5225-13.411-10.602-19.265zm-24.307-58.24-56.317-38.8l0.0719 12.176c14.456 12.796 61.962 43.169 61.962 43.169zm-56.368-47.707 52.963 33.794-3.369-15.081-37.628-25.227zm945.39-478.36 1.3886-243.04c-54.824 26.322-65.276 102.21-63.43 104.55-55.059-56.076-76.402-177.56-0.12548-259.79 5.9261 26.195 8.0877 64.226 62.592 98.675l1.0916-51.485 75.792-49.045-0.97665-58.483-182.49-0.34624c-28.096 36.023-56.147 77.001-83.923 115.22-10.426 14.327-13.012 21.051-10.955 28.494 18.802 66.052 15.596 147.53 54.468 185.82 51.549-49.048 100.55 24.048 60.519 69.536zm-782.24 1055.5c7.1429 22.09 2.5816 66.763 2.1295 66.766 8.344-4.5998 30.725-69.38 24.888-93.638m257.09-1188.4c-12.929-3.5855-22.677-9.0726-36.298-7.6925-10.723 1.1748-14.388-2.3549-7.8817-8.2333 8.5144-7.2997 16.791-10.337 32.697-2.136 47.86 24.677 49.114-11.78 27.616-14.232-6.1036-0.69621-5.841-4.5886 0.24149-3.6408 33.344 1.1308 23.446 45.353-16.375 35.935zm-56.001-36.069c-6.325-2.2654-13.966-6.0723-16.769-5.3015-7.0712 1.9446-7.3376-1.9493-6.5214-6.5646 1.971-11.145 13.364-9.192 28.466 0.29609 21.634 13.592 29.776-6.1823 10.101-16.711-6.6195-3.5422-4.5857-4.545-0.73179-4.7267 10.212-0.4816 19.914 13.367 17.271 24.758-6.7626 18.285-23.484 11.235-31.816 8.2496zm62.953-34.061c-13.957-2.3383-34.266-20.967-43.65-22.196-5.2693-0.56816-11.458 0.11056-13.155-1.9969-5.1915-6.4454 9.4005-6.5299 10.381-8.8857 0.003-5.462 0.32228-8.8828 0.0935-10.747-2.5951-3.4729-12.823-17.364-12.51-24.122 0.24007-0.42009 5.3432 3.7074 7.9557 3.706 24.822-13.272 41.876-7.5487 62.944 1.6008 8.7063 3.7811 31.221 21.025 31.519 23.778 0.50516 4.6596-9.528-4.0261-17.361-9.2129-19.301-13.249-36.647-22.645-60.729-14.581-3.7498 1.3136-3.0961 2.0004 9.2582 1.1759 12.075-0.80588 21.99 2.8368 37.479 12.812 3.85 2.4795 8.5015 6.7188 11.27 8.0183 19.468 9.1374 23.749 18.205 11.38 15.816-2.647-0.51132-7.7895-3.2348-12.835-4.9863-8.8906-3.0859-5.7461-2.1567-14.261 1.8715-2.9881 1.4136-10.186 4.3997-16.105 5.1363-4.5369 0.78195-19.26 0.7476-12.712 6.928 6.9544 6.8805 18.449 11.916 26.347 15.027 5.6892 2.4893 1.3176 1.9677-5.3104 0.85727zm1.4794-30.146c9.0714-3.4206 1.9175-11-9.6798-12.614-2.6533-0.36919-8.2474 12.183-8.3557 14.818-0.0807 1.9623 13.066-0.3302 18.036-2.2039zm-25.081 1.4966c2.0766-1.3352 9.0012-11.47 9.0012-13.077 0-6.4763-8.2865-4.6251-10.163 2.1315-2.2818 8.2162-2.4521 13.269 1.1617 10.946zm-29.35-52.044c-7.4916-3.2604-17.735-17.654-6.1038-15.283 2.5072 0.56188 15.55 1.1617 23.967 1.1487 28.652-0.0443 57.281 12.766 75.554 31.54 10.168 10.446 10.866 18.217 0.57531 11.04-36.524-32.394-58.78-26.197-93.992-28.446zm289.61 1122.4-10.107 5.4532c0.0581 5.6211 2.077 4.7345 6.5934 8.6866 0 0-6.2164 1.0484-10.768 0.77388-7.4113-0.44708-9.108-0.31529-5.8025 4.8777 1.5282 2.4008 3.6223 5.9461 3.6223 5.9461s-4.0131 0.89144-10.068-0.73148c-9.1768-2.4597-13.863-1.1677-10.369 3.9047 0.96449 1.4003 2.8173 4.0316 2.8173 4.0316-6.6946-1.4782-19.013-7.3796-19.013-7.3796l-8.6475 2.6818c17.482 33.657 78.825 12.003 61.742-28.245zm299.52-49.939c9.4529-8.0288 4.7816-17.778-9.1405-24.862-5.7943-2.9484-5.2239-2.9928-14.557 2.5622-11.503 6.8466-12.316 7.2006-4.0427 15.871 9.9856 10.466 20.791 12.332 27.74 6.4293zm-35.401-22.329c8.7176-3.927 5.4747-3.2526 4.8304-12.382-2.6114-10.509 3.3409-11.277 6.2298-21.119 1.1867-5.3787-3.3442-3.3687-12.125 4.8977-7.2434 6.1558-9.3957 7.6616-9.3957 4.6855 0.80642-2.4881-5.0522-8.8359-10.275-9.6721-4.4163-0.70707-4.004-1.7211 0.2724-7.3216 7.4232-9.7219 10.428-21.943 5.346-32.67-6.4225-13.556-8.5268-15.541-22.478-3.5872-7.1418 6.6498-17.253 11.786-22.106 19.989-3.4712 6.0362-1.4053 11.846 4.2131 23.635 14.021 29.422 35.5 42.548 55.488 33.544zm49.106-0.0356c15.372-6.1272 9.0585-22.722-15.119-39.342-14.574-10.019-18.689-9.8903-6.3013 0.98577 7.9254 6.9581 9.1723 9.4263 5.8251 14.484-2.7917 4.2186-5.7233 9.1757-2.902 13.004 4.4432 6.0286 12.015 13.452 18.497 10.868zm-867.64-22.538-16.856-10.502 0.08557 14.5 16.853 9.9308zm839.41 8.152c3.317-2.362 6.1419-8.9579 6.1419-11.87 0.71625-6.7502-10.259-5.0677-15.461 2.4235-5.8502 8.4244 1.1672 15.251 9.3192 9.4461zm37.471-23.053c7.6045-8.0631 3.8314-16.58-11.943-26.664-6.0919-3.9366-9.1945-6.5138-8.4032 1.3586 0.24143 2.4017-2.3741 5.5984-4.0587 7.5062-5.4088 6.1256-2.9847 7.2044 12.596 16.95 7.932 4.9617 7.5197 5.3982 11.81 0.84942zm-877.03-10.242-16.853-10.042 0.07767 13.162 16.86 11.234zm-36.638 13.355 0.14017-13.201-21.844-14.338-0.22251 14.717zm855.62-10.36c-2.7593 7.5723 8.497 4.0813 9.1422 3.3096 1.9308-3.8338 0.20195-4.183-0.76095-4.5812-1.9867-0.82139-9.6529 0.5444-8.3813 1.2716zm4.8636-9.5718c3.86-1.2676 4.316-0.78582 3.7367-7.7544-0.87443-10.52 0.70296-11.37 7.6658-16.04 5.5658-3.7336 5.611-3.1762 5.4816-9.6294-0.15613-7.7905 0.35992-11.146 10.598-12.794 4.1907-0.67456 6.5821-1.7154 6.9113-5.0272 0.55315-5.5646-8.4439-14.905-19.598-20.26-1.638 0-26.365 21.77-33.262 29.284l-4.2117 4.5886 5.1276 9.4715c7.9952 14.768 6.7308 20.232 2.1964 39.906-0.92234 5.2668 3.1332 4.4779 4.1568-1.8584 1.3614-5.9197 2.1587-8.0753 11.197-9.8861zm37.567-52.643c-1.8427 11.947 4.3836 19.249 10.186 13.287 3.1571-3.2444 5.6705-29.612 3.4393-33.781-12.069-12.764-13.17 17.621-13.625 20.494zm-191.94 198.77c44.416-26.358 101.82-5.364 133.97-26.959 14.952-16.675 30.021-27.34 21.423-38.729-6.6965-8.8695-11.024-10.206-11.024-10.206 0.47627 0.62728-23.395 20.976-58.224 16.505-58.026-1.6533-85.338 16.723-86.144 59.389zm75.8-62.58c28.392 0.81979 51.436-4.25 61.939-12.543 6.5222-5.1498 7.5071-6.054-2.7676-6.8207-22.056-1.6458-44.529-27.072-51.667-51.823-1.4515-5.089-3.1658-10.618-3.1658-10.618-58.455 47.222-187.3 121.82-187.3 121.82 8.8126 39.854-19.954 63.824-59.194 49.885-6.8152-0.57697-5.8792 8.1837-4.5733 11.775 2.1696 5.8921 6.932 10.81 7.8602 11.596 5.858 4.9599 6.9648 8.2521 6.1148 13.042-0.83929 4.73-0.75425 4.5684 2.5661 6.3213 5.9015 3.1155 5.6244 7.605 2.4695 16.882-3.3804 13.045-3.5986 16.324 5.7967 22.468 12.093 7.6687 35.791 15.996 32.369 27.659-7.7568 26.434-20.613 49.221-31.888 73.974-4.202 6.8587-3.2262 18.141 0.14845 23.386 4.192 8.044 3.77 17.701 9.1802 25.075 29.95 43.894 55.742 82.521 83.027 122.17l283.01 1.0052-10.891-652.62s-43.372 43.217-43.217 46.249c0.18393 3.6164 10.301 9.2081 14.636 9.9026 0.1673-1.9591-0.0838-9.6911 0.46037-12.406 0.3762-3.9338 12.976-2.9874 17.164 0.40381 2.9346 2.3764 2.1297 18.001-0.74975 30.733-2.3558 10.416-2.019 10.554 2.478 16.539 5.4793 7.2923 7.3972 13.495 6.7325 21.776-0.3642 4.5368-0.30686 8.1195 0.9963 11.113 3.0639 7.0378 2.2338 16.978-1.0646 21.62-4.7857 6.7359-4.8577 7.7573-3.7857 11.335 4.028 12.402 2.6114 22.991-11.211 28.453-1.7697 0.69933-3.6917 3.7772-4.8095 6.4301-5.923 19.914-17.259 19.956-32.793 14.322-10.717 42.834-55.286 53.845-87.44 52.768-33.504-1.1222-67.552 1.5891-82.579 23.587 3.2417-51.914 26.313-77.069 82.146-75.457zm100.57-86.765c5.681-2.16 6.3523-8.0984 1.5469-11.878-7.3769-5.8027-15.775 0.19514-12.28 8.6322 1.9588 4.7291 5.2144 5.3442 10.733 3.246zm-881.76-13.635-22.399-15.322 0.21072 13.841 22.315 14.14zm42.143 11.12-15.894-18.84c-46.7-28.18-87.219-59.77-126.07-85.17l-0.19098 17.546 11.097 5.5121s0.91398-3.8624 1.6581-6.0947c1.3966-4.1899 14.259 7.5047 18.391 16.908 1.0286 2.3407 3.2676 7.5744 3.2676 7.5744l14.959 8.145s0.19829-4.2308 0.19829-5.4103c0-8.9775 16.022 3.2817 23.381 17.918 1.7838 3.5478 4.1153 7.3064 4.1153 7.3064l14.083 8.4423c5.4927-7.5975 19.664 2.6726 23.326 11.839 4.6458 11.628 12.712 12.59 13.031 12.627zm-84.004-2.0524-0.04984-13.445-23.346-15.155-0.21631 13.632zm957.42-4.5514c0.586-3.5312-2.9748-17.24-8.1998-17.977-3.2672-0.4605-8.3439 4.5105-8.3439 7.9637 0 4.4799 15.909 13.839 16.544 10.013zm-19.013-16.198c5.048-5.5779-1.4058-12.771-9.1542-10.214-9.2058 3.0382-5.967 11.374 4.3572 11.489 2.3053 0.026 3.6907-0.0528 4.797-1.2754zm-939.75-4.3464 0.01344-12.817-21.567-14.071-0.37231 12.531zm-42.275-4.2745 0.14161-12.335-14.174-9.7545 0.0872 14.773zm0.29219-36.962-14.467-9.3103 0.0789 13.374 15.114 8.5242zm58.316-41.016c-1.5175-3.9419-7.6789-16.411-7.6789-16.411l-65.655-45.254 0.0829 14.047 73.435 48.766zm-31.24-108.27-0.8016-5.7102-5.8033 3.1383zm-13.847 1.5066-9.1154 5.0017 27.734 17.803-2.2987-12.76zm958.4-157.04 7.0936-5.2009-12.634-8.4495-0.89049 8.6519zm12.7-8.28 9.3129-7.7838-31.438-21.886 2.3013 13.717zm22.119-11.683-0.0557-9.4312-50.971-33.981 3.6108 17.213c8.9803 5.1174 19.96 12.608 31.439 20.576 7.2787 5.0699 7.3148 7.0393 15.977 5.6229zm-0.10307-17.465-0.0883-14.961-58.961-38.647 4.8744 17.528zm-0.13259-22.468-0.067-15.685-71.369-46.552 7.9034 20.704zm-0.23252-39.396-89.975-59.446 11.603 22.918 78.463 51.768zm-0.15-22.924-112.92-74.153 12.76 20.866 100.24 66.919zm-0.14353-24.325-4.2081 0.01011c-0.2709 10.721-11.934 3.0159-16.373-8.7497-3.3473-7.877-4.0957-9.8622-4.0957-9.8622l-22.74-15.174c0.49071 3.1117 1.8552 11.986 1.8552 11.986l-15.32-9.224s-4.4926-14.721-4.6371-14.818l-26.174-17.558c0.57106 3.013 1.0405 7.9876-0.654 8.3369 0 0-7.9452-3.336-11.603-8.5894-3.8058-5.4665-4.4078-10.983-4.4078-10.983l-21.354-13.641-5.2916 0.60072s-2.8776-1.9258-5.5868-4.0928c-5.1011-8.9922-11.015-10.317-18.093-13.947 0 0 15.073 17.388 23.135 27.664 7.4014 9.4898 16.351 16.241 16.351 16.241l119.29 78.571zm-0.14431-24.456-9.2152-5.4594 0.75848 14.47 8.5437 5.732zm-926.52-26.385c0.55705-0.91234-1.7982-1.9443-4.4134-7.6057-6.4768-14.021-7.1342-18.919-3.8051-33.712 1.5883-7.058-4.8307-10.043-7.7295-2.5096-2.2551 5.8608-5.7941 9.1722-9.203 8.7653-3.2157-0.38381-3.889 0.96886-2.468 5.397 1.7435 6.1313-1.9155 14.155-7.0538 16.365-5.1947 1.3682-6.1236 4.6687-4.633 9.4339 2.4738 7.9083-6.0378 14.661-12.757 14.319-10.384-0.52935-6.2572 8.8962 6.3067 17.821 4.6532 3.3053 6.7353 5.0955 10.367 3.3915 9.4148-9.0023 26.952-21.908 35.389-31.664zm901.01 23.689-0.61-13.796-26.21-17.482 3.32 18.448zm25.457-5.938-0.082-13.905-10.789-6.8387 0.63713 14.772zm-983.07-15.731c2.5164 2.5164 5.004 2.7315 8.965 0.31638 4.5669-2.4187 2.7927-6.0293-2.0148-8.3572-4.4905-2.3298-10.721 4.8761-6.9503 8.0409zm-7.8309-6.0501c-0.37106-2.9082 3.1529-6.849 5.6047-7.0093 5.3646-0.35073 4.3966-3.2085-1.7592-6.8871-2.8875-1.7255-8.0129-5.7668-9.8818-7.1066-9.2131-6.6054-18.016 3.7246-11.15 12.372 5.748 7.239 14.188 11.507 17.186 8.6306zm962.71 2.9362-2.1148-15.348-23.679-15.535 1.9618 16.902zm-857.59-32.373c1.2713-2.1397 1.6503-4.1736 1.5063-6.7448-0.54104-9.6599-5.5904-20.989-12.631-30.451-5.2395-7.0415-11.582-13.048-17.989-16.563-18.097-9.1703-42.146-5.0335-38.573 6.8926 2.5406 8.0593 1.9998 14.824-4.9063 18.926-4.6958 2.7888-5.2718 6.5124-0.28937 6.4896 3.6164-0.0166 13.191-3.3887 17.157-9.7137 5.5893-8.914 8.7862-14.097 7.6052 0.40671-0.49388 6.0653 0.2623 5.6098 9.6587 5.0698 12.745-0.73233 10.397 1.6697 2.9784 7.4567-10.801 8.4253-12.87 22.585-7.322 34.583 3.4319 7.4225 5.8005 11.371 10.212 10.347 9.5076-6.3239 25.009-19.011 32.593-26.699zm815.82 13.108-23.303-15.143 1.0088 16.345 25.152 14.645zm-890.99-9.697c-8.575-10.688-18.479 3.088-11.989 9.046 4.7094 4.0889 16.509-0.19579 11.989-9.046zm-20.109 1.6145c-1.0786-3.3392 5.0395-8.7503 5.9939-10.892 2.7798-6.2385-22.516-23.398-30.291-13.094-5.3581 7.1003-1.5726 14.149 13.045 23.734 8.819 5.7828 13.03 5.754 11.253 0.25293zm908.69-15.724-21.538-13.237 0.45831 14.115 22.869 13.603zm-37.753 12.854-0.0851-14.417-21.703-14.942-0.26543 14.928zm-840.51-12.082c3.9-3.9 2.5663-5.1527-5.017-4.7188-4.7913 0.27418-6.2653-0.51357-6.5753 1.6829-0.68662 4.8644 7.5847 7.0435 11.592 3.0359zm-18.021-5.346c0.38565-1.005-2.3403-2.9594-6.7866-6.6433-8.4859-7.031-9.4694-11.428-1.3803-16.995 11.531-7.9355-0.67583-19.053-14.086-14.426-10.837 3.7394-10.805 14.672-4.313 21.667 8.8767 5.836 25.011 22.728 26.566 16.398zm858.32-19.478-21.347-14.449 0.0838 14.195 21.334 12.274zm-854.4 5.972c9.4394-4.8813 9.8753-16.986 0.41892-12.499-3.9001 1.8507-8.9946 6.8356-8.9946 9.0783 0 4.3618 3.7567 5.9125 8.5757 3.4205zm6.7887-27.824c12.232-6.6672 10.321-12.781-1.956-20.371-14.973-8.4666-25.327 8.0039-12.968 19.094 6.4693 5.8051 7.9582 5.0736 14.924 1.2768zm15.848-11.989c19.824-21.551 33.057-20.535 59.403-20.116 67.949 0.21082 88.584-32.386 86.3-55.141-32.925 16.591-62.446 7.961-93.848 12.893-54.156 12.424-60.365 37.965-64.063 52.582zm271.96-74.623c17.511 0.0524 16.728 0.59217 9.4429-13.76 17.057 2.232 23.981 10.358 18.254-6.5712 9.0612 3.1688 14.492 5.6166 23.847 8.6358l5.9066-3.4697c-36.271-34.882-76.093-4.9107-65.345 30.431l13.356-6.4834z" fill="#131f67"/>
    <path d="m921.2 1211.2-0.13633-23.103 20.838-0.123s-0.12372 8.076-0.44292-75.057c-0.2784-72.5 0.28257-73.049 2.3478-80.1 14.238-48.61 100.55-49.064 106.41 4.7721 0.4514 26.215 0.6175 31.71 0.7847 31.736l-23.098 0.1363s-0.057-6.5671-0.061-10.341c-0.027-26.992-8.4762-38.899-29.837-38.934-16.251-0.027-25.281 5.8677-30.313 19.192-2.8219 6.4899-3.0825 12.536-3.0423 18.426 0.20316 29.9 0.7833 130.05 0.76733 130.03l23.232-0.1371 0.42633 22.953zm-623.37-106.43 8.1466-40.682 74.87 3.1955s8.8444 25.456 12.431 36.923zm-172.86 0.034 39.325-65.818 56.482 14.968-12.672 51.345zm109.7 0.3382 16.671-70.109c-32.301-6.9114-62.759-11.4-98.421-20.8l-57.258 91.654-34.779-0.7192c29.723-40.09 83.963-121.02 83.963-121.02 125.76 42.434 252.33 48.975 379.58 25.414 0 0 47.3 61.638 64.318 95.114l-33.108-1.4297-41.529-68.623c-28.618 3.2753-56.759 7.2557-86.629 8.6778l20.814 60.579-32.869 0.1938-19.003-60.417c-35.846-1.1752-65.951 1.7993-108.94-4.6657l-14.757 65.894zm236.84-1.3724-11.572-42.985 40.365-4.9549s18.929 32.716 29.273 47.572zm117.56-129.72c1.7952-29.979 7.627-53.538 35.234-93.457 35.285-51.021 99.37-150.4 100.92-155.06 0 0 66.908 99.099 96.84 143.88 25.534 38.367 41.208 81.215 42.195 107 1.8939 49.441-29.072 80.561-70.841 85.952-28.671 3.7007-58.608-22.112-61.046-52.678-0.9988-12.521-7.8423-16.276-9.6113-5.2736-2.1804 38.128-32.227 60.893-66.862 57.71-51.444-4.7266-68.801-55.21-66.833-88.07zm360.12-6.6409c-13.218-4.1221-22.755-17.579-24.52-34.598-2.0172-19.453 4.9011-39.381 28.451-75.897 11.16-17.745 22.859-36.451 32.038-55.288 14.101 20.444 21.449 36.155 35.679 57.284 32.67 51.687 39.012 79.57 22.642 99.547-11.549 14.094-36.051 14.608-46.258 0.9714-3.0638-4.0931-3.814-5.969-6.004-15.013-0.976-4.0303-3.8803-4.5408-4.6791-0.8224-4.1119 19.139-19.953 29.241-37.348 23.816zm-842.53-261.48c49.79-76.66 225.76-323.91 225.76-323.91l25.848 2.3138s-156.29 220.71-232.17 332.63zm-256.91-117.28 62.135 44.184 2.4917 346.85-62.613 44.621zm253.5-568.96 37.89 73.072c-158.24 151.7-125.98 328.44-39.98 454.13 0 0-10.857 28.293-34.697 58.416-115.79-75.39-152.04-272.86-151.18-274.98 126.44-114.12 143.36-150.32 187.97-310.65zm653.45 536.49c7.5558-111.67 61.721-184.95 122.63-229.89l3.7994 113.52c-39.822 38.672-81.937 78.606-126.43 116.37zm-166.82-111.46c138.6-130.96 142.26-315.82 39.93-450.89l41.21-58.263c59.26 62.684 117.4 128.39 142.89 281.74-87.85 70.08-165.15 185.49-185.22 301.64zm-192.92-150.29l-0.56932-53.188 52.122-0.5689-1.171 53.115zm-110.2 0.23458-1.0586-53.001 51.534 0.0684-0.48463 53.738zm88.4-142.44s171.31-242.8 238.59-330.47l14.468 10.51-227.83 321.16zm-404.46-166.7c0.39329 95.396-60.311 171.35-122.48 221.04l0.21213-108.61zm35.359-173.82s-125.31-165.61-139.01-237.9c-4.7096-44.015 20.056-90.378 63.24-96.546 33.571-4.3013 66.122 19.623 70.384 53.915 0.78903 6.7424 2.3305 8.5667 5.8743 6.9521 2.5737-1.1727 2.9577-2.5275 4.0218-14.193 3.0296-33.213 33.865-51.771 66.007-49.138 57.605 7.0284 78.145 78.833 62.273 115.23-33.517 76.849-139.78 224.53-132.79 221.68zm-330.39-190.15c-4.9153-19.449 2.2798-44.596 16.21-50.994 20.717-9.516 40.745 2.2191 44.19 20.652 1.2958 6.9322 4.2253 6.4512 5.3363-0.75914 2.7355-17.753 23.275-27.88 41.209-18.781 22.238 11.282 26.814 40.753 10.481 73.727-18.299 31.364-55.642 91.434-55.642 91.434-1.1705-3.4437-53.222-80.824-61.784-115.28zm1199.9-101.72 2.8618 423.41-58.582-34.806 2.8556-355.11zm-278.13 26.71c-131.97-33.48-252.08-43.03-378.13-15.24-16.57-19.52-72.32-100.89-72.32-100.89l31.906 0.27993 45.578 72.004 85.957-11.748-22.494-58.659 35.465-0.0553 18.012 57.551c-0.18439-0.45228 69.986 0.2805 109.01 4.668 6.0736-21.445 17.354-64.054 17.354-64.054l39.068-0.25398c-4.8984 20.474-18.092 69.189-18.092 69.189 32.024 4.2601 91.464 18.997 92.011 19.646 20.648-29.551 39.83-59.097 58.489-88.637l38.07-0.408c-11.101 19.064-77.758 117.54-79.874 116.61zm-921.69-76.426 23.695-0.13983c-0.68015 17.286-0.29982 37.852 15.669 45.152 28.338 9.4794 46.992-7.7616 48.748-32.602 1.1059-28.465-0.20283-131.41-0.20283-131.41l-22.501 0.13278-0.13734-23.275 69.094-0.40774 0.13735 23.275-22.7 0.13396s2.131 88.173 0.6499 132.16c-0.84353 43.396-33.898 58.259-61.281 56.843-56.73-1.7883-52.246-42.37-51.172-69.863zm897.08 25.815-58.297-13.23 14.899-51.395 81.373-0.52707zm-334.41-16.587-27.349-47.456 52.084-0.30736 17.494 41.835zm118.18-10.398-8.1118-37.869 94.592-0.5582-9.43 40.446z" fill="#d40000"/>
    <path d="m1415.8-376.97 84.125 121.41c0.391-0.3909 47.14-9.3102 93.094-11.562 45.685-2.2391 100.16 0.61468 100.62 2 0 0 14.377 43.403 19.25 64.719 6.4355 28.478 5.7591 61.252-1.0312 83-9.9506 31.865-15.208 41.425-37.438 63.312-16.485 15.981-39.779 33.367-63.812 42.656-33.297 13.903-36.688 13.831-56.307 14.746-12.973 0.60555-14.297 1.1094-21.395 4.7911-2.189 0.76413-3.6113 3.0454-5.5593 3.701-1.6471 0.5543-4.7596-0.07179-4.7596-0.07179-108.21 47.425-192.91 100.31-256.9 147.53-0.7448 0.54972-1.2242 2.9954-1.9412 3.5818-5.2376 4.2841-10.062 7.5323-15.165 11.446-0.7016 0.53815-2.2755-0.42462-2.9716 0.11167-75.282 58.001-117.93 105.03-133.62 118.61l1.5385 270.06s34.279-17.609 51.857-28.343c12.343 104.57 64.498 206.14 146.84 276.69l-35.719 49.25-164.62-113.34 2.2812 498.28 87.531-60.781v-52.562c26.084 17.564 51.542 24.412 70.062 104.41 14.807-28.1 13.509-69.948 6.875-97.906 0.1066 0 22.22-18.276 29-32.281l-32.531-28.844s8.4275-69.865-6.9063-83.938c-12.135 31.713-21.812 65.315-67.156 89.781l-0.5-242.75c22.598 14.313 43.972 30.44 66.312 45.125l3.0788-0.62095 23.109 15.84s-2.4476 4.9481-4.6875 8.3438c-28.084 42.594 18.713 94.842 56.781 63.406 14.906-12.309 42.878 38.866 48.156 88.094 5.3733 31.803 8.2659 71.284 16.906 98.906 2.6727 8.0601 1.6276 12.58-4.0625 17.469-29.172 41.045-87.812 123.75-87.812 123.75h42.25l3.0554-4.8437h-31.149c26.828-35.694 52.422-77.28 80.25-112.12 103.69 39.03 273.55 48.04 376.12 24.375 21.186 29.71 41.783 60.856 62.156 91.125h-29.5l4.0625 6.3437h39.906l-84.062-123.75c-57.943 17.237-199.2 10.523-196.62 9.0937 0 0-0.39-0.9621-5.2813-15-24.253-78.292-26.496-147.78 34.344-203.94 32.314-28.735 68.412-47.687 108.72-44.094 18.021-0.35166 18.364-1.3272 25.875-4.7188 4.1399-1.8679 12.719-3.8125 12.719-3.8125l40.833-22.644 5.3853-1.075 11.75-6.1875 2.4286-2.8759 18.976-9.6402 2.1269 0.17233 25.656-14.761 0.3438-2.083 10.094-6.2188 2.4063 2.5312c2.7976 0.23314 100.57-63.926 141.34-99.688l2.5313 0.9375c47.615-38.529 112.36-99.275 131.56-122.34l-1.1-115.71-1.625-1.4062-0.6562-128h-3.7188l-0.1562-15.791c-21.053 7.7968-44.225 27.354-45.781 26.541-13.407-108.37-63.31-208.2-144.84-281.5l34.719-47.938 161.22 108.47 0.4376-31.688h2c1.9783-121.51 3.0625-436.47 3.0625-436.47l-1.5938-0.15625-0.028-25.146-82.409 52.614-1.1562 53.156c-36.535-11.934-59.674-55.824-67.344-94.938-10.644 4.2688-15.585 45.459-11.656 97.625-11.291 6.7389-18.52 14.106-25.438 23.031 8.9459 11.266 18.875 20.505 29.819 29.956-2.2859 4.9213-7.118 74.531-2.3189 83.168 2.1979 6.3694 9.8061 5.4594 9.8456-1.2402 11.115-54.29 62.608-89.919 65.498-86.635l-1.2583 250.32-91.483-64.118c19.208-21.69 23.249-58.268-0.9465-76.169-24.259-17.948-48.009-2.7237-53.625 8.6875-29.701-19.356-39.696-91.079-44.031-119.16-1.0819-13.659-4.5831-32.204-8.625-48.938-2.5319-10.486-5.5495-20.515-5.9374-29.906-0.171-4.4229 0.3545-6.3371 4.375-11.875l88.937-126.19-45.406-0.15625-0.4375 0.78125 35.719 0.0937-80.219 113.91c-120.67-37.911-245.79-47.08-379.66-23.031l-66.125-93 30.063-0.125-1.1876-2zm69.781 1.0625 1.2813 2.2812 51.969-0.15625-0.7813-1.9375s-52.359-0.18749-52.469-0.1875zm77.062 0.28125 1 2.75 35.463 0.125-1.0877-2.6875zm181.06 0.96875-0.3629 1.25 39.082 0.0625 0.3438-1.25zm-119.75 0.0312 0.375 1.5938h94.275l0.3437-1.5zm181.53 0.84375-0.375 1.3125 81.375-0.0625 0.6874-1.25zm343.34 69.406 0.25 17.125-54.656 34.75c-1.3681 73.252-3.4687 355.03-3.4687 355.03l-13.094-8.5938 2.5624-352.84s48.361-31.078 68.406-45.469zm-143.44 13.781h1.8438l0.5624 3.9688h-3.1874zm3.875 10.344 1.4375 5.375-8-0.0312 1.3437-5.1875zm137.97 2.7812v11.188l-47.156 29.469v-11.094zm-145.56 9.3125l12.3 0.17 2.0625 6.1875h-15.531zm-302.88 3.3125 8.25 1.2348c18.896 45.093 23.78 83.817 27.063 124.11 7.5349 52.298 22.736 104.72 33.312 127l-12.094-0.125c-1.3973-0.17922-26.929-75.892-32.25-120.59-1.4263-8.8527-0.8587-17.075-1.3125-25.281-2.693-34.566-7.4235-60.544-22.969-106.34zm15.5 1.8223 10.531 1.0751c7.3558 32.021 18.083 62.246 22.438 94.415 6.9654 51.454 10.684 104 35.5 154.72l-9.8438-0.09375c-15.058-34.287-24.376-70.052-30.375-108.72-4.6899-22.176-4.7353-38.827-7.2187-58.875-3.0206-24.072-12.294-54.678-21.031-82.521zm16 1.4902 10.531 1.5625c6.9269 31.798 18.821 66.79 21.969 95.531 6.4128 58.535 15.599 113.08 34.063 151.78l-7.375-0.21875c-28.523-55.248-28.977-104.48-36.969-156.25-4.7064-30.49-14.682-60.988-22.219-92.406zm16.781 2.4688 9.3125 1.4375c6.4676 31.635 18.08 67.442 20.781 99.531 4.7828 56.799 14.856 99.801 36 145.66l-8.7187 0.15625c-25.526-44.663-28.957-99.48-36.906-155-4.3899-30.666-14.288-61.526-20.469-91.781zm400.16 0.0625v13.844l-47.156 30.281v-13.656zm-384.94 2.6875 9.7188 1.5c6.2607 30.51 17.908 63.076 20.656 92.781 4.6992 50.77 14.036 102.04 34.969 149.28l-8.9688 0.5625c-22.137-47.7-31.778-91.113-35.969-145.94-2.3497-30.739-14.18-68.214-20.406-98.188zm256.84 0.15625 3.375 8.2188-22.594 1.0938 0.2813-9.2188zm-240.84 2.875 11.563 2.25c12.247 48.669 15.457 94.749 23.801 141.01 10.425 57.478 21.409 86.369 30.386 97.085l-9.5624 0.3125c-23.341-49.763-31.609-99.242-37.031-150.5-3.1988-30.241-13.119-60.042-19.156-90.156zm17.625 3.2812 8.8126 1.7812c10.51 39.777 15.245 76.98 19.868 112.99 8.4053 68.38 31.19 120.39 36.038 122.8l-9.7188-0.4375c-21.079-29.132-28.886-78.727-39.25-148.72-4.556-30.768-9.0889-59.716-15.75-88.406zm14.188 2.8438 9.875 2.4375s8.9007 34.993 15.625 81.438c5.6025 38.704 8.5509 114.86 50.625 158.66 21.004 21.863 58.001 40.852 83.25 20.219 10.786-9.1945 17.738-23.934 11.25-39.688-10.903-26.385-47.818-21.865-35.531 5.8125 1.3749 6.639-7.2985 6.9194-13.344 0.4375-6.3485-6.924-4.7674-14.819-0.2634-22.078 9.4933-15.301 34.908-16.87 49.826-3.2028 23.834 23.343 13.524 63.397-16.656 76.094-34.766 14.771-79.571-15.717-97.312-44.812-29.352-50.681-33.898-98.797-40.781-149.97-3.4986-27.635-10.236-56.648-16.562-85.344zm14.875 4.0938 10.031 2.4375c0.034 0.13539 10.989 49.326 14.625 78.469 4.4935 36.017 9.4548 78.455 24.875 111.22 9.5894 20.375 23.544 37.515 37.656 47.5 12.132 8.584 23.017 14.013 39.156 10.5 18.636-4.057 19.439-32.896 1.6563-32.969-9.0839-0.0372-3.1678-8.7825 4.375-9.0312 26.796-0.88389 27.574 41.358 2.3437 50.781-28.892 10.79-60.129-9.548-79.469-35.094-33.842-52.556-32.507-100.49-39.938-142.88-1.9842-22.323-14.562-79.887-15.312-80.938zm202.78 1.4688 6.125 8.1875-34.031-0.15625 0.1562-7.7812zm-187.84 2.7188 9.5938 3.3438c0.2708 0 9.6253 38.184 15.438 83.312 6.9012 43.511 9.1532 79.729 31.688 111.16 9.3745 13.074 27.074 30.517 38.219 32.594 6.9042 1.4919 14.057-0.030763 15.812-5.2812 2.8748-8.5983 10.248-4.6468 10.406 3.1562-0.034 5.4588-4.0399 11.126-10.812 13.094-33.122 5.7319-63.428-35.851-72.625-56.938-12.455-30.672-17.786-64.95-23.188-107.62-2.2863-18.065-13.217-75.663-14.531-76.812zm307.31 1.5312-0.1563 13.781-47 29.625v-13.406zm-292.88 2.6875 10.75 2.9375s8.9635 33.581 14.312 75.062c5.4259 42.068 17.076 90.94 38.844 116.22 1.9799 2.4224 3.3324 4.1413 4.1875 5.5625 1.5588 3.437-0.2956 9.2427-1.9063 9.25-38.783-20.182-47.951-101.27-51.281-128.69-4.913-42.401-14.906-80.344-14.906-80.344zm150.81 6.5 34.219 0.96875 8.1562 8.0312-45.312-0.40625c-4.7821-4.9378-1.8025-4.3659 2.9374-8.5938zm142.06 11.188v11.438l-47.156 29.875v-11.688zm-140.88 3.625 50.062 0.875 17.563 10.438-76.5-0.625zm140.88 14.5v13.719l-47.156 29.562v-12.875zm-159.41 2.5938 85.062 0.90625 0.2188 9.2188-92.25-2.375zm-11.094 15.781 96.219 0.25 0.25 10.188-87.5-0.84375zm170.5 1.5625v14.312l-47.156 29.219v-13.562zm-152.41 15 73.75 0.34375-8 8.5312-55.625-0.5625zm152.41 5.0312v13.5l-47.156 29.656v-13.312zm-96.906 10.312-8.9375 8.6875-38.219-0.53125 1.3126-7.9062zm96.906 9.4688v14.469l-47.156 28.812v-12.531zm-144.59 5.2812 31.531 0.6875-4.8124 6.625-27.594 0.125zm-283.56 11.531c4.7537 36.396 31.17 109.77 31.156 109.75l-10.406 0.09375c0.5182 0.70219-18.883-46.223-25.875-90.438-0.8496-4.2191 2.0356-18.446 5.125-19.406zm281.5 2.0938 24.281 0.4375-5.2813 9.375-19.781-0.0312zm146.66 2.2188v12.656l-47.156 29v-11.531zm-147.44 12.812 16.094 0.5-3.8125 8.6875-12.469-0.375zm147.44 6.8125v13.5l-47.156 29.25v-13.031zm-438.09 2.875c4.7363 26.51 24.845 79.756 26.375 83.25l-8.9062 0.125c-0.4026 1.215-20.906-47.743-23.094-68.688-1.0541-4.3867 1.27-13.064 5.625-14.688zm290.5 5.625 9.5312 0.4375-1.625 4.9688-7.7187 0.1875zm0.8438 11.938 4.9687 0.125-1.1875 4.7188h-3.0938zm146.75 0.25v10.906l-47.156 29.844v-10.344zm-449.91 1.1875c7.1547 21.25 14.307 42.903 22.781 63.625l-10.563-0.25c-6.9978-14.942-11.916-31.736-17.375-48.219-1.5057-6.8781 1.7013-12.766 5.1563-15.156zm-10.531 14.188 17.563 49.062h-9.9688c-4.1012-9.8678-8.7174-20.901-11.95-31.06-3.3101-10.534-3.0033-10.879 4.3563-18.003zm460.44 3.0625v12.938l-47.156 29.188v-11.156zm-467.79 18.979 9.629 27.177-12.312-0.3125c-3.6086-8.5532-5.8154-16.024-6.7202-24.349-0.3364-4.0411-1.0703-8.068 1.7507-9.7686 5.5586-3.1467 4.9279-0.55422 7.653 7.2529zm-13.081 11.126 5.1163 15.926-11.5-0.28125c-3.3821-7.5275-4.6756-12.944-3.6563-20.824 6.9185-7.9858 7.4326-3.8098 10.04 5.1795zm480.87-9.3553v13.531l-47.156 28.344v-12.562zm-497.19 9.7188 4.8126 15.688-10.375-0.25c-1.7202-3.6796-0.6273-8.1587-0.6876-12.312zm-13.594 8.0312c0.1516 0.0074 0.2829 0.0459 0.3437 0.125 1.4817 6.9409 0.034 7.375 0.125 7.3125l-14.5-0.09375s11.757-7.455 14.031-7.3438zm510.78 4.0625v10.812l-47.156 29.406v-10.969zm-560.9 17.159l283.38 0.8125 9.4375 13.344s-27.569 0.75004-117.88 0.1875c-76.02 0.97975-228.78-1.625-228.78-1.625l14.875-7c20.6-0.4821 39.3-5.8252 39-5.7193zm560.72 1.5938v11.906l-47.156 28.562v-11.531zm-797.4 11.425c-22.785 10.097-44.05 12.581-59.939 11.294-34.216-2.7728-86.567 11.533-97.094 44.406-3.3051 11.609-3.3408 11.932 2.9376 17.844 3.1184 2.9333 6.1404 5.1593 6.7187 4.9375 5.5033-4.8836 12.805-13.948 20.625-16.594 10.282-3.1097 15.858-3.535 32.719-4.2812 36.329-1.6083 44.525-3.1386 53.563-5.5312 19.886-5.2651 39.936-24.821 41.141-46.615 0.138-2.4968-0.6706-5.4597-0.6706-5.4597zm-0.9704 2.9812c-3.8381 45.464-53.09 51.388-74.719 50.094-43.862-2.6249-61.136 10.473-68.084 18.601-2.2888 2.1791-3.6206 1.6651-3.2558-0.31934 5.0914-25.172 45.766-26.122 66.246-25.844 50.184 2.2873 62.898-21.909 61.477-22.146-3.8062 1.7075-6.631 3.211-10.489 5.0416-1.6603 0.69125-1.3073-0.32024-5.6468-2.8337-0.069 0.32885-5.0253 11.58-11.435 0.90668 0.1632 0.53273-4.5622 9.4779-13.314 1.1211 0.06 0.89994-5.2836 8.567-13.84 0.72489-8.0476 6.8902-11.876 3.0969-15.334-1.7454-2.5357 1.5226-9.993 11.585-16.206 0.75251-6.6259 4.2159-9.3874 8.7801-15.088 6.0219-13.298 2.3813-24.811 16.03-29.5 28.531-1.4636 4.2947-4.4226 4.9693-4.7812 0.25-1.5759-13.041 19.889-35.633 41.436-41.874 16.755-4.8529 28.18-8.3558 65.009-6.9491 20.941 0.79984 47.524-10.333 47.524-10.333zm537.59 3.4375 13.281 9-231.16 318.72-20.406-0.53125zm-370.81 0.21875h26.281v43.438h-22.656l-8.0938-12.031c2.0937 1.2318 4.5216 1.9688 7.125 1.9688 7.7773 0 14.094-6.3178 14.094-14.094 0-7.776-6.3165-14.062-14.094-14.062-7.777 0-14.094 6.2865-14.094 14.062 0 0.69127 0.059 1.3666 0.1563 2.0312l-8.4-12.563s3.5999-2.1423 12.188-5.9688c2.2213-0.98978 7.5625-2.7812 7.5625-2.7813zm81 0h44.531v43.438h-44.531zm97.562 0h46.094v43.719l-46.094-0.28125zm99.531 0h46.062v43.438h-46.062zm352.81 1.0312 0.6876 13.562-47.156 28.656v-13.406zm-331.47 4.5c-8.2289 0-14.938 6.6461-14.938 14.875s6.7086 14.906 14.938 14.906c8.2289 0 14.906-6.6773 14.906-14.906 0-8.2289-6.6774-14.875-14.906-14.875zm-196 0.782c-8.2289 0-14.906 6.6461-14.906 14.875s6.6773 14.906 14.906 14.906c8.2289 0 14.906-6.6773 14.906-14.906 0-8.2289-6.6773-14.875-14.906-14.875zm97.125 0.28125c-8.2289 0-14.906 6.6461-14.906 14.875s6.6773 14.906 14.906 14.906c8.2289 0 14.906-6.6773 14.906-14.906 0-8.2289-6.6773-14.875-14.906-14.875zm50.2 1.781c6.9036 0 12.5 5.5964 12.5 12.5s-5.5964 12.5-12.5 12.5-12.5-5.5964-12.5-12.5 5.5964-12.5 12.5-12.5zm-197.59 0.1875c6.9074 0 12.5 5.5964 12.5 12.5s-5.5926 12.5-12.5 12.5c-6.9049 0-12.5-5.5964-12.5-12.5s5.5951-12.5 12.5-12.5zm296.19 0.4375c2.9686 0 5.6727 1.1303 7.7188 2.9688l-13.625 18.5c-3.3721-2.0178-5.625-5.6908-5.625-9.9062 0-6.3809 5.1501-11.562 11.531-11.562zm-195.69 0.0625c6.9073 0 12.5 5.5964 12.5 12.5s-5.5927 12.5-12.5 12.5c-6.9049 0-12.5-5.5964-12.5-12.5s5.5951-12.5 12.5-12.5zm-150.94 0.90625c5.1481 0 9.3126 4.1658 9.3126 9.3125s-4.1645 9.3438-9.3126 9.3438c-5.1477 0-9.3437-4.1971-9.3437-9.3438s4.196-9.3125 9.3437-9.3125zm-28.594 0.5c79.4 101.14 121.6 203.67 140.2 315.41l-13.312-0.625c-22.1-121.53-71.8-225.76-139.2-309.88zm325.38 0.09375c5.4465 0 9.875 4.3973 9.875 9.8438s-4.4285 9.875-9.875 9.875-9.875-4.4285-9.875-9.875 4.4285-9.8438 9.875-9.8438zm-196.1 0.781c5.4465 0 9.875 4.3973 9.875 9.8438s-4.4285 9.875-9.875 9.875-9.875-4.4285-9.875-9.875 4.4285-9.8438 9.875-9.8438zm97.125 0.28125c5.4465 0 9.875 4.3973 9.875 9.8438s-4.4285 9.875-9.875 9.875-9.875-4.4285-9.875-9.875 4.4285-9.8438 9.875-9.8438zm247.12 7.0625c5.2343 40.028-5.1001 65.872-35.625 70.062-38.922 5.343-43.97 8.2717-44.188 45.125-0.2578 43.682-6.7159 56.297-37.656 59.75-34.808 3.8846-42.903 8.0077-39.781 51.281 2.2782 31.576-10.167 45.013-36.969 50.875-20.957 4.5837-39.104 11.599-46.875 32.719l-19.1 0.25c4.9759-33.262 38.412-49.148 59.844-50.25 23.104-5.4798 27.93-13.225 24.187-53.719-2.8174-30.487 8.37-39.751 44.188-46.719 28.635-5.6441 35.652-13.863 34.094-37.281-3.3423-50.213-0.04-57.768 28.5-63.875 14.54-3.4444 38.222-4.987 47.25-16.094 10.268-12.633 7.6508-23.387 6.7187-38.906zm183.97 1.3438v13.125l-47.156 29.094v-12.781zm-693.1 7.782c-10.085 43.535 24.588 52.997 45.688 60.344 24.545 8.5467 30.506 20.932 27.719 64.188-2.108 32.721 1.4984 39.952 22.688 51.188 32.411 16.722 41.115 40.49 26.719 75.281-8.8759 21.45-4.215 27.465 1.4063 46.188l-15.719-0.15625c-1.1478 0.35869-14.419-23.352-3.0938-48.875 13.419-30.241 13.039-45.423-16.875-59.031-23.145-10.529-30.248-20.459-31.687-42.125-0.6063-9.1232-0.542-13.668 1.5937-33.5 2.6927-25.004-6.2204-35.76-43.188-49.5-16.473-6.1224-27.662-20.369-31.031-42.969-0.9445-6.3262-0.094-13.625-0.094-13.625zm552.9 4.718 140.6 93.534-1 20.81-149.1-99.656zm-90.594 2.0625c6.8007 0 12.313 5.5132 12.313 12.312 0 6.7993-5.5119 12.312-12.313 12.312-6.8018 0-12.31-5.5132-12.312-12.312 0-6.7993 5.5106-12.312 12.312-12.312zm-442.31 5.375c6.1729 0 11.156 4.9846 11.156 11.156 0 6.1717-4.9833 11.188-11.156 11.188-6.1747 0-11.184-5.0158-11.188-11.188 0-6.1717 5.0129-11.156 11.188-11.156zm672.72 1.3125-0.4687 12.531-46.281 28.625v-12.531zm-733.69 8.75c42.514 55.413 84.305 112.51 116.53 220.09l-13.75 5.2812c-26.5-86.59-67.4-158.53-115.7-218.03zm111.04-0.53033 320.3-0.00092-8.2188 11.062-306-3.125zm623.05 10.405v13.719l-35.469 21.594-10.438-6.8125zm-752.9 1.469l6.2813 8.25s-6.8017 5.337-14.5 10.844c-20.972 15-23.697 16.704-25.094 26.469-3.3183 23.192 20.527 34.627 44.469 21.219 8.5846-3.9243 27.406-15.844 27.406-15.844l5.4062 7.9688s-26.978 20.182-42.812 24.781c-34.732 10.091-60.667-33.925-35-60.062 3.923-3.995 12.213-9.3614 18.812-13.625 6.7694-4.3732 15.031-10 15.031-10zm142.97 5.4688 295.12 1.75-188.47 257.59-8.375-0.46875c-14.61-96.351-50.846-180.52-98.281-258.88zm-128.69 10.906 17.25 24.094s-11.248 10.752-29.813 20.906c-14.888 8.1419-30.991-6.6591-21.625-20 9.6162-13.248 34.188-25 34.188-25zm738.62 2.4688v12.562l-20.438 12.531-9.3437-5.9688zm-740.8 9.66c-8.1843 0.43261-21.755 9.7132-26.375 17.719-1.9864 3.4417-1.2715 6.3274 0.5625 8.6875 2.7911 3.5917 6.0926 3.3872 15.906-1.8438 20.04-10.679 23.796-17.021 14.969-23.281-1.2194-0.86484-2.6785-1.2504-4.3125-1.2812-0.2523-0.005-0.486-0.014-0.75 0zm-0.6563 5.1562c1.2953-0.12404 2.7905 0.26652 4.0313 0.15625 3.4647 1.4252 2.4041 5.7337-1.2187 6.75-0.7955-1.258-6.8083-1.4247-6.4063 4.6875-1.4625 3.4629-1.4027 3.1976-5.8125 3.6875-2.9235-0.7073-4.8667 1.3146-5.4375 2.5938-3.0399 1.6263-6.7723 1.1182-7.4687-0.71875-0.6724-1.78 1.8238-6.9187 3.9374-6.9062 1.0168 0.0813 2.8259-1.4343 4.6876-2.6875-0.066-3.3433 3.8611-3.8266 5-3.8125 1.1143 0.23389 4.8763 0.2838 6.6874-2.7812 0.5187-0.64224 1.2237-0.89433 2-0.96875zm741.44 3v19.375l-14.813-9.4688zm-818.88 2.4375c53.746 63.466 92.457 131.01 117.09 224.5l-10.781 7.4375c-16.1-65.55-41.2-134.82-115.4-224.85zm628.84 1.0625c24.333 20.667 124.06 114.53 143.06 281.12l-13.344 8.1875c-10.6-87.93-45.2-188.75-138.2-278.09zm-48.094 5.7812c6.7994 0 12.312 5.5132 12.312 12.312 0 6.7993-5.513 12.312-12.312 12.312-6.8007 0-12.313-5.5132-12.313-12.312-0.0001-6.7993 5.5119-12.312 12.313-12.312zm-595.5 4.81s11.299 11.61 11.281 14.375c-0.036 5.4716-4.3855 8.5742-30.344 18.031-4.3818 1.5964-23.559 6.0154-23.559 6.0154l-0.6972-9.3014c9.7838-3.5275 36.05-9.8212 37.975-15.401 0.9397-2.1939-3.7389-7.75-2.75-7.75zm179.07 2.3643c6.1745 0 11.156 5.0158 11.156 11.188 0 6.1717-4.9817 11.188-11.156 11.188-6.1716 0-11.188-5.0158-11.188-11.188 0-6.1717 5.0159-11.188 11.188-11.188zm452.4 3.1982c81.246 79.362 125.96 177.42 136.41 278.69-94.616 76.952-158.9 173.7-184.44 294.72-12.62-21.04-23.359-45.229-35.031-68.875 126.25-110.95 152.82-310.75 43.625-450.81zm-496.88 15.125 5.6874 8.8125s-1.1881 1.0826-18.875 12.062c-25.872 16.062-30.14 26.534-21.5 42.969 8.8313 16.805 18.68 17.702 46.469 4.25 9.8144-4.7508 18.156-9.75 18.156-9.75l4.4376 9.2188s-12.441 10.121-36.406 18.906c-22.538 8.2623-43.842-5.8143-47.844-31.844-2.9141-18.922 5.3425-29.067 38.219-47.719 3.6987-1.9577 11.656-6.9062 11.656-6.9062zm387.12 4.1875c6.8017 0 12.31 5.5132 12.312 12.312 0 6.7993-5.5107 12.312-12.312 12.312-6.8007 0-12.313-5.5132-12.313-12.312 0-6.7993 5.5119-12.312 12.313-12.312zm-502.06 0.46707 7.4392 7.0132s-3.2083 4.7169-21.531 15.739c-16.47 9.9092-18.167 8.3038-9.966 15.232 15.288 12.915 36.498 41.513 36.383 48.903-0.1105 7.1176-6.4843 13.678-18.71 19.179-6.6928 3.0117-33.181 12.457-37.072 13.135-7.7334 0.84578-9.9131 3.9469-2.1759 10.979 13.141 15.073 24.355 47.333 19.847 57.17-5.079 11.08-11.167 12.954-59.838 15.183-5.5455 0.2537-8.1923-1.3158-5.1874 5.7812 2.1861 5.1563 4.4745 12.241 8.8124 34.125 3.8665 19.517 3.203 28.29-4.375 32.312-4.3554 2.3105-38.204 1.4969-52.187-1.25-16.005-3.1447-17.747-3.3574-15.156 7.0625 3.3565 14.391 5.4483 52.963-5.4375 60.406-4.5303 2.9488-9.4051 2.2246-29.281-4.4688-12.677-4.2695-23.656-9.1562-23.656-9.1562l0.2187-11.969c10.334 4.2535 38.662 16.488 46.719 12.625 9.5559-13.687-3.7106-61.69-8.7812-71.969-6.1189-12.275 0.2778-14.955 14.375-7.3438 7.3988 5.2127 71.133 30.345 67.51 7.8634-3.8858-21.333-10.816-45.616-24.259-60.864-12.433-14.103-6.2447-19.869 7.5928-13.687 24.487 10.94 75.087 8.2603 72.567-3.0813-3.3333-18.444-20.09-43.448-43.023-62.833-6.3769-5.3904-6.6162-7.7 0.906-9.0266 21.42-1.7063 82.721-8.0027 74.15-22.394-7.3524-11.78-17.172-24.803-25.537-31.814-13.734-11.514-27.586-16.511-33.727-18.905l0.3927-8.8258c27.918-2.3187 42.432-10.724 62.988-25.121zm-67.593 8.6892c-10 104.93-53.9 191.4-144.5 251.71l-0.5-11.75c79.7-59.84 117.9-144.89 128.3-227.19zm193.1 6.59c0.036 0.00081 0.055 0.0169 0.062 0.0312 0 0 14.58 26.213 14.562 28.594-8.6533 8.0176-31.366 19.757-40.656 17-14.33-4.5672-16.573-19.855-2.8126-28.875 11.886-8.655 26.693-16.19 28.688-16.719 0.066-0.0176 0.1199-0.0321 0.1562-0.0312zm-116.12-1.632 7.4516 6.6783s-1.9142 2.9096-12.639 11.485c-8.3453 6.4212-5.4322 3.8879 0.2493 11.529 5.0591 6.065 14.063 18.252 14.063 18.252l-2.6875 16.219c-9.4308-13.432-17.253-23.208-31.25-37.562-7.1101-7.3277-6.7142-7.5269 3.4375-12.812 7.6073-4.2062 13.8-9.3163 21.375-13.788zm203.44 10.45c6.1717 0 11.153 4.9846 11.156 11.156 0 6.1717-4.9846 11.188-11.156 11.188-6.1717 0-11.188-5.0158-11.188-11.188 0-6.1717 5.0158-11.156 11.188-11.156zm-90.375 0.93214c-10.644 2.8074-21.078 12.313-26.938 16.5-2.1338 1.525-0.4531 9.1802 1.5938 11.812 2.63 3.3794 7.479 2.8162 13.281-0.40625 2.432-1.3507 6.8279-3.557 9.75-4.9062 8.1828-3.7783 11.61-6.5996 11.312-9.75-1.3116-4.238-4.6565-13.557-9-13.25zm0.5937 4.8438c2.9905 0.12398 5.1472 3.9756 4.1876 6.25-5.1289 2.7735-7.9736 0.4271-7.3126 4.3125 0 0 0.5103 6.0456-7 6.1875-1.8312-0.80072-5.0186-0.65637-6.5624 0.90625-5.2489 2.1725-9.8329-2.4203-4.125-5.0312 1.545-0.7061 5.3572-1.8993 6.4062-4.25 0.5431-2.9137 2.9542-5.2419 5.5938-3.625 1.4053 0.10064 4.5459 0.32095 5.5624-1.9062-0.3885-2.5032 1.3874-2.7166 2.6563-2.8125 0.2061-0.0263 0.3944-0.0395 0.5937-0.0312zm-214.79-0.77757c2.298 11.778-4.8078 32.462-8.8312 44.12-23.834 31.176-58.393 47.115-91.252 58.001-7.3009 2.4239-17.112 1.1982-17.112 1.1982 45.468-46.772 84.454-81.06 117.19-103.32zm-83.052 10.59c0.3216-2.6235-11.662-5.8012-12.812-4.1562-2.2122 2.075-5.7344 34.568-3.4375 36.906 3.1921 3.249 12.008 4.1398 12.845 0.27063 2.7589-12.748 2.087-22.271 3.405-33.021zm203.78-0.96875 7.7812 9.6562c-16.485 156.58-128.33 292.04-247.75 345.75l-0.3438-10.375c136.61-71.751 218.82-191.22 240.31-345.03zm540.47 0.65625 14.812 20.375l-21.2 0.66zm-748.2 3.782c-0.1237 5.3565-0.7353 16.476-2.8006 22.687-1.2885 4.8345-5.0272 3.7328-6.4375-0.71875-1.4658-4.6268-0.2438-17.766 2.5275-23.153 2.956-5.0774 5.2982-4.226 6.7106 1.1853zm113.02 2.8441c7.3272 0 46.237 23.943 41.036 35.87-4.1385 9.4922-36.706 10.263-51.636 8.9331l2.2507-9.148s4.5487 1.5859 21.898-0.25016c18.22-1.2168 16.881-7.4718-4-20.688-8.9866-5.6243-11.069-7.01-11.069-7.01zm107.83 12.843c12.055 20.321 23.465 43.221 34.187 68.875-147.11 138.81-135.69 327.86-42.937 451.94l-39.969 53.938c-79.7-76.25-123.3-170.06-138-269.69 116.7-83.92 171.5-209.16 186.9-305.06zm546.28 6.1562 8.7812 16.781-21.094-0.34375zm-91 8.41c6.8007 0 12.313 5.5132 12.313 12.312 0 6.7993-5.5119 12.281-12.313 12.281-6.8015 0-12.31-5.4819-12.312-12.281 0-6.7993 5.5109-12.312 12.312-12.312zm-342.3 3.31l4.1875 9.5312c0.196 1.1952-29.763 10.653-39.406 22.812-8.9064 11.23-8.0738 22.947-3.0624 31.031 8.54 11.525 14.594 13.136 29 8.7188 11.748-3.6024 20.377-8.4642 32.031-14.406l1.8438 4.8125c0.017-0.25408-16.727 9.8332-29.5 17.031-4.7948 2.7019-10.562 3.8392-15.563 3.7188-29.06-0.69967-44.463-38.198-20.5-60.344 3.5108-3.2446 15.382-9.7487 25.375-14.906 6.6513-3.4328 15.594-8 15.594-8zm384.72 5.9062c95.946 138.39 30.261 290.04-31.688 343.69l-1.6-16.29c104.31-118.81 68.028-257.57 24.562-319.25zm61.75 6.2188 7.5312 17.094-22.281-2.3438zm-386.73 5.5991c6.1717 0 11.188 5.0158 11.188 11.188 0 6.1717-5.0158 11.156-11.188 11.156-6.1717 0-11.154-4.9846-11.156-11.156 0-6.1717 4.9845-11.188 11.156-11.188zm313.55 2.1821c84.095 122.17 37.191 316.97-123.22 376.31l-0.8-13.65c163.56-68.377 179.62-250.41 113.91-353.12zm-364.53 0.75 10.625 28.688c-13.368 8.9554-18.616 10.481-33.594 14.125-11.804 2.6957-21.004-17.713-11.937-25.531 10.349-8.9245 21.49-12.783 34.906-17.281zm-272.7 0.09c1.9771-0.0933-0.1115 4.8023-5.1875 17.094-11.184 27.083-11.929 27.661-40.094 32.125-14.656 2.3232-25.583 2.9069-36 1.9062-15.717-1.5101-22.434-5.9526-12.25-8.0938 29.53-6.4906 62.174-21.786 83.406-36.594 5.5321-3.9691 8.7723-6.3736 10.125-6.4375zm534.52 3.334c7.6361 0 13.841 6.2076 13.844 13.844 0 7.6361-6.2076 13.812-13.844 13.812-7.6361 0-13.812-6.1764-13.812-13.812 0-7.6361 6.1764-13.844 13.812-13.844zm-418.05 3.8304-1.183 10.653s-17.06 9.0112-25.136 12.411c-6.1755 2.4991-6.5999 3.0534-4.6197 8.7724 3.9937 11.425 11.688 25.594 11.688 25.594l-7.1283 16.149c-4.3517-14.525-8.932-29.871-16.934-43.399-7.5866-10.585-9.004-11.9 2.8046-14.114 15.251-5.1323 27.117-8.8494 40.51-16.065zm152.34 3.4606c-8.3463 0.36509-25.774 7.3854-27.5 14.094-0.9788 3.7898 0.1054 9.0907 3.3125 10.281 8.6766 3.2211 26.094-3.9177 30.688-10.438 1.4303-2.0113-0.746-6.1791-2.2813-8.7812-1.1717-1.9877-0.9489-5.2991-4.2187-5.1562zm0.4375 5.7188c0.1478-0.0149 0.2898-0.0137 0.4375 0 1.4139-0.12348 6.5614 6.3925 0.7813 5.8438-1.9913-0.18891-3.804 0.55395-5.4376 2.25-0.2002 3.128-4.6828 4.3148-6.8437 3.25-1.6078-0.79226-3.8642 0.84275-4.0937 1.8125-3.2448 2.3392-7.3514 2.2252-7.875 0.5625-1.0991-1.166 2.179-5.9578 5.0312-5.7812 0.6137 0.038 2.6384-1.3299 4.5312-2.9688 0.9073-3.2679 4.3557-2.7034 6.5313-2.5312 2.4653 0.99113 4.7198-2.2132 6.9375-2.4375zm451.78 0.5 6.1563 17.125-22.031-1.9688zm-94.694 19.73c-4.5623 5.8115-8.7613 5.8723-15.412 5.5632 5.4475 6.4493 7.8489 15.364 2.5439 21.206-8.0642 8.2225-23.622-4.3778-22.469-5.5312l27.915-37.197c7.4047 2.1006 11.506 9.0238 7.4219 15.959zm-606.19-9.7006s33.931 29.229 34.173 42.327c0.095 4.9918-1.507 6.6121-5.4973 7.9347-13.33 4.4187-50.426-6.9466-50.426-6.9466l4.7654-9.0469c5.8396 1.6102 34.583 9.0504 37.055 5.39 2.5663-3.8004-24.009-29.726-24.067-29.755zm168.41 12.22 4.0625 14.125-13.875-3.4375zm541.84 2.5312 3.625 19.531-22.219-5.1875zm-423.4 0.32l3.3124 11.469c-147.39 68.343-190.42 225.29-113.56 354.81l-8.6876 11.938c-102.8-166.71 1.4-335.9 119-378.22zm-132.78 12 2 17.406-17.125-1zm-202.83-0.45711c2.9156 0.0409 3.47 1.6117 3.4598 3.3321-0.014 2.3466-14.884 21.338-19.704 25.612-10.452 4.2218-50.781-12.627-56.803-25.665-1.1871-3.8184 2.7954-2.1383 11.726-0.32154 22.625 6.452 45.551-2.4082 61.322-2.9571zm392.66 0.22411c6.173 0 11.188 4.9846 11.188 11.156 0 6.1717-5.0146 11.188-11.188 11.188-6.1742 0-11.156-5.0158-11.156-11.188 0-6.1717 4.982-11.156 11.156-11.156zm-464.26 13.752c11.218 10.082 27.703 18.422 42.32 21.331 9.1012 2.0046 6.4608 2.9406-1.9785 11.656-7.8943 8.2485-7.2452 9.2925-15.282 5.2169-13.411-6.8006-27.997-22.256-27.409-30.662 0.2445-3.4994 0.8541-7.5599 2.3492-7.5427zm837.15 1.8874 2.7813 18.562-21-7.2812zm-583.59 6.6875 6.8437 16.625-18.625-0.53125zm473.3 15.88c-0.014 2.3238-0.5625 6.25-0.5625 6.25 10.952-6.9706 25.495-1.2467 25.063 10.016-0.6097 15.879-8.3722 16.027-21.063 13.921 6.9472 11.52-1.297 22.617-14.356 18.371-11.907-3.8708-9.6145-16.43-4.0501-23.871-28.086 4.5797-35.595 44.533-3.1562 56.406-6.5214-10.092-8.1402-22.143 6.0062-24.168 13.139-1.8811 18.703 8.081 13.026 20.069 12.343-4.2905 23.977 2.7816 20.261 14.804-4.4876 14.518-17.394 13.513-25.012 4.6698 5.4675 13.16-7.1887 22.642-16.734 17.543-15.05-8.039-7.6114-22.383 2.4738-26.199-38.755-3.992-47.748 49.609-19.18 57.253-7.3355-4.5985-8.1644-25.707 8.5804-22.816 16.444 3.3081 12.532 18.585 1.9848 25.531 12.732-2.7182 24.655 8.4092 16.906 19.656-9.135 13.259-21.729 3.8038-26.406-5.2188 1.4711 12.1-6.2301 19.805-16.135 15.267-17.001-7.7906-4.438-27.297 8.8536-26.048-26.967-15.933-63.629 17.486-42.031 45.156-0.8403-12.569 5.4207-22.886 14.057-21.462 7.6017 0.85661 14.251 9.5186 12.112 16.327-1.9899 5.8056-8.6098 10.269-15.544 11.667 20.621 2.2877 22.379 16.875 13.834 24.065-14.509 12.208-21.25-1.8874-24.615-10.127-2.9502 20.481-27.1 13.517-27.938-1.2812-0.8223-16.215 17.884-15.88 21.344-14.969 0.4364-0.56108-14.477-15.321-30.393-17.42l0.099-9.4066c62.756-39.355 84.332-108.07 64.419-173.2l3.7812-4.3438c10.231 7.8171 20.498 24.581 39.424 18.432 0 0-4.4014-3.0991-6.5801-5.2448-9.7425-9.6008-4.2689-20.907 9.2812-21.531 8.7805-0.40466 12.195 6.3751 12.25 11.906zm-425.72-0.0312 6.5 9.5312c-95.158 111.48-77.815 239.03-23.094 323.47l-7.9687 9.625c-48.431-62.088-87.97-212.62 24.562-342.62zm81.095 15.406c-0.1295 2.4822 0.05 4.481 0.05 4.481s2.0451-2.5436 3.7057-5.5943c8.124-13.585 25.617-5.7677 22.744 9.8321-1.3476 7.316-13.679 10.175-17.035 8.0849 3.1952 8.7182 11.844 10.767 22.379 14.54 3.6847 0.70415 10 2.5 10 2.5l0.25 5.9062c-57.078 35.958-89.393 96.931-68.469 180.31l-6.3125 8.5312c-11.516-27.695-22.016-27.09-40.947-28.176 0 0 4.7063 3.319 7.4155 6.5193 5.7389 6.7837 3.1953 18.612-4.75 19.844-18.404 2.852-18.59-10.19-16.156-19.031 0 0-3.2946 2.7649-4.9062 3.8125-7.3013 4.746-16.398-0.18248-17.25-9.5938-0.7997-8.8576 2.2275-14.587 11.344-15.688 3.0597-0.36941 7.7812 0.40625 7.7812 0.40625s-1.8151-3.4805-2.8125-5.4375c-4.3628-8.5602 5.2104-15.884 14-14.037 13.874 3.3443 12.784 15.311 4.7482 24.717 21.518 1.617 32.8-12.447 31.213-26.414-1.9354-17.039-9.7758-26.25-26.703-29.22 0 0 2.7294 4.287 3.8982 6.3598 4.3323 7.6834-1.8929 17.116-11 17.062-9.3381-0.0551-15.316-8.6154-11.719-17.062 0.8764-2.0578 4.3774-4.6381 3.8437-4.875-0.367-0.16292-5.1761 1.3249-6.5 1.5312-11.22 1.7489-18.421-8.1135-13.719-17.969 3.331-6.9807 13.348-8.8611 20.625-5.4375 1.1562 0.42413 2.5613 2.0445 2.7812 1.6875 0.213-0.3458-0.7365-2.6358-1.0312-4.25-2.3055-9.0278 2.0313-13.847 11.812-13.219 13.691 0.87903 18.792 12.034 9.5938 22.094-2.3737 2.5962-6.0266 6.4348-6.0266 6.4348 0.4566 1.9785 19.532 3.4192 29.277-6.7786 11.278-11.802 13.053-36.433 1.7188-44.469-1.8706-1.3262-5.6273-3.965-5.6273-3.965 5.3964 10.824-4.537 23.283-13.3 20.955-17.527-4.2273-16.011-18.574-4.4852-23.107 0 0-11.693-4.3684-15.06-9.0719-4.7597-6.6499-3.1537-12.78 2.5553-17.455 7.1934-5.7799 17.418-1.9938 22.352 5.1424 2.9788-9.0767 7.1778-15.208 19.595-10.268 8.6825 4.1448 8.6104 15.732-0.951 22.04-3.0638 2.0213-8.519 3.9035-8.519 3.9035s8.2202 4.6816 18.222 4.7938c19.294 0.21636 34.562-22.524 26.781-39.906-1.5795-3.5285-5.5217-8.0808-5.5217-8.0808s-0.4284 6.0742-1.6282 8.4076c-4.4564 8.6672-14.706 8.8232-20.765 3.3575-5.5076-4.968-3.8968-11.618 0.3739-16.147 3.2405-3.4366 6.1638-4.111 10.689-6.2167-5.14-1.7364-10.86-2.9871-13.358-8.3036-2.322-5.0681-0.6912-11.304 5.4675-15.167 11.118-5.81 19.837 4.0275 19.337 11.681zm-382.69-14.027c7.8606 4.538 13.101 11.386 20.436 17.37 5.6651 4.5918 5.6039 5.4121 0.917 9.7768-10.537 10.162-16.458-4.5485-19.863-10.563-4.1716-8.0557-4.6029-16.279-1.4893-16.584zm842.53 2.8079 1.3124 19.656-21.906-8.4062zm-603.69 1.1562 7.875 17.875-20.344-0.0937zm425.09 0.0312c19.12 70.666-7.7675 121.39-58.781 161.12l-5.6563-7.4062c39.876-33.876 69.72-73.804 56.531-144.94zm-234.38 0.3125 224.28 4.125-6.7187 11.812-17.469 0.0937-34.656 61.25l-161.1-0.03zm-328.16 51.115c-7.823 12.347-54.415-14.23-53.802-15.63l5.8414-5.6189c7.3967 3.0014 30.426 15.704 35.524 13.696 1.7818-11.56-11.799-26.529-16.913-36.49l5.7013-7.1482s29.543 38.249 23.648 51.191zm76.438-44.959-7.753 14.02c-7.2596 2.2271-29.17 2.6198-30.934 4.0735 2.6441 7.1861 5.5499 28.295 5.5499 28.295l-8.6333 11.044c-2.3025-13.581-6.1455-30.748-9.5416-43.339-2.9047-10.68-2.0925-8.3312 20.656-10.094 10.195-0.57626 20.704-1.8675 30.656-4zm46 16.906 9.2188 16.375-18.688 0.1875zm-224.59 1.0938c1.0182-0.41659 6.8025 6.0641 7.7965 7.934-0.4258 4.2576-7.0278 6.5854-8.0465 5.066-0.4109-0.61277-0.5317-10.165 0.125-12.812 0.025-0.10174 0.057-0.15973 0.125-0.1875zm846.2 0.22l-0.1876 20.5-22.219-9.8438zm176.41 4.625-0.3125 13.281c-80.571 39.35-200.75 145-235.03 334.5l-7.0312-7.75c34.2-180.92 152.4-287.9 242.3-340.03zm-810.47 18.281 10.031 15.094-18.094 1.9688zm634.5 5.7812-1.7812 18.156-21.875-12.125zm-420.9 3.79c0.085 4.3078 0.4549 7.4176 0.7188 11.719-49.647 32.14-66.424 82.721-58.156 146.38l-6.875 10.156c-16.156-57.715 0.1537-128.83 64.312-168.25zm575.62 3.75c5.062 2.9679 21.464 7.805 21.464 7.805l-0.1827 12.07-33.781-12.125zm-970.61 51.36c-7.2677 5.924-24.027-3.936-31.645-7.9536l-0.2188-10.188s5.8071 2.9778 11.656 5.3125c12.017 5.3276 12.048-1.0179 5.4652-18.806-2.3148-6.255-4.6056-13.494-4.6056-13.494l7.9063-7.4947s18.912 42.588 11.441 52.623zm169.61-38.204 12.938 13.531-18.031 4.125zm788.6 1.62c11.45 0.014 33.531 9.3125 33.531 9.3125l-0.1457 13.391c-11.212-3.2462-24.232-9.4775-36.086-11.224-9.3633-1.2937-8.8112 3.9503-8.8622 17.177-0.069 17.921 4.4316 34.11 13 52.031 7.0965 14.842 3.402 18.814-8.1874 12.188-20.86-14.315-65.313-25.117-72.154-16.789-7.0369 8.5657 6.8194 51.223 22.842 71.57 6.5088 8.2659 6.9144 9.59 3.875 12.812-2.4627 2.6083-6.4431 2.7672-13.469 0.53125-23.11-7.3546-56.556-9.0098-66.191-2.7803-9.5633 6.185 15.329 48.9 36.222 62.687 13.551 9.6674 10.935 14.477-10.969 14.969-35.767 0.16834-63.275 8.1423-61.75 17.906 2.5927 16.596 25.757 39.357 52.344 51.438 16.272 6.6463 9.4677 9.2894-1.3484 13.13-18.089 6.1086-35.475 15.888-52.495 25.026l-8.1875-10.469s17.127-10.884 35.75-21.344c4.3661-2.4523 4.146-3.3448-1.9687-8.4688-19.838-16.633-34.396-35.193-37.438-47.688-2.958-12.142 3.102-19.807 21.125-26.656 11.134-4.2318 15.236-5.4826 25.063-7.6875 14.16-3.1768 14.397-3.6145 8.3437-14.5-2.7145-4.8817-7.1617-12.94-9.875-17.906-21.099-36.079-9.9714-49.103 39-49.844 12.026-0.63252 14.315-0.66831 13.656-4.8164-2.6062-16.997-10.119-36.515-9.0544-50.918 2.2421-21.719 24.58-26.97 63.836-17.172 9.0898 2.2687 9.7221 1.8084 8.125-5.5312-7.598-33.069 0.3158-62.905 21.469-60.375zm-144.06 2.3125-3.4374 21.062-20.906-13.906zm-781.84 4.9688 57.656 3.7812-9.1563 10.75-34.844-0.65625-1.3126 29.75-11.156 9.5625zm373.7 2.28h47.469l-0.375 50.188h-47.313zm56.562 0h44.188v50.188l-43.812 0.46875zm52.906 0h47.375l-0.4376 50.188h-46.906zm413.75 4.002c-1.1174 12.905 1.5856 36.235 2.676 46.252-0.7673 2.9823-2.8348 2.5538-15.24-0.25444-8.6021-2.876-32.452-3.7226-32.452-3.7226l9.9955-10.586c8.1685 0.97161 14.62 0.89448 23.078 1.9508-0.1176-8.4506 0.2355-24.581 0.2355-24.581zm-767.13 9.9355 13.25 13.344-16.969 4.3438zm647.47 4.3438-5.2813 21.469-19.187-17.25zm181.73 11.408 0.075 10.955-18.87-8.4885c-0.2139 12.495 10.844 35.062 10.844 35.062l-8.9 4.23c-7.7658-12.691-13.169-24.093-13.613-38.392 0.098-5.175-0.6116-13.928 4.0504-14.17 9.5958-0.22557 17.623 3.0277 26.483 10.814zm-835.67 10.842 15.75 9.375-17.469 7.0625zm647.91 4.8125-7.7187 22.094-16.844-19.125zm-835.25 7.0312 42.5 14.406-7.5624 8.0312-35.313-11.156zm596.28 5.8438 3.5 78.281-224.56-1.8438 7.8125-11.062 14.594-0.125 38.438-64.812zm-411.94 6.0938 16.688 11.781-17.344 7.6562zm839.69 6.9062 0.031 12.812c-54.2 40.07-112.8 109.1-122.8 231.17l-14.625 12.5c7.1383-119.19 56.77-201.36 137.41-256.47zm-197.8 0.48l-7.875 19.875-15.594-18.5zm152.79 27.025-5.2243 5.8497c-1.4725 0.49083-22.151-10.589-38.406-13.188 5.322 10.526 7.8418 18.383 19.625 35.062l-7.5937 7.5c-2.2882-0.5085-31.757-44.029-23.957-53.853 12.657-8.5251 43.347 9.3516 55.556 18.628zm-88.179-23.362c-0.3314 11.815 9.2339 48.486 9.2339 48.486-14.782 0.7278-29.118-0.96641-45.075 3.5122l7.5161-13.407s6.9467-0.72295 13.028-1.9311c12.568-2.4974 11.263-0.98494 8.3457-11.913-2.7434-10.276-2.898-12.415-2.898-12.415s8.9466-12.397 9.8488-12.333zm-828.76 12.68c19.4 117.52 65.765 198.22 138.91 270.84l-7.4375 9.7188c-85.981-78.682-132.92-178.82-145.19-273zm121 4.9375 15.812 8.625-16.25 9.4688zm840.75 0.34375-0.097 17.243-9.9062-9.9928c2.6729-2.4167 5.9175-4.8333 10.004-7.25zm-208.44 3.5312-10.781 19.781-14.073-18.741zm207.28 44.751c-2.2155-3.487-21.959-15.762-30.915-20.911-0.5708-1.5141 13.873-14.415 16.74-15.306 14.34 1.9938 18.945 30.641 14.175 36.217zm-839.38-21.501 17.875 8.7188-16.219 11.438zm594.69-0.01 22.939 2.166l-12.1 18.93zm212.35 8.416c2.9777 0.0186 6.3233 1.2678 10.5 3.5938 16.16 9.0004 24.645 18.863 23.75 27.625-0.4106 4.0236-2.665 4.8316-5.2813 1.9062-4.7136-5.2706-20.612-12.131-34.312-14.812-10.382-2.0318-11.333-2.9177-8.2188-7.7188 4.72-7.2826 8.6049-10.625 13.563-10.594zm-276.41 8.3125c24.85 94.089 68.533 166.49 123.38 226.09l-11.375 9.6875c-41.7-47.78-87.5-103.69-124.9-224.57zm49.611 5.0294 22.952 3.4706-13.438 17.125zm-323.77 1.0018c2.6626 0.0903-7.9017 40.141-44.375 42.906-23.09 3.8322-25.682 7.7164-26.031 43.656-0.4734 48.717-8.3348 60.115-48.156 63.125-26.37 1.9934-29.838 7.3591-25.375 45.219 4.2469 36.034-9.3747 54.408-42.969 54.375-29.098 2.4099-41.122 15.979-41.094 42.938 0.012 10.922 0.1876 13.562 0.1876 13.562l-18.813 1.4688s0.05-17.747 1.4688-26.375c5.7317-34.877 20.679-48.843 52.156-48.688 24.336-1.8514 28.122-5.7971 27.281-42.688-0.9421-37.523-1.4481-37.267 8.3437-47.094 6.3034-6.3271 13.502-9.1713 26.281-10.375 39.799-3.749 42.942-6.4061 42.844-47.219-3.6921-33.906 5.6809-54.668 27.219-56.375 43.58-3.4542 42.549-27.11 40.625-28.094l20.281-0.3125c0.05-0.019 0.083-0.0327 0.125-0.0312zm89.125 0c25.6 137.85 106.5 266.94 150.9 314.59l-8.6563 4.5938c-64.7-80.34-123.5-172.6-152.5-318.97zm-46.156 0.0625 20.219 0.21875-232.91 327.78-12.281-9.25zm28.25 0.21875c21.881 79.457 39.099 157.15 107.91 261.09l-291.8-1.9zm80.6 0.31c1.6999-0.7873 8.5563 40.203-1.6662 59.127-9.1887 25.613-4.696 40.041 15.291 49.373 34.321 16.024 42.98 32.024 38.625 71.375-3.0481 27.552 5.2922 40.866 31.156 49.719 30.852 10.56 44.35 27.155 44.188 54.344-0.025 4.1741-1.5937 8.9375-1.5937 8.9375l-17.2 10.12s0.2161-3.6994 0.875-8.125c4.4874-30.142-1.2261-38.317-36.812-52.531-33.61-13.424-41.939-28.948-36.219-67.656 1.8692-12.625-0.7104-25.39-5.9376-35-8.796-15.665-28.24-15.508-42.219-29.812-11.549-12.25-12.836-29.359-2.9937-58.65 6.1005-18.155 7.017-25.036 2.275-40.163-3.122-9.9626-4.3438-10.844-4.3438-10.844zm-405.38 4.375 19.812 5.4688-14.906 15.469zm786.36 4.1036c6.7983-0.18506 19.938 2.1942 30.7 7.5527 24.687 12.296 29.165 22.374 7.5313 16.938-12.2-3.0658-29.737-2.3719-46.656 1.8125-17.882 4.4219-17.502 4.6206-11.344-6.1875 7.7976-13.686 9.8312-19.845 19.769-20.115zm-44.809 14.52-4.4909 7.72c-9.8105-1.6257-20.124-6.4389-35.067-5.2549 6.1263 11.724 13.386 17.79 23.13 28.13l-3.6281 7.7457c-0.8733 1.048-28.467-21.965-33.997-37.433-2.4972-6.9855-0.2328-10.025 9.8124-10.281 14.971-0.22774 30.056 4.0536 44.241 9.3737zm-368.68-7.5862c7.3926 0 13.375 5.984 13.375 13.375s-5.9824 13.406-13.375 13.406c-7.3924 0-13.373-6.0152-13.375-13.406 0-7.391 5.9826-13.375 13.375-13.375zm188.49 3.6248 22.599 4.0564-15.062 16.875zm-422.58 0.16621c5.3475-0.42489 13.603 9.9353 13.579 9.9524l-27.39 37.837c-13.035-2.6217-10.248-22.363 1.6902-22.965 2.7579 0.0163 7.7925 0.48625 7.7925 0.48625s-3.6731-2.0051-5.789-4.8113c-8.0025-9.663-0.4307-19.661 10.117-20.499zm511.17-3.3837s21.802 43.127 20.415 44.774c-13.514 5.9564-28.27 9.0334-43.121 14.447l2.8535-12.539s4.9436-0.35229 21.548-6.6769c7.9512-3.0287-8.6737-25.129-8.6737-25.129zm-150.83 12.743c31.812 0.2647 32.216 39.306 26.125 52.219-4.4287 8.8607-11.167 13.77-31.531 22.969-17.65 7.9727-19.625 7.4375-19.625 7.4375l-4.2187-9.4062s10.278-4.5318 21.344-9c22.878-9.2376 28.443-16.297 25.938-32.844-3.5479-23.428-21.646-27.076-56.656-11.375-4.0629 1.8217-9.1876 3.6562-9.1876 3.6562l-2.4-4.72c0.558-0.46502 28.038-14.865 43.438-18.438 2.4074-0.34625 4.6603-0.51765 6.7813-0.5zm-492.06 4.25 18 5.9375-13.125 12.906zm801.84 5.0312c15.907-0.0441 29.006 2.6408 28.969 8.3125-0.018 2.6914-0.6288 2.9264-14.915 4.9072-21.709 3.01-57.989 21.539-78.401 38.736-12.089 10.185-8.965 7.8094-3.8717-6.9553 5.064-14.687 12.628-32.221 16.722-34.896 10.227-6.6832 33.469-10.055 51.497-10.104zm-260.09 2.0312 15.313 3.3438-9.9688 9.6562zm-51.312 8.3125c5.4842-0.0806 8.1887 2.5055 10.344 7.75 4.6586 11.337 0.056 17.992-17.688 25.594-8.0427 3.6008-15.223 8.6684-24.031 10.281l-11.156-29.938s3.5194-1.2938 15.125-6.0938c13.227-5.4706 21.925-7.5132 27.406-7.5938zm-51.75 3.625c35.417 100.19 78.762 165.26 124.62 219.19l-11.094 6.9375c-48.7-57.62-93.5-125.15-125.8-224.55zm49.125 3.5625c-4.2907 0.12091-10.725 2.719-19.313 6.0312-12.489 4.8174-13.566 10.641-7.9687 17.844 2.4418 3.1423 4.9655 2.443 16.969-2.3125 12.255-4.8562 17.543-7.0115 18.281-11.375 1.0708-6.3614-2.4499-10.343-7.9687-10.188zm344.32 1.367c-0.028 4.2015-63.718 64.573-100.14 95.312-16.596 14.005-16.028 13.895-17.446 12.165-0.8921-10.406 6.1623-47.556 10.445-54.034 24.327-25.757 61.86-46.715 98.384-54.594 5.7365-1.1476 9.2969-1.0268 8.7617 1.1516zm-343.1 2.02c2.2865 0.0731 4.2686 2.0514 4.25 4.5938-0.013 1.9471-2.8284 3.8297-5.75 3.8125-1.0346-0.006-3.5658 0.57811-5.1563 2.2188-1.5757 2.2826-2.5978 4.4771-5.4375 3.9375-1.6551-0.31452-4.7117-0.41501-5.9062 0.625-5.5943 4.8697-11.149 0.82664-8.5626-4.0625 0.6529-1.2317 2.9143-1.8546 4.75-1.8438 1.5898 0.009 5.2235-0.3584 5.75-2.3125 0.6298-2.3324 4.1981-2.9833 6.6876-2.9062 2.7081 0.36315 4.8912-0.99383 5.5937-2.125 1.0068-0.90042 2.1884-1.8167 3.3125-1.9062 0.1546-0.0123 0.315-0.0362 0.4688-0.0312zm-481.66 1.0625 20.281 2.75-12.781 16.375zm193.6-0.27497c7.393 0 13.406 5.984 13.406 13.375s-6.0132 13.406-13.406 13.406c-7.3924 0-13.373-6.0152-13.375-13.406 0-7.391 5.9826-13.375 13.375-13.375zm211.23 10.599c7.391 0 13.375 5.984 13.375 13.375s-5.984 13.375-13.375 13.375-13.375-5.984-13.375-13.375 5.984-13.375 13.375-13.375zm-395.7 15.11l22 1.4062-12.594 16.844zm116.16 3.2188c7.3924 0 13.373 5.984 13.375 13.375 0 7.391-5.9826 13.375-13.375 13.375-7.3931 0-13.375-5.984-13.375-13.375s5.9819-13.375 13.375-13.375zm549.62 8.3438c9.1741-0.14735 19.813 0.78125 19.813 0.78125l-2.5697 10.29c-11.183 1.0682-25.556-2.0391-37.558 2.9797 4.4583 7.288 30.578 17.602 33.465 20.172 0.2705 1.0831-2.1499 10.902-2.1499 10.902 0.7015 2.5055-44.2-18.227-45.687-35.719 0.037-5.9325 19.396-9.1607 34.687-9.4062zm-154.5 10.69c25.512 0.2354 38.1 35.854 28.188 51.625-3.9273 7.1282-12.783 15.585-24.469 23.031-5.621 3.5816-20.5 10.875-20.5 10.875l-6.6876-10.344s5.9376-2.3834 11.531-5.4375c14.055-7.9364 42.563-24.847 28.781-47.875-7.7378-12.462-19.323-14.899-43.375-2.6875-17.956 9.1168-22.031 9.9688-22.031 9.9688l-4.5625-8.25c1.1944 0.68255 35.85-20.178 53.125-20.906zm-498.06 3.7188 20.031 0.0312-8.5626 18.062zm580.25-2.375c12.182 23.568 33.022 41.373 38.714 45.651 0 0-20.754 13.329-33.151 21.818l-7.2812-8.5625 17.803-15.278-20-27.97zm195.45 5.6786c-2.2587 11.641-2.6163 23.996-3.5715 37.594 4.3941 4.0102 8.3431 6.0181 11.794 5.786 3.8744-12.228 6.6629-26.116 4.814-40.415-3.6644-2.8618-8.486-2.5414-13.037-2.9651zm10.045 8.8514c-0.065 7.6766 0.9985 17.26-2.2867 24.665-1.8695 4.2138-6.1298 2.6292-6.2772-3.0981-0.1993-7.7476 1.3772-14.249 1.8247-21.307 0.2552-4.0247 1.9958-6.433 4.3943-5.5012 2.4971 1.2092 2.2901 2.9935 2.3449 5.2409zm-289.21 5.2825c13.153 0.98047 18.226 11.978 13.375 19.875-11.885 15.183-24.038 17.936-39.625 26.719l-15.563-29.094s30.284-17.09 41.813-17.5zm-0.3598 6.4956c-8.6961 1.0163-14.194 5.2588-21.505 8.8438-8.9561 4.3836-11.869 11.168-5.7919 17.317 6.6978 7.4667 30.084-10.327 33.948-14.627 2.3737-3.6907 1.9826-7.0605-1.3542-9.7167-1.4492-1.1508-3.2387-1.8011-5.2972-1.8169zm-479.73 1.2232 19.594 0.21875-10.594 14.969zm481.53 3.0634c3.3355 2.3657 3.0452 6.6101-1.6509 7.8116-2.3804 0.60901-6.4789 0.62266-6.5724 3.7929-0.069 2.3645-3.68 3.2523-5.7391 2.9161-2.1042-0.34336-5.6681-0.52349-6.3546 2.1152-1.8028 3.5924-3.1541 3.6531-5.6777 1.1446-2.7081-2.7364-1.4446-6.2023 3.8438-6.7812 2.2556-0.24692 4.2197-1.8916 5.0312-3.625-0.1232-2.2442 1.4499-3.5458 3.9376-3.0312 3.5128-0.0376 5.8105-1.3357 8.3134-4.6134 1.7513-0.81983 3.6714-0.57546 4.8687 0.27053zm-114.64 0.38572c7.391 0 13.375 5.984 13.375 13.375s-5.984 13.406-13.375 13.406-13.375-6.0152-13.375-13.406c0-7.391 5.984-13.375 13.375-13.375zm-285.67 24.613c7.3929 0 13.406 6.0152 13.406 13.406 0 7.391-6.0133 13.375-13.406 13.375-7.3924 0-13.373-5.984-13.375-13.375 0-7.391 5.9826-13.406 13.375-13.406zm-319.9 11.88 153.2 104.78-10.5 15.29-142.3-96.79zm769.28 3.4062c9.9691 0.008 17.657 5.7454 25.094 17.312 14.767 22.97 7.359 41.084-23.219 59.594-14.206 8.6-14.312 8.6875-14.312 8.6875l-7.2188-8.9062s10.348-6.0851 14.625-8.7812c25.136-15.878 32.204-29.93 21.156-45.75-10.65-15.245-21.835-14.028-52.875 5.7188-6.2772 3.9923-13.781 7.125-13.781 7.125l-6.8125-9.25s17.576-9.0333 23.562-12.844c13.754-8.7828 24.982-12.913 33.781-12.906zm114.22-3.9463 0.097 10.069c0.3397 0.45284-20.829 9.7834-33.228 15.4-4.0159 2.1943-2.4487 6.4663-2.2039 10.859l-5.9729 4.0358s-8.2491-6.0198-9.3297-9.8814c-3.0242-12.197 35.811-26.798 50.637-30.483zm-221.21 10.822c7.391 0 13.405 5.984 13.406 13.375 0 7.391-6.0152 13.406-13.406 13.406-7.391 0-13.375-6.0152-13.375-13.406 0-7.391 5.984-13.375 13.375-13.375zm-415.09 3.7554c7.391 0 13.375 5.984 13.375 13.375s-5.984 13.375-13.375 13.375-13.375-5.984-13.375-13.375 5.984-13.375 13.375-13.375zm521.52 10.681c5.0776-0.18359 8.891 3.1313 10.969 8.1875 5.3182 12.943-1.9155 22.521-28.094 37.188-2.1978 1.2312-6.8438 3.75-6.8438 3.75l-19.281-26.625s6.786-4.6697 13.187-8.5c14.34-9.3801 23.533-13.764 30.063-14zm-2.5626 6.375c-1.2337 0.0331-2.6577 0.51139-4.3124 1.4688-6.7201 3.8724-17.95 8.0795-23.25 15.094-3.0976 4.2926-1.6889 8.5579 4.1874 14.062 4.9784 3.293 30.67-15.628 31.313-21.125-2.1741-5.8174-4.2349-9.5992-7.9376-9.5zm-765.06 1.4375 4.2812 2.875-4.2812 3.375zm769.15 4.6625c1.8987 2.3152 0.7578 6.2416-3.2705 6.9312-2.0309 0.34744-5.0277 0.90378-6 3.9062-0.81 1.9786-3.5829 3.6634-6.3126 3.5938-3.1544-0.72608-4.8141 1.1803-4.9839 2.5688-1.5526 2.6514-5.3938 3.0788-7.7348 0.58752-1.8245-1.9418 1.4401-7.5286 3.5947-7.4464 0.3839 0.18082 2.7515 0.71577 5.6187-3.1152 0.579-2.7854 3.8171-4.4899 6.1679-4.3902 2.3868 0.81413 3.7891-1.8294 4.7447-3.292 2.1939-1.1633 6.6416-1.156 8.1758 0.6562zm-758.96 2.025 6.1563 4.1562-16.344 11.594v-9.3438zm11.938 7.8125 8.375 5.5938-30.5 21.844v-11.844zm15.625 9.9688 8.8437 5.8438-46.594 31.469v-12.125zm16.781 8.5v10.125l-54.531 38.062v-10.25zm6.1562 7.2812 11.75 8.0312 2.9376 343.13-73.469 50.469 0.062-15 61.688-44.594zm886.28 9.2751c-16.473 18.812-38.573 20.081-57.847 19.569-51.933 0.72567-84.175 3.4958-90.852 65.422 21.158-15.815 43.595-17.857 69.57-17.11 32.896-0.0455 47.69-2.2028 61.062-8.875 21.479-10.717 35.063-29.912 32.468-43.374-2.5486-2.9069-9.2266-14.913-14.402-15.632zm-892.44 3.0061v11.875l-54.531 36.531v-12.062zm622.67 1.1c7.3922 0 13.406 5.984 13.406 13.375s-6.014 13.375-13.406 13.375c-7.3924 0-13.374-5.984-13.375-13.375 0-7.391 5.9826-13.375 13.375-13.375zm-355.98 1.3687c96.348 2.9948 300.97 1.8438 300.97 1.8438l10.906 15.719-321.72-3.375zm625.22 10.312c-11.528 11.304-23.486 16.834-61.375 16.156-40.034-0.71594-55.641 5.61-66 23.438-3.0109 5.1815-2.9502 7.1987 1.4067 3.2802 3.6577-4.3474 11.978-12.726 15.42-4.7928 6.7982-4.4506 12.679-11.23 16.236-2.6616 1.9721-0.43824 13.508-11.994 16.243-1.7563 5.5109-6.1639 10.235-8.0954 12.822 0.64905 7.838-3.7158 12-10.752 16.452-1.0268 6.3141-4.5196 11.106-10.166 14.787-1.5622 5.3855-1.5851 10.864-11.464 13.976-3.593 0.5786 0.19288 20.052-11.516 25.564-23.099 4.5193-10.217 8.67-3.4354 3.5312 7-13.195 25.558-35.763 34.889-87.562 34.969-31.444 0.0342-44.448 3.1161-54.323 8.8741-15.862 9.2488-7.3214-14.03 3.792-28.155 14.005-17.8 29.976-23.063 73.719-21.469 23.911 0.13978 39.192-3.1592 45.656-8.375 5.4824-4.4241 9.4518-7.422 12.401-7.6183 2.949-0.19621 3.3452 3.7719-2.7446 9.7433zm-707.92-4.3286c7.391 0 13.406 6.0152 13.406 13.406 0 7.391-6.0152 13.375-13.406 13.375-7.3927 0-13.375-5.984-13.375-13.375s5.9823-13.406 13.375-13.406zm-183.98 9.9223v12.062l-54.531 37.219v-12.344zm263.66 5.7812h42.313v44.656h-42.313zm94.813 0h45.531v44.656h-45.531zm101.34 1.4375h43.938v43.219h-43.938zm95.188 0.875 29.25 1s16.237 20.66 23.094 30.188l-21.625 11.094-30.719 0.0625zm-271 3.0312c-8.2289 0-14.906 6.6461-14.906 14.875s6.6773 14.906 14.906 14.906c8.2289 0 14.906-6.6773 14.906-14.906 0-8.2289-6.6773-14.875-14.906-14.875zm97.292 1.4697c-8.2303 0-14.906 6.6461-14.906 14.875s6.676 14.906 14.906 14.906c8.2319 0 14.906-6.6773 14.906-14.906 0-8.2289-6.6743-14.875-14.906-14.875zm99.5 0.38664c-8.2303 0-14.906 6.6461-14.906 14.875s6.676 14.906 14.906 14.906c8.2323 0 14.906-6.6773 14.906-14.906 0-8.2289-6.6739-14.875-14.906-14.875zm-237.5 3.02c2.938 2.0948 4.875 5.4918 4.875 9.375 0 6.3809-5.1816 11.562-11.562 11.562-2.2479 0-4.3503-0.63941-6.125-1.75zm40.688 0.15625c5.4465 0 9.875 4.3973 9.875 9.8438s-4.4285 9.875-9.875 9.875-9.875-4.4285-9.875-9.875c0-5.4464 4.4285-9.8438 9.875-9.8438zm295.84 0.40625c-8.2303 0-14.906 6.6461-14.906 14.875s6.676 14.906 14.906 14.906c8.2323 0 14.906-6.6773 14.906-14.906 0-8.2289-6.6739-14.875-14.906-14.875zm-247.56 0.4375c6.609 0 11.969 5.3611 11.969 11.969 0 6.6077-5.3598 11.969-11.969 11.969-6.6109 0-11.937-5.3611-11.937-11.969 0-6.6077 5.3265-11.969 11.937-11.969zm197.16-0.4688c6.6077 0 11.969 5.3611 11.969 11.969 0 6.6077-5.361 11.969-11.969 11.969-6.6077 0-11.938-5.3611-11.938-11.969 0-6.6077 5.3298-11.969 11.938-11.969zm-529.44 1.2812v12l-54.531 38.094v-11.812zm381.29-0.18658c5.4495 0 9.875 4.3973 9.875 9.8438s-4.4255 9.875-9.875 9.875c-5.4479 0-9.875-4.4285-9.875-9.875 0-5.4464 4.4271-9.8438 9.875-9.8438zm99.5 0.38664c5.4499 0 9.875 4.3973 9.875 9.8438s-4.4251 9.875-9.875 9.875c-5.4479 0-9.875-4.4285-9.875-9.875 0-5.4464 4.4271-9.8438 9.875-9.8438zm-49.886 1.2374c6.609 0 11.969 5.3611 11.969 11.969 0 6.6077-5.3598 11.969-11.969 11.969-6.6108 0-11.969-5.3611-11.969-11.969 0-6.6077 5.3579-11.969 11.969-11.969zm148.94 2.3438c5.4499 0 9.875 4.3973 9.875 9.8438s-4.4251 9.875-9.875 9.875c-5.4479 0-9.875-4.4285-9.875-9.875 0-5.4464 4.4271-9.8438 9.875-9.8438zm-424.12 10.344c25.398-0.29763 52.878 12.601 68.375 34 23.456 31.36 39.132 71.353 46.25 123.84 3.5253 26 15.65 104.06 22.531 122.5l-9.4688-1.8124c-1.2794 0.6059-13.436-49.097-21.094-114.75-2.836-24.315-8.0074-55.697-22.125-84.344-16.119-32.707-43.49-67.372-80-70.125-21.293-1.6056-41.286 11.735-43.438 30.531-3.066 14.848 5.642 28.68 17.062 33.312 11.217 4.5504 24.623 1.1577 26.125-14.125 0.2612-2.512 0-5.0408-0.9375-7.375 5.1924-0.84348 9.1426 1.4961 11.25 5.875 1.0988 0.13734 0.048 22.167-17.281 26.5-20.906 6.8434-45.03-13.85-46.906-34.938-1.4299-17.764 12.087-39.708 29.125-45.656 6.4723-2.2594 13.419-3.3542 20.531-3.4375zm-155.72 6.8438v12.25l-54.531 37.625v-12.344zm156.91 7.7812c30.504-0.86763 60.206 33.133 72.781 55.531 13.125 23.377 23.514 60.502 27.094 95.438 6.0887 59.42 17.473 108.01 19.875 110.22l-8.3124-1.8125c-1.7385 1.1658-13.208-52.472-20.188-112.19-3.9149-33.492-16.342-66.696-31.125-92.281-13.643-23.612-32.039-41.252-53.812-43.812-13.648-1.3707-27.685 2.571-30.438 16.938-1.4584 8.4402 2.9553 16.716 12.969 17.438 2.3599 0.16993 4.6153 0.36407 5.0312 0.4375 5.2998 0.94428-3.0248 9.544-8.5 8.7812-19.555-2.7243-28.569-28.852-13.156-42.75 9.0172-8.1306 18.443-11.672 27.781-11.938zm65.313 8.7188 342.53 3.4688s0.2853 6.1328-21.031 5.125c-18.128-0.85697-29.825 1.6754-41.844 5.5312l-269.12-0.5937zm-222.2 3.97v11.375l-54.531 38.156v-12.562zm159.19 4.8125c6.5805-0.0896 13.291 1.6049 18.344 4.5312 42.428 24.572 58.633 85.573 64.219 123.97 7.6223 56.868 16.424 109.7 18.875 111l-9.25-2.0937c-1.2337 0.045-11.354-49.258-17.656-104.5-5.0954-44.66-20.366-89.505-50.656-108.38-19.44-13.227-23.254-14.566-32.25-6.8438-7.7617 6.6622-15.656-3.3673-9.1563-11.531 4.4847-4.1924 10.951-6.0666 17.531-6.1562zm-159.19 15.406v9.3438l-54.531 37.969v-11.062zm249.31 0.25c0.7015-0.64673 29.47 48.198 38.562 125.19 4.7878 40.538 18.49 109.66 20.688 110.22l-9.9687-1.0625c-10.194-40.766-15.834-79.348-21.281-114.12-6.1628-39.343-11.111-74.294-35.625-119.91l7.5937-0.25c0-0.0353 0.02-0.0522 0.031-0.0625zm6.5313 0.40625 8.9062 0.125c15.235 29.006 31.436 74.057 37.031 119.22 4.8329 39.007 9.7269 78.687 23.688 120l-9.5626-2.625c-11.99-33.534-16.238-74.062-22.687-116.06-7.1298-46.429-18.314-86.854-37.375-120.66zm54.969 0.0625c15.583 40.358 25.724 59.61 32.844 109.28 5.5256 38.551 13.333 86.767 31.093 137.84l-9.0205-0.3867c-13.162-35.253-23.237-82.473-27.854-127.83-6.2701-61.601-33.929-119.11-34.188-118.75zm-15.344 0.15625c0.8414-1.2544 29.718 56.51 36.406 120 4.45 42.242 14.334 84.044 27.906 124.41l-9.2187-0.2045c-10.647-12.31-18.62-70.649-27.406-125.11-8.9668-55.583-21.601-89.778-35.625-119h7.9063c-0.001-0.0499 0.018-0.0738 0.031-0.0937zm-23.281 0.0625 8.1875 0.0312c21.415 46.802 30.309 74.649 36.906 119.91 8.3434 57.234 16.357 108.87 25.219 122.31l-10-0.6562c-13.794-41.251-20.011-82.465-24.906-123.72-5.3011-44.672-18.144-82.939-35.406-117.87zm45.188 0.375 9.7188 0.15625c16.754 33.937 30.686 75.217 35.594 122.41 2.6955 25.59 7.4043 64.868 26.625 125.46l-7.7813-0.4937c-15.743-40.639-25.201-88.475-30.844-130.19-5.6915-42.074-15.738-76.794-33.312-117.34zm59.875 0.28125c9.1843 23.536 16.753 46.91 21.719 70.969l-5.5 10.719c-8.6178-31.755-18.32-56.481-27.969-81.531zm-44.344 0.0312 11.844 0.28125c20.346 47.218 30.797 97.153 33.656 113.91 0 0 2.8161 14.823 3 19.688-0.6848 41.262 6.4548 70.694 21.813 115.06l-7.0313-0.5c-17.828-51.564-22.63-88.193-27.188-123.19-3.7726-43.991-18.083-89.325-36.094-125.25zm27.344 0.375c12.124 30.265 21.369 59.452 29.781 88.656-0.38 6.633-1.0226 13.889-5.3437 19.25-9.8861-35.72-18.228-72.84-33.5-107.84zm22.375 0.25 9.375 0.15625 18.688 53.531-7.3125 8.0938c-5.4901-17.723-11.112-37.207-20.75-61.781zm54.719 0.375 6.8437 16.094-7.375 6.25s-7.5264-15.061-9.5-22.156zm13.906 0 3.4375 9.2812-6.1875 4.7188-4.8125-13.812zm-53.688 0.1875 9.6563 0.0625c3.8961 11.243 14.281 38.781 14.281 38.781l-6.9375 7.2812s-13.075-34.81-17-46.125zm14.969 0 8.5626 0.0937c2.5771 7.3078 10.594 27.531 10.594 27.531l-5.9063 5.625zm44.781 0.375 8.4687 0.40625-1 2.0938-5.2812 2.625zm-277.75 11.906c35.471 18.7 45.246 74.705 49.094 105.5 6.7131 53.733 14.248 97.452 15.844 98.625l-7.875-1.25s-5.8189-27.605-9.8438-53.875c-3.351-21.854-5.938-40.155-6.8437-48.531-0.5654-5.2322-1.4431-11.328-1.9375-13.531-4.9535-22.072-6.5459-27.127-12.938-40.563-6.135-12.896-8.2996-16.128-18.5-27.625-3.9157-4.4134-7.7286-7.6403-9.0625-10.469-1.906-4.0416 2.0625-8.2812 2.0625-8.2812zm-179.56 2.875v10.562l-54.531 38.5v-12.063zm0 18.531v12.156l-54.531 35.969v-10.781zm0 20.719v11.281l-54.531 38v-11.656zm91.062 11.406h4.8125l0.3438 7.9063-7.4376-0.4688zm-91.062 9.75v12.062l-54.531 36v-11.25zm85.438 4.5938 11.531 0.125-0.125 8.2813-14.813-0.5zm-6.6875 13.281 18.938 0.3437v7.875l-23.469-0.375zm-78.75 1.7187v12.656l-54.531 36.25v-12.719zm69.094 13.156 27.719 0.3124-0.1563 6.5938-33.094-0.2188zm-69.094 7.3437v12.375l-54.531 34.906v-11.125zm57.531 5.875 38.063 0.5313-0.9376 6.375-43.406-0.1876zm-57.531 13.469v11.906l-54.531 35.5v-11.438zm43.25 0 50.094 1.1564 10.562 9.5936-77.969 0.4689zm-15.156 17.563 86.125 1.0624 6 5.5626-92.406 0.3437zm-28.094 2.7187v12.625l-54.531 35.719v-11.531zm28.188 11.094 95.438 0.4376-6.9062 7.6562-88.656 0.25zm-28.188 9.5626v11.562l-54.531 37v-13.281zm25.812 6.0312 82.5 0.2812-9.6875 7.5938-57 1.3125zm-25.812 14.281v11.031l-54.531 39.062v-12.375zm49.938 1.4063 48.438 0.2187 0.9062 6.5-41.656-0.094zm13.406 13.406 37.187 0.375 1.75 8.4062-33.094-0.4375zm-63.344 5.875v10.25l-54.531 38.062v-11.344zm103.09 8.4062 0.4374 8-22.187 0.8438-6.25-8.375zm-0.1876 14.188-0.1874 8.4063-15.469 0.25-3.4688-8.0938zm-13.75 14.969 12.188 0.094-1.0313 6.4688-9.4375 0.125zm3.6563 15.531h5.9375l-1 5.0625h-3.0312zm120.62 85.562-2.8437 3.6562h85.25l0.9374-3.6562zm109.91 0-1.5 4.9375h38.469l1.0625-4.9375zm62.844 0.9688-1.1875 4.6562h98.344l-1.625-4.6562zm117.66 0 2 5.6562h33.094l-2.1875-5.6562zm114.17 0-58.075 0.031 2.0937 6.3125h60.063z" transform="matrix(.99998 -.0059011 .0059011 .99998 -1273.4 -185.64)"/>
   </g>
  </g>
 </g>
</svg>
