<svg xmlns:rdf="http://www.w3.org/1999/02/22-rdf-syntax-ns#" xmlns="http://www.w3.org/2000/svg" version="1.1" xmlns:cc="http://creativecommons.org/ns#" xmlns:dc="http://purl.org/dc/elements/1.1/" viewBox="0 0 744.09 1052.4">
 <g>
  <g transform="translate(-712.32 92.135)">
   <g transform="translate(-.99667)">
    <g transform="translate(-5061 3025)">
     <rect rx="10.63" ry="10.63" height="311.81" width="223.23" stroke="#000" y="-2746.8" x="6034.7" stroke-width=".99673" fill="#fff"/>
     <g transform="matrix(.30106 0 0 .30106 5730.6 -1948.1)">
      <path d="m1034-2499.9v-9.0914h8.8389l18.814-97.227h10.705l20.736 97.227h7.1342v9.0914h-24.307v-9.0914h6.566l-2.6161-14.9h-24.532l-1.894 14.9h6.566v9.0914zm43.772-34.598-10.657-52.05-9.9871 52.05z"/>
      <path d="m1727.4-1770.2v9.0914h-8.8389l-18.814 97.227h-10.705l-20.736-97.227h-7.1342v-9.0914h24.307v9.0914h-6.566l2.6161 14.9h24.532l1.894-14.9h-6.566v-9.0914zm-43.772 34.598 10.657 52.05 9.9871-52.05z"/>
     </g>
    </g>
   </g>
   <path d="m1083.1 445.39c0.015-2.0257-1.5868-2.0644-1.5686-0.58579-0.1343 7.4286-6.4165 11.086-10.981 10.219-7.0361-1.3376-9.2818-8.3221-9.2147-12.435 0.2072-12.696 12.988-22.058 24.52-38.335 8.4501 14.691 22.397 26.23 23.223 37.586 1.0977 15.098-18.009 20.73-20.737 3.1327-0.176-1.243-1.6397-1.8011-1.5261-0.065 0.4145 4.8226-0.1749 6.8314 5.2657 18.719h-14.222c3.1497-5.5549 5.0254-12.375 5.2398-18.236z"/>
   <path d="m990.27 347.95c0.01-0.87154-0.8953-0.46463-1.0178-0.1903-1.1632 1.9856-2.8648 2.4477-4.5479 1.7318-1.6673-0.70916-2.6042-2.2804-2.4539-4.5222 0.3102-3.4378 3.0354-7.1996 4.355-9.3262 1.252-1.9299 2.6279-4.2222 4.0767-7.1541 1.6972 3.3632 2.5586 4.3206 4.4051 7.3915 1.626 2.7044 3.8925 5.353 4.0675 8.6224 0 2.4849-1.046 4.8318-3.3994 5.2594-1.3314 0.2419-2.5787-0.44156-3.5038-2.0369-0.2818-0.40656-0.84874-0.19466-0.83924 0.3619 0.16514 2.0933 0.95534 3.9832 2.8294 6.2116h-6.887c1.4101-1.576 2.8487-3.7037 2.9153-6.349z"/>
   <path d="m1178.7 520.53c0.01 0.87153-0.8953 0.46462-1.0178 0.1903-1.1632-1.9856-2.8648-2.4477-4.5479-1.7318-1.6673 0.70915-2.6042 2.2803-2.4539 4.5222 0.3102 3.4378 3.0354 7.1996 4.355 9.3262 1.252 1.9299 2.6279 4.2222 4.0767 7.1541 1.6972-3.3632 2.5586-4.3206 4.4051-7.3915 1.626-2.7044 3.8925-5.353 4.0675-8.6224 0-2.4849-1.046-4.8318-3.3994-5.2594-1.3314-0.2419-2.5787 0.44155-3.5038 2.0369-0.2818 0.40655-0.8487 0.19465-0.8392-0.36191 0.1651-2.0933 0.9553-3.9832 2.8294-6.2116h-6.887c1.4101 1.576 2.8487 3.7037 2.9153 6.349z"/>
  </g>
 </g>
</svg>
